<?xml version="1.0" encoding="utf-8"?>
<!-- Generator: Adobe Illustrator 25.2.0, SVG Export Plug-In . SVG Version: 6.00 Build 0)  -->
<svg version="1.1" id="Layer_1" xmlns="http://www.w3.org/2000/svg" xmlns:xlink="http://www.w3.org/1999/xlink" x="0px" y="0px"
	 viewBox="0 0 162.4 162.4" style="enable-background:new 0 0 162.4 162.4;" xml:space="preserve">
<g>
	<path d="M39.2,125.3l-1.1,2.9c-0.1,0.5-0.6,0.8-1,0.7c-0.2,0-0.4-0.1-0.6-0.2c-0.2-0.1-0.3-0.4-0.3-0.6c0-0.1,0-0.2,0.1-0.3
		c0-0.1,0-0.2,0.1-0.2l5.2-14c0.1-0.3,0.3-0.7,0.6-0.9c0.2-0.2,0.5-0.3,0.8-0.3c0.3,0,0.6,0.1,0.8,0.3c0.3,0.2,0.5,0.5,0.6,0.9
		l5.3,14.1c0.1,0.2,0.1,0.4,0.1,0.6c0,0.2-0.1,0.4-0.3,0.6c-0.2,0.1-0.4,0.2-0.7,0.2c-0.2,0-0.4-0.1-0.6-0.2
		c-0.2-0.1-0.3-0.3-0.4-0.6l-1-2.9H39.2z M39.8,123.6h6.3l-3.1-8.8l0,0L39.8,123.6z"/>
	<path d="M53.3,127.2v5.4c0,0.3-0.1,0.6-0.3,0.9c-0.3,0.4-0.9,0.5-1.3,0.1c-0.1,0-0.1-0.1-0.1-0.1c-0.2-0.2-0.3-0.5-0.3-0.8v-15.2
		c0-0.3,0.1-0.6,0.3-0.8c0.2-0.2,0.4-0.3,0.7-0.3c0.3,0,0.5,0.1,0.7,0.3c0.2,0.2,0.3,0.5,0.3,0.7v0.6l0,0c0.6-1.1,1.8-1.8,3-1.6
		c0.7,0,1.5,0.1,2.2,0.4c0.7,0.3,1.3,0.7,1.7,1.3c0.5,0.6,0.9,1.2,1.1,1.9c0.3,0.8,0.4,1.6,0.4,2.5c0,1.1-0.2,2.2-0.6,3.2
		c-0.4,0.9-1,1.7-1.8,2.3c-0.8,0.6-1.7,0.8-2.7,0.8C55.3,128.9,54.1,128.3,53.3,127.2L53.3,127.2z M59.8,122.7
		c0-0.7-0.1-1.5-0.4-2.1c-0.2-0.6-0.6-1.2-1-1.7c-0.5-0.4-1.1-0.7-1.8-0.7c-0.7,0-1.5,0.2-2,0.6c-0.5,0.4-0.9,1-1.1,1.7
		c-0.2,0.7-0.4,1.4-0.4,2.1c-0.1,1.2,0.3,2.3,0.9,3.3c0.5,0.8,1.4,1.3,2.4,1.3h0.2c0.6,0,1.2-0.3,1.7-0.7c0.5-0.4,0.9-1,1.1-1.6
		C59.7,124.2,59.8,123.5,59.8,122.7L59.8,122.7z"/>
	<path d="M66,127.2v5.4c0,0.3-0.1,0.6-0.3,0.9c-0.2,0.2-0.4,0.3-0.7,0.3c-0.3,0-0.5-0.1-0.7-0.4c-0.2-0.2-0.3-0.5-0.3-0.8v-15.1
		c0-0.3,0.1-0.6,0.3-0.8c0.2-0.2,0.4-0.3,0.7-0.3c0.3,0,0.5,0.1,0.7,0.3c0.2,0.2,0.3,0.5,0.3,0.7v0.6l0,0c0.6-1.1,1.8-1.8,3-1.6
		c0.8,0,1.5,0.1,2.2,0.4c0.7,0.3,1.2,0.7,1.7,1.3c0.5,0.6,0.9,1.2,1.1,1.9c0.3,0.8,0.4,1.6,0.4,2.5c0,1.1-0.2,2.2-0.6,3.2
		c-0.4,0.9-1,1.7-1.8,2.3c-0.8,0.6-1.7,0.8-2.7,0.8C68,128.9,66.8,128.3,66,127.2L66,127.2z M72.5,122.7c0-0.7-0.1-1.5-0.4-2.1
		c-0.2-0.6-0.6-1.2-1-1.7c-0.5-0.4-1.1-0.7-1.8-0.7c-0.7,0-1.4,0.2-2,0.6c-0.5,0.4-0.9,1-1.1,1.7c-0.2,0.7-0.4,1.4-0.4,2.1
		c-0.1,1.2,0.3,2.3,0.9,3.3c0.5,0.8,1.4,1.3,2.4,1.3h0.2c0.6,0,1.2-0.3,1.7-0.7c0.5-0.4,0.9-1,1.1-1.6
		C72.4,124.2,72.5,123.5,72.5,122.7L72.5,122.7z"/>
	<path d="M75.9,122.6c0-1,0.3-2,0.7-3c0.4-0.9,1-1.7,1.8-2.3c0.8-0.6,1.8-0.9,2.8-0.9c1,0,2,0.3,2.8,0.8c0.8,0.6,1.5,1.3,1.9,2.2
		c0.4,0.9,0.7,1.9,0.7,2.9c0,0.7-0.4,1-1.1,1h-7.6c0,0.7,0.2,1.4,0.5,2c0.3,0.6,0.7,1,1.3,1.3c0.6,0.3,1.2,0.4,1.8,0.4
		c1.2,0,2.4-0.5,3.3-1.3c0.2-0.2,0.5-0.3,0.8-0.4c0.2,0,0.4,0.1,0.5,0.3c0.1,0.2,0.2,0.4,0.2,0.6c0,0.3-0.1,0.5-0.3,0.7
		c-0.5,0.6-1.2,1-1.9,1.3c-0.8,0.3-1.7,0.5-2.6,0.5c-0.9,0-1.8-0.2-2.6-0.6c-0.7-0.3-1.3-0.8-1.8-1.5c-0.4-0.6-0.8-1.3-1-2
		c-0.2-0.7-0.3-1.4-0.3-2.2L75.9,122.6L75.9,122.6z M77.9,121.9h6.7c0-1-0.3-1.9-0.9-2.7c-1.3-1.3-3.4-1.4-4.7-0.1c0,0,0,0-0.1,0.1
		C78.2,119.9,77.9,120.9,77.9,121.9L77.9,121.9z"/>
	<path d="M89.1,118.3h-0.9c-0.3,0-0.5-0.1-0.7-0.2c-0.2-0.2-0.3-0.4-0.3-0.6c0-0.5,0.4-0.9,0.9-0.9c0,0,0.1,0,0.1,0h0.9v-2.7
		c0-0.3,0.1-0.5,0.3-0.7c0.2-0.2,0.4-0.3,0.7-0.2c0.3,0,0.5,0.1,0.7,0.2c0.2,0.2,0.3,0.5,0.3,0.7v2.7H92c0.3,0,0.5,0.1,0.7,0.2
		c0.2,0.2,0.2,0.4,0.2,0.6c0,0.2-0.1,0.4-0.2,0.6c-0.2,0.2-0.4,0.3-0.6,0.2h-1v9.6c0,0.3-0.1,0.5-0.3,0.7c-0.2,0.2-0.5,0.3-0.8,0.3
		c-0.2,0-0.5-0.1-0.7-0.3c-0.2-0.2-0.3-0.5-0.3-0.8V118.3z"/>
	<path d="M94.9,115.1c-0.3,0-0.6-0.1-0.8-0.4c-0.2-0.2-0.3-0.5-0.3-0.8c0-0.3,0.1-0.6,0.3-0.8c0.4-0.5,1.1-0.5,1.6-0.1
		c0.2,0.2,0.4,0.5,0.4,0.9c0,0.3-0.1,0.6-0.3,0.8C95.5,114.9,95.2,115.1,94.9,115.1z M94,117.5c0-0.3,0.1-0.5,0.3-0.7
		c0.2-0.2,0.4-0.3,0.7-0.3c0.3,0,0.5,0.1,0.7,0.3c0.2,0.2,0.3,0.5,0.3,0.8v10.4c0,0.3-0.1,0.6-0.3,0.8c-0.2,0.2-0.4,0.3-0.7,0.3
		c-0.3,0-0.5-0.1-0.7-0.3c-0.2-0.2-0.3-0.5-0.3-0.8V117.5z"/>
	<path d="M98.8,116.6h6.9c0.6,0,0.9,0.2,0.9,0.7c-0.1,0.4-0.2,0.7-0.4,1l-5.9,8.7h5.6c0.3,0,0.5,0.1,0.7,0.2
		c0.2,0.2,0.2,0.4,0.2,0.6c0,0.2-0.1,0.4-0.3,0.6c-0.2,0.2-0.5,0.3-0.7,0.3h-7.3c-0.3,0-0.5,0-0.8-0.1c-0.2-0.1-0.3-0.2-0.3-0.5
		c0.1-0.4,0.3-0.9,0.5-1.2l5.8-8.6h-5.1c-0.2,0-0.5-0.1-0.6-0.2c-0.2-0.2-0.3-0.4-0.3-0.6c0-0.5,0.4-0.9,0.9-0.9
		C98.7,116.6,98.8,116.6,98.8,116.6z"/>
	<path d="M107.9,122.6c0-1,0.3-2,0.7-3c0.4-0.9,1-1.7,1.8-2.3c0.8-0.6,1.8-0.9,2.8-0.9c1,0,2,0.3,2.8,0.8c0.8,0.6,1.5,1.3,1.9,2.2
		c0.4,0.9,0.7,1.9,0.7,2.9c0,0.7-0.4,1-1.1,1h-7.6c0,0.7,0.2,1.4,0.5,2c0.3,0.6,0.7,1,1.3,1.3c0.6,0.3,1.2,0.4,1.8,0.4
		c1.2,0,2.4-0.5,3.3-1.3c0.2-0.2,0.5-0.3,0.8-0.4c0.2,0,0.4,0.1,0.5,0.3c0.1,0.2,0.2,0.4,0.2,0.6c0,0.3-0.1,0.5-0.3,0.7
		c-0.5,0.6-1.2,1-1.9,1.3c-0.8,0.3-1.7,0.5-2.6,0.5c-0.9,0-1.8-0.2-2.6-0.6c-0.7-0.3-1.3-0.8-1.8-1.5c-0.4-0.6-0.8-1.3-1-2
		c-0.2-0.7-0.3-1.5-0.3-2.2V122.6L107.9,122.6z M109.9,121.9h6.7c0-1-0.3-1.9-0.9-2.7c-0.6-0.7-1.4-1-2.3-1c-0.9,0-1.8,0.3-2.4,1
		C110.2,119.9,109.9,120.9,109.9,121.9L109.9,121.9z"/>
	<path d="M120.5,117.5c0-0.3,0.1-0.6,0.3-0.8c0.2-0.2,0.4-0.3,0.7-0.3c0.3,0,0.5,0.1,0.7,0.3c0.2,0.2,0.3,0.5,0.3,0.8v1l0,0
		c0.3-0.5,0.7-1,1.2-1.4c0.4-0.4,0.9-0.6,1.5-0.7c0.3,0,0.6,0.1,0.8,0.3c0.2,0.2,0.4,0.4,0.4,0.7c0,0.3-0.1,0.6-0.4,0.8
		c-0.3,0.2-0.7,0.3-1,0.4c-0.3,0.1-0.6,0.2-0.9,0.3c-0.5,0.3-0.9,0.7-1.2,1.2c-0.3,0.6-0.4,1.2-0.4,1.8v6c0,0.3-0.1,0.6-0.3,0.8
		c-0.2,0.2-0.4,0.3-0.7,0.3c-0.3,0-0.5-0.1-0.7-0.3c-0.2-0.2-0.3-0.5-0.3-0.8L120.5,117.5z"/>
</g>
<g>
	<path d="M51.1,79.7c-0.3,0-0.6-0.1-0.8-0.3c-0.6-0.6-1.2-1.2-1.7-1.7l-0.9-0.9c-0.4-0.4-0.5-1.1-0.1-1.5c0,0,0,0,0.1-0.1l1-1
		l7.8-7.8c0.2-0.1,0.2-0.4,0.1-0.5c-1.1-2.6-0.8-5.5,0.7-7.9c1.2-2,3.2-3.4,5.5-3.9c0.4-0.1,0.9-0.1,1.3-0.2l0.6-0.1H65l-0.3-0.3
		c-0.9-0.8-1.4-2-1.4-3.2c0-1.2,0.5-2.4,1.4-3.2c1.8-1.6,4.5-1.4,6.1,0.4l0.3,0.3v-0.5c0-4.8,3.8-8.7,8.6-8.7c0,0,0.1,0,0.1,0h0.4
		L80,38.3L79.8,38c-0.2-0.2-0.3-0.4-0.5-0.6c-1.3-2-0.8-4.6,1.2-5.9c0.5-0.3,1-0.5,1.5-0.6c0.3-0.1,0.6-0.1,0.9-0.1
		c1.1,0,2.2,0.5,3,1.3c0.5,0.5,1,1,1.6,1.5l0.9,0.9l0.7-0.7l1.5-1.5l6.9-6.9c0.2-0.2,0.5-0.3,0.8-0.3c0.3,0,0.6,0.1,0.8,0.3l2.7,2.6
		c0.4,0.4,0.5,1.1,0.1,1.5c0,0-0.1,0.1-0.1,0.1L95,36.3l-0.2,0.2L93.4,38l-0.8,0.8l1.9,1.9c0.6,0.5,1,1.1,1.4,1.7
		c0.6,1.2,0.5,2.6-0.1,3.8c-0.6,1.2-1.7,2-3,2.2c-0.3,0.1-0.6,0.1-0.8,0.1c-1.1,0-2.2-0.5-3-1.3l-0.5-0.4v0.4c0,4.8-3.8,8.7-8.6,8.8
		c-0.1,0-0.1,0-0.2,0h-0.4l0.3,0.3c1.1,1,1.6,2.4,1.4,3.8c-0.3,2.1-2.1,3.7-4.2,3.7h-0.2c-1.2-0.1-2.2-0.6-3-1.4L73.3,62l-0.1,0.9
		c0,0.3-0.1,0.6-0.1,1c-0.2,1.4-0.8,2.8-1.7,4c-1.2,1.5-2.8,2.6-4.7,3.1c-0.7,0.2-1.5,0.3-2.2,0.3c-1.1,0-2.2-0.2-3.2-0.6
		c-0.1,0-0.2-0.1-0.3-0.1c-0.2,0-0.3,0.1-0.4,0.2l-4,4c-1.6,1.6-3.1,3.1-4.7,4.7C51.7,79.7,51.4,79.8,51.1,79.7z M49.9,76l1.1,1.2
		l7.9-7.9l-1.1-1.2L49.9,76z M64.5,56c-3.6,0-6.5,2.9-6.5,6.5c0,0,0,0,0,0c0,1.7,0.7,3.3,1.9,4.5c1.2,1.3,2.9,2,4.7,2h0.1
		c3.5-0.1,6.3-3,6.4-6.5C71.1,58.9,68.2,56,64.5,56C64.6,56,64.6,56,64.5,56L64.5,56z M67.5,48.2c-0.6,0-1.1,0.3-1.5,0.7
		c-0.4,0.5-0.6,1.1-0.5,1.7c0.1,0.5,0.4,1,0.8,1.4l5.2,5.2l1,1l2.7,2.7c0.4,0.4,0.9,0.6,1.5,0.6c0.6,0,1.1-0.2,1.6-0.7
		c0.8-0.8,0.8-2.1,0-3l-9.1-9.1c-0.4-0.4-0.9-0.6-1.5-0.6L67.5,48.2L67.5,48.2z M79.8,40.8c-3.6,0-6.5,3-6.4,6.5
		c0,3.6,3,6.5,6.5,6.4c3.6,0,6.4-2.9,6.4-6.5c0-3.6-2.8-6.5-6.4-6.5C79.8,40.8,79.8,40.8,79.8,40.8L79.8,40.8z M82.8,33
		c-0.6,0-1.1,0.2-1.5,0.6c-0.4,0.4-0.6,0.9-0.6,1.5c0,0.6,0.2,1.1,0.6,1.5l6.4,6.4l2.7,2.7c0.4,0.4,1,0.6,1.5,0.7l0.3-0.1
		c0.2,0,0.4-0.1,0.6-0.2c0.6-0.3,1.1-0.8,1.2-1.5c0.1-0.7-0.1-1.4-0.6-1.9l-2.1-2.1l-2.9-3c-1-1-1.9-1.9-2.9-2.9l-1.2-1.2
		C83.9,33.2,83.4,32.9,82.8,33L82.8,33z M89.9,36l1.1,1.1l8.3-8.3l-1.1-1.1L89.9,36z"/>
	<path d="M60.9,100.3c-0.3,0-0.7-0.2-0.9-0.4l-2.5-2.5c-0.5-0.4-0.6-1-0.3-1.5c0.1-0.1,0.2-0.2,0.3-0.3l8.7-8.7l0.1-0.1l0.1-0.1
		v-0.2c-1.9-4.4,0.1-9.6,4.5-11.5c1.1-0.5,2.3-0.7,3.5-0.7h0.4L74.5,74c-1.1-1-1.6-2.5-1.4-4c0.1-0.9,0.6-1.8,1.3-2.4
		c1.8-1.6,4.5-1.5,6.1,0.2c0,0,0,0,0,0l0.3,0.3v-0.4c0-4.8,3.8-8.7,8.6-8.7c0.1,0,0.1,0,0.2,0H90l-0.4-0.5l-0.3-0.3
		c-0.6-0.7-0.9-1.5-1-2.4c-0.2-1.6,0.7-3.2,2.1-4c0.7-0.4,1.4-0.6,2.2-0.6c1.2,0,2.4,0.5,3.2,1.4c0.5,0.5,1,1,1.5,1.5l0.8,0.8
		l0.5-0.5l0.8-0.8l2.4-2.4l5.4-5.4c0.4-0.4,1.2-0.4,1.6,0c0.6,0.6,1.2,1.2,1.7,1.8l0.8,0.8c0.5,0.4,0.6,1.1,0.2,1.6
		c-0.1,0.1-0.1,0.1-0.2,0.2l-6.9,7l-1.3,1.3l-0.7,0.7l0.7,0.7l1.1,1.1l0.2,0.2c0.5,0.4,0.9,0.9,1.2,1.4c0.7,1.3,0.7,2.8,0,4
		c-0.6,1.2-1.8,2.1-3.2,2.2c-0.2,0-0.4,0-0.6,0c-1.1,0-2.2-0.5-3-1.3c-0.1-0.1-0.1-0.1-0.2-0.2l-0.3-0.2v0.3c0,2.3-0.9,4.6-2.6,6.2
		c-1.6,1.7-3.9,2.6-6.2,2.5H89l0.3,0.3c1,0.9,1.6,2.2,1.5,3.5c0,1-0.5,2-1.2,2.7c-0.5,0.6-1.2,1-2,1.2c-0.4,0.1-0.7,0.1-1.1,0.1
		c-0.4,0-0.8-0.1-1.3-0.2c-0.8-0.2-1.5-0.7-2-1.3L83,82.5v0.4c0,3-1.4,5.7-3.9,7.3c-1.4,0.9-3,1.4-4.6,1.4c-1.3,0-2.5-0.3-3.7-0.7
		l-0.1,0l-4,4l-5,5C61.5,100.1,61.2,100.3,60.9,100.3z M59.8,96.5l1.1,1.2l7.9-7.9l-1.2-1.1L59.8,96.5z M74.3,76.5
		c-3.6-0.1-6.6,2.7-6.7,6.3c-0.1,3.6,2.7,6.6,6.3,6.7c0.2,0,0.3,0,0.5,0h0.2c3.6-0.2,6.3-3.2,6.2-6.8C80.6,79.3,77.8,76.6,74.3,76.5
		L74.3,76.5z M77.4,68.7c-0.5,0-1.1,0.2-1.5,0.6c-0.4,0.4-0.6,0.9-0.6,1.5c0,0.6,0.2,1.1,0.6,1.5l9.1,9.1c0.3,0.4,0.8,0.6,1.3,0.6
		l0,0c0.9,0.1,1.8-0.4,2.2-1.3c0.3-0.8,0.1-1.7-0.5-2.3l-9.1-9.1C78.5,68.9,77.9,68.7,77.4,68.7L77.4,68.7z M89.6,61.3
		c-1.7,0-3.4,0.7-4.6,1.9c-2.5,2.6-2.5,6.7,0,9.2c1.2,1.2,2.8,1.9,4.5,1.9h0.1c3.6,0,6.5-2.9,6.5-6.5C96.2,64.2,93.3,61.3,89.6,61.3
		L89.6,61.3z M92.7,53.5c-0.3,0-0.7,0.1-1,0.2c-0.7,0.3-1.2,1-1.2,1.8c0,0.6,0.2,1.1,0.6,1.6c0.6,0.6,1.2,1.2,1.8,1.8l5.7,5.7
		c0.6,0.6,1.1,1.1,1.7,1.7c0.4,0.4,1,0.6,1.5,0.6l0,0c0.5,0,0.9-0.1,1.3-0.4c0.5-0.4,0.8-0.9,0.8-1.5c0-0.7-0.2-1.3-0.7-1.8
		c-1.5-1.4-2.9-2.9-4.3-4.3l-2.7-2.7c-0.7-0.7-1.4-1.4-2.1-2.1C93.7,53.7,93.2,53.5,92.7,53.5L92.7,53.5z M99.7,56.5l1.2,1.2
		l8.3-8.3l-1.2-1.2L99.7,56.5z"/>
	<path d="M76.4,48.3c-0.6,0-1.1-0.5-1.1-1.1c0,0,0,0,0,0v-0.1c0.1-2.3,1.8-4.1,4.1-4.3h0.4c0.3,0,0.5,0.1,0.8,0.2
		c0.5,0.4,0.5,1.1,0.2,1.5c-0.2,0.2-0.5,0.4-0.8,0.4c-1.1,0-2,0.7-2.3,1.8c0,0.2-0.1,0.4-0.1,0.6C77.5,47.8,77,48.3,76.4,48.3
		C76.4,48.3,76.4,48.3,76.4,48.3L76.4,48.3z"/>
	<path d="M61.1,63.5c-0.6,0-1.1-0.5-1.1-1.1v0c0-2.1,1.4-3.8,3.4-4.3c0.2,0,0.4-0.1,0.6-0.1l0.3,0h0.1c0.4,0,0.9,0.2,1.1,0.6
		c0.2,0.4,0.1,0.9-0.3,1.3c-0.2,0.1-0.4,0.2-0.6,0.3c-1.3,0-2.4,1.1-2.4,2.4c0,0,0,0,0,0c0,0.3-0.1,0.5-0.3,0.7
		C61.7,63.5,61.4,63.6,61.1,63.5L61.1,63.5z"/>
	<path d="M86.2,68.9c-0.3,0-0.6-0.1-0.8-0.3c-0.2-0.2-0.3-0.6-0.3-0.9c0.1-2.4,2-4.4,4.5-4.4c0.6,0,1.1,0.5,1.1,1.1c0,0,0,0,0,0
		c0,0.6-0.5,1.1-1,1.1h0c-1.3,0-2.3,1-2.4,2.3c0,0,0,0,0,0C87.3,68.3,86.8,68.8,86.2,68.9C86.2,68.8,86.2,68.8,86.2,68.9L86.2,68.9z
		"/>
	<path d="M70.9,84.1c-0.6,0-1.1-0.5-1.1-1.1c0,0,0-0.1,0-0.1c0.1-2.4,2-4.3,4.4-4.4h0.1c0.6,0,1.1,0.4,1.1,1.1c0,0,0,0,0,0
		c0,0.3-0.1,0.5-0.3,0.7c-0.2,0.2-0.5,0.4-0.8,0.4c-1.3,0-2.3,1-2.3,2.3C72,83.6,71.5,84.1,70.9,84.1z"/>
</g>
</svg>
