<?xml version="1.0" encoding="utf-8"?>
<!-- Generator: Adobe Illustrator 25.2.0, SVG Export Plug-In . SVG Version: 6.00 Build 0)  -->
<svg version="1.1" id="Layer_1" xmlns="http://www.w3.org/2000/svg" xmlns:xlink="http://www.w3.org/1999/xlink" x="0px" y="0px"
	 viewBox="0 0 162.4 162.4" style="enable-background:new 0 0 162.4 162.4;" xml:space="preserve">
<g>
	<path d="M47.7,117.2c0-0.2,0.1-0.5,0.2-0.6c0.2-0.1,0.4-0.2,0.6-0.2h2.8c0.6,0,1.1,0.1,1.7,0.4c0.5,0.2,0.9,0.6,1.2,1.1
		c0.3,0.4,0.5,1,0.5,1.5c0,0.4-0.1,0.7-0.2,1.1c-0.1,0.4-0.3,0.7-0.5,1c-0.3,0.3-0.6,0.5-1,0.7l0,0c0.6,0.1,1.2,0.4,1.7,0.8
		c0.4,0.3,0.6,0.7,0.8,1.2c0.1,0.4,0.2,0.8,0.2,1.2c0,0.6-0.2,1.2-0.5,1.7c-0.3,0.6-0.8,1-1.4,1.3c-0.6,0.4-1.4,0.5-2.1,0.5h-3.1
		c-0.4,0.1-0.8-0.2-0.8-0.6c0-0.1,0-0.1,0-0.2L47.7,117.2z M49.2,117.8v3.9H51c0.4,0,0.8-0.1,1.1-0.3c0.3-0.2,0.5-0.4,0.7-0.7
		c0.2-0.3,0.2-0.7,0.2-1c0-0.5-0.2-1-0.5-1.4c-0.4-0.4-0.9-0.6-1.4-0.6L49.2,117.8z M49.2,122.9v4.6h2.1c0.5,0,1-0.1,1.5-0.3
		c0.4-0.2,0.7-0.5,0.9-0.8c0.2-0.4,0.3-0.8,0.3-1.2c0-0.4-0.1-0.8-0.3-1.1c-0.2-0.4-0.5-0.7-0.9-0.9c-0.4-0.2-0.9-0.3-1.4-0.3H49.2z
		"/>
	<path d="M56.5,124.2c0-0.8,0.2-1.6,0.6-2.3c0.3-0.7,0.8-1.3,1.4-1.7c0.6-0.4,1.4-0.7,2.1-0.7c0.8,0,1.5,0.2,2.1,0.7
		c0.6,0.4,1.1,1,1.5,1.7c0.3,0.7,0.5,1.5,0.5,2.2c0,0.5-0.3,0.8-0.9,0.8H58c0,0.5,0.1,1.1,0.4,1.5c0.2,0.4,0.6,0.8,1,1
		c0.4,0.2,0.9,0.3,1.4,0.3c0.9,0,1.8-0.4,2.5-1c0.2-0.1,0.4-0.2,0.6-0.3c0.2,0,0.3,0.1,0.4,0.2c0.1,0.1,0.1,0.3,0.1,0.5
		c0,0.2-0.1,0.4-0.2,0.6c-0.4,0.4-0.9,0.8-1.5,1c-0.6,0.3-1.3,0.4-2,0.4c-0.7,0-1.4-0.1-2-0.4c-0.5-0.3-1-0.6-1.4-1.1
		c-0.3-0.5-0.6-1-0.8-1.5c-0.2-0.5-0.2-1.1-0.2-1.7L56.5,124.2L56.5,124.2z M58,123.7h5.1c0-0.7-0.2-1.5-0.7-2.1
		c-0.5-0.5-1.1-0.8-1.8-0.8c-0.7,0-1.4,0.2-1.9,0.8C58.3,122.1,58,122.9,58,123.7z"/>
	<path d="M65.4,120.7c-0.1-0.2-0.1-0.4-0.1-0.5c0-0.2,0.1-0.4,0.2-0.5c0.1-0.1,0.3-0.2,0.5-0.2c0.4,0,0.7,0.3,0.8,0.7l2.2,6.6
		l2.2-6.6c0.1-0.3,0.4-0.6,0.7-0.5c0.2,0,0.4,0.1,0.5,0.2c0.1,0.1,0.2,0.3,0.2,0.5c0,0.1,0,0.2-0.1,0.4l-2.8,7.9
		c-0.1,0.2-0.2,0.3-0.3,0.5c-0.1,0.1-0.3,0.2-0.5,0.2c-0.4,0-0.7-0.2-0.8-0.6L65.4,120.7z"/>
	<path d="M73.1,124.2c0-0.8,0.2-1.6,0.6-2.3c0.3-0.7,0.8-1.3,1.4-1.7c0.6-0.4,1.4-0.7,2.1-0.7c0.8,0,1.5,0.2,2.1,0.7
		c0.6,0.4,1.1,1,1.4,1.7c0.3,0.7,0.5,1.5,0.5,2.2c0,0.5-0.3,0.8-0.9,0.8h-5.8c0,0.5,0.1,1.1,0.4,1.5c0.2,0.4,0.6,0.8,1,1
		c0.4,0.2,0.9,0.3,1.4,0.3c0.9,0,1.8-0.4,2.5-1c0.2-0.1,0.4-0.2,0.6-0.3c0.2,0,0.3,0.1,0.4,0.2c0.1,0.1,0.1,0.3,0.1,0.5
		c0,0.2-0.1,0.4-0.2,0.6c-0.4,0.4-0.9,0.8-1.5,1c-0.6,0.3-1.3,0.4-2,0.4c-0.7,0-1.4-0.1-2-0.4c-0.5-0.3-1-0.6-1.4-1.1
		c-0.3-0.5-0.6-1-0.8-1.5c-0.2-0.5-0.2-1.1-0.2-1.7L73.1,124.2L73.1,124.2z M74.6,123.7h5.1c0-0.7-0.2-1.5-0.7-2.1
		c-0.5-0.5-1.1-0.8-1.8-0.8c-0.7,0-1.4,0.2-1.9,0.8C74.9,122.1,74.6,122.9,74.6,123.7z"/>
	<path d="M82.8,120.3c0-0.2,0.1-0.4,0.2-0.6c0.1-0.1,0.3-0.2,0.5-0.2c0.2,0,0.4,0.1,0.5,0.2c0.2,0.1,0.3,0.4,0.2,0.6v0.8l0,0
		c0.2-0.4,0.5-0.8,0.9-1.1c0.3-0.3,0.7-0.5,1.2-0.5c0.2,0,0.4,0.1,0.6,0.2c0.2,0.1,0.3,0.3,0.3,0.6c0,0.2-0.1,0.4-0.3,0.6
		c-0.3,0.1-0.5,0.2-0.8,0.3c-0.2,0-0.4,0.1-0.7,0.2c-0.4,0.2-0.7,0.5-0.9,0.9c-0.2,0.4-0.3,0.9-0.3,1.4v4.5c0,0.2-0.1,0.4-0.2,0.6
		c-0.1,0.1-0.3,0.2-0.5,0.2c-0.4,0-0.8-0.3-0.8-0.7c0,0,0-0.1,0-0.1L82.8,120.3z"/>
	<path d="M94.5,120.7v-0.5c0-0.2,0.1-0.4,0.2-0.5c0.1-0.1,0.3-0.2,0.5-0.2c0.2,0,0.4,0.1,0.5,0.2c0.1,0.2,0.2,0.4,0.2,0.6v8
		c0,0.2-0.1,0.4-0.2,0.6c-0.1,0.1-0.3,0.2-0.5,0.2c-0.2,0-0.4-0.1-0.5-0.2c-0.1-0.1-0.2-0.3-0.2-0.5v-0.7l0,0
		c-0.5,0.8-1.4,1.4-2.4,1.4c-0.8,0-1.5-0.2-2.1-0.6c-0.7-0.4-1.2-1-1.5-1.7c-0.8-1.6-0.8-3.5,0-5.2c0.4-0.7,0.9-1.2,1.6-1.6
		c0.6-0.3,1.2-0.5,1.9-0.5c0.5,0,1,0.1,1.4,0.3C93.8,120,94.2,120.4,94.5,120.7L94.5,120.7z M89.4,124.2c0,0.6,0.1,1.1,0.3,1.7
		c0.2,0.5,0.4,0.9,0.8,1.3c0.4,0.3,0.9,0.5,1.4,0.5c0.8,0.1,1.6-0.3,2-1c0.4-0.7,0.6-1.6,0.6-2.4c0-0.6-0.1-1.3-0.3-1.8
		c-0.2-0.5-0.5-0.9-0.9-1.2c-0.4-0.3-0.8-0.4-1.3-0.4l0,0c-0.8,0-1.5,0.4-1.9,1C89.6,122.5,89.4,123.4,89.4,124.2L89.4,124.2z"/>
	<path d="M104.1,127.7L104.1,127.7c-0.2,0.4-0.6,0.8-1,1c-0.5,0.3-1,0.4-1.5,0.4c-0.7,0-1.5-0.2-2.1-0.7c-0.6-0.4-1.1-1-1.4-1.7
		c-0.3-0.8-0.5-1.6-0.5-2.4c0-0.8,0.2-1.7,0.5-2.4c0.3-0.7,0.8-1.3,1.4-1.7c0.6-0.4,1.4-0.6,2.2-0.6c0.5,0,1,0.1,1.4,0.3
		c0.4,0.2,0.7,0.6,0.9,1l0,0v-0.5c0-0.2,0.1-0.4,0.2-0.6c0.1-0.1,0.3-0.2,0.5-0.2c0.2,0,0.4,0.1,0.6,0.2c0.2,0.2,0.2,0.4,0.2,0.6v8
		c0,0.8-0.2,1.6-0.5,2.3c-0.3,0.7-0.8,1.2-1.4,1.6c-0.7,0.4-1.4,0.6-2.2,0.6c-1,0-2-0.3-2.9-0.8c-0.4-0.2-0.7-0.6-0.8-1
		c0-0.3,0.3-0.6,0.6-0.7c0.4,0.1,0.7,0.2,1,0.4c0.3,0.2,0.6,0.4,1,0.5c0.4,0.1,0.7,0.2,1.1,0.2c0.8,0,1.5-0.3,1.9-1
		c0.4-0.7,0.7-1.5,0.6-2.3c0-0.1,0-0.1,0-0.2L104.1,127.7z M99.2,124.2c0,0.6,0.1,1.2,0.3,1.7c0.2,0.5,0.4,0.9,0.8,1.2
		c0.4,0.3,0.9,0.5,1.3,0.5c0.7,0,1.5-0.3,1.9-0.9c0.5-0.7,0.8-1.6,0.7-2.4c0-0.6-0.1-1.2-0.3-1.7c-0.2-0.5-0.5-1-0.9-1.3
		c-0.4-0.4-1-0.6-1.5-0.5c-0.5,0-1,0.2-1.4,0.5c-0.4,0.3-0.7,0.8-0.8,1.3C99.2,123.1,99.2,123.7,99.2,124.2L99.2,124.2z"/>
	<path d="M107.2,124.2c0-0.8,0.2-1.6,0.5-2.3c0.3-0.7,0.8-1.3,1.4-1.7c0.6-0.4,1.4-0.7,2.1-0.7c0.8,0,1.5,0.2,2.1,0.7
		c0.6,0.4,1.1,1,1.5,1.7c0.3,0.7,0.5,1.5,0.5,2.2c0,0.5-0.3,0.8-0.9,0.8h-5.8c0,0.5,0.1,1.1,0.4,1.5c0.2,0.4,0.6,0.8,1,1
		c0.4,0.2,0.9,0.3,1.4,0.3c0.9,0,1.8-0.4,2.5-1c0.2-0.1,0.4-0.2,0.6-0.3c0.2,0,0.3,0.1,0.4,0.2c0.1,0.1,0.1,0.3,0.1,0.5
		c0,0.2-0.1,0.4-0.2,0.6c-0.4,0.4-0.9,0.8-1.4,1c-0.6,0.3-1.3,0.4-2,0.4c-0.7,0-1.4-0.1-2-0.4c-0.5-0.3-1-0.6-1.4-1.1
		c-0.3-0.5-0.6-1-0.8-1.5c-0.2-0.5-0.2-1.1-0.2-1.7L107.2,124.2L107.2,124.2z M108.8,123.7h5.1c0-0.7-0.2-1.5-0.7-2.1
		c-0.5-0.5-1.1-0.8-1.8-0.8c-0.7,0-1.4,0.2-1.9,0.8C109,122.1,108.7,122.9,108.8,123.7z"/>
</g>
<g>
	<path d="M71.4,103.4c-1.6-0.4-3.1-1.2-4.2-2.5c-1.1-1.3-1.9-2.9-2-4.7c-0.4-4.2-0.8-8.3-1.2-12.5c-0.4-3.6-0.7-7.1-1-10.7
		c-0.4-4.1-0.8-8.3-1.2-12.4l-0.2-2.2h-2.9c-1.4,0-1.9-0.5-1.9-1.9c0-2.2,0-4.5,0-6.7c0-1.3,0.5-1.8,1.8-1.8c0.9,0,1.8,0,2.8,0
		c0-0.9,0-1.7,0-2.5c0-2.2,0.3-4.4,1.1-6.5c2.1-5.5,7.1-9.4,13-10.1c1.6-0.2,3.3-0.2,4.9-0.2c0.5,0,1.1,0,1.7,0
		c0.2-1.5,0.4-3,0.5-4.5c0.2-2.4,1.2-3.9,3.3-4.4c0.3-0.1,0.6-0.1,0.9-0.1h10.9c0.2,0,0.3,0,0.5,0v2.7H87.2c-1.4,0-1.8,0.4-1.9,1.7
		c-0.1,1.5-0.3,3-0.5,4.5c4.8,0.1,9.3,2.3,12.5,5.9c3.3,3.8,4.1,8.4,3.8,13.4h2.7c1.5,0,2,0.5,2,2v6.4c0,1.6-0.4,2-2.1,2h-2.4
		c-0.1,0-0.2,0-0.2,0.1c-0.1,1.4-0.3,2.9-0.5,4.3c-0.5,4.5-1,9.1-1.4,13.6c-0.4,3.9-0.8,7.8-1.2,11.7c-0.3,3.1-0.6,6.1-1,9.2
		c-0.3,2.8-2.4,5.1-5.1,5.8c-0.3,0.1-0.6,0.2-0.9,0.3L71.4,103.4z M64.2,58.4c0.1,1.5,0.3,3,0.5,4.5c0.5,5.3,1,10.5,1.5,15.8
		c0.6,5.8,1.2,11.6,1.7,17.4c0.1,2.6,2.2,4.7,4.8,4.6c0,0,0.1,0,0.1,0h16.5c0.3,0,0.6,0,0.9,0c2-0.1,3.6-1.7,3.9-3.7
		c0.3-2.7,0.6-5.4,0.9-8.1c0.4-4,0.8-7.9,1.2-11.9l1.2-11.7c0.2-2.3,0.5-4.5,0.7-6.9L64.2,58.4z M81.7,31.5
		c-12.4-1.4-18.8,6.7-17.6,16.4c0,0,0.1,0,0.1,0c5,0,10.1,0,15.1,0c0.6,0,0.6-0.4,0.6-0.8c0.4-3.4,0.7-6.7,1.1-10.1
		C81.4,35.3,81.5,33.4,81.7,31.5L81.7,31.5z M59.5,55.6h43.4v-4.8H59.5V55.6z M98.3,47.9c0.4-4.8-0.4-9.1-4-12.5
		c-2.6-2.5-6.2-4-9.8-4c-0.6,5.5-1.2,11-1.8,16.5L98.3,47.9z"/>
	<path d="M76.2,97.6c-0.7,0-1.4,0-2,0c-1.8-0.1-3.3-1.4-3.6-3.1c-0.4-2.2-0.8-4.5-1.1-6.8c-0.2-0.7,0.2-1.5,0.9-1.7
		c0.1,0,0.1,0,0.2,0c0.8-0.1,1.4,0.4,1.6,1.4c0.3,2,0.7,4.1,1,6.1c0.2,1.2,0.5,1.5,1.8,1.5h3.2c1,0,1.6,0.5,1.6,1.4
		s-0.5,1.3-1.6,1.4C77.6,97.6,76.9,97.6,76.2,97.6L76.2,97.6z"/>
</g>
</svg>
