<?xml version="1.0" encoding="utf-8"?>
<!-- Generator: Adobe Illustrator 25.2.0, SVG Export Plug-In . SVG Version: 6.00 Build 0)  -->
<svg version="1.1" id="Layer_1" xmlns="http://www.w3.org/2000/svg" xmlns:xlink="http://www.w3.org/1999/xlink" x="0px" y="0px"
	 viewBox="0 0 162.4 162.4" style="enable-background:new 0 0 162.4 162.4;" xml:space="preserve">
<g>
	<path d="M52.4,113.6c0-0.3,0.1-0.6,0.3-0.8c0.2-0.2,0.5-0.3,0.7-0.3h3.7c0.8,0,1.5,0.2,2.2,0.5c0.6,0.3,1.1,0.8,1.5,1.4
		c0.4,0.6,0.6,1.2,0.6,1.9c0,0.5-0.1,1-0.2,1.4c-0.1,0.5-0.4,0.9-0.7,1.3c-0.4,0.4-0.8,0.7-1.3,0.9l0,0c0.8,0.1,1.6,0.5,2.2,1
		c0.5,0.4,0.8,1,1,1.5c0.2,0.5,0.3,1,0.3,1.5c0,0.8-0.2,1.6-0.6,2.3c-0.4,0.7-1,1.3-1.8,1.7c-0.8,0.5-1.8,0.7-2.7,0.7h-4
		c-0.5,0.1-1-0.3-1.1-0.8c0-0.1,0-0.2,0-0.3L52.4,113.6z M54.4,114.3v5.1h2.3c0.5,0,1-0.1,1.5-0.4c0.8-0.5,1.2-1.3,1.2-2.2
		c0-0.7-0.2-1.3-0.7-1.8c-0.5-0.5-1.1-0.8-1.8-0.8H54.4z M54.4,121.1v6h2.7c0.7,0,1.3-0.1,2-0.4c0.5-0.2,0.9-0.6,1.2-1.1
		c0.3-0.5,0.4-1,0.4-1.5c0-0.5-0.1-1-0.4-1.5c-0.2-0.5-0.6-0.9-1.1-1.1c-0.6-0.3-1.2-0.4-1.8-0.4L54.4,121.1z"/>
	<path d="M64.6,117.6c0-0.3,0.1-0.6,0.3-0.7c0.2-0.2,0.4-0.3,0.7-0.3c0.3,0,0.5,0.1,0.7,0.3c0.2,0.2,0.3,0.5,0.3,0.7v1l0,0
		c0.3-0.5,0.7-1,1.2-1.4c0.4-0.4,1-0.6,1.5-0.7c0.3,0,0.6,0.1,0.8,0.3c0.2,0.2,0.3,0.4,0.3,0.7c0,0.3-0.1,0.6-0.3,0.8
		c-0.3,0.2-0.7,0.3-1,0.4c-0.3,0.1-0.6,0.2-0.9,0.3c-0.5,0.3-0.9,0.7-1.2,1.2c-0.3,0.6-0.4,1.2-0.4,1.8v5.9c0,0.3-0.1,0.6-0.3,0.8
		c-0.2,0.2-0.4,0.3-0.7,0.3c-0.3,0-0.5-0.1-0.7-0.3c-0.2-0.2-0.3-0.5-0.3-0.8L64.6,117.6z"/>
	<path d="M71,122.6c0-1,0.3-2,0.7-3c0.4-0.9,1-1.7,1.8-2.3c0.8-0.6,1.8-0.9,2.8-0.9c1,0,2,0.3,2.8,0.8c0.8,0.6,1.5,1.3,1.9,2.2
		c0.4,0.9,0.7,1.9,0.7,2.9c0,0.7-0.4,1-1.1,1H73c0,0.7,0.2,1.4,0.5,2c0.3,0.6,0.7,1,1.3,1.3c0.6,0.3,1.2,0.4,1.8,0.4
		c1.2,0,2.4-0.5,3.2-1.3c0.2-0.2,0.5-0.3,0.8-0.4c0.2,0,0.4,0.1,0.5,0.2c0.1,0.2,0.2,0.4,0.2,0.6c0,0.3-0.1,0.5-0.3,0.7
		c-0.5,0.6-1.2,1-1.9,1.3c-0.8,0.3-1.7,0.5-2.6,0.5c-0.9,0-1.8-0.2-2.6-0.6c-0.7-0.3-1.3-0.8-1.8-1.5c-0.4-0.6-0.8-1.3-1-2
		c-0.2-0.7-0.3-1.4-0.3-2.2L71,122.6L71,122.6z M73,122h6.7c0-1-0.3-1.9-0.9-2.7c-1.2-1.3-3.3-1.4-4.7-0.2c0,0-0.1,0.1-0.1,0.1
		C73.4,120,73,121,73,122z"/>
	<path d="M91.8,118.2v-0.7c0-0.3,0.1-0.5,0.3-0.7c0.2-0.2,0.4-0.3,0.7-0.3c0.2,0,0.5,0.1,0.7,0.3c0.2,0.2,0.3,0.5,0.3,0.8V128
		c0,0.3-0.1,0.6-0.3,0.8c-0.2,0.2-0.4,0.3-0.7,0.2c-0.2,0-0.5-0.1-0.7-0.2c-0.2-0.2-0.3-0.4-0.3-0.7v-0.9l0,0
		c-0.7,1.1-1.9,1.8-3.2,1.8c-1,0-1.9-0.3-2.8-0.8c-0.8-0.5-1.5-1.3-2-2.2c-1-2.1-0.9-4.6,0.1-6.7c0.5-0.9,1.2-1.6,2-2.1
		c0.7-0.4,1.6-0.7,2.4-0.7c0.6,0,1.3,0.1,1.9,0.4C90.8,117.3,91.3,117.7,91.8,118.2L91.8,118.2z M85.1,122.7c0,0.7,0.1,1.5,0.4,2.2
		c0.2,0.6,0.6,1.2,1.1,1.6c0.5,0.4,1.1,0.7,1.8,0.6c1,0.1,2-0.4,2.6-1.3c0.5-1,0.8-2.1,0.8-3.2c0-0.8-0.1-1.6-0.4-2.4
		c-0.2-0.6-0.6-1.2-1.2-1.5c-0.5-0.4-1.1-0.6-1.7-0.5l0,0c-1,0-1.9,0.5-2.4,1.3C85.4,120.5,85.1,121.6,85.1,122.7L85.1,122.7z"/>
	<path d="M104.2,118.2v-6c0-0.3,0.1-0.5,0.3-0.7c0.2-0.2,0.4-0.3,0.7-0.3c0.3,0,0.5,0.1,0.7,0.3c0.2,0.2,0.3,0.5,0.3,0.8v15.7
		c0,0.3-0.1,0.6-0.3,0.8c-0.4,0.4-1,0.4-1.4,0c-0.2-0.2-0.3-0.4-0.3-0.7v-0.7l0,0c-0.2,0.5-0.6,0.9-1.1,1.1c-0.6,0.3-1.3,0.5-2,0.5
		c-1,0-2-0.2-2.8-0.8c-0.8-0.5-1.5-1.3-1.9-2.2c-0.8-1.8-0.9-3.8-0.3-5.6c0.2-0.7,0.6-1.4,1.1-2c0.5-0.5,1-1,1.6-1.3
		c0.6-0.3,1.3-0.5,2.1-0.5C102.2,116.5,103.5,117.2,104.2,118.2L104.2,118.2z M97.7,122.7c0,1.1,0.2,2.2,0.8,3.1
		c0.5,0.8,1.4,1.4,2.4,1.4c0.7,0,1.5-0.2,2-0.7c0.5-0.4,0.9-1,1.1-1.7c0.2-0.7,0.4-1.4,0.4-2.1c0-0.8-0.1-1.6-0.4-2.4
		c-0.2-0.6-0.6-1.2-1.2-1.6c-0.5-0.4-1.1-0.6-1.7-0.6c-0.7,0-1.4,0.2-1.9,0.7c-0.5,0.4-0.9,1-1.1,1.7
		C97.9,121.3,97.8,122,97.7,122.7L97.7,122.7z"/>
</g>
<g>
	<path d="M115.8,55.2c-0.4,1.1-0.6,2.2-1.1,3.2c-0.8,1.8-2,3.4-3.6,4.7c-0.6,0.4-0.9,1.1-0.8,1.8c0,7.5,0,15,0,22.5
		c0.1,3.7-2.8,6.9-6.5,7c-0.1,0-0.3,0-0.4,0H58.9c-3.7,0.1-6.9-2.8-7-6.6c0-0.1,0-0.3,0-0.4c0-7.6,0-15.1,0-22.7
		c0-0.6-0.2-1.2-0.7-1.6c-1.9-1.6-3.4-3.7-4.1-6.1c-1.1-3.3-0.5-6.9,1.6-9.7c2.3-3.1,5.4-5.5,8.9-6.9c4.7-2,9.8-3,14.9-3
		c5.6,0,11.1,0,16.7,0c4.8-0.1,9.6,0.8,14.1,2.5c3.3,1.2,6.4,3.1,8.9,5.6c1.9,1.8,3.1,4.1,3.6,6.7c0,0.1,0.1,0.2,0.1,0.3L115.8,55.2
		z M72.6,91.7h13.5c0.5,0,1.1-0.1,1.6-0.2c1.9-0.5,3.1-2.3,3-4.3c0-7.8,0-15.6,0-23.5c0-0.8,0.4-1.6,1-2.1c1-0.8,1.9-1.8,2.6-2.8
		c2.2-2.8,2.3-6.7,0.3-9.6c-1.5-2.2-3.5-4-5.9-5.2c-3.8-2-8-3.2-12.3-3.6c-5.6-0.6-11.4,0.1-16.7,2.1c-3.3,1.1-6.3,3.1-8.5,5.8
		c-2.1,2.4-2.6,5.9-1.3,8.8c0.9,1.8,2.2,3.4,3.8,4.6c0.6,0.4,0.9,1.1,0.8,1.8c0,7.8,0,15.7,0,23.6c0,2.9,1.7,4.6,4.6,4.6L72.6,91.7z
		 M92,91.7h11.1c3,0,4.7-1.6,4.7-4.6c0-7.8,0-15.7,0-23.5c0-0.7,0.3-1.3,0.8-1.7c1-0.9,2-1.9,2.9-3c1.2-1.5,1.8-3.4,1.7-5.3
		c-0.1-1.9-0.8-3.8-2.1-5.2c-2.4-2.7-5.4-4.7-8.8-5.8c-4.7-1.7-9.6-2.5-14.5-2.3c-0.1,0-0.3,0-0.4,0.1c0.7,0.3,1.3,0.6,1.9,0.9
		c2.6,1.2,5,3.1,6.8,5.3c2.6,3.3,3.5,6.9,2.1,11c-0.8,2.2-2.2,4.2-4,5.7c-0.5,0.4-0.7,0.9-0.7,1.5c0,7,0,14.1,0,21.1
		C93.4,87.9,93.4,89.9,92,91.7L92,91.7z"/>
	<path d="M81.9,61c-0.2,0.4-0.4,0.8-0.7,1.2c-5,5-10,10-15,15c-0.5,0.6-1.3,0.7-1.9,0.3c-0.6-0.5-0.7-1.3-0.3-1.9
		c0.1-0.1,0.2-0.2,0.3-0.3c5-5,10-10,15-15c0.4-0.5,1.1-0.7,1.6-0.4C81.2,60.2,81.6,60.5,81.9,61z"/>
	<path d="M70.4,61c-0.2,0.4-0.5,0.8-0.7,1.2c-1.8,1.8-3.6,3.6-5.4,5.5c-0.5,0.6-1.3,0.7-1.9,0.3c-0.6-0.5-0.7-1.3-0.3-1.9
		c0.1-0.1,0.2-0.2,0.3-0.3c1.8-1.9,3.7-3.7,5.5-5.5c0.4-0.5,1-0.6,1.6-0.3C69.8,60.2,70.1,60.6,70.4,61z"/>
	<path d="M83.8,70.5c-0.2,0.4-0.5,0.8-0.7,1.2c-1.8,1.8-3.6,3.6-5.4,5.5c-0.5,0.6-1.4,0.7-2,0.2c0,0-0.1-0.1-0.1-0.1
		c-0.5-0.6-0.5-1.4,0.1-1.9c0,0,0.1-0.1,0.1-0.1c1.8-1.8,3.6-3.6,5.4-5.4c0.5-0.5,1-0.8,1.6-0.4C83.2,69.8,83.5,70.1,83.8,70.5z"/>
	<path d="M72.6,58.6c-0.7,0-1.3-0.6-1.3-1.3c0-0.7,0.6-1.3,1.3-1.3c0.7,0,1.4,0.6,1.4,1.3C74,58,73.4,58.6,72.6,58.6
		C72.7,58.6,72.7,58.6,72.6,58.6z"/>
	<path d="M74,80.2c0,0.7-0.6,1.3-1.3,1.3c-0.7,0-1.4-0.6-1.4-1.3c0-0.7,0.6-1.4,1.4-1.4C73.4,78.8,74,79.4,74,80.2z"/>
	<path d="M99.6,77.2c0-3.3,0-6.6,0-9.9c0-0.7,0.2-1.3,0.7-1.8c2.2-2.4,3.7-5.3,4.4-8.5c0.2-1,0.3-2,0.3-3c0.1-1.1,0.6-1.6,1.4-1.6
		s1.3,0.7,1.3,1.7c-0.1,4.4-1.7,8.6-4.5,12c-0.6,0.7-0.9,1.7-0.9,2.6c0,6.1,0,12.2,0,18.3c0,0.2,0,0.5,0,0.7c0,0.7-0.6,1.3-1.4,1.3
		c-0.7,0-1.3-0.6-1.3-1.3l0,0c0-0.3,0-0.6,0-1L99.6,77.2z"/>
</g>
</svg>
