<?xml version="1.0" encoding="utf-8"?>
<!-- Generator: Adobe Illustrator 25.2.0, SVG Export Plug-In . SVG Version: 6.00 Build 0)  -->
<svg version="1.1" id="Layer_1" xmlns="http://www.w3.org/2000/svg" xmlns:xlink="http://www.w3.org/1999/xlink" x="0px" y="0px"
	 viewBox="0 0 162.4 162.4" style="enable-background:new 0 0 162.4 162.4;" xml:space="preserve">
<g>
	<path d="M36.5,113.6c0-0.3,0.1-0.6,0.3-0.8c0.2-0.2,0.5-0.3,0.7-0.3h3.7c0.8,0,1.5,0.2,2.2,0.5c0.6,0.3,1.1,0.8,1.5,1.4
		c0.4,0.6,0.6,1.2,0.6,1.9c0,0.5-0.1,1-0.2,1.4c-0.1,0.5-0.4,0.9-0.7,1.3c-0.4,0.4-0.8,0.7-1.3,0.9l0,0c0.8,0.1,1.6,0.5,2.2,1
		c0.5,0.4,0.8,1,1,1.5c0.2,0.5,0.3,1,0.3,1.5c0,0.8-0.2,1.6-0.6,2.3c-0.4,0.7-1,1.3-1.8,1.7c-0.8,0.5-1.8,0.7-2.8,0.7h-4
		c-0.5,0.1-1-0.3-1.1-0.8c0-0.1,0-0.2,0-0.3L36.5,113.6z M38.5,114.3v5.1h2.3c0.5,0,1-0.1,1.5-0.4c0.4-0.2,0.7-0.6,0.9-0.9
		c0.2-0.4,0.3-0.8,0.3-1.3c0-0.7-0.2-1.3-0.6-1.8c-0.5-0.5-1.1-0.8-1.8-0.8L38.5,114.3z M38.5,121.1v6h2.7c0.7,0,1.4-0.1,2-0.4
		c0.5-0.2,0.9-0.6,1.2-1.1c0.3-0.5,0.4-1,0.4-1.5c0-0.5-0.1-1-0.4-1.5c-0.3-0.5-0.7-0.9-1.1-1.1c-0.6-0.3-1.2-0.4-1.9-0.4H38.5z"/>
	<path d="M48.7,117.6c0-0.3,0.1-0.5,0.3-0.7c0.2-0.2,0.4-0.3,0.7-0.3c0.3,0,0.5,0.1,0.7,0.3c0.2,0.2,0.3,0.5,0.3,0.7v1l0,0
		c0.3-0.5,0.7-1,1.2-1.4c0.4-0.4,1-0.6,1.5-0.7c0.3,0,0.6,0.1,0.8,0.3c0.2,0.2,0.4,0.4,0.4,0.7c0,0.3-0.1,0.6-0.4,0.8
		c-0.3,0.2-0.7,0.3-1,0.4c-0.3,0.1-0.6,0.2-0.9,0.3c-0.5,0.3-0.9,0.7-1.2,1.2c-0.3,0.6-0.4,1.2-0.4,1.8v5.9c0,0.3-0.1,0.6-0.3,0.8
		c-0.2,0.2-0.4,0.3-0.7,0.3c-0.3,0-0.5-0.1-0.7-0.3c-0.2-0.2-0.3-0.5-0.3-0.8L48.7,117.6z"/>
	<path d="M55.1,122.6c0-1,0.3-2,0.7-3c0.4-0.9,1-1.7,1.8-2.3c0.8-0.6,1.8-0.9,2.8-0.9c1,0,2,0.3,2.8,0.8c0.8,0.6,1.5,1.4,1.9,2.3
		c0.4,0.9,0.7,1.9,0.7,2.9c0,0.6-0.4,1-1.1,1h-7.5c0,0.7,0.2,1.4,0.5,2c0.3,0.6,0.7,1,1.3,1.3c0.6,0.3,1.2,0.4,1.8,0.4
		c1.2,0,2.4-0.5,3.3-1.3c0.2-0.2,0.5-0.3,0.8-0.4c0.2,0,0.4,0.1,0.5,0.2c0.1,0.2,0.2,0.4,0.2,0.6c0,0.3-0.1,0.5-0.3,0.7
		c-0.5,0.6-1.2,1-1.9,1.3c-0.8,0.3-1.7,0.5-2.6,0.5c-0.9,0-1.8-0.2-2.6-0.6c-0.7-0.3-1.3-0.8-1.8-1.5c-0.4-0.6-0.8-1.3-1-2
		c-0.2-0.7-0.3-1.4-0.3-2.2L55.1,122.6L55.1,122.6z M57.1,122h6.7c0-1-0.3-1.9-0.9-2.7c-0.6-0.7-1.5-1.1-2.4-1.1
		c-0.9,0-1.8,0.3-2.4,1C57.5,120,57.1,121,57.1,122z"/>
	<path d="M75.8,118.2v-0.7c0-0.3,0.1-0.5,0.3-0.7c0.2-0.2,0.4-0.3,0.7-0.3c0.2,0,0.5,0.1,0.7,0.3c0.2,0.2,0.3,0.5,0.3,0.8V128
		c0,0.3-0.1,0.6-0.3,0.8c-0.2,0.2-0.4,0.3-0.7,0.2c-0.5,0-0.9-0.4-0.9-0.9c0,0,0,0,0-0.1v-0.9l0,0c-0.7,1.1-1.9,1.8-3.2,1.8
		c-1,0-1.9-0.3-2.8-0.8c-0.8-0.5-1.5-1.3-2-2.2c-1-2.1-1-4.6,0-6.7c0.5-0.9,1.2-1.6,2-2.1c0.7-0.4,1.6-0.7,2.4-0.7
		c0.6,0,1.3,0.1,1.9,0.4C74.8,117.3,75.4,117.7,75.8,118.2L75.8,118.2z M69.2,122.7c0,0.7,0.1,1.5,0.4,2.2c0.2,0.6,0.6,1.2,1.1,1.6
		c0.5,0.4,1.1,0.6,1.8,0.6c1,0.1,2-0.4,2.6-1.3c0.5-1,0.8-2.1,0.8-3.2c0-0.8-0.1-1.6-0.4-2.4c-0.2-0.6-0.6-1.2-1.2-1.5
		c-0.5-0.4-1.1-0.6-1.7-0.5l0,0c-1,0-1.9,0.5-2.4,1.3C69.5,120.5,69.2,121.6,69.2,122.7z"/>
	<path d="M80.4,112.2c0-0.3,0.1-0.5,0.3-0.7c0.2-0.2,0.4-0.3,0.7-0.2c0.3,0,0.5,0.1,0.7,0.2c0.2,0.2,0.3,0.5,0.3,0.8v8.6l4.7-3.9
		c0.2-0.2,0.5-0.3,0.8-0.3c0.2,0,0.5,0.1,0.6,0.3c0.2,0.2,0.2,0.4,0.2,0.7c0,0.3-0.1,0.5-0.4,0.7l-4.7,3.7l5.3,5.3
		c0.3,0.3,0.4,0.6,0.4,1c0,0.2-0.1,0.4-0.2,0.6c-0.2,0.2-0.4,0.2-0.6,0.2c-0.4,0-0.8-0.2-1-0.5l-5.2-5.4v4.8c0,0.3-0.1,0.6-0.3,0.8
		c-0.2,0.2-0.4,0.3-0.7,0.3c-0.3,0-0.5-0.1-0.7-0.3c-0.2-0.2-0.3-0.5-0.3-0.8L80.4,112.2z"/>
	<path d="M91.1,118.4h-0.8c-0.7,0-1-0.3-1-0.9c0-0.5,0.4-0.8,1-0.8h0.8v-2.9c0-0.7,0.3-1.4,0.8-1.8c0.5-0.4,1.2-0.7,1.9-0.8
		c1.2,0,1.8,0.3,1.8,0.9c0,0.2-0.1,0.4-0.2,0.5c-0.2,0.2-0.5,0.3-0.8,0.3h-0.6c-0.5,0-0.8,0.3-0.8,0.9v2.8h1.3c0.6,0,0.9,0.3,1,0.8
		c0.1,0.5-0.3,0.9-1,0.9h-1.3v9.5c0,0.3-0.1,0.6-0.3,0.8c-0.2,0.2-0.5,0.3-0.7,0.3c-0.3,0-0.5-0.1-0.7-0.3c-0.2-0.2-0.3-0.5-0.3-0.8
		L91.1,118.4z"/>
	<path d="M104.1,118.2v-0.7c0-0.3,0.1-0.5,0.3-0.7c0.2-0.2,0.4-0.3,0.7-0.3c0.2,0,0.5,0.1,0.7,0.3c0.2,0.2,0.3,0.5,0.3,0.8V128
		c0,0.3-0.1,0.6-0.3,0.8c-0.2,0.2-0.4,0.3-0.7,0.2c-0.5,0-0.9-0.4-0.9-0.9c0,0,0,0,0-0.1v-0.9l0,0c-0.7,1.1-1.9,1.8-3.2,1.8
		c-1,0-1.9-0.3-2.8-0.8c-0.8-0.5-1.5-1.3-2-2.2c-1-2.1-1-4.5,0-6.7c0.5-0.9,1.2-1.6,2-2.1c0.7-0.4,1.6-0.7,2.4-0.7
		c0.6,0,1.3,0.1,1.9,0.4c0.6,0.3,1.1,0.8,1.5,1.3L104.1,118.2z M97.4,122.7c0,0.7,0.1,1.5,0.4,2.2c0.2,0.6,0.6,1.2,1.1,1.6
		c0.5,0.4,1.1,0.6,1.8,0.6c1,0.1,2-0.4,2.6-1.3c0.5-1,0.8-2.1,0.8-3.2c0-0.8-0.1-1.6-0.4-2.4c-0.2-0.6-0.6-1.2-1.2-1.5
		c-0.5-0.4-1.1-0.6-1.7-0.5l0,0c-1,0-1.9,0.5-2.4,1.3C97.7,120.5,97.4,121.6,97.4,122.7L97.4,122.7z"/>
	<path d="M108.4,127.6c-0.3-0.2-0.5-0.6-0.5-1c0-0.2,0.1-0.5,0.3-0.6c0.2-0.2,0.4-0.3,0.6-0.2c0.2,0,0.4,0.1,0.6,0.2
		c0.1,0.1,0.4,0.2,0.7,0.5c0.2,0.1,0.4,0.3,0.6,0.4c0.5,0.3,1.1,0.4,1.7,0.5c0.6,0,1.2-0.1,1.7-0.4c0.5-0.2,0.8-0.7,0.8-1.3
		c0-0.6-0.4-1.1-0.9-1.4c-0.6-0.3-1.1-0.6-1.8-0.8c-0.8-0.3-1.4-0.6-2-0.8c-0.5-0.2-0.9-0.6-1.2-1c-0.4-0.5-0.6-1-0.5-1.6
		c0-0.6,0.2-1.2,0.5-1.7c0.4-0.5,0.8-0.9,1.4-1.2c0.7-0.3,1.4-0.5,2.1-0.5c0.7,0,1.5,0.1,2.2,0.4c0.6,0.2,1.1,0.5,1.5,0.8
		c0.3,0.2,0.5,0.6,0.5,0.9c0,0.2-0.1,0.4-0.2,0.6c-0.2,0.2-0.4,0.3-0.6,0.3c-0.4-0.1-0.8-0.3-1.1-0.5c-0.4-0.2-0.7-0.4-1.1-0.6
		c-0.3-0.1-0.6-0.2-0.9-0.2c-0.6,0-1.1,0.1-1.6,0.4c-0.4,0.3-0.6,0.7-0.6,1.1c0.1,0.4,0.3,0.7,0.5,0.9c0.3,0.3,0.6,0.5,1,0.6
		c0.4,0.2,0.9,0.4,1.3,0.5l1.1,0.4c0.7,0.3,1.4,0.7,1.9,1.3c0.4,0.5,0.6,1.2,0.6,1.8c0,0.6-0.2,1.2-0.5,1.7c-0.4,0.6-0.9,1-1.5,1.3
		c-0.8,0.4-1.6,0.5-2.5,0.5C110.9,129,109.5,128.5,108.4,127.6z"/>
	<path d="M119.4,118.4h-0.9c-0.2,0-0.5-0.1-0.7-0.2c-0.2-0.2-0.3-0.4-0.3-0.6c0-0.5,0.4-0.9,0.9-0.9c0,0,0,0,0.1,0h0.9V114
		c0-0.3,0.1-0.5,0.3-0.7c0.2-0.2,0.4-0.2,0.7-0.2c0.3,0,0.5,0.1,0.7,0.2c0.2,0.2,0.3,0.5,0.3,0.7v2.6h0.9c0.3,0,0.5,0.1,0.7,0.3
		c0.2,0.2,0.3,0.4,0.2,0.6c0,0.2-0.1,0.4-0.2,0.6c-0.2,0.2-0.4,0.2-0.6,0.2h-1v9.6c0,0.3-0.1,0.5-0.3,0.7c-0.2,0.2-0.5,0.3-0.8,0.3
		c-0.2,0-0.5-0.1-0.7-0.3c-0.2-0.2-0.3-0.5-0.3-0.8V118.4z"/>
</g>
<g>
	<path d="M55.3,83.2c-2-2.3-3.9-4.6-5.8-6.9c-1.8-2.1-4.2-3.7-6.9-4.5c-2.2-0.7-4.4-1.4-6.5-2.3C29.5,66.9,28.9,59,32,54.7
		c2.3-3.3,6.5-4.5,10.2-3l1,0.4v-5.7c0-1.7,0.4-2.2,2.2-2.2H89c1.7,0,2.2,0.4,2.1,2.2c-0.1,4.4-0.1,8.8-0.2,13.1
		c0,0.5-0.1,1-0.2,1.7c1.3-1.2,3-1.7,4.7-1.4c0.2,0,0.5-0.3,0.6-0.5c0.6-0.9,1.1-1.9,1.5-2.8c0.7-1.6,1.9-2.9,3.4-3.6
		c0.4-0.2,0.7-0.6,0.8-1c0.7-2.9,0.9-5.9,0.5-8.8c-0.4-2.2,1.1-4.2,3.2-4.6c0.8-0.1,1.7,0,2.5,0.4c5.2,2.3,9.3,5.8,10.8,11.5
		c0.3,1.7,0.5,3.4,0.7,5c0,0.4,0.2,0.8,0.5,1.1c2.4,1.5,2.9,3.8,2.5,6.4c-0.5,3.4-1.6,6.6-3.2,9.6c2.1,2,2.2,4.3,1.1,6.8
		c-3.4,8.5-10.2,15.1-18.8,18.2c-1.9,0.8-4.1,0.3-5.5-1.2c-3.2,1-6.3,2-9.4,2.8c-2.8,0.7-5.3,0.1-7-2.6c-0.2-0.2-0.5-0.4-0.8-0.4
		c-3.3,0.1-6.6-0.7-9.5-2.4c-0.4-0.2-0.8-0.2-1.3-0.2c-4.9,0-9.7,0.1-14.6,0c-4.7-0.1-9.3-1.7-13.1-4.4c-1.3-0.8-2.2-2.1-2.6-3.6
		c-0.3-1.4,0.3-2.2,1.7-2.2c4.9,0,9.9,0,14.8,0L55.3,83.2z M88.2,47.2H46c0,2.6,0.1,5.2,0,7.7c-0.1,5.9,1.3,11.6,4.1,16.8
		c2.4,4.5,5.5,8.4,10,11c0.5,0.2,1,0.4,1.5,0.6c0.4-3.3,2-4.7,5.1-4.3c2.8,0.3,5.6,0.1,8.4-0.5c0.5-0.1,0.9-0.5,1.1-0.9
		c0.7-1.4,1.8-2.5,3.3-3.2c1-0.5,2-1,3-1.5c0.5-0.2,0.8-0.7,0.7-1.2c-0.2-2,0.8-4,2.5-5.1c0.6-0.5,1-1.1,1.3-1.8
		C88.8,59,88.1,53.1,88.2,47.2L88.2,47.2z M99.5,95.1l0.2-0.2c0.5-0.1,0.9-0.2,1.4-0.4c7.7-2.9,13.8-9,16.7-16.7
		c0.8-1.9,0.4-2.8-1.4-3.7c-6.9-3.7-13.9-7.4-20.8-11.1c-1-0.8-2.5-0.5-3.3,0.5c-0.1,0.1-0.1,0.2-0.2,0.3c-1.4,2-3.1,3.7-5.1,5.1
		c-1.2,0.6-1.7,2-1.1,3.1c0.1,0.1,0.1,0.2,0.2,0.3c3.8,7.1,7.5,14.2,11.4,21.3C98,94.3,98.9,94.6,99.5,95.1L99.5,95.1z M116.8,71
		c1.5-2.8,2.5-5.9,3-9.1c0.2-1.8-0.5-3-2.2-3.4c-4.3-1.1-8.7-2.1-13.1-3.1c-1.6-0.5-3.4,0.3-4.1,1.8c-0.6,1.3-1.3,2.6-2,4L116.8,71z
		 M94.3,93.5l-9.8-18.4c-1.3,0.6-2.4,1.2-3.6,1.8c-1.8,0.8-2.7,2.1-2.2,4c1,4.6,2.2,9.2,3.3,13.8c0.3,1.1,1.3,1.9,2.5,1.8
		C87.9,96.2,91.3,95.1,94.3,93.5L94.3,93.5z M46,70.1c0-0.1,0-0.2,0-0.4c-1.8-4.3-2.8-8.9-2.9-13.6c0-0.3-0.2-0.6-0.4-0.8
		c-2.4-2-6-1.8-8.1,0.7c-0.1,0.2-0.3,0.3-0.4,0.5c-2.2,3.1-1.5,7.5,1.6,9.7c0.4,0.3,0.8,0.5,1.3,0.7C40,68.1,43,69,46,70.1L46,70.1z
		 M104.8,52.5l10.4,2.5c0.4,0.1,0.8,0.2,1.2,0.2c0-0.2,0.1-0.3,0.1-0.5c0.2-6.3-4.1-11.2-10-13.6c-0.9-0.4-1.7,0.3-1.6,1.4
		c0,0.5,0.2,1.1,0.2,1.7C105.1,47,105,49.7,104.8,52.5L104.8,52.5z M78.6,93.3l-2.9-12c-3.2,0.7-6.6,0.9-9.9,0.4
		c-1.1-0.2-1.7,0.7-1.2,1.8c1.1,2.7,2.8,5.1,5.1,6.9C72.2,92.5,75.4,93.5,78.6,93.3L78.6,93.3z M41.2,86.1c0.5,0.4,0.7,0.6,0.9,0.8
		c3.4,2.3,7.4,3.6,11.5,3.8c3.6,0.1,7.3,0,10.9,0h1.1c-0.9-1.4-1.7-2.5-2.4-3.8c-0.3-0.6-0.9-0.9-1.5-0.9c-6.4,0-12.9,0-19.3,0
		C42.1,86.1,41.8,86.1,41.2,86.1L41.2,86.1z"/>
	<path d="M69.9,25.2c0,1.5-0.6,2.9-1.6,4c-1.7,1.8-1.7,2.6-0.2,4.6c0.5,0.5,0.5,1.4,0,1.9c0,0-0.1,0.1-0.1,0.1c-0.5,0.5-1.4,0.5-2,0
		c0,0,0,0,0,0c-2.2-1.9-2.5-5.1-0.7-7.4c0.2-0.3,0.5-0.6,0.8-0.8c1.3-1.4,1.4-2.8,0.2-4.2c-0.6-0.7-0.8-1.4-0.1-2.2
		c0.7-0.7,1.5-0.5,2.2,0.3C69.4,22.4,70,23.8,69.9,25.2z"/>
	<path d="M51.6,31.7c0-1.5,0.5-2.9,1.6-3.9c1.8-1.8,1.8-2.7,0.3-4.7c-0.5-0.5-0.6-1.3-0.1-1.9c0,0,0.1-0.1,0.1-0.1
		c0.5-0.5,1.4-0.5,1.9,0c0,0,0,0,0.1,0.1c2.3,2,2.5,5.5,0.4,7.8c0,0,0,0-0.1,0.1c-1.9,2.2-2,2.5-0.3,4.8c0.5,0.6,0.4,1.4-0.1,1.9
		c0,0,0,0,0,0c-0.5,0.5-1.4,0.5-1.9,0C52.3,34.8,51.6,33.3,51.6,31.7z"/>
	<path d="M82.5,25.5c0,1.5-0.7,2.9-1.7,3.9c-1.6,1.7-1.7,2.6-0.2,4.4c0.6,0.5,0.6,1.4,0.1,1.9c0,0.1-0.1,0.1-0.2,0.2
		c-0.6,0.5-1.5,0.5-2-0.1c0,0-0.1-0.1-0.1-0.1c-2-1.9-2.3-5.1-0.6-7.3c0.2-0.3,0.4-0.5,0.7-0.7C80,26,80,25,78.7,23.2
		c-0.3-0.5-0.4-1.1-0.2-1.7c0.2-0.4,0.9-0.6,1.4-0.7c0.2-0.1,0.6,0.2,0.8,0.5C81.9,22.3,82.5,23.9,82.5,25.5z"/>
</g>
</svg>
