<?xml version="1.0" encoding="utf-8"?>
<!-- Generator: Adobe Illustrator 25.2.0, SVG Export Plug-In . SVG Version: 6.00 Build 0)  -->
<svg version="1.1" id="Layer_1" xmlns="http://www.w3.org/2000/svg" xmlns:xlink="http://www.w3.org/1999/xlink" x="0px" y="0px"
	 viewBox="0 0 162.4 162.4" style="enable-background:new 0 0 162.4 162.4;" xml:space="preserve">
<g>
	<path d="M47.3,113.6c-0.1-0.5,0.3-1,0.8-1.1c0.1,0,0.2,0,0.3,0h4.1c1.3,0,2.7,0.3,3.8,1.1c1.1,0.7,1.9,1.8,2.4,2.9
		c0.6,1.3,0.9,2.7,0.8,4.1c0,1.4-0.3,2.9-0.8,4.2c-0.5,1.2-1.3,2.2-2.4,2.9c-1.1,0.7-2.4,1.1-3.7,1h-4.3c-0.5,0-1-0.3-1-0.9
		c0,0,0,0,0,0L47.3,113.6z M49.2,114.3v12.8h3.1c0.5,0,1-0.1,1.5-0.2c0.6-0.2,1.2-0.5,1.6-1c0.6-0.6,1-1.3,1.3-2
		c0.4-1.1,0.6-2.2,0.5-3.3c0-0.9-0.1-1.8-0.4-2.6c-0.2-0.7-0.6-1.4-1.1-2c-0.5-0.5-1-0.9-1.7-1.2c-0.7-0.3-1.4-0.4-2.2-0.4
		L49.2,114.3z"/>
	<path d="M60.7,122.6c0-1,0.3-2,0.7-3c0.4-0.9,1-1.7,1.8-2.3c0.8-0.6,1.8-0.9,2.8-0.9c1,0,2,0.3,2.8,0.8c0.8,0.6,1.5,1.4,1.9,2.3
		c0.4,0.9,0.7,1.9,0.7,2.9c0,0.7-0.4,1-1.1,1h-7.6c0,0.7,0.2,1.4,0.5,2c0.3,0.6,0.7,1,1.3,1.3c0.6,0.3,1.2,0.4,1.8,0.4
		c1.2,0,2.4-0.5,3.3-1.3c0.2-0.2,0.5-0.3,0.8-0.4c0.2,0,0.4,0.1,0.5,0.2c0.1,0.2,0.2,0.4,0.2,0.6c0,0.3-0.1,0.5-0.3,0.7
		c-0.5,0.6-1.2,1-1.9,1.3c-0.8,0.3-1.7,0.5-2.6,0.5c-0.9,0-1.8-0.2-2.6-0.6c-0.7-0.3-1.3-0.8-1.8-1.5c-0.4-0.6-0.8-1.3-1-2
		c-0.2-0.7-0.3-1.4-0.3-2.2L60.7,122.6L60.7,122.6z M62.8,122h6.7c0-1-0.3-1.9-0.9-2.7c-0.6-0.7-1.5-1.1-2.4-1.1
		c-0.9,0-1.8,0.3-2.4,1C63.1,120,62.7,121,62.8,122z"/>
	<path d="M73.1,127.6c-0.3-0.2-0.5-0.6-0.5-1c0-0.2,0.1-0.5,0.3-0.6c0.2-0.2,0.4-0.3,0.6-0.2c0.2,0,0.4,0.1,0.6,0.2
		c0.1,0.1,0.4,0.2,0.7,0.5c0.2,0.1,0.4,0.3,0.6,0.4c0.5,0.3,1.1,0.4,1.7,0.5c0.6,0,1.2-0.1,1.7-0.4c0.5-0.2,0.8-0.8,0.8-1.3
		c0-0.6-0.4-1.1-0.9-1.4c-0.6-0.3-1.2-0.6-1.8-0.8c-0.8-0.3-1.4-0.6-2-0.8c-0.5-0.2-0.9-0.6-1.2-1c-0.4-0.5-0.6-1-0.5-1.6
		c0-0.6,0.2-1.2,0.5-1.7c0.4-0.5,0.8-0.9,1.4-1.2c0.7-0.3,1.4-0.5,2.1-0.5c0.7,0,1.5,0.1,2.2,0.4c0.6,0.2,1.1,0.5,1.5,0.8
		c0.3,0.2,0.5,0.6,0.5,0.9c0,0.2-0.1,0.4-0.2,0.6c-0.2,0.2-0.4,0.3-0.6,0.3c-0.4-0.1-0.8-0.3-1.1-0.5c-0.4-0.2-0.7-0.4-1.1-0.6
		c-0.3-0.1-0.6-0.2-0.9-0.2c-0.6-0.1-1.1,0.1-1.6,0.4c-0.4,0.2-0.6,0.6-0.6,1.1c0.1,0.4,0.2,0.7,0.5,1c0.3,0.3,0.6,0.5,1,0.6
		c0.4,0.2,0.8,0.3,1.3,0.5c0.5,0.2,0.9,0.3,1.1,0.4c0.7,0.3,1.4,0.7,1.9,1.3c0.4,0.5,0.6,1.2,0.6,1.8c0,0.6-0.2,1.2-0.5,1.7
		c-0.4,0.6-0.9,1-1.5,1.3c-0.8,0.4-1.6,0.5-2.5,0.5C75.6,129,74.2,128.5,73.1,127.6z"/>
	<path d="M83.2,127.6c-0.3-0.2-0.5-0.6-0.5-1c0-0.2,0.1-0.5,0.3-0.6c0.2-0.2,0.4-0.3,0.6-0.2c0.2,0,0.4,0.1,0.6,0.2l0.7,0.5
		c0.2,0.1,0.4,0.3,0.6,0.4c0.5,0.3,1.1,0.4,1.7,0.5c0.6,0,1.2-0.1,1.7-0.4c0.5-0.2,0.8-0.7,0.8-1.3c0-0.6-0.4-1.1-0.9-1.4
		c-0.6-0.3-1.2-0.6-1.8-0.8c-0.8-0.3-1.4-0.6-2-0.8c-0.5-0.2-0.9-0.6-1.2-1c-0.4-0.5-0.6-1-0.5-1.6c0-0.6,0.2-1.2,0.5-1.7
		c0.4-0.5,0.8-0.9,1.4-1.2c0.7-0.3,1.4-0.5,2.1-0.5c0.7,0,1.5,0.1,2.2,0.4c0.6,0.2,1.1,0.5,1.5,0.8c0.3,0.2,0.5,0.6,0.5,0.9
		c0,0.2-0.1,0.4-0.2,0.6c-0.2,0.2-0.4,0.3-0.6,0.3c-0.4-0.1-0.8-0.3-1.1-0.5c-0.4-0.2-0.7-0.4-1.1-0.6c-0.3-0.1-0.6-0.2-0.9-0.2
		c-0.6-0.1-1.1,0.1-1.6,0.4c-0.4,0.2-0.6,0.6-0.6,1.1c0.1,0.4,0.3,0.7,0.5,1c0.3,0.3,0.6,0.5,1,0.6c0.4,0.2,0.8,0.3,1.3,0.5
		s0.9,0.3,1.1,0.4c0.7,0.3,1.4,0.7,1.9,1.3c0.4,0.5,0.6,1.2,0.6,1.8c0,0.6-0.2,1.2-0.5,1.7c-0.4,0.6-0.9,1-1.5,1.3
		c-0.8,0.4-1.6,0.5-2.5,0.5C85.7,129,84.3,128.5,83.2,127.6z"/>
	<path d="M92.8,122.6c0-1,0.3-2,0.7-3c0.4-0.9,1-1.7,1.8-2.3c0.8-0.6,1.8-0.9,2.8-0.9c1,0,2,0.3,2.8,0.8c0.8,0.6,1.5,1.4,1.9,2.3
		c0.4,0.9,0.7,1.9,0.7,2.9c0,0.7-0.4,1-1.1,1h-7.6c0,0.7,0.2,1.4,0.5,2c0.3,0.6,0.7,1,1.3,1.3c0.6,0.3,1.2,0.4,1.8,0.4
		c1.2,0,2.4-0.5,3.3-1.3c0.2-0.2,0.5-0.3,0.8-0.4c0.2,0,0.4,0.1,0.5,0.2c0.1,0.2,0.2,0.4,0.2,0.6c0,0.3-0.1,0.5-0.3,0.7
		c-0.5,0.6-1.2,1-1.9,1.3c-0.8,0.3-1.7,0.5-2.6,0.5c-0.9,0-1.8-0.2-2.6-0.6c-0.7-0.3-1.3-0.8-1.8-1.5c-0.4-0.6-0.8-1.3-1-2
		c-0.2-0.7-0.3-1.4-0.3-2.2L92.8,122.6L92.8,122.6z M94.8,122h6.7c0-1-0.3-1.9-0.9-2.7c-0.6-0.7-1.5-1.1-2.4-1.1
		c-0.9,0-1.8,0.3-2.4,1C95.1,120,94.8,121,94.8,122z"/>
	<path d="M105.4,117.6c0-0.3,0.1-0.6,0.3-0.7c0.2-0.2,0.4-0.3,0.7-0.3c0.3,0,0.5,0.1,0.7,0.3c0.2,0.2,0.3,0.5,0.3,0.7v1l0,0
		c0.3-0.5,0.7-1,1.2-1.4c0.4-0.4,1-0.6,1.5-0.7c0.3,0,0.6,0.1,0.8,0.3c0.2,0.2,0.3,0.4,0.3,0.7c0,0.3-0.1,0.6-0.3,0.8
		c-0.3,0.2-0.7,0.3-1.1,0.4c-0.3,0.1-0.6,0.2-0.9,0.3c-0.5,0.3-0.9,0.7-1.2,1.2c-0.3,0.6-0.4,1.2-0.4,1.8v5.9c0,0.3-0.1,0.6-0.3,0.8
		c-0.2,0.2-0.4,0.3-0.7,0.3c-0.3,0-0.5-0.1-0.7-0.3c-0.2-0.2-0.3-0.5-0.3-0.8L105.4,117.6z"/>
	<path d="M113.2,118.4h-0.9c-0.2,0-0.5-0.1-0.7-0.2c-0.2-0.2-0.3-0.4-0.3-0.6c0-0.5,0.4-0.9,0.9-0.9c0,0,0.1,0,0.1,0h0.9V114
		c0-0.3,0.1-0.5,0.3-0.7c0.2-0.2,0.4-0.2,0.7-0.2c0.3,0,0.5,0.1,0.7,0.2c0.2,0.2,0.3,0.5,0.3,0.7v2.6h0.9c0.3,0,0.5,0.1,0.7,0.3
		c0.2,0.2,0.3,0.4,0.2,0.6c0,0.2-0.1,0.4-0.2,0.6c-0.2,0.2-0.4,0.2-0.6,0.2h-1v9.6c0,0.3-0.1,0.5-0.3,0.7c-0.2,0.2-0.5,0.3-0.8,0.3
		c-0.2,0-0.5-0.1-0.7-0.3c-0.2-0.2-0.3-0.5-0.3-0.8V118.4z"/>
</g>
<g>
	<path d="M120.5,93.4c-0.3,0.7-1.1,1.1-1.9,1c-23.4,0-46.8,0-70.2,0c-1.4,0-1.9-0.4-1.9-1.9c0-10.3,0-20.5,0-30.8
		c-0.1-1,0.5-1.8,1.4-2.2c9.1-4.1,18.2-8.3,27.3-12.4c0.2-0.1,0.3-0.2,0.5-0.3c-0.2-1.1-0.5-2.1-0.7-3.2c-0.1-0.8-0.1-1.6,0-2.4
		c0.4-2.5,1.9-3.9,4.5-4.4c0.8-0.2,1.7-0.2,2.6-0.4c0-1.5,0.7-3,1.8-4.1c1-1,2.4-1.6,3.9-1.6c0.8,0,1.5,0.6,1.5,1.4
		c0,0.8-0.6,1.5-1.4,1.5c-1.6,0-2.8,1.3-2.9,2.8c2.5,0.3,5,0.4,6.6,2.9c0.4-0.2,0.9-0.4,1.3-0.6c3.5-2,7.8-2.2,11.5-0.5
		c8.2,3.4,13.5,9.3,15.6,18c0.2,0.9,0.3,1.9,0.5,2.8L120.5,93.4z M55,59.6l0,0.1h33.8c0.2,0,0.5,0,0.7,0c0.8,0.1,1.3,0.9,1.2,1.7
		c-0.1,0.6-0.6,1.1-1.2,1.2c-0.3,0-0.5,0-0.8,0H49.6v8.9c0.8-0.5,1.6-1,2.3-1.5c3.1-2.8,7.7-2.7,10.7,0.1c2,2,5.1,2,7.1,0
		c3.4-2.8,7.2-2.8,10.5,0c2.2,1.9,4.5,1.9,6.8,0c0.8-0.7,1.7-1.3,2.7-1.7c2.7-1,5.7-0.4,7.7,1.5c0.8,0.8,1.8,1.3,2.9,1.5
		c1.5,0.2,3.1-0.3,4.2-1.4c3-2.8,7.7-2.9,10.8-0.1c0.6,0.6,1.4,1,2.2,1.2v-8.6H109c-2.6,0-5.3,0-7.9,0c-0.8,0.1-1.5-0.5-1.6-1.3
		c0-0.1,0-0.3,0-0.4c0.1-0.8,0.9-1.3,1.6-1.2h16.4c0-0.2,0-0.5,0-0.7c-0.1-0.5-0.1-1-0.2-1.5C115.5,49.4,110.6,44,103,41
		c-1.9-0.8-4-1.1-6-0.6c-1.3,0.4-2.6,0.9-3.8,1.5c-0.7,0.3-1.1,0.6-1,1.4c0,0.5-0.1,1.1-0.3,1.6c-0.6,3-2.3,5.8-4.7,7.7
		c-2.1,1.8-5.2,1.8-7.3,0c-0.9-0.7-1.7-1.6-2.4-2.5c-0.4-0.5-0.6-0.6-1.3-0.4c-4.9,2.3-9.7,4.5-14.6,6.7L55,59.6z M49.6,91.5h68.1
		c0-2.7,0-5.4,0-8.1c0-0.2-0.2-0.4-0.4-0.5c-1.5-0.4-2.8-1.1-4-2.2c-1.2-1.1-2.9-1.5-4.4-1c-1,0.4-1.8,0.9-2.6,1.5
		c-1.7,1.4-4,2-6.2,1.7c-1.7-0.3-3.3-1.1-4.6-2.3c-1.7-1.6-4.4-1.6-6.1,0c-0.3,0.2-0.5,0.4-0.8,0.6c-1.7,1.4-3.9,2-6.1,1.6
		c-1.4-0.3-2.7-0.9-3.7-1.8c-2.7-2.2-4.6-2.2-7.2,0l-0.2,0.1c-1.7,1.4-3.9,2-6.1,1.7c-1.7-0.3-3.3-1.1-4.6-2.2
		c-1.7-1.6-4.3-1.7-6.2-0.3c-1.4,1.2-3,2.1-4.8,2.5L49.6,91.5z M117.7,74.4c-0.9-0.3-1.7-0.7-2.5-1.1c-0.8-0.5-1.5-1.1-2.3-1.6
		c-1.7-1.2-4-1.1-5.6,0.1c-0.4,0.3-0.7,0.6-1.1,0.9c-1.7,1.4-3.9,2-6.1,1.7c-1.7-0.3-3.2-1-4.5-2.1c-2.2-1.8-4.3-1.8-6.6,0
		c-0.2,0.2-0.4,0.3-0.6,0.5c-1.7,1.4-4,2-6.1,1.6c-1.6-0.4-3-1.1-4.2-2.2c-1.8-1.6-4.5-1.6-6.2,0c-0.2,0.2-0.5,0.4-0.7,0.6
		c-1.7,1.4-3.9,2-6,1.7c-1.7-0.3-3.4-1.1-4.7-2.3c-1.7-1.5-4.2-1.7-6-0.4c-1.5,1.1-3,2.3-4.9,2.6v5.8c0.8-0.4,1.5-0.9,2.2-1.3
		c3.6-2.9,7.5-2.9,11.1,0.1c0.8,0.7,1.7,1.1,2.7,1.3c1.5,0.2,3.1-0.3,4.2-1.3c1.3-1.2,3-2,4.9-2.1c2.1-0.1,4.2,0.7,5.8,2.2
		c1.1,1.1,2.6,1.6,4.1,1.3c1-0.2,1.9-0.7,2.7-1.4c1.3-1.2,3-2,4.8-2.1c2.1-0.1,4.1,0.6,5.7,2.1c0.8,0.7,1.8,1.2,2.9,1.4
		c1.5,0.2,3.1-0.3,4.3-1.3c1.5-1.4,3.4-2.1,5.4-2.1c2,0,3.9,0.7,5.3,2c0.7,0.5,1.5,1,2.2,1.4L117.7,74.4z M83.6,39.4
		c-1.2,0.1-2.4,0.2-3.6,0.4c-1.2,0-2.2,1.1-2.1,2.3c0,0.1,0,0.2,0,0.2c0,0.4,0.1,0.9,0.1,1.3c0.4,2.5,1.6,4.7,3.4,6.4
		c1.1,1.2,3,1.3,4.2,0.2c0,0,0.1-0.1,0.1-0.1c2.2-2,3.5-4.8,3.6-7.7c0.1-1.6-0.6-2.4-2.2-2.6C85.9,39.6,84.7,39.6,83.6,39.4
		L83.6,39.4z"/>
	<path d="M95.1,62.6c-0.8,0-1.4-0.7-1.4-1.5c0-0.8,0.7-1.4,1.5-1.4c0.8,0,1.4,0.7,1.4,1.5C96.6,62,95.9,62.6,95.1,62.6
		C95.1,62.6,95.1,62.6,95.1,62.6z"/>
	<path d="M55.6,87.2c0-0.8,0.6-1.5,1.4-1.5c0.8,0,1.5,0.6,1.5,1.4c0,0.8-0.6,1.4-1.4,1.5C56.3,88.7,55.6,88.1,55.6,87.2
		C55.6,87.2,55.6,87.2,55.6,87.2z"/>
	<path d="M74.9,85.7c0.8,0,1.4,0.6,1.4,1.4s-0.6,1.4-1.4,1.4c0,0,0,0,0,0c-0.8,0-1.4-0.6-1.4-1.4C73.5,86.4,74.1,85.7,74.9,85.7z"/>
	<path d="M92.2,85.7c0.8,0,1.5,0.6,1.5,1.4s-0.6,1.5-1.4,1.5c-0.8,0-1.4-0.6-1.5-1.4C90.8,86.4,91.4,85.8,92.2,85.7
		C92.2,85.7,92.2,85.7,92.2,85.7z"/>
	<path d="M110.1,88.6c-0.8,0-1.4-0.7-1.4-1.5c0-0.8,0.7-1.4,1.5-1.4c0.8,0,1.4,0.7,1.4,1.4C111.6,88,111,88.6,110.1,88.6
		C110.2,88.6,110.2,88.6,110.1,88.6z"/>
</g>
</svg>
