<?xml version="1.0" encoding="utf-8"?>
<!-- Generator: Adobe Illustrator 25.2.0, SVG Export Plug-In . SVG Version: 6.00 Build 0)  -->
<svg version="1.1" id="Layer_1" xmlns="http://www.w3.org/2000/svg" xmlns:xlink="http://www.w3.org/1999/xlink" x="0px" y="0px"
	 viewBox="0 0 162.4 162.4" style="enable-background:new 0 0 162.4 162.4;" xml:space="preserve">
<g>
	<path d="M58.2,113.6c-0.1-0.5,0.3-1,0.8-1.1c0.1,0,0.2,0,0.3,0h4.1c1.3,0,2.7,0.3,3.8,1.1c1.1,0.7,1.9,1.8,2.4,2.9
		c0.6,1.3,0.9,2.7,0.8,4.1c0,1.5-0.3,2.9-0.8,4.2c-1,2.4-3.4,4-6.1,3.9h-4.3c-0.5,0-1-0.4-1-0.9V113.6z M60.2,114.3v12.8h3.1
		c0.5,0,1-0.1,1.5-0.2c0.6-0.2,1.2-0.5,1.6-1c0.6-0.6,1-1.3,1.3-2c0.4-1.1,0.5-2.2,0.5-3.3c0-0.9-0.1-1.8-0.4-2.6
		c-0.2-0.7-0.6-1.4-1.1-1.9c-0.4-0.5-1-0.9-1.7-1.2c-0.7-0.3-1.4-0.4-2.2-0.4L60.2,114.3z"/>
	<path d="M72.5,117.6c0-0.3,0.1-0.6,0.3-0.7c0.2-0.2,0.4-0.3,0.7-0.3c0.3,0,0.5,0.1,0.7,0.3c0.2,0.2,0.3,0.5,0.3,0.7v1l0,0
		c0.3-0.5,0.7-1,1.2-1.4c0.4-0.4,1-0.6,1.5-0.7c0.3,0,0.6,0.1,0.8,0.3c0.2,0.2,0.3,0.4,0.3,0.7c0,0.3-0.1,0.6-0.3,0.8
		c-0.3,0.2-0.7,0.3-1.1,0.4c-0.3,0.1-0.6,0.2-0.9,0.3c-0.5,0.3-0.9,0.7-1.2,1.2c-0.3,0.6-0.4,1.2-0.4,1.8v5.9c0,0.3-0.1,0.6-0.3,0.8
		c-0.2,0.2-0.4,0.3-0.7,0.3c-0.5,0-1-0.4-1-0.9V128L72.5,117.6z"/>
	<path d="M80.6,115.1c-0.6,0-1.1-0.5-1.1-1.1c0-0.3,0.1-0.6,0.3-0.8c0.2-0.2,0.5-0.3,0.8-0.4c0.3,0,0.6,0.1,0.8,0.3
		c0.2,0.2,0.3,0.5,0.3,0.8s-0.1,0.6-0.3,0.8C81.2,115,80.9,115.1,80.6,115.1z M79.6,117.5c0-0.3,0.1-0.6,0.3-0.7
		c0.4-0.4,1-0.4,1.4,0c0.2,0.2,0.3,0.5,0.3,0.8v10.3c0,0.3-0.1,0.6-0.3,0.8c-0.4,0.4-1,0.4-1.4,0c-0.2-0.2-0.3-0.5-0.3-0.8V117.5z"
		/>
	<path d="M84.2,117.6c0-0.3,0.1-0.6,0.3-0.8c0.2-0.2,0.4-0.3,0.7-0.3c0.3,0,0.5,0.1,0.7,0.3c0.2,0.2,0.3,0.5,0.3,0.8v0.5l0,0
		c0.4-0.5,0.9-0.9,1.5-1.2c0.6-0.3,1.2-0.4,1.8-0.4c0.7,0,1.5,0.2,2.1,0.5c0.7,0.3,1.2,0.9,1.6,1.6c0.4,0.8,0.6,1.7,0.6,2.6v6.8
		c0,0.3-0.1,0.5-0.3,0.7c-0.2,0.2-0.4,0.2-0.7,0.2c-0.3,0-0.5-0.1-0.7-0.3s-0.3-0.4-0.3-0.7v-6.7c0-0.8-0.3-1.6-0.8-2.1
		s-1.2-0.8-2-0.8c-0.5,0-1,0.1-1.4,0.4c-0.4,0.2-0.8,0.6-1,1c-0.3,0.5-0.4,1-0.4,1.6v6.7c0,0.3-0.1,0.6-0.3,0.8
		c-0.4,0.4-1,0.4-1.4,0c-0.2-0.2-0.3-0.5-0.3-0.8L84.2,117.6z"/>
	<path d="M96.4,112.2c0-0.3,0.1-0.5,0.3-0.7c0.2-0.2,0.4-0.3,0.7-0.2c0.3,0,0.5,0.1,0.7,0.2c0.2,0.2,0.3,0.5,0.3,0.8v8.6l4.7-3.9
		c0.2-0.2,0.5-0.3,0.8-0.3c0.2,0,0.5,0.1,0.6,0.2c0.2,0.2,0.2,0.4,0.2,0.7c0,0.3-0.1,0.5-0.4,0.7l-4.7,3.7l5.4,5.3
		c0.3,0.3,0.4,0.6,0.4,1c0,0.2-0.1,0.4-0.2,0.6c-0.2,0.2-0.4,0.2-0.6,0.2c-0.4,0-0.8-0.2-1-0.5l-5.2-5.4v4.8c0,0.3-0.1,0.6-0.3,0.8
		c-0.2,0.2-0.4,0.3-0.7,0.3c-0.3,0-0.5-0.1-0.7-0.3s-0.3-0.5-0.3-0.8L96.4,112.2z"/>
</g>
<path d="M106.2,42.6c-0.8,0-1.5,0-2.3,0H101l1.6-1.8l4.7-5.1c0.4-0.4,0.6-1,0.3-1.5c-0.2-0.4-0.6-0.7-1-0.9c-0.6-0.2-1,0.2-1.4,0.6
	c-2.5,2.7-5,5.4-7.4,8.1c-0.3,0.3-0.7,0.5-1.2,0.5c-4.1,0-19.7,0-24.8,0h-0.6h-0.7h-8.8c-0.2,0-0.5,0-0.8,0c0.2-0.3,0.3-0.5,0.4-0.6
	c1.9-3.3,3.9-6.7,5.8-10c0.7-1.2,0.5-1.8-0.7-2.5c-1.5-0.8-3-1.3-4.6-1.6c-9-1.7-17.7,4.1-19.4,13.1C41.2,47.6,44.2,54.4,50,58
	c1.1,0.7,1.8,0.5,2.4-0.6l6.1-10.5c0.1-0.2,0.3-0.4,0.4-0.7c0.1,0.1,0.1,0.2,0.2,0.3c7.2,7.8,14.5,15.6,21.7,23.5
	c0.2,0.2,0.3,0.5,0.3,0.8c0,5.9,0,11.8,0,17.7c0,0.4-0.2,0.7-0.5,0.8c-3.4,1.5-6.9,3.1-10.3,4.6c-0.6,0.3-1.1,0.6-1.1,1.3
	c0,0.6,0.4,1.2,1,1.5l24.7-0.1c0.6-0.2,1-0.8,1-1.5c-0.1-0.7-0.5-1-1.1-1.3c-3.4-1.5-6.8-3.1-10.3-4.6c-0.4-0.1-0.6-0.5-0.6-0.9
	c0-5.9,0-11.7,0-17.6c0-0.3,0.1-0.6,0.4-0.9c3.8-4.1,7.6-8.2,11.4-12.4c3.9-4.2,7.7-8.3,11.6-12.5c0.5-0.4,0.6-1.1,0.4-1.7
	C107.4,42.8,106.8,42.5,106.2,42.6z M46.1,38.2l9,5.2l-10,2.7C44.6,43.4,45,40.7,46.1,38.2z M50.6,55.1c-2.2-1.6-3.9-3.8-4.8-6.3
	l10-2.7L50.6,55.1z M47.5,35.9c0.9-1.7,3.9-4,6.3-4.8l2.6,10L47.5,35.9z M59.1,40.4l-2.6-10c2.7-0.5,5.4-0.1,7.9,1L59.1,40.4z
	 M65.8,49.7c-1.2-1.3-2.4-2.6-3.6-3.9c-0.1-0.1-0.2-0.3-0.4-0.5h10h0.1H72h22.7c-1.5,1.6-2.9,3.1-4.2,4.6C90.4,50,90.2,50,90,50
	c-7.8,0-15.5,0-23.3,0C66.3,50,66.1,49.9,65.8,49.7z M84,92.1c1.2,0.7,2.6,1.2,3.9,1.8V94H77.1v-0.1c1.3-0.6,2.7-1.1,3.9-1.8
	C82,91.5,83.1,91.5,84,92.1z M82.5,67.8l-13.8-15h19.1c-0.2,0.2-0.3,0.4-0.5,0.6l-5.5,5.9c-0.1,0.1-0.2,0.2-0.3,0.4
	c-0.5,0.5-0.5,1.4,0,1.9s1.4,0.5,1.9,0c0.2-0.2,0.3-0.3,0.5-0.5c2.4-2.6,4.8-5.2,7.2-7.8c0.3-0.3,0.7-0.5,1.1-0.5c1.3,0,2.6,0,4.1,0
	L82.5,67.8z M97,50c-1,0-1.9,0-2.8,0c0.3-0.3,0.5-0.5,0.6-0.7c1.1-1.2,2.3-2.4,3.4-3.7c0.1-0.2,0.3-0.3,0.5-0.3c1.5,0,2.9,0,4.5,0
	c-1.1,1.2-2.1,2.2-3,3.3C99.6,49.7,98.3,50.2,97,50z"/>
</svg>
