<?xml version="1.0" encoding="utf-8"?>
<!-- Generator: Adobe Illustrator 25.2.0, SVG Export Plug-In . SVG Version: 6.00 Build 0)  -->
<svg version="1.1" id="Layer_1" xmlns="http://www.w3.org/2000/svg" xmlns:xlink="http://www.w3.org/1999/xlink" x="0px" y="0px"
	 viewBox="0 0 162.4 162.4" style="enable-background:new 0 0 162.4 162.4;" xml:space="preserve">
<g>
	<path d="M29.7,113.5c0-0.3,0.1-0.6,0.2-0.8c0.1-0.2,0.4-0.3,0.6-0.3h6.1c0.2,0,0.4,0.1,0.5,0.3c0.1,0.2,0.2,0.5,0.2,0.7
		c0,0.2-0.1,0.5-0.2,0.6c-0.2,0.2-0.4,0.3-0.7,0.2h-4.8v5.4h4.3c0.3,0,0.5,0.1,0.7,0.3c0.2,0.2,0.2,0.4,0.2,0.7
		c0,0.2-0.1,0.5-0.2,0.6c-0.2,0.2-0.4,0.3-0.6,0.3h-4.4v6.2c0,0.3-0.1,0.6-0.3,0.8c-0.2,0.2-0.4,0.3-0.7,0.3c-0.3,0-0.5-0.1-0.7-0.3
		c-0.2-0.2-0.3-0.5-0.3-0.8L29.7,113.5z"/>
	<path d="M40,115c-0.3,0-0.6-0.1-0.8-0.3c-0.4-0.4-0.4-1.1,0-1.6c0.2-0.2,0.5-0.3,0.8-0.4c0.3,0,0.6,0.1,0.8,0.3
		c0.4,0.5,0.4,1.2,0,1.6C40.6,114.9,40.3,115,40,115z M39,117.4c0-0.3,0.1-0.6,0.3-0.8c0.4-0.4,1-0.4,1.4,0c0.2,0.2,0.3,0.5,0.3,0.8
		v10.3c0,0.3-0.1,0.6-0.3,0.8c-0.2,0.2-0.4,0.3-0.7,0.3c-0.3,0-0.5-0.1-0.7-0.3c-0.2-0.2-0.3-0.5-0.3-0.8V117.4z"/>
	<path d="M43.6,117.4c0-0.3,0.1-0.6,0.3-0.8c0.4-0.4,1-0.4,1.4,0c0.2,0.2,0.3,0.5,0.3,0.8v0.5l0,0c0.4-0.5,0.9-0.9,1.5-1.2
		c0.6-0.3,1.2-0.4,1.8-0.4c0.7,0,1.5,0.2,2.1,0.5c0.7,0.3,1.2,0.9,1.6,1.6c0.4,0.8,0.6,1.7,0.6,2.6v6.8c0,0.3-0.1,0.5-0.3,0.7
		c-0.2,0.2-0.4,0.2-0.7,0.2c-0.3,0-0.5-0.1-0.7-0.3c-0.2-0.2-0.3-0.4-0.3-0.7v-6.7c0-0.8-0.3-1.6-0.8-2.1c-0.5-0.5-1.2-0.8-2-0.8
		c-0.5,0-1,0.1-1.4,0.3c-0.4,0.2-0.8,0.6-1,1c-0.3,0.5-0.4,1-0.4,1.6v6.7c0,0.3-0.1,0.6-0.3,0.8c-0.2,0.2-0.4,0.3-0.7,0.3
		c-0.3,0-0.5-0.1-0.7-0.3c-0.2-0.2-0.3-0.5-0.3-0.8L43.6,117.4z"/>
	<path d="M63.7,127.1L63.7,127.1c-0.3,0.6-0.7,1-1.3,1.3c-0.6,0.3-1.3,0.5-2,0.5c-1,0-1.9-0.3-2.7-0.9c-0.8-0.6-1.4-1.4-1.8-2.3
		c-0.4-1-0.7-2.1-0.7-3.2c0-1.1,0.2-2.2,0.7-3.2c0.4-0.9,1.1-1.7,1.9-2.2c0.8-0.5,1.8-0.8,2.8-0.8c0.7,0,1.3,0.1,1.9,0.4
		c0.5,0.3,0.9,0.8,1.1,1.3l0,0v-0.7c0-0.3,0.1-0.5,0.3-0.7c0.2-0.2,0.4-0.3,0.7-0.3c0.3,0,0.5,0.1,0.7,0.3c0.2,0.2,0.3,0.5,0.3,0.8
		V128c0,1-0.2,2-0.6,3c-0.4,0.9-1,1.6-1.8,2.1c-0.9,0.5-1.9,0.8-2.9,0.8c-1.3,0-2.6-0.4-3.8-1.1c-0.5-0.3-0.9-0.7-1-1.3
		c0.1-0.4,0.4-0.8,0.8-0.8c0.5,0.1,0.9,0.3,1.3,0.5c0.4,0.3,0.8,0.5,1.3,0.6c0.5,0.2,1,0.3,1.5,0.3c1,0.1,2-0.4,2.5-1.3
		c0.6-0.9,0.8-2,0.8-3c0-0.1,0-0.2,0-0.2L63.7,127.1z M57.2,122.6c0,0.8,0.1,1.5,0.4,2.2c0.2,0.6,0.6,1.2,1.1,1.6
		c0.5,0.4,1.1,0.6,1.7,0.6c1,0,1.9-0.4,2.5-1.2c0.7-0.9,1-2,1-3.2c0-0.8-0.1-1.5-0.4-2.2c-0.2-0.7-0.6-1.3-1.2-1.7
		c-0.5-0.5-1.3-0.7-2-0.7c-0.7,0-1.3,0.2-1.8,0.7c-0.5,0.5-0.8,1-1,1.7C57.3,121.2,57.2,121.9,57.2,122.6L57.2,122.6z"/>
	<path d="M67.7,122.5c0-1,0.3-2,0.7-3c0.4-0.9,1-1.7,1.8-2.2c0.8-0.6,1.8-0.9,2.8-0.9c1,0,2,0.3,2.8,0.8c0.8,0.6,1.5,1.4,1.9,2.3
		c0.4,0.9,0.7,1.9,0.7,2.9c0,0.7-0.4,1-1.1,1h-7.6c0,0.7,0.2,1.4,0.5,2c0.3,0.6,0.7,1,1.3,1.3c0.6,0.3,1.2,0.4,1.9,0.4
		c1.2,0,2.4-0.5,3.2-1.3c0.2-0.2,0.5-0.3,0.8-0.4c0.2,0,0.4,0.1,0.5,0.3c0.1,0.2,0.2,0.4,0.2,0.6c0,0.3-0.1,0.5-0.3,0.7
		c-0.5,0.6-1.2,1-1.9,1.3c-0.8,0.3-1.7,0.5-2.6,0.5c-0.9,0-1.8-0.2-2.6-0.6c-0.7-0.3-1.3-0.8-1.8-1.5c-0.4-0.6-0.8-1.3-1-2
		c-0.2-0.7-0.3-1.4-0.3-2.2L67.7,122.5L67.7,122.5z M69.7,121.9h6.7c0-1-0.3-1.9-0.9-2.7c-0.6-0.7-1.5-1.1-2.4-1
		c-0.9,0-1.8,0.3-2.4,1C70.1,119.9,69.7,120.9,69.7,121.9L69.7,121.9z"/>
	<path d="M80.3,117.4c0-0.3,0.1-0.6,0.3-0.7c0.2-0.2,0.4-0.3,0.7-0.3c0.3,0,0.5,0.1,0.7,0.3c0.2,0.2,0.3,0.5,0.3,0.7v1l0,0
		c0.3-0.5,0.7-1,1.2-1.4c0.4-0.4,1-0.6,1.5-0.7c0.3,0,0.6,0.1,0.8,0.3c0.2,0.2,0.3,0.4,0.3,0.7c0,0.3-0.1,0.6-0.3,0.8
		c-0.3,0.2-0.7,0.3-1,0.4c-0.3,0.1-0.6,0.2-0.9,0.3c-0.5,0.3-0.9,0.7-1.2,1.2c-0.3,0.6-0.4,1.2-0.4,1.8v5.9c0,0.3-0.1,0.6-0.3,0.8
		c-0.2,0.2-0.4,0.3-0.7,0.3c-0.5,0-1-0.4-1-0.9c0,0,0-0.1,0-0.1L80.3,117.4z"/>
	<path d="M93.6,118.3h-0.8c-0.7,0-1-0.3-1-0.9c0-0.6,0.4-0.8,1-0.8h0.8v-2.9c0-0.7,0.2-1.4,0.8-1.8c0.5-0.4,1.2-0.7,1.9-0.8
		c1.2,0,1.8,0.3,1.8,0.9c0,0.2-0.1,0.4-0.2,0.5c-0.2,0.2-0.5,0.3-0.8,0.3h-0.6c-0.5,0-0.8,0.3-0.8,0.9v2.8h1.3c0.6,0,0.9,0.3,1,0.8
		c0,0.5-0.3,0.9-1,0.9h-1.3v9.5c0,0.3-0.1,0.6-0.3,0.8c-0.2,0.2-0.5,0.3-0.7,0.3c-0.3,0-0.5-0.1-0.7-0.3c-0.2-0.2-0.3-0.5-0.3-0.8
		L93.6,118.3z"/>
	<path d="M97.9,122.6c0-1.1,0.2-2.2,0.7-3.2c0.4-0.9,1.1-1.7,1.9-2.2c0.8-0.5,1.8-0.8,2.8-0.8c1,0,2,0.3,2.8,0.9
		c0.8,0.6,1.5,1.4,1.9,2.3c0.4,1,0.7,2,0.6,3.1c0,1.1-0.2,2.1-0.6,3.1c-0.4,0.9-1,1.7-1.9,2.3c-1.7,1.1-3.9,1.1-5.6,0
		c-0.8-0.6-1.5-1.4-1.9-2.3C98.1,124.7,97.9,123.7,97.9,122.6z M99.9,122.6c0,1.1,0.3,2.1,0.8,3.1c0.5,0.9,1.5,1.5,2.5,1.4
		c0.7,0,1.3-0.2,1.9-0.6c0.5-0.4,0.9-1,1.1-1.6c0.3-0.7,0.4-1.5,0.4-2.2c0-0.8-0.1-1.5-0.4-2.3c-0.2-0.6-0.6-1.2-1.1-1.6
		c-0.5-0.4-1.2-0.6-1.8-0.6c-0.7,0-1.3,0.2-1.8,0.6c-0.5,0.4-0.9,1-1.1,1.6C100,121,99.9,121.8,99.9,122.6z"/>
	<path d="M110.1,122.6c0-1.1,0.2-2.2,0.7-3.2c0.4-0.9,1.1-1.7,1.9-2.2c0.8-0.5,1.8-0.8,2.8-0.8c1,0,2,0.3,2.8,0.9
		c0.8,0.6,1.5,1.4,1.9,2.3c0.4,1,0.6,2,0.6,3.1c0,1.1-0.2,2.1-0.6,3.1c-0.4,0.9-1.1,1.7-1.9,2.3c-1.7,1.1-3.9,1.1-5.7,0
		c-0.8-0.6-1.5-1.4-1.9-2.3C110.3,124.7,110.1,123.7,110.1,122.6z M112.1,122.6c0,1.1,0.3,2.1,0.8,3.1c0.5,0.9,1.5,1.5,2.5,1.4
		c0.7,0,1.3-0.2,1.9-0.6c0.5-0.4,0.9-1,1.1-1.6c0.3-0.7,0.4-1.5,0.4-2.2c0-0.8-0.1-1.5-0.4-2.3c-0.2-0.6-0.6-1.2-1.1-1.6
		c-0.5-0.4-1.2-0.6-1.8-0.6c-0.7,0-1.3,0.2-1.8,0.6c-0.5,0.4-0.9,1-1.1,1.6C112.2,121,112.1,121.8,112.1,122.6L112.1,122.6z"/>
	<path d="M130.7,118v-6c0-0.3,0.1-0.5,0.3-0.7c0.2-0.2,0.4-0.3,0.7-0.3c0.3,0,0.5,0.1,0.7,0.3c0.2,0.2,0.3,0.5,0.3,0.8v15.6
		c0,0.3-0.1,0.6-0.3,0.8c-0.4,0.4-1,0.4-1.4,0c-0.2-0.2-0.3-0.4-0.3-0.7v-0.6l0,0c-0.2,0.5-0.6,0.9-1.1,1.1c-0.6,0.3-1.3,0.5-2,0.5
		c-1,0-2-0.2-2.8-0.8c-0.8-0.5-1.5-1.3-1.9-2.2c-0.8-1.8-0.9-3.8-0.3-5.6c0.2-0.7,0.6-1.4,1.1-2c0.5-0.5,1-1,1.6-1.3
		c0.6-0.3,1.3-0.5,2.1-0.5C128.7,116.3,130,117,130.7,118L130.7,118z M124.2,122.5c0,1.1,0.2,2.2,0.8,3.1c0.5,0.9,1.4,1.4,2.4,1.4
		c0.7,0,1.5-0.2,2-0.7c0.5-0.4,0.9-1,1.1-1.7c0.2-0.7,0.4-1.4,0.4-2.1c0-0.8-0.1-1.6-0.4-2.3c-0.2-0.6-0.6-1.2-1.2-1.6
		c-0.5-0.4-1.1-0.6-1.7-0.6c-0.7,0-1.4,0.2-1.9,0.7c-0.5,0.5-0.9,1-1.1,1.7C124.4,121.1,124.3,121.8,124.2,122.5L124.2,122.5z"/>
</g>
<g>
	<path d="M78.9,94.4c-9,0-18,0-27,0c-5.8,0.2-10.9-3.9-12-9.6c-0.1-0.7-0.7-1.2-1.4-1.1h-0.1c-3.1,0-5.7-2.2-6.3-5.3
		c-0.7-3.5,1.6-6.8,5.1-7.5c0.3-0.1,0.6-0.1,1-0.1h2l0-0.9c0-0.3,0-0.5,0-0.7V58.8c0-1.4,0.4-1.8,1.9-1.8h2.3h1.8
		c0.1,0,0.2,0,0.3-0.1l0.1-0.1l0.4-0.1V55c0-1.1,0-2.3,0-3.4c-0.1-0.7,0.4-1.3,1.1-1.5h0.3c0.7,0,1.3,0.6,1.3,1.3c0,0,0,0.1,0,0.1
		c0,1.1,0,2.3,0,3.4v2.1h4.8c1.7,0,2,0.3,2,2.1v11.7h7.2l-0.5-0.8l-0.1-0.2c-0.1-0.2-0.2-0.3-0.3-0.5c-2.8-4.2-1.6-9.8,2.6-12.6
		c0.8-0.5,1.6-0.9,2.5-1.1c0.8-0.2,1.4-1,1.3-1.8c0-1.5,0-3.2,0-5c-0.1-0.7,0.4-1.3,1.1-1.4c0.1,0,0.2,0,0.3,0c0.5,0,1,0.3,1.1,0.7
		c0.1,0.3,0.2,0.7,0.2,1.1c0,1.5,0,3.1,0,4.8c-0.1,0.7,0.4,1.3,1,1.4c2.8,0.8,5.2,2.9,6.2,5.6c1,2.8,0.6,6-1.1,8.5
		c-0.1,0.1-0.1,0.2-0.2,0.3l-0.5,0.9h7.1v-4.5c0-2.4,0-4.9,0-7.4c0-1.6,0.4-1.9,2-1.9h4.9v-1.5c0-0.7,0-1.3,0-2
		c-0.1-0.8,0.4-1.5,1.2-1.6c0.1,0,0.1,0,0.2,0c0.8,0,1.4,0.7,1.4,1.5c0,0,0,0.1,0,0.1c0,0.6,0,1.3,0,2V57h4.7c1.8,0,2.1,0.3,2.1,2.1
		v11.7h7.3l-0.6-0.8c-2-2.9-2.5-5.8-1.3-8.9c1.1-3,3.7-5.2,6.8-5.8l0.4-0.1v-1.7c0-1.1,0-2.1,0-3.2v-0.4c0-0.5,0-0.9,0.1-1.4
		c0.1-0.6,0.6-1.1,1.3-1.1h0.1c0.7,0,1.2,0.6,1.2,1.2c0,1.8,0,3.6,0,5.4c-0.1,0.7,0.4,1.3,1,1.4c4.8,1.3,7.7,6.3,6.4,11.1
		c-0.3,1-0.7,2-1.4,2.9c-0.1,0.1-0.1,0.2-0.2,0.3l-0.4,0.7l0.9,0.4l0.5,0.2c2.1,0.7,3.7,2.4,4.2,4.5c0,0.2,0.2,0.6,0.2,0.6v2.1v0.1
		c-0.1,0.2-0.1,0.3-0.2,0.5c-0.7,2.8-3.2,4.7-6,4.8l-1.3,0.1l-0.1,0.4c-0.1,0.3-0.2,0.5-0.2,0.8c-0.1,0.5-0.3,1.1-0.5,1.6
		c-1.7,4.8-6.4,8-11.5,7.8C98,94.4,88.4,94.4,78.9,94.4z M42.6,84.4l0.1,0.3c0,0.2,0.1,0.3,0.1,0.5c1.2,4,4.8,6.5,9.3,6.5h22.5
		c11,0,21.9,0,32.9,0c1.2,0,2.4-0.2,3.5-0.5c3.1-1,5.4-3.6,6-6.8l0.2-0.7H89c-0.4,0-0.7,0-1.1-0.1c-0.6-0.2-1-0.8-1-1.4
		c0.1-0.7,0.6-1.2,1.3-1.2h32.5c0.2,0,0.4,0,0.6,0c1.3-0.1,2.4-0.8,3-1.9c0.6-1,0.6-2.3,0.1-3.4c-0.7-1.5-2.2-2.3-3.8-2.2H38.2
		c-1.8,0.1-3.3,1.5-3.5,3.2c-0.2,1.8,0.8,3.5,2.6,4c0.6,0.2,1.2,0.2,1.8,0.2h32.2c0.7,0,1.2,0.6,1.3,1.2c0.1,0.6-0.3,1.2-0.9,1.4
		c-0.4,0.1-0.8,0.1-1.2,0.1h-28L42.6,84.4z M43,70.8h10.9v-11H43L43,70.8z M87.3,70.8h10.9v-11H87.3V70.8z M70.6,57.9
		c-3.5,0-6.4,2.9-6.4,6.4c0,3.5,2.9,6.4,6.4,6.4l0,0c1.7,0,3.4-0.7,4.6-1.9c1.2-1.2,1.9-2.8,1.9-4.5C77,60.8,74.1,57.9,70.6,57.9
		L70.6,57.9z M114.9,57.9c-3.5,0-6.4,2.9-6.5,6.4c0,3.5,2.8,6.4,6.4,6.5l0,0c3.5,0,6.5-2.8,6.5-6.4
		C121.3,60.8,118.5,57.9,114.9,57.9L114.9,57.9z"/>
	<path d="M79.7,83.7c-0.7,0-1.3-0.6-1.3-1.3c0-0.4,0.1-0.7,0.4-1c0.3-0.3,0.6-0.4,1-0.4c0.7,0,1.3,0.6,1.3,1.3c0,0,0,0,0,0.1
		C81.1,83.1,80.5,83.7,79.7,83.7L79.7,83.7z"/>
</g>
</svg>
