<?xml version="1.0" encoding="utf-8"?>
<!-- Generator: Adobe Illustrator 25.2.0, SVG Export Plug-In . SVG Version: 6.00 Build 0)  -->
<svg version="1.1" id="Layer_1" xmlns="http://www.w3.org/2000/svg" xmlns:xlink="http://www.w3.org/1999/xlink" x="0px" y="0px"
	 viewBox="0 0 162.4 162.4" style="enable-background:new 0 0 162.4 162.4;" xml:space="preserve">
<g>
	<path d="M27.5,113.8c0-0.4,0.2-0.8,0.5-1.1c0.3-0.2,0.6-0.4,1-0.4c0.3,0,0.6,0.1,0.9,0.3c0.3,0.2,0.5,0.5,0.5,0.8l3.3,11.9l0,0
		l3.3-12c0.1-0.3,0.3-0.6,0.5-0.8c0.2-0.2,0.5-0.3,0.9-0.3c0.4,0,0.7,0.1,1,0.3c0.3,0.3,0.5,0.6,0.5,1l2.3,13.9c0,0.4-0.1,0.7-0.3,1
		c-0.2,0.2-0.4,0.3-0.7,0.3c-0.5,0-0.9-0.4-1-0.9L38.5,115l-3.8,13.2c-0.1,0.5-0.5,0.8-0.9,0.8c-0.2,0-0.4-0.1-0.6-0.2
		c-0.2-0.1-0.3-0.3-0.4-0.6L29,115l-1.8,13.2c0,0.3-0.2,0.5-0.4,0.7c-0.2,0.2-0.5,0.3-0.7,0.3c-0.2,0-0.4-0.1-0.6-0.3
		c-0.2-0.2-0.3-0.5-0.3-0.9c0-0.2,0-0.3,0-0.5L27.5,113.8z"/>
	<path d="M52.1,118.2v-0.7c0-0.3,0.1-0.5,0.3-0.7c0.2-0.2,0.4-0.3,0.6-0.3c0.2,0,0.5,0.1,0.6,0.3c0.2,0.2,0.3,0.5,0.3,0.8V128
		c0,0.3-0.1,0.6-0.3,0.8c-0.2,0.2-0.4,0.3-0.6,0.2c-0.2,0-0.5-0.1-0.6-0.2c-0.2-0.2-0.3-0.4-0.3-0.7v-0.9l0,0
		c-0.7,1.1-1.8,1.8-3.1,1.8c-2,0-3.8-1.1-4.6-2.9c-0.5-1-0.7-2.1-0.7-3.2c0-1.2,0.2-2.4,0.7-3.5c0.4-0.9,1.1-1.6,1.9-2.1
		c0.7-0.4,1.5-0.7,2.4-0.7c0.6,0,1.2,0.1,1.8,0.4C51.2,117.3,51.7,117.7,52.1,118.2L52.1,118.2z M45.6,122.8c0,0.7,0.1,1.5,0.4,2.2
		c0.2,0.6,0.6,1.2,1.1,1.6c0.5,0.4,1.1,0.7,1.7,0.6c1,0.1,2-0.4,2.5-1.3c0.5-1,0.8-2.1,0.8-3.2c0-0.8-0.1-1.6-0.4-2.4
		c-0.2-0.6-0.6-1.2-1.1-1.5c-0.5-0.4-1.1-0.6-1.7-0.5l0,0c-0.9,0-1.8,0.5-2.4,1.3C45.9,120.5,45.6,121.6,45.6,122.8z"/>
	<path d="M57.4,115.1c-0.3,0-0.6-0.1-0.8-0.3c-0.2-0.2-0.3-0.5-0.3-0.8c0-0.3,0.1-0.6,0.3-0.8c0.2-0.2,0.5-0.3,0.8-0.3
		c0.3,0,0.6,0.1,0.8,0.3c0.4,0.5,0.4,1.2,0,1.6C58,115,57.7,115.1,57.4,115.1z M56.5,117.6c0-0.5,0.4-1,0.9-1c0,0,0.1,0,0.1,0
		c0.3,0,0.5,0.1,0.7,0.3c0.2,0.2,0.3,0.5,0.3,0.8v10.3c0,0.3-0.1,0.6-0.3,0.8c-0.4,0.4-1,0.4-1.3,0c-0.2-0.2-0.3-0.5-0.3-0.8V117.6z
		"/>
	<path d="M60.9,117.6c0-0.3,0.1-0.6,0.3-0.8c0.4-0.4,1-0.4,1.4,0c0.2,0.2,0.3,0.5,0.3,0.8v0.5l0,0c0.8-1,1.9-1.6,3.2-1.6
		c0.7,0,1.4,0.2,2,0.5c0.6,0.4,1.2,0.9,1.5,1.6c0.4,0.8,0.6,1.7,0.6,2.6v6.8c0,0.3-0.1,0.5-0.3,0.7c-0.2,0.2-0.4,0.3-0.7,0.2
		c-0.2,0-0.5-0.1-0.7-0.3c-0.2-0.2-0.3-0.4-0.3-0.7v-6.7c0-0.8-0.2-1.6-0.8-2.1c-0.5-0.5-1.2-0.8-1.9-0.8c-0.5,0-0.9,0.1-1.3,0.3
		c-0.4,0.2-0.8,0.6-1,1c-0.3,0.5-0.4,1-0.4,1.6v6.7c0,0.3-0.1,0.6-0.3,0.8c-0.2,0.2-0.4,0.3-0.7,0.3c-0.3,0-0.5-0.1-0.7-0.3
		c-0.2-0.2-0.3-0.5-0.3-0.8L60.9,117.6z"/>
	<path d="M85.8,117.7c0.1,0.1,0.1,0.3,0.1,0.4c0,0.2-0.1,0.4-0.2,0.6c-0.2,0.2-0.4,0.3-0.6,0.3h-0.1l-0.2-0.1l-0.4-0.1
		c-0.3-0.1-0.6-0.2-0.9-0.3c-0.2-0.1-0.5-0.1-0.7-0.1c-0.6,0-1.3,0.2-1.8,0.6c-0.5,0.4-0.9,1-1.1,1.6c-0.3,0.7-0.4,1.4-0.4,2.1
		c0,1.1,0.2,2.1,0.7,3c0.1,0.3,0.3,0.6,0.6,0.8c0.2,0.2,0.5,0.4,0.8,0.5c0.3,0.1,0.6,0.2,1,0.3c0.1,0,0.2,0,0.3,0l0.5-0.1
		c0.1,0,0.3-0.1,0.4-0.1l0.2-0.1l0.3-0.1l0.4-0.2c0.2-0.1,0.3-0.1,0.5-0.1c0.2,0,0.4,0.1,0.5,0.2c0.1,0.2,0.2,0.4,0.2,0.6
		c0,0.6-0.4,1.1-1,1.2c-0.7,0.2-1.4,0.3-2.1,0.3c-1,0-1.9-0.3-2.8-0.8c-0.8-0.5-1.4-1.3-1.8-2.2c-0.4-0.9-0.6-1.9-0.7-3
		c0-0.8,0.1-1.6,0.3-2.4c0.2-0.7,0.5-1.4,0.9-2.1c0.4-0.6,1-1.1,1.6-1.4c0.7-0.4,1.5-0.6,2.3-0.6c0.7,0,1.4,0.1,2,0.3
		C85.1,117,85.5,117.3,85.8,117.7z"/>
	<path d="M87.2,122.8c0-1.1,0.2-2.2,0.7-3.2c0.4-0.9,1-1.7,1.8-2.2c0.8-0.5,1.7-0.8,2.7-0.8c1,0,1.9,0.3,2.7,0.9
		c0.8,0.6,1.4,1.4,1.8,2.3c0.4,1,0.6,2,0.6,3.1c0,1.1-0.2,2.1-0.6,3.1c-0.4,0.9-1,1.7-1.8,2.2c-1.7,1.1-3.8,1.1-5.5,0
		c-0.8-0.6-1.4-1.4-1.8-2.3C87.4,124.9,87.2,123.8,87.2,122.8z M89.1,122.8c0,1.1,0.3,2.1,0.8,3.1c0.5,0.9,1.4,1.5,2.4,1.4
		c0.7,0,1.3-0.2,1.8-0.6c0.5-0.4,0.9-1,1.1-1.6c0.5-1.5,0.5-3,0-4.5c-0.2-0.6-0.6-1.2-1.1-1.6c-0.5-0.4-1.1-0.6-1.8-0.6
		c-0.6,0-1.3,0.2-1.8,0.6c-0.5,0.4-0.9,1-1.1,1.6C89.2,121.2,89.1,122,89.1,122.8L89.1,122.8z"/>
	<path d="M99.5,117.6c0-0.5,0.4-1,0.9-1c0,0,0.1,0,0.1,0c0.3,0,0.5,0.1,0.7,0.3c0.2,0.2,0.3,0.5,0.3,0.7v6.7c0,0.8,0.2,1.6,0.7,2.2
		c0.5,0.6,1.3,0.9,2,0.8c1.8,0,2.7-1,2.7-3v-6.6c0-0.3,0.1-0.5,0.3-0.7c0.2-0.2,0.4-0.3,0.7-0.3c0.3,0,0.5,0.1,0.7,0.3
		c0.2,0.2,0.3,0.5,0.3,0.8v6.6c0,0.8-0.2,1.6-0.5,2.3c-0.3,0.7-0.9,1.3-1.5,1.7c-0.8,0.5-1.7,0.7-2.7,0.7c-0.9,0-1.7-0.2-2.5-0.6
		c-0.7-0.4-1.2-1-1.5-1.7c-0.3-0.7-0.5-1.6-0.5-2.4L99.5,117.6z"/>
	<path d="M111.3,117.6c0-0.3,0.1-0.6,0.3-0.7c0.2-0.2,0.4-0.3,0.7-0.3c0.3,0,0.5,0.1,0.7,0.3c0.2,0.2,0.3,0.5,0.3,0.7v1l0,0
		c0.3-0.5,0.7-1,1.1-1.4c0.4-0.4,0.9-0.6,1.5-0.7c0.3,0,0.6,0.1,0.8,0.3c0.2,0.2,0.3,0.4,0.3,0.7c0,0.3-0.1,0.6-0.3,0.8
		c-0.3,0.2-0.7,0.3-1,0.4c-0.3,0.1-0.6,0.2-0.8,0.3c-0.5,0.3-0.9,0.7-1.2,1.2c-0.3,0.6-0.4,1.2-0.4,1.8v5.9c0,0.3-0.1,0.6-0.3,0.8
		c-0.2,0.2-0.4,0.3-0.7,0.3c-0.3,0-0.5-0.1-0.7-0.3c-0.2-0.2-0.3-0.5-0.3-0.8L111.3,117.6z"/>
	<path d="M117.9,127.6c-0.3-0.2-0.5-0.6-0.5-1c0-0.2,0.1-0.5,0.3-0.6c0.2-0.2,0.4-0.3,0.6-0.2c0.2,0,0.4,0.1,0.6,0.2
		c0.1,0.1,0.4,0.2,0.7,0.5s0.4,0.2,0.6,0.4c0.5,0.3,1.1,0.4,1.6,0.5c0.6,0,1.2-0.1,1.7-0.4c0.5-0.2,0.8-0.8,0.7-1.3
		c0-0.6-0.4-1.1-0.9-1.4c-0.5-0.3-1.1-0.6-1.7-0.8l-1.9-0.8c-0.5-0.2-0.8-0.6-1.2-1c-0.4-0.5-0.5-1-0.5-1.6c0-0.6,0.2-1.2,0.5-1.7
		c0.3-0.5,0.8-0.9,1.3-1.2c0.6-0.3,1.3-0.5,2-0.5c0.7,0,1.4,0.1,2.1,0.4c0.5,0.2,1.1,0.5,1.5,0.8c0.3,0.2,0.4,0.6,0.5,0.9
		c0,0.2-0.1,0.4-0.2,0.6c-0.2,0.2-0.4,0.3-0.6,0.3c-0.4-0.1-0.8-0.3-1.1-0.5c-0.4-0.2-0.7-0.4-1-0.6c-0.3-0.1-0.6-0.2-0.8-0.2
		c-0.6-0.1-1.1,0.1-1.6,0.4c-0.3,0.2-0.6,0.6-0.6,1.1c0.1,0.4,0.2,0.7,0.5,1c0.3,0.3,0.6,0.5,1,0.6c0.3,0.2,0.8,0.3,1.3,0.5
		s0.9,0.3,1.1,0.4c0.7,0.3,1.4,0.7,1.9,1.3c0.4,0.5,0.6,1.2,0.6,1.8c0,0.6-0.2,1.2-0.5,1.7c-0.4,0.6-0.9,1-1.4,1.3
		c-0.7,0.4-1.6,0.5-2.4,0.5C120.3,129,119,128.5,117.9,127.6z"/>
	<path d="M127.2,122.6c0-1,0.3-2,0.7-3c0.4-0.9,1-1.7,1.8-2.3c0.8-0.6,1.7-0.9,2.7-0.9c1,0,1.9,0.3,2.7,0.8c0.8,0.6,1.4,1.4,1.8,2.3
		c0.4,0.9,0.7,1.9,0.7,2.9c0,0.6-0.4,1-1.1,1h-7.3c0,0.7,0.2,1.4,0.5,2c0.3,0.6,0.7,1,1.3,1.3c0.6,0.3,1.2,0.4,1.8,0.4
		c1.2,0,2.3-0.5,3.1-1.3c0.2-0.2,0.5-0.3,0.7-0.4c0.2,0,0.4,0.1,0.5,0.2c0.1,0.2,0.2,0.4,0.2,0.6c0,0.3-0.1,0.5-0.3,0.7
		c-0.5,0.6-1.1,1-1.8,1.3c-0.8,0.3-1.6,0.5-2.5,0.5c-0.9,0-1.7-0.2-2.5-0.6c-0.7-0.3-1.3-0.8-1.7-1.5c-0.4-0.6-0.7-1.3-0.9-2
		c-0.2-0.7-0.3-1.4-0.3-2.2L127.2,122.6L127.2,122.6z M129.1,122h6.5c0-1-0.3-1.9-0.9-2.7c-0.6-0.7-1.4-1.1-2.3-1.1
		c-0.9,0-1.8,0.3-2.4,1C129.4,120,129.1,121,129.1,122L129.1,122z"/>
</g>
<g>
	<path d="M121.8,79.1c-0.9-0.4-1.9-0.8-2.8-1c-0.4-0.1-0.7-0.2-1.1-0.3c-2.1-19.3-12.9-31.1-32.1-35.1c0-0.2,0-0.4,0-0.6
		c0-0.7,0-1.4,0-2.2c0-0.5,0.3-1.1,0.6-1.5c0,0,0.1,0,0.1-0.1c2.8-2.8,2.8-7.4-0.1-10.2c-2.8-2.8-7.4-2.8-10.2,0.1
		c-2.8,2.8-2.8,7.4,0.1,10.2l0.1,0.1c0.2,0.2,0.5,0.5,0.5,0.7c0,1,0,1.9,0,2.8c0,0.2,0,0.5,0,0.7c-19.4,4-30,15.6-32.1,35.2h-0.1
		L43.7,78c-2.4,0.3-4.6,1.7-5.9,3.8c-1.3,2.1-1.6,4.6-0.8,6.9c1.2,3.5,4.5,5.8,8.2,5.7h54.1l10.6-0.1h7.9c3.8,0,7.1-2.6,8-6.3
		C126.6,84.5,125,80.8,121.8,79.1z M40.9,83.2c0.9-1.2,2.2-1.9,3.7-2c1,0,1.9,0,2.9,0l3.8,0h66.1c2.7,0,4.4,1.3,5.1,3.8
		c0,0,0,0.1,0,0.1c0.6,2.6-1.1,5.2-3.7,5.7c-0.7,0.1-1.3,0.2-2,0.2h-71c-3.1,0-5-1.2-5.6-3.6C39.8,86,40,84.4,40.9,83.2z M84.1,30.5
		c0.7,0.7,1.1,1.7,1.1,2.7c-0.1,1.2-0.7,2.4-1.7,3.2c-0.6,0.6-1,1.4-1,2.2c-0.1,1-0.1,1.9-0.1,2.9c0,0.3,0,0.7,0,1h-2.2
		c0-0.3,0-0.6,0-1c0-1,0-2-0.1-3c-0.1-0.8-0.5-1.6-1.1-2.2c-1-0.8-1.6-1.9-1.6-3.1c0-1,0.3-2,1.1-2.7c0,0,0.1-0.1,0.1-0.1
		C80.2,28.9,82.6,29,84.1,30.5z M63.4,51.3c5.3-3.5,11.5-5.4,17.8-5.5c6.2,0.1,12.3,1.9,17.5,5.2c9.4,5.6,16.3,17.8,15.4,26.8H48.3
		C49,66.1,54.1,57.2,63.4,51.3z"/>
	<path d="M59.8,44.7c0.2,0,0.4-0.1,0.6-0.2c0.4-0.1,0.7-0.4,0.8-0.8c0.1-0.6-0.1-1.2-0.4-1.6c-1.2-1.9-1.3-4.2-0.2-6.2l0.3-0.5
		c0.9-1.7,1.8-3.5,1.8-5.6c0-0.3,0-0.7-0.1-1c-0.2-1.2-0.6-2.5-1.2-3.6l-0.2-0.4c-0.2-0.6-0.7-0.9-1.3-1c-0.3,0-0.5,0.1-0.8,0.2
		c-0.3,0.2-0.6,0.5-0.7,0.9c-0.1,0.5,0,0.9,0.3,1.3c1.5,2.4,1.4,4.9-0.3,7.6c-1.8,2.9-1.9,6.6-0.1,9.6
		C58.6,44.1,59.1,44.7,59.8,44.7z"/>
	<path d="M112.4,43.5c0.3,0.6,0.8,1.2,1.5,1.2c0.3,0,0.5-0.1,0.8-0.3c0.3-0.2,0.6-0.5,0.7-0.8c0.1-0.6-0.1-1.1-0.4-1.6
		c-1.2-1.8-1.3-4.2-0.3-6.1l0.2-0.5c0.8-1.4,1.4-2.8,1.8-4.3c0.1-0.5,0.2-1,0.1-1.6c-0.1-1.6-0.6-3.2-1.4-4.7l0-0.1
		c-0.2-0.6-0.8-1.1-1.5-1.1c-0.2,0-0.5,0.1-0.7,0.2c-0.3,0.2-0.6,0.5-0.7,0.8c-0.1,0.5,0,1.1,0.4,1.6c1.5,2.4,1.4,4.8-0.3,7.5
		C110.5,36.7,110.5,40.5,112.4,43.5z"/>
	<path d="M49.1,42.7c0.1,0.2,0.1,0.3,0.2,0.5c0.2,0.6,0.5,1.2,0.8,1.8c0.2,0.5,0.7,0.8,1.3,0.9c0.2,0,0.5-0.1,0.7-0.2
		c0.8-0.4,1-1.2,0.5-2.1c-0.1-0.2-0.1-0.2-0.2-0.4s-0.2-0.4-0.3-0.6c-0.9-1.8-0.9-3.9,0.2-5.6l0-0.1c0.5-0.9,1-1.8,1.4-2.7
		c1.1-2.8,0.8-5.9-0.9-8.3C52.5,25.3,52,25,51.5,25c-0.3,0-0.6,0.1-0.8,0.2c-0.1,0-0.2,0.1-0.2,0.1c-0.6,0.5-0.7,1.3-0.2,1.9
		c0.2,0.3,0.4,0.7,0.6,1.1c0.7,1.6,0.7,3.4,0,5c-0.3,0.7-0.6,1.3-0.9,2c-0.8,1.4-1.3,2.9-1.5,4.4c0,0.3,0,0.6,0.1,0.9
		C48.6,41.4,48.8,42.1,49.1,42.7z"/>
	<path d="M104.3,45.2c0.3,0.4,0.7,0.6,1.2,0.6c0.3,0,0.5-0.1,0.7-0.3c0.9-0.8,0.3-2.1-0.1-2.8c-0.8-1.4-1-3.1-0.4-4.7
		c0.2-0.6,0.5-1.1,0.8-1.6l0.4-0.7c1.8-3.4,1.7-6.7-0.2-9.8c-0.3-0.6-0.9-0.9-1.5-1c-0.3,0-0.5,0.1-0.7,0.2
		c-0.3,0.2-0.5,0.5-0.6,0.8c-0.1,0.5,0,1,0.3,1.4c1.2,1.7,1.4,3.9,0.6,5.9c-0.3,0.8-0.7,1.6-1.1,2.3c-0.2,0.5-0.5,0.9-0.7,1.4
		c-0.3,0.7-0.6,1.4-0.7,2.1c0,0.2,0,0.4,0,0.6c0,0.6,0.1,1.1,0.2,1.7C103,42.7,103.5,44,104.3,45.2z"/>
	<path d="M90.9,56.4c3.1,0.9,5.7,3,7.4,5.8c0.3,0.6,0.8,1,1.5,1.1c0.3,0,0.6-0.1,0.9-0.3c1-0.6,1.1-1.5,0.4-2.6l-0.5-0.7l-0.1-0.1
		c-0.1-0.2-0.3-0.4-0.4-0.5c-1.2-1.5-2.7-2.8-4.4-3.9c-0.7-0.4-1.4-0.9-2.1-1.2l-0.5-0.3c-0.5-0.3-1.1-0.5-1.6-0.7
		c-0.1,0-0.3,0-0.4,0c-0.1,0-0.2,0-0.3,0c-0.1,0-0.2,0-0.3,0.1c-0.8,0.4-1.2,1.2-1,2.1C89.7,55.8,90.2,56.2,90.9,56.4z"/>
</g>
</svg>
