<?xml version="1.0" encoding="utf-8"?>
<!-- Generator: Adobe Illustrator 25.2.0, SVG Export Plug-In . SVG Version: 6.00 Build 0)  -->
<svg version="1.1" id="Layer_1" xmlns="http://www.w3.org/2000/svg" xmlns:xlink="http://www.w3.org/1999/xlink" x="0px" y="0px"
	 viewBox="0 0 162.4 162.4" style="enable-background:new 0 0 162.4 162.4;" xml:space="preserve">
<g>
	<path d="M37.8,113.8c0.1-0.4,0.2-0.8,0.5-1.1c0.3-0.2,0.6-0.4,1-0.4c0.3,0,0.7,0.1,0.9,0.3c0.3,0.2,0.5,0.5,0.5,0.8l3.5,11.9l0,0
		l3.5-12c0.1-0.3,0.3-0.6,0.6-0.8c0.3-0.2,0.6-0.3,0.9-0.3c0.4,0,0.7,0.1,1,0.3c0.3,0.3,0.5,0.6,0.5,1l2.4,13.9c0,0.4-0.1,0.7-0.3,1
		c-0.2,0.2-0.4,0.3-0.7,0.3c-0.2,0-0.5-0.1-0.7-0.2c-0.2-0.2-0.3-0.4-0.4-0.7L49.2,115l-3.9,13.2c-0.1,0.5-0.7,0.9-1.2,0.7
		c-0.1,0-0.3-0.1-0.4-0.2c-0.2-0.1-0.3-0.3-0.4-0.6L39.4,115l-1.9,13.2c-0.1,0.6-0.6,1-1.1,1c-0.2,0-0.5-0.1-0.6-0.3
		c-0.2-0.2-0.3-0.6-0.3-0.9c0-0.2,0-0.3,0-0.5L37.8,113.8z"/>
	<path d="M63.2,118.2v-0.7c0-0.3,0.1-0.5,0.3-0.7c0.2-0.2,0.4-0.3,0.7-0.3c0.2,0,0.5,0.1,0.7,0.3c0.2,0.2,0.3,0.5,0.3,0.8v10.4
		c0,0.3-0.1,0.6-0.3,0.8c-0.2,0.2-0.4,0.3-0.7,0.2c-0.2,0-0.5-0.1-0.7-0.2c-0.2-0.2-0.3-0.4-0.3-0.7v-0.9l0,0
		c-0.7,1.1-1.9,1.8-3.2,1.8c-1,0-1.9-0.2-2.8-0.7c-0.8-0.5-1.5-1.3-2-2.2c-0.5-1-0.7-2.1-0.7-3.2c-0.1-1.2,0.2-2.4,0.8-3.5
		c0.5-0.9,1.1-1.6,2-2.1c0.7-0.4,1.6-0.7,2.4-0.7c0.6,0,1.3,0.1,1.9,0.4C62.2,117.3,62.8,117.7,63.2,118.2L63.2,118.2z M56.5,122.7
		c0,0.7,0.1,1.5,0.4,2.2c0.2,0.6,0.6,1.2,1.1,1.6c0.5,0.4,1.1,0.7,1.8,0.6c1,0.1,2-0.4,2.6-1.3c0.5-1,0.8-2.1,0.8-3.2
		c0-0.8-0.1-1.6-0.4-2.4c-0.2-0.6-0.6-1.2-1.2-1.5c-0.5-0.4-1.1-0.5-1.7-0.5l0,0c-1,0-1.9,0.5-2.4,1.3
		C56.8,120.5,56.5,121.6,56.5,122.7L56.5,122.7z"/>
	<path d="M67.7,117.6c0-0.3,0.1-0.5,0.3-0.7c0.2-0.2,0.4-0.3,0.7-0.3c0.3,0,0.5,0.1,0.7,0.3c0.2,0.2,0.3,0.5,0.3,0.7v1l0,0
		c0.3-0.5,0.7-1,1.2-1.4c0.4-0.4,1-0.6,1.5-0.7c0.3,0,0.6,0.1,0.8,0.3c0.2,0.2,0.4,0.4,0.4,0.7c0,0.3-0.1,0.6-0.4,0.8
		c-0.3,0.2-0.7,0.3-1,0.4c-0.3,0.1-0.6,0.2-0.9,0.3c-0.5,0.3-0.9,0.7-1.2,1.2c-0.3,0.6-0.4,1.2-0.4,1.8v5.9c0,0.3-0.1,0.6-0.3,0.8
		c-0.2,0.2-0.4,0.3-0.7,0.3c-0.5,0-1-0.4-1-0.9c0-0.1,0-0.1,0-0.2L67.7,117.6z"/>
	<path d="M75.9,115.1c-0.6,0-1.1-0.5-1.1-1.1c0-0.3,0.1-0.6,0.3-0.8c0.2-0.2,0.5-0.3,0.8-0.4c0.3,0,0.6,0.1,0.8,0.3
		c0.2,0.2,0.3,0.5,0.3,0.8c0,0.3-0.1,0.6-0.3,0.8C76.4,115,76.2,115.1,75.9,115.1z M74.9,117.6c0-0.3,0.1-0.6,0.3-0.8
		c0.4-0.4,1-0.4,1.4,0c0.2,0.2,0.3,0.5,0.3,0.8v10.3c0,0.3-0.1,0.6-0.3,0.8c-0.4,0.4-1,0.4-1.4,0c-0.2-0.2-0.3-0.5-0.3-0.8V117.6z"
		/>
	<path d="M79.5,117.6c0-0.3,0.1-0.6,0.3-0.8c0.4-0.4,1-0.4,1.4,0c0.2,0.2,0.3,0.5,0.3,0.8v0.5l0,0c0.4-0.5,0.9-0.9,1.5-1.2
		c0.6-0.3,1.2-0.4,1.8-0.4c0.7,0,1.5,0.2,2.1,0.5c0.7,0.4,1.2,0.9,1.6,1.6c0.4,0.8,0.6,1.7,0.6,2.6v6.8c0,0.3-0.1,0.5-0.3,0.7
		c-0.2,0.2-0.4,0.2-0.7,0.2c-0.3,0-0.5-0.1-0.7-0.3c-0.2-0.2-0.3-0.4-0.3-0.7v-6.7c0-0.8-0.3-1.6-0.8-2.1c-0.5-0.5-1.2-0.8-2-0.8
		c-0.5,0-1,0.1-1.4,0.3c-0.4,0.2-0.8,0.6-1,1c-0.3,0.5-0.4,1-0.4,1.6v6.7c0,0.3-0.1,0.6-0.3,0.8c-0.2,0.2-0.4,0.3-0.7,0.3
		c-0.3,0-0.5-0.1-0.7-0.3c-0.2-0.2-0.3-0.5-0.3-0.8L79.5,117.6z"/>
	<path d="M99.8,118.2v-0.7c0-0.3,0.1-0.5,0.3-0.7c0.4-0.4,0.9-0.4,1.3,0c0.2,0.2,0.3,0.5,0.3,0.8v10.4c0,0.3-0.1,0.6-0.3,0.8
		c-0.2,0.2-0.4,0.3-0.7,0.2c-0.2,0-0.5-0.1-0.7-0.2c-0.2-0.2-0.3-0.4-0.3-0.7v-0.9l0,0c-0.7,1.1-1.9,1.8-3.2,1.8
		c-1,0-1.9-0.2-2.8-0.7c-0.8-0.5-1.5-1.3-2-2.2c-1-2.1-0.9-4.6,0.1-6.7c0.5-0.9,1.2-1.6,2-2.1c0.7-0.4,1.6-0.7,2.4-0.7
		c0.6,0,1.3,0.1,1.9,0.4C98.9,117.3,99.4,117.7,99.8,118.2L99.8,118.2z M93.1,122.7c0,0.7,0.1,1.5,0.4,2.2c0.2,0.6,0.6,1.2,1.1,1.6
		c0.5,0.4,1.1,0.7,1.8,0.6c1,0.1,2-0.4,2.6-1.3c0.5-1,0.8-2.1,0.8-3.2c0-0.8-0.1-1.6-0.4-2.4c-0.2-0.6-0.6-1.2-1.2-1.5
		c-0.5-0.4-1.1-0.5-1.7-0.5l0,0c-1,0-1.9,0.5-2.4,1.3C93.4,120.5,93.1,121.6,93.1,122.7L93.1,122.7z"/>
	<path d="M112.3,118.2v-6c0-0.3,0.1-0.5,0.3-0.7c0.2-0.2,0.4-0.3,0.7-0.3c0.3,0,0.5,0.1,0.7,0.3c0.2,0.2,0.3,0.5,0.3,0.8v15.6
		c0,0.3-0.1,0.6-0.3,0.8c-0.2,0.2-0.5,0.3-0.7,0.3c-0.3,0-0.5-0.1-0.7-0.3c-0.2-0.2-0.3-0.4-0.3-0.7v-0.6l0,0
		c-0.2,0.5-0.6,0.9-1,1.1c-0.6,0.3-1.3,0.5-2,0.5c-2,0.1-3.9-1.1-4.7-3c-0.8-1.8-0.9-3.8-0.3-5.6c0.2-0.7,0.6-1.4,1.1-2
		c0.5-0.5,1-1,1.6-1.3c0.6-0.3,1.4-0.5,2.1-0.5C110.3,116.5,111.5,117.1,112.3,118.2L112.3,118.2z M105.8,122.7
		c0,1.1,0.2,2.2,0.8,3.1c0.5,0.9,1.4,1.4,2.4,1.4c0.7,0,1.5-0.2,2-0.7c0.5-0.4,0.9-1,1.1-1.7c0.2-0.7,0.4-1.4,0.4-2.1
		c0-0.8-0.1-1.6-0.4-2.3c-0.2-0.6-0.6-1.2-1.2-1.6c-1.1-0.8-2.5-0.7-3.6,0.1c-0.5,0.5-0.9,1-1.1,1.7
		C106,121.3,105.8,122,105.8,122.7L105.8,122.7z"/>
	<path d="M116.3,122.6c0-1,0.3-2,0.7-3c0.4-0.9,1-1.7,1.8-2.2c0.8-0.6,1.8-0.9,2.8-0.9c1,0,2,0.3,2.8,0.8c0.8,0.6,1.5,1.4,1.9,2.3
		c0.4,0.9,0.7,1.9,0.7,2.9c0,0.7-0.4,1-1.1,1h-7.6c0,0.7,0.2,1.4,0.5,2c0.3,0.6,0.7,1,1.3,1.3c0.6,0.3,1.2,0.4,1.8,0.4
		c1.2,0,2.4-0.5,3.2-1.3c0.2-0.2,0.5-0.3,0.8-0.4c0.2,0,0.4,0.1,0.5,0.3c0.1,0.2,0.2,0.4,0.2,0.6c0,0.3-0.1,0.5-0.3,0.7
		c-0.5,0.6-1.2,1-1.9,1.3c-0.8,0.3-1.7,0.5-2.6,0.5c-0.9,0-1.8-0.2-2.6-0.6c-0.7-0.3-1.3-0.8-1.8-1.5c-0.4-0.6-0.8-1.3-1-2
		c-0.2-0.7-0.3-1.4-0.3-2.2L116.3,122.6L116.3,122.6z M118.3,122h6.7c0-1-0.3-1.9-0.9-2.7c-0.6-0.7-1.5-1.1-2.4-1
		c-0.9,0-1.8,0.3-2.4,1C118.6,120,118.3,121,118.3,122L118.3,122z"/>
</g>
<path d="M110.6,79.9c-0.3-0.4-0.8-0.6-1.3-0.5h-5.1c-0.4,0-0.8-0.1-1.1-0.3c-3.6-2.8-7.5-5-11.8-6.5c-0.3-0.1-0.6-0.3-0.8-0.5
	c-1.3-2.2-1.9-4.7-1.7-7.3v-0.5h0.8c1.1,0,1.3-0.1,1.6-1.4c1-3.9,0.8-7.9-0.5-11.7c-0.2-0.6-0.2-1.2,0.1-1.8l4.8-9.8l4.8-9.8
	c0.7-1.3,1.1-2.8,1-4.3c-0.1-4.3-3.4-7.9-7.7-8.4c-0.3,0-0.5,0-0.8,0c-4,0-7.4,2.8-8.4,6.7C83,30.8,81.3,38,79.6,45.2
	c-0.1,0.7-0.6,1.4-1.2,1.8c-3.2,2.1-5.7,5.1-7.3,8.5c-0.6,1.3-0.6,1.4,0.4,2.5l0.2,0.3l-0.1,0.3c0,0.1-0.1,0.2-0.1,0.2
	c-1.6,2.9-2.5,6.2-2.7,9.5c0,0.4-0.2,0.7-0.5,0.9c-0.7,0.4-1.2,1.2-1.4,2c-0.4,1.6-1.5,2.9-2.9,3.6c-2,1.2-4,2.6-5.6,3.9
	c-0.6,0.5-1.4,0.8-2.1,0.8h-3.5h-3.6c-0.4,0-0.8,0.2-1.1,0.5c-0.2,0.4-0.2,0.8,0,1.2c0.1,0.2,0.2,0.4,0.3,0.6
	c2.7,5.5,6.8,10.2,11.9,13.7h11.9l0-0.1l26.2,0l0.1-0.1c5.1-3.2,9.1-7.8,12.1-14.1C110.7,80.8,110.8,80.3,110.6,79.9z M84.1,35.5
	c0.9-3.7,1.7-7.4,2.6-11.1c0.6-3,3.3-5.1,6.3-5.1l0.4,0c3.1,0.2,5.6,2.6,5.9,5.8c0.1,1.3-0.2,2.7-0.8,3.8c-2.1,4.2-4.1,8.4-6.2,12.6
	l-3.6,7.4l-7.1-2.5L84.1,35.5z M73.4,55.6c1.5-2.8,3.7-5.2,6.4-7c0.2-0.1,0.4-0.2,0.6-0.2v0c0.2,0,0.4,0,0.6,0.1
	c2.7,0.9,4.7,1.7,6.6,2.4c0.4,0.2,0.8,0.6,0.9,1c1,3,1.2,6.3,0.7,9.4l-0.1,0.5l-16-5.7L73.4,55.6z M73.6,59.5
	c0.2-0.3,0.5-0.5,0.9-0.5c0.1,0,0.2,0,0.3,0c3.6,1.3,7.3,2.6,11.1,4c0.4,0.2,0.7,0.5,0.7,1c-0.2,2.5,0.2,5,1,7.4v0.3l-0.1,0.2
	l-0.1,0.3h-2.9c-1.2,0-2.3,0-3.5,0c-0.5,0-0.8-0.6-0.9-1c-0.4-1.9-0.4-3.8,0.1-5.7c0.2-0.5-0.1-1.1-0.6-1.3C79.4,64,79.3,64,79.1,64
	v0c-0.3,0-0.5,0.2-0.6,0.4c-0.2,0.2-0.3,0.5-0.3,0.8c-0.5,2-0.5,4-0.2,5.9c0,0.1,0,0.3,0,0.4v0.6h-0.5h-1h-1c-0.5,0-0.9,0-1.4-0.1
	c-0.6-0.2-1.2-0.5-1.6-1l-0.1-0.1c-0.4-0.4-0.8-0.9-1.1-1.4l-0.1-0.1C71,69.2,71,68.9,71,68.5C71.1,65.3,72,62.2,73.6,59.5z
	 M61.9,78.5l0.4-0.3l0.5-0.4l0.5-0.3c0.4-0.3,0.9-0.6,1.4-0.8c2.1-0.9,3.7-2.8,4.3-5.1c0-0.1,0.1-0.1,0.1-0.3l0.4-0.9l0.7,0.9
	c0.1,0.1,0.2,0.3,0.3,0.4c1,1.6,2.8,2.5,4.7,2.5c2.1,0,4.2,0,6.3,0c2.3,0,4.7,0,7,0c1,0,1.9,0.2,2.8,0.5c1.7,0.7,3.4,1.5,5,2.3
	l1.6,0.8c0.2,0.1,0.3,0.2,0.5,0.3c0.1,0.1,0.2,0.1,0.3,0.2l1.2,0.8H60.8L61.9,78.5z M107,83c-0.3,0.4-0.5,0.8-0.8,1.2
	c-2.1,3.3-4.8,6.2-8,8.5c-0.4,0.3-0.9,0.4-1.4,0.4c-1.9,0-3.9,0-5.8,0H70.5c-0.3,0-0.5,0-0.6,0.1h-3.1h-4.6c-0.8,0-1.6-0.2-2.2-0.7
	c-3.5-2.7-6.4-6.1-8.6-9.9c0-0.1-0.1-0.2-0.1-0.3L51,81.7h56.8L107,83z"/>
</svg>
