<?xml version="1.0" encoding="utf-8"?>
<!-- Generator: Adobe Illustrator 25.2.0, SVG Export Plug-In . SVG Version: 6.00 Build 0)  -->
<svg version="1.1" id="Layer_1" xmlns="http://www.w3.org/2000/svg" xmlns:xlink="http://www.w3.org/1999/xlink" x="0px" y="0px"
	 viewBox="0 0 162.4 162.4" style="enable-background:new 0 0 162.4 162.4;" xml:space="preserve">
<g>
	<path d="M61.4,113.2c0.4,0.2,0.6,0.6,0.7,1.1c0,0.2-0.1,0.4-0.3,0.6c-0.2,0.2-0.4,0.3-0.7,0.3c-0.4-0.1-0.8-0.3-1.1-0.4
		c-0.4-0.2-0.8-0.4-1.1-0.5c-0.3-0.1-0.6-0.2-0.9-0.2c-0.7,0-1.3,0.2-1.8,0.6c-0.5,0.5-0.8,1.1-0.8,1.7c0.1,0.9,0.7,1.7,1.9,2.2
		c0.2,0.1,0.7,0.3,1.3,0.5c0.4,0.1,1,0.4,1.6,0.6c0.5,0.2,0.9,0.4,1.3,0.7c0.4,0.3,0.7,0.6,1,1c0.4,0.7,0.6,1.5,0.6,2.3
		c0,0.8-0.2,1.7-0.6,2.4c-0.4,0.8-1.1,1.5-1.9,1.9c-0.9,0.5-1.9,0.7-3,0.7c-0.8,0-1.6-0.1-2.4-0.3c-0.6-0.2-1.2-0.4-1.7-0.8
		c-0.5-0.3-0.6-1-0.3-1.5c0,0,0-0.1,0.1-0.1c0.2-0.2,0.4-0.3,0.6-0.3c0.2,0,0.4,0.1,0.6,0.2c0.5,0.3,1,0.6,1.6,0.8
		c0.6,0.2,1.2,0.3,1.8,0.3c0.5,0,1.1-0.2,1.5-0.5c0.4-0.3,0.8-0.7,1.1-1.2c0.3-0.5,0.4-1,0.4-1.5c0-0.5-0.2-1-0.5-1.4
		c-0.3-0.4-0.7-0.7-1.2-1c-0.6-0.3-1.2-0.5-1.9-0.8c-0.4-0.1-0.8-0.3-1.4-0.5c-0.5-0.2-1-0.5-1.5-0.9c-0.4-0.3-0.7-0.7-0.9-1.1
		c-0.2-0.5-0.4-1.1-0.4-1.7c0-0.8,0.2-1.6,0.7-2.2c0.5-0.7,1.1-1.2,1.8-1.5c0.7-0.4,1.5-0.6,2.3-0.6
		C59.3,112.3,60.4,112.6,61.4,113.2z"/>
	<path d="M72.7,118.1v-0.6c0-0.3,0.1-0.5,0.3-0.7c0.4-0.4,0.9-0.4,1.3,0c0.2,0.2,0.3,0.5,0.3,0.7V128c0,0.3-0.1,0.6-0.3,0.8
		c-0.2,0.2-0.4,0.3-0.7,0.2c-0.2,0-0.5-0.1-0.7-0.2c-0.2-0.2-0.3-0.4-0.3-0.7v-0.9l0,0c-0.7,1.1-1.9,1.8-3.2,1.8
		c-1,0-1.9-0.2-2.8-0.7c-0.9-0.5-1.5-1.3-2-2.2c-1-2.1-1-4.6,0-6.7c0.5-0.9,1.2-1.6,2-2.1c0.7-0.4,1.6-0.7,2.4-0.7
		c0.6,0,1.3,0.1,1.9,0.4c0.6,0.3,1.1,0.8,1.5,1.3L72.7,118.1z M66,122.7c0,0.7,0.1,1.5,0.4,2.2c0.2,0.6,0.6,1.2,1.1,1.6
		c0.5,0.4,1.1,0.7,1.8,0.7c1,0.1,2-0.4,2.6-1.3c0.5-1,0.8-2.1,0.8-3.2c0-0.8-0.1-1.6-0.4-2.4c-0.2-0.6-0.6-1.2-1.2-1.5
		c-0.5-0.4-1.1-0.6-1.7-0.5l0,0c-1,0-1.9,0.5-2.4,1.3C66.3,120.5,66,121.6,66,122.7L66,122.7z"/>
	<path d="M77.3,112.3c0-0.3,0.1-0.6,0.3-0.8c0.2-0.2,0.4-0.3,0.7-0.3c0.3,0,0.5,0.1,0.7,0.3c0.2,0.2,0.3,0.5,0.3,0.7v15.6
		c0,0.3-0.1,0.6-0.3,0.8c-0.2,0.2-0.4,0.3-0.7,0.3c-0.3,0-0.5-0.1-0.7-0.3c-0.2-0.2-0.3-0.5-0.3-0.8V112.3z"/>
	<path d="M90,118.1v-0.6c0-0.3,0.1-0.5,0.3-0.7c0.4-0.4,0.9-0.4,1.3,0c0.2,0.2,0.3,0.5,0.3,0.7V128c0,0.3-0.1,0.6-0.3,0.8
		c-0.2,0.2-0.4,0.3-0.7,0.2c-0.2,0-0.5-0.1-0.7-0.2c-0.2-0.2-0.3-0.4-0.3-0.7v-0.9l0,0c-0.7,1.1-1.9,1.8-3.2,1.8
		c-1,0-1.9-0.2-2.8-0.7c-0.9-0.5-1.5-1.3-2-2.2c-1-2.1-0.9-4.6,0.1-6.7c0.5-0.9,1.2-1.6,2-2.1c0.7-0.4,1.6-0.7,2.4-0.7
		c0.6,0,1.3,0.1,1.9,0.4c0.6,0.3,1.1,0.8,1.5,1.3L90,118.1z M83.4,122.7c0,0.7,0.1,1.5,0.4,2.2c0.2,0.6,0.6,1.2,1.1,1.6
		c0.5,0.4,1.1,0.7,1.8,0.7c1,0.1,2-0.4,2.6-1.3c0.5-1,0.8-2,0.8-3.1c0-0.8-0.1-1.6-0.4-2.4c-0.2-0.6-0.6-1.2-1.2-1.5
		c-0.5-0.4-1.1-0.6-1.7-0.5l0,0c-1,0-1.9,0.5-2.4,1.3C83.7,120.5,83.3,121.6,83.4,122.7L83.4,122.7z"/>
	<path d="M102.5,118.1v-6c0-0.3,0.1-0.6,0.3-0.7c0.2-0.2,0.4-0.3,0.7-0.3c0.3,0,0.5,0.1,0.7,0.3c0.2,0.2,0.3,0.5,0.3,0.8v15.7
		c0,0.3-0.1,0.6-0.3,0.8c-0.2,0.2-0.5,0.3-0.7,0.3c-0.2,0-0.5-0.1-0.7-0.3c-0.2-0.2-0.3-0.4-0.3-0.7v-0.7l0,0
		c-0.2,0.5-0.6,0.9-1,1.1c-0.6,0.3-1.3,0.5-2,0.5c-2,0.1-3.9-1.1-4.7-3c-0.4-1-0.7-2.1-0.7-3.2c0-0.8,0.1-1.6,0.4-2.4
		c0.2-0.7,0.6-1.4,1.1-2c0.5-0.5,1-1,1.6-1.3c0.6-0.3,1.4-0.5,2.1-0.5c1.3,0,2.5,0.6,3.3,1.6V118.1z M96,122.7
		c0,1.1,0.2,2.2,0.8,3.1c0.5,0.8,1.4,1.4,2.4,1.4c0.7,0,1.5-0.2,2-0.7c0.5-0.4,0.9-1,1.1-1.7c0.2-0.7,0.4-1.4,0.4-2.1
		c0-0.8-0.1-1.6-0.4-2.3c-0.2-0.6-0.6-1.2-1.2-1.6c-1.1-0.8-2.5-0.8-3.6,0.1c-0.5,0.5-0.9,1-1.1,1.7C96.2,121.2,96,121.9,96,122.7
		L96,122.7z"/>
</g>
<g>
	<path d="M49.9,51c-1.1-1.7-2.1-3.3-3.1-4.9c-0.8-1.4-1.6-2.8-2.4-4.3c-2-4,0.2-6.8,3.3-8.1c3.6-1.6,7.6-1.5,11.1,0.1
		c1.8,0.8,3.3,2.1,4.5,3.8c0.1,0,0.1,0,0.2,0c2.5-2.5,5.5-2.8,8.7-1.7c4.8,1.7,7.8,5,8.7,10.1c0,0,0,0.1,0,0.1
		c1,0.1,1.9,0.3,2.8,0.5c2.5,0.7,4.6,2.4,5.8,4.7c0.2,0.3,0.5,0.6,0.9,0.7c1.1,0.3,2.1,0.6,3.2,0.7c1,0.1,1.3-0.2,1.1-1.2
		c-0.3-1.3-0.6-2.6-0.9-4c-1.1-5,1.7-8.1,5.3-9.8c1.4-0.7,3.1-0.9,4.6-0.6c2.1,0.3,3.8,1.8,4.5,3.7c1.2,3,1.2,6.2,0,9.2
		c-0.5,0.9-1,1.8-1.6,2.7c0.8,0.1,1.6,0.2,2.5,0.4c3,0.7,5.5,2.9,6.7,5.8c0.1,0.3,0.2,0.6,0.1,1c-0.5,13.7-6.8,24-18.8,30.7
		c-5.1,2.7-10.8,4.1-16.6,4c-4.1,0.1-8.1-0.4-12.1-1.5C53.4,88.4,43.1,74,43.7,58c-0.1-2.4,1.3-4.6,3.5-5.6
		C48,51.9,48.9,51.4,49.9,51z M46.1,60.7c0.2,1.3,0.2,2.6,0.5,3.8c1.5,9.8,7.4,18.4,16,23.2c4.3,2.5,9.1,4,14,4.2
		c3.7,0.3,7.4,0.1,11-0.5c14.8-3,25.6-15.7,26.2-30.7H46.1z M50.9,38.9c0.5-0.5,1.2-0.5,1.7-0.1c2.3,2.1,4.2,4.6,5.8,7.2
		c1.9,3.1,3.2,6.4,4.1,9.8c0.2-0.5,0.3-0.7,0.4-0.9c1.2-2.9,1.5-6.1,1-9.2c-0.3-1.5-0.7-3.1-1.3-4.5c-2.3-5.4-7.2-6.9-12.1-5.9
		c-1.5,0.2-2.9,1-3.9,2.2c-0.5,0.5-0.6,1.3-0.4,2c0.2,0.7,0.5,1.5,0.8,2.2c3.2,5.8,6.9,11.2,11.2,16.2c0.2,0.2,0.4,0.3,0.6,0.4
		c0.6,0.1,1.1,0,1.8,0c-1.2-6.8-4.6-13-9.6-17.7C50.5,40.1,50.5,39.3,50.9,38.9L50.9,38.9z M112.8,58.2c-0.9-1.4-2.3-2.3-3.9-2.7
		c-0.8-0.2-1.7-0.2-2.5-0.3c-2.1-0.2-2.9-1.9-1.7-3.7c0.1-0.2,0.3-0.4,0.4-0.5c2.3-2.7,2.2-5.8,1.3-8.9c-0.3-1.3-1.4-2.3-2.7-2.5
		c-2.3-0.5-4.2,0.5-5.8,2c-1.4,1.2-2,3.1-1.5,4.9c0.3,1.5,0.7,3,1,4.6c0.5,2.7-1.3,4.5-4,4.1c-0.8-0.1-1.7-0.3-2.5-0.5l-0.2,3.6h7.6
		c0.8-4.3,1.8-8.4,3.1-12.5c0.2-0.6,0.9-0.9,1.5-0.7l0,0c0.6,0.2,0.9,0.8,0.8,1.4l-3.1,11.9L112.8,58.2z M72.5,45.1
		c-0.8,4.9-3,9.4-6.3,13.1h5.5c0,0,0,0,0,0c-1.2-4.9,1.6-10,6.4-11.5c0.6-0.2,0.4-0.5,0.3-0.9c-0.9-3.8-3.9-6.8-7.8-7.8
		c-1.9-0.7-4.1-0.2-5.5,1.3c-0.4,0.3-0.5,0.8-0.2,1.3c1.4,3.2,1.9,6.8,1.4,10.3c-0.2,1.4-0.5,2.8-0.8,4.2c2.3-3,3.8-6.5,4.4-10.3
		c0.1-0.6,0.7-1.1,1.4-1l0,0C72.2,43.8,72.6,44.4,72.5,45.1z M73.8,55.1c0.1,0.9,0.2,1.6,0.3,2.3c0.1,0.6,0.3,0.8,1,0.8
		c3.9,0,7.7,0,11.6,0c1.5,0,1.6,0,1.7-1.6c0-0.1,0-0.2,0-0.3l-0.7,0.2c-0.6,0.2-1.3-0.2-1.5-0.8l0,0c-0.2-0.6,0.1-1.3,0.7-1.5
		l1.4-0.5c-0.8-2.8-3.2-4.9-5.7-5.1v0.9c0,0.7-0.5,1.2-1.2,1.2h0c-0.7,0-1.2-0.5-1.2-1.2v-1c-2.3,0.4-4.3,1.9-5.3,4l1,0.3
		c0.6,0.2,1,0.9,0.8,1.5l0,0c-0.2,0.6-0.9,1-1.5,0.8L73.8,55.1z M46.2,58.2h9c-1.3-1.7-2.4-3.2-3.6-4.8c-0.2-0.1-0.4-0.2-0.6-0.1
		c-1.1,0.5-2.2,1-3.3,1.6C46.5,55.5,45.9,56.9,46.2,58.2L46.2,58.2z"/>
	<path d="M86.4,40.1c-1,0-1.9,0-2.9,0c-0.6,0.1-1.1-0.3-1.2-0.9c0,0,0-0.1,0-0.1c-0.2-2,0-3.9,0.4-5.8c1.4-4.5,5.6-7.6,10.3-7.6h4.8
		c1,0,1.4,0.4,1.4,1.4c0.1,1.9,0,3.7-0.5,5.5c-1.5,4.5-5.6,7.6-10.4,7.6L86.4,40.1z M96.8,28c-1.4,0-2.7-0.1-4,0
		c-4.3,0.2-7.8,3.8-7.9,8.1l5.5-4.7c0.5-0.4,1.3-0.4,1.7,0.1v0c0.4,0.5,0.4,1.3-0.1,1.7l-4.9,4.3c4.7,0.7,9.1-2.5,9.8-7.2
		C96.9,29.5,96.9,28.7,96.8,28z"/>
	<path d="M59.3,21.9c2,0,3.6,1.6,3.6,3.6s-1.6,3.6-3.6,3.6c-2,0-3.6-1.6-3.6-3.6S57.3,21.9,59.3,21.9z M60.6,25.6
		c0-0.7-0.6-1.2-1.3-1.1c-0.6,0-1.1,0.5-1.1,1.1c-0.1,0.7,0.4,1.3,1.1,1.3c0.7,0.1,1.3-0.4,1.3-1.1C60.6,25.7,60.6,25.6,60.6,25.6z"
		/>
	<path d="M75.1,32.8c-2,0-3.6-1.6-3.6-3.6s1.6-3.6,3.6-3.6c2,0,3.6,1.6,3.6,3.6S77.1,32.8,75.1,32.8z M76.3,29.2
		c0-0.7-0.5-1.2-1.2-1.2c-0.7,0-1.2,0.5-1.2,1.2c0,0.7,0.5,1.2,1.2,1.2C75.8,30.4,76.3,29.9,76.3,29.2z"/>
	<path d="M66.6,84.8c-0.3,0.6-1,0.9-1.7,0.6c-1.7-0.9-3.4-2-4.9-3.2c-1.5-1.2-3-2.5-4.3-4c-0.7-0.7-1.3-1.5-1.9-2.3
		c-0.2-0.3-0.5-0.7-0.7-1c-0.4-0.5-0.5-1.1-0.3-1.8c0.2-0.5,0.8-0.6,1.3-0.6c0.4,0.1,0.6,0.3,0.8,0.6c0.2,0.3,0.4,0.6,0.6,0.9
		c0.2,0.3,0.5,0.6,0.7,0.9c0.2,0.3,0.5,0.6,0.7,0.9c0.3,0.3,0.5,0.6,0.8,0.9c0.3,0.3,0.5,0.6,0.8,0.9c0.3,0.3,0.6,0.6,0.8,0.8
		c0.3,0.3,0.6,0.5,0.9,0.8c0.3,0.3,0.6,0.5,0.9,0.8c0.3,0.2,0.6,0.5,0.9,0.7c0.3,0.2,0.6,0.5,1,0.7c0.3,0.2,0.7,0.4,1,0.6
		c0.3,0.2,0.7,0.4,1,0.6c0.3,0.2,0.6,0.3,0.9,0.5C66.7,83.5,66.9,84.2,66.6,84.8z"/>
	<path d="M69.1,86L69.1,86c0-0.6,0.5-1.2,1.2-1.2l0,0c0.6,0,1.2,0.5,1.2,1.2v0c0,0.6-0.5,1.2-1.2,1.2l0,0
		C69.6,87.1,69.1,86.6,69.1,86z"/>
	<path d="M80,54.6L80,54.6c0-0.6,0.5-1.2,1.2-1.2h0c0.6,0,1.2,0.5,1.2,1.2l0,0c0,0.6-0.5,1.2-1.2,1.2h0C80.5,55.7,80,55.2,80,54.6z"
		/>
</g>
</svg>
