<?xml version="1.0" encoding="utf-8"?>
<!-- Generator: Adobe Illustrator 25.2.0, SVG Export Plug-In . SVG Version: 6.00 Build 0)  -->
<svg version="1.1" id="Layer_1" xmlns="http://www.w3.org/2000/svg" xmlns:xlink="http://www.w3.org/1999/xlink" x="0px" y="0px"
	 viewBox="0 0 162.4 162.4" style="enable-background:new 0 0 162.4 162.4;" xml:space="preserve">
<g>
	<path d="M61.4,113.3c0.4,0.2,0.7,0.6,0.7,1.1c0,0.2-0.1,0.4-0.3,0.6c-0.2,0.2-0.4,0.3-0.7,0.3c-0.4-0.1-0.8-0.3-1.1-0.4
		c-0.4-0.2-0.7-0.3-1.1-0.5c-0.3-0.1-0.6-0.2-0.9-0.2c-0.7,0-1.3,0.2-1.8,0.6c-0.5,0.5-0.8,1.1-0.8,1.7c0,0.9,0.6,1.7,1.9,2.2
		c0.2,0.1,0.7,0.3,1.3,0.5l1.6,0.6c0.5,0.2,0.9,0.4,1.3,0.7c0.4,0.3,0.7,0.6,1,1c0.4,0.7,0.6,1.5,0.6,2.3c0,0.9-0.2,1.7-0.6,2.4
		c-0.4,0.8-1.1,1.5-1.9,1.9c-0.9,0.5-1.9,0.7-3,0.7c-0.8,0-1.6-0.1-2.4-0.3c-0.6-0.2-1.2-0.4-1.7-0.8c-0.3-0.2-0.5-0.5-0.5-0.9
		c0-0.3,0.1-0.5,0.2-0.7c0.2-0.2,0.4-0.3,0.7-0.3c0.2,0,0.4,0.1,0.6,0.2c0.5,0.3,1,0.6,1.6,0.8c0.6,0.2,1.2,0.3,1.8,0.3
		c0.5,0,1.1-0.2,1.5-0.5c0.5-0.3,0.8-0.7,1.1-1.2c0.3-0.5,0.4-1,0.4-1.5c0-0.5-0.2-1-0.5-1.4c-0.3-0.4-0.7-0.7-1.2-1
		c-0.6-0.3-1.2-0.6-1.9-0.8c-0.4-0.1-0.8-0.3-1.4-0.5c-0.5-0.2-1-0.5-1.5-0.9c-0.4-0.3-0.7-0.7-0.9-1.1c-0.2-0.5-0.4-1.1-0.4-1.7
		c0-0.8,0.2-1.6,0.7-2.2c0.5-0.7,1.1-1.2,1.8-1.5c0.7-0.4,1.5-0.6,2.3-0.6C59.2,112.4,60.4,112.7,61.4,113.3z"/>
	<path d="M72.7,118.2v-0.7c0-0.3,0.1-0.5,0.3-0.7c0.2-0.2,0.4-0.3,0.7-0.3c0.2,0,0.5,0.1,0.7,0.3c0.2,0.2,0.3,0.5,0.3,0.8v10.4
		c0,0.3-0.1,0.6-0.3,0.8c-0.2,0.2-0.4,0.3-0.7,0.2c-0.2,0-0.5-0.1-0.7-0.2c-0.2-0.2-0.3-0.4-0.3-0.7v-0.9l0,0
		c-0.7,1.1-1.9,1.8-3.2,1.8c-1,0-1.9-0.2-2.8-0.7c-0.8-0.5-1.5-1.3-2-2.2c-0.5-1-0.7-2.1-0.7-3.2c-0.1-1.2,0.2-2.4,0.8-3.5
		c0.5-0.9,1.2-1.6,2-2.1c0.7-0.4,1.6-0.7,2.4-0.7c0.6,0,1.3,0.1,1.9,0.4C71.7,117.3,72.3,117.7,72.7,118.2L72.7,118.2z M66,122.7
		c0,0.7,0.1,1.5,0.4,2.2c0.2,0.6,0.6,1.2,1.1,1.6c0.5,0.4,1.1,0.7,1.8,0.6c1,0.1,2-0.4,2.6-1.3c0.5-1,0.8-2.1,0.8-3.2
		c0-0.8-0.1-1.6-0.4-2.4c-0.2-0.6-0.6-1.2-1.2-1.5c-0.5-0.4-1.1-0.5-1.7-0.5l0,0c-1,0-1.9,0.5-2.4,1.3C66.3,120.5,66,121.6,66,122.7
		L66,122.7z"/>
	<path d="M77.2,117.6c0-0.3,0.1-0.6,0.3-0.8c0.2-0.2,0.4-0.3,0.7-0.3c0.3,0,0.5,0.1,0.7,0.3c0.2,0.2,0.3,0.5,0.3,0.8v6.6
		c0,0.8,0.2,1.6,0.7,2.2c0.5,0.6,1.3,0.9,2.1,0.8c1.9,0,2.8-1,2.8-3v-6.6c0-0.3,0.1-0.6,0.3-0.8c0.2-0.2,0.4-0.3,0.7-0.3
		c0.3,0,0.5,0.1,0.7,0.3c0.2,0.2,0.3,0.5,0.3,0.8v6.7c0,0.8-0.2,1.6-0.5,2.3c-0.4,0.7-0.9,1.3-1.6,1.7c-0.8,0.5-1.8,0.7-2.8,0.7
		c-0.9,0-1.8-0.2-2.6-0.6c-0.7-0.4-1.2-1-1.6-1.7c-0.3-0.7-0.5-1.5-0.5-2.4L77.2,117.6z"/>
	<path d="M97.5,117.7c0.1,0.1,0.1,0.3,0.1,0.4c0,0.2-0.1,0.4-0.2,0.6c-0.2,0.2-0.4,0.3-0.6,0.3h-0.1l-0.2-0.1l-0.4-0.1
		c-0.3-0.1-0.6-0.2-0.9-0.3c-0.9-0.2-1.9,0-2.6,0.5c-0.5,0.4-0.9,1-1.2,1.6c-0.3,0.7-0.4,1.4-0.5,2.1c0,1.1,0.2,2.1,0.7,3
		c0.2,0.3,0.4,0.6,0.6,0.8c0.2,0.2,0.5,0.4,0.8,0.5c0.3,0.1,0.7,0.2,1,0.2c0.1,0,0.2,0,0.3,0l0.5-0.1c0.2,0,0.3-0.1,0.5-0.1l0.2-0.1
		l0.3-0.1l0.4-0.2c0.2-0.1,0.3-0.1,0.5-0.1c0.2,0,0.4,0.1,0.5,0.2c0.1,0.2,0.2,0.4,0.2,0.6c0,0.6-0.4,1.1-1,1.2
		c-0.7,0.2-1.4,0.3-2.1,0.3c-1,0-2-0.3-2.9-0.8c-0.8-0.5-1.5-1.3-1.9-2.2c-0.4-0.9-0.7-1.9-0.7-3c0-0.8,0.1-1.6,0.3-2.4
		c0.2-0.7,0.5-1.4,1-2.1c0.4-0.6,1-1.1,1.7-1.4c0.8-0.4,1.6-0.6,2.4-0.6c0.7,0,1.4,0.1,2.1,0.4C96.8,117,97.2,117.3,97.5,117.7z"/>
	<path d="M98.7,122.6c0-1,0.3-2,0.7-3c0.4-0.9,1-1.7,1.8-2.2c0.8-0.6,1.8-0.9,2.8-0.9c1,0,2,0.3,2.8,0.8c0.8,0.6,1.5,1.4,1.9,2.3
		c0.4,0.9,0.7,1.9,0.7,2.9c0,0.6-0.4,1-1.1,1h-7.6c0,0.7,0.2,1.4,0.5,2c0.3,0.6,0.7,1,1.3,1.3c0.6,0.3,1.2,0.4,1.8,0.4
		c1.2,0,2.4-0.5,3.3-1.3c0.2-0.2,0.5-0.3,0.8-0.4c0.2,0,0.4,0.1,0.5,0.3c0.1,0.2,0.2,0.4,0.2,0.6c0,0.3-0.1,0.5-0.3,0.7
		c-0.5,0.6-1.2,1-1.9,1.3c-0.8,0.3-1.7,0.5-2.6,0.5c-0.9,0-1.8-0.2-2.6-0.6c-0.7-0.3-1.3-0.8-1.8-1.5c-0.4-0.6-0.8-1.3-1-2
		c-0.2-0.7-0.3-1.4-0.3-2.2L98.7,122.6L98.7,122.6z M100.7,122h6.7c0-1-0.3-1.9-0.9-2.7c-0.6-0.7-1.5-1.1-2.4-1
		c-0.9,0-1.8,0.3-2.4,1C101.1,120,100.7,121,100.7,122L100.7,122z"/>
</g>
<g>
	<path d="M81.3,94.4c-15.7,0-30-8.2-37.3-21.5c-3-5.4-4.6-11.5-4.8-17.7c-0.1-0.6,0-1.3,0.4-1.8c0.5-0.4,1.1-0.5,1.7-0.4H49
		c0.3,0,0.5,0,0.8-0.1h0.3l0.7-0.1l-0.1-0.7c-1.1-9.1,5.1-12.4,10.5-13.5c1.7-0.3,3.2-1.3,4.2-2.7c1.7-2.8,4.7-4.5,8-4.4
		c0.8,0,1.5,0.1,2.3,0.2l0.5,0.1l0.4-0.9L77,30c2-4.6,6.3-7.9,11.3-8.5c0.2,0,0.3,0,0.5,0c0.5,0,0.9,0.2,1.2,0.5
		c0.3,0.5,0.3,1.2,0.1,1.7c-1.2,3.5-0.4,5.6,2.8,7.3c2,1.1,4.1,2.6,4.9,5.2c0.2,0.7,1.1,1,1.6,1.1c4.7,1,7.4,3.6,8.2,8.1
		c0.2,0.6,0.6,1.1,1.2,1.3c2.4,0.7,4.2,2.6,4.8,5c0.3,0.7,1,1.1,1.7,1.2c0.9,0,1.7,0,2.6,0h2.8c1.3,0,2.1,0.1,2.4,0.5
		c0.3,0.3,0.4,1,0.3,2.3c-0.8,13.8-7.2,24.6-19,32C97.4,92.2,89.4,94.5,81.3,94.4z M44.6,67.2c3.2,9.8,15.5,24.4,36.6,24.4
		c0.9,0,1.7,0,2.6-0.1c9.2-0.5,17.9-4.1,24.7-10.4c4.2-3.8,7.5-8.5,9.5-13.9l0.4-0.9H44.3L44.6,67.2z M42,56.6
		c0.1,0.5,0.1,0.9,0.2,1.4c0.2,1.1,0.3,2.1,0.4,3.1c0.2,2,1.4,2.3,2.7,2.3c15.3,0,30.5,0,45.8,0h26.2h0.4c0.2,0,0.4,0,0.6-0.1
		c0.5-0.2,1.2-0.6,1.3-1.2c0.3-1.3,0.5-2.7,0.7-4.1l0.4-2.2H41.9L42,56.6z M64,40.9c-0.1,0-0.3,0-0.4,0l-1,0.3
		c-1.6,0.3-3.1,0.8-4.6,1.4c-3.1,1.4-4.7,4-4.6,7.7c0.1,2.3,0.5,2.6,2.7,2.6h54.9l-0.4-0.9c-0.6-1.7-2.2-2.8-3.9-2.7h-0.4
		c-0.6,0-1.3,0.1-1.9,0.2c-0.6,0.1-1.4,0.1-2.1,0.2c-1.7,0.1-3.4,0.2-5,0.2c-12,0-22.4-2.8-31.7-8.4C65.1,41.1,64.5,41,64,40.9
		L64,40.9z M73.3,34.2c-2.6,0-4.8,1.5-6.1,4.2L66.9,39l0.5,0.3c9,5.2,18.8,7.7,30.1,7.7c2.1,0,4.4-0.1,6.6-0.3l0.7-0.1V46v-0.3
		c0-0.2,0-0.4-0.1-0.6c-0.7-3.1-3.5-5.1-7.2-5.2h-1.6c-2.8-0.1-5.7-0.2-8.5-0.5c-3.3-0.4-7.6-1.2-11-4.2c-0.5-0.4-1.2-0.7-1.9-0.8
		C74.2,34.3,73.7,34.2,73.3,34.2L73.3,34.2z M85.5,25.2c-3.1,0.9-6.2,4.8-6.5,8.1v0.4l0.4,0.2c4.6,2.7,9.7,3,14.6,3h1.6l-1.1-1.2
		c-0.6-0.6-1.3-1.2-2-1.6l-1-0.7l-0.9-0.7c-1-0.7-1.9-1.5-2.6-2.4c-0.5-0.9-0.9-2-1.1-3c-0.1-0.5-0.3-1-0.5-1.5L86.2,25L85.5,25.2z"
		/>
	<path d="M70.6,84.3c-0.1,0-0.2,0-0.3,0c-1.1-0.3-2.1-0.7-3.1-1.1c-4.2-1.8-8-4.5-12.2-8.9c-0.4-0.4-0.7-0.8-1-1.3
		c-0.3-0.7-0.1-1.5,0.6-1.9c0.2-0.1,0.3-0.1,0.5-0.1c0.6,0.1,1.1,0.4,1.5,0.8c1.9,2.3,4.1,4.3,6.6,6c1.2,0.8,2.5,1.6,3.9,2.2
		c0.6,0.3,1.1,0.5,1.7,0.6c0.7,0.2,1.5,0.5,2.1,0.9c0.4,0.3,0.7,0.7,0.9,1.2v0.1c0.1,0.4,0,0.8-0.3,1.1C71.3,84.2,71,84.3,70.6,84.3
		z"/>
</g>
</svg>
