<?xml version="1.0" encoding="utf-8"?>
<!-- Generator: Adobe Illustrator 25.2.0, SVG Export Plug-In . SVG Version: 6.00 Build 0)  -->
<svg version="1.1" id="Layer_1" xmlns="http://www.w3.org/2000/svg" xmlns:xlink="http://www.w3.org/1999/xlink" x="0px" y="0px"
	 viewBox="0 0 162.4 162.4" style="enable-background:new 0 0 162.4 162.4;" xml:space="preserve">
<g>
	<path d="M47.6,113.3c0.4,0.2,0.6,0.6,0.7,1.1c0,0.2-0.1,0.4-0.3,0.6c-0.2,0.2-0.4,0.3-0.7,0.3c-0.4-0.1-0.8-0.3-1.1-0.4
		c-0.4-0.2-0.8-0.4-1.1-0.5c-0.3-0.1-0.6-0.2-0.9-0.2c-0.7,0-1.3,0.2-1.8,0.6c-0.5,0.5-0.8,1.1-0.8,1.7c0,0.9,0.6,1.7,1.9,2.2
		c0.2,0.1,0.7,0.3,1.3,0.5c0.4,0.2,1,0.4,1.6,0.6c0.5,0.2,0.9,0.4,1.3,0.7c0.4,0.3,0.7,0.6,1,1c0.4,0.7,0.6,1.5,0.6,2.3
		c0,0.9-0.2,1.7-0.6,2.4c-0.4,0.8-1.1,1.5-1.9,1.9c-0.9,0.5-1.9,0.7-3,0.7c-0.8,0-1.6-0.1-2.4-0.3c-0.6-0.2-1.2-0.4-1.7-0.8
		c-0.3-0.2-0.5-0.5-0.5-0.9c0-0.3,0.1-0.5,0.2-0.7c0.2-0.2,0.4-0.3,0.6-0.3c0.2,0,0.4,0.1,0.6,0.2c0.5,0.3,1,0.6,1.6,0.8
		c0.6,0.2,1.2,0.3,1.7,0.3c0.5,0,1.1-0.2,1.5-0.5c0.5-0.3,0.8-0.7,1.1-1.2c0.3-0.5,0.4-1,0.4-1.5c0-0.5-0.2-1-0.5-1.4
		c-0.3-0.4-0.7-0.7-1.2-0.9c-0.6-0.3-1.2-0.6-1.9-0.8c-0.4-0.1-0.8-0.3-1.4-0.5c-0.5-0.2-1-0.5-1.5-0.9c-0.4-0.3-0.7-0.7-0.9-1.1
		c-0.2-0.5-0.4-1.1-0.4-1.7c0-0.8,0.2-1.6,0.7-2.2c0.5-0.7,1.1-1.2,1.8-1.5c0.7-0.4,1.5-0.6,2.3-0.6
		C45.5,112.4,46.6,112.6,47.6,113.3z"/>
	<path d="M51.8,115.1c-0.3,0-0.6-0.1-0.8-0.3c-0.2-0.2-0.3-0.5-0.3-0.8c0-0.3,0.1-0.6,0.3-0.8c0.2-0.2,0.5-0.3,0.8-0.3
		c0.6,0,1.1,0.5,1.1,1.1c0,0,0,0.1,0,0.1C52.9,114.6,52.4,115.1,51.8,115.1C51.8,115.1,51.8,115.1,51.8,115.1z M50.8,117.5
		c0-0.5,0.4-1,0.9-1c0,0,0.1,0,0.1,0c0.3,0,0.5,0.1,0.7,0.3c0.2,0.2,0.3,0.5,0.3,0.8v10.3c0,0.3-0.1,0.6-0.3,0.8
		c-0.2,0.2-0.4,0.3-0.7,0.3c-0.3,0-0.5-0.1-0.7-0.3c-0.2-0.2-0.3-0.5-0.3-0.8V117.5z"/>
	<path d="M63.3,118.2v-6c0-0.3,0.1-0.5,0.3-0.7c0.2-0.2,0.4-0.3,0.7-0.3c0.3,0,0.5,0.1,0.7,0.3c0.2,0.2,0.3,0.5,0.3,0.8v15.7
		c0,0.3-0.1,0.6-0.3,0.8c-0.4,0.4-1,0.4-1.4,0c-0.2-0.2-0.3-0.4-0.3-0.7v-0.7l0,0c-0.2,0.5-0.6,0.9-1.1,1.1c-0.6,0.3-1.3,0.5-2,0.5
		c-1,0-2-0.2-2.8-0.8c-0.8-0.5-1.5-1.3-1.9-2.2c-0.8-1.8-0.9-3.8-0.3-5.6c0.2-0.7,0.6-1.4,1.1-2c0.5-0.5,1-1,1.6-1.3
		c0.6-0.3,1.3-0.5,2.1-0.5C61.3,116.5,62.6,117.1,63.3,118.2L63.3,118.2z M56.8,122.7c0,1.1,0.2,2.2,0.8,3.1
		c0.5,0.9,1.4,1.4,2.4,1.4c0.7,0,1.5-0.2,2-0.7c0.5-0.4,0.9-1,1.1-1.7c0.2-0.7,0.4-1.4,0.4-2.1c0-0.8-0.1-1.6-0.4-2.4
		c-0.2-0.6-0.6-1.2-1.2-1.6c-0.5-0.4-1.1-0.6-1.7-0.6c-0.7,0-1.4,0.2-1.9,0.7c-0.5,0.4-0.9,1-1.1,1.7C57,121.3,56.9,122,56.8,122.7
		L56.8,122.7z"/>
	<path d="M67.3,122.6c0-1,0.3-2,0.7-3c0.4-0.9,1-1.7,1.8-2.3c0.8-0.6,1.8-0.9,2.8-0.9c1,0,2,0.3,2.8,0.8c0.8,0.6,1.5,1.4,1.9,2.3
		c0.4,0.9,0.7,1.9,0.7,2.9c0,0.7-0.4,1-1.1,1h-7.6c0,0.7,0.2,1.4,0.5,2c0.3,0.6,0.7,1,1.3,1.3c0.6,0.3,1.2,0.4,1.8,0.4
		c1.2,0,2.4-0.5,3.3-1.3c0.2-0.2,0.5-0.3,0.8-0.4c0.2,0,0.4,0.1,0.5,0.2c0.1,0.2,0.2,0.4,0.2,0.6c0,0.3-0.1,0.5-0.3,0.7
		c-0.5,0.6-1.2,1-1.9,1.3c-0.8,0.3-1.7,0.5-2.6,0.5c-0.9,0-1.8-0.2-2.6-0.6c-0.7-0.3-1.3-0.8-1.8-1.5c-0.4-0.6-0.8-1.3-1-2
		c-0.2-0.7-0.3-1.4-0.3-2.2L67.3,122.6L67.3,122.6z M69.3,122H76c0-1-0.3-1.9-0.9-2.7c-0.6-0.7-1.4-1.1-2.3-1.1
		c-0.9,0-1.8,0.3-2.4,1C69.7,120,69.3,121,69.3,122z"/>
	<path d="M93.3,118.2v-6c0-0.3,0.1-0.5,0.3-0.7c0.2-0.2,0.4-0.3,0.7-0.3c0.3,0,0.5,0.1,0.7,0.3c0.2,0.2,0.3,0.5,0.3,0.8v15.7
		c0,0.3-0.1,0.6-0.3,0.8c-0.2,0.2-0.5,0.3-0.7,0.3c-0.3,0-0.5-0.1-0.7-0.3c-0.2-0.2-0.3-0.4-0.3-0.7v-0.7l0,0
		c-0.2,0.5-0.6,0.9-1.1,1.1c-0.6,0.3-1.3,0.5-2,0.5c-1,0-2-0.2-2.8-0.8c-0.8-0.5-1.5-1.3-1.9-2.2c-0.8-1.8-0.9-3.8-0.3-5.6
		c0.2-0.7,0.6-1.4,1.1-2c0.5-0.5,1-1,1.6-1.3c0.6-0.3,1.3-0.5,2.1-0.5C91.3,116.5,92.6,117.1,93.3,118.2L93.3,118.2z M86.8,122.7
		c0,1.1,0.2,2.2,0.8,3.1c0.5,0.8,1.4,1.4,2.4,1.4c0.7,0,1.5-0.2,2-0.7c0.5-0.4,0.9-1,1.1-1.7c0.2-0.7,0.4-1.4,0.4-2.1
		c0-0.8-0.1-1.6-0.4-2.4c-0.2-0.6-0.6-1.2-1.2-1.6c-0.5-0.4-1.1-0.6-1.7-0.6c-0.7,0-1.4,0.2-1.9,0.7c-0.5,0.4-0.9,1-1.1,1.7
		C87,121.3,86.9,122,86.8,122.7L86.8,122.7z"/>
	<path d="M99.1,115.1c-0.3,0-0.6-0.1-0.8-0.3c-0.2-0.2-0.3-0.5-0.3-0.8c0-0.3,0.1-0.6,0.3-0.8c0.2-0.2,0.5-0.3,0.8-0.3
		c0.6,0,1.1,0.6,1.1,1.2c0,0.3-0.1,0.5-0.3,0.7C99.7,115,99.4,115.1,99.1,115.1z M98.1,117.5c0-0.3,0.1-0.6,0.3-0.8
		c0.2-0.2,0.4-0.3,0.7-0.3c0.3,0,0.5,0.1,0.7,0.3c0.2,0.2,0.3,0.5,0.3,0.8v10.3c0,0.3-0.1,0.6-0.3,0.8c-0.2,0.2-0.4,0.3-0.7,0.3
		c-0.3,0-0.5-0.1-0.7-0.3c-0.2-0.2-0.3-0.5-0.3-0.8V117.5z"/>
	<path d="M102.5,127.6c-0.3-0.2-0.5-0.6-0.5-1c0-0.2,0.1-0.5,0.2-0.6c0.2-0.2,0.4-0.3,0.6-0.2c0.2,0,0.4,0.1,0.6,0.2
		c0.1,0.1,0.4,0.2,0.7,0.5l0.6,0.4c0.5,0.3,1.1,0.4,1.7,0.5c0.6,0,1.2-0.1,1.7-0.4c0.5-0.2,0.8-0.8,0.8-1.3c0-0.6-0.4-1-0.9-1.3
		c-0.6-0.3-1.1-0.6-1.8-0.8c-0.8-0.3-1.4-0.6-1.9-0.8c-0.5-0.2-0.9-0.6-1.2-1c-0.4-0.5-0.6-1-0.5-1.6c0-0.6,0.2-1.2,0.5-1.7
		c0.4-0.5,0.8-0.9,1.4-1.2c0.7-0.3,1.4-0.5,2.1-0.5c0.7,0,1.5,0.1,2.2,0.4c0.6,0.2,1.1,0.5,1.5,0.8c0.3,0.2,0.5,0.6,0.5,0.9
		c0,0.2-0.1,0.4-0.2,0.6c-0.2,0.2-0.4,0.3-0.6,0.3c-0.4-0.1-0.8-0.3-1.1-0.5c-0.4-0.2-0.7-0.4-1.1-0.6c-0.3-0.1-0.6-0.2-0.9-0.2
		c-0.6,0-1.1,0.1-1.6,0.4c-0.4,0.2-0.6,0.6-0.6,1.1c0.1,0.4,0.3,0.7,0.5,1c0.3,0.3,0.6,0.5,1,0.6c0.4,0.2,0.8,0.3,1.3,0.5
		s0.9,0.3,1.1,0.4c0.7,0.3,1.4,0.7,1.9,1.3c0.4,0.5,0.6,1.2,0.6,1.8c0,0.6-0.2,1.2-0.5,1.7c-0.4,0.6-0.9,1-1.5,1.3
		c-0.8,0.4-1.6,0.5-2.5,0.5C105,129,103.6,128.5,102.5,127.6z"/>
	<path d="M112.8,112.2c0-0.3,0.1-0.6,0.3-0.8c0.2-0.2,0.4-0.3,0.7-0.3c0.3,0,0.5,0.1,0.7,0.3c0.2,0.2,0.3,0.5,0.3,0.8v5.8l0,0
		c0.4-0.5,0.8-0.9,1.4-1.2c0.6-0.3,1.2-0.4,1.9-0.4c0.8,0,1.5,0.2,2.2,0.6c0.7,0.4,1.2,1,1.5,1.7c0.4,0.7,0.6,1.4,0.6,2.2v6.9
		c0,0.3-0.1,0.6-0.3,0.8c-0.2,0.2-0.4,0.3-0.7,0.3c-0.3,0-0.5-0.1-0.7-0.3c-0.2-0.2-0.3-0.5-0.3-0.8v-6.6c0-0.8-0.2-1.5-0.8-2.1
		c-0.5-0.6-1.3-0.9-2-0.9c-0.5,0-1,0.1-1.4,0.3c-0.4,0.2-0.8,0.6-1.1,1c-0.3,0.5-0.4,1.1-0.4,1.6v6.7c0,0.3-0.1,0.6-0.3,0.8
		c-0.2,0.2-0.4,0.3-0.7,0.3c-0.3,0-0.5-0.1-0.7-0.3c-0.2-0.2-0.3-0.5-0.3-0.8L112.8,112.2z"/>
</g>
<path d="M113.7,46.4c0.6-1.7,0.8-3.6,0.5-5.5c-0.6-4.5-3.9-8.2-8.3-9.4c-0.4-0.1-0.7-0.2-1.1-0.3c0.8-1.7,1.2-3.6,1.1-5.5
	c-0.2-4.3-2.7-8.1-6.6-9.9c-1.5-0.8-3.2-1.1-5-1.2c-1,0-2,0.1-3,0.4c-3.1,0.8-5.8,2.9-7.3,5.8c-2.2-2.7-5.4-4.2-8.8-4.3
	c-1.2,0-2.4,0.2-3.6,0.5c-4.8,1.6-7.5,5-8.2,10.1c-1.2-0.4-2.5-0.7-3.9-0.7c-1.1,0-2.1,0.2-3.2,0.5c-4.9,1.4-8.3,5.9-8.4,11
	c0,2.6,0.8,5.1,2.4,7.2c-2.1,0.9-3.4,3-3.4,5.3v4.2c0,1.8,0.1,3.6,0.4,5.4c0.5,3.2,1.4,6.3,2.8,9.2c3.2,6.9,8.7,12.6,15.5,16.1
	c0,1.5,0,3.1,0,4.6v0.5c0,0,0,0,0,0.1c0,2.2,1.8,3.9,4,3.9l0,0h23c0.1,0,0.1,0,0.2,0c2.1-0.1,3.8-1.8,3.8-4v-5.1
	c5.8-2.9,10.6-7.5,13.9-13c3-5,4.7-10.7,4.8-16.6c0-1.8,0-3.7,0-5.4C115.3,48.9,114.7,47.4,113.7,46.4z M92.8,91.7h-23
	c-0.1,0-0.2,0-0.2,0c-0.7-0.1-1.2-0.7-1.1-1.4v-3.8c8.2,3.3,17.4,3.3,25.6,0c0,0,0,2.9,0,3.9c0,0,0,0,0,0
	C94,91.2,93.4,91.7,92.8,91.7z M112.6,56.2c-0.8,16.8-14.6,30-31.4,30.1H80c-18.3-0.7-29.9-16-30.3-30.1L112.6,56.2z M65.7,30.5
	c0.4-0.3,0.7-0.8,0.6-1.3c-0.3-2.7,0.6-5.4,2.6-7.3c1.6-1.7,3.8-2.6,6.1-2.6h0.3c3.3,0,6.3,1.9,7.8,4.8c-0.5,2.4-0.2,5,0.9,7.2
	c-6.2,1.2-10.4,7.1-9.4,13.3h-7.4l1.4-2.4c2-3.4,4-6.9,6-10.4c0.2-0.3,0.2-0.6,0.2-0.9c0-0.6-0.5-1.1-1-1.2c-0.1,0-0.2,0-0.3,0
	c-0.5,0-0.9,0.3-1.2,0.7c-0.2,0.3-0.3,0.6-0.5,0.9l-1.1,1.8c-2.2,3.9-4.5,7.7-6.7,11.6l0,0H53.6c-0.1,0-0.1,0-0.1,0
	c-2-1.8-3-4.5-2.8-7.1c0.3-4,3.2-7.3,7.2-8.1c0.6-0.1,1.2-0.2,1.7-0.2c1.6,0,3.1,0.4,4.5,1.2c0.2,0.1,0.5,0.2,0.8,0.2
	C65.2,30.8,65.5,30.7,65.7,30.5z M101.5,31.6c-0.5,0.6-0.4,1.4,0.2,1.9c0.3,0.2,0.7,0.4,1.1,0.3c1.9,0,3.7,0.6,5.2,1.7
	c2.5,1.8,3.9,4.8,3.7,7.8c0,0.4-0.1,0.9-0.2,1.3c0,0.1-0.1,0.2-0.1,0.3c-0.4-0.1-0.7-0.2-1-0.2c-0.3,0-0.5,0-0.8,0v0.4c0,0,0,0,0,0
	l0-0.4H95.7V29.8c0-0.2,0-0.4-0.1-0.6c-0.2-0.5-0.7-0.9-1.3-0.9h-0.2C93.5,28.4,93,29,93,29.6v15H77.3c-1.1-4.7,1.8-9.4,6.4-10.6
	c0.7-0.2,1.4-0.3,2.2-0.3h0.2c0.5,0,1-0.2,1.3-0.7c0.3-0.5,0.2-1.1-0.2-1.5c-1.3-1.8-1.9-3.9-1.7-6.1c0.4-3.9,3.2-7,7-7.9
	c0.6-0.1,1.2-0.2,1.8-0.2c4.3,0,7.9,3,8.7,7.2C103.5,27,103,29.6,101.5,31.6z M112.7,50.4c0,0.9,0,1.7,0,2.6v0.7H49.7v-3
	c0,0,0,0,0-0.1c0-1.7,1.4-3.1,3.2-3.1h56.6c1.4,0,2.6,0.9,3,2.2C112.6,49.8,112.6,50.1,112.7,50.4z"/>
</svg>
