<?xml version="1.0" encoding="utf-8"?>
<!-- Generator: Adobe Illustrator 25.2.0, SVG Export Plug-In . SVG Version: 6.00 Build 0)  -->
<svg version="1.1" id="Layer_1" xmlns="http://www.w3.org/2000/svg" xmlns:xlink="http://www.w3.org/1999/xlink" x="0px" y="0px"
	 viewBox="0 0 162.4 162.4" style="enable-background:new 0 0 162.4 162.4;" xml:space="preserve">
<g>
	<path d="M62.1,113.2c0.4,0.2,0.6,0.6,0.7,1.1c0,0.2-0.1,0.4-0.3,0.6c-0.2,0.2-0.4,0.3-0.7,0.3c-0.4-0.1-0.8-0.3-1.1-0.4
		c-0.5-0.2-0.8-0.4-1.1-0.5c-0.3-0.1-0.6-0.2-0.9-0.2c-0.7,0-1.3,0.2-1.8,0.6c-0.5,0.5-0.8,1.1-0.8,1.7c0,0.9,0.7,1.7,1.9,2.2
		c0.2,0.1,0.7,0.3,1.3,0.5l1.6,0.6c0.5,0.2,0.9,0.4,1.3,0.7c0.4,0.3,0.7,0.6,1,1c0.4,0.7,0.6,1.5,0.6,2.3c0,0.9-0.2,1.7-0.6,2.4
		c-0.4,0.8-1.1,1.5-1.9,1.9c-0.9,0.5-1.9,0.7-3,0.7c-0.8,0-1.6-0.1-2.4-0.3c-0.6-0.1-1.2-0.4-1.7-0.8c-0.3-0.2-0.5-0.5-0.5-0.9
		c0-0.3,0.1-0.5,0.2-0.7c0.2-0.2,0.4-0.3,0.6-0.3c0.2,0,0.4,0.1,0.6,0.2c0.5,0.3,1.1,0.6,1.6,0.8c0.6,0.2,1.2,0.3,1.7,0.3
		c0.5,0,1.1-0.2,1.5-0.5c0.5-0.3,0.8-0.7,1.1-1.2c0.3-0.5,0.4-1,0.4-1.5c0-0.5-0.2-1-0.5-1.4c-0.3-0.4-0.7-0.7-1.2-1
		c-0.6-0.3-1.2-0.5-1.9-0.8c-0.4-0.1-0.8-0.3-1.4-0.5c-0.5-0.2-1-0.5-1.4-0.9c-0.4-0.3-0.7-0.7-0.9-1.1c-0.2-0.5-0.4-1.1-0.4-1.7
		c0-0.8,0.2-1.6,0.7-2.2c0.5-0.7,1.1-1.2,1.9-1.5c0.7-0.4,1.5-0.6,2.3-0.6C60.1,112.3,61.2,112.6,62.1,113.2z"/>
	<path d="M65.3,117.5c0-0.3,0.1-0.6,0.3-0.8c0.2-0.2,0.4-0.3,0.7-0.3c0.3,0,0.5,0.1,0.7,0.3c0.2,0.2,0.3,0.5,0.3,0.8v0.5l0,0
		c0.4-0.5,0.9-0.9,1.5-1.2c0.6-0.3,1.2-0.4,1.8-0.4c0.7,0,1.4,0.2,2.1,0.5c0.7,0.4,1.2,0.9,1.6,1.6c0.4,0.8,0.6,1.7,0.6,2.6v6.8
		c0,0.3-0.1,0.6-0.3,0.7c-0.2,0.2-0.4,0.2-0.7,0.2c-0.3,0-0.5-0.1-0.7-0.3c-0.2-0.2-0.3-0.4-0.3-0.7v-6.7c0-0.8-0.3-1.6-0.8-2.1
		c-0.5-0.5-1.2-0.8-2-0.8c-0.5,0-1,0.1-1.4,0.4c-0.4,0.2-0.8,0.6-1,1c-0.3,0.5-0.4,1-0.4,1.6v6.7c0,0.3-0.1,0.6-0.3,0.8
		c-0.4,0.4-1,0.4-1.4,0c-0.2-0.2-0.3-0.5-0.3-0.8L65.3,117.5z"/>
	<path d="M85.6,118.1v-0.7c0-0.3,0.1-0.5,0.3-0.7c0.2-0.2,0.4-0.3,0.7-0.3c0.2,0,0.5,0.1,0.7,0.3c0.2,0.2,0.3,0.5,0.3,0.7v10.4
		c0,0.3-0.1,0.6-0.3,0.8c-0.2,0.2-0.4,0.3-0.7,0.2c-0.2,0-0.5-0.1-0.7-0.2c-0.2-0.2-0.3-0.4-0.3-0.7v-0.9l0,0
		c-0.7,1.1-1.9,1.8-3.2,1.8c-2,0-3.9-1.1-4.8-2.9c-0.5-1-0.7-2.1-0.7-3.2c0-1.2,0.2-2.4,0.8-3.5c0.5-0.9,1.2-1.6,2-2.1
		c0.7-0.4,1.6-0.7,2.4-0.7c0.6,0,1.3,0.1,1.9,0.4C84.7,117.2,85.2,117.7,85.6,118.1L85.6,118.1z M79,122.7c0,0.7,0.1,1.5,0.4,2.2
		c0.2,0.6,0.6,1.2,1.1,1.6c0.5,0.4,1.1,0.7,1.8,0.6c1,0.1,2-0.4,2.6-1.3c0.5-1,0.8-2.1,0.8-3.2c0-0.8-0.1-1.6-0.4-2.4
		c-0.2-0.6-0.6-1.2-1.2-1.5c-0.5-0.4-1.1-0.5-1.7-0.5l0,0c-1,0-1.9,0.5-2.4,1.3C79.3,120.5,79,121.6,79,122.7L79,122.7z"/>
	<path d="M98.3,117.6c0.1,0.1,0.1,0.3,0.1,0.4c0,0.2-0.1,0.4-0.2,0.6c-0.2,0.2-0.4,0.3-0.6,0.3h-0.1h-0.2l-0.4-0.1
		c-0.3-0.1-0.6-0.2-0.9-0.3c-0.2-0.1-0.5-0.1-0.8-0.1c-0.7,0-1.3,0.2-1.8,0.6c-0.5,0.4-0.9,1-1.2,1.6c-0.3,0.7-0.4,1.4-0.5,2.1
		c0,1.1,0.2,2.1,0.7,3c0.1,0.3,0.3,0.6,0.6,0.8c0.2,0.2,0.5,0.4,0.8,0.5c0.3,0.1,0.7,0.2,1,0.2c0.1,0,0.2,0,0.4,0l0.5-0.1
		c0.2,0,0.3-0.1,0.5-0.1l0.2-0.1l0.3-0.1l0.4-0.2c0.2-0.1,0.3-0.1,0.5-0.1c0.2,0,0.4,0.1,0.5,0.2c0.1,0.2,0.2,0.4,0.2,0.6
		c0,0.6-0.4,1.2-1,1.3c-0.7,0.2-1.4,0.3-2.1,0.3c-1,0-2-0.3-2.9-0.8c-0.8-0.5-1.5-1.3-1.9-2.2c-0.4-0.9-0.7-1.9-0.7-3
		c0-0.8,0.1-1.6,0.3-2.4c0.2-0.7,0.5-1.4,0.9-2.1c0.4-0.6,1-1.1,1.7-1.4c0.8-0.4,1.6-0.6,2.4-0.6c0.7,0,1.4,0.1,2.1,0.4
		C97.6,117,98,117.2,98.3,117.6z"/>
	<path d="M100.3,112.1c0-0.3,0.1-0.5,0.3-0.7c0.2-0.2,0.4-0.3,0.7-0.2c0.3,0,0.5,0.1,0.7,0.2c0.2,0.2,0.3,0.5,0.3,0.8v8.6l4.7-3.9
		c0.2-0.2,0.5-0.3,0.8-0.3c0.2,0,0.4,0.1,0.6,0.2c0.2,0.2,0.2,0.4,0.2,0.7c0,0.3-0.1,0.5-0.4,0.7l-4.7,3.7l5.4,5.3
		c0.3,0.3,0.4,0.6,0.4,1c0,0.2-0.1,0.4-0.2,0.6c-0.2,0.2-0.4,0.2-0.6,0.2c-0.4,0-0.8-0.2-1-0.5l-5.2-5.4v4.8c0,0.3-0.1,0.6-0.3,0.8
		c-0.2,0.2-0.4,0.3-0.7,0.3c-0.3,0-0.5-0.1-0.7-0.3c-0.2-0.2-0.3-0.5-0.3-0.8L100.3,112.1z"/>
</g>
<g>
	<path d="M50.3,94.4c-0.4,0-0.8-0.1-1.2-0.4c-0.3-0.4-0.4-1-0.2-1.5c0.4-3.2,1.3-6.3,2.8-9.2c0,0,0.1-0.1,0.1-0.1c0,0,0-0.1,0.1-0.1
		c1.5-1.6,1.2-3.4,0.7-5c-2-7.1-2.8-14.4-2.4-21.8c0.3-7.4,1.4-14.8,3.4-22c0.2-0.5,0.1-1.1-0.3-1.5l-0.5-0.7
		c-0.9-1.3-1.8-2.6-2.5-4c-0.7-1.4-0.9-2.9-0.7-4.4c0-0.8,0.5-1.4,1.3-1.5c0.1,0,0.1,0,0.2,0h0.3l3.1,0.4c2.4,0.3,4.9,0.6,7.4,0.7
		c5.4,0.3,11.8,0.7,18.3,0.8c1.1,0,2.1,0,3.2,0c7.2,0,14.4-0.4,21.5-1.2c2-0.2,4-0.5,6-0.7l1.3-0.2h0.3c0.4,0,0.8,0.1,1.1,0.4
		c0.3,0.4,0.4,0.9,0.3,1.3c-0.5,3.1-1.7,6.1-3.5,8.7c-0.2,0.4-0.3,0.9-0.2,1.3c0.1,0.8,0.3,1.6,0.4,2.3c0.2,1.1,0.4,2.3,0.6,3.4
		c0.7,4.8,1.1,9.6,1.1,14.4c0,8.4-0.8,16.7-2.4,25c-0.2,0.6,0,1.3,0.4,1.8c2.8,3.3,3.7,7.3,2.9,12.2c0,0.7-0.7,1.3-1.4,1.2
		c0,0,0,0,0,0h-0.3c-8.5-1.1-17-1.7-25.6-1.9c-1.5,0-3,0-4.6,0c-6,0-11.9,0.3-17.5,0.7c-2.8,0.2-5.6,0.5-8.4,0.8l-4.6,0.5L50.3,94.4
		z M56,84.1c0.6,0,1.2,0.4,1.3,1.1c0.2,0.7-0.3,1.3-0.9,1.5c0,0,0,0,0,0c-0.6,0.1-1.1,0.2-1.7,0.3l-1,0.1c-0.4,0.1-0.8,0.2-0.9,0.5
		c-0.3,0.8-0.5,1.6-0.7,2.5l-0.4,1.5l0.7-0.1c19.1-2.4,38.4-2.4,57.5-0.1l0.4,0.1l0.1-0.9c0.3-2.9-0.6-5.7-2.4-7.9
		c-0.8-1-1.6-1.9-2.4-2.9l-1-1.3c-0.4-0.4-0.5-0.9-0.2-1.4c0.2-0.5,0.6-0.8,1.1-0.8l0,0c0.3,0,0.5,0.1,0.8,0.2l0.5,0.1l0.5,0.1
		l0.1-0.5c2.5-14.2,2.5-27,0.2-38.9l-0.3-1.4l-0.6,1.3c-0.5,1-0.9,2.1-1.3,3.2c-0.1,0.7-0.7,1.1-1.3,1.2c-0.1,0-0.2,0-0.4,0
		c-0.7-0.2-1.1-1-0.9-1.7c0,0,0,0,0-0.1c0.5-2.1,1.4-4.1,2.7-5.8l0.5-0.7c1-1.4,2-2.8,2.9-4.2c0.4-0.7,0.7-1.4,1-2.2
		c0.1-0.4,0.3-0.7,0.4-1.1l0.3-0.8l-0.8,0.1c-9.8,1.2-19.6,1.8-29.4,1.8c-9.3,0-18.6-0.5-27.9-1.6L52,25.3l0.3,0.7
		c0.3,0.8,0.7,1.7,1.1,2.5l0.1,0.3c0.3,0.6,0.9,1,1.5,1c0.8,0.1,1.7,0.2,2.8,0.3c0.7,0,1.4,0.5,1.4,1.3c0,0.7-0.5,1.4-1.3,1.4
		c-0.1,0-0.2,0-0.3,0.1L56.8,33l0.3,0.6c0.1,0.2,0.1,0.3,0.2,0.4c0.1,0.2,0.2,0.5,0.3,0.7c0.1,0.4,0.3,0.9,0.4,1.3
		c0.5,1.4,0.9,2.7,1.3,4.1c0.1,0.4,0.1,0.8-0.2,1.2c-0.2,0.3-0.6,0.5-1,0.5H58c-1,0-1.3-1-1.3-1.5c0-0.5-0.1-0.9-0.2-1.4
		c0-0.2-0.1-0.4-0.1-0.6l-0.1-0.5l-1,0.1l-0.1,0.3c-3.3,14.8-3.4,27.1-0.3,38.8l0.1,0.4l0.4-0.1c0.2,0,0.4-0.1,0.6-0.1
		c0.5,0,0.9,0.2,1.2,0.6c0.4,0.6,0.2,1.2-0.3,1.9c-0.6,0.9-1.1,1.8-1.7,2.8L55,83.2l-0.6,0.9H56L56,84.1z"/>
	<path d="M70.6,76.5c-1.4,0-2.7-0.6-3.7-1.6c-2.4-2.2-3.9-5.1-4.3-8.3c-0.1-0.6-0.2-1.2-0.2-1.8c0-0.3,0-0.6-0.1-0.9
		c0.1-6.4,4.1-10.9,10.7-12c1.3-0.2,2.6-0.3,3.9-0.3h0.7c0.8,0.1,1.6-0.3,2-1c1.3-1.9,3.1-3.5,5-4.8c3.2-2.1,7.2-2.4,10.7-0.9
		c4.6,2,7.6,5.2,8.8,9.7c0.5,1.6,0.3,3.4-0.6,4.8c-0.8,1.3-2.2,2.3-3.8,2.6c-0.4,0.1-0.8,0.1-1.2,0.1c-0.7,0-1.3-0.1-2-0.4
		c-1.5-0.6-3.1-0.9-4.7-0.9c-3,0.1-6,1.1-8.4,3c-2,1.5-3.7,3.5-4.9,5.7L78.3,70c-0.6,1.1-1.3,2.1-2,3.1c-0.7,0.9-1.6,1.6-2.5,2.2
		C72.8,76.1,71.8,76.5,70.6,76.5z M76.6,54.3c-1.4,0-2.7,0.2-4.1,0.5c-3.9,1-6.2,3-7.1,6.2c-0.9,3-0.5,6.3,1.1,9
		c0.7,1.1,1.5,2.2,2.5,3.1c0.4,0.5,1.1,0.7,1.7,0.7c0.6,0,1.1-0.2,1.5-0.6c0.9-0.7,1.8-1.6,2.5-2.5c0.5-0.6,0.9-1.3,1.2-2
		c0.2-0.4,0.4-0.8,0.7-1.2c3.1-4.9,7-7.8,12.1-8.9l0.3-0.1l0.3-0.9l-0.4-0.2l-1.6-0.6c-1.2-0.5-2.5-1-3.7-1.4
		C81.3,54.8,78.9,54.3,76.6,54.3z M90.8,46.8c-3.1,0-6.1,1.7-8.6,4.9l-0.4,0.5l1.5,0.5l1.7,0.5c4.1,1.4,8,3.4,11.7,5.8
		c0.4,0.3,0.9,0.5,1.5,0.6c0.2,0,0.3,0,0.5,0c0.9,0,1.7-0.4,2.2-1c0.6-0.8,0.8-1.8,0.6-2.8c-0.6-2.6-2.1-4.9-4.3-6.5
		C95.4,47.7,93.1,46.8,90.8,46.8z"/>
	<path d="M80.3,34.8c-0.7,0-1.2-0.6-1.2-1.3c0,0,0,0,0,0c0-0.7,0.5-1.3,1.2-1.4c0,0,0.1,0,0.1,0H82h2.8V32h0.6l2.4-0.1h0.1
		c0.7-0.1,1.4,0.5,1.5,1.2c0,0.4-0.1,0.7-0.3,1c-0.2,0.3-0.6,0.4-1,0.4C85.8,34.7,83.2,34.8,80.3,34.8L80.3,34.8z"/>
	<path d="M72.5,34.4l-2.1-0.2c-1.7-0.2-3.5-0.4-5.3-0.5c-0.7,0-1.3-0.6-1.3-1.4c0,0,0-0.1,0-0.1c0.1-0.7,0.6-1.2,1.3-1.2h0.2
		c2.4,0.2,5,0.5,7.7,0.8c0.7,0.1,1.2,0.7,1.1,1.4c0,0,0,0,0,0c-0.1,0.7-0.8,1.3-1.5,1.2L72.5,34.4z"/>
	<path d="M93.1,85.9c-2.2-0.1-4.3-0.3-6.3-0.5c-0.4,0-0.7-0.2-0.9-0.4c-0.2-0.3-0.3-0.7-0.3-1c0.1-0.8,0.7-1.2,1.8-1.2h0.2l1.3,0.1
		l4.2,0.4c0.7,0,1.3,0.6,1.3,1.4c0,0,0,0.1,0,0.1C94.5,85.4,93.9,85.9,93.1,85.9L93.1,85.9z"/>
	<path d="M74.8,85.1c-0.7,0.1-1.4-0.5-1.5-1.2c0,0,0-0.1,0-0.1c0-0.4,0.1-0.7,0.4-1c0.3-0.3,0.6-0.4,1-0.4c1.1,0,2.3,0,3.4,0
		c0.9,0,1.9,0,2.8,0c0.7,0,1.3,0.5,1.3,1.2c0,0.1,0,0.1,0,0.2c0,0.7-0.6,1.3-1.3,1.3c0,0-0.1,0-0.1,0h-3.5l0,0L74.8,85.1L74.8,85.1z
		"/>
	<path d="M62.2,86c-0.7,0-1.2-0.6-1.2-1.2c-0.1-0.7,0.4-1.4,1.2-1.5c0,0,0.1,0,0.1,0c2-0.2,4-0.4,6-0.6h0.2c0.7,0,1.3,0.5,1.4,1.2
		c0,0.3-0.1,0.6-0.3,0.9c-0.2,0.3-0.5,0.5-0.9,0.5c-1.4,0.2-2.9,0.3-4.4,0.4L62.2,86L62.2,86z"/>
	<path d="M95.8,33.7c-0.7,0-1.4-0.5-1.4-1.2c-0.1-0.7,0.4-1.3,1-1.4c1.2-0.2,2.4-0.4,3.5-0.5H99c0.6,0,1.2,0.5,1.3,1.1
		c0.2,0.7-0.3,1.4-1,1.5c0,0-0.1,0-0.1,0c-0.8,0.1-1.6,0.2-2.4,0.3L95.8,33.7z"/>
	<path d="M102.7,87h-0.2c-1-0.1-2.1-0.2-3.3-0.4c-0.4-0.1-0.7-0.3-1-0.6c-0.2-0.3-0.3-0.6-0.2-0.9c0.1-0.7,0.7-1.2,1.4-1.2h0.2h0.3
		c1,0.1,2,0.2,3,0.4c0.7,0.1,1.2,0.6,1.1,1.3C104.1,86.3,103.5,86.9,102.7,87C102.8,87,102.8,87,102.7,87z"/>
</g>
</svg>
