<?xml version="1.0" encoding="utf-8"?>
<!-- Generator: Adobe Illustrator 25.2.0, SVG Export Plug-In . SVG Version: 6.00 Build 0)  -->
<svg version="1.1" id="Layer_1" xmlns="http://www.w3.org/2000/svg" xmlns:xlink="http://www.w3.org/1999/xlink" x="0px" y="0px"
	 viewBox="0 0 162.4 162.4" style="enable-background:new 0 0 162.4 162.4;" xml:space="preserve">
<g>
	<path d="M66.1,113.3c0.4,0.2,0.6,0.6,0.7,1.1c0,0.2-0.1,0.4-0.3,0.6c-0.2,0.2-0.4,0.3-0.7,0.3c-0.4-0.1-0.8-0.3-1.1-0.4
		c-0.4-0.2-0.7-0.3-1.1-0.5c-0.3-0.1-0.6-0.2-0.9-0.2c-0.7,0-1.3,0.2-1.8,0.6c-0.5,0.5-0.8,1.1-0.8,1.7c0.1,0.9,0.7,1.7,1.9,2.2
		c0.2,0.1,0.7,0.3,1.3,0.5l1.6,0.6c0.5,0.2,0.9,0.4,1.3,0.7c0.4,0.3,0.7,0.6,1,1c0.4,0.7,0.6,1.5,0.6,2.3c0,0.9-0.2,1.7-0.6,2.4
		c-0.4,0.8-1.1,1.5-1.9,1.9c-0.9,0.5-1.9,0.7-3,0.7c-0.8,0-1.6-0.1-2.4-0.3c-0.6-0.1-1.2-0.4-1.7-0.8c-0.3-0.2-0.5-0.5-0.5-0.9
		c0-0.3,0.1-0.5,0.2-0.7c0.2-0.2,0.4-0.3,0.6-0.3c0.2,0,0.4,0.1,0.6,0.2c0.5,0.3,1,0.6,1.6,0.8c0.6,0.2,1.2,0.3,1.7,0.3
		c0.5,0,1.1-0.2,1.5-0.5c0.4-0.3,0.8-0.7,1.1-1.2c0.3-0.5,0.4-1,0.4-1.5c0-0.5-0.2-1-0.5-1.4c-0.3-0.4-0.7-0.7-1.2-0.9
		c-0.6-0.3-1.2-0.5-1.9-0.8c-0.4-0.1-0.8-0.3-1.4-0.5c-0.5-0.2-1-0.5-1.5-0.9c-0.4-0.3-0.7-0.7-0.9-1.1c-0.2-0.5-0.4-1.1-0.4-1.7
		c0-0.8,0.2-1.6,0.7-2.2c0.5-0.7,1.1-1.2,1.8-1.5c0.7-0.4,1.5-0.6,2.3-0.6C64,112.4,65.1,112.7,66.1,113.3z"/>
	<path d="M68.7,122.8c0-1.1,0.2-2.2,0.7-3.2c0.4-0.9,1.1-1.7,1.9-2.2c0.8-0.5,1.8-0.8,2.8-0.8c1,0,2,0.3,2.8,0.9
		c0.8,0.6,1.5,1.4,1.9,2.3c0.4,1,0.6,2,0.6,3.1c0,1.1-0.2,2.1-0.6,3.1c-0.4,0.9-1.1,1.7-1.9,2.3c-1.7,1.1-3.9,1.1-5.7,0
		c-0.8-0.6-1.5-1.4-1.9-2.3C68.9,124.9,68.7,123.8,68.7,122.8z M70.7,122.8c0,1.1,0.3,2.1,0.8,3.1c0.5,0.9,1.5,1.5,2.5,1.4
		c0.7,0,1.3-0.2,1.9-0.6c0.5-0.4,0.9-1,1.1-1.6c0.3-0.7,0.4-1.5,0.4-2.2c0-0.8-0.1-1.5-0.4-2.3c-0.2-0.6-0.6-1.2-1.1-1.6
		c-0.5-0.4-1.2-0.6-1.8-0.6c-0.7,0-1.3,0.2-1.8,0.6c-0.5,0.4-0.9,1-1.1,1.6C70.9,121.2,70.7,122,70.7,122.8z"/>
	<path d="M81.5,117.6c0-0.3,0.1-0.6,0.3-0.8c0.2-0.2,0.4-0.3,0.7-0.3c0.3,0,0.5,0.1,0.7,0.3c0.2,0.2,0.3,0.5,0.3,0.8v6.6
		c0,0.8,0.2,1.6,0.7,2.2c0.5,0.6,1.3,0.9,2.1,0.8c1.9,0,2.8-1,2.8-3v-6.6c0-0.5,0.4-1,0.9-1c0,0,0.1,0,0.1,0c0.3,0,0.5,0.1,0.7,0.3
		c0.2,0.2,0.3,0.5,0.3,0.8v6.7c0,0.8-0.2,1.6-0.5,2.3c-0.3,0.7-0.9,1.3-1.6,1.7c-0.8,0.5-1.8,0.7-2.8,0.7c-0.9,0-1.8-0.2-2.6-0.6
		c-0.7-0.4-1.2-1-1.6-1.7c-0.3-0.7-0.5-1.6-0.5-2.4L81.5,117.6z"/>
	<path d="M95.7,127.3v5.4c0,0.3-0.1,0.6-0.3,0.9c-0.2,0.2-0.4,0.3-0.7,0.3c-0.3,0-0.5-0.1-0.7-0.3c-0.2-0.2-0.3-0.5-0.3-0.8v-15.1
		c0-0.3,0.1-0.6,0.3-0.8c0.2-0.2,0.4-0.3,0.7-0.3c0.3,0,0.5,0.1,0.7,0.3c0.2,0.2,0.3,0.5,0.3,0.8v0.6l0,0c0.6-1.1,1.8-1.8,3-1.7
		c0.7,0,1.5,0.1,2.2,0.4c0.7,0.3,1.2,0.7,1.7,1.3c0.5,0.6,0.9,1.2,1.1,1.9c0.3,0.8,0.4,1.6,0.4,2.5c0,1.1-0.2,2.2-0.6,3.2
		c-0.4,0.9-1,1.7-1.8,2.3c-0.8,0.5-1.7,0.8-2.7,0.8C97.7,129,96.5,128.4,95.7,127.3L95.7,127.3z M102.2,122.8c0-0.7-0.1-1.5-0.4-2.2
		c-0.2-0.6-0.6-1.2-1-1.6c-0.5-0.4-1.1-0.7-1.8-0.7c-0.7,0-1.4,0.2-2,0.6c-0.5,0.4-0.9,1-1.1,1.7c-0.2,0.7-0.4,1.4-0.4,2.1
		c-0.1,1.2,0.3,2.3,0.9,3.3c0.5,0.8,1.4,1.3,2.4,1.3H99c0.6,0,1.2-0.3,1.7-0.7c0.5-0.4,0.9-1,1.1-1.6
		C102.1,124.3,102.2,123.5,102.2,122.8L102.2,122.8z"/>
</g>
<g>
	<path d="M40.8,50.8c0.4-0.6,1.2-0.9,1.9-0.8c25.7,0,51.3,0,77,0c1.5,0,1.9,0.4,1.9,1.9c-0.1,9.3-2.6,17.8-8.2,25.3
		c-3.6,4.9-8.4,8.7-14,11.1c-0.5,0.1-0.8,0.6-0.7,1.1c0.1,1.2,0,2.4,0,3.6c0.1,0.8-0.5,1.4-1.3,1.5c-0.1,0-0.1,0-0.2,0H65.7
		c-1.6,0-2-0.4-2-2c0-1.1,0-2.1,0-3.2c0.1-0.4-0.2-0.8-0.5-0.9c-11.9-5.4-18.6-14.9-21.4-27.4c-0.4-1.9-0.5-3.9-0.8-5.8
		c0-0.2-0.1-0.5-0.1-0.7L40.8,50.8z M43.6,52.7c0,0.8,0,1.5,0,2.3c0.2,1.8,0.4,3.6,0.8,5.3c2.7,12.1,9.2,21.1,20.8,26
		c0.7,0.2,1.2,0.9,1.1,1.7c0,1.2,0,2.4,0,3.7H96c0-1.2,0-2.4,0-3.6c-0.1-0.8,0.4-1.5,1.1-1.7c9.9-4.1,16.3-11.5,19.7-21.6
		c1.3-3.9,2-7.9,2-12L43.6,52.7z"/>
	<path d="M68.2,41.8c-1.2,0-2-0.9-1.6-1.7c1.3-2.6,1.1-5.1,0.1-7.8c-1-2.5-0.2-5,1-7.4c0.3-0.6,1.1-0.9,1.7-0.6c0.7,0.3,1,1,0.7,1.7
		c-0.2,0.5-0.4,0.9-0.6,1.4c-0.7,1.6-0.7,3.3,0,4.9c1.2,2.8,1.1,6-0.4,8.6C68.9,41.3,68.6,41.6,68.2,41.8z"/>
	<path d="M80.3,41.8c-1.2,0-1.9-0.9-1.6-1.8c0.2-0.5,0.4-0.9,0.6-1.4c0.7-1.6,0.7-3.3,0-4.9c-1.2-2.8-1.1-6,0.4-8.6
		c0.2-0.7,1-1.1,1.7-0.8c0,0,0.1,0,0.1,0c0.7,0.3,1,1.1,0.7,1.8c0,0,0,0.1-0.1,0.1c-0.3,0.7-0.6,1.4-0.8,2.2c-0.3,1.3-0.2,2.7,0.4,4
		c1.2,2.8,1,6-0.5,8.6C80.9,41.3,80.6,41.6,80.3,41.8z"/>
	<path d="M92.4,41.8c-1.3,0-1.9-0.9-1.6-1.8c0.1-0.4,0.3-0.8,0.5-1.2c0.8-1.7,0.8-3.6,0-5.3c-1.2-2.8-1-5.9,0.5-8.6
		c0.3-0.7,1-1,1.7-0.7c0,0,0,0,0,0c0.7,0.3,1.1,1,0.8,1.8c0,0,0,0,0,0c-0.1,0.4-0.3,0.8-0.5,1.2c-0.7,1.7-0.7,3.5,0,5.2
		c1.2,2.8,1,5.9-0.5,8.5C93.1,41.3,92.8,41.6,92.4,41.8z"/>
	<path d="M97.2,82.2c-0.4,0-0.8-0.3-1-0.7c-0.1-0.2-0.1-0.5-0.1-0.8c0.1-0.5,0.3-0.8,0.7-1.1c6.5-3.5,11-8.8,14-15.5
		c1-2.3,1.7-4.8,2.5-7.2c0.1-0.2,0.1-0.5,0.2-0.8c0.2-0.6,0.9-1,1.6-0.8c0.7,0.2,1.1,0.9,1,1.6c-2.5,10.6-7.9,19.2-17.5,24.8
		C98.2,82,97.7,82.2,97.2,82.2C97.2,82.2,97.2,82.2,97.2,82.2z"/>
</g>
</svg>
