<?xml version="1.0" encoding="utf-8"?>
<!-- Generator: Adobe Illustrator 25.2.0, SVG Export Plug-In . SVG Version: 6.00 Build 0)  -->
<svg version="1.1" id="Layer_1" xmlns="http://www.w3.org/2000/svg" xmlns:xlink="http://www.w3.org/1999/xlink" x="0px" y="0px"
	 viewBox="0 0 162.4 162.4" style="enable-background:new 0 0 162.4 162.4;" xml:space="preserve">
<g>
	<path d="M37.6,113.8c0-0.7,0.3-1.1,1-1.1h4.1c1.3,0,2.7,0.3,3.8,1.1c1.1,0.7,1.9,1.8,2.4,2.9c0.6,1.3,0.9,2.7,0.8,4.1
		c0,1.5-0.3,2.9-0.8,4.2c-0.5,1.2-1.3,2.2-2.4,2.9c-1.1,0.7-2.4,1.1-3.7,1.1h-4.3c-0.3,0-0.6-0.1-0.8-0.3c-0.1-0.2-0.2-0.4-0.2-0.6
		L37.6,113.8z M39.5,114.5v12.8h3.1c0.5,0,1-0.1,1.5-0.2c0.6-0.2,1.1-0.6,1.6-1c0.6-0.6,1-1.3,1.3-2c0.4-1.1,0.6-2.2,0.5-3.3
		c0-0.9-0.1-1.8-0.4-2.6c-0.2-0.7-0.6-1.4-1.1-2c-0.4-0.5-1-0.9-1.7-1.2c-0.7-0.3-1.4-0.4-2.2-0.4L39.5,114.5z"/>
	<path d="M60,118.3v-0.7c0-0.3,0.1-0.5,0.3-0.7s0.4-0.3,0.6-0.3c0.3,0,0.5,0.1,0.7,0.3c0.2,0.2,0.3,0.5,0.3,0.7V128
		c0,0.3-0.1,0.6-0.3,0.8s-0.4,0.3-0.7,0.2c-0.2,0-0.5-0.1-0.6-0.2c-0.2-0.2-0.3-0.4-0.3-0.7v-0.9l0,0c-0.7,1.1-1.9,1.8-3.2,1.8
		c-1,0-1.9-0.2-2.8-0.7c-0.8-0.5-1.5-1.3-2-2.2c-1-2.1-0.9-4.6,0.1-6.7c0.5-0.9,1.2-1.6,2-2.1c0.7-0.4,1.6-0.7,2.4-0.7
		c0.6,0,1.3,0.1,1.9,0.4C59,117.4,59.6,117.8,60,118.3L60,118.3z M53.3,122.8c0,0.7,0.1,1.5,0.4,2.2c0.2,0.6,0.6,1.2,1.1,1.6
		s1.1,0.7,1.8,0.7c1,0.1,2-0.4,2.6-1.3c0.9-1.7,1-3.7,0.4-5.6c-0.2-0.6-0.6-1.2-1.2-1.5c-0.5-0.4-1.1-0.6-1.7-0.5l0,0
		c-1,0-1.9,0.5-2.4,1.3C53.6,120.6,53.3,121.8,53.3,122.8L53.3,122.8z"/>
	<path d="M65.5,115.2c-0.3,0-0.6-0.1-0.8-0.4c-0.2-0.2-0.3-0.5-0.3-0.8s0.1-0.6,0.3-0.8c0.2-0.2,0.5-0.3,0.8-0.4
		c0.3,0,0.6,0.1,0.8,0.3c0.2,0.2,0.3,0.5,0.3,0.8s-0.1,0.6-0.3,0.8C66.1,115.1,65.8,115.2,65.5,115.2z M64.5,117.7
		c0-0.3,0.1-0.6,0.3-0.7c0.4-0.4,1-0.4,1.4,0c0.2,0.2,0.3,0.5,0.3,0.8V128c0,0.3-0.1,0.6-0.3,0.8c-0.4,0.3-1,0.3-1.4,0
		c-0.2-0.2-0.3-0.5-0.3-0.8V117.7z"/>
	<path d="M69.2,117.7c0-0.5,0.4-1,0.9-1c0,0,0,0,0.1,0c0.3,0,0.5,0.1,0.7,0.3c0.2,0.2,0.3,0.5,0.3,0.7v1l0,0c0.3-0.5,0.7-1,1.2-1.4
		c0.4-0.4,0.9-0.6,1.5-0.7c0.3,0,0.6,0.1,0.8,0.3c0.2,0.2,0.3,0.4,0.3,0.7c0,0.3-0.1,0.6-0.3,0.8c-0.3,0.2-0.7,0.3-1.1,0.4
		c-0.3,0.1-0.6,0.2-0.9,0.3c-0.5,0.3-0.9,0.7-1.2,1.2c-0.3,0.6-0.4,1.2-0.4,1.8v5.9c0,0.3-0.1,0.6-0.3,0.8c-0.2,0.2-0.4,0.3-0.7,0.3
		c-0.3,0-0.5-0.1-0.7-0.3s-0.3-0.5-0.3-0.8L69.2,117.7z"/>
	<path d="M79.1,128.5l-3.6-10.4V118c0-0.1,0-0.1,0-0.2s0-0.1,0-0.2c0-0.2,0.1-0.5,0.3-0.7c0.2-0.2,0.4-0.2,0.7-0.2
		c0.2,0,0.4,0.1,0.6,0.2s0.3,0.3,0.4,0.5l2.8,8.3l0,0l2.8-8.4c0.1-0.4,0.5-0.7,0.9-0.7c0.2,0,0.5,0.1,0.7,0.3
		c0.2,0.2,0.3,0.5,0.3,0.7s0,0.3-0.1,0.5l-5.2,15c-0.1,0.3-0.2,0.5-0.4,0.6c-0.2,0.2-0.4,0.2-0.7,0.2c-0.2,0-0.4-0.1-0.5-0.2
		c-0.2-0.2-0.3-0.4-0.3-0.7c0-0.2,0.1-0.4,0.2-0.6L79.1,128.5z"/>
	<path d="M92.1,118.5h-0.8c-0.7,0-1-0.3-1-0.9c0-0.5,0.4-0.8,1-0.8h0.8v-2.9c0-0.7,0.3-1.4,0.8-1.8s1.2-0.7,1.9-0.7
		c1.2,0,1.8,0.3,1.8,0.9c0,0.2-0.1,0.4-0.2,0.5c-0.2,0.2-0.5,0.3-0.8,0.3H95c-0.5,0-0.8,0.3-0.8,0.9v2.8h1.3c0.6,0,0.9,0.3,1,0.8
		s-0.3,0.9-1,0.9h-1.3v9.5c0,0.3-0.1,0.6-0.3,0.8c-0.2,0.2-0.5,0.3-0.7,0.3c-0.3,0-0.5-0.1-0.7-0.3s-0.3-0.5-0.3-0.8L92.1,118.5z"/>
	<path d="M96.9,117.7c0-0.3,0.1-0.5,0.3-0.7c0.2-0.2,0.4-0.3,0.7-0.3c0.3,0,0.5,0.1,0.7,0.3c0.2,0.2,0.3,0.5,0.3,0.7v1l0,0
		c0.3-0.5,0.7-1,1.2-1.4c0.4-0.4,0.9-0.6,1.5-0.7c0.3,0,0.6,0.1,0.8,0.3c0.2,0.2,0.3,0.4,0.3,0.7c0,0.3-0.1,0.6-0.3,0.8
		c-0.3,0.2-0.7,0.3-1.1,0.4c-0.3,0.1-0.6,0.2-0.9,0.3c-0.5,0.3-0.9,0.7-1.2,1.2c-0.3,0.6-0.4,1.2-0.4,1.8v5.9c0,0.3-0.1,0.6-0.3,0.8
		c-0.2,0.2-0.4,0.3-0.7,0.3c-0.3,0-0.5-0.1-0.7-0.3s-0.3-0.5-0.3-0.8L96.9,117.7z"/>
	<path d="M103.3,122.7c0-1,0.3-2,0.7-3c0.4-0.9,1-1.7,1.8-2.2c0.8-0.6,1.8-0.9,2.8-0.9s2,0.3,2.8,0.8c0.8,0.6,1.5,1.4,1.9,2.3
		s0.7,1.9,0.7,2.9c0,0.7-0.4,1-1.1,1h-7.6c0,0.7,0.2,1.4,0.5,2s0.7,1,1.3,1.3c0.6,0.3,1.2,0.4,1.8,0.4c1.2,0,2.4-0.5,3.3-1.3
		c0.2-0.2,0.5-0.3,0.8-0.4c0.2,0,0.4,0.1,0.5,0.3c0.1,0.2,0.2,0.4,0.2,0.6c0,0.3-0.1,0.5-0.3,0.7c-0.5,0.6-1.2,1-1.9,1.3
		c-0.8,0.3-1.7,0.5-2.6,0.5s-1.8-0.2-2.6-0.6c-0.7-0.3-1.3-0.8-1.8-1.5c-0.4-0.6-0.8-1.3-1-2S103.2,123.5,103.3,122.7L103.3,122.7
		L103.3,122.7z M105.3,122.1h6.7c0-1-0.3-1.9-0.9-2.7c-0.6-0.7-1.5-1.1-2.4-1c-0.9,0-1.8,0.3-2.4,1S105.3,121.1,105.3,122.1z"/>
	<path d="M115.2,122.7c0-1,0.3-2,0.7-3c0.4-0.9,1-1.7,1.8-2.2c0.8-0.6,1.8-0.9,2.8-0.9s2,0.3,2.8,0.8c0.8,0.6,1.5,1.4,1.9,2.3
		s0.7,1.9,0.7,2.9c0,0.7-0.4,1-1.1,1h-7.6c0,0.7,0.2,1.4,0.5,2s0.7,1,1.3,1.3c0.6,0.3,1.2,0.4,1.9,0.4c1.2,0,2.4-0.5,3.2-1.3
		c0.2-0.2,0.5-0.3,0.8-0.4c0.2,0,0.4,0.1,0.5,0.3c0.1,0.2,0.2,0.4,0.2,0.6c0,0.3-0.1,0.5-0.3,0.7c-0.5,0.6-1.2,1-1.9,1.3
		c-0.8,0.3-1.7,0.5-2.6,0.5s-1.8-0.2-2.6-0.6c-0.7-0.3-1.3-0.8-1.8-1.5c-0.4-0.6-0.8-1.3-1-2S115.1,123.5,115.2,122.7L115.2,122.7
		L115.2,122.7z M117.2,122.1h6.7c0-1-0.3-1.9-0.9-2.7c-0.6-0.7-1.5-1.1-2.4-1c-0.9,0-1.8,0.3-2.4,1
		C117.5,120.1,117.1,121.1,117.2,122.1z"/>
</g>
<g>
	<path d="M81.4,20.2c-20.5,0-37.1,16.6-37.1,37.1s16.6,37.1,37.1,37.1s37.1-16.6,37.1-37.1l0,0C118.5,36.8,101.9,20.2,81.4,20.2z
		 M81.4,92c-6.2,0-12.4-1.7-17.7-4.9l6-9.3h31.9c0.9,0,1.1-0.2,1.2-1.1c0.3-2.8,0.5-5.6,0.7-8.4c0.3-3.1,0.6-6.2,0.8-9.3
		c0.1-0.7,0.1-1.4,0.2-2.2c0.1-0.7-0.3-1.1-1.1-1.1h-9.2v-0.5c0-2.5,0-5,0-7.5c0-0.4-0.1-0.8-0.4-1.1c-1.6-2.1-3.1-4.3-4.7-6.4
		c-0.1-0.2-0.2-0.5-0.2-0.7c0-0.9,0-1.8,0-2.7c0.1-1.4-0.9-2.7-2.4-2.8c-0.2,0-0.3,0-0.5,0c-5.7,0-11.4,0-17.1,0
		c-1.4-0.1-2.7,0.9-2.8,2.4c0,0.1,0,0.3,0,0.4c0,0.8,0,1.7,0,2.5c0,0.4-0.1,0.8-0.4,1.1c-1.8,2-3.5,4.1-5.3,6.2
		c-0.2,0.2-0.4,0.5-0.5,0.7v30c0.2,0.4,0.7,0.7,1.2,0.6h5.5l-5.2,8C45.6,75,41.7,53.4,52.6,37.7c10.4-15.1,30.8-19.5,46.5-10
		l-9,13.9l1.5,2.1l9.5-14.7c15.7,11,19.5,32.6,8.5,48.3C103.3,86.5,92.7,92.1,81.4,92L81.4,92z M68,71.3h-6.1v-9.2
		c0.6,0.3,1.3,0.3,2,0.2c1.3-0.3,2.3-1.5,2.3-2.9c0-0.5,0-1,0-1.4c0-0.7,0.6-1.3,1.3-1.4l0,0c0.7,0,1.3,0.6,1.3,1.3l0,0
		c0,0.5,0,1.1,0,1.6c0.1,1.7,1.6,3,3.2,2.8c1.6-0.1,2.8-1.4,2.8-2.9c0-1.1,0-2.2,0-3.3c-0.1-0.7,0.4-1.4,1.1-1.5s1.4,0.4,1.5,1.1
		c0,0.1,0,0.3,0,0.4v4.2c-0.1,1.7,1.2,3.1,2.9,3.2c0.4,0,0.9,0,1.3-0.2h0.2v7.8h-6c-0.5-0.1-0.9,0.3-1,0.7c-0.1,0.5,0.3,0.9,0.8,1
		h0.1h6v3h-20v-3h6c0.5,0,0.9-0.4,0.9-0.9C68.8,71.7,68.4,71.3,68,71.3L68,71.3z M101.3,62.2c-0.8,0-1.6,0.1-2.3,0.5
		c-1,0.5-2.3,0.5-3.3,0c-1.4-0.7-3-0.7-4.4,0c-0.7,0.4-1.6,0.5-2.4,0.3c-0.1,0-0.3-0.2-0.3-0.3c-0.2-1.7-0.3-3.4-0.5-5v-0.1h14.6
		c-0.1,1.6-0.3,3.1-0.4,4.7L101.3,62.2z M102.2,64.1c-0.3,4-0.7,8-1.1,12H89.8c-0.3-3.7-0.7-7.5-1-11.3c1.2,0.2,2.4,0,3.5-0.6
		c0.8-0.4,1.8-0.4,2.6,0c1.6,0.8,3.5,0.8,5,0C100.6,63.8,101.4,63.8,102.2,64.1L102.2,64.1z M92.5,55.8h-5.2c-0.8,0-1.1,0.3-1.1,1.2
		c0.3,3.9,0.7,7.7,1,11.6c0.1,0.9,0.1,1.8,0.2,2.7h-3.9v-23h8.8v7.5H92.5z M88,76h-4.3v-3h4.1C87.9,74,87.9,75,88,76L88,76z
		 M84.6,46.5l3.6-4.9c1.2,1.6,2.4,3.2,3.6,4.9H84.6z M87.3,39.1L87.3,39.1l-19.2,0.1c0-1,0-1.9,0-2.9c0-0.4,0.4-0.8,0.8-0.7h17.2
		c0.9,0,1.2,0.3,1.2,1.2C87.3,37.5,87.3,38.3,87.3,39.1L87.3,39.1z M86.1,41h0.3c-0.1,0.2-0.2,0.3-0.2,0.4c-1.2,1.6-2.4,3.2-3.6,4.9
		c-0.1,0.2-0.3,0.3-0.5,0.3h-19h-0.2c0.1-0.1,0.1-0.2,0.2-0.3c1.4-1.6,2.8-3.3,4.2-4.9c0.1-0.1,0.3-0.2,0.5-0.3
		C74,41,80.1,41,86.1,41L86.1,41z M81.9,48.3c0,0.1,0,0.2,0,0.3v12c0.1,0.7-0.5,1.4-1.2,1.4c-0.7,0.1-1.4-0.5-1.4-1.2
		c0-0.1,0-0.1,0-0.2c0-1.5,0-3.1,0-4.6c-0.1-1.7-1.5-3-3.2-2.9c-1.5,0.1-2.8,1.3-2.9,2.9c0,1.1,0,2.3,0,3.4c0,0.7-0.6,1.3-1.3,1.3
		c-0.7,0-1.3-0.6-1.3-1.3l0,0c0-0.6,0-1.2,0-1.7c-0.1-1.7-1.6-2.9-3.3-2.8c-0.7,0.1-1.4,0.4-1.9,0.9c-0.6,0.6-0.9,1.4-0.9,2.2
		c0,0.5,0,0.9,0,1.4c0,0.7-0.6,1.3-1.3,1.3s-1.3-0.6-1.3-1.3c0-3.7,0-7.3,0-11v-0.1L81.9,48.3z"/>
</g>
</svg>
