<?xml version="1.0" encoding="utf-8"?>
<!-- Generator: Adobe Illustrator 25.2.0, SVG Export Plug-In . SVG Version: 6.00 Build 0)  -->
<svg version="1.1" id="Layer_1" xmlns="http://www.w3.org/2000/svg" xmlns:xlink="http://www.w3.org/1999/xlink" x="0px" y="0px"
	 viewBox="0 0 162.4 162.4" style="enable-background:new 0 0 162.4 162.4;" xml:space="preserve">
<g>
	<g>
		<path d="M43.8,91.6c0-0.3,0.1-0.6,0.2-0.8c0.1-0.2,0.4-0.3,0.6-0.3h6c0.2,0,0.4,0.1,0.5,0.3c0.1,0.2,0.2,0.5,0.2,0.7
			s-0.1,0.5-0.2,0.6c-0.2,0.2-0.4,0.3-0.7,0.3h-4.7v5.3H50c0.2,0,0.5,0.1,0.7,0.3c0.2,0.2,0.2,0.4,0.2,0.7c0,0.2-0.1,0.4-0.2,0.6
			c-0.1,0.2-0.4,0.3-0.6,0.3h-4.3v6.2c0,0.3-0.1,0.6-0.3,0.8c-0.2,0.2-0.4,0.3-0.7,0.3c-0.2,0-0.5-0.1-0.7-0.3
			c-0.2-0.2-0.3-0.5-0.3-0.8L43.8,91.6z"/>
		<path d="M52.3,100.7c0-1.1,0.2-2.2,0.7-3.2c0.4-0.9,1.1-1.7,1.9-2.2c1.7-1.1,3.8-1.1,5.5,0c0.8,0.6,1.4,1.4,1.8,2.3
			c0.4,1,0.6,2,0.6,3.1s-0.2,2.1-0.6,3.1c-0.4,0.9-1,1.7-1.8,2.3c-0.8,0.6-1.8,0.9-2.8,0.8c-1,0-2-0.3-2.8-0.8
			c-0.8-0.6-1.5-1.4-1.9-2.3C52.6,102.7,52.3,101.7,52.3,100.7z M54.3,100.7c0,1.1,0.3,2.1,0.8,3.1c0.5,0.9,1.4,1.4,2.4,1.4
			c0.7,0,1.3-0.2,1.8-0.6s0.9-1,1.1-1.6c0.3-0.7,0.4-1.5,0.4-2.3s-0.1-1.5-0.4-2.2c-0.2-0.6-0.6-1.2-1.1-1.6s-1.1-0.6-1.8-0.6
			c-0.6,0-1.3,0.2-1.8,0.6s-0.9,1-1.1,1.6C54.4,99.1,54.3,99.9,54.3,100.7L54.3,100.7z"/>
		<path d="M72.6,96.1v-6c0-0.3,0.1-0.6,0.3-0.7c0.2-0.2,0.4-0.3,0.7-0.3c0.3,0,0.5,0.1,0.7,0.3c0.2,0.2,0.3,0.5,0.3,0.8v15.7
			c0,0.3-0.1,0.6-0.3,0.8c-0.4,0.3-1,0.3-1.4,0c-0.2-0.2-0.3-0.5-0.3-0.7v-0.7l0,0c-0.2,0.5-0.6,0.9-1,1.1c-0.6,0.3-1.3,0.5-1.9,0.5
			c-1,0-1.9-0.2-2.8-0.8c-0.8-0.5-1.5-1.3-1.9-2.2c-0.4-1-0.7-2.1-0.7-3.2c0-0.8,0.1-1.6,0.4-2.4c0.2-0.7,0.6-1.4,1-2
			c0.4-0.5,1-1,1.6-1.3s1.3-0.5,2-0.5C70.6,94.4,71.9,95,72.6,96.1L72.6,96.1z M66.3,100.6c0,1.1,0.2,2.2,0.8,3.1
			c0.5,0.8,1.4,1.4,2.3,1.4c0.7,0,1.4-0.2,2-0.7c0.5-0.4,0.9-1,1.1-1.7s0.4-1.4,0.4-2.1c0-0.8-0.1-1.6-0.4-2.3
			c-0.2-0.6-0.6-1.2-1.2-1.6c-1.1-0.8-2.5-0.7-3.5,0.1c-0.5,0.5-0.9,1-1.1,1.7C66.4,99.2,66.3,99.9,66.3,100.6L66.3,100.6z"/>
		<path d="M77.3,95.4c0-0.3,0.1-0.5,0.3-0.7c0.2-0.2,0.5-0.3,0.7-0.2c0.2,0,0.5,0.1,0.7,0.2c0.2,0.2,0.3,0.5,0.3,0.8v0.4l0,0
			c0.7-1,1.9-1.5,3.1-1.5c1.4,0.1,2.6,0.8,3.2,2.1c0.4-0.7,1-1.2,1.7-1.6c1.3-0.6,2.8-0.6,4.1,0.1c0.6,0.4,1.1,0.9,1.5,1.5
			c0.4,0.7,0.6,1.5,0.5,2.3v7c0,0.3-0.1,0.5-0.3,0.7c-0.2,0.2-0.5,0.3-0.7,0.3s-0.5-0.1-0.7-0.3c-0.2-0.2-0.3-0.4-0.3-0.7V99
			c0-0.5-0.1-1.1-0.3-1.5c-0.2-0.4-0.5-0.7-0.9-0.9c-0.4-0.2-0.8-0.3-1.3-0.3c-1.3-0.1-2.5,0.9-2.6,2.2c0,0.2,0,0.4,0,0.6v6.9
			c0,0.3-0.1,0.5-0.3,0.7c-0.2,0.2-0.5,0.2-0.7,0.2s-0.5-0.1-0.7-0.2c-0.2-0.2-0.3-0.4-0.3-0.7v-6.8c0.1-0.8-0.2-1.6-0.7-2.2
			c-0.5-0.5-1.1-0.7-1.8-0.7c-0.4,0-0.9,0.1-1.3,0.3c-0.4,0.2-0.7,0.5-0.9,0.9c-0.3,0.5-0.4,1-0.4,1.5v7c0,0.3-0.1,0.5-0.3,0.7
			c-0.2,0.2-0.4,0.3-0.7,0.3c-0.2,0-0.5-0.1-0.7-0.3c-0.2-0.2-0.3-0.4-0.3-0.7L77.3,95.4z"/>
		<path d="M103.8,96.1v-0.7c0-0.3,0.1-0.5,0.3-0.7c0.2-0.2,0.4-0.3,0.7-0.3c0.2,0,0.5,0.1,0.6,0.3c0.2,0.2,0.3,0.5,0.3,0.7v10.4
			c0,0.3-0.1,0.6-0.3,0.8c-0.2,0.2-0.4,0.3-0.6,0.2c-0.2,0-0.5-0.1-0.7-0.2c-0.2-0.2-0.3-0.4-0.3-0.7V105l0,0
			c-0.7,1.1-1.8,1.8-3.1,1.8c-1,0-1.9-0.2-2.7-0.7c-0.8-0.5-1.5-1.3-1.9-2.2c-1-2.1-1-4.6,0-6.7c0.4-0.9,1.1-1.6,2-2.1
			c0.7-0.4,1.5-0.7,2.4-0.7c0.6,0,1.3,0.1,1.8,0.4C102.8,95.2,103.3,95.6,103.8,96.1L103.8,96.1z M97.3,100.7c0,0.7,0.1,1.5,0.4,2.2
			c0.2,0.6,0.6,1.2,1.1,1.6s1.1,0.7,1.7,0.7c1,0.1,2-0.4,2.6-1.3c0.5-1,0.8-2.1,0.8-3.2c0-0.8-0.1-1.6-0.4-2.4
			c-0.2-0.6-0.6-1.1-1.1-1.5s-1.1-0.6-1.7-0.5l0,0c-1,0-1.9,0.5-2.4,1.3C97.6,98.4,97.3,99.5,97.3,100.7L97.3,100.7z"/>
		<path d="M110.3,105.2v5.4c0,0.3-0.1,0.6-0.3,0.9c-0.2,0.2-0.4,0.3-0.7,0.3c-0.3,0-0.5-0.1-0.7-0.4c-0.2-0.2-0.3-0.5-0.3-0.8V95.5
			c0-0.3,0.1-0.6,0.3-0.8c0.2-0.2,0.4-0.3,0.7-0.3c0.3,0,0.5,0.1,0.7,0.3c0.2,0.2,0.3,0.5,0.3,0.7V96l0,0c0.6-1.1,1.7-1.7,3-1.7
			c0.7,0,1.5,0.1,2.1,0.4s1.2,0.7,1.7,1.3c0.5,0.6,0.8,1.2,1.1,1.9c0.3,0.8,0.4,1.6,0.4,2.5c0,1.1-0.2,2.2-0.6,3.2
			c-0.4,0.9-1,1.7-1.8,2.3c-0.8,0.5-1.7,0.8-2.6,0.8C112.3,106.9,111.1,106.3,110.3,105.2L110.3,105.2z M116.6,100.7
			c0-0.7-0.1-1.5-0.3-2.2c-0.2-0.6-0.5-1.2-1-1.6s-1.1-0.7-1.7-0.7c-0.7,0-1.4,0.2-2,0.6c-0.5,0.4-0.9,1-1.1,1.7s-0.4,1.4-0.4,2.1
			c-0.1,1.2,0.3,2.3,0.9,3.3c0.5,0.8,1.4,1.3,2.3,1.3h0.2c0.6,0,1.2-0.3,1.7-0.7c0.5-0.4,0.8-1,1.1-1.6
			C116.5,102.2,116.7,101.4,116.6,100.7L116.6,100.7z"/>
	</g>
	<g>
		<path d="M49.5,118.4h-0.8c-0.5,0.1-0.9-0.3-1-0.7c0-0.1,0-0.1,0-0.2c0-0.5,0.4-0.8,1-0.8h0.8v-2.9c0-0.7,0.2-1.3,0.7-1.8
			c0.5-0.4,1.2-0.7,1.8-0.7c1.2,0,1.7,0.3,1.7,0.9c0,0.2-0.1,0.4-0.2,0.5c-0.2,0.2-0.5,0.3-0.8,0.3h-0.6c-0.5,0-0.7,0.3-0.7,0.9v2.8
			h1.3c0.6,0,0.9,0.3,0.9,0.8c0.1,0.5-0.3,0.9-0.7,0.9c-0.1,0-0.2,0-0.2,0h-1.3v9.5c0,0.3-0.1,0.6-0.3,0.8s-0.5,0.3-0.7,0.3
			s-0.5-0.1-0.7-0.3s-0.3-0.5-0.3-0.8L49.5,118.4z"/>
		<path d="M54.3,117.6c0-0.3,0.1-0.6,0.3-0.8c0.2-0.2,0.4-0.3,0.7-0.3c0.5,0,1,0.4,1,1c0,0,0,0,0,0.1v1.1l0,0c0.3-0.5,0.7-1,1.1-1.4
			c0.4-0.4,0.9-0.6,1.5-0.7c0.3,0,0.6,0.1,0.8,0.3c0.2,0.2,0.3,0.4,0.3,0.7c0,0.3-0.1,0.6-0.3,0.8c-0.3,0.2-0.7,0.3-1,0.4
			s-0.6,0.2-0.8,0.3c-0.5,0.3-0.9,0.7-1.2,1.2c-0.3,0.6-0.4,1.2-0.4,1.8v5.9c0,0.3-0.1,0.6-0.3,0.8s-0.4,0.3-0.7,0.3
			s-0.5-0.1-0.7-0.3s-0.3-0.5-0.3-0.8L54.3,117.6z"/>
		<path d="M62.3,115.1c-0.3,0-0.6-0.1-0.8-0.4c-0.2-0.2-0.3-0.5-0.3-0.8s0.1-0.6,0.3-0.8c0.4-0.4,1.1-0.4,1.6,0l0,0
			c0.2,0.2,0.3,0.5,0.3,0.8s-0.1,0.6-0.3,0.8C62.8,115,62.5,115.1,62.3,115.1z M61.3,117.6c0-0.5,0.4-1,0.9-1l0,0
			c0.3,0,0.5,0.1,0.7,0.3c0.2,0.2,0.3,0.5,0.3,0.8V128c0,0.3-0.1,0.6-0.3,0.8s-0.4,0.3-0.7,0.3c-0.2,0-0.5-0.1-0.7-0.3
			s-0.3-0.5-0.3-0.8L61.3,117.6L61.3,117.6z"/>
		<path d="M65.1,122.6c0-1,0.3-2,0.7-3c0.4-0.9,1-1.7,1.8-2.3c0.8-0.6,1.7-0.9,2.7-0.9s1.9,0.3,2.7,0.8c0.8,0.6,1.4,1.4,1.8,2.3
			s0.7,1.9,0.7,2.9c0,0.6-0.4,1-1.1,1H67c0,0.7,0.2,1.4,0.5,2s0.7,1,1.3,1.3c0.6,0.3,1.2,0.4,1.8,0.4c1.2,0,2.3-0.5,3.2-1.3
			c0.2-0.2,0.5-0.3,0.7-0.4c0.2,0,0.4,0.1,0.5,0.3c0.1,0.2,0.2,0.4,0.2,0.6c0,0.3-0.1,0.5-0.3,0.7c-0.5,0.6-1.1,1-1.8,1.3
			c-0.8,0.4-1.7,0.5-2.6,0.5s-1.7-0.2-2.5-0.6c-0.7-0.3-1.3-0.8-1.7-1.5c-0.4-0.6-0.8-1.3-1-2s-0.3-1.4-0.3-2.2L65.1,122.6
			L65.1,122.6z M67,122h6.5c0-1-0.3-1.9-0.9-2.7c-0.6-0.7-1.4-1.1-2.3-1c-0.9,0-1.8,0.3-2.4,1C67.3,120,67,121,67,122z"/>
		<path d="M77.4,117.6c0-0.3,0.1-0.6,0.3-0.8c0.2-0.2,0.4-0.3,0.7-0.3c0.3,0,0.5,0.1,0.7,0.3c0.2,0.2,0.3,0.5,0.3,0.8v0.5l0,0
			c0.4-0.5,0.9-0.9,1.4-1.2c0.6-0.3,1.2-0.4,1.8-0.4c0.7,0,1.4,0.2,2.1,0.5c0.7,0.4,1.2,0.9,1.5,1.6c0.4,0.8,0.6,1.7,0.6,2.6v6.8
			c0,0.3-0.1,0.5-0.3,0.7c-0.2,0.2-0.4,0.3-0.7,0.2c-0.3,0-0.5-0.1-0.7-0.3s-0.3-0.4-0.3-0.7v-6.6c0-0.8-0.2-1.6-0.8-2.1
			c-0.5-0.5-1.2-0.8-1.9-0.8c-0.5,0-0.9,0.1-1.3,0.4c-0.4,0.2-0.8,0.6-1,1c-0.3,0.5-0.4,1-0.4,1.6v6.7c0,0.3-0.1,0.6-0.3,0.8
			c-0.2,0.2-0.4,0.3-0.7,0.3c-0.3,0-0.5-0.1-0.7-0.3s-0.3-0.5-0.3-0.8L77.4,117.6z"/>
		<path d="M97.1,118.2v-6c0-0.3,0.1-0.5,0.3-0.7c0.4-0.3,1-0.3,1.4,0c0.2,0.2,0.3,0.5,0.3,0.8V128c0,0.3-0.1,0.6-0.3,0.8
			c-0.4,0.3-1,0.3-1.4,0c-0.2-0.2-0.3-0.5-0.3-0.7v-0.7l0,0c-0.2,0.5-0.6,0.9-1,1.1c-0.6,0.3-1.3,0.5-1.9,0.5c-1,0-1.9-0.2-2.8-0.8
			c-0.8-0.5-1.5-1.3-1.8-2.2c-0.8-1.8-0.9-3.8-0.3-5.6c0.2-0.7,0.6-1.4,1-2c0.4-0.5,1-1,1.6-1.3s1.3-0.5,2-0.5
			C95.2,116.5,96.4,117.1,97.1,118.2L97.1,118.2z M90.8,122.7c0,1.1,0.2,2.2,0.8,3.1c0.5,0.8,1.4,1.4,2.3,1.4c0.7,0,1.4-0.2,2-0.7
			c0.5-0.4,0.9-1,1.1-1.7s0.4-1.4,0.4-2.1c0-0.8-0.1-1.6-0.4-2.3c-0.2-0.6-0.6-1.2-1.2-1.6c-1.1-0.8-2.5-0.7-3.5,0.1
			c-0.5,0.5-0.9,1-1.1,1.7C90.9,121.3,90.8,122,90.8,122.7L90.8,122.7z"/>
		<path d="M101.8,112.3c0-0.3,0.1-0.6,0.3-0.8c0.2-0.2,0.4-0.3,0.7-0.3c0.2,0,0.5,0.1,0.7,0.3c0.2,0.2,0.3,0.5,0.3,0.7v15.6
			c0,0.3-0.1,0.6-0.3,0.8c-0.2,0.2-0.4,0.3-0.7,0.3c-0.3,0-0.5-0.1-0.7-0.3s-0.3-0.5-0.3-0.8V112.3z"/>
		<path d="M109.1,128.4l-3.6-10.4v-0.1c0-0.1,0-0.1,0-0.2s0-0.2,0-0.2c0-0.2,0.1-0.5,0.3-0.7c0.2-0.2,0.4-0.2,0.7-0.2
			c0.2,0,0.4,0.1,0.6,0.2s0.3,0.3,0.4,0.5l2.7,8.3l0,0l2.7-8.4c0.1-0.4,0.5-0.7,0.9-0.7c0.5,0,0.9,0.4,0.9,0.9v0.1
			c0,0.2,0,0.3-0.1,0.5l-5.2,15c-0.1,0.3-0.2,0.5-0.4,0.6c-0.2,0.2-0.4,0.2-0.7,0.2c-0.2,0-0.4-0.1-0.5-0.2
			c-0.2-0.2-0.3-0.4-0.3-0.7c0-0.2,0.1-0.4,0.1-0.7L109.1,128.4z"/>
	</g>
</g>
<g>
	<path d="M105.3,56.9L105.3,56.9l-0.4-0.2l-1.4-0.8l1.3-1c2.8-2.1,4.5-5.3,4.7-8.7c0.1-2.9-0.9-5.8-2.9-7.9
		c-1.8-2.1-4.5-3.4-7.3-3.6c-1.7-0.1-3.5-0.1-5-0.1h-4.6h-0.6l-2.3-0.1l1.2-1.6c1.3-1.7,2.1-3.7,2.3-5.8c0.1-1.3,0.1-2.6,0.1-3.8V22
		c0-3.5-2.8-6.3-6.2-6.3l0,0c-0.4,0-0.7,0-1.1,0.1c-2.5,0.4-4.5,2.4-5,4.9c-0.1,0.7-0.1,1.3-0.2,2c0,0.3,0,0.7-0.1,1l-0.1,1H62.3
		c-3-0.1-5.9,1.1-8.1,3.1c-4.2,4-4.6,10.5-1,15c0.6,0.6,1.2,1.2,1.8,1.8c0.3,0.3,0.6,0.6,1,0.9l0.9,0.9l-1.1,0.9l-0.2,0.1
		c-1,0.9-1.9,2.1-2.5,3.3h-2c-1.8,0-3.3,1.6-3.3,3.4c0,0.1,0,0.2,0,0.3c0.4,4.4,1.2,11.6,2.9,15.2c2.7,5.8,7.4,9.7,10.4,11.7
		c1.6,1.1,3.6,1.1,5.1,0c2.6-1.8,5-3.9,7-6.4c-0.1,1.7-0.1,3.5-0.1,5c0,1.7,0.8,3.3,2.1,4.3c0.9,0.8,2.1,1.3,3.3,1.6H80
		c0.1,0,0.2-0.1,0.3-0.1c2.7-0.4,4.8-2.6,5.2-5.4c0.1-0.6,0.1-1.2,0.1-1.7c0-0.3,0-0.6,0-0.9l0.1-1h7.5c1.6,0,3.1,0,4.7,0
		c1,0,1.9-0.1,2.8-0.3c4.6-1.2,7.5-4,8.5-8.5C110.2,63.6,108.9,59.9,105.3,56.9z M58.7,48.4c1.5-0.8,3.1-1.3,4.8-1.2h34.3
		c1,0,1.6-0.3,1.8-1c0.1-0.4,0.1-0.9-0.2-1.3c-0.3-0.4-0.7-0.6-1.2-0.6c-0.3,0-0.6,0-0.9,0H62c-4,0-7.4-2.8-8.3-6.6
		c-0.6-2.5,0-5.1,1.6-7c1.5-1.9,3.7-3.1,6.2-3.2c2.3,0,4.7-0.1,7.8-0.1h9.3c0.3,0,0.5,0,0.8,0c0.8,0,1.4-0.6,1.4-1.4l0,0
		c0-0.6,0-1.2,0-1.8V24c0-0.7,0-1.4,0-2.1c-0.1-1.9,1.5-3.5,3.4-3.6h0.1c0.2,0,0.5,0,0.7,0.1c1.5,0.2,2.6,1.4,2.7,2.9v1
		c0.1,1.8,0.1,3.6-0.2,5.4c-0.7,4-4.3,6.9-8.3,6.8H62.5c-0.3,0-0.6,0-1,0.1c-0.6,0.2-1,0.8-1,1.5c0,0.6,0.5,1.2,1.1,1.3
		c0.3,0.1,0.7,0.1,1,0.1h19.5c5.2,0,10.5,0,15.7,0c2.8-0.1,5.5,1.2,7.1,3.5c2.8,3.7,2,9-1.7,11.8c-0.2,0.2-0.4,0.3-0.7,0.4
		c-1.5,0.8-3.2,1.3-4.9,1.2H79.5c0.1-1.8-1.3-3.4-3.2-3.5c0,0,0,0-0.1,0h-20C56.9,49.8,57.7,49,58.7,48.4L58.7,48.4z M65,79.4
		c-0.8,0.5-1.8,0.5-2.5,0c-2.5-1.7-7.1-5.3-9.6-10.7c-1.2-2.5-2.1-7.8-2.7-14.4c0-0.3,0.1-0.6,0.3-0.9c0.2-0.2,0.4-0.3,0.6-0.3h25.2
		c0.2,0,0.5,0.1,0.6,0.3c0.2,0.2,0.3,0.5,0.3,0.9l0,0c-0.1,1-0.2,2-0.3,2.9c-0.3,2.7-0.6,5-1,7c-0.2,1.1-0.5,2-0.7,2.8
		c-0.2,0.6-0.4,1.2-0.6,1.7C72,74,67.5,77.7,65,79.4L65,79.4z M105,70.8c-1.5,1.9-3.7,3.1-6.2,3.2c-2.3,0.1-4.5,0.1-6.2,0.1h-7.7
		c-0.4,0-0.8,0.1-1.2,0.2c-0.5,0.2-0.8,0.8-0.8,1.4c0,0.4,0,0.9,0,1.3c0,0.9,0,1.7,0,2.6c0.1,1.9-1.4,3.5-3.3,3.6h-0.1
		c-0.3,0-0.5,0-0.8-0.1c-1.5-0.2-2.6-1.5-2.7-3v-0.9c-0.1-1.8,0-3.7,0.2-5.5c0.8-3.9,4.3-6.7,8.3-6.7h5.3H98c0.3,0,0.6,0,0.9-0.1
		c0.8-0.3,1.2-1.1,0.9-1.8c-0.2-0.5-0.5-0.8-1-0.9c-0.3-0.1-0.7-0.1-1-0.1H78.3c0.4-2.3,0.8-4.8,1-7h18.9c4-0.1,7.6,2.7,8.4,6.6
		C107.1,66.3,106.5,68.8,105,70.8L105,70.8z"/>
	<path d="M60.7,69.6c-0.8-0.1-1.5-0.5-2.1-1.1l-1.3-1.3c-0.5-0.5-0.5-1.2,0-1.7l0,0c0.5-0.5,1.2-0.5,1.7,0l0,0l1.4,1.4
		c0.5,0.4,1.2,0.4,1.6,0l8.6-8.6c0.5-0.5,1.2-0.5,1.7,0l0,0l0,0c0.5,0.5,0.5,1.2,0,1.7l-8.6,8.6C62.9,69.4,61.8,69.8,60.7,69.6z"/>
</g>
</svg>
