<?xml version="1.0" encoding="utf-8"?>
<!-- Generator: Adobe Illustrator 25.2.0, SVG Export Plug-In . SVG Version: 6.00 Build 0)  -->
<svg version="1.1" id="Layer_1" xmlns="http://www.w3.org/2000/svg" xmlns:xlink="http://www.w3.org/1999/xlink" x="0px" y="0px"
	 viewBox="0 0 162.4 162.4" style="enable-background:new 0 0 162.4 162.4;" xml:space="preserve">
<g>
	<path d="M43.2,114.4c0.2,0.2,0.3,0.4,0.2,0.6c0,0.2-0.1,0.5-0.3,0.6c-0.2,0.2-0.4,0.3-0.7,0.3s-0.6-0.1-0.8-0.3
		c-0.5-0.4-1.1-0.8-1.8-1.1c-0.7-0.3-1.4-0.4-2.1-0.4c-0.8,0-1.7,0.2-2.4,0.6s-1.2,0.9-1.6,1.6c-0.4,0.6-0.7,1.3-0.9,2.1
		c-0.2,0.7-0.3,1.4-0.3,2.2c0,1,0.1,1.9,0.4,2.9c0.3,1,0.8,1.9,1.5,2.6c0.8,0.8,1.8,1.2,2.9,1.2c0.9,0,1.7-0.2,2.5-0.6
		s1.4-1,1.8-1.7c0.5-0.9,0.7-1.8,0.7-2.8v-0.7h-2.9c-0.5,0-0.9-0.3-0.9-0.8v-0.1c0.1-0.7,0.4-1,0.8-1h3.6c0.9,0,1.3,0.5,1.3,1.5v0.4
		c0,1.1-0.2,2.2-0.5,3.3c-0.3,1.2-1,2.2-2,3c-1.3,0.9-2.9,1.4-4.4,1.3c-1.1,0-2.3-0.2-3.2-0.8c-0.9-0.5-1.6-1.2-2.2-2
		c-0.6-0.8-1-1.7-1.3-2.6c-0.2-0.9-0.4-1.8-0.4-2.7c0-1.1,0.2-2.2,0.5-3.2s0.7-1.9,1.4-2.7c0.6-0.8,1.4-1.4,2.3-1.8
		c1-0.5,2-0.7,3.1-0.7s2.2,0.2,3.3,0.6C41.7,113.2,42.6,113.7,43.2,114.4z"/>
	<path d="M46.3,112.3c0-0.3,0.1-0.6,0.3-0.8c0.2-0.2,0.4-0.3,0.7-0.3s0.5,0.1,0.7,0.3c0.2,0.2,0.3,0.5,0.3,0.7v15.6
		c0,0.3-0.1,0.6-0.3,0.8s-0.4,0.3-0.7,0.3s-0.5-0.1-0.7-0.3s-0.3-0.5-0.3-0.8V112.3z"/>
	<path d="M50.9,117.6c0-0.5,0.4-1,0.9-1h0.1c0.3,0,0.5,0.1,0.7,0.3c0.2,0.2,0.3,0.5,0.3,0.7v6.7c0,0.8,0.2,1.6,0.7,2.2
		s1.3,0.9,2.1,0.8c1.9,0,2.8-1,2.8-3v-6.6c0-0.3,0.1-0.5,0.3-0.7s0.4-0.3,0.7-0.3s0.5,0.1,0.7,0.3c0.2,0.2,0.3,0.5,0.3,0.8v6.6
		c0,0.8-0.2,1.6-0.5,2.3c-0.3,0.7-0.9,1.3-1.6,1.7c-0.9,0.5-1.8,0.7-2.8,0.7c-0.9,0-1.8-0.2-2.6-0.6c-0.7-0.4-1.2-1-1.6-1.7
		c-0.3-0.7-0.5-1.6-0.5-2.4L50.9,117.6z"/>
	<path d="M63.7,118.4h-0.9c-0.2,0-0.5-0.1-0.7-0.2c-0.2-0.2-0.3-0.4-0.3-0.6c0-0.5,0.4-0.9,0.9-0.9h0.1h0.9V114
		c0-0.3,0.1-0.5,0.3-0.7c0.2-0.2,0.4-0.2,0.7-0.2c0.3,0,0.5,0.1,0.7,0.2c0.2,0.2,0.3,0.5,0.3,0.7v2.6h0.9c0.3,0,0.5,0.1,0.7,0.3
		c0.2,0.2,0.3,0.4,0.2,0.6c0,0.2-0.1,0.4-0.2,0.6c-0.2,0.2-0.4,0.2-0.6,0.2h-1v9.6c0,0.3-0.1,0.5-0.3,0.7c-0.2,0.2-0.5,0.3-0.8,0.3
		c-0.2,0-0.5-0.1-0.7-0.3s-0.3-0.5-0.3-0.8L63.7,118.4z"/>
	<path d="M67.8,122.6c0-1,0.3-2,0.7-3c0.4-0.9,1-1.7,1.8-2.3c0.8-0.6,1.8-0.9,2.8-0.9s2,0.3,2.8,0.8c0.8,0.6,1.5,1.4,1.9,2.3
		s0.7,1.9,0.7,2.9c0,0.7-0.4,1-1.1,1h-7.6c0,0.7,0.2,1.4,0.5,2s0.7,1,1.3,1.3c0.6,0.3,1.2,0.4,1.8,0.4c1.2,0,2.4-0.5,3.2-1.3
		c0.2-0.2,0.5-0.3,0.8-0.4c0.2,0,0.4,0.1,0.5,0.2c0.1,0.2,0.2,0.4,0.2,0.6c0,0.3-0.1,0.5-0.3,0.7c-0.5,0.6-1.2,1-1.9,1.3
		c-0.8,0.3-1.7,0.5-2.6,0.5s-1.8-0.2-2.6-0.6c-0.7-0.3-1.3-0.8-1.8-1.5c-0.4-0.6-0.8-1.3-1-2s-0.3-1.4-0.3-2.2L67.8,122.6
		L67.8,122.6z M69.8,122h6.7c0-1-0.3-1.9-0.9-2.7c-1.2-1.3-3.3-1.4-4.7-0.2l-0.1,0.1C70.2,120,69.8,121,69.8,122z"/>
	<path d="M80.4,117.6c0-0.3,0.1-0.6,0.3-0.8c0.4-0.4,1-0.4,1.4,0c0.2,0.2,0.3,0.5,0.3,0.8v0.5l0,0c0.8-1,2-1.6,3.3-1.6
		c0.7,0,1.4,0.2,2.1,0.5c0.7,0.4,1.2,0.9,1.6,1.6c0.4,0.8,0.6,1.7,0.6,2.6v6.8c0,0.3-0.1,0.5-0.3,0.7c-0.2,0.2-0.4,0.3-0.7,0.2
		c-0.3,0-0.5-0.1-0.7-0.3s-0.3-0.4-0.3-0.7v-6.7c0-0.8-0.3-1.6-0.8-2.1s-1.2-0.8-2-0.8c-0.5,0-1,0.1-1.4,0.3c-0.4,0.2-0.8,0.6-1,1
		c-0.3,0.5-0.4,1-0.4,1.6v6.7c0,0.3-0.1,0.6-0.3,0.8c-0.2,0.2-0.4,0.3-0.7,0.3c-0.3,0-0.5-0.1-0.7-0.3s-0.3-0.5-0.3-0.8V117.6z"/>
	<path d="M98.7,118.4h-0.8c-0.7,0-1-0.3-1-0.9c0-0.5,0.4-0.8,1-0.8h0.8v-2.9c0-0.7,0.3-1.4,0.8-1.8s1.2-0.7,1.9-0.7
		c1.2,0,1.8,0.3,1.8,0.9c0,0.2-0.1,0.4-0.2,0.5c-0.2,0.2-0.5,0.3-0.8,0.3h-0.6c-0.5,0-0.8,0.3-0.8,0.9v2.8h1.3c0.6,0,0.9,0.3,1,0.8
		s-0.3,0.9-1,0.9h-1.3v9.5c0,0.3-0.1,0.6-0.3,0.8c-0.2,0.2-0.5,0.3-0.7,0.3c-0.3,0-0.5-0.1-0.7-0.3s-0.3-0.5-0.3-0.8L98.7,118.4z"/>
	<path d="M103.6,117.6c0-0.3,0.1-0.5,0.3-0.7c0.2-0.2,0.4-0.3,0.7-0.3c0.3,0,0.5,0.1,0.7,0.3c0.2,0.2,0.3,0.5,0.3,0.7v1l0,0
		c0.3-0.5,0.7-1,1.2-1.4c0.4-0.4,1-0.6,1.5-0.7c0.3,0,0.6,0.1,0.8,0.3c0.2,0.2,0.4,0.4,0.4,0.7c0,0.3-0.1,0.6-0.4,0.8
		c-0.3,0.2-0.7,0.3-1,0.4s-0.6,0.2-0.9,0.3c-0.5,0.3-0.9,0.7-1.2,1.2c-0.3,0.6-0.4,1.2-0.4,1.8v5.9c0,0.3-0.1,0.6-0.3,0.8
		c-0.2,0.2-0.4,0.3-0.7,0.3c-0.3,0-0.5-0.1-0.7-0.3s-0.3-0.5-0.3-0.8V117.6z"/>
	<path d="M109.9,122.6c0-1,0.3-2,0.7-3c0.4-0.9,1-1.7,1.8-2.3c0.8-0.6,1.8-0.9,2.8-0.9s2,0.3,2.8,0.8c0.8,0.6,1.5,1.4,1.9,2.3
		s0.7,1.9,0.7,2.9c0,0.7-0.4,1-1.1,1h-7.6c0,0.7,0.2,1.4,0.6,2c0.3,0.6,0.7,1,1.3,1.3c0.6,0.3,1.2,0.4,1.8,0.4
		c1.2,0,2.4-0.5,3.3-1.3c0.2-0.2,0.5-0.3,0.8-0.4c0.2,0,0.4,0.1,0.5,0.2c0.1,0.2,0.2,0.4,0.2,0.6c0,0.3-0.1,0.5-0.3,0.7
		c-0.5,0.6-1.2,1-1.9,1.3c-0.8,0.4-1.7,0.5-2.6,0.5s-1.8-0.2-2.6-0.6c-0.7-0.3-1.3-0.8-1.8-1.5c-0.4-0.6-0.8-1.3-1-2
		s-0.3-1.4-0.3-2.2L109.9,122.6L109.9,122.6z M111.9,122h6.7c0-1-0.3-1.9-0.9-2.7c-0.6-0.7-1.5-1.1-2.4-1.1s-1.8,0.3-2.4,1
		C112.2,120,111.9,121,111.9,122L111.9,122z"/>
	<path d="M121.8,122.6c0-1,0.3-2,0.7-3c0.4-0.9,1-1.7,1.8-2.3c0.8-0.6,1.8-0.9,2.8-0.9s2,0.3,2.8,0.8c0.8,0.6,1.5,1.4,1.9,2.3
		s0.7,1.9,0.7,2.9c0,0.7-0.4,1-1.1,1h-7.6c0,0.7,0.2,1.4,0.5,2s0.7,1,1.3,1.3c0.6,0.3,1.2,0.4,1.8,0.4c1.2,0,2.4-0.5,3.3-1.3
		c0.2-0.2,0.5-0.3,0.8-0.4c0.2,0,0.4,0.1,0.5,0.2c0.1,0.2,0.2,0.4,0.2,0.6c0,0.3-0.1,0.5-0.3,0.7c-0.5,0.6-1.2,1-1.9,1.3
		c-0.8,0.3-1.7,0.5-2.6,0.5s-1.8-0.2-2.6-0.6c-0.7-0.3-1.3-0.8-1.8-1.5c-0.4-0.6-0.8-1.3-1-2s-0.3-1.4-0.3-2.2L121.8,122.6
		L121.8,122.6z M123.8,122h6.7c0-1-0.3-1.9-0.9-2.7c-0.6-0.7-1.5-1.1-2.4-1.1s-1.8,0.3-2.4,1C124.1,120,123.8,121,123.8,122z"/>
</g>
<g>
	<path d="M81.5,19.9c-20.5,0-37.2,16.5-37.2,37s16.5,37.2,37,37.2s37.2-16.5,37.2-37V57C118.5,36.5,102,19.9,81.5,19.9z M62.2,85.6
		c-15.9-10.5-20.3-31.9-9.8-47.8c10.1-15.3,30.3-20,46.1-10.9c-0.1,0.2-0.2,0.4-0.4,0.6c-2,3-6.2,9.4-8.2,12.4l-0.4,0.5
		c-0.6,0.1-1.3,0.2-1.9,0.3v-0.1c0.1-0.2,0.1-0.4,0.2-0.6c0.5-1.6,0.5-3.3,0-4.9c-1-2.9-2.8-5.4-5.2-7.2c-0.5-0.6-1.3-0.6-1.9-0.2
		c-0.1,0-0.1,0.1-0.2,0.2c-1,0.9-1.9,1.8-2.8,2.8c-2.4,2.9-3.6,6.1-2.3,9.8c-1.8-0.1-3.6-0.3-5.4-0.3c-2.3,0-2.4,0.2-2.6,2.5v0.1
		c-0.1,3.2,0.3,6.3,2.3,9c0,0,0,0.1,0,0.2c-0.3,0-0.6,0-0.9,0.1c-0.7,0-1.2,0.6-1.2,1.2c-0.4,3.6-0.1,7.2,2.2,10.3c0,0,0,0.1,0,0.2
		h-0.5c-1.3,0.1-1.7,0.5-1.7,1.7c-0.1,1.6,0,3.2,0.2,4.7c0.2,1.7,0.8,3.4,1.8,4.8c-0.3,0.4-0.6,0.9-0.6,1c-2,3-4.1,6-6.1,9
		L62.2,85.6z M79.1,55L79.1,55c0.1,0,0.2,0,0.3,0.1c0.1,0,0.3,0,0.4,0.1c0.3,0,0.6,0.1,0.9,0.1c0.6,0,1.2,0,1.7,0
		c0.3,0,0.6-0.1,0.8-0.1c0.1,0,0.3-0.1,0.4,0c0,0.1-0.1,0.2-0.1,0.2c-0.1,0.1-0.1,0.2-0.2,0.3c-0.6,0.7-1,1.1-1.5,1.9
		c-0.1,0.2-0.3,0.6-0.4,0.8s-0.1,0.3-0.2,0.5c-0.1-0.1-0.2-0.3-0.2-0.4c-0.1-0.3-0.3-0.5-0.4-0.8c-0.2-0.4-0.3-0.8-0.6-1.2
		c-0.1-0.2-0.2-0.3-0.3-0.5c-0.1-0.1-0.1-0.2-0.2-0.2c-0.1-0.1-0.1-0.2-0.2-0.3C79.2,55.2,79,55,79.1,55z M80,64.5
		c0,0.1-0.2,0.3-0.3,0.3c-0.1,0-0.3,0.1-0.5,0.1c-0.3,0-0.7-0.1-1-0.1c-1.1-0.1-2.1-0.3-3.1-0.6c-2.3-0.5-4.1-2.3-4.6-4.6
		c-0.3-1.5-0.5-3-0.6-4.5c0-0.4,0.1-0.5,0.5-0.5c1.8-0.1,3.5,0.2,5.2,0.8c2.5,1,3.7,2.9,4.2,5.5c0.2,1,0.2,2,0.3,3.1
		C80,64.1,80,64.3,80,64.5L80,64.5z M81.4,44.8c-1.9-1.8-3.6-3.8-4-6.5c-0.1-1,0.1-2,0.4-2.9c0.8-1.9,2-3.6,3.6-4.8
		c1.8,1.8,3.5,3.7,3.9,6.3c0.1,0.9,0,1.8-0.2,2.7C84.3,41.6,83.1,43.4,81.4,44.8L81.4,44.8z M79.4,48.1c0.3,1.5,0.4,2.9,0.5,4.4
		c0,0.4-0.1,0.5-0.5,0.5c-1.7,0.1-3.3-0.2-4.9-0.7c-2.7-0.9-4-2.9-4.4-5.6c-0.2-1-0.2-2.1-0.3-3.2c-0.1-0.5,0.2-0.8,0.7-0.7
		c0.2,0,0.4,0,0.7,0v-0.1c1.2,0.2,2.5,0.4,3.7,0.7C77.2,44,78.9,45.8,79.4,48.1L79.4,48.1z M70.4,66.4c1.8-0.1,3.6,0.2,5.3,0.9
		c1.6,0.6,2.8,1.9,3.4,3.4c0.7,1.9,1,3.9,0.8,5.8c-2.3,0.2-4.7-0.3-6.8-1.4c-1.3-0.8-2.3-2-2.7-3.4c-0.5-1.6-0.7-3.2-0.7-4.9
		C69.9,66.5,70,66.3,70.4,66.4L70.4,66.4z M79.1,66.8c0.1,0,0.2,0,0.3,0c0.1,0,0.2,0,0.3,0.1c0.2,0,0.5,0.1,0.7,0.1
		c0.5,0,0.9,0,1.4,0s0.9-0.1,1.4-0.1c0.1,0,0.2,0,0.3-0.1h0.1c0,0,0,0,0,0.1s-0.1,0.1-0.1,0.2s-0.1,0.1-0.2,0.2s-0.2,0.3-0.3,0.4
		c-0.8,0.8-1.3,1.9-1.6,3c-0.1,0.1-0.2-0.1-0.2-0.1c-0.3-0.7-0.5-1.3-0.8-2c-0.2-0.3-0.4-0.7-0.6-1c-0.1-0.1-0.3-0.3-0.4-0.4
		s-0.2-0.1-0.2-0.2C79.1,66.9,79,66.9,79.1,66.8z M84.4,69.4c1.4-2,3.5-2.6,5.7-2.9c0.9-0.1,1.9-0.1,2.9-0.2
		c0.2,2.3-0.2,4.7-1.3,6.8c-0.6,1.1-1.6,2-2.8,2.4c-1.9,0.8-4,1.1-6.1,0.9C82.7,73.9,82.9,71.5,84.4,69.4L84.4,69.4z M91.8,61.1
		c-0.8,1.6-2.3,2.7-4,3.1c-1.5,0.3-2.9,0.5-4.4,0.6c-0.4,0-0.6-0.1-0.5-0.5c0.1-1.5,0.3-3,0.6-4.5c0.5-2.2,2.3-4,4.5-4.6
		c1.6-0.5,3.3-0.7,5-0.5C93.1,56.9,92.7,59.1,91.8,61.1L91.8,61.1z M91.6,49.6c-0.7,1.3-1.9,2.2-3.2,2.7c-1.6,0.6-3.4,0.8-5.1,0.8
		c-0.3,0-0.5-0.1-0.5-0.5c-0.1-1.9,0.3-3.8,1-5.5c0.6-1.4,1.7-2.5,3-3.1c1.9-0.8,4-1.1,6.1-1C93.1,45.2,92.7,47.5,91.6,49.6
		L91.6,49.6z M64.4,87c0.1-0.2,0.2-0.4,0.4-0.5l6.1-8.9l0.4-0.5c1.1,0.8,2.4,1.4,3.8,1.7c0.7,0.2,1.4,0.3,2.1,0.3
		c1,0.1,1.9,0.1,2.9,0.2v5.8c0,1,0.5,1.6,1.3,1.6s1.3-0.6,1.3-1.5c0-1.7,0-3.4,0-5.1v-0.6c1.5-0.1,2.9-0.2,4.2-0.4
		c3.6-0.6,6.4-2.3,7.7-5.9c0.9-2.5,1.2-5.2,0.8-7.9c-0.1-0.6-0.6-1.1-1.2-1.2C93.9,64,93.5,64,93.1,64c0.3-0.5,0.6-0.9,0.9-1.4
		c1.4-2.8,1.8-6,1.3-9.1c-0.1-0.6-0.6-1.1-1.2-1.1c-0.3,0-0.6-0.1-1-0.1c0.4-0.6,0.8-1.3,1.1-2c1.1-2.7,1.5-5.6,1.1-8.5
		c0-0.7-0.6-1.2-1.3-1.1l-1.4-0.1c2.2-3.2,5.7-8.7,7.5-11.4l0.4-0.6c15.8,10.5,20.1,31.9,9.5,47.7c-0.1,0.1-0.1,0.2-0.2,0.3
		C98.8,92.7,78.2,95.2,64.4,87L64.4,87z"/>
</g>
</svg>
