<?xml version="1.0" encoding="utf-8"?>
<!-- Generator: Adobe Illustrator 25.2.0, SVG Export Plug-In . SVG Version: 6.00 Build 0)  -->
<svg version="1.1" id="Layer_1" xmlns="http://www.w3.org/2000/svg" xmlns:xlink="http://www.w3.org/1999/xlink" x="0px" y="0px"
	 viewBox="0 0 162.4 162.4" style="enable-background:new 0 0 162.4 162.4;" xml:space="preserve">
<g>
	<path d="M35.8,113.5c0-0.3,0.1-0.6,0.3-0.8c0.4-0.4,1-0.4,1.4,0c0.2,0.2,0.3,0.5,0.3,0.8v6l7.2-6.6c0.2-0.2,0.6-0.4,0.9-0.4
		c0.2,0,0.5,0.1,0.6,0.3c0.2,0.2,0.3,0.4,0.2,0.6c0,0.3-0.1,0.6-0.4,0.8l-6.7,6l7.4,7.1c0.2,0.2,0.4,0.5,0.3,0.8
		c0,0.2-0.1,0.4-0.3,0.6c-0.2,0.2-0.5,0.3-0.7,0.2c-0.4,0-0.8-0.2-1-0.5l-7.6-7.4v6.8c0,0.3-0.1,0.6-0.3,0.8
		c-0.2,0.2-0.4,0.3-0.7,0.3c-0.3,0-0.5-0.1-0.7-0.3c-0.2-0.2-0.3-0.5-0.3-0.8L35.8,113.5z"/>
	<path d="M47.7,122.6c0-1,0.3-2,0.7-3c0.4-0.9,1-1.7,1.8-2.3c0.8-0.6,1.8-0.9,2.8-0.9c1,0,2,0.3,2.8,0.8c0.8,0.6,1.5,1.4,1.9,2.3
		c0.4,0.9,0.7,1.9,0.7,2.9c0,0.7-0.4,1-1.1,1h-7.6c0,0.7,0.2,1.4,0.5,2c0.3,0.6,0.7,1,1.3,1.3c0.6,0.3,1.2,0.4,1.9,0.4
		c1.2,0,2.4-0.5,3.2-1.3c0.2-0.2,0.5-0.3,0.8-0.4c0.2,0,0.4,0.1,0.5,0.2c0.1,0.2,0.2,0.4,0.2,0.6c0,0.3-0.1,0.5-0.3,0.7
		c-0.5,0.6-1.2,1-1.9,1.3c-0.8,0.3-1.7,0.5-2.6,0.5c-0.9,0-1.8-0.2-2.6-0.6c-0.7-0.3-1.3-0.8-1.8-1.5c-0.4-0.6-0.8-1.3-1-2
		c-0.2-0.7-0.3-1.4-0.3-2.2L47.7,122.6L47.7,122.6z M49.7,122h6.7c0-1-0.3-1.9-0.9-2.7c-0.6-0.7-1.5-1.1-2.4-1.1
		c-0.9,0-1.8,0.3-2.4,1C50.1,120,49.8,121,49.7,122L49.7,122z"/>
	<path d="M61,118.4h-0.9c-0.2,0-0.5-0.1-0.7-0.2c-0.2-0.2-0.3-0.4-0.3-0.6c0-0.5,0.4-0.9,0.9-0.9c0,0,0.1,0,0.1,0H61v-2.7
		c0-0.3,0.1-0.5,0.3-0.7c0.2-0.2,0.4-0.2,0.7-0.2c0.3,0,0.5,0.1,0.7,0.2c0.2,0.2,0.3,0.5,0.3,0.7v2.6h0.9c0.3,0,0.5,0.1,0.7,0.3
		c0.2,0.2,0.3,0.4,0.2,0.6c0,0.2-0.1,0.4-0.2,0.6c-0.2,0.2-0.4,0.2-0.6,0.2h-1v9.6c0,0.3-0.1,0.5-0.3,0.7c-0.2,0.2-0.5,0.3-0.8,0.3
		c-0.2,0-0.5-0.1-0.7-0.3c-0.2-0.2-0.3-0.5-0.3-0.8V118.4z"/>
	<path d="M65.3,122.7c0-1.1,0.2-2.2,0.7-3.2c0.4-0.9,1.1-1.7,1.9-2.2c0.8-0.5,1.8-0.8,2.8-0.8c1,0,2,0.3,2.8,0.9
		c0.8,0.6,1.5,1.4,1.9,2.3c0.4,1,0.7,2,0.6,3.1c0,1.1-0.2,2.1-0.6,3.1c-0.4,0.9-1,1.7-1.9,2.2c-1.7,1.1-3.9,1.1-5.6,0
		c-0.8-0.6-1.5-1.4-1.9-2.3C65.5,124.8,65.3,123.8,65.3,122.7z M67.3,122.7c0,1.1,0.3,2.1,0.8,3.1c0.5,0.9,1.5,1.5,2.5,1.4
		c0.7,0,1.3-0.2,1.9-0.6c0.5-0.4,0.9-1,1.1-1.6c0.3-0.7,0.4-1.5,0.4-2.2c0-0.8-0.1-1.5-0.4-2.3c-0.2-0.6-0.6-1.2-1.1-1.6
		c-0.5-0.4-1.2-0.6-1.8-0.6c-0.7,0-1.3,0.2-1.8,0.6c-0.5,0.4-0.9,1-1.1,1.6C67.4,121.1,67.3,121.9,67.3,122.7z"/>
	<path d="M85.9,127.2L85.9,127.2c-0.3,0.6-0.7,1-1.3,1.3c-0.6,0.3-1.3,0.5-2,0.5c-1,0-1.9-0.3-2.7-0.9c-0.8-0.6-1.4-1.4-1.8-2.3
		c-0.4-1-0.7-2.1-0.7-3.1c0-1.1,0.2-2.2,0.7-3.2c0.8-1.8,2.7-3,4.7-3c0.7,0,1.3,0.1,1.9,0.4c0.5,0.3,0.9,0.8,1.1,1.3l0,0v-0.7
		c0-0.3,0.1-0.5,0.3-0.7c0.2-0.2,0.4-0.3,0.7-0.3c0.3,0,0.5,0.1,0.7,0.3c0.2,0.2,0.3,0.5,0.3,0.8v10.4c0,1-0.2,2-0.6,3
		c-0.4,0.9-1,1.6-1.8,2.1c-0.9,0.5-1.9,0.8-2.9,0.8c-1.3,0-2.6-0.4-3.8-1.1c-0.5-0.3-0.9-0.7-1-1.3c0-0.4,0.4-0.8,0.8-0.8
		c0.5,0.1,0.9,0.3,1.3,0.5c0.4,0.3,0.8,0.5,1.3,0.6c0.5,0.2,1,0.3,1.5,0.3c1,0.1,2-0.4,2.5-1.3c0.6-0.9,0.8-2,0.8-3.1
		c0-0.1,0-0.2,0-0.2L85.9,127.2z M79.5,122.7c0,0.8,0.1,1.5,0.4,2.2c0.2,0.6,0.6,1.2,1.1,1.6c0.5,0.4,1.1,0.6,1.7,0.6
		c1,0,1.9-0.4,2.5-1.2c0.7-0.9,1-2,0.9-3.2c0-0.8-0.1-1.5-0.4-2.2c-0.2-0.7-0.6-1.3-1.2-1.7c-0.6-0.5-1.3-0.7-2-0.7
		c-0.7,0-1.3,0.2-1.8,0.7c-0.5,0.5-0.8,1-1,1.7C79.6,121.3,79.5,122,79.5,122.7L79.5,122.7z"/>
	<path d="M89.9,122.6c0-1,0.3-2,0.7-3c0.4-0.9,1-1.7,1.8-2.3c0.8-0.6,1.8-0.9,2.8-0.9c1,0,2,0.3,2.8,0.8c0.8,0.6,1.5,1.4,1.9,2.3
		c0.4,0.9,0.7,1.9,0.7,2.9c0,0.7-0.4,1-1.1,1h-7.6c0,0.7,0.2,1.4,0.5,2c0.3,0.6,0.7,1,1.3,1.3c0.6,0.3,1.2,0.4,1.8,0.4
		c1.2,0,2.4-0.5,3.3-1.3c0.2-0.2,0.5-0.3,0.8-0.4c0.2,0,0.4,0.1,0.5,0.2c0.1,0.2,0.2,0.4,0.2,0.6c0,0.3-0.1,0.5-0.3,0.7
		c-0.5,0.6-1.2,1-1.9,1.3c-0.8,0.4-1.7,0.5-2.6,0.5c-0.9,0-1.8-0.2-2.6-0.6c-0.7-0.3-1.3-0.8-1.8-1.5c-0.4-0.6-0.8-1.3-1-2
		c-0.2-0.7-0.3-1.4-0.3-2.2L89.9,122.6L89.9,122.6z M91.9,122h6.7c0-1-0.3-1.9-0.9-2.7c-0.6-0.7-1.5-1.1-2.4-1.1
		c-0.9,0-1.8,0.3-2.4,1C92.3,120,91.9,121,91.9,122L91.9,122z"/>
	<path d="M102.6,117.6c0-0.3,0.1-0.6,0.3-0.8c0.4-0.4,1-0.4,1.4,0c0.2,0.2,0.3,0.5,0.3,0.8v0.5l0,0c0.4-0.5,0.9-0.9,1.5-1.2
		c0.6-0.3,1.2-0.4,1.8-0.4c0.7,0,1.4,0.2,2.1,0.5c0.7,0.4,1.2,0.9,1.6,1.6c0.4,0.8,0.6,1.7,0.6,2.6v6.7c0,0.3-0.1,0.5-0.3,0.7
		c-0.2,0.2-0.4,0.3-0.7,0.2c-0.3,0-0.5-0.1-0.7-0.3c-0.2-0.2-0.3-0.4-0.3-0.7v-6.7c0-0.8-0.3-1.6-0.8-2.1c-0.5-0.5-1.2-0.8-2-0.8
		c-0.5,0-1,0.1-1.4,0.3c-0.4,0.2-0.8,0.6-1,1c-0.3,0.5-0.4,1-0.4,1.6v6.7c0,0.3-0.1,0.6-0.3,0.8c-0.2,0.2-0.4,0.3-0.7,0.3
		c-0.3,0-0.5-0.1-0.7-0.3c-0.2-0.2-0.3-0.5-0.3-0.8L102.6,117.6z"/>
	<path d="M115.7,115.1c-0.3,0-0.6-0.1-0.8-0.3c-0.2-0.2-0.3-0.5-0.3-0.8c0-0.3,0.1-0.6,0.3-0.8c0.2-0.2,0.5-0.3,0.8-0.3
		c0.6,0,1.1,0.5,1.1,1.1c0,0,0,0.1,0,0.1C116.9,114.5,116.4,115.1,115.7,115.1C115.8,115.1,115.8,115.1,115.7,115.1z M114.8,117.5
		c0-0.5,0.4-1,0.9-1c0,0,0.1,0,0.1,0c0.3,0,0.5,0.1,0.7,0.3c0.2,0.2,0.3,0.5,0.3,0.8v10.3c0,0.3-0.1,0.6-0.3,0.8
		c-0.2,0.2-0.4,0.3-0.7,0.3c-0.3,0-0.5-0.1-0.7-0.3c-0.2-0.2-0.3-0.5-0.3-0.8V117.5z"/>
	<path d="M127.5,117.6c0,0.1,0.1,0.3,0.1,0.4c0,0.2-0.1,0.4-0.2,0.6c-0.2,0.2-0.4,0.3-0.7,0.3h-0.1l-0.2-0.1l-0.4-0.1
		c-0.3-0.1-0.6-0.2-0.9-0.3c-0.2-0.1-0.5-0.1-0.8-0.1c-0.7,0-1.3,0.2-1.8,0.6c-0.5,0.4-0.9,1-1.2,1.6c-0.3,0.7-0.4,1.4-0.5,2.1
		c0,1.1,0.2,2.1,0.7,3c0.1,0.3,0.3,0.6,0.6,0.8c0.2,0.2,0.5,0.4,0.8,0.5c0.3,0.1,0.7,0.2,1,0.3c0.1,0,0.2,0,0.4,0l0.5-0.1
		c0.2,0,0.3-0.1,0.5-0.1l0.2-0.1l0.3-0.1l0.4-0.2c0.2-0.1,0.3-0.1,0.5-0.1c0.2,0,0.4,0.1,0.5,0.2c0.1,0.2,0.2,0.4,0.2,0.6
		c0,0.6-0.4,1.1-1,1.2c-0.7,0.2-1.4,0.3-2.1,0.3c-1,0-2-0.3-2.9-0.8c-0.8-0.5-1.5-1.3-1.9-2.2c-0.4-0.9-0.7-1.9-0.7-3
		c0-0.8,0.1-1.6,0.3-2.4c0.2-0.7,0.5-1.4,0.9-2.1c0.5-0.6,1-1.1,1.7-1.4c0.8-0.4,1.6-0.6,2.4-0.6c0.7,0,1.4,0.1,2.1,0.3
		C126.8,116.9,127.2,117.2,127.5,117.6z"/>
</g>
<g>
	<path d="M84.2,35.1c1.1-2,2.7-3.6,4.7-4.7c5.7-3.1,12.8-1,15.9,4.7c0.7,1.3,1.1,2.6,1.3,4.1c0.1,0.6,0.1,1.2,0.1,1.9
		c0,4.4,0.1,8.7,0,13.1c-0.1,3.6,1.1,7.1,3.4,10c6.5,8.3,5,20.3-3.3,26.8c-8.3,6.5-20.3,5-26.8-3.3c-0.6-0.7-1.1-1.5-1.6-2.3
		l-0.5-0.9c-0.1,0.6-0.2,1.1-0.3,1.6c-2,8-9.2,10.1-15.1,8.4c-0.8-0.2-1.6-0.3-2.4-0.3c-2.4-0.3-4.6-1.4-6.3-3.1
		c-3.6-3.4-5.7-8.1-5.5-13.1c-0.1-2.9,1.1-5.8,3.2-7.8c0.8-0.7,1.7-1.3,2.6-1.8c0.4-0.2,0.6-0.4,0.6-0.9c0-0.5,0-0.7,0-1.2
		c-1.4-0.2-2.8-0.9-3.9-1.8C48.7,63,47.8,61,47.8,59c0-0.7,0-1.5,0-2.2c-0.1-0.6,0.3-1.1,0.9-1.2c0.1,0,0.2,0,0.3,0
		c1.7,0,3.3,0.6,4.6,1.7l0.6,0.5v-1.2c-1.4-0.2-2.7-0.9-3.8-1.8c-1.6-1.4-2.5-3.3-2.5-5.4c0-0.7,0-1.5,0-2.2
		c-0.1-0.6,0.4-1.1,0.9-1.2c0.1,0,0.2,0,0.3,0c1.7,0,3.3,0.6,4.6,1.7l0.6,0.5c0.1-0.6,0-1.3-0.4-1.8c-2.2-2.7-2.2-6.6,0.1-9.3
		c1-1.2,2.1-2.3,3.2-3.4c0.3-0.5,1-0.6,1.5-0.2c0.1,0.1,0.2,0.2,0.3,0.3c2.4,2.7,2.4,6.7,0.1,9.5c-0.6,0.7-1.3,1.4-2,2.1
		c-0.4,0.3-0.6,0.8-0.5,1.3c0,0.5,0,0.9,0,1.5c1-1,2.2-1.7,3.6-2c0.6-0.1,1.1-0.2,1.7-0.2c0.5-0.1,1,0.3,1,0.7c0,0.1,0,0.1,0,0.2
		c0.2,1.5,0.1,3-0.3,4.5c-0.8,2.5-2.8,4.4-5.3,5l-0.4,0.1l-0.3,0.1c0,0.2,0,0.4,0,0.5v0.6c0.2-0.2,0.4-0.3,0.5-0.4
		c1.3-1.1,2.9-1.7,4.6-1.8c0.9,0,1.3,0.4,1.3,1.2c0.1,1.5,0,3-0.4,4.5c-0.9,2.5-2.8,4.1-5.9,4.9v1c1.4,0.1,2.9,0.3,4.3,0.5
		c0.9,0.2,1.9,0.2,2.9-0.1c4.2-1.1,7.5,0.4,10.3,3.6c0.6,0.7,1.2,1.6,1.8,2.4c0.2-2.1,0.8-4.2,1.7-6.1c0.3-0.6,0.6-1.2,1-1.8
		c0.3-0.4,0.3-0.9,0.1-1.4c-0.7-2.1-1.9-4-3.5-5.6c-3.3-3.3-6.7-6.6-10-10c-4.5-4.6-4.5-11.9,0.1-16.5c1.1-1.1,2.4-1.9,3.8-2.5
		c4.6-1.8,8.8-1,12.5,2.3C82.4,33.1,83.3,34.1,84.2,35.1z M104.1,48L104.1,48c0-2.5,0-5,0-7.6c-0.2-5.3-4.7-9.4-10-9.2
		c-5.1,0.2-9.1,4.3-9.2,9.4c0,4.5-0.1,9,0,13.5c0.1,4-1.3,7.9-3.8,11.1c-3,3.7-4.3,8.6-3.4,13.4c1.3,7.2,7,12.9,14.2,14
		c7.1,1.1,14.1-2.5,17.5-8.8c3.3-6.5,2.7-12.8-1.7-18.6c-2.4-3-3.8-6.8-3.7-10.7C104.2,52.3,104.1,50.2,104.1,48L104.1,48z M80.1,63
		c0.1,0,0.1-0.1,0.2-0.1l0.3-0.4c1.5-2.3,2.3-4.9,2.3-7.6c0-4.6,0-9.1,0-13.7c0-1.2,0.3-2.4,0.4-3.5c0-0.2,0-0.5-0.2-0.7
		c-1.1-1.1-2.2-2.3-3.3-3.3c-2.4-2.3-5.8-3.1-8.9-2.2c-5.1,1.4-8.1,6.6-6.7,11.7c0.4,1.6,1.3,3.1,2.4,4.2c2.9,2.9,5.8,5.8,8.7,8.7
		C77.2,58.1,79.1,60.2,80.1,63L80.1,63z M75.6,82.2l-0.1,0c-0.1-0.7-0.1-1.4-0.2-2c-0.3-3.3-1.8-6.4-4.3-8.7
		c-2.9-2.7-7.4-2.7-10.3,0c-1,0.9-1.9,2-2.6,3.2c-1.7,3-2.3,6.4-1.7,9.8c0.7,4.8,3.6,7.7,8.2,8.3c4.3,0.5,8.4-1.3,10-6.1
		C75.1,85.1,75.4,83.7,75.6,82.2L75.6,82.2z M59.5,69.6c-3.9-1-7.8,1.3-9,5.1c-1.8,5.3,1.1,13,6,15.8c0.1,0,0.2,0.1,0.3,0.1
		C52.5,84.8,53.7,74.5,59.5,69.6L59.5,69.6z M54.9,44.3c0.8-0.9,1.6-1.7,2.4-2.6c0.6-0.8,1-1.7,1.1-2.7c0.1-1.1-0.1-2.2-0.7-3.1
		c-0.8,0.9-1.7,1.7-2.4,2.6C54,40.2,53.8,42.5,54.9,44.3L54.9,44.3z M50,48.3c-0.2,3.1,1.6,5.7,4.2,6C54.4,51.3,52.7,48.7,50,48.3
		L50,48.3z M56.4,54.3c2.8-0.6,4.6-3.2,4.2-6C57.9,48.6,56.1,51.2,56.4,54.3L56.4,54.3z M54.2,63.9c0.3-3-1.8-6-4.2-6
		C49.8,61,51.4,63.4,54.2,63.9L54.2,63.9z M56.4,63.9c2.8-0.5,4.6-3.2,4.1-6C57.7,58.4,56.1,60.8,56.4,63.9L56.4,63.9z"/>
	<path d="M66,66.2h-2.1c-0.6,0.1-1.1-0.4-1.2-1c0-0.1,0-0.2,0-0.3c0.1-2.7,2.2-4.9,5-5.1c1.5-0.1,3,0,4.5,0c0.8,0,1.1,0.5,1.1,1.3
		c-0.1,2.8-2.3,5-5,5.1C67.5,66.2,66.7,66.2,66,66.2L66,66.2z M70.9,61.9c-1.1,0-2.1,0-3.2,0c-1.3,0-2.3,0.9-2.6,2.1
		c1,0,2.1,0,3.1,0C69.4,64,70.5,63.2,70.9,61.9L70.9,61.9z"/>
	<path d="M105.2,75.8c0,5.9-4.8,10.6-10.6,10.6s-10.6-4.8-10.6-10.6c0-5.9,4.8-10.6,10.6-10.6c0,0,0,0,0,0
		C100.5,65.2,105.2,69.9,105.2,75.8z M94.6,67.3c-4.7,0-8.5,3.8-8.5,8.5s3.8,8.5,8.5,8.5c4.7,0,8.5-3.8,8.5-8.5c0,0,0,0,0,0
		C103,71,99.2,67.3,94.6,67.3z"/>
	<path d="M102,40.6L102,40.6c-0.5,0-1-0.4-1-0.9c-0.2-1.4-0.8-2.6-1.8-3.6c-1-1-2.2-1.6-3.6-1.8c-0.5-0.1-0.9-0.5-0.9-1l0,0
		c0-0.6,0.4-1,1-1c0,0,0.1,0,0.1,0c3.7,0.5,6.7,3.5,7.2,7.2c0.1,0.6-0.3,1.1-0.9,1.2C102,40.6,102,40.6,102,40.6z"/>
	<path d="M68.1,35.5L68.1,35.5c-0.4-0.4-0.5-1-0.1-1.5c0,0,0.1-0.1,0.1-0.1c3-2.2,7.1-2.3,10.1-0.1c0.5,0.4,0.6,1,0.2,1.5
		c0,0.1-0.1,0.1-0.1,0.1l0,0c-0.4,0.3-0.9,0.4-1.3,0.1c-2.2-1.7-5.3-1.6-7.5,0.1C69,35.9,68.5,35.8,68.1,35.5z"/>
	<path d="M73.3,83.2c0,4.1-3.3,7.4-7.5,7.4c-4.1,0-7.4-3.3-7.4-7.5c0-4.1,3.3-7.4,7.5-7.4c0,0,0,0,0,0C70,75.8,73.3,79.1,73.3,83.2z
		 M71.2,83.2c0-2.9-2.4-5.3-5.3-5.3c-2.9,0-5.3,2.4-5.3,5.3c0,2.9,2.3,5.3,5.2,5.3C68.7,88.5,71.1,86.2,71.2,83.2L71.2,83.2z"/>
	<path d="M100.8,75.7L100.8,75.7c-0.5,0-0.9-0.3-1-0.8c-0.6-2.5-1.9-3.9-4.3-4.4c-0.5-0.1-0.9-0.5-0.9-1.1l0,0
		c0-0.6,0.5-1.1,1.1-1.1c0,0,0.1,0,0.1,0c3.1,0.5,5.5,3,6,6.1c0.1,0.6-0.3,1.1-0.9,1.2C100.9,75.7,100.9,75.7,100.8,75.7z"/>
</g>
</svg>
