<?xml version="1.0" encoding="utf-8"?>
<!-- Generator: Adobe Illustrator 25.2.0, SVG Export Plug-In . SVG Version: 6.00 Build 0)  -->
<svg version="1.1" id="Layer_1" xmlns="http://www.w3.org/2000/svg" xmlns:xlink="http://www.w3.org/1999/xlink" x="0px" y="0px"
	 viewBox="0 0 162.4 162.4" style="enable-background:new 0 0 162.4 162.4;" xml:space="preserve">
<g>
	<path d="M38.7,91.4c0-0.3,0.1-0.6,0.3-0.8c0.2-0.2,0.5-0.3,0.7-0.3c0.6,0,0.9,0.4,0.9,1.2v13.4h4.1c0.3,0,0.6,0.1,0.8,0.2
		s0.4,0.4,0.4,0.7c0,0.3-0.1,0.6-0.3,0.8c-0.2,0.1-0.3,0.2-0.5,0.2h-5.5c-0.2,0-0.5-0.1-0.6-0.3c-0.2-0.1-0.3-0.5-0.3-0.9L38.7,91.4
		z"/>
	<path d="M55.2,96.1v-0.7c0-0.3,0.1-0.5,0.3-0.7s0.4-0.3,0.7-0.3c0.2,0,0.5,0.1,0.6,0.3c0.2,0.2,0.3,0.5,0.3,0.8v10.4
		c0,0.3-0.1,0.6-0.3,0.8c-0.2,0.2-0.4,0.3-0.6,0.2c-0.2,0-0.5-0.1-0.7-0.2c-0.2-0.2-0.3-0.4-0.3-0.7v-1l0,0
		c-0.7,1.1-1.9,1.8-3.2,1.8c-1,0-1.9-0.3-2.8-0.8c-0.8-0.5-1.5-1.3-2-2.2c-1-2.1-1-4.6,0-6.7c0.5-0.9,1.2-1.6,2-2.1
		c0.7-0.4,1.6-0.7,2.4-0.7c0.6,0,1.3,0.1,1.9,0.4C54.2,95.2,54.7,95.6,55.2,96.1L55.2,96.1z M48.5,100.7c0,0.7,0.1,1.5,0.4,2.2
		c0.2,0.6,0.6,1.2,1.1,1.6s1.1,0.7,1.8,0.6c1,0.1,2-0.4,2.6-1.3c0.5-1,0.8-2.1,0.8-3.2c0-0.8-0.1-1.6-0.4-2.4
		c-0.2-0.6-0.6-1.2-1.2-1.5c-0.5-0.4-1.1-0.6-1.7-0.5l0,0c-1,0-1.9,0.5-2.4,1.3C48.8,98.4,48.5,99.5,48.5,100.7L48.5,100.7z"/>
	<path d="M67.9,95.6c0,0.1,0.1,0.3,0.1,0.4c0,0.2-0.1,0.4-0.2,0.6c-0.2,0.2-0.4,0.3-0.6,0.3H67l-0.2-0.1l-0.4-0.1
		c-0.3-0.1-0.6-0.2-0.9-0.3c-0.2-0.1-0.5-0.1-0.8-0.1c-0.7,0-1.3,0.2-1.8,0.6s-0.9,1-1.2,1.6c-0.3,0.7-0.4,1.4-0.5,2.1
		c0,1.1,0.2,2.1,0.7,3c0.1,0.3,0.3,0.6,0.6,0.8c0.2,0.2,0.5,0.4,0.8,0.5s0.7,0.2,1,0.3c0.1,0,0.2,0,0.4,0l0.5-0.1
		c0.2,0,0.3-0.1,0.5-0.1l0.2-0.1l0.3-0.1l0.4-0.2c0.2-0.1,0.3-0.1,0.5-0.1s0.4,0.1,0.5,0.2c0.2,0.2,0.2,0.4,0.2,0.6
		c0,0.6-0.4,1.2-1,1.3c-0.7,0.2-1.4,0.3-2.1,0.3c-1,0-2-0.3-2.9-0.8c-0.8-0.5-1.5-1.3-1.9-2.2c-0.4-0.9-0.7-1.9-0.7-3
		c0-0.8,0.1-1.6,0.3-2.4c0.2-0.7,0.5-1.4,0.9-2.1c0.5-0.6,1-1.1,1.7-1.4c0.8-0.4,1.6-0.6,2.4-0.6c0.7,0,1.4,0.1,2.1,0.3
		C67.2,95,67.6,95.2,67.9,95.6z"/>
	<path d="M70.5,96.3h-0.9c-0.2,0-0.5-0.1-0.7-0.2c-0.2-0.2-0.3-0.4-0.3-0.6c0-0.5,0.4-0.9,0.9-0.9h0.1h0.9v-2.7
		c0-0.3,0.1-0.5,0.3-0.7C71,91,71.2,91,71.5,91c0.3,0,0.5,0.1,0.7,0.2c0.2,0.2,0.3,0.5,0.3,0.7v2.6h0.9c0.3,0,0.5,0.1,0.7,0.3
		c0.2,0.2,0.3,0.4,0.2,0.6c0,0.2-0.1,0.4-0.2,0.6c-0.2,0.2-0.4,0.2-0.6,0.2h-1v9.6c0,0.3-0.1,0.5-0.3,0.7c-0.2,0.2-0.5,0.3-0.8,0.3
		c-0.2,0-0.5-0.1-0.7-0.3c-0.2-0.2-0.3-0.5-0.3-0.8v-9.4H70.5z"/>
	<path d="M74.8,100.7c0-1.1,0.2-2.2,0.7-3.2c0.4-0.9,1.1-1.7,1.9-2.2s1.8-0.8,2.8-0.8s2,0.3,2.8,0.9s1.5,1.4,1.9,2.3
		c0.4,1,0.7,2,0.6,3.1c0,1.1-0.2,2.1-0.6,3.1c-0.4,0.9-1,1.7-1.9,2.2c-1.7,1.1-3.9,1.1-5.6,0c-0.8-0.6-1.5-1.4-1.9-2.3
		C75,102.8,74.8,101.7,74.8,100.7z M76.8,100.7c0,1.1,0.3,2.1,0.8,3.1c0.5,0.9,1.5,1.5,2.5,1.4c0.7,0,1.3-0.2,1.9-0.6
		c0.5-0.4,0.9-1,1.1-1.6c0.3-0.7,0.4-1.5,0.4-2.2c0-0.8-0.1-1.5-0.4-2.3c-0.2-0.6-0.6-1.2-1.1-1.6s-1.2-0.6-1.8-0.6
		c-0.7,0-1.3,0.2-1.8,0.6s-0.9,1-1.1,1.6C76.9,99.1,76.8,99.9,76.8,100.7z"/>
	<path d="M92.4,100.7c0-1.1,0.2-2.2,0.7-3.2c0.4-0.9,1.1-1.7,1.9-2.2s1.8-0.8,2.8-0.8s2,0.3,2.8,0.9s1.5,1.4,1.9,2.3
		c0.4,1,0.6,2,0.6,3.1s-0.2,2.1-0.6,3.1c-0.4,0.9-1.1,1.7-1.9,2.2c-1.7,1.1-3.9,1.1-5.7,0c-0.8-0.6-1.5-1.4-1.9-2.3
		C92.6,102.8,92.4,101.7,92.4,100.7z M94.4,100.7c0,1.1,0.3,2.1,0.8,3.1c0.5,0.9,1.5,1.5,2.5,1.4c0.7,0,1.3-0.2,1.9-0.6
		c0.5-0.4,0.9-1,1.1-1.6c0.3-0.7,0.4-1.5,0.4-2.2c0-0.8-0.1-1.5-0.4-2.3c-0.2-0.6-0.6-1.2-1.1-1.6s-1.2-0.6-1.8-0.6
		c-0.7,0-1.3,0.2-1.8,0.6s-0.9,1-1.1,1.6C94.6,99.1,94.4,99.9,94.4,100.7z"/>
	<path d="M104.1,95.9c0,0-0.1-0.3-0.2-0.7c0-0.3,0.1-0.5,0.3-0.7c0.2-0.2,0.4-0.3,0.7-0.3c0.5,0,1,0.3,1.1,0.8l2.8,8.5l2.8-8.5
		c0.1-0.4,0.5-0.7,0.9-0.7c0.3,0,0.5,0.1,0.7,0.3c0.2,0.2,0.3,0.4,0.3,0.7c0,0.2,0,0.3-0.1,0.5l-3.6,10.2c-0.1,0.2-0.2,0.5-0.4,0.6
		c-0.2,0.1-0.4,0.2-0.7,0.2c-0.5,0-0.9-0.3-1-0.8L104.1,95.9z"/>
	<path d="M114.3,100.7c0-1.1,0.2-2.2,0.7-3.2c0.4-0.9,1.1-1.7,1.9-2.2s1.8-0.8,2.8-0.8s2,0.3,2.8,0.9s1.5,1.4,1.9,2.3
		c0.4,1,0.7,2,0.6,3.1c0,1.1-0.2,2.1-0.6,3.1c-0.4,0.9-1,1.7-1.9,2.2c-1.7,1.1-3.9,1.1-5.7,0c-0.8-0.6-1.5-1.4-1.9-2.3
		C114.5,102.8,114.3,101.7,114.3,100.7z M116.3,100.7c0,1.1,0.3,2.1,0.8,3.1c0.5,0.9,1.5,1.5,2.5,1.4c0.7,0,1.3-0.2,1.9-0.6
		c0.5-0.4,0.9-1,1.1-1.6c0.3-0.7,0.4-1.5,0.4-2.2c0-0.8-0.1-1.5-0.4-2.3c-0.2-0.6-0.6-1.2-1.1-1.6s-1.2-0.6-1.8-0.6
		c-0.7,0-1.3,0.2-1.8,0.6s-0.9,1-1.1,1.6C116.4,99.1,116.3,99.9,116.3,100.7L116.3,100.7z"/>
	<path d="M31.3,118c-0.1-0.2-0.1-0.5-0.2-0.7c0-0.3,0.1-0.5,0.3-0.7c0.2-0.2,0.4-0.3,0.7-0.3c0.5,0,1,0.3,1.1,0.8l2.8,8.5l2.9-8.5
		c0.1-0.4,0.5-0.7,0.9-0.7c0.3,0,0.5,0.1,0.7,0.3c0.2,0.2,0.3,0.4,0.3,0.7c0,0.2,0,0.3-0.1,0.5L37,128.1c-0.1,0.2-0.2,0.5-0.4,0.6
		s-0.4,0.2-0.7,0.2c-0.5,0-0.9-0.3-1-0.8L31.3,118z"/>
	<path d="M41.3,122.6c0-1,0.3-2,0.7-3c0.4-0.9,1-1.7,1.8-2.3c0.8-0.6,1.8-0.9,2.8-0.9s2,0.3,2.8,0.8c0.8,0.6,1.5,1.4,1.9,2.3
		s0.7,1.9,0.7,2.9c0,0.6-0.4,1-1.1,1h-7.6c0,0.7,0.2,1.4,0.5,2s0.7,1,1.3,1.3s1.2,0.4,1.8,0.4c1.2,0,2.4-0.5,3.3-1.3
		c0.2-0.2,0.5-0.3,0.8-0.4c0.2,0,0.4,0.1,0.5,0.2c0.1,0.2,0.2,0.4,0.2,0.6c0,0.3-0.1,0.5-0.3,0.7c-0.5,0.6-1.2,1-1.9,1.3
		c-0.8,0.3-1.7,0.5-2.6,0.5c-0.9,0-1.8-0.2-2.6-0.6c-0.7-0.3-1.3-0.8-1.8-1.5c-0.4-0.6-0.8-1.3-1-2s-0.3-1.4-0.3-2.2L41.3,122.6
		L41.3,122.6z M43.3,122H50c0-1-0.3-1.9-0.9-2.7c-1.3-1.3-3.4-1.4-4.7-0.2l-0.1,0.1C43.7,120,43.3,121,43.3,122L43.3,122z"/>
	<path d="M61.9,127.2L61.9,127.2c-0.3,0.6-0.7,1-1.3,1.3s-1.3,0.5-2,0.5c-1,0-1.9-0.3-2.7-0.9c-0.8-0.6-1.4-1.4-1.8-2.3
		c-0.4-1-0.7-2.1-0.7-3.1c0-1.1,0.2-2.2,0.7-3.2c0.4-0.9,1.1-1.6,1.9-2.2c0.8-0.5,1.8-0.8,2.8-0.8c0.7,0,1.3,0.1,1.9,0.4
		c0.5,0.3,0.9,0.7,1.1,1.3l0,0v-0.7c0-0.3,0.1-0.5,0.3-0.7s0.4-0.3,0.7-0.3s0.5,0.1,0.7,0.3c0.2,0.2,0.3,0.5,0.3,0.8V128
		c0,1-0.2,2-0.6,3c-0.4,0.9-1,1.6-1.8,2.1c-0.9,0.5-1.9,0.8-2.9,0.8c-1.3,0-2.6-0.4-3.8-1.1c-0.5-0.3-0.9-0.7-1-1.3
		c0.1-0.4,0.4-0.8,0.8-0.8c0.5,0.1,0.9,0.3,1.3,0.5c0.4,0.3,0.8,0.5,1.3,0.6c0.5,0.2,1,0.3,1.5,0.3c1,0.1,2-0.4,2.5-1.3
		c0.6-0.9,0.8-2,0.8-3.1c0-0.1,0-0.2,0-0.2V127.2z M55.4,122.8c0,0.8,0.1,1.5,0.4,2.2c0.2,0.6,0.6,1.2,1.1,1.6s1.1,0.6,1.7,0.6
		c1,0,1.9-0.4,2.5-1.2c0.7-0.9,1-2,1-3.2c0-0.8-0.1-1.5-0.4-2.2c-0.2-0.7-0.6-1.3-1.2-1.7c-0.6-0.5-1.3-0.7-2-0.7s-1.3,0.2-1.8,0.7
		s-0.8,1-1,1.7S55.4,122,55.4,122.8L55.4,122.8z"/>
	<path d="M65.9,122.6c0-1,0.3-2,0.7-3c0.4-0.9,1-1.7,1.8-2.3c0.8-0.6,1.8-0.9,2.8-0.9s2,0.3,2.8,0.8c0.8,0.6,1.5,1.4,1.9,2.3
		s0.7,1.9,0.7,2.9c0,0.6-0.4,1-1.1,1h-7.6c0,0.7,0.2,1.4,0.5,2s0.7,1,1.3,1.3c0.6,0.3,1.2,0.4,1.8,0.4c1.2,0,2.4-0.5,3.3-1.3
		c0.2-0.2,0.5-0.3,0.8-0.4c0.2,0,0.4,0.1,0.5,0.2c0.1,0.2,0.2,0.4,0.2,0.6c0,0.3-0.1,0.5-0.3,0.7c-0.5,0.6-1.2,1-1.9,1.3
		c-0.8,0.3-1.7,0.5-2.6,0.5s-1.8-0.2-2.6-0.6c-0.7-0.3-1.3-0.8-1.8-1.5c-0.4-0.6-0.8-1.3-1-2s-0.3-1.4-0.3-2.2L65.9,122.6
		L65.9,122.6z M67.9,122h6.7c0-1-0.3-1.9-0.9-2.7c-0.6-0.7-1.5-1.1-2.4-1.1s-1.8,0.3-2.4,1C68.2,120,67.9,121,67.9,122z"/>
	<path d="M79.1,118.4h-0.9c-0.2,0-0.5-0.1-0.7-0.2c-0.2-0.2-0.3-0.4-0.3-0.6c0-0.5,0.4-0.9,0.9-0.9h0.1h0.9V114
		c0-0.3,0.1-0.5,0.3-0.7c0.2-0.2,0.4-0.2,0.7-0.2c0.3,0,0.5,0.1,0.7,0.2c0.2,0.2,0.3,0.5,0.3,0.7v2.6H82c0.3,0,0.5,0.1,0.7,0.3
		c0.2,0.2,0.3,0.4,0.2,0.6c0,0.2-0.1,0.4-0.2,0.6c-0.2,0.2-0.4,0.2-0.6,0.2h-1v9.6c0,0.3-0.1,0.5-0.3,0.7c-0.2,0.2-0.5,0.3-0.8,0.3
		c-0.2,0-0.5-0.1-0.6-0.3c-0.2-0.2-0.3-0.5-0.3-0.8C79.1,127.8,79.1,118.4,79.1,118.4z"/>
	<path d="M92.1,118.2v-0.7c0-0.3,0.1-0.5,0.3-0.7c0.2-0.2,0.4-0.3,0.7-0.3c0.2,0,0.5,0.1,0.7,0.3c0.2,0.2,0.3,0.5,0.3,0.8V128
		c0,0.3-0.1,0.6-0.3,0.8c-0.2,0.2-0.4,0.3-0.7,0.2c-0.2,0-0.5-0.1-0.7-0.2c-0.2-0.2-0.3-0.4-0.3-0.7v-0.9l0,0
		c-0.7,1.1-1.9,1.8-3.2,1.8c-2,0-3.9-1.1-4.8-2.9c-0.5-1-0.7-2.1-0.7-3.2c0-1.2,0.2-2.4,0.8-3.5c0.5-0.9,1.2-1.6,2-2.1
		c0.7-0.4,1.6-0.7,2.4-0.7c0.6,0,1.3,0.1,1.9,0.4C91.2,117.3,91.7,117.7,92.1,118.2L92.1,118.2z M85.4,122.8c0,0.7,0.1,1.5,0.4,2.2
		c0.2,0.6,0.6,1.2,1.1,1.6s1.1,0.7,1.8,0.6c1,0.1,2-0.4,2.6-1.3c0.5-1,0.8-2.1,0.8-3.2c0-0.8-0.1-1.7-0.4-2.4
		c-0.2-0.6-0.6-1.2-1.2-1.5c-0.5-0.4-1.1-0.6-1.7-0.5l0,0c-1,0-1.9,0.5-2.4,1.3C85.7,120.5,85.4,121.6,85.4,122.8z"/>
	<path d="M96.7,117.6c0-0.3,0.1-0.6,0.3-0.7c0.2-0.2,0.4-0.3,0.7-0.3c0.3,0,0.5,0.1,0.7,0.3c0.2,0.2,0.3,0.5,0.3,0.7v1l0,0
		c0.3-0.5,0.7-1,1.2-1.4c0.4-0.4,1-0.6,1.5-0.7c0.3,0,0.6,0.1,0.8,0.3c0.2,0.2,0.3,0.4,0.3,0.7c0,0.3-0.1,0.6-0.3,0.8
		c-0.3,0.2-0.7,0.3-1,0.4s-0.6,0.2-0.9,0.3c-0.5,0.3-0.9,0.7-1.2,1.2c-0.3,0.6-0.4,1.2-0.4,1.8v5.9c0,0.3-0.1,0.6-0.3,0.8
		c-0.2,0.2-0.4,0.3-0.7,0.3c-0.3,0-0.5-0.1-0.7-0.3s-0.3-0.5-0.3-0.8V117.6z"/>
	<path d="M104.8,115.1c-0.3,0-0.6-0.1-0.8-0.3c-0.2-0.2-0.3-0.5-0.3-0.8s0.1-0.6,0.3-0.8c0.2-0.2,0.5-0.3,0.8-0.3s0.6,0.1,0.8,0.3
		c0.4,0.5,0.4,1.2,0,1.6C105.4,115,105.1,115.1,104.8,115.1z M103.8,117.6c0-0.5,0.4-1,0.9-1h0.1c0.3,0,0.5,0.1,0.7,0.3
		c0.2,0.2,0.3,0.5,0.3,0.8V128c0,0.3-0.1,0.6-0.3,0.8c-0.4,0.4-1,0.4-1.4,0c-0.2-0.2-0.3-0.5-0.3-0.8
		C103.8,128,103.8,117.6,103.8,117.6z"/>
	<path d="M116.6,118.2v-0.7c0-0.3,0.1-0.5,0.3-0.7c0.2-0.2,0.4-0.3,0.7-0.3c0.2,0,0.5,0.1,0.6,0.3c0.2,0.2,0.3,0.5,0.3,0.8V128
		c0,0.3-0.1,0.6-0.3,0.8c-0.2,0.2-0.4,0.3-0.6,0.2c-0.2,0-0.5-0.1-0.7-0.2c-0.2-0.2-0.3-0.4-0.3-0.7v-0.9l0,0
		c-0.7,1.1-1.9,1.8-3.2,1.8c-2,0-3.9-1.1-4.8-2.9c-0.9-2.1-0.9-4.6,0.1-6.7c0.5-0.9,1.2-1.6,2-2.1c0.7-0.4,1.6-0.7,2.4-0.7
		c0.6,0,1.3,0.1,1.9,0.4C115.6,117.3,116.2,117.7,116.6,118.2L116.6,118.2z M109.9,122.8c0,0.7,0.1,1.5,0.4,2.2
		c0.2,0.6,0.6,1.2,1.1,1.6s1.1,0.7,1.8,0.6c1,0.1,2-0.4,2.6-1.3c0.5-1,0.8-2.1,0.8-3.2c0-0.8-0.1-1.6-0.4-2.4
		c-0.2-0.6-0.6-1.2-1.2-1.5c-0.5-0.4-1.1-0.6-1.7-0.5l0,0c-1,0-1.9,0.5-2.4,1.3C110.2,120.5,109.9,121.6,109.9,122.8z"/>
	<path d="M121.1,117.6c0-0.3,0.1-0.6,0.3-0.8c0.4-0.4,1-0.4,1.4,0c0.2,0.2,0.3,0.5,0.3,0.8v0.5l0,0c0.8-1,2-1.6,3.3-1.6
		c0.7,0,1.4,0.2,2.1,0.5c0.7,0.4,1.2,0.9,1.6,1.6c0.4,0.8,0.6,1.7,0.6,2.6v6.8c0,0.3-0.1,0.5-0.3,0.7s-0.4,0.3-0.7,0.2
		c-0.3,0-0.5-0.1-0.7-0.3s-0.3-0.4-0.3-0.7v-6.7c0-0.8-0.3-1.6-0.8-2.1s-1.2-0.8-2-0.8c-0.5,0-1,0.1-1.4,0.3c-0.4,0.2-0.8,0.6-1,1
		c-0.3,0.5-0.4,1-0.4,1.6v6.7c0,0.3-0.1,0.6-0.3,0.8c-0.2,0.2-0.4,0.3-0.7,0.3c-0.3,0-0.5-0.1-0.7-0.3s-0.3-0.5-0.3-0.8L121.1,117.6
		z"/>
</g>
<g>
	<path d="M73.6,60.9c0.1-0.3,0.1-0.5,0.1-0.8c0-0.2-0.1-0.3-0.1-0.4l-0.1-0.2c-0.1-0.5-0.3-1-0.4-1.5c-0.3-0.9-0.7-1.8-1.1-2.7
		c-0.8-1.6-2-3.1-3.4-4.2c-0.2-0.2-0.4-0.3-0.7-0.3c-0.3,0-0.5,0.1-0.7,0.4c-0.3,0.4-0.3,0.9,0.1,1.3l0.1,0.1c1.9,1.7,3.3,3.9,4,6.4
		c0.1,0.3,0.2,0.6,0.2,0.8c0.1,0.2,0.2,0.7,0.3,1c0.1,0.4,0.5,0.6,0.9,0.6C73.1,61.3,73.4,61.1,73.6,60.9z"/>
	<path d="M117.8,37.8h-0.9c-5.9-0.1-11.8,0.6-17.5,2c-1.1,0.3-2.2,0.6-3.3,1l-1.3,0.4c-0.2-2.5-0.8-4.9-1.9-7.2l-0.7-1.3
		c-0.8-1.6-1.6-3.2-2.5-4.9c-0.2-0.3-0.3-0.7-0.3-1.1c0-1.4,0-2.9,0-4.4v-2.4c0-1-0.3-1.2-1.2-1.2H69.9c-1,0-1.3,0.3-1.3,1.3v2.2
		c0,1.5,0,3,0,4.5c0,0.4-0.1,0.7-0.2,1c-0.6,1.3-1.3,2.6-1.9,3.8c-0.3,0.6-0.6,1.2-0.9,1.8C64.2,36,63.3,39,63.2,42
		c-1.5,0.3-3,0.9-4.2,1.7c-2.5,1.6-4.5,3.8-5.9,6.3c-2.4,4-3.8,8.5-4,13.1c-0.4,4.8,1.3,9.5,4.5,13c3,3.2,7.1,5.1,11.5,5.1
		c1.8,0,3.5-0.3,5.2-0.9c4.2-1.6,7.5-4.7,9.3-8.8H88c0.4,0,0.7,0.1,1,0.3c2.8,1.9,6.1,2.9,9.5,3l0,0c3.2-0.1,6.3-1,9-2.6
		c3.5-2,5.9-5.2,7.8-9.9c2.5-6.5,3.7-13.8,3.8-23.5C119,38.2,118.6,37.8,117.8,37.8z M64.9,79.6c-4.1,0-8-1.8-10.6-5
		c-2.7-3.2-4-7.4-3.6-11.6c0.3-4.2,1.5-8.2,3.6-11.8c1.2-2.1,2.9-4,4.9-5.4c1.2-0.8,2.6-1.4,4-1.7c0.5-0.1,0.9-0.1,1.4-0.2h0.2
		c2.1,0.1,4.1,0.8,5.8,2.1c3,2.3,5.3,5.3,6.6,8.8c1.4,3.4,2,7,1.9,10.6c0,2.1-0.5,4.1-1.4,6c-1.2,2.5-3.1,4.5-5.4,6
		C70.1,78.8,67.6,79.6,64.9,79.6L64.9,79.6z M70.4,26.6v-6h17.2v6H70.4z M70.4,28.5v-0.2l0,0V28.5h17.2c0.3,0,0.6,0.1,0.7,0.4
		c0.4,0.8,0.8,1.5,1.2,2.3c0.7,1.3,1.4,2.6,2,4c0.4,1,0.7,2,1,3c0.1,0.4,0.2,0.8,0.4,1.2c0,0.1,0,0.3,0,0.4l0,0H65.1l0,0
		c0-0.2,0-0.3,0.1-0.5c0.2-0.4,0.3-0.8,0.4-1.3c0.4-1.1,0.8-2.3,1.3-3.4c0.6-1.2,1.2-2.5,1.8-3.6c0.4-0.7,0.7-1.4,1.1-2.1
		C69.8,28.6,70.2,28.4,70.4,28.5L70.4,28.5z M72.2,44.8c-2.1-1.8-4.7-2.7-7.4-2.8h-0.1v-0.3H93c0,0.1,0,0.2,0,0.2
		c0,0.1-0.3,0.2-0.5,0.4c-3.5,1.6-6.4,4.2-8.4,7.5c-1.8,3.1-2.6,6.8-2.2,10.4c0.4,3.6,2,7,4.4,9.6l0.1,0.1h-6.3
		c0.6-1.8,0.8-3.6,0.8-5.4c-0.1-4.1-1-8.1-2.8-11.8C76.8,49.6,74.8,46.9,72.2,44.8L72.2,44.8z M87.4,68.1c-3.3-3.7-4.5-8.8-3.2-13.5
		c1.3-5.5,5-9.2,11.4-11.7c0,0.3,0,0.6,0,0.9c0,0.9,0,1.7,0,2.5c0.1,2,0.1,4,0.2,6.1c0.1,2.2,0.1,4.4,0.2,6.6c0,0.2-0.1,0.4-0.2,0.6
		c-2.5,2.5-5,5-7.4,7.4L87.4,68.1L87.4,68.1z M113.9,39.7l1.6-0.1L97.7,57.4c0-0.4,0-0.8-0.1-1.3c0-1.3-0.1-2.7-0.1-4
		c-0.1-3-0.2-6.2-0.3-9.3c0-0.4,0.1-0.4,0.4-0.5c3.6-1.1,7.4-1.9,11.2-2.2C110.5,39.9,112.2,39.8,113.9,39.7L113.9,39.7z M89.4,68.6
		l1.9-1.9l1.4-1.4c1.4-1.4,2.7-2.8,4.1-4.1c0.2-0.2,0.4-0.3,0.7-0.3v-0.2l0,0v0.2c4.6,0.1,9.2,0.3,13.6,0.4l2.3,0.1h0.1
		c-2.2,6.6-7.1,10.9-13.3,11.6c-0.7,0.1-1.3,0.1-2,0.1c-3.3,0-6.5-1.1-9-3.2c-0.2-0.1-0.3-0.3-0.5-0.4l-0.1-0.1L89.4,68.6z
		 M113.7,59.6L113.7,59.6c-3.6-0.1-7.2-0.3-10.7-0.4l-3.8-0.1h-0.1l18-18c-0.1,6.1-1,12.1-2.6,17.9
		C114.4,59.5,114.2,59.6,113.7,59.6L113.7,59.6z"/>
</g>
</svg>
