<?xml version="1.0" encoding="utf-8"?>
<!-- Generator: Adobe Illustrator 25.2.0, SVG Export Plug-In . SVG Version: 6.00 Build 0)  -->
<svg version="1.1" id="Layer_1" xmlns="http://www.w3.org/2000/svg" xmlns:xlink="http://www.w3.org/1999/xlink" x="0px" y="0px"
	 viewBox="0 0 162.4 162.4" style="enable-background:new 0 0 162.4 162.4;" xml:space="preserve">
<g>
	<path d="M35.2,113.5c0-0.3,0.1-0.6,0.3-0.8c0.2-0.2,0.4-0.3,0.7-0.3h4c0.7,0,1.4,0.1,2,0.3c0.6,0.2,1.2,0.5,1.7,1
		c0.5,0.5,0.9,1,1.2,1.6c0.3,0.7,0.4,1.4,0.4,2.2c0,0.7-0.1,1.3-0.4,2c-0.2,0.6-0.6,1.2-1.1,1.6c-0.9,0.9-2.2,1.5-3.5,1.5h-3.3v5.2
		c0,0.3-0.1,0.5-0.3,0.7c-0.4,0.4-1,0.4-1.4,0c-0.2-0.2-0.3-0.5-0.3-0.8V113.5z M37.2,114.2v6.7h2.8c1.8,0.1,3.4-1.3,3.4-3.1
		c0-0.1,0-0.2,0-0.3c0.1-0.9-0.3-1.8-0.9-2.4c-0.7-0.6-1.5-0.9-2.4-0.9H37.2z"/>
	<path d="M55.2,118.1v-0.7c0-0.3,0.1-0.5,0.3-0.7c0.2-0.2,0.4-0.3,0.7-0.3c0.2,0,0.5,0.1,0.7,0.3c0.2,0.2,0.3,0.5,0.3,0.8v10.4
		c0,0.3-0.1,0.6-0.3,0.8c-0.2,0.2-0.4,0.3-0.7,0.2c-0.2,0-0.5-0.1-0.7-0.2c-0.2-0.2-0.3-0.4-0.3-0.7v-0.9l0,0
		c-0.7,1.1-1.9,1.8-3.2,1.8c-1,0-1.9-0.3-2.8-0.8c-0.8-0.5-1.5-1.3-2-2.2c-1-2.1-1-4.6,0-6.7c0.5-0.9,1.2-1.6,2-2.1
		c0.7-0.4,1.6-0.7,2.4-0.7c0.6,0,1.3,0.1,1.9,0.4C54.2,117.2,54.7,117.7,55.2,118.1L55.2,118.1z M48.5,122.7c0,0.7,0.1,1.5,0.4,2.2
		c0.2,0.6,0.6,1.2,1.1,1.6c0.5,0.4,1.1,0.7,1.8,0.6c1,0.1,2-0.4,2.6-1.3c0.5-1,0.8-2.1,0.8-3.2c0-0.8-0.1-1.6-0.4-2.4
		c-0.2-0.6-0.6-1.2-1.2-1.5c-0.5-0.4-1.1-0.6-1.7-0.5l0,0c-1,0-1.9,0.5-2.4,1.3C48.8,120.5,48.5,121.6,48.5,122.7z"/>
	<path d="M59.8,112.2c0-0.3,0.1-0.6,0.3-0.8c0.2-0.2,0.4-0.3,0.7-0.3c0.3,0,0.5,0.1,0.7,0.3c0.2,0.2,0.3,0.5,0.3,0.7v15.6
		c0,0.3-0.1,0.6-0.3,0.8c-0.2,0.2-0.4,0.3-0.7,0.3c-0.3,0-0.5-0.1-0.7-0.3c-0.2-0.2-0.3-0.5-0.3-0.8V112.2z"/>
	<path d="M63.6,122.6c0-1,0.3-2,0.7-3c0.4-0.9,1-1.7,1.8-2.3c0.8-0.6,1.8-0.9,2.8-0.9c1,0,2,0.3,2.8,0.8c0.8,0.6,1.5,1.4,1.9,2.3
		c0.4,0.9,0.7,1.9,0.7,2.9c0,0.7-0.4,1-1.1,1h-7.6c0,0.7,0.2,1.4,0.5,2c0.3,0.6,0.7,1,1.3,1.3c0.6,0.3,1.2,0.4,1.8,0.4
		c1.2,0,2.4-0.5,3.3-1.3c0.2-0.2,0.5-0.3,0.8-0.4c0.2,0,0.4,0.1,0.5,0.2c0.1,0.2,0.2,0.4,0.2,0.6c0,0.3-0.1,0.5-0.3,0.7
		c-0.5,0.6-1.2,1-1.9,1.3c-0.8,0.3-1.7,0.5-2.6,0.5c-0.9,0-1.8-0.2-2.6-0.6c-0.7-0.3-1.3-0.8-1.8-1.5c-0.4-0.6-0.8-1.3-1-2
		c-0.2-0.7-0.3-1.4-0.3-2.2L63.6,122.6L63.6,122.6z M65.6,122h6.7c0-1-0.3-1.9-0.9-2.7c-0.6-0.7-1.5-1.1-2.4-1.1
		c-0.9,0-1.8,0.3-2.4,1C66,120,65.6,121,65.6,122L65.6,122z"/>
	<path d="M75.7,122.7c0-1.1,0.2-2.2,0.7-3.2c0.4-0.9,1.1-1.7,1.9-2.2c0.8-0.5,1.8-0.8,2.8-0.8c1,0,2,0.3,2.8,0.9
		c0.8,0.6,1.5,1.4,1.9,2.3c0.4,1,0.6,2,0.6,3.1c0,1.1-0.2,2.1-0.6,3.1c-0.4,0.9-1.1,1.7-1.9,2.2c-1.7,1.1-3.9,1.1-5.7,0
		c-0.8-0.6-1.5-1.4-1.9-2.3C75.9,124.8,75.7,123.8,75.7,122.7z M77.7,122.7c0,1.1,0.3,2.1,0.8,3.1c0.5,0.9,1.5,1.5,2.5,1.4
		c0.7,0,1.3-0.2,1.9-0.6c0.5-0.4,0.9-1,1.1-1.6c0.3-0.7,0.4-1.5,0.4-2.2c0-0.8-0.1-1.5-0.4-2.3c-0.2-0.6-0.6-1.2-1.1-1.6
		c-0.5-0.4-1.2-0.6-1.8-0.6c-0.7,0-1.3,0.2-1.8,0.6c-0.5,0.4-0.9,1-1.1,1.6C77.8,121.1,77.7,121.9,77.7,122.7z"/>
	<path d="M88.4,112.2c0-0.3,0.1-0.6,0.3-0.8c0.2-0.2,0.4-0.3,0.7-0.3c0.3,0,0.5,0.1,0.7,0.3c0.2,0.2,0.3,0.5,0.3,0.7v15.6
		c0,0.3-0.1,0.6-0.3,0.8c-0.2,0.2-0.4,0.3-0.7,0.3c-0.3,0-0.5-0.1-0.7-0.3c-0.2-0.2-0.3-0.5-0.3-0.8V112.2z"/>
	<path d="M94,115.1c-0.3,0-0.6-0.1-0.8-0.3c-0.2-0.2-0.3-0.5-0.3-0.8c0-0.3,0.1-0.6,0.3-0.8c0.2-0.2,0.5-0.3,0.8-0.3
		c0.3,0,0.6,0.1,0.8,0.3c0.4,0.5,0.4,1.2,0,1.6C94.6,115,94.3,115.1,94,115.1z M93,117.5c0-0.6,0.4-1,1-1c0.3,0,0.5,0.1,0.7,0.3
		c0.2,0.2,0.3,0.5,0.3,0.8v10.3c0,0.3-0.1,0.6-0.3,0.8c-0.4,0.4-1,0.4-1.4,0c-0.2-0.2-0.3-0.5-0.3-0.8V117.5z"/>
	<path d="M98.3,118.4h-0.9c-0.2,0-0.5-0.1-0.7-0.2c-0.2-0.2-0.3-0.4-0.3-0.6c0-0.5,0.4-0.9,0.9-0.9c0,0,0.1,0,0.1,0h0.9v-2.7
		c0-0.3,0.1-0.5,0.3-0.7c0.2-0.2,0.4-0.2,0.7-0.2c0.3,0,0.5,0.1,0.7,0.2c0.2,0.2,0.3,0.5,0.3,0.7v2.6h0.9c0.3,0,0.5,0.1,0.7,0.3
		c0.2,0.2,0.3,0.4,0.2,0.6c0,0.2-0.1,0.4-0.2,0.6c-0.2,0.2-0.4,0.2-0.6,0.2h-1v9.6c0,0.3-0.1,0.5-0.3,0.7c-0.2,0.2-0.5,0.3-0.8,0.3
		c-0.2,0-0.5-0.1-0.7-0.3c-0.2-0.2-0.3-0.5-0.3-0.8V118.4z"/>
	<path d="M103.1,112.2c0-0.3,0.1-0.6,0.3-0.8c0.2-0.2,0.4-0.3,0.7-0.3c0.5,0,1,0.4,1,1c0,0,0,0.1,0,0.1v5.8l0,0
		c0.4-0.5,0.8-0.9,1.4-1.2c0.6-0.3,1.2-0.4,1.9-0.4c0.8,0,1.5,0.2,2.2,0.6c0.7,0.4,1.2,1,1.6,1.6c0.4,0.7,0.6,1.4,0.6,2.2v6.9
		c0,0.3-0.1,0.6-0.3,0.8c-0.4,0.4-1,0.4-1.4,0c-0.2-0.2-0.3-0.5-0.3-0.8v-6.6c0-0.8-0.2-1.5-0.8-2.1c-0.5-0.6-1.2-0.9-2-0.9
		c-0.5,0-1,0.1-1.4,0.3c-0.4,0.2-0.8,0.6-1.1,1c-0.3,0.5-0.4,1.1-0.4,1.6v6.7c0,0.3-0.1,0.6-0.3,0.8c-0.2,0.2-0.4,0.3-0.7,0.3
		c-0.3,0-0.5-0.1-0.7-0.3c-0.2-0.2-0.3-0.5-0.3-0.8L103.1,112.2z"/>
	<path d="M116.3,115.1c-0.3,0-0.6-0.1-0.8-0.3c-0.2-0.2-0.3-0.5-0.3-0.8c0-0.3,0.1-0.6,0.3-0.8c0.2-0.2,0.5-0.3,0.8-0.3
		c0.6,0,1.1,0.5,1.1,1.1c0,0,0,0.1,0,0.1C117.5,114.6,117,115.1,116.3,115.1C116.4,115.1,116.3,115.1,116.3,115.1z M115.3,117.5
		c0-0.5,0.4-1,0.9-1c0,0,0.1,0,0.1,0c0.3,0,0.5,0.1,0.7,0.3c0.2,0.2,0.3,0.5,0.3,0.8v10.3c0,0.3-0.1,0.6-0.3,0.8
		c-0.2,0.2-0.4,0.3-0.7,0.3c-0.3,0-0.5-0.1-0.7-0.3c-0.2-0.2-0.3-0.5-0.3-0.8V117.5z"/>
	<path d="M128,117.6c0,0.1,0.1,0.3,0.1,0.4c0,0.2-0.1,0.4-0.2,0.6c-0.2,0.2-0.4,0.3-0.7,0.3h-0.1l-0.2-0.1l-0.4-0.1
		c-0.3-0.1-0.6-0.2-0.9-0.3c-0.2-0.1-0.5-0.1-0.8-0.1c-0.7,0-1.3,0.2-1.8,0.6c-0.5,0.4-0.9,1-1.2,1.6c-0.3,0.7-0.4,1.4-0.5,2.1
		c0,1.1,0.2,2.1,0.7,3c0.1,0.3,0.3,0.6,0.6,0.8c0.2,0.2,0.5,0.4,0.8,0.5c0.3,0.1,0.7,0.2,1,0.3c0.1,0,0.2,0,0.4,0l0.5-0.1
		c0.2,0,0.3-0.1,0.5-0.1l0.2-0.1l0.3-0.1l0.4-0.2c0.2-0.1,0.3-0.1,0.5-0.1c0.2,0,0.4,0.1,0.5,0.2c0.2,0.2,0.2,0.4,0.2,0.6
		c0,0.6-0.4,1.1-1,1.2c-0.7,0.2-1.4,0.3-2.1,0.3c-1,0-2-0.3-2.9-0.8c-0.8-0.5-1.5-1.3-1.9-2.2c-0.4-0.9-0.7-1.9-0.7-3
		c0-0.8,0.1-1.6,0.3-2.4c0.2-0.7,0.5-1.4,0.9-2.1c0.5-0.6,1-1.1,1.7-1.4c0.8-0.4,1.6-0.6,2.4-0.6c0.7,0,1.4,0.1,2.1,0.3
		C127.4,116.9,127.8,117.2,128,117.6z"/>
</g>
<g>
	<path d="M70.2,50.9c-3.2-3.9-6.4-7.7-9.5-11.5c-0.3-0.2-0.6-0.2-0.9-0.2c-3,0.7-6.1-1.2-6.8-4.2c-0.6-2.5,0.6-5.1,2.9-6.3
		c0,0,0.1,0,0.1-0.1c0.8-0.2,1.5-0.8,1.9-1.5c1.9-2.5,5.4-2.9,7.8-1c2,1.5,2.7,4.1,1.8,6.4l-0.4,0.8L77,45.3l1.8-1.4
		c1-0.8,1.5-0.8,2.4,0.3c1.6,1.9,3.1,3.8,4.7,5.7c0.4,0.4,0.8,0.7,1.3,1c0.9,0.4,1.8,0.8,2.8,1.2c0.2-0.2,0.3-0.5,0.5-0.7L98.7,38
		c0.1-0.2,0.3-0.5,0.5-0.7c0.4-0.4,1-0.5,1.5-0.2c0.5,0.3,0.7,0.9,0.4,1.4c-0.1,0.2-0.2,0.4-0.4,0.7l-8,12.9
		c-0.1,0.2-0.3,0.5-0.5,0.8c1,0.5,2.1,0.9,3,1.5c2.1,1.2,4.2,2.2,6.2,3.6c4.3,3,6.3,7.3,6.1,12.5c-0.1,8.4-7,15.1-15.4,15
		c-0.5,0-0.9,0-1.4-0.1c-5.3-0.3-10.1-3.6-12.2-8.5L78,75.8c-0.7,1-1.3,2.1-1.9,3.2c-0.2,0.7-0.2,1.5-0.2,2.3
		c-0.8,6-4.1,10.4-9.1,13.5c-1.1,0.7-2,0.1-2-1.1c0.2-6.8,2.7-12.2,8.9-15.7c0.3-0.1,0.5-0.4,0.6-0.6c0.8-1.3,1.6-2.6,2.4-3.9
		c0.1-0.3,0.2-0.6,0.1-0.9c-1-3.6-2.1-7.2-3.1-10.8c-0.1-0.4-0.3-0.8-0.6-1.1c-1.6-2-3.3-4-4.9-6c-0.8-1-0.7-1.5,0.2-2.3L70.2,50.9z
		 M78.6,70.4c0.3-0.4,0.4-0.6,0.5-0.8c1.3-2.1,2.6-4.1,3.8-6.2c0.3-0.5,0.8-0.8,1.3-0.6c0.4,0.2,0.7,0.5,0.9,1
		c0,0.4-0.1,0.8-0.3,1.1c-1.4,2.3-2.8,4.6-4.3,6.8c-0.7,0.9-0.8,2.2-0.2,3.3c2.2,5.1,6.1,7.8,11.6,8.1c7.2,0.2,13.2-5.4,13.4-12.6
		c0-0.8,0-1.6-0.2-2.4c-0.6-3.8-2.9-7.1-6.3-9c-4-2.3-8.1-4.3-12.4-6c-1-0.4-1.8-1-2.4-1.8c-1.2-1.6-2.5-3.1-3.8-4.6
		c-0.1-0.2-0.3-0.3-0.5-0.5l-9.3,7.6c0.9,1.1,1.7,2.2,2.7,3.2c1.8,1.7,3,4,3.4,6.5c0,0.1,0.1,0.3,0.1,0.4
		C77.2,66,77.8,68.1,78.6,70.4L78.6,70.4z M75.2,46.8c-0.3-0.3-0.5-0.6-0.7-0.8l-9.3-11.3c-0.8-1-0.9-1.2-0.1-2.4
		c1-1.5,0.6-3.6-1-4.6c-0.1,0-0.1-0.1-0.2-0.1c-1.5-0.9-3.5-0.4-4.4,1.1c-0.1,0.1-0.1,0.2-0.2,0.3c-0.3,0.8-1,1.3-1.8,1.4
		c-1.7,0.4-2.8,2.2-2.4,3.9c0,0.1,0.1,0.2,0.1,0.3c0.6,1.7,2.4,2.7,4.2,2.1c0.1,0,0.2-0.1,0.3-0.1c1.1-0.5,1.4-0.4,2.2,0.6l7.7,9.3
		l2.4,2.8L75.2,46.8z M67.3,91.4c3.3-2.1,6.2-6.9,6.3-10.8C69.9,83.1,67.6,87.1,67.3,91.4L67.3,91.4z"/>
</g>
</svg>
