<?xml version="1.0" encoding="utf-8"?>
<!-- Generator: Adobe Illustrator 25.2.0, SVG Export Plug-In . SVG Version: 6.00 Build 0)  -->
<svg version="1.1" id="Layer_1" xmlns="http://www.w3.org/2000/svg" xmlns:xlink="http://www.w3.org/1999/xlink" x="0px" y="0px"
	 viewBox="0 0 162.4 162.4" style="enable-background:new 0 0 162.4 162.4;" xml:space="preserve">
<g>
	<path d="M27.1,113.4c0-0.3,0.1-0.6,0.3-0.8c0.2-0.2,0.4-0.3,0.7-0.3h4c0.7,0,1.4,0.1,2,0.3c0.6,0.2,1.2,0.5,1.7,1
		c0.5,0.5,0.9,1,1.2,1.6c0.3,0.7,0.4,1.5,0.4,2.2c0,0.7-0.1,1.3-0.4,2c-0.2,0.6-0.6,1.2-1.1,1.6c-0.5,0.5-1,0.8-1.6,1.1
		c-0.6,0.3-1.3,0.4-1.9,0.4H29v5.2c0,0.3-0.1,0.5-0.3,0.7c-0.2,0.2-0.4,0.3-0.7,0.3c-0.3,0-0.5-0.1-0.7-0.3
		c-0.2-0.2-0.3-0.5-0.3-0.8L27.1,113.4z M29.1,114v6.7h2.8c1.8,0.1,3.4-1.3,3.4-3.1c0-0.1,0-0.2,0-0.3c0.1-0.9-0.3-1.8-0.9-2.4
		c-0.7-0.6-1.5-0.9-2.4-0.9H29.1z"/>
	<path d="M38.1,122.4c0-1,0.3-2,0.7-3c0.4-0.9,1-1.7,1.8-2.3c0.8-0.6,1.8-0.9,2.8-0.9c1,0,2,0.3,2.8,0.8c0.8,0.6,1.5,1.4,1.9,2.3
		c0.4,0.9,0.7,1.9,0.7,2.9c0,0.7-0.4,1-1.1,1h-7.6c0,0.7,0.2,1.4,0.5,2c0.3,0.6,0.7,1,1.3,1.3c0.6,0.3,1.2,0.4,1.8,0.4
		c1.2,0,2.4-0.5,3.3-1.3c0.2-0.2,0.5-0.3,0.8-0.4c0.2,0,0.4,0.1,0.5,0.2c0.1,0.2,0.2,0.4,0.2,0.6c0,0.3-0.1,0.5-0.3,0.7
		c-0.5,0.6-1.2,1-1.9,1.3c-0.8,0.3-1.7,0.5-2.6,0.5c-0.9,0-1.8-0.2-2.6-0.6c-0.7-0.3-1.3-0.8-1.8-1.5c-0.4-0.6-0.8-1.3-1-2
		c-0.2-0.7-0.3-1.4-0.3-2.2L38.1,122.4L38.1,122.4z M40.1,121.7h6.7c0-1-0.3-1.9-0.9-2.7c-0.6-0.7-1.4-1.1-2.3-1.1
		c-0.9,0-1.8,0.3-2.4,1C40.5,119.7,40.1,120.7,40.1,121.7z"/>
	<path d="M50.5,127.3c-0.3-0.2-0.5-0.6-0.5-1c0-0.2,0.1-0.5,0.2-0.6c0.2-0.2,0.4-0.3,0.6-0.2c0.2,0,0.4,0.1,0.6,0.2l0.7,0.5
		c0.2,0.1,0.4,0.3,0.6,0.4c0.5,0.3,1.1,0.4,1.7,0.5c0.6,0,1.2-0.1,1.7-0.4c0.5-0.2,0.8-0.8,0.8-1.3c0-0.6-0.4-1.1-0.9-1.4
		c-0.6-0.3-1.2-0.6-1.8-0.8c-0.8-0.3-1.4-0.6-2-0.8c-0.5-0.2-0.9-0.6-1.2-1c-0.4-0.5-0.6-1-0.5-1.6c0-0.6,0.2-1.2,0.5-1.7
		c0.4-0.5,0.8-0.9,1.4-1.2c0.7-0.3,1.4-0.5,2.1-0.5c0.7,0,1.5,0.1,2.2,0.4c0.6,0.2,1.1,0.5,1.5,0.8c0.3,0.2,0.5,0.6,0.5,0.9
		c0,0.2-0.1,0.4-0.2,0.6c-0.2,0.2-0.4,0.3-0.6,0.3c-0.4-0.1-0.8-0.3-1.1-0.5c-0.4-0.2-0.7-0.4-1.1-0.6c-0.3-0.1-0.6-0.2-0.9-0.2
		c-0.6,0-1.1,0.1-1.6,0.4c-0.4,0.2-0.6,0.6-0.6,1.1c0.1,0.4,0.3,0.7,0.5,1c0.3,0.3,0.6,0.5,1,0.6c0.4,0.2,0.8,0.3,1.3,0.5
		s0.9,0.3,1.1,0.4c0.7,0.3,1.4,0.7,1.9,1.3c0.4,0.5,0.6,1.2,0.6,1.8c0,0.6-0.2,1.2-0.5,1.7c-0.4,0.6-0.9,1-1.5,1.3
		c-0.8,0.4-1.6,0.5-2.5,0.5C53,128.7,51.6,128.2,50.5,127.3z"/>
	<path d="M68.9,117.4c0,0.1,0.1,0.3,0.1,0.4c0,0.2-0.1,0.4-0.2,0.6c-0.2,0.2-0.4,0.3-0.6,0.3H68l-0.2-0.1l-0.4-0.1
		c-0.3-0.1-0.6-0.2-0.9-0.3c-0.2-0.1-0.5-0.1-0.8-0.1c-0.7,0-1.3,0.2-1.8,0.6c-0.5,0.4-0.9,1-1.2,1.6c-0.3,0.7-0.4,1.4-0.5,2.1
		c0,1.1,0.2,2.1,0.7,3c0.1,0.3,0.3,0.6,0.6,0.8c0.2,0.2,0.5,0.4,0.8,0.5c0.3,0.1,0.7,0.2,1,0.3c0.1,0,0.2,0,0.3,0l0.5-0.1
		c0.2,0,0.3-0.1,0.5-0.1l0.2-0.1l0.3-0.1l0.4-0.2c0.2-0.1,0.3-0.1,0.5-0.1c0.2,0,0.4,0.1,0.5,0.2c0.1,0.2,0.2,0.4,0.2,0.6
		c0,0.6-0.4,1.1-1,1.2c-0.7,0.2-1.4,0.3-2.1,0.3c-1,0-2-0.3-2.9-0.8c-0.8-0.5-1.5-1.3-1.9-2.2c-0.4-0.9-0.7-1.9-0.7-3
		c0-0.8,0.1-1.6,0.3-2.4c0.2-0.7,0.5-1.4,1-2.1c0.4-0.6,1-1.1,1.7-1.4c0.8-0.4,1.6-0.6,2.4-0.6c0.7,0,1.4,0.1,2.1,0.3
		C68.3,116.8,68.7,117,68.9,117.4z"/>
	<path d="M79.1,117.9v-0.7c0-0.3,0.1-0.5,0.3-0.7c0.2-0.2,0.4-0.3,0.7-0.3c0.2,0,0.5,0.1,0.7,0.3c0.2,0.2,0.3,0.5,0.3,0.8v10.4
		c0,0.3-0.1,0.6-0.3,0.8c-0.2,0.2-0.4,0.3-0.7,0.2c-0.2,0-0.5-0.1-0.7-0.2c-0.2-0.2-0.3-0.4-0.3-0.7v-0.9l0,0
		c-0.7,1.1-1.9,1.8-3.2,1.8c-2,0-3.9-1.1-4.8-2.9c-0.5-1-0.7-2.1-0.7-3.2c0-1.2,0.2-2.4,0.8-3.5c0.5-0.9,1.2-1.6,2-2.1
		c0.7-0.4,1.6-0.7,2.4-0.7c0.6,0,1.3,0.1,1.9,0.4C78.1,117,78.6,117.4,79.1,117.9L79.1,117.9z M72.4,122.5c0,0.7,0.1,1.5,0.4,2.2
		c0.2,0.6,0.6,1.2,1.1,1.6c0.5,0.4,1.1,0.6,1.8,0.6c1,0.1,2-0.4,2.6-1.3c0.5-1,0.8-2.1,0.8-3.2c0-0.8-0.1-1.6-0.4-2.4
		c-0.2-0.6-0.6-1.2-1.2-1.5c-0.5-0.4-1.1-0.6-1.7-0.5l0,0c-1,0-1.9,0.5-2.4,1.3C72.7,120.2,72.4,121.3,72.4,122.5L72.4,122.5z"/>
	<path d="M84.2,118.1h-0.9c-0.3,0-0.5-0.1-0.7-0.2c-0.2-0.2-0.3-0.4-0.3-0.6c0-0.5,0.4-0.9,0.9-0.9c0,0,0.1,0,0.1,0h0.9v-2.7
		c0-0.3,0.1-0.5,0.3-0.7c0.2-0.2,0.4-0.2,0.7-0.2c0.3,0,0.5,0.1,0.7,0.2c0.2,0.2,0.3,0.5,0.3,0.7v2.6h0.9c0.3,0,0.5,0.1,0.7,0.3
		c0.2,0.2,0.2,0.4,0.2,0.6c0,0.2-0.1,0.4-0.2,0.6c-0.2,0.2-0.4,0.2-0.6,0.2h-1v9.6c0,0.3-0.1,0.5-0.3,0.7c-0.2,0.2-0.5,0.3-0.8,0.3
		c-0.2,0-0.5-0.1-0.6-0.3c-0.2-0.2-0.3-0.5-0.3-0.8V118.1z"/>
	<path d="M97.2,117.9v-0.7c0-0.3,0.1-0.5,0.3-0.7c0.2-0.2,0.4-0.3,0.7-0.3c0.2,0,0.5,0.1,0.7,0.3c0.2,0.2,0.3,0.5,0.3,0.8v10.4
		c0,0.3-0.1,0.6-0.3,0.8c-0.2,0.2-0.4,0.3-0.7,0.2c-0.2,0-0.5-0.1-0.7-0.2c-0.2-0.2-0.3-0.4-0.3-0.7v-0.9l0,0
		c-0.7,1.1-1.9,1.8-3.2,1.8c-2,0-3.9-1.1-4.8-2.9c-0.5-1-0.7-2.1-0.7-3.2c0-1.2,0.2-2.4,0.8-3.5c0.5-0.9,1.2-1.6,2-2.1
		c0.7-0.4,1.6-0.7,2.4-0.7c0.6,0,1.3,0.1,1.9,0.4C96.3,117,96.8,117.4,97.2,117.9L97.2,117.9z M90.6,122.5c0,0.7,0.1,1.5,0.4,2.2
		c0.2,0.6,0.6,1.2,1.1,1.6c0.5,0.4,1.1,0.6,1.8,0.6c1,0.1,2-0.4,2.6-1.3c0.5-1,0.8-2.1,0.8-3.2c0-0.8-0.1-1.6-0.4-2.4
		c-0.2-0.6-0.6-1.2-1.2-1.5c-0.5-0.4-1.1-0.6-1.7-0.5l0,0c-1,0-1.9,0.5-2.4,1.3C90.9,120.2,90.6,121.3,90.6,122.5L90.6,122.5z"/>
	<path d="M101.8,117.3c0-0.3,0.1-0.5,0.3-0.7c0.2-0.2,0.4-0.3,0.7-0.3c0.3,0,0.5,0.1,0.7,0.3c0.2,0.2,0.3,0.5,0.3,0.7v1l0,0
		c0.3-0.5,0.7-1,1.2-1.4c0.4-0.4,1-0.6,1.5-0.7c0.3,0,0.6,0.1,0.8,0.3c0.2,0.2,0.3,0.4,0.3,0.7c0,0.3-0.1,0.6-0.3,0.8
		c-0.3,0.2-0.7,0.3-1.1,0.4c-0.3,0.1-0.6,0.2-0.9,0.3c-0.5,0.3-0.9,0.7-1.2,1.2c-0.3,0.6-0.4,1.2-0.4,1.8v5.9c0,0.3-0.1,0.6-0.3,0.8
		c-0.2,0.2-0.4,0.3-0.7,0.3c-0.3,0-0.5-0.1-0.7-0.3c-0.2-0.2-0.3-0.5-0.3-0.8L101.8,117.3z"/>
	<path d="M109.9,114.8c-0.3,0-0.6-0.1-0.8-0.3c-0.2-0.2-0.3-0.5-0.3-0.8c0-0.3,0.1-0.6,0.3-0.8c0.2-0.2,0.5-0.3,0.8-0.3
		c0.3,0,0.6,0.1,0.8,0.3c0.5,0.4,0.5,1.1,0,1.6C110.5,114.7,110.2,114.8,109.9,114.8z M108.9,117.3c0-0.3,0.1-0.6,0.3-0.8
		c0.2-0.2,0.4-0.3,0.7-0.3c0.3,0,0.5,0.1,0.7,0.3c0.2,0.2,0.3,0.5,0.3,0.8v10.3c0,0.3-0.1,0.6-0.3,0.8c-0.2,0.2-0.4,0.3-0.7,0.3
		c-0.3,0-0.5-0.1-0.7-0.3c-0.2-0.2-0.3-0.5-0.3-0.8V117.3z"/>
	<path d="M121.7,117.9v-0.7c0-0.3,0.1-0.5,0.3-0.7c0.2-0.2,0.4-0.3,0.6-0.3c0.2,0,0.5,0.1,0.7,0.3c0.2,0.2,0.3,0.5,0.3,0.8v10.4
		c0,0.3-0.1,0.6-0.3,0.8c-0.2,0.2-0.4,0.3-0.7,0.2c-0.2,0-0.5-0.1-0.6-0.2c-0.2-0.2-0.3-0.4-0.3-0.7v-0.9l0,0
		c-0.7,1.1-1.9,1.8-3.2,1.8c-2,0-3.9-1.1-4.8-2.9c-0.5-1-0.7-2.1-0.7-3.2c0-1.2,0.2-2.4,0.8-3.5c0.5-0.9,1.2-1.6,2-2.1
		c0.7-0.4,1.6-0.7,2.4-0.7c0.6,0,1.3,0.1,1.9,0.4C120.8,117,121.3,117.4,121.7,117.9L121.7,117.9z M115,122.5c0,0.7,0.1,1.5,0.4,2.2
		c0.2,0.6,0.6,1.2,1.1,1.6c0.5,0.4,1.1,0.6,1.8,0.6c1,0.1,2-0.4,2.6-1.3c0.6-1,0.8-2.1,0.8-3.2c0-0.8-0.1-1.6-0.4-2.4
		c-0.2-0.6-0.6-1.2-1.2-1.5c-0.5-0.4-1.1-0.6-1.7-0.5l0,0c-1,0-1.9,0.5-2.4,1.3C115.3,120.2,115,121.3,115,122.5z"/>
	<path d="M126.3,117.3c0-0.3,0.1-0.6,0.3-0.8c0.2-0.2,0.4-0.3,0.7-0.3c0.3,0,0.5,0.1,0.7,0.3c0.2,0.2,0.3,0.5,0.3,0.8v0.5l0,0
		c0.4-0.5,0.9-0.9,1.5-1.2c0.6-0.3,1.2-0.4,1.8-0.4c0.7,0,1.4,0.2,2.1,0.5c0.7,0.4,1.2,0.9,1.6,1.6c0.4,0.8,0.6,1.7,0.6,2.6v6.8
		c0,0.3-0.1,0.5-0.3,0.7c-0.2,0.2-0.4,0.3-0.7,0.2c-0.3,0-0.5-0.1-0.7-0.3c-0.2-0.2-0.3-0.4-0.3-0.7v-6.7c0-0.8-0.3-1.6-0.8-2.1
		c-0.5-0.5-1.2-0.8-2-0.8c-0.5,0-1,0.1-1.4,0.3c-0.4,0.2-0.8,0.6-1,1c-0.3,0.5-0.4,1-0.4,1.6v6.7c0,0.3-0.1,0.6-0.3,0.8
		c-0.2,0.2-0.4,0.3-0.7,0.3c-0.3,0-0.5-0.1-0.7-0.3c-0.2-0.2-0.3-0.5-0.3-0.8L126.3,117.3z"/>
</g>
<g>
	<path d="M81.4,94.4c-2.2,0-4.5-0.2-6.7-0.6c-4.4-0.8-8.6-2.4-12.4-4.7c-5.5-3.4-10-8.2-13-13.9c-0.1-0.2-0.3-0.4-0.6-0.4h-0.2
		c-0.5,0-1,0.1-1.5,0.1h-0.3c-1.6,0-3.1-0.9-3.8-2.3c-0.1-0.3-0.3-0.6-0.4-0.9c0-0.2-0.1-0.3-0.1-0.5v-1.3c0-0.1,0.1-0.2,0.1-0.3
		c0.1-0.2,0.1-0.5,0.2-0.7c1.3-2.9,2-5.9,2.2-9.1c0.1-2.4,0-4.8-0.5-7.1c-0.3-1.6-0.8-3.2-1.4-4.7c-0.2-0.6-0.4-1.2-0.6-1.7V45
		c0-0.1,0.1-0.1,0.1-0.2c0.3-1.6,1.5-2.9,3-3.3c0.5-0.1,1-0.2,1.5-0.2c0.5,0,0.9,0,1.4,0.1h0.2c0.3,0,0.6-0.2,0.8-0.5
		c6.1-11.4,17.8-18.7,30.7-19.1c0.4,0,0.9,0,1.3,0c14,0,26.7,8.1,32.8,20.7c1.5,3,2.5,6.3,3,9.6c0.1,1,0.6,1.8,1.2,2.5l0.1,0.1
		c0.8,0.8,1.5,1.8,1.9,2.8v1.2c-0.1,0.1-0.2,0.3-0.2,0.4c-0.2,0.4-0.4,0.7-0.6,1.1c-0.3,0.5-0.7,0.9-1.1,1.4
		c-0.2,0.3-0.5,0.6-0.7,0.9c-0.2,0.2-0.3,0.4-0.3,0.7c-0.1,0.4-0.1,0.8-0.2,1.2c-0.1,0.5-0.2,1.1-0.3,1.6
		c-3.6,16.1-17.6,27.8-34.1,28.4C82.2,94.4,81.8,94.4,81.4,94.4z M60.5,66.3c-1.7,3.8-4.9,6.7-8.9,8l-0.2,0.1l0.1,0.2
		c5.9,10.9,17.3,17.6,29.7,17.6c2.7,0,5.4-0.3,8.1-1c12.3-2.9,21.9-12.5,25-24.7l0.1-0.5l-0.7,0.6l-1,0.9c-0.7,0.6-1.5,1.3-2.2,1.9
		c-3.3,2.6-7,4.7-11,6.1c-2.9,1.1-6,1.7-9.1,1.9c-0.4,0-0.7,0.2-0.8,0.5c-1.5,2.7-3.7,5-6.4,6.5c-2.3,1.3-4.8,2-7.5,2.2H75
		c-0.6,0-1.2-0.1-1.7-0.3c-1.4-0.6-2.3-2.1-2.2-3.6c0-3,0-5.9,0-8.9c0-0.4-0.2-0.7-0.5-0.8c-3-1.6-5.9-3.5-8.5-5.7L60.6,66
		L60.5,66.3z M73.4,76.9c0,2,0,4,0,6c0,0.8,0.6,1.4,1.4,1.5c0,0,0.1,0,0.1,0c0.8,0,1.5-0.1,2.3-0.2c4-0.6,7.6-3,9.8-6.4l0.2-0.3
		h-0.3c-4.6-0.2-9-1.3-13.2-3.1l-0.3-0.1L73.4,76.9z M60.1,62.7c0.4,0,0.7,0.2,1,0.5c0.8,0.8,1.6,1.5,2.4,2.3
		c4.1,3.5,8.8,6.1,13.8,7.9c3.2,1.1,6.5,1.7,9.9,1.9H88c1.7,0,3.4-0.2,5.1-0.4l1.1-0.2l0.7-0.2l-0.5-0.9c-0.2-0.4-0.5-0.9-0.7-1.3
		c-2.1-4.4-3.2-9.1-3.2-14c0-1.9,0.1-3.8,0.4-5.7c0.4-2.7,1.3-5.4,2.6-7.8c0.3-0.6,0.7-1.2,1-1.8l0.6-1l-0.2-0.1
		c-0.1,0-0.2-0.1-0.3-0.1l-1.5-0.2c-1.2-0.2-2.4-0.4-3.6-0.5c-0.6,0-1.2-0.1-1.8-0.1c-2.7,0-5.5,0.4-8.1,1.1
		c-7.1,1.9-13.6,5.7-18.8,10.9c-0.3,0.3-0.6,0.5-1,0.5c-0.5,0-0.9-0.4-1.1-1c-0.6-2.2-1.8-4.2-3.5-5.7c-2.3-2-5.2-3.1-8.2-3.1h-0.4
		c-0.7,0-1.4,0.4-1.8,1c-0.4,0.6-0.4,1.3-0.1,1.9c1.4,3.1,2.2,6.4,2.3,9.7c0.2,2.6,0,5.3-0.5,7.8c-0.4,1.9-1,3.8-1.8,5.6
		c-0.3,0.6-0.2,1.4,0.1,2c0.3,0.5,0.9,0.9,1.6,0.9h0.8c1,0,2-0.1,3-0.4c4.2-1,7.5-4.3,8.6-8.5C59,63.1,59.5,62.8,60.1,62.7
		L60.1,62.7z M97.3,43.2c-0.3,0.4-0.5,0.7-0.8,1.1c-2.4,3.9-3.6,8.5-3.6,14c0,1.9,0.2,3.7,0.5,5.5c0.6,3.4,1.8,6.6,3.6,9.5
		c0.1,0.2,0.3,0.3,0.5,0.3l0,0c0.1,0,0.2,0,0.3-0.1c0.5-0.2,1-0.4,1.5-0.6c0.9-0.4,1.9-0.8,2.9-1.2c6.1-3.1,11.5-7.6,15.6-13.1
		c0.3-0.3,0.3-0.8,0-1.2c0,0,0,0,0,0c-1.7-2.2-3.5-4.3-5.6-6.1c-3.2-3.1-7-5.6-11-7.5c-0.7-0.3-1.5-0.6-2.2-0.9l-1.2-0.5L97.3,43.2z
		 M75.3,29.5c0.8,0,1.5,0.1,2.3,0.2c5.1,0.8,9.6,3.9,12,8.5c0.2,0.3,0.5,0.5,0.8,0.5h0.2c1,0.1,2,0.2,3,0.4c4,0.7,7.8,2,11.3,4
		c3.2,1.8,6.2,4,8.8,6.5l0.2,0.1l0.5,0.4l-0.1-0.5C111.6,37.6,99.9,24.9,83,24c-0.6,0-1.2,0-1.8,0c-6.8,0-13.4,2-19,5.9
		c-4.4,3-8,7-10.6,11.7l-0.1,0.2l0.2,0.1c4,1.3,7.2,4.2,8.9,8l0.1,0.2l0.3-0.2l0.1-0.1c2.9-2.6,6-4.8,9.5-6.5
		c0.4-0.2,0.6-0.5,0.5-0.9c0-2.8,0-5.6,0-8.5c0-0.3,0-0.7,0.1-1c0.2-1.6,1.4-2.9,3-3.2C74.5,29.6,74.9,29.5,75.3,29.5L75.3,29.5z
		 M75,31.8c-0.8,0-1.5,0.6-1.6,1.4c0,0,0,0.1,0,0.1c0,0.2,0,0.3,0,0.5v8l0.3-0.1c4.2-1.8,8.7-2.8,13.2-3h0.3l-0.3-0.4
		c-0.1-0.1-0.1-0.2-0.2-0.3c-0.7-1-1.6-2-2.5-2.8C81.6,33.1,78.3,31.9,75,31.8L75,31.8z"/>
	<path d="M86.5,67c-0.5,0-0.9-0.3-1-0.7c-0.4-1.3-0.8-2.7-1-4.1c-0.2-1-0.3-1.9-0.3-2.9L84,58c0.1-2.8,0.5-5.5,1.4-8.1
		c0.1-0.5,0.6-0.9,1.1-0.9l0,0c0.5,0,0.9,0.2,1.1,0.7c0.1,0.3,0.1,0.6,0,0.9c-0.9,2.6-1.3,5.4-1.2,8.2c0.1,2.2,0.5,4.4,1.2,6.4
		c0.3,0.6,0,1.3-0.5,1.6C86.9,66.9,86.7,67,86.5,67L86.5,67z"/>
	<path d="M80.1,67c-0.1,0-0.3,0-0.4-0.1c-0.3-0.1-0.6-0.4-0.7-0.7l-0.2-0.9c-0.3-1.2-0.6-2.4-0.9-3.6c-0.3-1.6-0.4-3.2-0.2-4.9
		c0.1-2.4,0.5-4.7,1.3-7c0.1-0.5,0.6-0.8,1.1-0.8c0.5,0,0.9,0.3,1.1,0.8c0,0.1,0,0.2,0.1,0.3v0.2L81,50.7l-0.3,1.1
		c-0.9,3-1.1,6.2-0.7,9.4c0.2,1.1,0.4,2.1,0.7,3.1c0.1,0.4,0.2,0.8,0.3,1.2c0.2,0.4,0.1,0.9-0.3,1.2C80.6,66.9,80.4,67,80.1,67z"/>
	<path d="M103.5,60.5c-2.8,0-5-2.3-5-5.1c0-2.8,2.3-5.1,5.1-5c0,0,0,0,0,0h0.1c1.3,0,2.5,0.6,3.5,1.5c2,2,1.9,5.2,0,7.2
		C106.1,60,104.8,60.5,103.5,60.5L103.5,60.5z M103.5,52.7c-1.5,0-2.8,1.2-2.8,2.8c0.1,1.5,1.3,2.7,2.8,2.8c1.5,0,2.7-1.2,2.8-2.7
		c0.1-1.5-1.1-2.7-2.6-2.8C103.6,52.8,103.6,52.8,103.5,52.7L103.5,52.7z"/>
</g>
</svg>
