<?xml version="1.0" encoding="utf-8"?>
<!-- Generator: Adobe Illustrator 25.2.0, SVG Export Plug-In . SVG Version: 6.00 Build 0)  -->
<svg version="1.1" id="Layer_1" xmlns="http://www.w3.org/2000/svg" xmlns:xlink="http://www.w3.org/1999/xlink" x="0px" y="0px"
	 viewBox="0 0 162.4 162.4" style="enable-background:new 0 0 162.4 162.4;" xml:space="preserve">
<g>
	<path d="M52.8,114.1c0-0.3,0.1-0.6,0.3-0.8c0.2-0.2,0.4-0.2,0.7-0.2h4c0.7,0,1.4,0.1,2,0.3c1.3,0.4,2.3,1.4,2.8,2.6
		c0.3,0.7,0.4,1.4,0.4,2.2c0,0.7-0.1,1.3-0.4,2c-0.2,0.6-0.6,1.2-1.1,1.6c-0.4,0.5-1,0.9-1.6,1.1c-0.6,0.3-1.3,0.4-1.9,0.4h-3.3v5.2
		c0,0.3-0.1,0.5-0.3,0.7c-0.2,0.2-0.4,0.3-0.7,0.3c-0.3,0-0.5-0.1-0.7-0.3c-0.2-0.2-0.3-0.5-0.3-0.8V114.1z M54.8,114.8v6.7h2.8
		c1.8,0.1,3.4-1.4,3.4-3.2c0-0.1,0-0.2,0-0.2c0.1-0.9-0.3-1.8-1-2.4c-0.6-0.6-1.5-0.9-2.4-0.9H54.8z"/>
	<path d="M64.6,118c0-0.3,0.1-0.5,0.3-0.7c0.2-0.2,0.4-0.3,0.7-0.3c0.3,0,0.5,0.1,0.7,0.3c0.2,0.2,0.3,0.5,0.3,0.7v1l0,0
		c0.3-0.5,0.7-1,1.2-1.4c0.4-0.4,0.9-0.6,1.5-0.7c0.3,0,0.6,0.1,0.8,0.3c0.2,0.2,0.3,0.4,0.3,0.7c0,0.3-0.1,0.6-0.3,0.8
		c-0.3,0.2-0.7,0.3-1.1,0.4c-0.3,0.1-0.6,0.2-0.9,0.3c-0.5,0.3-0.9,0.7-1.2,1.2c-0.3,0.6-0.4,1.2-0.4,1.8v5.9c0,0.3-0.1,0.6-0.3,0.8
		c-0.2,0.2-0.4,0.3-0.7,0.3c-0.3,0-0.5-0.1-0.7-0.3c-0.2-0.2-0.3-0.5-0.3-0.8L64.6,118z"/>
	<path d="M72.8,115.6c-0.3,0-0.6-0.1-0.8-0.4c-0.2-0.2-0.3-0.5-0.3-0.8c0-0.3,0.1-0.6,0.3-0.8c0.2-0.2,0.5-0.3,0.8-0.4
		c0.6,0,1.1,0.5,1.1,1.1c0,0,0,0.1,0,0.1c0,0.3-0.1,0.6-0.3,0.8C73.4,115.5,73.1,115.6,72.8,115.6z M71.8,118c0-0.3,0.1-0.5,0.3-0.7
		c0.2-0.2,0.4-0.3,0.7-0.3c0.3,0,0.5,0.1,0.7,0.3c0.2,0.2,0.3,0.5,0.3,0.8v10.3c0,0.3-0.1,0.6-0.3,0.8c-0.2,0.2-0.4,0.3-0.7,0.3
		c-0.3,0-0.5-0.1-0.7-0.3c-0.2-0.2-0.3-0.5-0.3-0.8V118z"/>
	<path d="M76.4,118c0-0.3,0.1-0.5,0.3-0.7c0.2-0.2,0.5-0.3,0.7-0.2c0.3,0,0.5,0.1,0.7,0.2c0.2,0.2,0.3,0.5,0.3,0.8v0.4l0,0
		c0.7-1,1.9-1.5,3.1-1.5c1.4,0.1,2.6,0.8,3.3,2.1c0.4-0.7,1-1.2,1.7-1.6c1.3-0.6,2.9-0.6,4.1,0.1c0.6,0.4,1.1,0.9,1.5,1.5
		c0.4,0.7,0.6,1.5,0.5,2.3v7.1c0,0.3-0.1,0.5-0.3,0.7c-0.2,0.2-0.5,0.3-0.7,0.3c-0.2,0-0.5-0.1-0.7-0.3c-0.2-0.2-0.3-0.4-0.3-0.7
		v-6.9c0-0.5-0.1-1.1-0.4-1.5c-0.2-0.4-0.5-0.7-0.9-0.9c-0.4-0.2-0.8-0.3-1.3-0.3c-0.7,0-1.4,0.2-1.9,0.7c-0.5,0.6-0.8,1.4-0.8,2.1
		v6.9c0,0.3-0.1,0.5-0.3,0.7c-0.2,0.2-0.5,0.2-0.7,0.2c-0.2,0-0.5-0.1-0.7-0.2c-0.2-0.2-0.3-0.4-0.3-0.7v-6.8
		c0.1-0.8-0.2-1.6-0.7-2.2c-0.5-0.5-1.2-0.7-1.8-0.7c-0.4,0-0.9,0.1-1.3,0.3c-0.4,0.2-0.7,0.5-0.9,0.9c-0.3,0.4-0.4,1-0.4,1.5v7
		c0,0.3-0.1,0.5-0.3,0.7c-0.2,0.2-0.4,0.3-0.7,0.3c-0.3,0-0.5-0.1-0.7-0.3c-0.2-0.2-0.3-0.4-0.3-0.7L76.4,118z"/>
	<path d="M103.5,118.6V118c0-0.3,0.1-0.5,0.3-0.7c0.2-0.2,0.4-0.3,0.7-0.3c0.3,0,0.5,0.1,0.7,0.3c0.2,0.2,0.3,0.5,0.3,0.7v10.4
		c0,0.3-0.1,0.6-0.3,0.8c-0.2,0.2-0.4,0.3-0.7,0.2c-0.2,0-0.5-0.1-0.7-0.2c-0.2-0.2-0.3-0.4-0.3-0.7v-0.9l0,0
		c-0.7,1.1-1.9,1.8-3.2,1.8c-1,0-1.9-0.2-2.8-0.7c-0.8-0.5-1.5-1.3-2-2.2c-1-2.1-1-4.6,0-6.7c0.5-0.9,1.2-1.6,2-2.1
		c0.7-0.4,1.6-0.7,2.4-0.7c0.6,0,1.3,0.1,1.9,0.4C102.5,117.7,103,118.2,103.5,118.6L103.5,118.6z M96.8,123.2
		c0,0.7,0.1,1.5,0.4,2.2c0.2,0.6,0.6,1.2,1.1,1.6c0.5,0.4,1.1,0.7,1.8,0.7c1,0.1,2-0.4,2.6-1.3c0.5-1,0.8-2.1,0.8-3.2
		c0-0.8-0.1-1.6-0.4-2.4c-0.2-0.6-0.6-1.2-1.2-1.5c-0.5-0.4-1.1-0.6-1.7-0.5l0,0c-1,0-1.9,0.5-2.4,1.3
		C97.1,121,96.8,122.1,96.8,123.2z"/>
	<path d="M108.1,112.7c0-0.3,0.1-0.6,0.3-0.8c0.2-0.2,0.4-0.3,0.7-0.3c0.3,0,0.5,0.1,0.7,0.3c0.2,0.2,0.3,0.5,0.3,0.7v15.6
		c0,0.3-0.1,0.6-0.3,0.8c-0.2,0.2-0.4,0.3-0.7,0.3c-0.3,0-0.5-0.1-0.7-0.3c-0.2-0.2-0.3-0.5-0.3-0.8V112.7z"/>
</g>
<g>
	<path d="M117.9,57.7c-1-2.3-2.4-4.4-4.1-6.1c-0.7-0.8-1.4-1.5-2.2-2.2c-1.3-1.1-3.5-2.6-3.6-2.7l0,0c-3.6-2.5-7.4-4.6-11.4-6.3
		c-0.5-0.2-0.8-0.6-0.9-1.1c-0.4-2.4-1.3-4.6-2.6-6.7c-2.6-4.3-7.9-6.1-12.6-4.2c-2.1,0.8-4,2-5.6,3.6c-0.2,0.2-0.6,0.3-0.9,0.3
		c-5.2-1-10.6-0.4-15.5,1.7c-2.6,0.9-4.7,2.8-6,5.2c-1.1,2.3-0.6,4,1.6,5.3c0,0.1-0.1,0.2-0.1,0.3c-1.2,2.9-1.6,6.1-1.1,9.2
		c0.5,3.3,1.1,6.6,0.8,9.9c-0.1,1.3-0.4,2.5-0.8,3.7c-0.4,1-1.3,1.8-2.4,1.9c-1.7,0.3-3.4-0.5-4.3-2c-0.6-0.9-1.1-1.9-1.5-3
		c-1-2.5-3.8-3.8-6.4-2.9c-2.3,0.8-3.6,3.1-3.2,5.9c0.4,3.2,1.6,6.2,3.4,8.8c3.8,5.6,9,8.3,15.8,7.3c0.8-0.1,1.5-0.3,2.5-0.5
		c-0.2,0.4-0.4,0.6-0.5,0.8c-1,1.6-2.7,2.7-4.5,3.1c-2.1,0.5-4.2,0.8-6.4,1.2c-1.3,0.2-2.6,0.6-3.9,1.1c-2,1-2.1,3.2-0.2,4.4
		c0.5,0.4,1.1,0.6,1.8,0.9c3,1,6.1,1.2,9.2,0.7c2.9-0.4,5.7-1.4,8.2-3l0,0c0.5-0.3,0.9-0.6,1.2-0.9c0.7-0.5,1.3-1,1.9-1.6
		c1.3-1.4,2.5-2.9,3.7-4.3c0.1,0.9,0.2,1.8,0.3,2.7c0.3,3.7,3.6,6.4,7.4,6.1c3.1-0.3,5.6-2.7,6.1-5.8c0.3-2.3,0.7-4.7,1-7.1
		c0.1-0.7,0.3-0.8,0.9-0.8c5.1,0,10.2,0,15.3,0c0.2,0,0.5,0,0.8,0c0,0.2,0.1,0.4,0.1,0.5c0.1,2.2,0.2,4.3,0.3,6.5c0,2.6,1.6,5,4,6
		c2.4,1.2,5.3,0.8,7.3-0.9c0.9-0.8,1.6-1.7,2.1-2.9c0.9-2.2,1.7-4.3,2.4-6.6c1.4-4.3,2.5-8.6,3.2-13.1c0.2-1.4,0.4-2.8,0.5-4.3
		C119.3,63.2,118.9,60.3,117.9,57.7z M54.7,40.4c0.5-1.2,1.4-2.2,2.5-2.9c2.1-1.4,4.5-2.3,7.1-2.7c2.6-0.6,5.3-0.7,8-0.3
		c0.3,0,0.6,0.1,1,0.2c-0.6,3-1.1,5.8-2.6,8.5c-0.1,0.2-0.3,0.5-0.5,0.6c-0.6,0.6-1.3,0.6-1.6-0.3c-0.3-0.9-0.5-1.8-0.5-2.7
		c-0.1-0.7-0.2-1.4-1-1.6c-0.8-0.2-1.2,0.4-1.5,1c-0.5,1-1.1,2-1.8,3c-0.2,0.3-0.5,0.5-0.9,0.7c-0.7,0.4-1.3,0-1.1-0.8
		c0.2-0.8,0.4-1.6,0.8-2.4c0.3-0.6,0.4-1.2-0.1-1.7c-0.5-0.5-1.2-0.3-1.8,0c-1.5,0.9-3.1,1.7-4.7,2.5c-0.4,0.1-0.9,0.1-1.3,0.1
		C54.6,41.3,54.6,40.8,54.7,40.4L54.7,40.4z M68.7,73.5C67.8,80.2,65.1,86,59.4,90c-2.1,1.3-4.5,2.2-6.9,2.7
		c-2.8,0.5-5.8,0.4-8.6-0.5c-0.5-0.2-1-0.4-1.4-0.7v-0.2c0.4-0.2,0.9-0.3,1.3-0.4c1.7-0.3,3.4-0.6,5.1-0.8c5.8-0.7,9.7-3.6,11.6-9.2
		c1.2-3.6,2-7.5,2.2-11.3c0-1,0.4-1.9,1-2.7c0.9-1,2.3-1.3,3.6-0.9c1.1,0.4,1.8,1.6,1.6,2.8C68.9,70.4,68.8,72,68.7,73.5L68.7,73.5z
		 M116.1,69.2c-1,6.8-2.8,13.4-5.4,19.8c-0.8,2.1-3,3.3-5.2,2.8c-2-0.4-3.5-2.2-3.5-4.3c-0.1-2.6-0.3-5.2-0.4-7.8
		c-0.1-1.2-0.5-1.5-1.6-1.5H81.5c-1.1,0-1.5,0.4-1.7,1.5c-0.4,2.8-0.8,5.6-1.2,8.4c-0.2,2.4-2.3,4.1-4.7,3.8
		c-2.1-0.2-3.7-1.9-3.8-3.9c-0.2-1.7-0.4-3.4-0.6-5.1c-0.2-1-0.1-2.1,0.3-3.1c1.2-3.6,1.8-7.3,1.6-11c0.1-2.8-2.2-5.2-5-5.3
		c-0.7,0-1.3,0.1-1.9,0.3c-2.5,0.8-4.2,3.2-4.2,5.8c-0.1,3.2-0.7,6.4-1.6,9.4c-0.1,0.3-0.3,0.6-0.6,0.8c-3.9,2-7.8,2.3-11.8,0.4
		c-3.5-1.7-5.7-4.6-7.3-8c-0.9-1.8-1.4-3.8-1.5-5.8c0-1.3,1-2.4,2.3-2.4c0.1,0,0.2,0,0.3,0c1.1,0.1,2,0.8,2.3,1.9
		c0.6,2,1.8,3.7,3.4,5c2.7,2.1,7.8,2,9.5-2.7c0.3-0.8,0.5-1.7,0.6-2.6c0.4-3.6,0.2-7.3-0.6-10.9c-0.6-3-0.3-6.2,0.9-9.1
		c0.5-1.2,1.5-2,2.8-2.3c0,0.1,0,0.2,0.1,0.3c-0.1,1.3,0.7,2.4,1.9,2.9c1.2,0.5,2.7,0.3,3.7-0.6c0.5-0.4,0.9-0.9,1.4-1.3l0.2,0.4
		c1.4,2.3,4,2.6,5.7,0.5c0.7-0.9,1.3-1.9,1.7-3c0.7-2.3,1.3-4.6,1.9-6.9c0.1-0.4,0.2-0.8,0.4-1.1c1.4-1.5,3.1-2.7,4.9-3.5
		c3.7-1.7,8.2-0.2,10.1,3.4c0.4,0.7,0.8,1.4,1.1,2.2c1.3,3.7,1.9,7.7,1.7,11.6c-0.1,4-0.5,7.9-2.2,11.6c0,0.1-0.1,0.2-0.1,0.2
		c-0.2,0.5-0.5,1-0.8,1.4c-0.1,0.1-0.1,0.2-0.1,0.3c-0.3,0.5-0.6,1-1,1.4c-0.6,0.5-1.3,0.9-2.1,1.2h-0.1c-1.1,0.4-2.3,0.6-3.5,0.7
		c-2.9,0-5.7-1.2-7.8-3.3c-1.3-1.3-2.6-2.7-3.8-4.2c-0.7-0.8-1.6-0.9-2.1-0.1c-0.4,0.5-0.3,1.2,0.1,1.6c1.5,1.8,3,3.4,4.7,5
		c2,1.8,4.4,2.9,7,3.4c0.6,0.1,1.2,0.1,1.9,0.1c0.5,0,1-0.1,1.5-0.1l0,0c0.7-0.1,4.3-0.6,6.1-2.5c1-1.1,1.7-2.4,2.3-3.8
		c0.1-0.3,0.3-0.5,0.4-0.8c1.6-3.9,2.3-8.1,2.2-12.2c0-1.6,0-3.2,0-4.8l0.3,0.1c3.6,1.7,7.1,3.6,10.4,5.9c0.3,0.2,0.7,0.5,1,0.7h0.1
		c0.6,0.4,1.2,0.9,1.7,1.4c0.5,0.4,1,0.9,1.4,1.4c0,0,0,0.1,0.1,0.1c0.3,0.4,0.7,0.7,1,1.1c2.2,2.4,3.9,5.1,4,8.5
		C116.5,64.5,116.4,66.8,116.1,69.2L116.1,69.2z"/>
	<path d="M65.9,52.5c-1.2,0-2.2,1.2-2.2,2.7c0,1.5,0.9,2.6,2.1,2.7c1.2,0.1,2.1-1.1,2.2-2.5C68,54,67.1,52.6,65.9,52.5z"/>
</g>
</svg>
