<?xml version="1.0" encoding="utf-8"?>
<!-- Generator: Adobe Illustrator 25.2.0, SVG Export Plug-In . SVG Version: 6.00 Build 0)  -->
<svg version="1.1" id="Layer_1" xmlns="http://www.w3.org/2000/svg" xmlns:xlink="http://www.w3.org/1999/xlink" x="0px" y="0px"
	 viewBox="0 0 162.4 162.4" style="enable-background:new 0 0 162.4 162.4;" xml:space="preserve">
<g>
	<path d="M50.7,114c0-0.1-0.1-0.3-0.2-0.7c0-0.3,0.1-0.5,0.3-0.7s0.4-0.3,0.6-0.3c0.3,0,0.5,0.1,0.7,0.3c0.2,0.2,0.4,0.5,0.5,0.7
		l4.3,12.3l0,0l4.3-12.4c0.1-0.5,0.6-0.8,1.1-0.8c0.2,0,0.5,0.1,0.6,0.3c0.2,0.2,0.3,0.5,0.3,0.7s-0.1,0.4-0.1,0.6L58,128.1
		c-0.1,0.3-0.2,0.6-0.5,0.8c-0.2,0.1-0.4,0.2-0.7,0.2c-0.2,0-0.5,0-0.7-0.2s-0.4-0.4-0.4-0.7L50.7,114z"/>
	<path d="M63.8,122.7c0-1,0.3-2,0.7-3c0.4-0.9,1-1.7,1.8-2.2c0.8-0.6,1.8-0.9,2.8-0.9s2,0.3,2.8,0.8c0.8,0.6,1.5,1.4,1.9,2.3
		s0.7,1.9,0.7,2.9c0,0.7-0.4,1-1.1,1h-7.6c0,0.7,0.2,1.4,0.5,2s0.7,1,1.3,1.3c0.6,0.3,1.2,0.4,1.8,0.4c1.2,0,2.4-0.5,3.3-1.3
		c0.2-0.2,0.5-0.3,0.8-0.4c0.2,0,0.4,0.1,0.5,0.3c0.1,0.2,0.2,0.4,0.2,0.6c0,0.3-0.1,0.5-0.3,0.7c-0.5,0.6-1.2,1-1.9,1.3
		c-0.8,0.3-1.7,0.5-2.6,0.5s-1.8-0.2-2.6-0.6c-0.7-0.3-1.3-0.8-1.8-1.5c-0.4-0.6-0.8-1.3-1-2C63.8,124.2,63.7,123.5,63.8,122.7
		L63.8,122.7L63.8,122.7z M65.8,122.1h6.7c0-1-0.3-1.9-0.9-2.7c-0.6-0.7-1.5-1.1-2.4-1c-0.9,0-1.8,0.3-2.4,1
		C66.1,120.1,65.7,121.1,65.8,122.1z"/>
	<path d="M84.3,127.3L84.3,127.3c-0.3,0.6-0.7,1-1.3,1.3c-0.6,0.3-1.3,0.5-2,0.5c-1,0-1.9-0.3-2.7-0.9c-0.8-0.6-1.4-1.4-1.8-2.3
		c-0.4-1-0.7-2.1-0.7-3.1c0-1.1,0.2-2.2,0.7-3.2c0.4-0.9,1.1-1.7,1.9-2.2s1.8-0.8,2.8-0.8c0.7,0,1.3,0.1,1.9,0.5
		c0.5,0.3,0.9,0.7,1.1,1.3l0,0v-0.7c0-0.3,0.1-0.5,0.3-0.7c0.2-0.2,0.4-0.3,0.7-0.2c0.3,0,0.5,0.1,0.7,0.2c0.2,0.2,0.3,0.5,0.3,0.8
		v10.4c0,1-0.2,2-0.6,3c-0.4,0.9-1,1.6-1.8,2.1c-0.9,0.5-1.9,0.8-2.9,0.8c-1.3,0-2.6-0.4-3.8-1.1c-0.5-0.3-0.9-0.7-1-1.3
		c0.1-0.4,0.4-0.8,0.8-0.8c0.5,0.1,0.9,0.3,1.3,0.5c0.4,0.3,0.8,0.5,1.3,0.6c0.5,0.2,1,0.2,1.5,0.2c1,0.1,2-0.4,2.5-1.3
		c0.6-0.9,0.8-2,0.8-3c0-0.1,0-0.2,0-0.2L84.3,127.3z M77.8,122.8c0,0.8,0.1,1.5,0.4,2.3c0.2,0.6,0.6,1.2,1.1,1.6s1.1,0.6,1.7,0.6
		c1,0,1.9-0.4,2.5-1.2c0.7-0.9,1-2,1-3.2c0-0.8-0.1-1.5-0.4-2.2c-0.2-0.7-0.6-1.3-1.2-1.7c-0.6-0.5-1.3-0.7-2-0.7s-1.3,0.2-1.8,0.7
		s-0.8,1-1,1.7C77.9,121.4,77.8,122.1,77.8,122.8L77.8,122.8z"/>
	<path d="M97.2,118.3v-0.7c0-0.3,0.1-0.5,0.3-0.7c0.3-0.4,0.9-0.4,1.3,0l0,0c0.2,0.2,0.3,0.5,0.3,0.7V128c0,0.3-0.1,0.6-0.3,0.8
		c-0.2,0.2-0.4,0.3-0.7,0.2c-0.2,0-0.5-0.1-0.7-0.2c-0.2-0.2-0.3-0.4-0.3-0.7v-0.9l0,0c-0.7,1.1-1.9,1.8-3.2,1.8
		c-1,0-1.9-0.2-2.8-0.7s-1.5-1.3-2-2.2c-1-2.1-0.9-4.6,0.1-6.7c0.5-0.9,1.2-1.6,2-2.1c0.7-0.4,1.6-0.7,2.4-0.7
		c0.6,0,1.3,0.1,1.9,0.4C96.2,117.4,96.8,117.8,97.2,118.3L97.2,118.3z M90.5,122.9c0,0.7,0.1,1.5,0.4,2.2c0.2,0.6,0.6,1.2,1.1,1.6
		s1.1,0.7,1.8,0.7c1,0.1,2-0.4,2.6-1.3c0.5-1,0.8-2.1,0.8-3.2c0-0.8-0.1-1.6-0.4-2.4c-0.2-0.6-0.6-1.1-1.2-1.5
		c-0.5-0.4-1.1-0.6-1.7-0.5l0,0c-1,0-1.9,0.5-2.4,1.3C90.8,120.6,90.5,121.7,90.5,122.9z"/>
	<path d="M101.8,117.7c0-0.3,0.1-0.6,0.3-0.8c0.2-0.2,0.4-0.3,0.7-0.3c0.3,0,0.5,0.1,0.7,0.3c0.2,0.2,0.3,0.5,0.3,0.8v0.5l0,0
		c0.4-0.5,0.9-0.9,1.5-1.2c0.6-0.3,1.2-0.4,1.8-0.4c0.7,0,1.5,0.2,2.1,0.5c0.7,0.4,1.2,0.9,1.6,1.6c0.4,0.8,0.6,1.7,0.6,2.6v6.8
		c0,0.3-0.1,0.5-0.3,0.7c-0.2,0.2-0.4,0.3-0.7,0.2c-0.3,0-0.5-0.1-0.7-0.3s-0.3-0.4-0.3-0.7v-6.7c0-0.8-0.3-1.6-0.8-2.1
		s-1.2-0.8-2-0.8c-0.5,0-1,0.1-1.4,0.4c-0.4,0.2-0.8,0.6-1,1c-0.3,0.5-0.4,1-0.4,1.6v6.7c0,0.3-0.1,0.6-0.3,0.8
		c-0.2,0.2-0.4,0.3-0.7,0.3c-0.3,0-0.5-0.1-0.7-0.3s-0.3-0.5-0.3-0.8L101.8,117.7z"/>
</g>
<g>
	<path d="M66.8,103.1c-5,0-9.2-2.2-12.4-6.6c-0.2-0.4-0.7-0.7-1.2-0.7c-0.2,0-0.4,0-0.5,0.1c-0.8,0.2-1.5,0.3-2.3,0.5
		c-1.2,0.3-2.6,0.5-3.8,0.9c-1.5,0.4-3.1,0-4.1-1.1c-0.8-1-1.1-2.3-0.9-3.5c0-0.1,0-0.2,0.1-0.3l0.1-0.5h-0.2
		c-1.3,0-2.6-0.6-3.4-1.7c-0.5-0.8-0.8-1.6-0.8-2.5c-0.1-2.1,1.3-3.5,4.1-4.1h0.1v-0.2c0-0.3,0-0.5,0-0.8c0-0.6,0-1.1,0.1-1.7
		c0.4-2,2.4-3.3,4.4-2.8l0,0c2,0.4,4,0.9,6.8,1.5c0.1,0,0.3,0.1,0.4,0c0.4,0,0.8-0.2,1-0.5c0.8-1,1.6-1.9,2.5-2.9l1.1-1.3l-0.6-1.6
		c-0.8-2.1-1.6-4.4-2.4-6.6c-0.2-0.3-0.5-0.6-0.9-0.6c-4.5-0.8-7.4-5.1-6.6-9.6c0-0.4-0.1-0.7-0.3-1c-2.6-2.3-3.4-6.1-2-9.2
		c0-0.1,0-0.1,0-0.2V46L45,45.8c-5.1-3.5-6.3-10.5-2.8-15.5c1.1-1.6,2.7-3,4.5-3.8c0.5-0.2,0.9-0.7,1.1-1.2c1-3,3.7-5.1,6.8-5.5
		c0.5,0,1-0.3,1.3-0.8c2.6-3.8,7.8-4.7,11.5-2.1c1.2,0.9,2.2,2,2.8,3.4c0.2,0.5,0.7,0.9,1.3,0.8c2.2,0,4.3,1,5.8,2.6l0.1,0.1
		c0.2,0.2,0.4,0.4,0.7,0.5c2.5,0.8,4.4,2.7,5.3,5.2l0.1,0.1h0.3c2.3-0.1,4.6,0.9,6.2,2.6c2.7,2.7,3.2,6.8,1.2,10
		c-0.3,0.5-0.3,1.1,0,1.5c0.9,1.5,1.3,3.3,1.1,5.1c0,0.2,0,0.4,0,0.6c0,0.1,0,0.2,0,0.3V50l3.8-2L96,45.9c-0.1-1.4-0.3-2.9-0.4-4.4
		c-0.3-2.4,1-4.7,3.2-5.7c0.7-0.3,1.5-0.5,2.2-0.5c1.6,0,3.1,0.7,4.2,1.9c1.1,1.3,1.5,2.9,1.2,4.6c-0.1,1.4-0.3,2.8-0.4,4.2
		l-0.1,1.7c0,0.1,0,0.2,0.1,0.3l3.6,1.7l0.5-0.4c1-0.8,2.3-1.2,3.6-1.2c1.3,0,2.5,0.4,3.5,1.2c4.9,3.6,7.8,9.3,7.9,15.4
		c0.1,3.6,0.1,7-1.4,10.3c-0.6,1.3-1.2,2.4-2,3.7l-1,1.7l-0.1,0.2l0.1,0.1l0.3,0.2c3,1.7,4.6,5.1,3.8,8.5c-0.7,3.3-3.4,5.7-6.7,6.1
		l-17.7,2.7l-14,2.2l-4.5,0.7c-4.1,0.7-8.4,1.3-12.7,1.9C68.3,103.1,67.6,103.1,66.8,103.1z M66.9,74.7c-0.9,0-1.8,0.1-2.6,0.3
		c-7,1.5-11.6,8.3-10.1,15.4c1.3,6.1,6.7,10.5,12.9,10.4h0.5c0.3,0,0.7,0,1-0.1c3.6-0.5,7.1-1.1,10.7-1.6L99.5,96l6-0.9
		c4.2-0.6,8.4-1.3,12.6-2c2.9-0.5,4.9-3.3,4.5-6.2c-0.4-2.3-2.2-4.1-4.5-4.5c-4.7-0.7-9.4-1.5-14.2-2.2l-13.2-2l-19.7-3
		C69.7,74.9,68.3,74.8,66.9,74.7L66.9,74.7z M48.3,91.7c-1,0-2,0-3,0c-0.3,0-0.7,0.1-0.9,0.4C44,92.5,43.9,93,44,93.5
		c0,0.7,0.5,1.3,1.2,1.4l0,0h0.2c1.6-0.3,3.3-0.7,5-1.1l2.4-0.5L52.7,93c-0.1-0.2-0.2-0.4-0.4-0.5c-0.3-0.4-0.5-0.8-0.8-0.8
		C50.5,91.8,49.4,91.8,48.3,91.7L48.3,91.7z M41.7,86c-0.6,0-1.1,0.2-1.5,0.5c-0.3,0.3-0.4,0.7-0.4,1.1c0,1,0.8,1.6,2,1.6h8.9h0.5
		h0.4v-3.1h-0.4h-0.5L41.7,86L41.7,86z M49.1,83.6c0.6,0,1.1,0,1.7,0H51c1,0,1.4-0.5,1.5-1.6v-0.2l-1.8-0.4c-1.5-0.3-3.1-0.7-4.6-1
		c-0.1,0-0.2,0-0.4,0c-0.4,0-1,0.1-1.2,0.5c-0.3,0.6-0.4,1.3-0.2,1.9c0.2,0.5,1,0.8,1.4,0.8s1,0,1.5,0L49.1,83.6z M113.6,50.5
		c-0.8,0-1.7,0.4-2.2,1l-0.1,0.1l0.1,0.1c1.7,1.9,3,4.1,3.9,6.5c1.2,3.1,1.2,6.4,1.2,9.5v0.5c0.2,3.7-0.5,7.4-2,10.7l-0.1,0.2l1,0.2
		c0.5,0.1,1,0.1,1.4,0.2c0.1,0,0.2,0,0.3,0c0.4,0,0.8-0.2,1.1-0.6c1.6-1.7,2.8-3.8,3.5-6c1.3-4.3,1.3-8.9,0.1-13.3
		c-1-3.5-3.1-6.5-6-8.6C115.2,50.8,114.4,50.5,113.6,50.5L113.6,50.5z M105.8,50.7c-0.3,1.4-0.5,2.4,0.9,3.4
		c0.8,0.5,1.3,1.3,1.3,2.2c0,1-0.5,1.9-1.3,2.4c-0.9,0.6-1.8,1.1-2.9,1.4c-0.9,0.2-1.8,0.3-2.6,0.4l-1.2,0.1h-0.1v0.1
		c0,0.1,0,0.1,0,0.2c-0.1,0.2-0.1,0.4-0.1,0.6v2.4c-0.1,2.9-0.1,5.9-0.1,8.9c0,1,0.2,2,0.4,3l0.1,0.5c0.1,0.4,0.4,0.7,0.8,0.8
		c2.1,0.4,4.2,0.7,6.3,1l3.9,0.6h0.3c0.4,0,0.8-0.3,0.9-0.7c0.1-0.5,0.3-0.9,0.5-1.3c0.4-1,0.7-2,0.9-3c0.3-3.2,0.4-6.5,0.3-9.8
		c-0.2-5-2.6-9.6-6.6-12.7c-0.3-0.2-0.6-0.4-0.9-0.6l-0.4-0.2l-0.2-0.1L105.8,50.7z M96.1,50.6l-0.4,0.2c-0.3,0.1-0.5,0.3-0.8,0.5
		c-2.5,1.9-4.4,4.4-5.6,7.3c-1.9,4.7-1.4,9.7-1,14.5v0.2c0.2,1.9,0.4,2,2.3,2.3l0.4,0.1l6.4,1v-0.4c0-0.1,0-0.2,0-0.2
		c-0.7-4.8-0.7-9.7-0.2-14.5c0.3-1-0.2-2-1.2-2.4c-1.1-0.5-1.8-1.5-1.9-2.7c0-1.1,0.6-2.1,1.6-2.7c0.8-0.4,1.1-1.3,0.9-2.1
		c0-0.2-0.1-0.4-0.1-0.6l-0.1-0.7L96.1,50.6z M88.4,50.4c-0.7,0-1.4,0.3-2,0.8c-1.3,1.1-2.6,2.3-3.6,3.7c-3.5,4.5-3.6,9.9-3.2,14.6
		c0.1,1,0.3,2.1,0.7,3.1c0.1,0.3,0.1,0.5,0.2,0.8c0.1,0.4,0.4,0.6,0.8,0.8c1.1,0.2,2.2,0.4,3.3,0.5l1.2,0.2c0,0-0.1-2.2-0.1-3.2
		c0-2.2-0.1-4.3-0.1-6.4c0-4.8,1.7-9.4,4.8-13l0.2-0.3l0.2-0.3l-0.1-0.1C90.1,50.9,89.3,50.5,88.4,50.4L88.4,50.4z M60,73.8l2.7-1
		l-0.1-0.2c0-0.1-0.1-0.2-0.1-0.3c-2-1.9-2.9-4.7-2.4-7.5c0-0.4-0.2-0.8-0.4-1c-2.5-2.4-3.2-6.1-1.9-9.3l0.1-0.1l-0.2-0.2l-0.2-0.1
		c-5-3.6-6.1-10.6-2.5-15.6c1.2-1.7,2.8-2.9,4.7-3.7c0.3-0.2,0.6-0.4,0.7-0.8c1-3.2,3.8-5.4,7.1-5.8c0.4-0.1,0.8-0.3,1-0.6
		c0.9-1.3,2.2-2.4,3.7-3c0.2-0.1,0.3-0.1,0.4-0.2l0.3-0.2l-0.1-0.7l-4.2,0.3v-0.1c0-0.2-0.1-0.4-0.1-0.6c-0.2-2-1.5-3.8-3.4-4.7
		c-0.8-0.4-1.7-0.6-2.5-0.6c-2.4,0-4.6,1.5-5.5,3.8L57,21.7c-0.1,0.4-0.2,0.5-0.6,0.5h-0.1c-0.3,0-0.5,0-0.8,0
		c-3-0.1-5.6,2.1-5.9,5.1c0,0.4-0.4,0.8-0.8,0.9c-4.6,1.3-7.4,6.1-6.1,10.7c0.7,2.4,2.4,4.4,4.6,5.5l1.1,0.6l-0.6,1
		c-0.9,1.3-1.3,3-1,4.6c0.4,1.5,1.3,2.9,2.7,3.7c0.7,0.4,0.8,0.7,0.5,1.5c-0.6,1.6-0.5,3.5,0.3,5c0.9,1.5,2.4,2.6,4.2,2.9
		c0.4,0.1,0.9,0.1,1.3,0.1h0.5L60,73.8z M61.1,53.8c-0.2,0.4-0.5,0.7-0.7,1.1c-1.3,2.1-1.1,4.7,0.4,6.5c0.5,0.6,1.2,1.2,1.8,1.6
		c0.5,0.3,0.5,0.5,0.3,0.9c-0.1,0.2-0.2,0.4-0.2,0.6v0.1c-0.5,1.7-0.2,3.5,0.7,5c0.9,1.5,2.5,2.4,4.2,2.6c1.3,0.1,2.7,0.3,4,0.5
		l0.9,0.1l3.5,0.5l1.8,0.3v-0.4c0-0.1,0-0.2,0-0.2c-0.8-3.3-1-6.8-0.6-10.2c0-0.4-0.2-0.9-0.6-1.1l-0.7-0.4
		c-1.2-0.6-2.5-1.2-3.9-1.6c-1.2-0.3-2.3-0.5-3.5-0.7c-0.4-0.1-0.9-0.1-1.4-0.2v-2.3h0.1c2.4,0,5.3,0.7,9.3,2.1l0.4,0.1l-0.1-0.4
		c-0.2-0.7-0.5-1.4-0.7-2c-0.5-1.5-1.1-2.9-1.5-4.3c-0.5-1.7-1.8-3-3.5-3.5c-0.8-0.3-1.6-0.6-2.5-0.7c-1.4-0.2-2.7-0.3-4.2-0.4
		l-1.6-0.1l-0.2-2.2c0.6,0,1.3-0.1,1.9-0.1c2.4,0,4.8,0.3,7.1,0.9L72,46l-4.7-8.9l2.1-1.4l6,11.5l0.2-0.4c1.3-3.3,3.3-6.2,5.9-8.5
		l1.6,1.9L83,40.3c-0.2,0.1-0.3,0.2-0.4,0.4c-2.8,2.7-4.7,6.2-5.5,10c-0.1,0.3-0.1,0.6,0,0.9c0.4,1.1,0.8,2.3,1.2,3.4l0.5,1.4
		l0.2-0.3c0.3-0.4,0.5-0.8,0.8-1.1c0.5-0.8,1.1-1.6,1.7-2.4l0.1-0.1c1.9-2.2,3.9-4.5,7-4.5c0.3,0,0.7,0,1,0.1H90v-0.2
		c0.1-1.6,0-1.9-2.4-5.1c2.6-2.4,3.2-5,1.7-7.7c-0.9-1.9-2.9-3.2-5.1-3.1c-0.9,0-1.8,0.1-2.6,0.4v-0.1c-0.1-0.2-0.1-0.4-0.1-0.7
		c-0.2-1.5-0.9-2.8-2-3.8s-2.4-1.5-3.9-1.5c-2.4,0-4.5,1.5-5.5,3.7L70,30.2c-0.1,0.4-0.2,0.5-0.6,0.5h-0.1c-0.3,0-0.5,0-0.8,0
		c-3-0.1-5.5,2.1-5.8,5c0,0.5-0.4,0.9-0.9,0.9c-4.6,1.3-7.3,6.1-6.1,10.7c0.7,2.4,2.4,4.4,4.6,5.5l0.9,0.5l0.2,0.1L61.1,53.8z
		 M101,37.7c-0.8,0-1.6,0.3-2.1,0.9c-0.7,0.8-0.9,1.8-0.8,2.8c0.2,1.9,0.4,3.9,0.5,5.8c0.2,2.3,0.4,4.6,0.6,6.9
		c0.1,0.6,0,0.9-0.7,1.1c-0.5,0.1-0.9,0.4-1.4,0.6c-0.2,0.1-0.4,0.2-0.6,0.3l-0.2,0.1l0.1,0.2c0.9,1.1,2.9,1.6,4.5,1.6l0,0
		c2.1,0,3.9-0.6,4.5-1.6l0.1-0.2l-0.2-0.1l-0.6-0.3c-0.4-0.2-0.9-0.4-1.4-0.6c-0.6-0.2-0.8-0.4-0.7-1.1c0.1-1.1,0.2-2.3,0.3-3.4
		l0.1-1.2l0.2-2.2c0.2-2.1,0.4-4.2,0.6-6.3c0.2-1.5-0.8-2.9-2.3-3.2C101.5,37.7,101.3,37.7,101,37.7L101,37.7z"/>
	<path d="M66.9,94.6c-0.6,0-1.2-0.5-1.2-1.2V82c0-0.6,0.5-1.2,1.2-1.2c0.6,0,1.2,0.5,1.2,1.2v11.4C68.1,94,67.6,94.6,66.9,94.6z"/>
	<path d="M78.3,94.6c-0.6,0-1.2-0.5-1.2-1.2V82c0-0.6,0.5-1.2,1.2-1.2c0.6,0,1.2,0.5,1.2,1.2v11.4C79.5,94.1,79,94.6,78.3,94.6
		L78.3,94.6z"/>
	<path d="M89.7,94.6c-0.6,0-1.2-0.5-1.2-1.2V82c-0.1-0.6,0.4-1.2,1.1-1.3c0.6-0.1,1.2,0.4,1.3,1.1c0,0.1,0,0.1,0,0.2v11.4
		C90.8,94.1,90.3,94.6,89.7,94.6z"/>
	<path d="M101,91.7c-0.6,0-1.2-0.5-1.2-1.2v-5.7c0-0.6,0.5-1.2,1.2-1.2c0.6,0,1.2,0.5,1.2,1.2l0,0v5.7
		C102.2,91.2,101.7,91.7,101,91.7L101,91.7z"/>
	<path d="M112.4,90.3c-0.6,0-1.1-0.5-1.1-1.2v-2.8c0-0.6,0.5-1.2,1.2-1.2c0.6,0,1.2,0.5,1.2,1.2v2.8
		C113.7,89.8,113.1,90.3,112.4,90.3C112.5,90.3,112.5,90.3,112.4,90.3z"/>
</g>
</svg>
