<?xml version="1.0" encoding="utf-8"?>
<!-- Generator: Adobe Illustrator 25.2.0, SVG Export Plug-In . SVG Version: 6.00 Build 0)  -->
<svg version="1.1" id="Layer_1" xmlns="http://www.w3.org/2000/svg" xmlns:xlink="http://www.w3.org/1999/xlink" x="0px" y="0px"
	 viewBox="0 0 162.4 162.4" style="enable-background:new 0 0 162.4 162.4;" xml:space="preserve">
<g>
	<path d="M52.7,127.6c0,0.4-0.2,0.8-0.5,1.1c-0.3,0.2-0.6,0.4-1,0.4c-0.3,0-0.6-0.1-0.9-0.3c-0.3-0.2-0.5-0.5-0.6-0.8l-3.4-12l0,0
		l-3.5,12c-0.1,0.3-0.3,0.6-0.5,0.8c-0.3,0.2-0.6,0.3-0.9,0.3c-0.4,0-0.7-0.1-1-0.4c-0.3-0.3-0.5-0.6-0.5-1l-2.4-13.9
		c0-0.4,0.1-0.7,0.3-1c0.1-0.2,0.4-0.3,0.7-0.3s0.5,0.1,0.7,0.2c0.2,0.2,0.3,0.4,0.4,0.7l1.9,13.1l4-13.2c0.1-0.5,0.5-0.8,0.9-0.8
		c0.2,0,0.5,0.1,0.7,0.2s0.3,0.3,0.4,0.6l3.9,13.2l1.9-13.2c0-0.3,0.2-0.5,0.4-0.7s0.4-0.3,0.7-0.3s0.5,0.1,0.7,0.3
		c0.2,0.3,0.3,0.6,0.3,0.9v0.4L52.7,127.6z"/>
	<path d="M56.7,112.2c0-0.3,0.1-0.6,0.3-0.8c0.4-0.4,1-0.4,1.4,0c0.2,0.2,0.3,0.5,0.3,0.8v5.8l0,0c0.4-0.5,0.8-0.9,1.4-1.2
		c0.6-0.3,1.2-0.4,1.9-0.4c0.8,0,1.5,0.2,2.2,0.6c0.7,0.4,1.2,1,1.5,1.7c0.4,0.7,0.6,1.4,0.6,2.2v6.9c0,0.3-0.1,0.6-0.3,0.8
		c-0.2,0.2-0.4,0.3-0.7,0.3c-0.3,0-0.5-0.1-0.7-0.3s-0.3-0.5-0.3-0.8v-6.6c0-0.8-0.2-1.5-0.8-2.1c-0.5-0.6-1.3-0.9-2-0.9
		c-0.5,0-1,0.1-1.4,0.3c-0.4,0.2-0.8,0.6-1.1,1c-0.3,0.5-0.4,1.1-0.4,1.6v6.7c0,0.3-0.1,0.6-0.3,0.8s-0.4,0.3-0.7,0.3
		s-0.5-0.1-0.7-0.3s-0.3-0.5-0.3-0.8L56.7,112.2z"/>
	<path d="M68.4,122.7c0-1.1,0.2-2.2,0.7-3.2c0.4-0.9,1.1-1.7,1.9-2.2s1.8-0.8,2.8-0.8s2,0.3,2.8,0.9s1.5,1.4,1.9,2.3
		c0.4,1,0.7,2,0.6,3.1c0,1.1-0.2,2.1-0.6,3.1c-0.4,0.9-1,1.7-1.9,2.2c-1.7,1.1-3.9,1.1-5.6,0c-0.8-0.6-1.5-1.4-1.9-2.3
		C68.6,124.8,68.3,123.8,68.4,122.7z M70.4,122.7c0,1.1,0.3,2.1,0.8,3.1c0.5,0.9,1.5,1.5,2.5,1.4c0.7,0,1.3-0.2,1.9-0.6
		c0.5-0.4,0.9-1,1.1-1.6c0.3-0.7,0.4-1.5,0.4-2.2c0-0.8-0.1-1.5-0.4-2.3c-0.2-0.6-0.6-1.2-1.1-1.6s-1.2-0.6-1.8-0.6
		c-0.7,0-1.3,0.2-1.8,0.6s-0.9,1-1.1,1.6C70.5,121.1,70.3,121.9,70.4,122.7z"/>
	<path d="M81.1,112.2c0-0.3,0.1-0.6,0.3-0.8c0.2-0.2,0.4-0.3,0.7-0.3c0.3,0,0.5,0.1,0.7,0.3c0.2,0.2,0.3,0.5,0.3,0.7v15.6
		c0,0.3-0.1,0.6-0.3,0.8c-0.4,0.4-1,0.4-1.4,0c-0.2-0.2-0.3-0.5-0.3-0.8C81.1,127.7,81.1,112.2,81.1,112.2z"/>
	<path d="M84.9,122.6c0-1,0.3-2,0.7-3c0.4-0.9,1-1.7,1.8-2.3c0.8-0.6,1.8-0.9,2.8-0.9s2,0.3,2.8,0.8c0.8,0.6,1.5,1.4,1.9,2.3
		s0.7,1.9,0.7,2.9c0,0.7-0.4,1-1.1,1h-7.6c0,0.7,0.2,1.4,0.5,2s0.7,1,1.3,1.3c0.6,0.3,1.2,0.4,1.8,0.4c1.2,0,2.4-0.5,3.3-1.3
		c0.2-0.2,0.5-0.3,0.8-0.4c0.2,0,0.4,0.1,0.5,0.2c0.1,0.2,0.2,0.4,0.2,0.6c0,0.3-0.1,0.5-0.3,0.7c-0.5,0.6-1.2,1-1.9,1.3
		c-0.8,0.3-1.7,0.5-2.6,0.5s-1.8-0.2-2.6-0.6c-0.7-0.3-1.3-0.8-1.8-1.5c-0.4-0.6-0.8-1.3-1-2s-0.3-1.4-0.3-2.2L84.9,122.6
		L84.9,122.6z M86.9,122h6.7c0-1-0.3-1.9-0.9-2.7c-1.3-1.3-3.4-1.4-4.7-0.2l-0.1,0.1C87.3,120,86.9,121,86.9,122L86.9,122z"/>
	<path d="M103.2,116.1c0.1-0.7,0.3-1.4,0.7-1.9c0.4-0.6,0.9-1,1.6-1.3s1.5-0.5,2.2-0.5s1.5,0.2,2.1,0.7c0.6,0.4,1.1,0.9,1.4,1.5
		s0.5,1.3,0.5,2s-0.2,1.3-0.5,1.9s-0.8,1.1-1.4,1.5c0.8,0.2,1.6,0.7,2,1.5c0.2,0.3,0.4,0.7,0.5,1.1s0.2,0.9,0.2,1.3s0,0.8-0.1,1.2
		c-0.1,0.7-0.4,1.3-0.8,1.8c-0.5,0.6-1.1,1.1-1.8,1.4c-0.8,0.4-1.8,0.6-2.7,0.5c-0.7,0-1.4-0.1-2-0.4c-0.6-0.3-1.1-0.7-1.6-1.2
		c-0.4-0.5-0.7-1-0.9-1.6v-0.1c0-0.1,0-0.1,0-0.2s0-0.1,0-0.2V125c0-0.3,0.1-0.5,0.3-0.8c0.2-0.2,0.4-0.3,0.7-0.3
		c0.5,0,0.8,0.3,1,0.9c0.3,1.3,1.4,2.2,2.8,2.3c0.5,0,1.1-0.2,1.5-0.4c0.5-0.2,0.8-0.6,1.1-1c0.3-0.4,0.4-0.9,0.4-1.4
		c0-2.2-0.9-3.2-2.7-3.2c-0.8,0-1.3-0.3-1.3-0.8c0-0.2,0.1-0.5,0.3-0.6c0.3-0.2,0.7-0.3,1.1-0.4c0.6-0.1,1.1-0.5,1.5-1
		c0.4-0.6,0.5-1.3,0.5-2c0-0.4-0.2-0.8-0.4-1.2c-0.2-0.3-0.5-0.6-0.8-0.8c-0.3-0.2-0.7-0.3-1.1-0.3c-0.6,0-1.2,0.2-1.6,0.6
		c-0.5,0.5-0.7,1.1-0.7,1.8c0,0.5-0.4,1-0.9,1c-0.3,0-0.5-0.2-0.7-0.4C103.3,116.8,103.2,116.5,103.2,116.1z"/>
	<path d="M114.6,120.4c0-1.2,0.2-2.4,0.5-3.5c0.3-1.2,0.9-2.2,1.7-3.1c0.8-0.8,2-1.3,3.1-1.4c0.8,0,1.7,0.2,2.4,0.7
		c0.7,0.5,1.3,1.1,1.7,1.9c0.4,0.8,0.8,1.7,0.9,2.6c0.2,0.9,0.3,1.9,0.3,2.8c0,1.2-0.1,2.3-0.4,3.5c-0.2,0.9-0.6,1.9-1.1,2.7
		c-0.4,0.7-1,1.3-1.7,1.7c-0.7,0.4-1.4,0.6-2.2,0.6c-0.8,0-1.6-0.2-2.3-0.7c-0.3-0.2-0.7-0.5-1-0.8s-0.5-0.7-0.8-1
		c-0.5-0.9-0.8-1.8-1-2.7C114.7,122.6,114.6,121.5,114.6,120.4z M116.8,120.4c0,1.1,0.1,2.3,0.3,3.4c0.2,0.9,0.6,1.7,1.1,2.4
		c0.4,0.6,1.1,0.9,1.8,0.9c0.7,0,1.3-0.3,1.7-0.9c0.5-0.7,0.9-1.5,1.1-2.3c0.3-1,0.4-2.1,0.4-3.1c0-1.3-0.1-2.5-0.4-3.8
		c-0.2-0.8-0.6-1.6-1.2-2.2c-0.4-0.5-1.1-0.7-1.7-0.7c-0.7,0-1.4,0.4-1.8,1c-0.5,0.7-0.9,1.5-1,2.4
		C116.9,118.4,116.8,119.4,116.8,120.4L116.8,120.4z"/>
</g>
<g>
	<path d="M54.5,94.4c-2.9,0.1-5.3-2.1-5.4-4.9c0-0.1,0-0.2,0-0.3c0-16.2,0-32.4,0-48.6c0-2.8,2.2-5.2,5.1-5.2c0.1,0,0.1,0,0.2,0H57
		v-0.6c0-0.3,0-0.9,0-0.9c0-0.7,0-1.3,0-2c-0.2-0.8,0.2-1.6,1-1.9h0.7c0.7,0.4,1,1.2,0.9,1.9c0,0.7,0,1.3,0,2c0,0.3,0,0.6,0,0.9v0.6
		h12.8v-0.6c0-0.3,0-0.9,0-0.9c0-0.6,0-1.3,0-2c-0.2-0.8,0.2-1.6,1-1.9h0.7c0.7,0.4,1,1.2,0.9,1.9c0,0.7,0,1.3,0,2
		c0,0.3,0,0.5,0,0.8v0.6h12.8v-0.6c0-0.3,0-0.9,0-0.9c0-0.6,0-1.3,0-2c-0.2-0.8,0.2-1.6,1-1.9h0.7c0.7,0.4,1,1.2,0.9,1.9
		c0,0.7,0,1.3,0,2c0,0.3,0,0.6,0,0.8v0.6h12.8v-0.6c0-0.3,0-0.9,0-0.9c0-0.6,0-1.3,0-2c-0.2-0.8,0.2-1.6,1-1.9h0.7
		c0.7,0.4,1,1.2,0.9,1.9c0,0.7,0,1.3,0,2c0,0,0,0.6,0,0.9v0.6h2c0.3,0,0.5,0,0.7,0c2.1,0,3.9,1.3,4.7,3.2c0.1,0.3,0.2,0.6,0.3,0.9
		c0,0.2,0.1,0.3,0.1,0.4v50.1l0,0c0,0,0,0.1-0.1,0.1c-0.8,3-2.6,4.4-5.6,4.4H54.5V94.4z M51.7,88.8c0,2,1,3,3,3H108c2,0,3-1,3-3
		V53.4H51.7V88.8z M54.5,37.9c-1.4-0.1-2.7,0.9-2.8,2.3c0,0.2,0,0.4,0,0.5v8.7c0,0.2,0,0.3,0,0.5v0.8H111v-3.6c0-2.3,0-4.5,0-6.8
		c0-1.1-0.8-2.1-2-2.3c-0.4,0-0.7-0.1-1.1-0.1h-0.8h-0.8h-0.6v3.9c0,0.4-0.2,0.9-0.5,1.1c-0.2,0.2-0.5,0.3-0.7,0.3s-0.4-0.1-0.6-0.1
		c-0.5-0.2-0.8-0.7-0.7-1.2c0-0.8,0-1.6,0-2.4v-1.6H90.3v2.9c0,0.4,0,0.8,0,1.2c0,0.7-0.6,1.3-1.3,1.3c-0.2,0-0.4-0.1-0.6-0.2
		c-0.5-0.2-0.7-0.7-0.7-1.2c0-0.8,0-3.4,0-3.4v-0.6H75.3l-0.2,0.2C75,38.2,75,38.4,75,38.6v3.3c0,0.5-0.2,1-0.7,1.2
		c-0.2,0.1-0.4,0.2-0.6,0.2c-0.7,0-1.3-0.6-1.3-1.3c0-0.8,0-1.6,0-2.4v-1.7H59.5v1.9c0,0.7,0,1.3,0,2c0.1,0.7-0.4,1.4-1.1,1.4
		c-0.7,0.1-1.4-0.4-1.4-1.1c0-0.1,0-0.2,0-0.3v-3.9H54.5L54.5,37.9z"/>
	<path d="M89,82.9c-3.1,0-5.7-2.3-6.2-5.3c0-0.3-0.1-0.6-0.1-0.9v-1.9c0-2,0-4.1,0-6.2c0-3.4,2.9-6.2,6.3-6.2h0.2
		c3.3,0.2,5.9,2.8,6,6.1c0,0.9,0,1.9,0,2.8v0.9l-0.1,0.4c0,0.6,0,1.1,0,1.6c0.1,1.1,0,2.3-0.1,3.4C94.7,80.7,92.1,82.9,89,82.9
		L89,82.9z M89,64.9c-2,0-3.7,1.7-3.7,3.7v0.1c0,2.6,0,5.1,0,7.7c-0.1,2,1.5,3.8,3.5,3.9s3.8-1.5,3.9-3.5c0-0.1,0-0.2,0-0.4
		c0-0.9,0-1.7,0-2.6v-2.4c0-0.9,0-1.8,0-2.7c0.1-2-1.5-3.7-3.6-3.8C89.1,64.9,89.1,64.9,89,64.9L89,64.9z"/>
	<path d="M73.2,82.9c-2.8,0-5.2-2-5.7-4.7c-0.1-0.4-0.1-0.8-0.1-1.2c0.1-0.7,0.6-1.2,1.3-1.2c0.7,0,1.3,0.5,1.3,1.2
		c0,1.8,1.5,3.3,3.3,3.3c1.8-0.1,3.2-1.6,3.1-3.3c0-0.3-0.1-0.6-0.2-0.9c-0.4-1.2-1.4-2.1-2.7-2.2h-0.2c-0.7,0-1.3-0.5-1.3-1.3
		c0-0.7,0.5-1.3,1.3-1.3c1-0.1,2-0.6,2.6-1.4c0.5-0.7,0.7-1.7,0.5-2.6c-0.4-1.7-2.1-2.8-3.8-2.4c-1.2,0.3-2.1,1.1-2.4,2.3
		c-0.2,0.8-0.5,1.1-1.1,1.2c-0.1,0-0.2,0-0.2,0c-0.4,0-0.7-0.2-1-0.5s-0.4-0.8-0.3-1.2c0.6-2.6,2.9-4.5,5.6-4.5s5.1,1.9,5.7,4.5
		c0.4,1.9-0.1,3.9-1.5,5.3L77,72.4l0.4,0.4c1.1,1.2,1.7,2.8,1.7,4.4c-0.2,2.9-2.5,5.3-5.4,5.5L73.2,82.9z"/>
</g>
</svg>
