<?xml version="1.0" encoding="utf-8"?>
<!-- Generator: Adobe Illustrator 25.2.0, SVG Export Plug-In . SVG Version: 6.00 Build 0)  -->
<svg version="1.1" id="Layer_1" xmlns="http://www.w3.org/2000/svg" xmlns:xlink="http://www.w3.org/1999/xlink" x="0px" y="0px"
	 viewBox="0 0 162.4 162.4" style="enable-background:new 0 0 162.4 162.4;" xml:space="preserve">
<g>
	<path d="M51.6,125.3l-1.1,2.9c-0.2,0.6-0.9,0.8-1.4,0.6c-0.1,0-0.2-0.1-0.2-0.1c-0.2-0.1-0.3-0.4-0.3-0.6l0.1-0.3
		c0-0.1,0-0.2,0-0.3l5.2-14c0.1-0.3,0.3-0.6,0.6-0.9c0.5-0.4,1.2-0.4,1.7,0c0.3,0.2,0.5,0.5,0.6,0.9l5.3,14c0.1,0.2,0.1,0.4,0.1,0.6
		c0,0.2-0.1,0.4-0.3,0.6c-0.2,0.1-0.4,0.2-0.7,0.2c-0.2,0-0.4-0.1-0.6-0.2c-0.2-0.1-0.4-0.3-0.4-0.6l-1.1-2.9L51.6,125.3z
		 M52.2,123.6h6.3l-3.1-8.8l0,0L52.2,123.6z"/>
	<path d="M64.2,118.4h-0.8c-0.6,0-1-0.3-1-0.9c0-0.5,0.4-0.8,1-0.8h0.8v-2.9c0-0.7,0.3-1.4,0.8-1.8c0.5-0.4,1.2-0.7,1.9-0.7
		c1.2,0,1.8,0.3,1.8,0.9c0,0.2-0.1,0.4-0.2,0.5c-0.2,0.2-0.5,0.3-0.8,0.3h-0.6c-0.5,0-0.8,0.3-0.8,0.9v2.8h1.3c0.6,0,0.9,0.3,1,0.8
		c0.1,0.5-0.3,0.9-1,0.9h-1.3v9.5c0,0.3-0.1,0.6-0.3,0.8c-0.2,0.2-0.5,0.3-0.7,0.3c-0.3,0-0.5-0.1-0.7-0.3c-0.2-0.2-0.3-0.5-0.3-0.8
		L64.2,118.4z"/>
	<path d="M69.1,117.6c0-0.5,0.4-1,0.9-1c0,0,0,0,0.1,0c0.3,0,0.5,0.1,0.7,0.3c0.2,0.2,0.3,0.5,0.3,0.7v1l0,0c0.3-0.5,0.7-1,1.2-1.4
		c0.4-0.4,1-0.6,1.5-0.7c0.3,0,0.6,0.1,0.8,0.3c0.2,0.2,0.3,0.4,0.3,0.7c0,0.3-0.1,0.6-0.3,0.8c-0.3,0.2-0.7,0.3-1.1,0.4
		c-0.3,0.1-0.6,0.2-0.9,0.3c-0.5,0.3-0.9,0.7-1.2,1.2c-0.3,0.6-0.4,1.2-0.4,1.8v5.9c0,0.3-0.1,0.6-0.3,0.8c-0.2,0.2-0.4,0.3-0.7,0.3
		c-0.3,0-0.5-0.1-0.7-0.3c-0.2-0.2-0.3-0.5-0.3-0.8L69.1,117.6z"/>
	<path d="M77.2,115.1c-0.3,0-0.6-0.1-0.8-0.3c-0.2-0.2-0.3-0.5-0.3-0.8c0-0.3,0.1-0.6,0.3-0.8c0.2-0.2,0.5-0.3,0.8-0.3
		c0.6,0,1.1,0.6,1.1,1.2c0,0.3-0.1,0.5-0.3,0.7C77.8,115,77.5,115.1,77.2,115.1z M76.2,117.5c0-0.3,0.1-0.6,0.3-0.8
		c0.2-0.2,0.4-0.3,0.7-0.3c0.3,0,0.5,0.1,0.7,0.3c0.2,0.2,0.3,0.5,0.3,0.8v10.3c0,0.3-0.1,0.6-0.3,0.8c-0.2,0.2-0.4,0.3-0.7,0.3
		c-0.3,0-0.5-0.1-0.7-0.3c-0.2-0.2-0.3-0.5-0.3-0.8V117.5z"/>
	<path d="M88.9,117.7c0.1,0.1,0.1,0.3,0.1,0.4c0,0.2-0.1,0.4-0.2,0.6c-0.2,0.2-0.4,0.3-0.7,0.3H88l-0.2-0.1l-0.4-0.1
		c-0.3-0.1-0.6-0.2-0.9-0.3c-0.2-0.1-0.5-0.1-0.8-0.1c-0.7,0-1.3,0.2-1.8,0.6c-0.5,0.4-0.9,1-1.2,1.6c-0.3,0.7-0.4,1.4-0.5,2.1
		c0,1.1,0.2,2.1,0.7,3c0.1,0.3,0.3,0.6,0.6,0.8c0.2,0.2,0.5,0.4,0.8,0.5c0.3,0.1,0.7,0.2,1,0.3c0.1,0,0.2,0,0.3,0l0.5-0.1
		c0.2,0,0.3-0.1,0.5-0.1L87,127l0.3-0.1l0.4-0.2c0.2-0.1,0.3-0.1,0.5-0.1c0.2,0,0.4,0.1,0.5,0.2c0.1,0.2,0.2,0.4,0.2,0.6
		c0,0.6-0.4,1.1-1,1.2c-0.7,0.2-1.4,0.3-2.1,0.3c-1,0-2-0.3-2.9-0.8c-0.8-0.5-1.5-1.3-1.9-2.2c-0.4-0.9-0.7-1.9-0.7-3
		c0-0.8,0.1-1.6,0.3-2.4c0.2-0.7,0.5-1.4,1-2.1c0.4-0.6,1-1.1,1.7-1.4c0.8-0.4,1.6-0.6,2.4-0.6c0.7,0,1.4,0.1,2.1,0.3
		C88.2,117,88.6,117.3,88.9,117.7z"/>
	<path d="M99,118.2v-0.7c0-0.3,0.1-0.5,0.3-0.7c0.2-0.2,0.4-0.3,0.7-0.3c0.2,0,0.5,0.1,0.7,0.3c0.2,0.2,0.3,0.5,0.3,0.8v10.4
		c0,0.3-0.1,0.6-0.3,0.8c-0.2,0.2-0.4,0.3-0.7,0.2c-0.2,0-0.5-0.1-0.7-0.2c-0.2-0.2-0.3-0.4-0.3-0.7v-0.9l0,0
		c-0.7,1.1-1.9,1.8-3.2,1.8c-2,0-3.9-1.1-4.8-2.9c-0.5-1-0.7-2.1-0.7-3.2c0-1.2,0.2-2.4,0.8-3.5c0.5-0.9,1.2-1.6,2-2.1
		c0.7-0.4,1.6-0.7,2.4-0.7c0.6,0,1.3,0.1,1.9,0.4C98.1,117.3,98.6,117.7,99,118.2L99,118.2z M92.4,122.7c0,0.7,0.1,1.5,0.4,2.2
		c0.2,0.6,0.6,1.2,1.1,1.6c0.5,0.4,1.1,0.6,1.8,0.6c1,0.1,2-0.4,2.6-1.3c0.5-1,0.8-2.1,0.8-3.2c0-0.8-0.1-1.6-0.4-2.4
		c-0.2-0.6-0.6-1.2-1.2-1.5c-0.5-0.4-1.1-0.6-1.7-0.5l0,0c-1,0-1.9,0.5-2.4,1.3C92.7,120.5,92.4,121.6,92.4,122.7L92.4,122.7z"/>
	<path d="M103.6,117.6c0-0.3,0.1-0.6,0.3-0.8c0.2-0.2,0.4-0.3,0.7-0.3c0.3,0,0.5,0.1,0.7,0.3c0.2,0.2,0.3,0.5,0.3,0.8v0.5l0,0
		c0.4-0.5,0.9-0.9,1.5-1.2c0.6-0.3,1.2-0.4,1.8-0.4c0.7,0,1.4,0.2,2.1,0.5c0.7,0.4,1.2,0.9,1.6,1.6c0.4,0.8,0.6,1.7,0.6,2.6v6.8
		c0,0.3-0.1,0.5-0.3,0.7c-0.2,0.2-0.4,0.3-0.7,0.2c-0.3,0-0.5-0.1-0.7-0.3c-0.2-0.2-0.3-0.4-0.3-0.7v-6.7c0-0.8-0.3-1.6-0.8-2.1
		c-0.5-0.5-1.2-0.8-2-0.8c-0.5,0-1,0.1-1.4,0.3c-0.4,0.2-0.8,0.6-1,1c-0.3,0.5-0.4,1-0.4,1.6v6.7c0,0.3-0.1,0.6-0.3,0.8
		c-0.2,0.2-0.4,0.3-0.7,0.3c-0.3,0-0.5-0.1-0.7-0.3c-0.2-0.2-0.3-0.5-0.3-0.8L103.6,117.6z"/>
</g>
<g>
	<path d="M67.5,23.9c0.6,0.2,1.3,0.3,1.9,0.6c1.7,0.6,2.9,2,3.1,3.7c0.1,0.9,0.8,1.6,1.6,1.9c0.8,0.4,1.7,0.7,2.6,1.1
		c0-0.2,0-0.3,0-0.5c-0.1-1.1,0.8-2,1.9-2.1c0.1,0,0.1,0,0.2,0c1.1,0,2.2,0.2,3.3,0.5c1.5,0.5,3.2,0.6,4.8,0.4
		c0.9-0.1,1.8-0.2,2.7-0.2c0.7,0,1.4,0.3,1.7,1c0.6,1,0.8,2.2,0.6,3.3c-0.5,1.8,0.3,3.7,1.9,4.8c1,0.7,1.7,1.8,1.9,3.1
		c0.2,0.8,0.4,1.6,0.6,2.4c0.1,0.8,0.6,1.4,1.4,1.8c1.2,0.5,2.3,1.4,3.1,2.5c0.4,0.6,1.2,0.9,1.9,0.6c1-0.3,1.9-0.6,2.9-0.8
		c1.9-0.4,3,0.7,2.9,2.7c-0.2,3.7-2.3,6.5-4.7,9.1c-1,1.1-2.1,2.2-3.3,3.1c-1.4,1-2.2,2.6-2.2,4.3c-0.2,2.3-0.1,4.7,0.2,7
		c0.4,2.7-0.5,4.3-2.9,5.5c-2,1-2,1-1.8,3.1c0.4,2.9-0.9,5.8-3.5,7.4c-1.3,0.9-2.5,2-3.8,2.9c-1.5,1.3-3.2,2.2-5.2,2.7
		c-1.6,0.2-3.3-0.2-4.5-1.3c-0.6-0.6-0.9-1.3-1-2.1c-0.1-0.5-0.3-1.1-0.6-1.6c-0.7-1.1-1.2-2.3-1.3-3.6c-0.2-1.3-0.7-2.5-1.4-3.6
		c-1.1-1.6-1.6-3.5-1.6-5.5c0-0.4,0.1-0.7,0.1-1.1c0.1-0.7,0.8-1.2,1.6-1.1c0.7,0.1,1.3,0.8,1.2,1.5c-0.2,1.7,0.2,3.5,1.2,4.9
		c0.9,1.5,1.5,3.1,1.8,4.8c0.2,0.7,0.4,1.3,0.7,2c0.4,1,0.7,2,1.1,2.9c0.1,0.3,0.3,0.5,0.6,0.7c0.8,0.5,1.9,0.5,2.7,0
		c1.1-0.7,2.2-1.4,3.3-2.2c1.3-0.9,2.6-2,3.8-2.9c1.5-1.1,2.2-3,1.9-4.8c-0.4-2.6,0.3-4,2.6-5.2l0.6-0.3c1.5-0.8,1.8-1.2,1.5-2.9
		c-0.4-3-0.4-6.1,0.1-9.1c0.2-1.6,1-2.9,2.3-3.9c2.2-1.8,4.2-3.8,5.9-6.1c1-1.3,1.5-2.8,1.6-4.4c-0.9,0.2-1.7,0.5-2.6,0.6
		c-1.6,0.4-3.3-0.2-4.3-1.5c-0.6-0.8-1.3-1.4-2.2-1.9c-1.5-0.7-2.6-2.1-2.9-3.7c0-0.1-0.1-0.3-0.1-0.4c-0.2-1.8-1.1-3.4-2.4-4.5
		c-1.6-1.4-2.3-3.6-1.8-5.7c0-0.5,0-1.1,0-1.6c-3.2,0.5-6.2,0.6-9.3-0.8c0.2,1.2,0,2-0.9,2.5c-0.9,0.6-2,0.6-3,0.2
		c-1.4-0.6-2.7-1.2-4-2c-1-0.5-1.7-1.5-1.9-2.6c-0.4-1.9-2.2-3.1-4.1-2.7c-0.4,0.1-0.9,0.3-1.2,0.5c-0.6,0.5-1.3,0.8-2.1,1.1
		c-0.9,0.2-1.8,0.3-2.8,0.3c-1.2,0-2.4,0.4-3.3,1.1c-0.3,0.3-0.5,0.7-0.6,1.1c0.1,1.8-1.1,3.4-2.9,3.9c-1.7,0.6-3,1.8-3.8,3.4
		c-0.3,0.5-0.4,1.1-0.4,1.7c0,1.8-0.3,3.6-0.9,5.3c-0.9,2.7-0.1,5.6,2,7.4c1.3,1.1,2.7,2.1,4.2,3.1c0.4,0.2,0.8,0.2,1.2,0.1
		c1.1-0.2,2.2-0.3,3.3-0.3c1.1,0.1,2.3-0.2,3.3-0.8c1-0.5,2.2-0.6,3.3-0.3c1.3,0.2,2.5,0.5,3.8,0.7c1.3,0.1,2.2,1.2,2.1,2.4
		c-0.1,1.2-0.4,2.3-0.8,3.4c-0.2,0.4,0,0.9,0.3,1.1c0.6,0.5,1.1,1,1.6,1.5c0.5,0.5,0.5,1.4,0,2c0,0,0,0-0.1,0
		c-0.6,0.5-1.5,0.5-2-0.1c0,0,0,0,0-0.1c-0.5-0.5-1-0.9-1.6-1.4c-1.2-0.8-1.6-2.3-1-3.6c0.3-0.8,0.5-1.6,0.8-2.4
		c-1.5-0.3-2.8-0.7-4.2-0.9c-0.4-0.1-0.8,0-1.2,0.2c-1.3,0.7-2.8,1-4.2,1c-1,0-2,0.2-3,0.3c-0.6,0.1-1.2,0.1-1.8,0
		c-4.1-2-7.8-4.6-8.9-9.5c-0.3-1.3-0.3-2.8,0.1-4.1c0.6-1.9,0.9-3.8,1-5.8c0.2-3.1,2.2-5.3,4.9-6.7c1.3-0.7,2.4-1.1,2.3-2.8
		c0.1-0.7,0.4-1.3,0.9-1.7c1.4-1.5,3.3-2.4,5.4-2.3c1.3,0.1,2.6-0.3,3.6-1c0.8-0.4,1.6-0.7,2.4-1L67.5,23.9z"/>
	<path d="M99.8,84.8c0.2-1,0.5-1.9,0.7-2.9c0.4-1.4,0.8-2.8,1.1-4.2s0.9-2.7,2.5-3.1c0.4-0.2,0.8-0.4,1-0.8c0.5-0.5,0.8-1.2,1.3-1.7
		c1-1.2,2.8-1.4,4-0.4c0.3,0.3,0.6,0.6,0.8,1c0.7,1.4,0.9,3,0.5,4.6c-0.4,1.9-1.2,3.6-2.4,5.1c-0.5,0.7-0.9,1.5-1.3,2.2
		c-0.5,0.9-1.1,1.9-1.8,2.7c-1,1.1-2.5,1.5-3.9,1.1C100.8,88.1,99.9,86.7,99.8,84.8z M108.6,73.8c-0.3,0.4-0.6,0.8-0.8,1.1
		c-0.6,1.2-1.6,2-2.9,2.4c-0.2,0.1-0.4,0.3-0.5,0.6c-0.2,1.9-0.7,3.7-1.4,5.4c-0.2,0.5-0.3,1-0.3,1.5c-0.1,0.9,0.4,1.2,1.2,0.7
		c0.3-0.2,0.6-0.5,0.8-0.8c0.4-0.7,0.7-1.4,1.1-2c0.4-0.8,0.8-1.5,1.3-2.2c1-1.2,1.6-2.7,1.9-4.2C109.3,75.4,109.1,74.5,108.6,73.8z
		"/>
	<path d="M72.7,72.2c-0.8,0-1.4-0.6-1.4-1.4c0-0.8,0.6-1.4,1.4-1.4c0.8,0,1.4,0.6,1.4,1.4c0,0,0,0,0,0
		C74.1,71.6,73.4,72.2,72.7,72.2C72.7,72.2,72.7,72.2,72.7,72.2z"/>
</g>
</svg>
