<?xml version="1.0" encoding="utf-8"?>
<!-- Generator: Adobe Illustrator 25.2.0, SVG Export Plug-In . SVG Version: 6.00 Build 0)  -->
<svg version="1.1" id="Layer_1" xmlns="http://www.w3.org/2000/svg" xmlns:xlink="http://www.w3.org/1999/xlink" x="0px" y="0px"
	 viewBox="0 0 162.4 162.4" style="enable-background:new 0 0 162.4 162.4;" xml:space="preserve">
<style type="text/css">
	.st0{fill:#FEFDFE;}
	.st1{fill:#3F446E;}
	.st2{fill:#DA1B1B;}
</style>
<g>
	<path d="M38.9,125.3l-1.1,2.9c-0.2,0.6-0.9,0.8-1.4,0.6c-0.1,0-0.2-0.1-0.2-0.1c-0.2-0.1-0.3-0.4-0.3-0.6l0.1-0.3
		c0-0.1,0-0.2,0.1-0.3l5.2-14c0.1-0.3,0.3-0.6,0.6-0.9c0.5-0.4,1.2-0.4,1.7,0c0.3,0.2,0.5,0.5,0.6,0.9l5.3,14
		c0.1,0.2,0.1,0.4,0.1,0.6c0,0.2-0.1,0.4-0.3,0.6c-0.2,0.1-0.4,0.2-0.7,0.2c-0.2,0-0.4-0.1-0.6-0.2c-0.2-0.1-0.4-0.3-0.4-0.6
		l-1.1-2.9L38.9,125.3z M39.5,123.5h6.3l-3.1-8.8l0,0L39.5,123.5z"/>
	<path d="M50.9,117.5c0-0.3,0.1-0.5,0.3-0.7c0.2-0.2,0.5-0.3,0.7-0.3c0.3,0,0.5,0.1,0.7,0.3c0.2,0.2,0.3,0.5,0.3,0.8v0.4l0,0
		c0.7-1,1.9-1.5,3.1-1.5c1.4,0.1,2.6,0.8,3.3,2c0.5-0.7,1-1.2,1.7-1.6c1.3-0.6,2.9-0.6,4.1,0.1c0.6,0.4,1.1,0.9,1.5,1.5
		c0.4,0.7,0.6,1.5,0.5,2.3v7c0,0.3-0.1,0.5-0.3,0.7c-0.2,0.2-0.5,0.3-0.7,0.3c-0.3,0-0.5-0.1-0.7-0.3c-0.2-0.2-0.3-0.4-0.3-0.7V121
		c0-0.5-0.1-1.1-0.4-1.5c-0.2-0.4-0.5-0.7-0.9-0.9c-0.4-0.2-0.8-0.3-1.3-0.3c-0.7,0-1.4,0.2-1.9,0.7c-0.5,0.6-0.8,1.4-0.8,2.1v6.9
		c0,0.3-0.1,0.5-0.3,0.7c-0.2,0.2-0.5,0.2-0.7,0.2c-0.3,0-0.5-0.1-0.7-0.2c-0.2-0.2-0.3-0.4-0.3-0.7v-6.8c0.1-0.8-0.2-1.6-0.7-2.2
		c-0.5-0.5-1.2-0.7-1.8-0.7c-0.4,0-0.9,0.1-1.3,0.3c-0.4,0.2-0.7,0.5-0.9,0.9c-0.3,0.5-0.4,1-0.4,1.5v7c0,0.3-0.1,0.5-0.3,0.7
		c-0.2,0.2-0.4,0.3-0.7,0.3c-0.3,0-0.5-0.1-0.7-0.3c-0.2-0.2-0.3-0.4-0.3-0.7L50.9,117.5z"/>
	<path d="M69.1,122.6c0-1,0.3-2,0.7-3c0.4-0.9,1-1.7,1.8-2.3c0.8-0.6,1.8-0.9,2.8-0.9c1,0,2,0.3,2.8,0.8c0.8,0.6,1.5,1.4,1.9,2.3
		c0.4,0.9,0.7,1.9,0.7,2.9c0,0.7-0.4,1-1.1,1h-7.6c0,0.7,0.2,1.4,0.5,2c0.3,0.6,0.7,1,1.3,1.3c0.6,0.3,1.2,0.4,1.8,0.4
		c1.2,0,2.4-0.5,3.3-1.3c0.2-0.2,0.5-0.3,0.8-0.4c0.2,0,0.4,0.1,0.5,0.2c0.1,0.2,0.2,0.4,0.2,0.6c0,0.3-0.1,0.5-0.3,0.7
		c-0.5,0.6-1.2,1-1.9,1.3c-0.8,0.3-1.7,0.5-2.6,0.5c-0.9,0-1.8-0.2-2.6-0.6c-0.7-0.3-1.3-0.8-1.8-1.5c-0.4-0.6-0.8-1.3-1-2
		c-0.2-0.7-0.3-1.4-0.3-2.2L69.1,122.6L69.1,122.6z M71.1,122h6.7c0-1-0.3-1.9-0.9-2.7c-1.3-1.3-3.4-1.4-4.7-0.2
		c0,0-0.1,0.1-0.1,0.1C71.4,120,71.1,121,71.1,122z"/>
	<path d="M81.7,117.6c0-0.3,0.1-0.5,0.3-0.7c0.2-0.2,0.4-0.3,0.7-0.3c0.3,0,0.5,0.1,0.7,0.3c0.2,0.2,0.3,0.5,0.3,0.7v1l0,0
		c0.3-0.5,0.7-1,1.2-1.4c0.4-0.4,1-0.6,1.5-0.7c0.3,0,0.6,0.1,0.8,0.3c0.2,0.2,0.3,0.4,0.3,0.7c0,0.3-0.1,0.6-0.3,0.8
		c-0.3,0.2-0.7,0.3-1.1,0.4c-0.3,0.1-0.6,0.2-0.9,0.3c-0.5,0.3-0.9,0.7-1.2,1.2c-0.3,0.6-0.4,1.2-0.4,1.8v5.9c0,0.3-0.1,0.6-0.3,0.8
		c-0.2,0.2-0.4,0.3-0.7,0.3c-0.3,0-0.5-0.1-0.7-0.3c-0.2-0.2-0.3-0.5-0.3-0.8L81.7,117.6z"/>
	<path d="M89.8,115.1c-0.3,0-0.6-0.1-0.8-0.3c-0.2-0.2-0.3-0.5-0.3-0.8c0-0.3,0.1-0.6,0.3-0.8c0.2-0.2,0.5-0.3,0.8-0.3
		c0.6,0,1.1,0.6,1.1,1.2c0,0.3-0.1,0.5-0.3,0.7C90.4,115,90.1,115.1,89.8,115.1z M88.9,117.5c0-0.3,0.1-0.6,0.3-0.8
		c0.2-0.2,0.4-0.3,0.7-0.3c0.3,0,0.5,0.1,0.7,0.3c0.2,0.2,0.3,0.5,0.3,0.8v10.3c0,0.3-0.1,0.6-0.3,0.8c-0.2,0.2-0.4,0.3-0.7,0.3
		c-0.3,0-0.5-0.1-0.7-0.3c-0.2-0.2-0.3-0.5-0.3-0.8V117.5z"/>
	<path d="M101.6,117.7c0.1,0.1,0.1,0.3,0.1,0.4c0,0.2-0.1,0.4-0.2,0.6c-0.2,0.2-0.4,0.3-0.7,0.3h-0.1l-0.2-0.1l-0.4-0.1
		c-0.3-0.1-0.6-0.2-0.9-0.3c-0.2-0.1-0.5-0.1-0.8-0.1c-0.7,0-1.3,0.2-1.8,0.6c-0.5,0.4-0.9,1-1.2,1.6c-0.3,0.7-0.4,1.4-0.5,2.1
		c0,1.1,0.2,2.1,0.7,3c0.1,0.3,0.3,0.6,0.6,0.8c0.2,0.2,0.5,0.4,0.8,0.5c0.3,0.1,0.7,0.2,1,0.3c0.1,0,0.2,0,0.3,0l0.5-0.1
		c0.2,0,0.3-0.1,0.5-0.1l0.2-0.1l0.3-0.1l0.4-0.2c0.2-0.1,0.3-0.1,0.5-0.1c0.2,0,0.4,0.1,0.5,0.2c0.1,0.2,0.2,0.4,0.2,0.6
		c0,0.6-0.4,1.1-1,1.2c-0.7,0.2-1.4,0.3-2.1,0.3c-1,0-2-0.3-2.9-0.8c-0.8-0.5-1.5-1.3-1.9-2.2c-0.4-0.9-0.7-1.9-0.7-3
		c0-0.8,0.1-1.6,0.3-2.4c0.2-0.7,0.5-1.4,1-2.1c0.4-0.6,1-1.1,1.7-1.4c0.8-0.4,1.6-0.6,2.4-0.6c0.7,0,1.4,0.1,2.1,0.3
		C100.9,117,101.3,117.3,101.6,117.7z"/>
	<path d="M111.7,118.1v-0.7c0-0.3,0.1-0.5,0.3-0.7c0.2-0.2,0.4-0.3,0.7-0.3c0.2,0,0.5,0.1,0.7,0.3c0.2,0.2,0.3,0.5,0.3,0.8v10.4
		c0,0.3-0.1,0.6-0.3,0.8c-0.2,0.2-0.4,0.3-0.7,0.2c-0.2,0-0.5-0.1-0.7-0.2c-0.2-0.2-0.3-0.4-0.3-0.7v-0.9l0,0
		c-0.7,1.1-1.9,1.8-3.2,1.8c-2,0-3.9-1.1-4.8-2.9c-0.5-1-0.7-2.1-0.7-3.2c0-1.2,0.2-2.4,0.8-3.5c0.5-0.9,1.2-1.6,2-2.1
		c0.7-0.4,1.6-0.7,2.4-0.7c0.6,0,1.3,0.1,1.9,0.4C110.8,117.3,111.3,117.7,111.7,118.1L111.7,118.1z M105,122.7
		c0,0.7,0.1,1.5,0.4,2.2c0.2,0.6,0.6,1.2,1.1,1.6c0.5,0.4,1.1,0.6,1.8,0.6c1,0.1,2-0.4,2.6-1.3c0.5-1,0.8-2.1,0.8-3.2
		c0-0.8-0.1-1.6-0.4-2.4c-0.2-0.6-0.6-1.2-1.2-1.5c-0.5-0.4-1.1-0.6-1.7-0.5l0,0c-1,0-1.9,0.5-2.4,1.3
		C105.3,120.5,105,121.6,105,122.7L105,122.7z"/>
	<path d="M116.3,117.6c0-0.3,0.1-0.6,0.3-0.8c0.2-0.2,0.4-0.3,0.7-0.3c0.3,0,0.5,0.1,0.7,0.3c0.2,0.2,0.3,0.5,0.3,0.8v0.5l0,0
		c0.4-0.5,0.9-0.9,1.5-1.2c0.6-0.3,1.2-0.4,1.8-0.4c0.7,0,1.4,0.2,2.1,0.5c0.7,0.4,1.2,0.9,1.6,1.6c0.4,0.8,0.6,1.7,0.6,2.6v6.8
		c0,0.3-0.1,0.5-0.3,0.7c-0.2,0.2-0.4,0.3-0.7,0.2c-0.3,0-0.5-0.1-0.7-0.3c-0.2-0.2-0.3-0.4-0.3-0.7v-6.7c0-0.8-0.3-1.6-0.8-2.1
		c-0.5-0.5-1.2-0.8-2-0.8c-0.5,0-1,0.1-1.4,0.3c-0.4,0.2-0.8,0.6-1,1c-0.3,0.5-0.4,1-0.4,1.6v6.7c0,0.3-0.1,0.6-0.3,0.8
		c-0.2,0.2-0.4,0.3-0.7,0.3c-0.3,0-0.5-0.1-0.7-0.3c-0.2-0.2-0.3-0.5-0.3-0.8L116.3,117.6z"/>
</g>
<g>
	<circle class="st0" cx="81.2" cy="57.7" r="36.7"/>
	<path class="st1" d="M84,37.9c0,1.9,0,3.8,0,5.6s0,3.8,0,5.7v5.6c0,1.9,0,3.8,0,5.7c-0.3,0-0.6,0-0.9,0H44.6v-4.4
		c0.3,0.2,0.7,0.4,1,0.6c0.3,0.3,0.6,0.5,0.4,1.1c-0.3,0.4-0.4,1-0.2,1.5c0.3-0.2,0.6-0.4,0.9-0.6c0.8-0.6,0.8-0.6,1.7,0.1
		c0.3,0.2,0.5,0.5,0.9,0.3c0.4-0.2-0.1-0.5-0.1-0.8c0-0.1,0-0.2-0.1-0.3c-0.3-0.4-0.2-1,0.2-1.3c0.1-0.1,0.2-0.1,0.2-0.1
		c0.3-0.2,0.8-0.4,0.7-0.7c-0.1-0.3-0.7-0.2-1-0.2c-0.6,0-1.1,0.1-1.2-0.8c-0.1-0.4,0-1.1-0.5-1.1c-0.4,0-0.3,0.7-0.5,1.1
		c-0.2,0.4-0.2,0.7-0.6,0.7c-0.6,0.1-1.1,0-1.7-0.1v-1c0.1,0,0.1-0.1,0.1-0.2c0.2-2.4,0.6-4.8,1.3-7.1c0.1-0.7,0.7-1.3,1.4-1.2
		c0.3,0,0.6,0.1,0.8,0.3c0.2,0.1,0.3,0.2,0.5,0.3c0.1,0.1,0.3,0.2,0.4,0.1c0.2-0.1,0.1-0.3,0-0.5c-0.4-1.5-0.4-1.5,0.8-2.4
		c0.1-0.1,0.3-0.2,0.3-0.4c0-0.2-0.3-0.1-0.4-0.1c-0.1,0-0.5,0-0.8,0c-1,0-1.3-0.6-0.9-1.5c0.5-1.1,1.1-2.1,1.7-3.1
		c0.1-0.1,0.1-0.4,0.3-0.2c0.2,0.1,0.2,0.2,0.2,0.4c-0.1,0.4-0.3,0.8-0.4,1.2c-0.1,0.2-0.2,0.3,0,0.5s0.4,0,0.5-0.1
		c0.8-0.8,1.7-1.1,2.5,0c0.1,0.1,0.3,0.2,0.5,0.1c0.2-0.1,0.1-0.4,0-0.5c-0.7-1.2-0.3-2,0.9-2.5c0.1,0,0.2-0.2,0.2-0.3
		c-0.1-0.2-0.2-0.2-0.4-0.2h-1c-0.3,0-0.7,0.1-0.8-0.3c-0.1-0.4-0.7-1-0.2-1.6c0.7-0.8,1.3-1.6,2-2.4c0.2-0.3,0.5-0.5,0.8-0.5
		c-0.1,0.3-0.2,0.6-0.3,0.9c0,0.4-0.5,0.8-0.1,1c0.3,0.2,0.7-0.3,1-0.5c0.3-0.4,0.9-0.5,1.3-0.2c0.1,0.1,0.1,0.1,0.2,0.2
		c0.3,0.3,0.6,0.8,1,0.5c0.4-0.3,0-0.8-0.2-1.1c-0.2-0.5-0.2-0.9,0.3-1.2c0.4-0.2,1-0.5,0.9-0.8c-0.2-0.5-0.8-0.1-1.3-0.2
		c-0.3-0.1-0.7,0.1-0.8-0.4c-0.1-0.5,0.3-0.5,0.5-0.7c0.7-0.9,1.9-1.1,2.8-1.7c0.4-0.4,1-0.4,1.4,0c0.1,0.1,0.2,0.2,0.4,0.3
		c0.2,0.1,0.5,0.4,0.7,0.1c0.2-0.2,0-0.4-0.1-0.6c-0.1-0.2-0.1-0.5-0.2-0.7c-0.2-0.4-0.1-0.8,0.3-1c1.3-1,2.8-1.9,4.4-2.5
		c1.6-0.6,3.1-1.2,4.7-1.6c1.6-0.4,3.3-0.7,5-1c2.4-0.3,4.8-0.2,7.1-0.2v5.6V37.9z M58,46.9c0.4-0.1,0.2-0.4,0.1-0.6
		c-0.4-1.4-0.4-1.4,0.7-2.3h0.1c0.2-0.1,0.4-0.2,0.3-0.4c-0.1-0.2-0.3-0.2-0.5-0.2c-1.1,0.2-1.9-0.2-2-1.4c0-0.2-0.1-0.5-0.4-0.5
		C56,41.5,56,41.8,56,42c-0.4,1.3-0.4,1.3-1.8,1.3c-0.2,0-0.5-0.2-0.7,0.2c-0.1,0.4,0.3,0.3,0.4,0.5s0.2,0.1,0.3,0.2
		c0.6,0.4,1,0.8,0.5,1.6c-0.2,0.3-0.5,0.8-0.2,1c0.4,0.3,0.7-0.2,0.9-0.5c0.4-0.5,1-0.6,1.5-0.2c0.1,0.1,0.2,0.2,0.2,0.3
		C57.4,46.7,57.7,46.8,58,46.9L58,46.9z M73.1,25.4c0-0.2-0.2-0.3-0.3-0.3c-0.2,0-0.5,0-0.7,0c-0.8,0.1-1.3-0.1-1.4-1
		c0-0.3-0.1-0.5-0.3-0.7c-0.1-0.2-0.4-0.4-0.5,0c-0.2,1.4-0.9,1.9-2.3,1.7c-0.2,0-0.2,0.1-0.3,0.2s0,0.2,0.1,0.3
		c0.3,0.3,0.6,0.5,0.9,0.7c0.3,0.1,0.5,0.5,0.3,0.8c0,0,0,0.1,0,0.1c-0.1,0.3-0.2,0.6-0.3,0.9c0,0.2-0.1,0.3,0.1,0.5
		c0.2,0.1,0.3,0,0.5-0.1l0.3-0.2c1-0.7,1-0.7,2,0l0.1,0.1c0.2,0.1,0.4,0.4,0.6,0.2c0.3-0.2,0-0.4,0-0.6c-0.4-1.3-0.4-1.3,0.7-2.2
		c0.1-0.1,0.2-0.1,0.3-0.2C73,25.4,73.1,25.4,73.1,25.4L73.1,25.4z M56.4,58.2l1.2,0.8c0.2,0.1,0.3,0.3,0.6,0.2
		c0.2-0.1,0.1-0.4,0-0.6c-0.1-0.3-0.1-0.5-0.2-0.7c-0.2-0.3-0.1-0.8,0.2-1c0,0,0.1-0.1,0.1-0.1c0.3-0.2,0.6-0.4,0.8-0.6
		c0.1-0.1,0.2-0.2,0.2-0.4c-0.1-0.2-0.2-0.2-0.4-0.2h-0.4c-1.5,0-1.2,0.2-1.6-1.2c0,0,0-0.1,0-0.1c-0.1-0.2-0.1-0.5-0.4-0.5
		c-0.3,0-0.3,0.3-0.4,0.5c-0.5,1.3-0.5,1.3-1.9,1.3h-0.1c-0.2,0-0.4,0-0.5,0.3s0.2,0.3,0.3,0.4c1.3,0.9,1.3,0.9,0.9,2.2
		c-0.1,0.2-0.3,0.5,0,0.7s0.5-0.1,0.7-0.2C55.6,58.6,55.9,58.4,56.4,58.2L56.4,58.2z M59.2,37.1c-0.2,0-0.3,0-0.5,0
		c-0.2,0-0.5-0.1-0.6,0.1c-0.1,0.3,0.2,0.4,0.4,0.6c1.1,0.8,1.1,0.8,0.7,2.2c-0.1,0.2-0.2,0.4,0,0.5c0.2,0.2,0.4,0,0.5-0.1
		c0.4-0.7,1.4-0.9,2.1-0.5c0.2,0.1,0.3,0.3,0.5,0.5c0.1,0.1,0.3,0.2,0.5,0.1c0.1-0.1,0.2-0.3,0.1-0.4c0,0,0,0,0,0
		c-0.5-0.7-0.4-1.6,0.2-2.2c0.2-0.1,0.4-0.2,0.6-0.3c0.2-0.1,0.3-0.2,0.2-0.4c-0.1-0.2-0.3-0.2-0.4-0.2h-0.5c-1.1,0-1.1,0-1.4-1.1
		l-0.1-0.1c-0.1-0.2-0.1-0.6-0.4-0.7c-0.4,0-0.3,0.4-0.4,0.6C60.3,36.5,60.2,37.4,59.2,37.1L59.2,37.1z M82.4,25.4
		c0-0.1-0.1-0.3-0.2-0.3c0,0-0.1,0-0.1,0c-0.9,0.3-1.8-0.1-2.1-0.9c-0.1-0.2-0.1-0.5-0.1-0.7c0-0.1-0.1-0.3-0.3-0.3
		c-0.1,0-0.2,0.1-0.2,0.2c0,0.9-0.7,1.7-1.6,1.8c-0.2,0-0.4,0-0.6-0.1c-0.3-0.1-0.5,0.3-0.2,0.5c1.2,0.6,1.5,1.4,0.9,2.7
		c-0.1,0.1,0,0.2,0,0.3c0.1,0.1,0.3,0.1,0.4,0l0.4-0.3c1-0.7,1-0.7,2,0l0.1,0.1c0.2,0.1,0.4,0.4,0.6,0.2c0.3-0.2,0.1-0.5,0-0.7
		c-0.4-1.3-0.4-1.3,0.7-2.1C82.1,25.7,82.3,25.6,82.4,25.4L82.4,25.4z M63.8,58.6c-0.1,0.3-0.1,0.5,0,0.6c0.1,0.1,0.3,0,0.4-0.1
		c0.9-0.9,1.8-1,2.7,0c0.1,0.1,0.3,0.2,0.5,0.1c0.2-0.1,0.1-0.3,0-0.5c-0.6-1.1-0.4-1.9,0.8-2.4c0,0,0.1-0.1,0.1-0.1
		c0.1-0.1,0.2-0.2,0.2-0.4c-0.1-0.1-0.2-0.2-0.4-0.2c-0.8,0.3-1.8-0.1-2.1-0.9c-0.1-0.2-0.1-0.4-0.1-0.7c0-0.2-0.1-0.3-0.3-0.3
		c-0.2,0-0.3,0.1-0.3,0.3c-0.2,1.3-0.9,1.9-2.2,1.6c-0.1,0-0.3,0-0.4,0.2c-0.1,0.1,0,0.3,0.2,0.4C64.1,56.7,64.6,57.5,63.8,58.6
		L63.8,58.6z M77.7,55.9c0-0.3-0.3-0.4-0.5-0.3c-1.3,0.3-1.9-0.3-2.1-1.5c0-0.2-0.1-0.4-0.3-0.4c-0.2,0-0.3,0.2-0.3,0.3
		c0.1,0.9-0.6,1.6-1.5,1.6c-0.2,0-0.4,0-0.6-0.1c-0.2-0.1-0.4,0-0.4,0.2c-0.1,0.2,0.1,0.4,0.3,0.4c1.2,0.5,1.3,1.4,0.8,2.4
		c-0.1,0.1-0.2,0.3,0,0.5c0.1,0.1,0.3,0.1,0.4-0.1c0,0,0,0,0,0c0.5-0.7,1.4-0.9,2.2-0.5c0.2,0.1,0.3,0.3,0.5,0.5
		c0.1,0.1,0.3,0.2,0.5,0.1c0.2-0.1,0.1-0.3,0-0.5c-0.1-0.2-0.1-0.3-0.1-0.4C76.1,57,76,57.4,77,56.5C77.3,56.3,77.6,56.2,77.7,55.9z
		 M68.5,43.6c-0.1-0.4-0.4-0.3-0.6-0.3c-1.5-0.1-1.5-0.1-1.9-1.4c-0.1-0.2-0.1-0.5-0.3-0.5c-0.3,0-0.3,0.3-0.4,0.5
		c-0.5,1.3-0.5,1.3-1.9,1.4h-0.2c-0.1,0-0.3,0-0.3,0.2c0,0.1,0,0.3,0.2,0.4c0.9,0.2,1.4,1.1,1.2,1.9c-0.1,0.2-0.2,0.4-0.3,0.6
		c-0.1,0.1-0.1,0.3,0,0.4c0.1,0.1,0.3,0.1,0.4-0.1c0,0,0,0,0,0c0.5-0.7,1.4-0.9,2.1-0.5c0.2,0.1,0.4,0.3,0.5,0.5
		c0.1,0.2,0.3,0.2,0.5,0.1c0.2-0.1,0.1-0.3,0.1-0.4c-0.1-0.2-0.1-0.3-0.2-0.5c-0.4-1.3-0.5-0.9,0.5-1.7c0.2-0.1,0.3-0.2,0.5-0.3
		C68.4,43.8,68.4,43.7,68.5,43.6L68.5,43.6z M73.3,46.9c0.1,0,0.2,0,0.2-0.1c0.5-0.8,1.5-1,2.3-0.5c0.2,0.1,0.4,0.3,0.5,0.5
		c0.1,0.1,0.2,0.1,0.3,0c0.1-0.1,0.2-0.2,0.1-0.4c0,0,0,0,0,0c-0.6-1.2-0.4-2.1,0.8-2.6c0.1-0.1,0.2-0.2,0.2-0.4
		c0-0.1-0.2-0.2-0.3-0.2c0,0,0,0,0,0c-1.3,0.3-2-0.3-2.2-1.6c0-0.1-0.1-0.3-0.3-0.3c-0.1,0-0.2,0.1-0.2,0.2c0,0.9-0.7,1.7-1.6,1.8
		c-0.2,0-0.5,0-0.7-0.1c-0.1,0-0.3,0.1-0.3,0.2c0,0,0,0,0,0c0,0.1,0,0.3,0.2,0.3c0.9,0.2,1.4,1.1,1.2,2c-0.1,0.2-0.2,0.5-0.3,0.6
		C72.9,46.7,73,46.8,73.3,46.9L73.3,46.9z M54.6,49.7c0-0.3-0.3-0.3-0.4-0.3c-1.2,0.2-2-0.2-2.1-1.5c0,0,0-0.1-0.1-0.1
		c-0.1-0.2-0.2-0.3-0.4-0.3s-0.1,0.2-0.2,0.3c-0.6,1.5-0.6,1.5-2.2,1.6c-0.1,0-0.4-0.1-0.4,0.1c0,0.3,0.1,0.3,0.3,0.4
		c0.4,0.3,1.1,0.5,1.2,1c0.1,0.4-0.3,1-0.4,1.5c0,0.1-0.1,0.3,0,0.4s0.3,0.1,0.4,0c0.1-0.1,0.2-0.1,0.4-0.2c1.2-0.8,1.2-0.8,2.3,0.1
		c0,0,0.1,0.1,0.1,0.2c0.1,0.2,0.3,0,0.4,0c0.1,0,0.2-0.1,0.1-0.3c0-0.1-0.1-0.4-0.2-0.5c-0.4-1.2-0.4-1.3,0.7-1.9
		c0.1-0.1,0.3-0.1,0.4-0.2C54.5,49.8,54.5,49.7,54.6,49.7L54.6,49.7z M64.2,32.4c-0.1,0.4-0.2,0.7-0.3,1c-0.1,0.3-0.3,0.5-0.1,0.7
		c0.2,0.2,0.5-0.1,0.7-0.3c1.3-0.9,0.8-0.9,2.1,0c0,0,0,0,0.1,0c0.2,0.1,0.4,0.4,0.7,0.2c0.3-0.2,0-0.5,0-0.7
		C67,32.2,67,32.2,68,31.5l0.1-0.1c0.2-0.1,0.4-0.2,0.3-0.5c-0.1-0.3-0.4-0.2-0.6-0.2c-1.5,0-1.5,0-2-1.4c0,0,0-0.1,0-0.1
		c0-0.2-0.2-0.4-0.4-0.4c-0.2,0-0.2,0.2-0.3,0.4c-0.1,0.2-0.2,0.5-0.2,0.7c-0.1,0.7-0.5,0.9-1.1,0.8c-0.4,0-1-0.3-1.1,0.2
		c-0.1,0.5,0.6,0.6,0.9,0.9S64.2,32.1,64.2,32.4z M68.8,38.9c-0.1,0.4-0.3,0.9-0.4,1.3c0,0.1-0.1,0.3,0,0.4c0.1,0.1,0.3,0.1,0.4,0
		c0,0,0,0,0,0c0.5-0.8,1.5-1,2.3-0.5c0.2,0.1,0.4,0.3,0.5,0.5c0.1,0.1,0.3,0.1,0.4,0c0,0,0,0,0,0c0.1-0.1,0.1-0.2,0-0.3
		c-0.6-0.7-0.5-1.7,0.2-2.3c0.2-0.1,0.4-0.3,0.6-0.3c0.1,0,0.2-0.2,0.2-0.3c-0.1-0.2-0.2-0.2-0.4-0.2c-0.2,0-0.4,0-0.6,0
		c-0.8,0.2-1.2-0.2-1.3-1c-0.1-0.3-0.1-0.9-0.4-0.9c-0.4,0-0.4,0.6-0.5,0.9c-0.2,0.5-0.3,1.1-1.1,1c-0.4-0.1-1.1-0.3-1.2,0.2
		c-0.1,0.5,0.6,0.5,0.9,0.8C68.6,38.4,68.9,38.4,68.8,38.9z M79.4,39.6c0.1,0,0.1,0,0.2,0.1l1.1,0.8c0.2,0.1,0.3,0.3,0.5,0.1
		s0.1-0.3,0-0.5c-0.6-1.1-0.4-1.9,0.8-2.4h0.1c0.1-0.1,0.3-0.2,0.2-0.4c-0.1-0.2-0.3-0.2-0.4-0.2c-0.8,0.3-1.7-0.1-2-0.9
		c-0.1-0.2-0.1-0.4-0.1-0.6c0-0.2-0.1-0.3-0.3-0.4c-0.2,0-0.3,0.2-0.3,0.3c0.1,0.9-0.6,1.6-1.4,1.6c-0.2,0-0.4,0-0.7-0.1
		c-0.2-0.1-0.3,0-0.4,0.2c0,0,0,0,0,0c-0.1,0.2,0.1,0.3,0.2,0.4c0.1,0.1,0.3,0.2,0.4,0.3c1.1,0.8,0.9,0.5,0.5,1.7c0,0,0,0.1,0,0.1
		c-0.1,0.3-0.3,0.6,0,0.8c0.3,0.2,0.5-0.2,0.7-0.3C78.8,40.2,79.2,39.8,79.4,39.6z M73.1,49.7c0-0.2-0.1-0.4-0.4-0.3
		c-0.8,0.3-1.8-0.1-2.1-0.9c-0.1-0.2-0.1-0.4-0.1-0.7c0-0.2-0.1-0.3-0.3-0.3c-0.2,0-0.3,0.1-0.3,0.3c0.1,0.9-0.6,1.7-1.5,1.7
		c-0.2,0-0.5,0-0.7-0.1c-0.1-0.1-0.3,0-0.3,0.2c0,0,0,0,0,0c0,0.1,0,0.3,0.2,0.4c0.9,0.2,1.4,1.1,1.2,2c-0.1,0.2-0.2,0.4-0.3,0.6
		c-0.1,0.1,0,0.3,0.1,0.4c0.1,0.1,0.2,0.1,0.3,0c0.9-1,1.9-1,2.8,0c0.1,0.1,0.3,0.1,0.4,0c0,0,0,0,0,0c0.1-0.1,0.1-0.2,0.1-0.3
		C72,52.4,72,52.2,71.9,52c-0.4-1.3-0.5-1,0.6-1.8C72.7,50,73,49.9,73.1,49.7z M73.3,34.3c0.1,0,0.2-0.1,0.2-0.1
		c0.5-0.7,1.4-1,2.2-0.5c0.2,0.1,0.4,0.3,0.5,0.5c0.1,0.1,0.3,0.2,0.4,0.1c0.1-0.1,0.2-0.3,0.1-0.4c-0.7-1.2-0.3-2,0.8-2.5
		c0.1-0.1,0.2-0.2,0.2-0.4c-0.1-0.2-0.3-0.2-0.4-0.2c-0.8,0.3-1.7-0.1-2-0.9c-0.1-0.2-0.1-0.4-0.1-0.7c0-0.2-0.1-0.4-0.3-0.4
		c-0.2,0-0.3,0.2-0.3,0.3c-0.1,1.3-0.9,1.8-2.2,1.6c-0.1,0-0.3,0-0.4,0.2c-0.1,0.1,0,0.3,0.1,0.4c0,0,0,0,0,0
		c1.3,0.6,1.5,1.5,0.8,2.7C72.9,34.1,73,34.3,73.3,34.3z M61,47.4c-0.1,0-0.3,0.1-0.3,0.4c0,0.8-0.6,1.6-1.5,1.6
		c-0.2,0-0.4,0-0.6-0.1c-0.1,0-0.4-0.1-0.4,0.1c-0.1,0.2,0.1,0.4,0.3,0.4c1.2,0.5,1.3,1.4,0.8,2.4c-0.1,0.1-0.2,0.3,0,0.5
		c0.2,0.2,0.4,0,0.5-0.1c0.5-0.7,1.4-0.9,2.1-0.4c0.2,0.1,0.3,0.3,0.4,0.4c0.1,0.1,0.3,0.2,0.4,0.1c0.1-0.1,0.2-0.3,0.1-0.4
		c0,0,0,0,0,0c-0.5-0.7-0.5-1.6,0.2-2.2c0.2-0.1,0.4-0.2,0.6-0.3c0.2-0.1,0.3-0.2,0.2-0.4c-0.1-0.2-0.3-0.2-0.4-0.2
		c-0.8,0.3-1.7-0.1-2-0.9c-0.1-0.2-0.1-0.4-0.1-0.7c0-0.1-0.1-0.2-0.1-0.3C61.1,47.5,61,47.5,61,47.4z M79.5,47.4
		c-0.3,0.1-0.3,0.5-0.4,0.7c-0.5,1.3-0.1,1.2-1.6,1.2c-0.1,0-0.2,0-0.3,0s-0.4-0.1-0.5,0.2c-0.1,0.2,0.2,0.4,0.3,0.5
		c1.1,0.9,1.1,0.9,0.7,2.3c0,0,0,0,0,0.1c0,0.2-0.2,0.4,0.1,0.5c0.2,0.1,0.3,0,0.5-0.1c0.5-0.7,1.4-0.9,2.1-0.5
		c0.2,0.1,0.3,0.3,0.5,0.5c0.1,0.1,0.3,0.3,0.5,0.1c0.2-0.2,0.1-0.3,0-0.5c-0.5-0.7-0.4-1.6,0.2-2.2c0.2-0.1,0.3-0.2,0.5-0.3
		c0.2-0.1,0.4-0.2,0.3-0.4c-0.1-0.2-0.3-0.2-0.4-0.1c-1.2,0.2-1.9-0.2-2.1-1.5C79.8,47.6,79.6,47.5,79.5,47.4L79.5,47.4z"/>
	<path class="st2" d="M78,94.3c-0.9-0.1-1.7-0.3-2.6-0.3c-4.8-0.8-9.3-2.5-13.4-5c-0.1-0.1-0.2-0.1-0.2-0.2h38.8
		c0.1,0.2-0.2,0.2-0.3,0.3c-3.8,2.6-8.6,4.1-13.1,4.9c-2,0.3-4,0.5-5.9,0.5c-1,0-2,0-3-0.1C78.2,94.4,78.1,94.3,78,94.3z"/>
	<path class="st2" d="M84,26.6V21h0.1c1,0.1,1.9,0.3,2.9,0.4c4.8,0.8,9.3,2.4,13.4,5c0,0,0.1,0.1,0.2,0.2H84z"/>
	<path class="st2" d="M116.9,66.2c-0.4,1.8-1,3.6-1.7,5.3c0,0.2-0.2,0.3-0.4,0.3c-0.2,0-0.3,0-0.5,0c-22.1,0-44.1,0-66.2,0
		c-0.5,0.1-1-0.2-1.1-0.8c-0.5-1.4-1-2.9-1.4-4.3c-0.1-0.5,0-0.6,0.5-0.6c3,0,6.1,0,9.1,0L116.9,66.2L116.9,66.2z"/>
	<path class="st2" d="M112.1,77.5c-1.2,1.9-2.6,3.7-4.2,5.4c-0.2,0.3-0.5,0.2-0.8,0.2H85.3c-9.9,0-19.9,0-29.9,0
		c-0.4,0-0.9-0.2-1.2-0.5c-1.2-1.4-2.4-2.9-3.4-4.4c-0.1-0.2-0.3-0.4-0.4-0.7L112.1,77.5z"/>
	<path class="st2" d="M84,60.5c0-1.9,0-3.8,0-5.7c11,0,22,0,33,0c0.7,0,0.9,0.2,0.9,0.9c0,1.4,0,2.8,0,4.2c0,0.4-0.1,0.6-0.6,0.6
		C106.2,60.5,95.1,60.5,84,60.5z"/>
	<path class="st2" d="M84,49.2c0-1.9,0-3.8,0-5.7c10.1,0,20.2,0,30.3,0c0.5-0.1,1,0.2,1.1,0.7c0.5,1.4,1,2.9,1.4,4.3
		c0.1,0.5,0.1,0.7-0.5,0.6c-1.4,0-2.8,0-4.2,0L84,49.2z"/>
	<path class="st2" d="M84,37.9v-5.6h23c0.4,0,0.9,0.2,1.2,0.5c1.2,1.4,2.4,2.9,3.4,4.4c0.2,0.2,0.3,0.5,0.4,0.8L84,37.9z"/>
</g>
</svg>
