<?xml version="1.0" encoding="utf-8"?>
<!-- Generator: Adobe Illustrator 25.2.0, SVG Export Plug-In . SVG Version: 6.00 Build 0)  -->
<svg version="1.1" id="Layer_1" xmlns="http://www.w3.org/2000/svg" xmlns:xlink="http://www.w3.org/1999/xlink" x="0px" y="0px"
	 viewBox="0 0 162.4 162.4" style="enable-background:new 0 0 162.4 162.4;" xml:space="preserve">
<g>
	<path d="M57.8,125.3l-1.1,2.9c-0.2,0.6-0.9,0.8-1.4,0.6c-0.1,0-0.2-0.1-0.2-0.1c-0.2-0.2-0.3-0.4-0.3-0.6l0.1-0.3
		c0-0.1,0-0.2,0.1-0.3l5.2-14c0.1-0.3,0.3-0.7,0.6-0.9c0.5-0.4,1.2-0.4,1.7,0c0.3,0.2,0.5,0.5,0.6,0.9l5.3,14
		c0.1,0.2,0.1,0.4,0.1,0.6c0,0.2-0.1,0.4-0.3,0.6c-0.2,0.1-0.4,0.2-0.7,0.2c-0.2,0-0.4-0.1-0.6-0.2c-0.2-0.1-0.4-0.3-0.4-0.6
		l-1.1-2.9L57.8,125.3z M58.5,123.5h6.3l-3.1-8.8l0,0L58.5,123.5z"/>
	<path d="M69.6,127.6c-0.3-0.2-0.5-0.6-0.5-1c0-0.2,0.1-0.5,0.3-0.6c0.2-0.2,0.4-0.3,0.6-0.2c0.2,0,0.4,0.1,0.6,0.2l0.7,0.5
		c0.2,0.1,0.4,0.3,0.6,0.4c0.5,0.3,1.1,0.4,1.7,0.5c0.6,0,1.2-0.1,1.7-0.4c0.5-0.2,0.8-0.7,0.8-1.3c0-0.6-0.4-1.1-0.9-1.4
		c-0.6-0.3-1.2-0.6-1.8-0.8c-0.8-0.3-1.4-0.6-2-0.8c-0.5-0.2-0.9-0.6-1.2-1c-0.4-0.5-0.6-1-0.5-1.6c0-0.6,0.2-1.2,0.5-1.7
		c0.4-0.5,0.8-0.9,1.4-1.2c0.7-0.3,1.4-0.5,2.1-0.5s1.5,0.1,2.2,0.4c0.6,0.2,1.1,0.5,1.5,0.8c0.3,0.2,0.5,0.6,0.5,0.9
		c0,0.2-0.1,0.4-0.2,0.6c-0.2,0.2-0.4,0.3-0.6,0.3c-0.4-0.1-0.8-0.3-1.1-0.5c-0.4-0.2-0.7-0.4-1.1-0.6c-0.3-0.1-0.6-0.2-0.9-0.2
		c-0.6-0.1-1.1,0.1-1.6,0.4c-0.4,0.2-0.6,0.6-0.6,1.1c0.1,0.4,0.3,0.7,0.5,1c0.3,0.3,0.6,0.5,1,0.6c0.4,0.2,0.8,0.3,1.3,0.5
		s0.9,0.3,1.1,0.4c0.7,0.3,1.4,0.7,1.9,1.3c0.4,0.5,0.6,1.2,0.6,1.8c0,0.6-0.2,1.2-0.5,1.7c-0.4,0.6-0.9,1-1.5,1.3
		c-0.8,0.4-1.6,0.5-2.5,0.5C72.1,128.9,70.7,128.5,69.6,127.6z"/>
	<path d="M80.9,115.1c-0.3,0-0.6-0.1-0.8-0.3c-0.2-0.2-0.3-0.5-0.3-0.8s0.1-0.6,0.3-0.8c0.2-0.2,0.5-0.3,0.8-0.3
		c0.6,0,1.1,0.6,1.1,1.2c0,0.3-0.1,0.5-0.3,0.7C81.5,115,81.2,115.1,80.9,115.1z M80,117.5c0-0.3,0.1-0.6,0.3-0.8
		c0.2-0.2,0.4-0.3,0.7-0.3c0.3,0,0.5,0.1,0.7,0.3c0.2,0.2,0.3,0.5,0.3,0.8v10.3c0,0.3-0.1,0.6-0.3,0.8c-0.2,0.2-0.4,0.3-0.7,0.3
		c-0.3,0-0.5-0.1-0.7-0.3s-0.3-0.5-0.3-0.8V117.5z"/>
	<path d="M92.7,118.1v-0.7c0-0.3,0.1-0.5,0.3-0.7c0.2-0.2,0.4-0.3,0.7-0.3c0.2,0,0.5,0.1,0.7,0.3c0.2,0.2,0.3,0.5,0.3,0.8v10.4
		c0,0.3-0.1,0.6-0.3,0.8c-0.2,0.2-0.4,0.3-0.7,0.2c-0.2,0-0.5-0.1-0.7-0.2c-0.2-0.2-0.3-0.4-0.3-0.7v-0.9l0,0
		c-0.7,1.1-1.9,1.8-3.2,1.8c-2,0-3.9-1.1-4.8-2.9c-0.5-1-0.7-2.1-0.7-3.2c0-1.2,0.2-2.4,0.8-3.5c0.5-0.9,1.2-1.6,2-2.1
		c0.7-0.4,1.6-0.7,2.4-0.7c0.6,0,1.3,0.1,1.9,0.4C91.8,117.3,92.3,117.7,92.7,118.1L92.7,118.1z M86.1,122.7c0,0.7,0.1,1.5,0.4,2.2
		c0.2,0.6,0.6,1.2,1.1,1.6s1.1,0.6,1.8,0.6c1,0.1,2-0.4,2.6-1.3c0.5-1,0.8-2.1,0.8-3.2c0-0.8-0.1-1.6-0.4-2.4
		c-0.2-0.6-0.6-1.2-1.2-1.5c-0.5-0.4-1.1-0.6-1.7-0.5l0,0c-1,0-1.9,0.5-2.4,1.3C86.4,120.5,86,121.6,86.1,122.7L86.1,122.7z"/>
	<path d="M97.3,117.6c0-0.3,0.1-0.6,0.3-0.8c0.2-0.2,0.4-0.3,0.7-0.3c0.3,0,0.5,0.1,0.7,0.3c0.2,0.2,0.3,0.5,0.3,0.8v0.5l0,0
		c0.4-0.5,0.9-0.9,1.5-1.2c0.6-0.3,1.2-0.4,1.8-0.4c0.7,0,1.4,0.2,2.1,0.5c0.7,0.4,1.2,0.9,1.6,1.6c0.4,0.8,0.6,1.7,0.6,2.6v6.8
		c0,0.3-0.1,0.5-0.3,0.7c-0.2,0.2-0.4,0.3-0.7,0.2c-0.3,0-0.5-0.1-0.7-0.3s-0.3-0.4-0.3-0.7v-6.7c0-0.8-0.3-1.6-0.8-2.1
		s-1.2-0.8-2-0.8c-0.5,0-1,0.1-1.4,0.3c-0.4,0.2-0.8,0.6-1,1c-0.3,0.5-0.4,1-0.4,1.6v6.7c0,0.3-0.1,0.6-0.3,0.8
		c-0.2,0.2-0.4,0.3-0.7,0.3c-0.3,0-0.5-0.1-0.7-0.3s-0.3-0.5-0.3-0.8L97.3,117.6z"/>
</g>
<g>
	<path d="M72.3,73.4c0-0.5,0-1,0-1.5c0-0.2-0.1-0.3-0.3-0.4c-3.3-2-5.3-5.6-5.3-9.5c-0.3,0-0.7,0-1-0.1c-2-0.2-3.4-1.9-3.4-3.9
		c0-1,0-2.1,0-3.1c-0.1-2.2,1.5-4,3.7-4.1c0.1,0,0.2,0,0.4,0h0.4v-1.1h-12c-0.6,0-1.2-0.1-1.4-0.7c-0.2-0.7,0.1-1.1,0.6-1.5
		l26.2-21.8c0.8-0.7,1.2-0.7,2,0l26.3,21.9c0.5,0.4,0.8,0.8,0.6,1.4c-0.2,0.6-0.8,0.8-1.4,0.8h-12v1.1c0.4,0.1,0.9,0.1,1.3,0.2
		c1.8,0.4,3.1,1.9,3.1,3.7c0,1.1,0,2.2,0,3.3c0.1,2.2-1.6,4-3.8,4c-0.1,0-0.1,0-0.2,0h-0.4c-0.2,0.9-0.2,1.9-0.5,2.8
		c-0.6,2.5-2.1,4.7-4.2,6.2c-1,0.9-1,0.8-0.8,2.3l8.2,1.7c1.9,0.4,3.9,0.8,5.8,1.3c4.2,0.9,7.5,4,8.8,8.1c0.9,2.7,1.8,5.4,2.6,8.1
		c0.4,1.3,0,1.9-1.4,1.9h-66c-1.3,0-1.8-0.6-1.4-1.9c0.9-2.7,1.7-5.5,2.7-8.1c1.4-4.2,4.9-7.3,9.3-8.1c4.4-1,8.8-1.9,13.1-2.8
		L72.3,73.4z M81.2,27.8L57.5,47.5h47.3C96.9,40.9,89.1,34.4,81.2,27.8L81.2,27.8z M93.5,49.8H68.9c0,4,0,8,0,12c0,0.3,0,0.6,0,0.9
		c0.4,4.5,4.1,8,8.6,8.2c2.5,0.1,4.9,0,7.4,0c4.3-0.1,7.8-3.3,8.4-7.5c0.2-1.9,0.2-3.8,0.2-5.7C93.5,55.1,93.5,52.5,93.5,49.8z
		 M80,83.2c-3.9-0.6-7-3.6-7.7-7.5c-0.1,0-0.2,0-0.3,0l-12.6,2.6c-3.7,0.6-6.7,3.2-7.9,6.8c-0.7,2.1-1.4,4.2-2,6.3
		c-0.1,0.2-0.1,0.4-0.2,0.6h9.6c0-0.7,0-1.3,0-2c0-0.8,0.5-1.3,1.1-1.3s1.1,0.5,1.1,1.3c0,0.7,0,1.3,0,2H80V83.2z M113.1,92.2
		c-0.8-2.3-1.5-4.6-2.2-6.8c-1-3.5-3.9-6.1-7.5-6.8c-3-0.7-6-1.3-9.1-1.9c-1.4-0.3-2.9-0.6-4.3-0.9c-0.7,3.9-3.8,7-7.7,7.5v8.9h2.1
		c0.2-0.6,0.5-1.1,1.1-1.1s1,0.5,1.2,1.1h14.5c0-0.7,0-1.3,0-2c0-0.8,0.4-1.3,1.1-1.3s1.1,0.5,1.1,1.3c0,0.7,0,1.3,0,2L113.1,92.2z
		 M87.9,72.9c-4.4,0.5-8.9,0.5-13.3,0c-0.3,2.9,0.4,5.4,3,7.1c2.1,1.5,4.9,1.5,7.1,0.1C87.4,78.4,88.1,75.8,87.9,72.9z M66.6,59.8
		v-6.6c-1.5-0.1-2.2,0.5-2.2,2v2.7C64.5,59.3,65.2,59.9,66.6,59.8z M95.7,59.8c1.5,0.1,2.2-0.5,2.2-2c0-1,0-2,0-2.9
		c0.1-0.9-0.6-1.7-1.6-1.8c-0.2,0-0.4,0-0.6,0.1V59.8z"/>
	<path d="M81.2,66.6c-0.7,0-1.4,0-2.2,0c-0.6,0.1-1.2-0.4-1.2-1c-0.1-0.6,0.4-1.2,1-1.2c0.1,0,0.1,0,0.2,0c1.4,0,2.8,0,4.3,0
		c0.6-0.1,1.2,0.4,1.2,1c0.1,0.6-0.4,1.2-1,1.2c-0.1,0-0.1,0-0.2,0C82.6,66.6,81.9,66.6,81.2,66.6z"/>
	<path d="M75,53.1c0.6,0,1.1,0,1.7,0s1.1,0.5,1.1,1.1s-0.5,1.1-1.1,1.1l0,0c-1.1,0-2.2,0-3.3,0c-0.6,0-1.1-0.5-1.1-1.1
		s0.5-1.1,1.1-1.1l0,0C73.9,53.1,74.5,53.1,75,53.1z"/>
	<path d="M87.3,53.1c0.6,0,1.1,0,1.7,0s1.1,0.5,1.1,1.1s-0.5,1.1-1.1,1.1c-1.1,0-2.2,0-3.3,0c-0.6,0-1.1-0.5-1.1-1.1
		s0.5-1.1,1.1-1.1l0,0C86.2,53.1,86.8,53.1,87.3,53.1z"/>
	<path d="M84.6,86.6c0-0.6,0.6-1.1,1.2-1.1s1.1,0.6,1.1,1.2s-0.5,1.1-1.2,1.1C85,87.7,84.5,87.2,84.6,86.6z"/>
</g>
</svg>
