<?xml version="1.0" encoding="utf-8"?>
<!-- Generator: Adobe Illustrator 25.2.0, SVG Export Plug-In . SVG Version: 6.00 Build 0)  -->
<svg version="1.1" id="Layer_1" xmlns="http://www.w3.org/2000/svg" xmlns:xlink="http://www.w3.org/1999/xlink" x="0px" y="0px"
	 viewBox="0 0 162.4 162.4" style="enable-background:new 0 0 162.4 162.4;" xml:space="preserve">
<style type="text/css">
	.st0{fill:#FEFDFE;}
	.st1{fill:#D70027;}
	.st2{fill:#0152B3;}
</style>
<g>
	<path d="M54.4,113.7c0-0.3,0.1-0.6,0.3-0.8c0.2-0.2,0.5-0.3,0.7-0.3h3.7c0.8,0,1.5,0.2,2.2,0.5c0.6,0.3,1.1,0.8,1.5,1.4
		c0.4,0.6,0.6,1.2,0.6,1.9c0,0.5-0.1,1-0.2,1.4c-0.1,0.5-0.4,0.9-0.7,1.3c-0.4,0.4-0.8,0.7-1.3,0.8l0,0c0.8,0.1,1.6,0.5,2.2,1
		c0.5,0.4,0.8,1,1,1.5c0.2,0.5,0.3,1,0.3,1.5c0,0.8-0.2,1.6-0.6,2.2c-0.4,0.7-1,1.3-1.8,1.7c-0.8,0.5-1.8,0.7-2.8,0.7h-4
		c-0.5,0.1-1-0.3-1.1-0.8c0-0.1,0-0.2,0-0.3L54.4,113.7z M56.4,114.4v5.1h2.3c0.5,0,1-0.1,1.5-0.4c0.4-0.2,0.7-0.6,0.9-0.9
		c0.2-0.4,0.3-0.8,0.3-1.3c0-0.7-0.2-1.3-0.6-1.8c-0.5-0.5-1.1-0.8-1.8-0.8L56.4,114.4z M56.4,121.1v6h2.7c0.7,0,1.3-0.1,2-0.4
		c0.5-0.2,0.9-0.6,1.2-1.1c0.5-0.9,0.5-2.1,0-3c-0.3-0.5-0.7-0.9-1.1-1.1c-0.6-0.3-1.2-0.4-1.8-0.4H56.4z"/>
	<path d="M66.6,117.7c0-0.3,0.1-0.6,0.3-0.8c0.2-0.2,0.4-0.3,0.7-0.3c0.3,0,0.5,0.1,0.7,0.3c0.2,0.2,0.3,0.5,0.3,0.8v1l0,0
		c0.3-0.5,0.7-1,1.2-1.4c0.4-0.4,0.9-0.6,1.5-0.7c0.3,0,0.6,0.1,0.8,0.3c0.2,0.2,0.4,0.4,0.4,0.7c0,0.3-0.1,0.6-0.4,0.8
		c-0.3,0.2-0.7,0.3-1,0.4c-0.3,0.1-0.6,0.2-0.9,0.3c-0.5,0.3-0.9,0.7-1.2,1.2c-0.3,0.6-0.4,1.2-0.4,1.8v5.9c0,0.3-0.1,0.6-0.3,0.8
		c-0.2,0.2-0.4,0.3-0.7,0.3c-0.3,0-0.5-0.1-0.7-0.3c-0.2-0.2-0.3-0.5-0.3-0.8L66.6,117.7z"/>
	<path d="M74.8,115.2c-0.3,0-0.6-0.1-0.8-0.4c-0.2-0.2-0.3-0.5-0.3-0.8c0-0.3,0.1-0.6,0.3-0.8c0.4-0.4,1.2-0.4,1.6,0
		c0.4,0.4,0.4,1.2,0,1.6C75.4,115.1,75.1,115.2,74.8,115.2z M73.8,117.6c0-0.3,0.1-0.5,0.3-0.7c0.4-0.4,1-0.4,1.4,0
		c0.2,0.2,0.3,0.5,0.3,0.8V128c0,0.5-0.4,1-0.9,1c0,0-0.1,0-0.1,0c-0.3,0-0.5-0.1-0.7-0.3c-0.2-0.2-0.3-0.5-0.3-0.8V117.6z"/>
	<path d="M79,118.4h-0.9c-0.2,0-0.5-0.1-0.7-0.2c-0.2-0.2-0.3-0.4-0.3-0.6c0-0.5,0.4-0.9,0.9-0.9c0,0,0.1,0,0.1,0H79V114
		c0-0.3,0.1-0.5,0.3-0.7c0.2-0.2,0.4-0.3,0.7-0.2c0.3,0,0.5,0.1,0.7,0.2c0.2,0.2,0.3,0.5,0.3,0.7v2.7h0.9c0.3,0,0.5,0.1,0.7,0.3
		c0.2,0.2,0.3,0.4,0.2,0.6c0,0.2-0.1,0.4-0.2,0.6c-0.2,0.2-0.4,0.2-0.6,0.2h-1v9.6c0,0.3-0.1,0.5-0.3,0.7c-0.2,0.2-0.5,0.3-0.8,0.3
		c-0.2,0-0.5-0.1-0.7-0.3c-0.2-0.2-0.3-0.5-0.3-0.8V118.4z"/>
	<path d="M84.9,115.2c-0.3,0-0.6-0.1-0.8-0.4c-0.2-0.2-0.3-0.5-0.3-0.8c0-0.3,0.1-0.6,0.3-0.8c0.4-0.4,1.2-0.4,1.6,0
		c0.4,0.5,0.4,1.2,0,1.7C85.4,115.1,85.2,115.2,84.9,115.2z M83.9,117.6c0-0.3,0.1-0.5,0.3-0.7c0.4-0.4,1-0.4,1.4,0
		c0.2,0.2,0.3,0.5,0.3,0.8V128c0,0.3-0.1,0.6-0.3,0.8c-0.4,0.3-1,0.3-1.4,0c-0.2-0.2-0.3-0.5-0.3-0.8V117.6z"/>
	<path d="M88.2,127.7c-0.3-0.2-0.5-0.6-0.5-1c0-0.2,0.1-0.5,0.3-0.6c0.2-0.2,0.4-0.3,0.6-0.2c0.2,0,0.4,0.1,0.6,0.2
		c0.2,0.1,0.5,0.3,0.7,0.5l0.6,0.4c0.5,0.3,1.1,0.4,1.7,0.5c0.6,0,1.2-0.1,1.7-0.4c0.5-0.2,0.8-0.8,0.8-1.3c0-0.6-0.4-1.1-0.9-1.4
		c-0.6-0.3-1.2-0.6-1.8-0.8l-2-0.8c-0.5-0.3-0.9-0.6-1.2-1c-0.4-0.5-0.6-1-0.5-1.6c0-0.6,0.2-1.2,0.5-1.7c0.4-0.5,0.8-0.9,1.4-1.2
		c0.7-0.3,1.4-0.5,2.1-0.5c0.7,0,1.5,0.1,2.1,0.4c0.6,0.2,1.1,0.5,1.5,0.8c0.3,0.2,0.5,0.6,0.5,0.9c0,0.2-0.1,0.4-0.2,0.6
		c-0.2,0.2-0.4,0.3-0.6,0.3c-0.4-0.1-0.8-0.3-1.1-0.5c-0.4-0.2-0.7-0.4-1.1-0.6c-0.3-0.1-0.6-0.2-0.9-0.2c-0.6,0-1.1,0.1-1.6,0.4
		c-0.4,0.3-0.6,0.7-0.6,1.1c0.1,0.4,0.3,0.7,0.5,1c0.3,0.3,0.6,0.5,1,0.6c0.4,0.2,0.8,0.3,1.3,0.5c0.5,0.2,0.9,0.3,1.1,0.4
		c0.7,0.3,1.4,0.7,1.9,1.3c0.4,0.5,0.6,1.2,0.6,1.8c0,0.6-0.2,1.2-0.5,1.7c-0.4,0.6-0.9,1-1.5,1.3c-0.8,0.4-1.6,0.5-2.5,0.5
		C90.8,129,89.3,128.6,88.2,127.7z"/>
	<path d="M98.6,112.3c0-0.3,0.1-0.6,0.3-0.8c0.4-0.4,1-0.4,1.4,0c0.2,0.2,0.3,0.5,0.3,0.8v5.8l0,0c0.4-0.5,0.9-0.9,1.4-1.2
		c0.6-0.3,1.2-0.4,1.9-0.4c1.6,0,3,0.9,3.7,2.2c0.4,0.7,0.6,1.5,0.6,2.2v6.9c0,0.3-0.1,0.6-0.3,0.8c-0.4,0.3-1,0.3-1.4,0
		c-0.2-0.2-0.3-0.5-0.3-0.8v-6.6c0-0.8-0.2-1.5-0.8-2.1c-0.5-0.6-1.2-0.9-2-0.9c-0.5,0-1,0.1-1.4,0.3c-0.4,0.2-0.8,0.6-1,1
		c-0.3,0.5-0.4,1.1-0.4,1.6v6.7c0,0.3-0.1,0.6-0.3,0.8c-0.4,0.3-1,0.3-1.4,0c-0.2-0.2-0.3-0.5-0.3-0.8L98.6,112.3z"/>
</g>
<g>
	<circle class="st0" cx="82.3" cy="57.3" r="36.7"/>
	<path class="st1" d="M119.1,60.2c-0.2,0.4-0.3,0.9-0.2,1.4c0,0.5-0.3,0.6-0.7,0.6c-1.1,0-2.2,0-3.2,0c-9,0-18,0-27,0
		c-0.6,0-0.8,0.2-0.8,0.8c0,10,0,20,0,30.1c0,0.6-0.1,0.8-0.8,0.9c-2.8,0.3-5.5,0.3-8.3,0c-0.4,0-0.5-0.2-0.5-0.6c0-1,0-2,0-2.9
		c0-9.1,0-18.2,0-27.3c0-0.7-0.2-0.9-0.9-0.9c-10,0-20,0-30,0c-0.6,0-0.8-0.1-0.9-0.8c-0.3-2.8-0.3-5.5,0-8.3c0-0.4,0.2-0.5,0.6-0.5
		c0.4,0,0.8,0,1.2,0c9.7,0,19.4,0,29.1,0c0.7,0,0.9-0.2,0.9-0.9c0-10,0-19.9,0-29.9c0-0.8,0.2-1.1,0.9-1.1c0.3,0,0.6,0.1,0.9-0.2
		h5.9c0.3,0.3,0.7,0.2,1,0.2c0.8,0,0.9,0.3,0.9,1.1c0,10,0,19.9,0,29.9c0,0.7,0.2,0.9,0.9,0.9c9.5,0,19,0,28.5,0c0.6,0,1.2,0,1.8,0
		c0.4,0,0.5,0.1,0.6,0.5c0.1,0.4,0,1,0.3,1.4L119.1,60.2z"/>
	<path class="st2" d="M92,92.8v-19l0.5,0.5c3.9,3.9,7.8,7.8,11.7,11.7c0.4,0.4,0.4,0.6,0,0.9C100.5,89.6,96.4,91.6,92,92.8z"/>
	<path class="st2" d="M65.8,47.7H47.5c-0.4,0-0.6,0.1-0.5-0.5c1.2-4.3,3.2-8.3,5.9-11.9c0.2-0.3,0.4-0.4,0.6-0.1l12.2,12.2
		C65.8,47.6,65.8,47.6,65.8,47.7z"/>
	<path class="st2" d="M46.9,67h18.9c0,0.3-0.2,0.4-0.3,0.5L53.7,79.2c-0.3,0.3-0.5,0.5-0.8,0c-2.7-3.6-4.6-7.6-5.8-12
		C46.9,67.2,46.9,67.1,46.9,67z"/>
	<path class="st2" d="M72.7,21.9v19l-0.5-0.5c-3.9-3.9-7.8-7.8-11.7-11.7c-0.4-0.4-0.5-0.6,0-0.9C64.2,25.1,68.3,23.1,72.7,21.9z"/>
	<path class="st2" d="M98.8,66.9h19c-0.2,1.1-0.6,2.2-1,3.3c-1.2,3.2-2.9,6.2-4.9,9c-0.3,0.4-0.4,0.4-0.7,0.1c-4-4-8-8.1-12.1-12.1
		C99,67.2,98.9,67.1,98.8,66.9z"/>
	<path class="st2" d="M72.7,73.7v19c-3-0.8-5.8-2-8.5-3.5c-1.3-0.8-2.6-1.6-3.8-2.5c-0.3-0.2-0.4-0.4-0.1-0.6
		C64.4,82,68.5,77.9,72.7,73.7z"/>
	<path class="st1" d="M72.5,47.7h-4.1c-0.3,0-0.4-0.2-0.6-0.4c-4.4-4.4-8.9-8.9-13.3-13.3c-0.3-0.3-0.3-0.5,0-0.8
		c0.6-0.6,1.2-1.2,1.8-1.9c0.7,0.5,1.3,1.1,1.8,1.7c4.6,4.6,9.3,9.3,13.9,13.9c0.2,0.2,0.4,0.3,0.6,0.5L72.5,47.7z"/>
	<path class="st1" d="M92.1,66.9h4.2c0.3,0,0.4,0.2,0.5,0.3c4.4,4.4,8.9,8.9,13.3,13.3c0.3,0.3,0.3,0.5,0,0.7
		c-0.5,0.5-1,1.1-1.5,1.6c-0.2,0.3-0.4,0.3-0.7,0c-0.6-0.6-1.2-1.2-1.8-1.8L92.5,67.5C92.3,67.4,92.2,67.2,92.1,66.9z"/>
	<path class="st1" d="M72.7,67.1c0,1.3,0,2.7,0,4c0,0.3-0.2,0.5-0.4,0.7c-4.4,4.4-8.9,8.9-13.3,13.3c-0.3,0.3-0.5,0.3-0.8,0
		c-0.5-0.5-1-1-1.5-1.4c-0.4-0.3-0.3-0.5,0-0.8c2.1-2.1,4.1-4.1,6.2-6.2l9.1-9.1c0.2-0.2,0.3-0.4,0.5-0.6L72.7,67.1z"/>
	<path class="st2" d="M91.9,40.8c0-6.2,0-12.3,0-18.5c0-0.4,0.1-0.5,0.5-0.4c4.3,1.2,8.2,3.2,11.8,5.8c0.3,0.2,0.5,0.3,0.1,0.7
		c-4.1,4-8.1,8.1-12.2,12.2C92.1,40.7,92,40.8,91.9,40.8z"/>
	<path class="st2" d="M98.8,47.7c0.2-0.2,0.3-0.4,0.5-0.5c3.9-3.9,7.8-7.8,11.7-11.7c0.4-0.4,0.6-0.5,0.9,0
		c2.6,3.5,4.5,7.5,5.7,11.6c0.1,0.3,0.2,0.6-0.4,0.6c-6.1,0-12.1,0-18.2,0C99,47.7,98.9,47.7,98.8,47.7z"/>
	<path class="st1" d="M91.9,47.7c0-1.5,0-2.9,0-4.2c0-0.2,0.1-0.5,0.3-0.6c4.5-4.4,8.9-8.9,13.3-13.4c0.3-0.3,0.5-0.3,0.8,0
		c0.5,0.5,1,1,1.5,1.4c0.4,0.3,0.3,0.5,0,0.8c-3.1,3.1-6.2,6.1-9.2,9.2l-6.1,6.1C92.4,47.2,92.2,47.4,91.9,47.7z"/>
</g>
</svg>
