<?xml version="1.0" encoding="utf-8"?>
<!-- Generator: Adobe Illustrator 25.2.0, SVG Export Plug-In . SVG Version: 6.00 Build 0)  -->
<svg version="1.1" id="Layer_1" xmlns="http://www.w3.org/2000/svg" xmlns:xlink="http://www.w3.org/1999/xlink" x="0px" y="0px"
	 viewBox="0 0 162.4 162.4" style="enable-background:new 0 0 162.4 162.4;" xml:space="preserve">
<g>
	<path d="M66.1,114.2c0.2,0.2,0.3,0.5,0.3,0.8c0,0.2-0.1,0.4-0.3,0.6c-0.2,0.2-0.4,0.3-0.6,0.3c-0.2,0-0.3-0.1-0.5-0.2l-0.5-0.4
		l-0.4-0.3c-0.3-0.2-0.7-0.4-1-0.5c-0.4-0.1-0.9-0.2-1.4-0.2c-1.1,0-2.1,0.3-2.9,1c-0.8,0.7-1.4,1.5-1.7,2.5
		c-0.4,0.9-0.6,1.9-0.6,2.9c0,1,0.2,1.9,0.4,2.8c0.3,1,0.8,1.9,1.5,2.6c0.8,0.8,1.8,1.2,2.9,1.2c0.7,0,1.3-0.1,2-0.3
		c0.6-0.3,1.3-0.6,1.8-0.9c0.2-0.1,0.4-0.2,0.7-0.2c0.2,0,0.4,0.1,0.6,0.2c0.1,0.2,0.2,0.4,0.2,0.6c0,0.3-0.1,0.6-0.3,0.8
		c-0.6,0.6-1.4,1-2.2,1.2c-0.8,0.2-1.7,0.3-2.6,0.4c-1.1,0-2.2-0.2-3.2-0.8c-0.9-0.5-1.6-1.2-2.2-2c-0.6-0.8-1-1.7-1.3-2.6
		c-0.3-0.9-0.4-1.8-0.4-2.7c0-1.1,0.2-2.2,0.5-3.2c0.3-1,0.7-1.9,1.3-2.7c0.6-0.8,1.4-1.4,2.3-1.9c1-0.4,2-0.7,3.1-0.7
		c0.6,0,1.1,0.1,1.7,0.2c0.6,0.1,1.1,0.3,1.6,0.6C65.3,113.4,65.7,113.8,66.1,114.2z"/>
	<path d="M76.7,118.2v-0.7c0-0.3,0.1-0.5,0.3-0.7c0.4-0.4,0.9-0.4,1.3,0c0,0,0,0,0,0c0.2,0.2,0.3,0.5,0.3,0.7V128
		c0,0.3-0.1,0.6-0.3,0.8c-0.2,0.2-0.4,0.2-0.6,0.2c-0.2,0-0.5-0.1-0.7-0.2c-0.2-0.2-0.3-0.4-0.3-0.7v-0.9l0,0
		c-0.7,1.1-1.9,1.8-3.2,1.8c-2,0-3.9-1.1-4.8-2.9c-1-2.1-0.9-4.6,0.1-6.7c0.5-0.9,1.2-1.6,2-2.1c0.7-0.4,1.6-0.7,2.4-0.7
		c0.6,0,1.3,0.1,1.9,0.4C75.8,117.3,76.3,117.8,76.7,118.2L76.7,118.2z M70.1,122.8c0,0.7,0.1,1.5,0.3,2.1c0.2,0.6,0.6,1.2,1.1,1.6
		c0.5,0.4,1.1,0.7,1.8,0.6c1,0.1,2-0.4,2.6-1.3c0.6-1,0.8-2.1,0.8-3.2c0-0.8-0.1-1.6-0.4-2.4c-0.2-0.6-0.6-1.2-1.2-1.5
		c-0.5-0.4-1.1-0.6-1.7-0.5l0,0c-1,0-1.9,0.5-2.4,1.3C70.3,120.5,70,121.7,70.1,122.8z"/>
	<path d="M82.3,115c-0.3,0-0.7-0.2-0.9-0.4c-0.2-0.2-0.4-0.5-0.4-0.9c0-0.3,0.1-0.6,0.4-0.9c0.2-0.2,0.6-0.4,0.9-0.4
		c0.3,0,0.6,0.1,0.9,0.4c0.2,0.2,0.4,0.6,0.4,0.9c0,0.3-0.1,0.6-0.4,0.9C82.9,114.9,82.6,115,82.3,115z M81.3,117.6
		c0-0.3,0.1-0.6,0.3-0.8c0.2-0.2,0.4-0.3,0.7-0.3c0.3,0,0.5,0.1,0.7,0.3c0.2,0.2,0.3,0.5,0.3,0.7v15.2c0,0.3-0.1,0.6-0.3,0.8
		c-0.2,0.2-0.4,0.3-0.7,0.3c-0.3,0-0.5-0.1-0.7-0.3c-0.2-0.2-0.3-0.5-0.3-0.8V117.6z"/>
	<path d="M86,117.6c0-0.3,0.1-0.5,0.3-0.7c0.2-0.2,0.4-0.3,0.7-0.3c0.3,0,0.5,0.1,0.7,0.3c0.2,0.2,0.3,0.5,0.3,0.7v6.6
		c0,0.8,0.2,1.6,0.7,2.2c0.5,0.6,1.3,0.9,2.1,0.8c1.9,0,2.8-1,2.8-3v-6.6c0-0.3,0.1-0.5,0.3-0.7c0.2-0.2,0.4-0.3,0.7-0.3
		c0.3,0,0.5,0.1,0.7,0.3c0.2,0.2,0.3,0.5,0.3,0.7v6.7c0,0.8-0.2,1.6-0.5,2.3c-0.3,0.7-0.9,1.3-1.6,1.7c-0.8,0.5-1.8,0.7-2.8,0.6
		c-0.9,0-1.8-0.2-2.6-0.6c-0.7-0.4-1.2-1-1.6-1.7c-0.3-0.7-0.5-1.6-0.5-2.4L86,117.6z"/>
	<path d="M98.1,117.7c0-0.3,0.1-0.6,0.3-0.8c0.2-0.2,0.4-0.3,0.7-0.3c0.3,0,0.5,0.1,0.7,0.3c0.2,0.2,0.3,0.5,0.3,0.8v0.5l0,0
		c0.4-0.5,0.9-0.9,1.5-1.2c0.6-0.3,1.2-0.4,1.8-0.4c0.7,0,1.4,0.2,2.1,0.5c0.7,0.4,1.2,0.9,1.6,1.6c0.4,0.8,0.6,1.7,0.6,2.6v6.8
		c0,0.3-0.1,0.5-0.3,0.7c-0.2,0.2-0.4,0.3-0.7,0.2c-0.3,0-0.5-0.1-0.7-0.3c-0.2-0.2-0.3-0.4-0.3-0.7v-6.7c0-0.8-0.3-1.6-0.8-2.1
		c-0.5-0.5-1.2-0.7-2-0.7c-0.5,0-1,0.1-1.4,0.3c-0.4,0.2-0.8,0.6-1,1c-0.3,0.5-0.4,1-0.4,1.6v6.7c0,0.3-0.1,0.6-0.3,0.8
		c-0.2,0.2-0.4,0.3-0.7,0.3c-0.3,0-0.5-0.1-0.7-0.3c-0.2-0.2-0.3-0.5-0.3-0.8L98.1,117.7z"/>
</g>
<g>
	<path d="M113.8,80.3c2.1,0.1,4.1,1.2,5.5,2.8c0.8,1,1.3,2.1,1.6,3.3c0.5,2.5-0.8,4.1-3.5,4.6c-1.3,4.9-4.4,6.2-8.2,3.7
		c-3.2,2.4-7.5-0.3-7.5-4.5c0.1-1.5,0.4-3,0.7-4.5c0-0.5,0-1.1-0.2-1.6c-0.3-1.3-0.5-2.8-1.2-3.8c-0.7-1.1-2.3-1.4-3-2.4
		c-0.8-1.1-1.8-2.1-3-2.7c-1.2-1-2.4-2.1-3.5-3.2c-0.3-0.2-0.6-0.4-0.9-0.5c-0.2,0.3-0.3,0.6-0.4,1c-0.2,2.6-0.3,5.2-0.5,7.8
		c0,0.4-0.1,0.8-0.2,1.3c-0.2,1.4-1.5,2.3-2.9,2.1c-1.3-0.3-1.9-1.5-1.7-3c0.3-2.2,0.5-4.3,0.7-6.5c0-0.4,0-0.8,0-1.2L84.4,73
		c-0.1,1.8-0.2,3.5-0.3,5.3c-0.1,1.2-0.3,2.4-0.5,3.6c-0.2,1.4-1.5,2.4-2.9,2.2c-1.3-0.3-1.9-1.5-1.7-3.1c0.3-2.5,0.6-4.9,0.9-7.5
		h-1.5c-0.2,2.5-0.4,4.9-0.6,7.3c0,0.5-0.1,1.1-0.3,1.6c-0.2,1.4-1.6,2.4-3,2.1c0,0,0,0,0,0c-1.3-0.3-1.8-1.5-1.6-3.1
		c0.3-2.4,0.5-4.8,0.7-7.2c0-0.4-0.2-1.1-0.3-1.1c-0.5-0.1-1,0.1-1.3,0.3c-1.9,1.9-3.8,3.9-5.6,5.9c-0.3,0.4-0.5,0.9-0.6,1.4
		c-2.8,10-14.5,15.9-24.1,12.1c-3.4-1.3-6.1-4-7.5-7.3c-0.5-1.2-0.3-1.7,1-1.7c2.2,0,3.5-0.8,4.5-3c3.1-6.4,8.7-8.6,15.5-8.5
		c1.3,0,2.6,0.3,3.9,0.4c0.4,0.1,0.7,0,1-0.2c0.8-0.9,1.6-1.8,2.5-2.8c-0.4-0.2-0.7-0.4-1-0.6c-8.1-4.1-13.1-10.5-14.7-19.5
		c-1.2-7.3,2-13,9-15.4c3-1.1,6.1-1.8,9.1-2.9c1.7-0.6,3.2-1.4,4.7-2.4c2-1.3,4-0.5,4.8,2.3c0.1-0.3,0.3-0.6,0.5-0.9
		c0.8-1.1,2.3-1.4,3.4-0.6c1.1,0.7,1.4,2.2,0.7,3.3c-1.1,2.3-3,3.6-5.2,4.6c-3.8,1.7-7.8,2.8-11.8,3.5c-1.9,0.2-3.7,1.1-5.1,2.4
		c-0.6,0.7-1.1,1.5-1.6,2.3l0.3,0.2c2-0.3,3.9-0.5,5.9-0.7c9.1-0.9,18.2-1,27.1,1.3c6.2,1.6,12,4.2,16.7,8.7
		c6.4,6.1,8.9,13.7,8.5,22.4c0,0.7-0.1,1.5-0.1,2.2C113.7,80.1,113.8,80.2,113.8,80.3z M48.5,49.2c0,0.2,0,0.4,0,0.7
		c0,0.3,0.1,0.6,0.2,0.9c1.7,8.1,6.5,13.8,13.9,17.3c0.7,0.5,1.6,0.5,2.3,0c0.8-0.5,1.7-0.8,2.6-0.8c2.5-0.3,4.5,0.9,4.9,3.1
		c0,0.8,0.7,1.4,1.5,1.3c0,0,0,0,0,0c5.6,0.5,11.2-0.1,16.5-1.7c0.7-0.2,1.3-0.7,1.7-1.3c3.6-4.8,4.8-11,3.3-16.8
		c-0.1-0.8-0.6-1.4-1.4-1.7c-5.6-2.2-11.6-3.5-17.6-3.7c-6.8-0.3-13.6,0.1-20.3,1.2C53.7,48.1,51.1,48.7,48.5,49.2L48.5,49.2z
		 M35.7,85.5c0.8,1.8,2.1,3.3,3.6,4.5c3.2,2.4,6.7,2.8,10.5,2.4c6.7-0.6,12.4-5.2,14.3-11.6c0.7-1.7,0.1-3.7-1.5-4.6
		c-3.3-2.1-6.9-2.2-10.5-2c0.5,1.6,1,3.1,1.4,4.6c0.3,0.9-0.2,1.8-1.1,2.1c0,0-0.1,0-0.1,0c-3.6,1.7-7.4,2.9-11.2,3.8
		C39.3,84.9,37.6,85.2,35.7,85.5L35.7,85.5z M97.1,51.6C97,51.8,97,51.8,97,51.9c1.3,6.6,0.1,12.7-4,18.1c-0.2,0.2-0.3,0.5-0.3,0.7
		c0.2,1.6,4,4.4,5.5,4.1c0.1,0,0.2-0.1,0.3-0.1c4.5-1.9,9-6.6,8.5-12.9c0-0.9-0.2-1.9-0.7-2.7C104,55.9,100.7,53.3,97.1,51.6
		L97.1,51.6z M103.2,89.7l-0.1,0.1c0.2,0.9,0.5,1.8,0.9,2.6c0.6,1.2,1.9,1.8,3.2,1.6c0.8-0.2,1.2-0.5,0.7-1.4
		c-0.3-0.6-0.4-1.3-0.5-2c0-0.3,0.3-0.6,0.5-0.9c0.3,0.2,0.5,0.5,0.7,0.8c0.5,1,1,2.1,1.7,3c0.9,1.1,2.2,1.2,3.7,0.5
		c1.2-0.3,1.9-1.5,1.7-2.8c-0.3-1.2-0.8-2.3-1.3-3.4c-0.1-0.3-0.2-0.5-0.2-0.8c0.3,0,0.8-0.2,0.9-0.1c0.5,0.5,1,1,1.4,1.5
		c0.3,0.3,0.8,1,1.1,0.9c0.7-0.1,1.2-0.5,1.7-1c0.5-0.9,0.4-2-0.2-2.9c-0.9-1.7-2.5-2.9-4.4-3.3c-0.9-0.3-1.9,0-2.5,0.7
		c-1.6,1.6-3.7,2.5-5.9,2.7c-2.3,0.2-2.3,0.2-2.8,2.6C103.3,88.6,103.3,89.1,103.2,89.7L103.2,89.7z M108.6,62.1
		c-0.2,7-4,11.3-9.7,14c0.7,1.7,2.4,2.9,4.2,2.8c2.6-0.2,5.1-1.3,6.9-3.2c1.4-1.4,2.4-3,1.8-5.2C111.2,67.5,110.1,64.7,108.6,62.1
		L108.6,62.1z M48.2,47.7c2.1-0.1,2.1-0.1,2.3-1.9c0.3-3.4,2.4-6.4,5.6-7.8c1.1-0.5,2.2-0.9,3.4-1.2c2.5-0.7,5-1.3,7.4-2.1
		c1.7-0.7,3.4-1.6,5-2.6c0.5-0.3,1-1,0.4-1.7c-0.6-0.7-1.1-0.3-1.8,0.1c-1.4,0.9-2.8,1.7-4.3,2.3c-2.3,0.9-4.6,1.4-6.9,2.2
		c-2.3,0.7-4.5,1.7-6.6,2.9C49.2,39.9,48.1,43.5,48.2,47.7L48.2,47.7z M52.1,47c0.8-0.2,1.5-0.1,1.6-0.7c0.5-2.9,2.8-4.8,5.5-5.6
		c1.7-0.6,3.5-0.9,5.3-1.3c3.4-0.6,6.6-1.7,9.7-3.3c1.5-0.7,2.7-1.9,3.4-3.4c0.2-0.4,0.3-1.2-0.1-1.5c-0.4-0.3-1.1,0.2-1.5,0.5
		c-1.2,1-2.5,2-3.9,2.9c-3.4,1.9-7.1,2.7-10.8,3.6c-1.8,0.4-3.5,0.9-5.2,1.6C53.4,41,51.8,43.9,52.1,47L52.1,47z M40.2,83.1
		c4-0.8,7.8-2,11.5-3.8c0.3-0.2,0.4-0.5,0.4-0.8c-0.3-1.1-0.7-2.2-1.3-3.2c-0.3-0.4-0.9-0.7-1.4-0.6C45,75.9,42.1,78.7,40.2,83.1
		L40.2,83.1z M61.2,73.8c1.9,0.8,3.5,2.3,4.3,4.2l5.1-5.4c0.2-0.1,0.3-0.3,0.4-0.4c0.1-0.3,0.2-0.6,0.2-0.9
		c-0.1-1.3-1.1-2.4-2.4-2.6c-1.4-0.3-2.9,0.2-4,1.1C63.6,71,62.5,72.3,61.2,73.8L61.2,73.8z M102.7,80.3c0.1,0.7,0.1,1.2,0.3,1.7
		c0.5,1.7,1.1,2.2,2.8,2.1c2-0.1,3.9-0.9,5.4-2.3c0.3-0.3,0.7-0.6,0.7-0.9c0.2-1.8,0.4-3.6,0.6-5.4l-0.3-0.1
		C109.8,78.3,106.4,80.1,102.7,80.3L102.7,80.3z M75.1,73.4c-0.3,2.9-0.7,5.7-0.9,8.4c0,0.4-0.1,1.2,0.5,1.3c0.6,0,1.2-0.4,1.3-0.9
		c0.6-2.9,0.9-5.9,0.7-8.8H75.1z M89,72.1c-0.8,0.3-1.8-0.2-1.9,1c-0.3,2.6-0.5,5.2-0.7,7.7c0,0.5,0.1,1.3,0.7,1.4
		c0.6,0.1,1.1-0.6,1.2-1C88.9,78.2,89.2,75.1,89,72.1L89,72.1z M81.2,73.3c-0.3,2.8-0.7,5.5-1,8.2c0,0.4,0,1.1,0.6,1.2
		c0.6,0,1.1-0.3,1.3-0.9c0.6-2.8,0.9-5.7,0.7-8.6L81.2,73.3z"/>
	<path d="M57.9,56.3c-1.6,0-2.9-1.3-2.9-2.9c0-1.6,1.3-2.9,2.9-2.9c1.6,0,2.9,1.3,2.8,2.9c0,0,0,0,0,0c0.1,1.6-1.2,2.9-2.7,2.9
		C58,56.3,58,56.3,57.9,56.3z M58.5,51.6c-0.5-0.1-1,0.1-1.1,0.6c0,0.1,0,0.2,0,0.3c0,0.9,1.1,1.1,1.7,0.6c0.1-0.1,0.2-0.3,0.3-0.5
		C59.3,52.1,59,51.7,58.5,51.6L58.5,51.6z"/>
</g>
</svg>
