<?xml version="1.0" encoding="utf-8"?>
<!-- Generator: Adobe Illustrator 25.2.0, SVG Export Plug-In . SVG Version: 6.00 Build 0)  -->
<svg version="1.1" id="Layer_1" xmlns="http://www.w3.org/2000/svg" xmlns:xlink="http://www.w3.org/1999/xlink" x="0px" y="0px"
	 viewBox="0 0 162.4 162.4" style="enable-background:new 0 0 162.4 162.4;" xml:space="preserve">
<g>
	<path d="M43.6,114.1c0.2,0.2,0.3,0.5,0.3,0.8c0,0.2-0.1,0.4-0.2,0.6c-0.2,0.2-0.4,0.3-0.6,0.3c-0.2,0-0.3-0.1-0.5-0.2l-0.5-0.4
		l-0.4-0.3c-0.3-0.2-0.7-0.4-1-0.5c-0.4-0.1-0.9-0.2-1.4-0.2c-1.1,0-2.1,0.3-2.9,1c-0.8,0.7-1.4,1.5-1.7,2.5
		c-0.4,0.9-0.5,1.9-0.6,2.9c0,1,0.2,1.9,0.4,2.8c0.3,1,0.8,1.9,1.5,2.6c0.8,0.8,1.8,1.2,2.9,1.2c0.7,0,1.3-0.1,2-0.3
		c0.6-0.3,1.3-0.6,1.8-0.9c0.2-0.1,0.4-0.2,0.7-0.2c0.2,0,0.4,0.1,0.6,0.2c0.1,0.2,0.2,0.4,0.2,0.6c0,0.3-0.1,0.6-0.3,0.8
		c-0.6,0.6-1.4,1-2.2,1.2c-0.8,0.2-1.7,0.4-2.6,0.4c-1.1,0-2.2-0.2-3.2-0.8c-0.9-0.5-1.6-1.2-2.2-2c-0.6-0.8-1-1.7-1.3-2.6
		c-0.2-0.9-0.3-1.7-0.3-2.6c0-1.1,0.2-2.2,0.5-3.2c0.3-1,0.7-1.9,1.3-2.7c0.6-0.8,1.4-1.4,2.2-1.9c1-0.4,2-0.7,3.1-0.7
		c0.6,0,1.1,0.1,1.7,0.2c0.6,0.1,1.1,0.3,1.6,0.6C42.9,113.4,43.3,113.7,43.6,114.1z"/>
	<path d="M54.3,118.1v-0.7c0-0.3,0.1-0.5,0.3-0.7c0.2-0.2,0.4-0.3,0.7-0.3c0.2,0,0.5,0.1,0.6,0.3c0.2,0.2,0.3,0.5,0.3,0.7v10.4
		c0,0.3-0.1,0.6-0.3,0.8c-0.2,0.2-0.4,0.2-0.6,0.2c-0.2,0-0.5-0.1-0.7-0.2c-0.2-0.2-0.3-0.4-0.3-0.7v-0.9l0,0
		c-0.7,1.1-1.9,1.8-3.2,1.8c-1,0-1.9-0.2-2.8-0.7c-0.8-0.5-1.5-1.3-2-2.2c-1-2.1-0.9-4.6,0.1-6.7c0.5-0.9,1.2-1.6,2-2.1
		c0.7-0.4,1.6-0.7,2.4-0.7c0.6,0,1.3,0.1,1.9,0.4C53.3,117.2,53.9,117.7,54.3,118.1L54.3,118.1z M47.6,122.7c0,0.7,0.1,1.5,0.4,2.2
		c0.2,0.6,0.6,1.2,1.1,1.6c0.5,0.4,1.1,0.7,1.8,0.7c1,0.1,2-0.4,2.6-1.3c0.5-1,0.8-2.1,0.8-3.2c0-0.8-0.1-1.6-0.4-2.4
		c-0.2-0.6-0.6-1.2-1.2-1.5c-0.5-0.4-1.1-0.6-1.7-0.5l0,0c-1,0-1.9,0.5-2.4,1.3C47.9,120.5,47.6,121.6,47.6,122.7L47.6,122.7z"/>
	<path d="M58.8,117.6c0-0.3,0.1-0.6,0.3-0.8c0.2-0.2,0.4-0.3,0.7-0.3c0.3,0,0.5,0.1,0.7,0.3c0.2,0.2,0.3,0.5,0.3,0.8v1l0,0
		c0.3-0.5,0.7-1,1.2-1.4c0.4-0.4,0.9-0.6,1.5-0.7c0.3,0,0.6,0.1,0.8,0.3c0.2,0.2,0.3,0.4,0.3,0.7c0,0.3-0.1,0.6-0.3,0.8
		c-0.3,0.2-0.7,0.3-1,0.4c-0.3,0.1-0.6,0.2-0.9,0.3c-0.5,0.3-0.9,0.7-1.2,1.2c-0.3,0.6-0.4,1.2-0.4,1.8v5.9c0,0.3-0.1,0.6-0.3,0.8
		c-0.2,0.2-0.4,0.3-0.7,0.3c-0.3,0-0.5-0.1-0.7-0.3c-0.2-0.2-0.3-0.5-0.3-0.8L58.8,117.6z"/>
	<path d="M67,115.1c-0.3,0-0.6-0.1-0.8-0.4c-0.2-0.2-0.3-0.5-0.3-0.8c0-0.3,0.1-0.6,0.3-0.8c0.4-0.4,1.2-0.4,1.6,0
		c0.4,0.5,0.4,1.2,0,1.7C67.5,115,67.3,115.1,67,115.1z M66,117.5c0-0.3,0.1-0.5,0.3-0.7c0.4-0.4,1-0.4,1.4,0
		c0.2,0.2,0.3,0.5,0.3,0.8v10.3c0,0.3-0.1,0.6-0.3,0.8c-0.4,0.3-1,0.3-1.4,0c-0.2-0.2-0.3-0.5-0.3-0.8V117.5z"/>
	<path d="M72.7,118.1L72.7,118.1c0.7-1.1,2-1.7,3.3-1.6c1,0,1.9,0.3,2.7,0.8c0.8,0.6,1.4,1.4,1.8,2.3c0.4,1,0.7,2.1,0.6,3.1
		c0,0.8-0.1,1.7-0.4,2.5c-0.2,0.7-0.6,1.4-1.1,1.9c-0.5,0.6-1.1,1-1.7,1.3c-0.7,0.3-1.4,0.5-2.2,0.5c-1.2,0.1-2.4-0.5-3-1.6l0,0v0.7
		c0,0.3-0.1,0.5-0.3,0.7c-0.2,0.2-0.5,0.3-0.7,0.3c-0.2,0-0.5-0.1-0.7-0.3c-0.2-0.2-0.3-0.5-0.3-0.8v-15.7c0-0.3,0.1-0.6,0.3-0.8
		c0.2-0.2,0.4-0.3,0.7-0.3c0.3,0,0.5,0.1,0.7,0.3c0.2,0.2,0.3,0.5,0.3,0.7L72.7,118.1z M79.2,122.7c0-0.8-0.1-1.5-0.4-2.2
		c-0.2-0.6-0.6-1.1-1.1-1.5c-0.5-0.4-1.1-0.6-1.7-0.7c-0.6,0-1.3,0.2-1.8,0.5c-0.6,0.4-1,0.9-1.2,1.5c-0.3,0.7-0.5,1.6-0.5,2.4l0,0
		l0,0l0,0c0,0.7,0.1,1.5,0.4,2.1c0.2,0.6,0.6,1.2,1.1,1.7c0.6,0.5,1.3,0.7,2,0.7c0.7,0,1.3-0.3,1.8-0.7c0.5-0.4,0.8-1,1-1.7
		C79,124.1,79.2,123.4,79.2,122.7L79.2,122.7z"/>
	<path d="M85.3,118.1L85.3,118.1c0.7-1.1,2-1.7,3.3-1.6c1,0,1.9,0.3,2.7,0.8c0.8,0.6,1.4,1.4,1.8,2.3c0.4,1,0.7,2.1,0.6,3.1
		c0,0.8-0.1,1.7-0.4,2.5c-0.2,0.7-0.6,1.4-1.1,1.9c-0.5,0.6-1.1,1-1.7,1.3c-0.7,0.3-1.4,0.5-2.2,0.5c-1.2,0.1-2.4-0.5-3-1.6l0,0v0.7
		c0,0.3-0.1,0.5-0.3,0.7c-0.2,0.2-0.5,0.3-0.7,0.3c-0.2,0-0.5-0.1-0.6-0.3c-0.2-0.2-0.3-0.5-0.3-0.8v-15.7c0-0.3,0.1-0.6,0.3-0.8
		c0.2-0.2,0.4-0.3,0.7-0.3c0.3,0,0.5,0.1,0.7,0.3c0.2,0.2,0.3,0.5,0.3,0.7L85.3,118.1z M91.8,122.7c0-0.8-0.1-1.5-0.4-2.2
		c-0.2-0.6-0.6-1.1-1.1-1.5c-0.5-0.4-1.1-0.6-1.7-0.7c-0.6,0-1.3,0.2-1.8,0.5c-0.6,0.4-1,0.9-1.2,1.5c-0.3,0.7-0.5,1.6-0.5,2.4l0,0
		v0.1c0,0.7,0.1,1.5,0.4,2.1c0.2,0.6,0.6,1.2,1.1,1.7c0.6,0.5,1.3,0.7,2,0.7c0.7,0,1.3-0.2,1.8-0.7c0.5-0.4,0.8-1,1-1.7
		C91.7,124.1,91.8,123.4,91.8,122.7z"/>
	<path d="M95.2,122.6c0-1,0.3-2,0.7-3c0.4-0.9,1-1.7,1.8-2.3c0.8-0.6,1.8-0.9,2.8-0.9c1,0,2,0.3,2.8,0.8c0.8,0.6,1.5,1.3,1.9,2.2
		c0.4,0.9,0.7,1.9,0.7,2.9c0,0.7-0.4,1-1.1,1h-7.6c0,0.7,0.2,1.4,0.5,2c0.3,0.6,0.7,1,1.3,1.3c0.6,0.3,1.2,0.4,1.8,0.4
		c1.2,0,2.4-0.5,3.3-1.3c0.2-0.2,0.5-0.3,0.8-0.4c0.2,0,0.4,0.1,0.5,0.3c0.1,0.2,0.2,0.4,0.2,0.6c0,0.3-0.1,0.5-0.3,0.7
		c-0.5,0.6-1.2,1-1.9,1.3c-0.8,0.3-1.7,0.5-2.6,0.5c-0.9,0-1.8-0.2-2.6-0.6c-0.7-0.3-1.3-0.8-1.8-1.5c-0.4-0.6-0.8-1.3-1-2
		c-0.2-0.7-0.3-1.4-0.3-2.2L95.2,122.6L95.2,122.6z M97.2,122h6.7c0-1-0.3-1.9-0.9-2.7c-0.6-0.7-1.5-1.1-2.4-1.1
		c-0.9,0-1.8,0.3-2.4,1C97.6,120,97.2,121,97.2,122L97.2,122z"/>
	<path d="M116,118.1v-0.7c0-0.3,0.1-0.5,0.3-0.7c0.2-0.2,0.4-0.3,0.7-0.3c0.2,0,0.5,0.1,0.7,0.3c0.2,0.2,0.3,0.5,0.3,0.7v10.4
		c0,0.3-0.1,0.6-0.3,0.8c-0.2,0.2-0.4,0.2-0.7,0.2c-0.2,0-0.5-0.1-0.7-0.2c-0.2-0.2-0.3-0.4-0.3-0.7v-0.9l0,0
		c-0.7,1.1-1.9,1.8-3.2,1.8c-1,0-1.9-0.2-2.8-0.7c-0.8-0.5-1.5-1.3-2-2.2c-1-2.1-0.9-4.6,0.1-6.7c0.5-0.9,1.2-1.6,2-2.1
		c0.7-0.4,1.6-0.7,2.4-0.7c0.6,0,1.3,0.1,1.9,0.4C115,117.2,115.5,117.7,116,118.1L116,118.1z M109.3,122.7c0,0.7,0.1,1.5,0.4,2.2
		c0.2,0.6,0.6,1.2,1.1,1.6c0.5,0.4,1.1,0.7,1.8,0.7c1,0.1,2-0.4,2.6-1.3c0.6-1,0.8-2.1,0.8-3.2c0-0.8-0.1-1.6-0.4-2.4
		c-0.2-0.6-0.6-1.2-1.2-1.5c-0.5-0.4-1.1-0.6-1.7-0.5l0,0c-1,0-1.9,0.5-2.4,1.3C109.6,120.5,109.3,121.6,109.3,122.7z"/>
	<path d="M120.5,117.6c0-0.3,0.1-0.6,0.3-0.8c0.2-0.2,0.4-0.3,0.7-0.3c0.3,0,0.5,0.1,0.7,0.3c0.2,0.2,0.3,0.5,0.3,0.8v0.5l0,0
		c0.4-0.5,0.9-0.9,1.5-1.2c0.6-0.3,1.2-0.4,1.8-0.4c0.7,0,1.4,0.2,2.1,0.5c0.7,0.4,1.2,0.9,1.6,1.6c0.4,0.8,0.6,1.7,0.6,2.6v6.8
		c0,0.3-0.1,0.5-0.3,0.7c-0.4,0.3-1,0.3-1.4,0c-0.2-0.2-0.3-0.4-0.3-0.7v-6.7c0-0.8-0.3-1.6-0.8-2.1c-0.9-0.8-2.3-1-3.4-0.4
		c-0.4,0.2-0.8,0.6-1,1c-0.3,0.5-0.4,1-0.4,1.6v6.7c0,0.3-0.1,0.6-0.3,0.8c-0.2,0.2-0.4,0.3-0.7,0.3c-0.3,0-0.5-0.1-0.7-0.3
		c-0.2-0.2-0.3-0.5-0.3-0.8L120.5,117.6z"/>
</g>
<g>
	<path d="M92.9,77.9c-7.1-0.9-14.4-0.9-21.5,0c0.2,0.9,0.4,1.6,0.7,2.4c1.5,5,3.3,9.8,5.5,14.5c0.1,0.1,0.1,0.2,0.1,0.3
		c0.2,0.5,0.3,1.1-0.4,1.3s-0.9-0.1-1.2-0.6c-0.7-1.6-1.5-3.1-2.1-4.8c-1.4-4-2.8-8-4.1-12c-0.1-0.3-0.2-0.6-0.3-0.9
		c-4.6,0.6-9.1,1.7-13.5,3.1c-2.2,0.7-4.4,1.5-6.6,2.3l-0.3,0.1c-0.5,0.2-1.1,0.3-1.3-0.4c-0.3-0.6,0.2-1,0.7-1.2
		c1.9-0.7,3.7-1.4,5.6-2c4.6-1.6,9.3-2.7,14.1-3.5c0.3,0,0.6-0.1,0.9-0.2c-2.4-9.1-3.7-18.4-4.1-27.7c-2.5,0.2-4.8,1.6-6,3.8
		c-0.6,1.3-1.2,2.7-1.6,4.1c-0.2,0.4-0.5,0.9-0.7,1.3c-0.5-0.2-0.9-0.5-1.3-0.8c-2.6-3.2-2.1-7.9,1.1-10.4c0,0,0,0,0,0
		c0.2-0.1,0.4-0.3,0.5-0.6c-0.3,0-0.6,0.1-0.9,0.2c-2.5,0.7-4.7,2-6.5,3.8c-0.3,0.3-0.9,0.6-1.2,0.5c-0.4-0.3-0.6-0.7-0.6-1.2
		c-0.4-5.2,3.5-9.8,8.7-10.2c0.6-0.1,1.3,0,1.9,0h0.4l0.1-0.3c-1.2-0.3-2.4-0.6-3.6-0.7c-1.7,0-3.4,0.4-5,0.5c-0.4,0-1,0.1-1.2-0.2
		c-0.2-0.4-0.2-0.8,0-1.2c1.9-4.4,7-6.5,11.4-4.6c1.2,0.5,2.3,1.3,3.2,2.3l0.7,0.8c0.7-2,2-3.6,3.7-4.8c3.7-2.3,8.6-1.5,11.3,2
		c0.3,0.3,0.4,0.7,0.3,1.1c-0.3,0.3-0.7,0.5-1.1,0.5c-2.4,0-4.9,0.6-7,1.8c-0.4,0.2-0.7,0.5-1.2,0.8c1.2-0.3,2.2-0.6,3.3-0.7
		c4.9-0.5,9.4,2.9,10.2,7.8c0.1,0.4,0,0.9-0.2,1.1c-0.4,0.2-0.8,0.1-1.2,0c-2.4-1.4-5.2-2-7.9-1.9l-0.5,0.1l1,0.4
		c3.7,1.7,5.4,6.1,3.8,9.8c0,0,0,0.1,0,0.1c-0.2,0.4-0.6,0.8-0.9,0.8c-0.3,0-0.7-0.5-0.9-0.8c-0.8-1.6-1.9-3-3.2-4.1
		c-1.7-1.4-3.9-1.9-6.1-1.6c-0.6,0.1-0.8,0.3-0.7,0.9c0.3,3.8,0.4,7.6,1,11.3c0.8,5,1.9,10,2.9,15c0,0.2,0.1,0.4,0.2,0.6
		c3.8-0.2,7.6-0.5,11.3-0.5c3.7,0,7.4,0.3,11.3,0.5c1.4-4.6,2.4-9.3,2.8-14.1c-2.3-0.8-4.9-0.3-6.7,1.3c-1.1,1.1-2,2.2-2.9,3.4
		c-0.3,0.3-0.6,0.7-0.9,0.7c-0.4-0.1-0.7-0.4-0.9-0.8c-1.5-3.6,0.3-7.7,3.9-9.2c0.1,0,0.1-0.1,0.2-0.1c0.2-0.1,0.5-0.2,0.9-0.3
		c-2.3-0.4-4.7-0.2-6.9,0.7c-0.5,0.2-0.9,0.4-1.4,0.6c-0.3,0.1-0.8,0.2-1,0c-0.2-0.3-0.3-0.7-0.3-1.1c1.2-4.8,6-7.8,10.9-6.6
		c0.4,0.1,0.7,0.2,1,0.3c0.3,0.1,0.5,0.2,0.8,0.1c-0.5-0.3-0.9-0.7-1.4-1c-1.8-1-3.8-1.5-5.8-1.6c-0.4,0-0.9-0.3-1-0.5
		c-0.1-0.4,0.1-0.8,0.4-1.1c3.1-3.4,8.3-3.6,11.6-0.5c0.9,0.8,1.6,1.8,2,2.9c0.1,0.3,0.3,0.7,0.5,1.2c0.3-0.4,0.5-0.7,0.7-0.9
		c3.2-3.2,8.4-3.1,11.6,0.1c0.8,0.8,1.5,1.9,1.9,3c0.1,0.4,0.1,0.9-0.1,1.3c-0.2,0.2-0.8,0.2-1.2,0.1c-2.3-0.9-4.8-1.1-7.2-0.5
		c-0.1,0-0.2,0.1-0.3,0.1c-0.1,0-0.1,0.1,0,0c1.2,0.2,2.5,0.4,3.7,0.8c4,1.5,6.4,5.6,5.7,9.8c-0.1,0.4-0.3,0.8-0.7,1
		c-0.3,0.1-0.8-0.2-1.1-0.5c-1.6-1.9-3.7-3.2-6.1-4.1c-0.2-0.1-0.4-0.1-0.7-0.1c1.5,1.2,2.5,2.9,2.8,4.8c0.3,2.2-0.4,4.4-2,5.9
		c-0.3,0.3-0.8,0.5-1,0.4c-0.3-0.2-0.6-0.6-0.6-1c-0.2-2.1-0.9-4-2.2-5.6c-1.1-1.3-2.6-2.2-4.3-2.4c-0.9,4.7-1.9,9.4-2.8,14.1
		c1.1,0.2,2.3,0.4,3.6,0.7c4.9,1,9.6,2.5,14.2,4.6l0.5,0.2c0.6,0.3,1,0.6,0.7,1.3c-0.3,0.7-0.8,0.5-1.4,0.2
		c-1.4-0.6-2.8-1.3-4.3-1.8c-4.3-1.6-8.7-2.7-13.1-3.4c-0.3,0-0.5-0.1-0.8-0.1c-1,2.6-1.9,5.2-3.1,7.6c-1.6,3.4-3.4,6.7-5.1,10
		c-0.3,0.5-0.7,1-1.3,0.6S84.7,95.5,85,95c3.1-5.1,5.6-10.6,7.5-16.2L92.9,77.9z M81.9,43.3c-1.3-3.4-4.8-5.5-8.4-5
		C70,38.9,67,42,67,45.1c2-1.8,4.5-2.9,7.1-3.2C76.8,41.8,79.5,42.3,81.9,43.3z M49.7,47.8c2-1.7,4.4-2.8,7-3.4
		c2.6-0.5,5.3-0.1,7.7,1.1c-0.7-2.9-4.7-5.1-8.2-4.6C52.8,41.3,49.7,44.6,49.7,47.8z M112.6,62.3c-0.1-3.5-2.8-6.5-6.2-7
		c-3-0.5-6.6,1.3-7.5,3.9C104.1,57.2,108.5,58.8,112.6,62.3L112.6,62.3z M96.5,58.8c-0.3-3.4-2.8-6.1-6.1-6.7
		c-3.2-0.5-6.4,1.1-7.7,4.1C87.7,54.6,92.4,54.8,96.5,58.8L96.5,58.8z M51.5,36.8c5-0.7,9.3,0.1,12.6,4.3c0.2-3.1-1.7-5.9-4.6-6.9
		C56.6,33.1,53.3,34.2,51.5,36.8L51.5,36.8z M77.1,33.2c-2.5-2.1-6.1-2.1-8.7-0.1c-2.4,1.8-3.4,5.2-2.3,7.7
		C68.1,35.9,72.1,33.8,77.1,33.2L77.1,33.2z M111.3,51.7c-1.6-2.5-4.7-3.6-7.5-2.7c-2.6,0.9-4.7,3.6-4.4,5.9
		C103.8,51.4,104.4,51.2,111.3,51.7L111.3,51.7z M97.4,54.6c1.1-2.8,0.2-6-2.3-7.7c-2.5-1.8-6-1.3-7.3,0.1
		C92.3,47.8,95.8,50,97.4,54.6L97.4,54.6z M77.7,51.9c0.5-2.5-0.7-5-2.9-6.1c-2.1-1.1-4.9-0.8-6.3,0.8
		C72.6,46.5,75.5,48.6,77.7,51.9L77.7,51.9z M63.7,47.2c-2-1.2-4.9-0.5-6.5,1.2s-2.1,4.6-0.9,6.4C57.5,51.1,59.6,48.3,63.7,47.2
		L63.7,47.2z M95,60c-1.7-1.6-4.3-1.9-6.3-0.7c-1.8,1.1-3,3.5-2.4,5C88.4,61.5,91.2,59.8,95,60L95,60z M106.2,68.6
		c1.1-2,0.9-4.5-0.7-6.2c-1.4-1.6-3.7-2.2-5.8-1.4C103.4,62.3,105.3,65,106.2,68.6L106.2,68.6z"/>
</g>
</svg>
