<?xml version="1.0" encoding="utf-8"?>
<!-- Generator: Adobe Illustrator 25.2.0, SVG Export Plug-In . SVG Version: 6.00 Build 0)  -->
<svg version="1.1" id="Layer_1" xmlns="http://www.w3.org/2000/svg" xmlns:xlink="http://www.w3.org/1999/xlink" x="0px" y="0px"
	 viewBox="0 0 162.4 162.4" style="enable-background:new 0 0 162.4 162.4;" xml:space="preserve">
<g>
	<path d="M47.8,91.6c0-0.3,0.1-0.6,0.2-0.8c0.1-0.2,0.4-0.3,0.6-0.3h6.1c0.2,0,0.5,0.1,0.6,0.3c0.2,0.2,0.2,0.4,0.2,0.7
		c0,0.2-0.1,0.5-0.2,0.7c-0.2,0.2-0.4,0.3-0.7,0.3h-4.9v5.4h4.5c0.2,0,0.5,0.1,0.7,0.3c0.2,0.2,0.2,0.4,0.2,0.7
		c0,0.2-0.1,0.5-0.2,0.7c-0.2,0.2-0.4,0.3-0.7,0.3h-4.5v5.3h5c0.2,0,0.5,0.1,0.6,0.3c0.2,0.2,0.2,0.4,0.2,0.7c0,0.2-0.1,0.5-0.2,0.6
		c-0.2,0.2-0.5,0.3-0.7,0.3h-5.8c-0.4,0-0.7-0.1-0.8-0.4c-0.1-0.2-0.2-0.5-0.2-0.7L47.8,91.6z"/>
	<path d="M66,96.1v-0.7c0-0.3,0.1-0.5,0.3-0.7c0.2-0.2,0.4-0.3,0.7-0.3c0.2,0,0.5,0.1,0.7,0.3c0.2,0.2,0.3,0.5,0.3,0.8v10.4
		c0,0.3-0.1,0.6-0.3,0.8c-0.2,0.2-0.4,0.3-0.7,0.2c-0.2,0-0.5-0.1-0.7-0.2c-0.2-0.2-0.3-0.4-0.3-0.7V105l0,0
		c-0.7,1.1-1.9,1.8-3.2,1.8c-1,0-1.9-0.3-2.8-0.8c-0.8-0.5-1.5-1.3-2-2.2c-1-2.1-0.9-4.6,0.1-6.7c0.5-0.9,1.2-1.6,2-2.1
		c0.7-0.4,1.6-0.7,2.4-0.7c0.6,0,1.3,0.1,1.9,0.4C65.1,95.2,65.6,95.6,66,96.1L66,96.1z M59.4,100.6c0,0.7,0.1,1.5,0.4,2.2
		c0.2,0.6,0.6,1.2,1.1,1.6c0.5,0.4,1.1,0.6,1.8,0.6c1,0.1,2-0.4,2.6-1.3c0.5-1,0.8-2.1,0.8-3.2c0-0.8-0.1-1.6-0.4-2.4
		c-0.2-0.6-0.6-1.2-1.2-1.5c-0.5-0.4-1.1-0.6-1.7-0.5l0,0c-1,0-1.9,0.5-2.4,1.3C59.7,98.4,59.4,99.5,59.4,100.6z"/>
	<path d="M70.3,105.5c-0.3-0.2-0.5-0.6-0.5-1c0-0.2,0.1-0.5,0.2-0.6c0.2-0.2,0.4-0.2,0.6-0.2c0.2,0,0.4,0.1,0.6,0.2l0.7,0.5
		c0.2,0.1,0.4,0.3,0.6,0.4c0.5,0.3,1.1,0.4,1.7,0.5c0.6,0,1.2-0.1,1.7-0.4c0.5-0.2,0.8-0.8,0.8-1.3c0-0.6-0.4-1.1-0.9-1.4
		c-0.6-0.3-1.2-0.6-1.8-0.8c-0.8-0.3-1.4-0.6-1.9-0.8c-0.5-0.2-0.9-0.6-1.2-1c-0.4-0.5-0.6-1-0.5-1.6c0-0.6,0.2-1.2,0.5-1.7
		c0.4-0.5,0.8-0.9,1.4-1.2c0.7-0.3,1.4-0.5,2.1-0.5c0.7,0,1.5,0.1,2.2,0.4c0.6,0.2,1.1,0.5,1.5,0.8c0.3,0.2,0.5,0.6,0.5,0.9
		c0,0.2-0.1,0.4-0.2,0.6c-0.2,0.2-0.4,0.3-0.6,0.3c-0.4-0.1-0.8-0.3-1.1-0.5c-0.4-0.2-0.7-0.4-1.1-0.6c-0.8-0.3-1.7-0.2-2.5,0.3
		c-0.4,0.3-0.6,0.7-0.6,1.1c0.1,0.4,0.3,0.7,0.5,0.9c0.3,0.3,0.6,0.5,1,0.6c0.4,0.2,0.9,0.4,1.3,0.5l1.1,0.4
		c0.7,0.3,1.4,0.7,1.9,1.3c0.4,0.5,0.6,1.2,0.6,1.8c0,0.6-0.2,1.2-0.5,1.7c-0.4,0.6-0.9,1-1.5,1.3c-0.8,0.4-1.6,0.5-2.5,0.5
		C72.8,106.9,71.4,106.4,70.3,105.5z"/>
	<path d="M81.3,96.3h-0.9c-0.3,0-0.5-0.1-0.7-0.2c-0.2-0.2-0.3-0.4-0.3-0.6c0-0.5,0.4-0.9,0.9-0.9c0,0,0.1,0,0.1,0h0.9v-2.7
		c0-0.3,0.1-0.5,0.3-0.7c0.2-0.2,0.4-0.2,0.7-0.2c0.3,0,0.5,0.1,0.7,0.2c0.2,0.2,0.3,0.5,0.3,0.7v2.6h0.9c0.3,0,0.5,0.1,0.7,0.3
		c0.2,0.2,0.2,0.4,0.2,0.6c0,0.2-0.1,0.4-0.2,0.6c-0.2,0.2-0.4,0.2-0.6,0.2h-1v9.7c0,0.3-0.1,0.5-0.3,0.7c-0.2,0.2-0.5,0.3-0.8,0.3
		c-0.2,0-0.5-0.1-0.7-0.3c-0.2-0.2-0.3-0.5-0.3-0.8L81.3,96.3z"/>
	<path d="M85.4,100.5c0-1,0.3-2,0.7-3c0.4-0.9,1-1.7,1.8-2.3c0.8-0.6,1.8-0.9,2.8-0.9c1,0,2,0.3,2.8,0.8c0.8,0.6,1.5,1.4,1.9,2.3
		c0.4,0.9,0.7,1.9,0.7,2.9c0,0.7-0.4,1-1.1,1h-7.6c0,0.7,0.2,1.4,0.5,2c0.3,0.6,0.7,1,1.3,1.3c0.6,0.3,1.2,0.4,1.8,0.4
		c1.2,0,2.4-0.5,3.3-1.3c0.2-0.2,0.5-0.3,0.8-0.4c0.2,0,0.4,0.1,0.5,0.2c0.1,0.2,0.2,0.4,0.2,0.6c0,0.3-0.1,0.5-0.3,0.7
		c-0.5,0.6-1.2,1-1.9,1.3c-0.8,0.3-1.7,0.5-2.6,0.5c-0.9,0-1.8-0.2-2.6-0.6c-0.7-0.3-1.3-0.8-1.8-1.5c-0.4-0.6-0.8-1.3-1-2
		c-0.2-0.7-0.3-1.4-0.3-2.2L85.4,100.5L85.4,100.5z M87.4,99.9h6.7c0-1-0.3-1.9-0.9-2.7c-0.6-0.7-1.5-1.1-2.4-1.1
		c-0.9,0-1.8,0.3-2.4,1C87.7,97.9,87.4,98.9,87.4,99.9L87.4,99.9z"/>
	<path d="M98,95.5c0-0.3,0.1-0.5,0.3-0.7c0.2-0.2,0.4-0.3,0.7-0.3c0.3,0,0.5,0.1,0.7,0.3c0.2,0.2,0.3,0.5,0.3,0.7v1l0,0
		c0.3-0.5,0.7-1,1.2-1.4c0.4-0.4,1-0.6,1.5-0.7c0.3,0,0.6,0.1,0.8,0.3c0.2,0.2,0.3,0.4,0.3,0.7c0,0.3-0.1,0.6-0.3,0.8
		c-0.3,0.2-0.7,0.3-1.1,0.4c-0.3,0.1-0.6,0.2-0.9,0.3c-0.5,0.3-0.9,0.7-1.2,1.2c-0.3,0.6-0.4,1.2-0.4,1.8v5.9c0,0.3-0.1,0.6-0.3,0.8
		c-0.2,0.2-0.4,0.3-0.7,0.3c-0.3,0-0.5-0.1-0.7-0.3c-0.2-0.2-0.3-0.5-0.3-0.8L98,95.5z"/>
	<path d="M105.2,95.5c0-0.3,0.1-0.6,0.3-0.8c0.2-0.2,0.4-0.3,0.7-0.3c0.3,0,0.5,0.1,0.7,0.3c0.2,0.2,0.3,0.5,0.3,0.8V96l0,0
		c0.4-0.5,0.9-0.9,1.5-1.2c0.6-0.3,1.2-0.4,1.8-0.4c0.7,0,1.4,0.2,2.1,0.5c0.7,0.4,1.2,0.9,1.6,1.6c0.4,0.8,0.6,1.7,0.6,2.6v6.8
		c0,0.3-0.1,0.6-0.3,0.7c-0.2,0.2-0.4,0.2-0.7,0.2c-0.3,0-0.5-0.1-0.7-0.3c-0.2-0.2-0.3-0.4-0.3-0.7v-6.7c0-0.8-0.3-1.6-0.8-2.1
		c-0.5-0.5-1.2-0.8-2-0.8c-0.5,0-1,0.1-1.4,0.3c-0.4,0.2-0.8,0.6-1,1c-0.3,0.5-0.4,1-0.4,1.6v6.7c0,0.3-0.1,0.6-0.3,0.8
		c-0.4,0.4-1,0.4-1.4,0c-0.2-0.2-0.3-0.5-0.3-0.8L105.2,95.5z"/>
	<path d="M37.1,113.7c0-0.3,0.1-0.6,0.2-0.8c0.1-0.2,0.4-0.3,0.6-0.3H44c0.2,0,0.5,0.1,0.6,0.3c0.2,0.2,0.2,0.4,0.2,0.7
		c0,0.2-0.1,0.5-0.2,0.7c-0.2,0.2-0.4,0.3-0.7,0.3h-4.9v5.4h4.5c0.3,0,0.5,0.1,0.7,0.3c0.2,0.2,0.2,0.4,0.2,0.7
		c0,0.2-0.1,0.5-0.2,0.7c-0.2,0.2-0.4,0.3-0.7,0.3h-4.5v5.3h5c0.2,0,0.5,0.1,0.6,0.3c0.2,0.2,0.2,0.4,0.2,0.7c0,0.2-0.1,0.5-0.2,0.6
		c-0.2,0.2-0.5,0.3-0.7,0.3h-5.8c-0.4,0-0.7-0.1-0.8-0.4c-0.1-0.2-0.2-0.5-0.2-0.7L37.1,113.7z"/>
	<path d="M47.2,117.6c0-0.3,0.1-0.6,0.3-0.8c0.2-0.2,0.4-0.3,0.7-0.3c0.3,0,0.5,0.1,0.7,0.3c0.2,0.2,0.3,0.5,0.3,0.8v6.5
		c0,0.8,0.2,1.6,0.7,2.2c0.5,0.6,1.3,0.9,2.1,0.8c1.9,0,2.8-1,2.8-3v-6.5c0-0.3,0.1-0.6,0.3-0.8c0.2-0.2,0.4-0.3,0.7-0.3
		c0.3,0,0.5,0.1,0.7,0.3c0.2,0.2,0.3,0.5,0.3,0.8v6.7c0,0.8-0.2,1.6-0.5,2.3c-0.4,0.7-0.9,1.3-1.6,1.7c-0.8,0.5-1.8,0.7-2.8,0.7
		c-0.9,0-1.8-0.2-2.6-0.6c-0.7-0.4-1.2-1-1.6-1.7c-0.3-0.7-0.5-1.5-0.5-2.4L47.2,117.6z"/>
	<path d="M59.4,117.6c0-0.6,0.4-1,1-1c0,0,0,0,0,0c0.3,0,0.5,0.1,0.7,0.3c0.2,0.2,0.3,0.5,0.3,0.7v1l0,0c0.3-0.5,0.7-1,1.2-1.4
		c0.4-0.4,1-0.6,1.5-0.7c0.3,0,0.6,0.1,0.8,0.3c0.2,0.2,0.3,0.4,0.3,0.7c0,0.3-0.1,0.6-0.3,0.8c-0.3,0.2-0.7,0.3-1.1,0.4
		c-0.3,0.1-0.6,0.2-0.9,0.3c-0.5,0.3-0.9,0.7-1.2,1.2c-0.3,0.6-0.4,1.2-0.4,1.8v5.9c0,0.3-0.1,0.6-0.3,0.8c-0.2,0.2-0.4,0.3-0.7,0.3
		c-0.5,0-1-0.4-1-0.9c0,0,0-0.1,0-0.1L59.4,117.6z"/>
	<path d="M66,122.7c0-1.1,0.2-2.2,0.7-3.2c0.4-0.9,1.1-1.7,1.9-2.2c1.7-1.1,3.9-1.1,5.6,0.1c0.8,0.6,1.5,1.4,1.9,2.3
		c0.4,1,0.6,2,0.6,3.1c0,1.1-0.2,2.1-0.6,3.1c-0.4,0.9-1.1,1.7-1.9,2.3c-1.7,1.1-3.9,1.1-5.6,0c-0.8-0.6-1.5-1.4-1.9-2.3
		C66.2,124.8,66,123.8,66,122.7z M68,122.7c0,1.1,0.3,2.1,0.8,3.1c0.5,0.9,1.5,1.5,2.5,1.4c0.7,0,1.3-0.2,1.9-0.6
		c0.5-0.4,0.9-1,1.1-1.6c0.3-0.7,0.4-1.5,0.4-2.2c0-0.8-0.1-1.5-0.4-2.3c-0.2-0.6-0.6-1.2-1.1-1.6c-0.5-0.4-1.2-0.6-1.8-0.6
		c-0.7,0-1.3,0.2-1.8,0.6c-0.5,0.4-0.9,1-1.1,1.6C68.1,121.2,67.9,121.9,68,122.7z"/>
	<path d="M80.8,127.3v5.4c0,0.3-0.1,0.6-0.3,0.9c-0.2,0.2-0.4,0.3-0.7,0.3c-0.3,0-0.5-0.1-0.7-0.3c-0.2-0.2-0.3-0.5-0.3-0.8v-15.1
		c0-0.3,0.1-0.6,0.3-0.8c0.2-0.2,0.4-0.3,0.7-0.3c0.3,0,0.5,0.1,0.7,0.3c0.2,0.2,0.3,0.5,0.3,0.8v0.6l0,0c0.6-1.1,1.8-1.8,3-1.7
		c0.8,0,1.5,0.1,2.2,0.4c0.7,0.3,1.2,0.7,1.7,1.3c0.5,0.6,0.9,1.2,1.1,1.9c0.3,0.8,0.4,1.6,0.4,2.5c0,1.1-0.2,2.2-0.6,3.2
		c-0.4,0.9-1,1.7-1.8,2.3c-0.8,0.6-1.7,0.8-2.7,0.8C82.7,129,81.5,128.4,80.8,127.3L80.8,127.3z M87.3,122.7c0-0.7-0.1-1.5-0.3-2.2
		c-0.2-0.6-0.5-1.2-1-1.7c-0.5-0.4-1.1-0.7-1.8-0.7c-0.7,0-1.4,0.2-2,0.6c-0.5,0.4-0.9,1-1.1,1.7c-0.2,0.7-0.4,1.4-0.4,2.1
		c-0.1,1.2,0.2,2.3,0.9,3.3c0.5,0.8,1.4,1.3,2.4,1.3c0.1,0,0.1,0,0.2,0c0.6,0,1.2-0.3,1.7-0.7c0.5-0.4,0.9-1,1.1-1.6
		C87.1,124.3,87.2,123.5,87.3,122.7L87.3,122.7z"/>
	<path d="M90.6,122.6c0-1,0.3-2,0.7-3c0.4-0.9,1-1.7,1.8-2.3c0.8-0.6,1.8-0.9,2.8-0.9c1,0,2,0.3,2.8,0.8c0.8,0.6,1.5,1.4,1.9,2.3
		c0.4,0.9,0.7,1.9,0.7,2.9c0,0.7-0.4,1-1.1,1h-7.6c0,0.7,0.2,1.4,0.5,2c0.3,0.6,0.7,1,1.3,1.3c0.6,0.3,1.2,0.4,1.8,0.4
		c1.2,0,2.4-0.5,3.3-1.3c0.2-0.2,0.5-0.3,0.8-0.4c0.2,0,0.4,0.1,0.5,0.2c0.1,0.2,0.2,0.4,0.2,0.6c0,0.3-0.1,0.5-0.3,0.7
		c-0.5,0.6-1.2,1-1.9,1.3c-0.8,0.4-1.7,0.5-2.6,0.5c-0.9,0-1.8-0.2-2.6-0.6c-0.7-0.3-1.3-0.8-1.8-1.5c-0.4-0.6-0.8-1.3-1-2
		c-0.2-0.7-0.3-1.4-0.3-2.2L90.6,122.6L90.6,122.6z M92.6,122h6.7c0-1-0.3-1.9-0.9-2.7c-0.6-0.7-1.5-1.1-2.4-1.1
		c-0.9,0-1.8,0.3-2.4,1C93,120,92.6,121,92.6,122L92.6,122z"/>
	<path d="M111.4,118.2v-0.7c0-0.3,0.1-0.5,0.3-0.7c0.4-0.4,0.9-0.4,1.3,0c0.2,0.2,0.3,0.5,0.3,0.8v10.4c0,0.3-0.1,0.6-0.3,0.8
		c-0.2,0.2-0.4,0.3-0.6,0.2c-0.2,0-0.5-0.1-0.7-0.2c-0.2-0.2-0.3-0.4-0.3-0.7v-0.9l0,0c-0.7,1.1-1.9,1.8-3.2,1.8
		c-1,0-1.9-0.2-2.8-0.8c-0.8-0.5-1.5-1.3-2-2.2c-1-2.1-0.9-4.6,0.1-6.7c0.5-0.9,1.2-1.6,2-2.1c0.7-0.4,1.6-0.7,2.4-0.7
		c0.6,0,1.3,0.1,1.9,0.4C110.4,117.3,110.9,117.7,111.4,118.2L111.4,118.2z M104.7,122.7c0,0.7,0.1,1.5,0.4,2.2
		c0.2,0.6,0.6,1.2,1.1,1.6c0.5,0.4,1.1,0.7,1.8,0.6c1,0.1,2-0.4,2.6-1.3c0.5-1,0.8-2.1,0.8-3.2c0-0.8-0.1-1.6-0.4-2.4
		c-0.2-0.6-0.6-1.2-1.2-1.5c-0.5-0.4-1.1-0.6-1.7-0.5l0,0c-1,0-1.9,0.5-2.4,1.3C105,120.5,104.7,121.6,104.7,122.7L104.7,122.7z"/>
	<path d="M115.9,117.6c0-0.3,0.1-0.6,0.3-0.8c0.4-0.4,1-0.4,1.4,0c0.2,0.2,0.3,0.5,0.3,0.8v0.5l0,0c0.4-0.5,0.9-0.9,1.5-1.2
		c0.6-0.3,1.2-0.4,1.8-0.4c0.7,0,1.4,0.2,2.1,0.5c0.7,0.4,1.2,0.9,1.6,1.6c0.4,0.8,0.6,1.7,0.6,2.6v6.8c0,0.3-0.1,0.5-0.3,0.7
		c-0.2,0.2-0.4,0.2-0.7,0.2c-0.3,0-0.5-0.1-0.7-0.3c-0.2-0.2-0.3-0.4-0.3-0.7v-6.7c0-0.8-0.3-1.6-0.8-2.1c-0.5-0.5-1.2-0.8-2-0.8
		c-0.5,0-1,0.1-1.4,0.3c-0.4,0.2-0.8,0.6-1,1c-0.3,0.5-0.4,1-0.4,1.6v6.7c0,0.3-0.1,0.6-0.3,0.8c-0.2,0.2-0.4,0.3-0.7,0.3
		c-0.3,0-0.5-0.1-0.7-0.3c-0.2-0.2-0.3-0.5-0.3-0.8L115.9,117.6z"/>
</g>
<path d="M50.7,77c-1-2.2-2.9-3.5-4.9-4.8c-1.2-0.7-2.2-1.8-2.6-3.2c-0.1-0.3-0.3-0.7-0.5-1c-0.8-1.3-1.1-2.9-1-4.4
	c0-0.4,0-0.7,0-1.1h-2.5c-0.1-1-0.2-1.9-0.2-2.8c0.1-0.3,0.2-0.6,0.5-0.8c1.1-1.1,2.3-2.1,3.4-3.2c-1-1.5-1.7-2.9-3.4-3.4
	c-0.9-0.4-1.8-0.8-2.7-1.2C36,50.8,35.6,49.8,36,49c0.1-0.2,0.2-0.4,0.4-0.5c1.3-1.2,2.7-2.4,4-3.5c1.3-1,2.3-2.2,3-3.6
	c0.2-0.4,0.6-0.6,1-0.6c2,0,3.9,0.1,5.9,0.3c0.4,0.1,0.8,0.2,1.1,0.3c0.2,0,0.3,0.1,0.5,0.2c2.9,2,6.4,2.6,9.8,1.8
	c1.4-0.4,2.9,0,4,0.9c2,1.5,3.8,1.4,5.6-0.3c0.1-0.1,0.2-0.2,0.3-0.2c2.5-1.1,4.3-3,4.7-5.8c0-0.2,0.1-0.4,0.2-0.5
	c1.5-1,2.8-2.5,4.8-2.5c2.7-0.1,5.5,0.1,8.3,0c1-0.1,2,0.2,2.8,0.8c0.7,0.5,1.4,1,2.2,1.5c1-1.1,2-2.2,3.1-3.2
	c0.4-0.4,0.8-0.6,1.3-0.8c1.7-0.5,3.4-1,5.1-1.4c0.6-0.1,1.2,0,1.7,0.2c0.4,0.2,0.8,0.4,1.1,0.6c1.3,0.7,1.5,0.7,3,0.1l-1.3-3.1
	c2.5-2.3,5.8-2.9,9-3.7c0.7,1.4,1.5,2.6,1.3,4.2c0,0.5,0.1,0.9,0.4,1.3c1.7,2.7,3.4,5.3,5.1,8c0.2,0.3,0.5,0.5,0.8,0.5
	c0.4,0.1,0.9,0.1,1.3,0.2v2.2c-1.4-0.2-2.7-0.3-3.9-0.6c-1.3-0.3-2.5-0.9-3.8-1.2c-0.4-0.1-0.8,0-1.1,0.1c-1.2,0.7-1.2,0.7-0.7,2.1
	c0.4,1.1,0.8,2.2,1.1,3.2c-0.8,0.9-2.1,1.1-3.1,0.5c-1.1-0.5-2.2-0.9-3.3-1.3c-0.7,2.4-2.7,4.3-5.2,4.7c-1.3,0.1-2.4,0.9-2.9,2
	c-0.4,1.2-1.7,1.8-2.9,1.5c-0.8-0.2-1.3,0.2-1.6,1c-0.9,2.1-0.9,2.1,0.8,3.7c1.1,1.1,1.7,2.7,1.7,4.2c0,1.8-0.1,3.5-0.3,5.3
	c0,1.1-0.9,1.9-1.9,1.9c-0.2,0-0.4,0-0.6-0.1c-1.8-0.7-3.9-0.5-5.5,0.7c-1.4,0.9-2.8,1.7-4.2,2.4c1.6,0.8,2.6,1.9,2.7,3.8
	c-2.2-0.1-2,1.6-1.9,3c0,0.4,0.2,0.8,0.4,1.1c0.7,0.9,1.5,1.7,2.3,2.6c-1.2,0.6-2.3,1.2-3.4,1.7c-0.3,0.1-0.6,0.1-0.8,0
	c-2.7-0.3-5.2-1.4-7.8-2.4l-1-0.4c-0.4,1.7-1.7,1.5-3,1.5c-0.7,0-1.2,0-1.7-0.7c-0.3-0.5-1.1-0.7-1.7-0.8c-0.9-0.3-1.4-0.8-1.2-1.7
	c0.5-2.2-0.7-3.9-2.2-5.5c-0.4,1.2-0.7,2.4-1.1,3.6c-0.2,0.5-0.4,1-0.8,1.4c-1.1,1.2-2.2,2.3-3.3,3.5c-0.3,0.4-0.9,0.6-1.4,0.4
	c-2.7-0.5-5.5-1-8.2-1.4c-0.5,0-1.1,0.1-1.5,0.4c-1.1,0.8-2,1.7-3.1,2.5c-0.3,0.2-0.7,0.3-1.1,0.2c-2.4-0.6-4.8-1.2-7.2-1.8
	c-0.4-0.1-0.7-0.4-0.8-0.7c-0.3-0.6,0.1-0.8,0.6-1.1C44.9,79.9,47.7,78.4,50.7,77z M90.1,74.8c-0.7-0.5-1.2-0.8-1.8-1.3
	c-1.2-0.9-1.2-2.1,0.1-2.8c1.3-0.7,2.5-1.3,3.7-2.1c2-1.3,4.1-2.2,6.6-1.1c0.7,0.3,0.9-0.2,1-0.8c0.1-1.5,0.2-3,0.2-4.5
	c0-0.4-0.1-0.8-0.2-1.2c-0.3-1.4-1.2-2.6-2.3-3.4c-1-0.9-1.1-1.3-0.5-2.5c0.3-0.8,0.7-1.6,1.1-2.4c0.2-0.8,1-1.3,1.9-1.2
	c1.3,0.3,2.6-0.4,3-1.6c0.4-0.9,1.3-1.6,2.3-1.6c1.8-0.1,3.1-1.2,4.2-2.4c0.2-0.3,0.4-0.6,0.4-0.9c0.3-1.6,1.1-2.1,2.6-1.5
	c1.2,0.5,2.4,0.9,3.7,1.5c-0.3-1-0.6-1.7-0.8-2.5c-0.2-0.8-0.7-1.7,0.1-2.4c1.1-0.8,2-2.1,3.7-1.4c1.2,0.5,2.4,0.8,3.8,1.2
	c-0.2-0.4-0.3-0.6-0.4-0.9c-1.5-2.3-2.9-4.5-4.4-6.7c-0.6-0.8-0.9-1.8-0.9-2.8c-0.1-0.7-0.2-1.3-0.4-1.9c-3.4,0.7-4.7,1.2-6.4,2.5
	c0.3,0.7,0.6,1.4,0.8,2.1c0.1,0.6-0.1,1.2-0.4,1.7c-0.5,0.7-3.1,1-3.8,0.5c-1.5-1.2-3.5-1.4-5.2-0.5c-0.3,0.1-0.7,0.2-1,0.3
	c-1.2,0.2-2.3,0.8-3,1.8c-0.6,0.7-1.2,1.4-1.9,2c-0.9,0.9-1.4,1-2.4,0.3c-0.8-0.5-1.5-1-2.2-1.5c-0.4-0.2-0.8-0.4-1.3-0.4
	c-2.8-0.1-5.6-0.1-8.4-0.1c-0.4,0-0.7,0.1-1,0.2c-1.9,0.8-3.3,2.1-3.6,4.3c0,0.2-0.1,0.4-0.2,0.6C76.5,42,76,42.5,75.5,43
	c-1.7,1.2-3.6,2.2-5.4,3.4c-0.8,0.7-2,0.7-2.9,0.1c-2.1-1.6-4.8-2.1-7.3-1.6C59.7,45,59.4,45,59.1,45c-1.8,0.4-3.7,0.1-5.2-0.9
	c-0.9-0.5-1.7-0.9-2.7-1.3c-0.4-0.2-0.7-0.3-1.1-0.3c-1.6-0.1-3.1-0.1-4.7-0.3c-0.5-0.1-1,0.2-1.2,0.7c-0.5,0.8-1.2,1.6-1.9,2.3
	c-1.4,1.3-2.8,2.5-4.2,3.8c-0.3,0.2-0.6,0.4-0.9,0.5c0.6,0.5,1.4,0.9,2.2,1.2c1.9,0.6,3.4,1.9,4.4,3.7c0.7,1.2,0.7,1.7-0.3,2.7
	c-0.9,0.8-1.7,1.7-2.5,2.6c-0.2,0.3-0.3,0.7-0.4,1.1c0.3,0.1,0.6,0.2,1,0.3c1.2,0.1,1.8,0.6,1.7,1.6c-0.3,2.4,0.6,4.4,1.7,6.4
	c0.3,0.6,0.7,1.1,1.2,1.5c2.2,1.6,4.5,3,5.9,5.5c0.7,1.2,0.4,2.1-0.8,2.6c-2.1,0.9-4.2,1.9-6.2,2.8c-0.2,0.1-0.4,0.3-0.6,0.4
	c1.7,0.5,3.3,1,5,1.4c0.3,0,0.7-0.1,1-0.3c0.8-0.7,1.8-1.4,2.6-2.2c0.6-0.6,1.5-0.8,2.3-0.6c2.6,0.5,5.3,0.9,7.9,1.3
	c0.4,0,0.7-0.1,1-0.3c2.1-1.9,3.8-4,4.2-7c0-0.1,0-0.3,0.1-0.4c0.4-0.4,0.8-1,1.2-1.1c0.6,0,1.1,0.2,1.5,0.6
	c0.7,0.8,1.3,1.6,1.8,2.5c0.4,0.6,0.6,1.3,0.6,2c-0.2,1.6,0.3,2.6,1.9,2.9c0.3,0.1,0.5,0.3,0.7,0.5c0.6,0.4,1.4,0.3,2-0.2
	c1-1.2,1.2-1.3,2.7-0.7c2.4,0.8,4.6,2,7.2,2.3c0.8,0.1,1.5-0.1,2.1-0.6c-1-1.1-2.1-2-1.8-3.7C88.5,77.2,87.8,75.4,90.1,74.8
	L90.1,74.8z"/>
</svg>
