<?xml version="1.0" encoding="utf-8"?>
<!-- Generator: Adobe Illustrator 25.2.0, SVG Export Plug-In . SVG Version: 6.00 Build 0)  -->
<svg version="1.1" id="Layer_1" xmlns="http://www.w3.org/2000/svg" xmlns:xlink="http://www.w3.org/1999/xlink" x="0px" y="0px"
	 viewBox="0 0 162.4 162.4" style="enable-background:new 0 0 162.4 162.4;" xml:space="preserve">
<style type="text/css">
	.st0{fill:#FEFEFE;}
	.st1{fill:#1B1AC4;}
	.st2{fill:#F3D81F;}
</style>
<g>
	<path d="M37.1,113.7c0-0.3,0.1-0.6,0.2-0.8c0.1-0.2,0.4-0.3,0.6-0.3h6.1c0.2,0,0.5,0.1,0.6,0.3c0.1,0.2,0.2,0.4,0.2,0.7
		c0,0.2-0.1,0.5-0.2,0.6c-0.2,0.2-0.4,0.3-0.7,0.3h-4.9v5.3h4.5c0.2,0,0.5,0.1,0.7,0.3c0.2,0.2,0.2,0.4,0.2,0.7
		c0,0.2-0.1,0.5-0.2,0.7c-0.2,0.2-0.4,0.3-0.7,0.3h-4.5v5.3h5c0.2,0,0.5,0.1,0.6,0.3c0.2,0.2,0.2,0.4,0.2,0.7c0,0.2-0.1,0.5-0.2,0.6
		c-0.2,0.2-0.5,0.3-0.7,0.3h-5.8c-0.4,0-0.7-0.1-0.8-0.4c-0.1-0.2-0.2-0.5-0.2-0.7L37.1,113.7z"/>
	<path d="M47.2,117.6c0-0.5,0.4-1,1-1c0.3,0,0.5,0.1,0.7,0.3c0.2,0.2,0.3,0.5,0.3,0.7v6.6c0,0.8,0.2,1.6,0.7,2.2
		c0.5,0.6,1.3,0.9,2.1,0.8c1.9,0,2.8-1,2.8-3v-6.6c0-0.3,0.1-0.6,0.3-0.7c0.2-0.2,0.4-0.3,0.7-0.3c0.3,0,0.5,0.1,0.7,0.3
		c0.2,0.2,0.3,0.5,0.3,0.7v6.7c0,0.8-0.2,1.6-0.5,2.3c-0.3,0.7-0.9,1.3-1.6,1.7c-0.9,0.5-1.8,0.7-2.8,0.7c-0.9,0-1.8-0.2-2.6-0.6
		c-0.7-0.4-1.2-1-1.6-1.7c-0.3-0.7-0.5-1.5-0.5-2.4L47.2,117.6z"/>
	<path d="M59.4,117.6c0-0.3,0.1-0.6,0.3-0.8c0.2-0.2,0.4-0.3,0.7-0.3c0.3,0,0.5,0.1,0.7,0.3c0.2,0.2,0.3,0.5,0.3,0.8v1l0,0
		c0.3-0.5,0.7-1,1.2-1.4c0.4-0.4,1-0.6,1.5-0.7c0.3,0,0.6,0.1,0.8,0.3c0.2,0.2,0.3,0.4,0.4,0.7c0,0.3-0.1,0.6-0.4,0.8
		c-0.3,0.2-0.7,0.3-1,0.4c-0.3,0.1-0.6,0.2-0.9,0.3c-0.5,0.3-0.9,0.7-1.2,1.2c-0.3,0.6-0.4,1.2-0.4,1.8v5.9c0,0.3-0.1,0.5-0.3,0.8
		c-0.2,0.2-0.4,0.3-0.7,0.3c-0.3,0-0.5-0.1-0.7-0.3c-0.2-0.2-0.3-0.5-0.3-0.8L59.4,117.6z"/>
	<path d="M66,122.8c0-1.1,0.2-2.2,0.7-3.2c0.4-0.9,1.1-1.7,1.9-2.2c0.8-0.5,1.8-0.8,2.8-0.8c1,0,2,0.3,2.8,0.9
		c0.8,0.6,1.5,1.4,1.9,2.3c0.4,1,0.7,2,0.6,3.1c0,1.1-0.2,2.1-0.6,3.1c-0.4,0.9-1,1.7-1.9,2.3c-1.7,1.1-3.9,1.1-5.7,0
		c-0.8-0.6-1.5-1.4-1.9-2.3C66.2,124.9,65.9,123.8,66,122.8z M68,122.8c0,1.1,0.3,2.1,0.8,3.1c0.5,0.9,1.5,1.5,2.5,1.4
		c0.7,0,1.3-0.2,1.9-0.6c0.5-0.4,0.9-1,1.1-1.6c0.3-0.7,0.4-1.5,0.4-2.3c0-0.8-0.1-1.5-0.4-2.2c-0.2-0.6-0.6-1.2-1.1-1.6
		c-0.5-0.4-1.2-0.6-1.8-0.6c-0.7,0-1.3,0.2-1.8,0.6c-0.5,0.4-0.9,1-1.1,1.6C68.1,121.2,68,122,68,122.8L68,122.8z"/>
	<path d="M80.8,127.3v5.4c0,0.3-0.1,0.6-0.3,0.9c-0.3,0.4-0.9,0.5-1.3,0.1c-0.1,0-0.1-0.1-0.1-0.1c-0.2-0.2-0.3-0.5-0.3-0.8v-15.1
		c0-0.3,0.1-0.6,0.3-0.8c0.2-0.2,0.4-0.3,0.7-0.3c0.3,0,0.5,0.1,0.7,0.3c0.2,0.2,0.3,0.5,0.3,0.7v0.6l0,0c0.6-1.1,1.8-1.8,3-1.6
		c0.7,0,1.5,0.1,2.2,0.4c0.7,0.3,1.2,0.7,1.7,1.3c0.5,0.6,0.9,1.2,1.1,1.9c0.3,0.8,0.4,1.6,0.4,2.5c0,1.1-0.2,2.2-0.6,3.2
		c-0.4,0.9-1,1.7-1.8,2.3c-0.8,0.6-1.7,0.8-2.7,0.8C82.7,129,81.5,128.4,80.8,127.3L80.8,127.3z M87.3,122.8c0-0.7-0.1-1.5-0.4-2.1
		c-0.2-0.6-0.6-1.2-1-1.7c-0.5-0.4-1.1-0.7-1.8-0.7c-0.7,0-1.5,0.2-2,0.6c-0.5,0.4-0.9,1-1.1,1.7c-0.2,0.7-0.4,1.4-0.4,2.1
		c-0.1,1.2,0.3,2.3,0.9,3.3c0.5,0.8,1.4,1.3,2.4,1.3h0.2c0.6,0,1.2-0.3,1.7-0.7c0.5-0.4,0.9-1,1.1-1.6
		C87.1,124.3,87.3,123.5,87.3,122.8L87.3,122.8z"/>
	<path d="M90.6,122.6c0-1,0.3-2,0.7-3c0.4-0.9,1-1.7,1.8-2.3c0.8-0.6,1.8-0.9,2.8-0.9c1,0,2,0.3,2.8,0.8c0.8,0.6,1.5,1.4,1.9,2.3
		c0.4,0.9,0.7,1.9,0.7,2.9c0,0.7-0.4,1-1.1,1h-7.6c0,0.7,0.2,1.4,0.5,2c0.3,0.6,0.7,1,1.3,1.3c0.6,0.3,1.2,0.4,1.8,0.4
		c1.2,0,2.4-0.5,3.3-1.3c0.2-0.2,0.5-0.3,0.8-0.4c0.2,0,0.4,0.1,0.5,0.3c0.1,0.2,0.2,0.4,0.2,0.6c0,0.3-0.1,0.5-0.3,0.7
		c-0.5,0.6-1.2,1-1.9,1.3c-0.8,0.3-1.7,0.5-2.6,0.5c-0.9,0-1.8-0.2-2.6-0.6c-0.7-0.3-1.3-0.8-1.8-1.5c-0.4-0.6-0.8-1.3-1-2
		c-0.2-0.7-0.3-1.4-0.3-2.2L90.6,122.6L90.6,122.6z M92.6,122h6.7c0-1-0.3-1.9-0.9-2.7c-0.6-0.7-1.5-1.1-2.4-1c-0.9,0-1.8,0.3-2.4,1
		C93,120,92.6,121,92.6,122z"/>
	<path d="M111.4,118.2v-0.7c0-0.3,0.1-0.5,0.3-0.7c0.4-0.4,0.9-0.4,1.3,0c0,0,0,0,0,0c0.2,0.2,0.3,0.5,0.3,0.7V128
		c0,0.3-0.1,0.6-0.3,0.8c-0.2,0.2-0.4,0.3-0.7,0.2c-0.2,0-0.5-0.1-0.7-0.2c-0.2-0.2-0.3-0.4-0.3-0.7v-0.9l0,0
		c-0.7,1.1-1.9,1.8-3.2,1.8c-2,0-3.9-1.1-4.8-2.9c-1-2.1-0.9-4.6,0.1-6.7c0.5-0.9,1.2-1.6,2-2.1c0.7-0.4,1.6-0.7,2.4-0.7
		c0.6,0,1.3,0.1,1.9,0.4C110.4,117.3,110.9,117.7,111.4,118.2L111.4,118.2z M104.7,122.8c0,0.7,0.1,1.5,0.4,2.2
		c0.2,0.6,0.6,1.2,1.1,1.6c0.5,0.4,1.1,0.7,1.8,0.7c1,0.1,2-0.4,2.6-1.3c0.6-1,0.8-2.1,0.8-3.2c0-0.8-0.1-1.6-0.4-2.4
		c-0.2-0.6-0.6-1.2-1.2-1.5c-0.5-0.4-1.1-0.6-1.7-0.5l0,0c-1,0-1.9,0.5-2.4,1.3C105,120.5,104.7,121.6,104.7,122.8L104.7,122.8z"/>
	<path d="M115.9,117.6c0-0.3,0.1-0.6,0.3-0.8c0.4-0.4,1-0.4,1.4,0c0.2,0.2,0.3,0.5,0.3,0.8v0.5l0,0c0.4-0.5,0.9-0.9,1.5-1.2
		c0.6-0.3,1.2-0.4,1.8-0.4c0.7,0,1.4,0.2,2.1,0.5c0.7,0.4,1.2,0.9,1.6,1.6c0.4,0.8,0.6,1.7,0.6,2.6v6.8c0,0.3-0.1,0.5-0.3,0.7
		c-0.4,0.3-1,0.3-1.4,0c-0.2-0.2-0.3-0.4-0.3-0.7v-6.7c0.1-1.5-1.1-2.8-2.6-2.9c-0.1,0-0.1,0-0.2,0c-0.5,0-1,0.1-1.4,0.4
		c-0.4,0.2-0.8,0.6-1,1c-0.3,0.5-0.4,1-0.4,1.6v6.7c0,0.3-0.1,0.6-0.3,0.8c-0.2,0.2-0.4,0.3-0.7,0.3c-0.3,0-0.5-0.1-0.7-0.3
		c-0.2-0.2-0.3-0.5-0.3-0.8L115.9,117.6z"/>
</g>
<g>
	<path class="st0" d="M81.3,20.7c-20.4,0-36.9,16.5-36.9,36.9c0,20.4,16.5,36.9,36.9,36.9c20.3,0,36.7-16.3,36.9-36.6
		c0.2-20.4-16.2-37-36.6-37.2C81.5,20.7,81.4,20.7,81.3,20.7z"/>
	<path class="st1" d="M81.3,20.7c20.4,0,36.9,16.5,36.9,36.9c0,20.4-16.5,36.9-36.9,36.9S44.4,78,44.4,57.6c0-0.1,0-0.3,0-0.4
		C44.6,37,61.1,20.7,81.3,20.7z M84.1,79.9l0.2-0.2c0.1-0.2,0.3-0.3-0.1-0.3c-0.7,0-1.5,0-2.3,0c-0.3-0.1-0.4-0.4-0.4-0.7l-0.7-2
		c-0.2,0.4-0.3,0.7-0.4,0.9c-0.1,0.6-0.4,1.3-0.8,1.8h-2.2c-0.4,0-0.4,0.1-0.1,0.3c0.5,0.4,1,0.8,1.5,1.1c0.4,0.2,0.4,0.4,0.3,0.8
		c-0.3,0.7-0.4,1.4-0.5,2.1c0.7-0.5,1.3-0.9,2-1.3c0.2-0.2,0.5-0.2,0.7,0c0.6,0.5,1.3,0.9,2,1.2l0,0l0,0c0-0.3-0.1-0.6-0.2-0.9
		c-0.6-1.2-0.4-2.2,0.9-2.8C83.9,80.1,84,80,84.1,79.9C84.1,79.9,84.1,79.9,84.1,79.9z M107,58.5l0.1-0.1c0.1-0.1,0.5-0.3,0-0.4
		c-0.6,0-1.4,0-2.2,0c-0.5-0.2-0.4-0.6-0.6-1c-0.2-0.5-0.3-1.1-0.7-1.6c-0.2,0.6-0.5,1.2-0.6,1.8c-0.1,0.6-0.4,0.9-1.1,0.8
		c-0.6,0-1.2,0-1.9,0c0.5,0.6,1,1,1.6,1.4c0.3,0.2,0.4,0.6,0.3,0.9c-0.3,0.7-0.5,1.4-0.5,2.1c0.5-0.3,1.1-0.7,1.5-1
		c0.4-0.4,1-0.5,1.5-0.1c0,0,0.1,0.1,0.1,0.1c0.5,0.4,1,0.7,1.6,1.1c-0.3-0.8-0.4-1.5-0.6-2.2c-0.1-0.3-0.2-0.6,0.2-0.8
		C106,59.3,106.5,58.9,107,58.5L107,58.5z M58.7,51.9c0.6-0.3,1.2-0.6,1.7-1.1c0.3-0.3,0.7-0.3,1,0c0.6,0.4,1.2,0.8,1.8,1.1
		c0-0.6-0.2-1.1-0.4-1.6c-0.3-0.5-0.1-1.2,0.4-1.5c0,0,0.1,0,0.1-0.1c0.4-0.3,0.8-0.6,1.2-1c-0.7-0.1-1.5-0.2-2.2-0.2
		c-0.3,0-0.6-0.1-0.6-0.4c-0.2-0.6-0.4-1.1-0.6-1.6c-0.1-0.1,0-0.3-0.2-0.3c-0.2,0-0.3,0.2-0.3,0.3c-0.1,0.5-0.3,0.9-0.4,1.4
		s-0.4,0.7-0.9,0.6c-0.7,0-1.3,0-2,0c0.4,0.5,0.8,0.9,1.4,1.3c0.5,0.2,0.7,0.7,0.5,1.2c0,0,0,0.1-0.1,0.1
		C58.9,50.7,58.8,51.3,58.7,51.9L58.7,51.9L58.7,51.9z M94.7,80.1L94.7,80.1L94.7,80.1L94.7,80.1c-0.1-0.6-0.2-1.2-0.4-1.7
		c-0.2-0.4,0-1,0.4-1.2c0,0,0,0,0,0c0.6-0.4,1.1-0.9,1.6-1.3c-0.9,0-1.6,0-2.3,0c-0.3,0-0.6-0.2-0.7-0.5c-0.2-0.7-0.5-1.4-0.8-2.3
		c-0.3,0.7-0.6,1.5-0.8,2.2c-0.1,0.5-0.3,0.5-0.7,0.5c-0.7,0-1.4,0-2.1,0c0.4,0.8,1.2,1,1.7,1.6c0.2,0.2,0.3,0.5,0.2,0.7
		c-0.3,0.7-0.4,1.4-0.5,2.1c0.5-0.3,1.1-0.7,1.5-1c0.4-0.4,1-0.4,1.4-0.1c0,0,0,0,0.1,0.1C93.7,79.6,94.1,80.1,94.7,80.1L94.7,80.1z
		 M70.3,43.1l0.1-0.1c-0.2-0.7-0.3-1.3-0.6-2c-0.2-0.5,0-0.7,0.4-1c0.6-0.4,1.1-0.8,1.6-1.4c-0.8,0-1.5,0-2.2,0
		c-0.4,0.1-0.8-0.2-0.8-0.6c-0.2-0.7-0.5-1.3-0.8-2.1c-0.3,0.8-0.6,1.5-0.8,2.2c0,0.4-0.4,0.6-0.8,0.6c0,0,0,0,0,0
		c-0.7,0-1.3,0-2.1,0c0.4,0.8,1.1,0.9,1.6,1.4c0.3,0.2,0.5,0.6,0.4,1c-0.3,0.7-0.5,1.4-0.5,2.1c0.6-0.3,1.1-0.7,1.6-1.1
		c0.4-0.4,1-0.4,1.4,0c0,0,0,0,0.1,0.1C69.2,42.4,69.8,42.8,70.3,43.1L70.3,43.1z M62.8,58c-0.9,0-1.6,0-2.3,0
		c-0.4,0.1-0.7-0.2-0.8-0.6c0,0,0,0,0,0c-0.2-0.7-0.5-1.3-0.7-2.1c-0.3,0.6-0.6,1.3-0.8,2c-0.1,0.5-0.5,0.8-0.9,0.7c0,0,0,0,0,0
		c-0.6-0.1-1.3,0-2,0l-0.1,0.2c0.4,0.4,0.9,0.7,1.3,1c0.6,0.3,0.8,1,0.5,1.5c0,0,0,0,0,0c-0.2,0.5-0.3,1.1-0.6,1.8
		c0.6-0.4,1.2-0.8,1.8-1.2c0.3-0.4,0.9-0.4,1.3,0c0,0,0,0,0,0c0.5,0.4,1,0.9,1.7,1.1c-0.2-0.7-0.3-1.4-0.6-2.1
		c-0.1-0.3,0-0.7,0.3-0.9C61.6,59,62.2,58.6,62.8,58L62.8,58z M97.2,68.1l0,0.2c0.5,0.4,1.1,0.9,1.6,1.3c0.3,0.2,0.4,0.6,0.3,0.9
		c-0.3,0.7-0.4,1.4-0.5,2.1c0.7-0.4,1.3-0.8,1.8-1.2c0.3-0.3,0.7-0.3,1,0c0,0,0,0,0,0c0.6,0.4,1.2,0.8,1.9,1.2
		c-0.2-0.8-0.4-1.5-0.6-2.1c-0.2-0.4,0-0.8,0.3-1c0.6-0.4,1.1-0.9,1.6-1.4c-0.6,0-1.2,0-1.8,0c-0.8,0.1-1.1-0.3-1.3-0.9
		c-0.1-0.6-0.3-1.2-0.7-1.6c-0.2,0.6-0.4,1.1-0.6,1.7c-0.2,0.5-0.5,1-1.2,0.9C98.4,68,97.8,68,97.2,68.1L97.2,68.1z M96.2,37.2
		L96.1,37c-0.7,0-1.4,0-2.1,0c-0.4,0.1-0.7-0.2-0.8-0.5c-0.2-0.7-0.5-1.4-0.8-2.1c-0.3,0.8-0.5,1.4-0.7,2.1
		c-0.1,0.4-0.4,0.6-0.8,0.5c-0.7,0-1.5,0-2.2,0.1c0.6,0.5,1.2,1,1.7,1.4c0.3,0.1,0.4,0.5,0.3,0.8c-0.2,0.7-0.4,1.4-0.7,2.2
		c0.8-0.5,1.4-0.9,1.9-1.3c0.3-0.2,0.6-0.2,0.9,0c0.6,0.5,1.2,0.9,1.9,1.2c-0.2-0.7-0.4-1.3-0.6-2c-0.2-0.4,0-0.9,0.4-1.1
		C95.2,38,95.7,37.6,96.2,37.2L96.2,37.2z M70.1,73.2c-0.3,0.8-0.6,1.5-0.8,2.2c0,0.3-0.3,0.5-0.6,0.5c0,0,0,0,0,0
		c-0.7,0-1.4,0-2.2,0c0.4,0.5,0.9,0.9,1.4,1.3c0.4,0.2,0.6,0.8,0.4,1.2c0,0,0,0,0,0c-0.2,0.6-0.4,1.2-0.5,1.8c0.6-0.3,1.1-0.6,1.6-1
		c0.3-0.4,0.9-0.5,1.3-0.1c0,0,0.1,0.1,0.1,0.1c0.5,0.4,1.1,0.8,1.7,1.1c-0.2-0.7-0.4-1.3-0.6-1.9c-0.2-0.4,0-0.9,0.3-1.1
		c0.6-0.4,1.1-0.8,1.6-1.4c-0.7,0-1.4,0-2,0c-0.6,0-0.9-0.2-1-0.8C70.7,74.4,70.4,73.8,70.1,73.2L70.1,73.2z M78.4,39.5
		c0.8-0.5,1.4-0.9,2-1.3c0.3-0.2,0.6-0.2,0.9,0c0.6,0.4,1.2,0.8,2,1.3c-0.2-0.9-0.4-1.5-0.6-2.2c-0.1-0.3,0-0.7,0.3-0.9
		c0.5-0.5,1.2-0.7,1.6-1.4c-0.8,0-1.4,0-2.1,0c-0.4,0.1-0.7-0.2-0.8-0.6c0,0,0,0,0,0c-0.2-0.6-0.4-1.3-0.7-2
		c-0.4,0.6-0.7,1.2-0.8,1.9c-0.1,0.6-0.4,0.7-0.9,0.7c-0.7-0.1-1.4,0-2.1,0.1l1.8,1.4c0.3,0.1,0.4,0.5,0.3,0.8
		C78.8,38,78.6,38.7,78.4,39.5L78.4,39.5z M97.2,46.2l-0.1,0.2c0.5,0.4,1,0.9,1.5,1.2c0.5,0.3,0.5,0.6,0.3,1.1
		c-0.3,0.6-0.5,1.3-0.5,1.9c0.6-0.4,1.2-0.7,1.7-1.1c0.3-0.3,0.8-0.3,1.1,0c0.6,0.4,1.2,0.8,1.8,1.2c-0.1-0.6-0.2-1.3-0.5-1.8
		c-0.3-0.5-0.1-1.1,0.4-1.4c0,0,0,0,0,0c0.6-0.3,1-0.8,1.5-1.3c-0.8,0-1.6,0-2.3,0c-0.3,0-0.5-0.1-0.6-0.4c-0.1-0.5-0.3-1-0.5-1.5
		c-0.1-0.1-0.2-0.2-0.3-0.3c-0.1,0-0.2,0.1-0.3,0.3c-0.2,0.5-0.4,1-0.6,1.6c0,0.3-0.3,0.5-0.6,0.4c0,0,0,0,0,0L97.2,46.2z
		 M63.9,72.5c-0.1-0.7-0.2-1.4-0.5-2c-0.2-0.4,0-0.9,0.4-1.2c0.5-0.4,1-0.8,1.6-1.3h-0.8c-2.1,0-2.1,0-2.7-2c0-0.1,0-0.4-0.2-0.4
		c-0.2,0-0.3,0.2-0.3,0.3c-0.1,0.4-0.3,0.8-0.4,1.3c-0.1,0.5-0.5,0.9-1,0.8c0,0-0.1,0-0.1,0c-0.6,0-1.3,0-1.9,0
		c0.4,0.8,1.1,1,1.6,1.4c0.3,0.2,0.5,0.6,0.3,1c-0.2,0.7-0.4,1.3-0.5,2c0.7-0.4,1.3-0.8,1.8-1.2c0.3-0.3,0.8-0.3,1.1,0
		C62.7,71.8,63.3,72.1,63.9,72.5L63.9,72.5z"/>
	<path class="st2" d="M70.2,43.1c-0.5-0.4-1-0.7-1.5-1.1c-0.3-0.4-1-0.5-1.4-0.1c0,0,0,0-0.1,0.1c-0.5,0.4-1.1,0.8-1.6,1.1
		c0.1-0.7,0.3-1.4,0.5-2.1c0.1-0.4,0-0.8-0.4-1c-0.5-0.4-1.2-0.6-1.6-1.4c0.8,0,1.5,0,2.1,0c0.4,0.1,0.7-0.2,0.8-0.6c0,0,0,0,0,0
		c0.2-0.7,0.5-1.3,0.8-2.2c0.3,0.8,0.5,1.5,0.8,2.1c0.1,0.4,0.4,0.7,0.8,0.6c0.7,0,1.4,0,2.2,0c-0.5,0.5-1,1-1.6,1.4
		c-0.4,0.3-0.5,0.5-0.4,1c0.2,0.7,0.4,1.3,0.6,2L70.2,43.1z"/>
	<path class="st2" d="M62.8,58c-0.5,0.6-1.1,1-1.8,1.4c-0.3,0.2-0.5,0.6-0.3,0.9c0.2,0.7,0.4,1.4,0.6,2.1c-0.7-0.1-1.2-0.7-1.7-1.1
		c-0.3-0.4-0.9-0.4-1.3,0c0,0,0,0,0,0c-0.6,0.4-1.2,0.8-1.8,1.2c0.2-0.7,0.4-1.3,0.6-1.8c0.3-0.6,0.1-1.2-0.5-1.5c0,0,0,0,0,0
		c-0.5-0.3-0.9-0.7-1.3-1l0.1-0.2c0.6,0,1.3,0,2,0c0.5,0.1,0.9-0.2,1-0.7c0,0,0,0,0,0c0.2-0.7,0.4-1.3,0.8-2
		c0.3,0.7,0.5,1.4,0.7,2.1c0.1,0.4,0.4,0.6,0.8,0.6c0,0,0,0,0,0C61.1,57.9,61.8,58,62.8,58z"/>
	<path class="st2" d="M97.2,68.1c0.6,0,1.2,0,1.8,0c0.7,0.1,1.1-0.2,1.2-0.9c0.2-0.7,0.4-1.1,0.6-1.7c0.4,0.5,0.6,1,0.7,1.6
		c0.2,0.7,0.5,1.1,1.3,0.9c0.6,0,1.2,0,1.8,0c-0.5,0.5-1,1-1.6,1.4c-0.4,0.2-0.5,0.6-0.3,1c0.2,0.6,0.4,1.3,0.6,2.1
		c-0.7-0.4-1.3-0.8-1.9-1.2c-0.3-0.3-0.7-0.3-1,0c0,0,0,0,0,0c-0.5,0.4-1.1,0.8-1.8,1.2c0.1-0.7,0.3-1.4,0.5-2.1
		c0.2-0.3,0-0.7-0.3-0.9c-0.6-0.4-1.1-0.9-1.6-1.3L97.2,68.1z"/>
	<path class="st2" d="M96.2,37.2c-0.5,0.4-1,0.8-1.5,1.2c-0.4,0.2-0.6,0.7-0.4,1.1c0.2,0.7,0.4,1.3,0.6,2c-0.7-0.3-1.3-0.7-1.9-1.2
		c-0.3-0.2-0.6-0.2-0.9,0c-0.6,0.4-1.2,0.8-1.9,1.3c0.3-0.9,0.4-1.6,0.7-2.2c0.1-0.3,0-0.7-0.3-0.8c-0.6-0.4-1.1-0.9-1.7-1.4
		C89.5,37,90.3,37,91,37c0.4,0.1,0.7-0.2,0.8-0.5c0.2-0.7,0.5-1.3,0.7-2.1c0.3,0.7,0.6,1.4,0.8,2.1c0.1,0.4,0.4,0.6,0.8,0.5
		c0.7,0,1.4,0,2.1,0L96.2,37.2z"/>
	<path class="st2" d="M94.7,80.1c-0.6,0-1-0.5-1.5-0.9c-0.4-0.4-1-0.4-1.4-0.1c0,0,0,0-0.1,0.1c-0.5,0.4-1,0.7-1.5,1
		c0.1-0.7,0.3-1.4,0.5-2.1c0.1-0.3,0-0.5-0.2-0.7c-0.5-0.6-1.4-0.7-1.7-1.6c0.7,0,1.4,0,2.1,0c0.4,0,0.6,0,0.7-0.5
		c0.2-0.8,0.5-1.5,0.8-2.2c0.3,0.9,0.6,1.6,0.8,2.3c0.1,0.3,0.4,0.5,0.7,0.5c0.7,0,1.4,0,2.3,0c-0.5,0.5-1,0.9-1.6,1.3
		c-0.4,0.2-0.6,0.7-0.4,1.2c0,0,0,0,0,0C94.6,78.9,94.7,79.5,94.7,80.1L94.7,80.1z"/>
	<path class="st2" d="M70,73.2c0.4,0.6,0.6,1.2,0.7,1.9c0.2,0.5,0.4,0.8,1,0.8c0.6-0.1,1.3,0,2,0c-0.5,0.5-1,1-1.6,1.4
		c-0.4,0.2-0.5,0.7-0.3,1.1c0.2,0.6,0.4,1.2,0.6,1.9c-0.6-0.3-1.2-0.6-1.7-1.1c-0.3-0.4-0.9-0.4-1.3-0.1c0,0-0.1,0.1-0.1,0.1
		c-0.5,0.4-1,0.7-1.6,1c0.1-0.6,0.2-1.2,0.5-1.8c0.2-0.4,0.1-1-0.4-1.2c0,0,0,0,0,0c-0.5-0.4-1-0.8-1.4-1.3c0.7,0,1.4,0,2.2,0
		c0.3,0.1,0.6-0.1,0.7-0.5c0,0,0,0,0,0C69.5,74.7,69.8,74,70,73.2z"/>
	<path class="st2" d="M78.4,39.6c0.2-0.9,0.4-1.6,0.6-2.3c0.1-0.3,0-0.6-0.3-0.8L77,35.2c0.7-0.1,1.4-0.2,2.1-0.1
		c0.5,0,0.8-0.1,0.9-0.7c0.1-0.7,0.4-1.4,0.8-1.9c0.3,0.7,0.5,1.4,0.7,2c0.1,0.4,0.4,0.6,0.8,0.6c0,0,0,0,0,0c0.7,0,1.3,0,2.1,0
		c-0.4,0.8-1.1,1-1.6,1.4c-0.3,0.2-0.4,0.5-0.3,0.9c0.2,0.7,0.4,1.3,0.6,2.2c-0.8-0.5-1.4-0.9-2-1.3c-0.3-0.2-0.6-0.2-0.9,0
		C79.8,38.7,79.1,39.1,78.4,39.6z"/>
	<path class="st2" d="M97.2,46.2h2.2c0.3,0.1,0.5-0.1,0.6-0.4c0,0,0,0,0,0c0.2-0.5,0.3-1.1,0.6-1.6c0-0.1,0.1-0.3,0.3-0.3
		c0.1,0.1,0.2,0.2,0.3,0.3c0.2,0.5,0.4,1,0.5,1.5c0.1,0.4,0.3,0.4,0.6,0.4c0.7,0,1.5,0,2.3,0c-0.4,0.5-0.9,0.9-1.5,1.3
		c-0.5,0.3-0.7,0.9-0.4,1.4c0,0,0,0,0,0c0.3,0.6,0.4,1.2,0.5,1.8c-0.6-0.4-1.3-0.8-1.8-1.2c-0.3-0.3-0.8-0.3-1.1,0
		c-0.5,0.4-1.1,0.7-1.7,1.1c0-0.7,0.2-1.3,0.5-1.9c0.2-0.5,0.1-0.8-0.3-1.1c-0.5-0.4-1-0.8-1.5-1.2L97.2,46.2z"/>
	<path class="st2" d="M106.9,58.5c-0.4,0.4-0.8,0.7-1.3,1.1c-0.5,0.3-0.2,0.5-0.2,0.8c0.2,0.7,0.4,1.3,0.6,2.2
		c-0.7-0.4-1.2-0.7-1.6-1.1c-0.4-0.4-1-0.5-1.5-0.1c0,0-0.1,0.1-0.1,0.1c-0.5,0.4-1,0.7-1.5,1c0.1-0.7,0.3-1.4,0.5-2.1
		c0.2-0.3,0-0.7-0.3-0.9c-0.6-0.4-1.1-0.9-1.6-1.4c0.6,0,1.2,0,1.9,0c0.6,0.1,0.9-0.2,1.1-0.8c0.2-0.6,0.4-1.2,0.6-1.8
		c0.5,0.5,0.5,1.1,0.7,1.6c0.2,0.3,0.1,0.8,0.6,1l1.6,0c0.3,0,0.5,0,0.6,0.3L106.9,58.5L106.9,58.5z"/>
	<path class="st2" d="M63.9,72.5c-0.7-0.4-1.2-0.8-1.8-1.2c-0.3-0.3-0.8-0.3-1.1,0c-0.5,0.4-1.1,0.8-1.8,1.2c0.1-0.7,0.3-1.4,0.5-2
		c0.2-0.4,0-0.8-0.3-1c-0.5-0.4-1.2-0.6-1.6-1.4c0.6,0,1.3,0,1.9,0c0.5,0.1,1-0.2,1.1-0.7c0,0,0-0.1,0-0.1c0.1-0.4,0.3-0.8,0.4-1.3
		c0.1-0.2,0.1-0.3,0.3-0.3c0.2,0,0.2,0.2,0.2,0.4c0.7,2,0.7,2,2.7,2h0.8c-0.6,0.5-1.1,0.9-1.6,1.3c-0.4,0.2-0.6,0.7-0.4,1.2
		C63.7,71.1,63.9,71.8,63.9,72.5z"/>
	<path class="st2" d="M79.6,79.4c0.4-0.5,0.6-1.2,0.8-1.8c0.1-0.3,0.2-0.5,0.4-0.9l0.7,2c0.1,0.3,0.2,0.5,0.4,0.7c0.3,0.1,0.7,0,1,0
		c0.3,0,1-0.2,1.3,0.2l-0.2,0.2c0,0-0.1-0.1-0.1,0c-0.1,0.1-0.2,0.1-0.3,0.2c-1.3,0.6-1.5,1.5-0.9,2.8c0.1,0.3,0.2,0.6,0.2,0.9l0,0
		c-0.7-0.4-1.3-0.8-2-1.2c-0.2-0.2-0.5-0.2-0.7,0c-0.6,0.4-1.3,0.8-2,1.3c0.1-0.7,0.3-1.5,0.5-2.1c0.1-0.4,0.1-0.6-0.3-0.8
		c-0.5-0.3-1-0.8-1.5-1.1c0.1-0.3,0.4-0.3,0.6-0.3L79.6,79.4z"/>
	<path class="st2" d="M58.7,51.9c0-0.6,0.2-1.2,0.4-1.7c0.3-0.4,0.1-1-0.3-1.2c0,0-0.1,0-0.1-0.1c-0.5-0.3-1-0.8-1.4-1.3
		c0.7,0,1.3,0,2,0c0.5,0,0.8-0.1,0.9-0.6c0.1-0.5,0.4-0.9,0.4-1.4c0-0.1,0.1-0.3,0.3-0.3c0.2,0,0.1,0.2,0.2,0.3
		c0.3,0.5,0.5,1.1,0.6,1.6c0.1,0.3,0.3,0.5,0.6,0.4c0.7,0,1.5,0,2.2,0.2c-0.4,0.4-0.8,0.7-1.2,1c-0.6,0.2-0.8,0.9-0.6,1.5
		c0,0,0,0.1,0.1,0.1c0.2,0.5,0.4,1.1,0.4,1.6c-0.6-0.3-1.2-0.7-1.8-1.1c-0.3-0.3-0.7-0.3-1,0C60,51.3,59.4,51.7,58.7,51.9L58.7,51.9
		z"/>
	<path class="st0" d="M79.6,79.4h-1.7c-0.3,0-0.5,0-0.6,0.3c-0.3-0.2-0.2-0.4,0.1-0.3L79.6,79.4z"/>
	<path class="st0" d="M107.1,58.4c-0.1-0.3-0.4-0.3-0.6-0.3l-1.6,0c0.7,0,1.4,0,2.2,0C107.8,58.1,107.2,58.3,107.1,58.4z"/>
	<path class="st0" d="M84.3,79.7c-0.4-0.4-0.9-0.2-1.3-0.2c-0.4,0-0.7,0-1,0c0.8,0,1.5,0,2.3,0C84.6,79.4,84.4,79.6,84.3,79.7z"/>
	<path class="st0" d="M84,79.9C84,79.8,84.1,79.9,84,79.9C84.1,79.9,84.1,79.9,84,79.9z"/>
	<polygon class="st2" points="58.7,51.9 58.7,51.9 58.7,51.9 	"/>
	<path class="st0" d="M106.9,58.5L106.9,58.5z"/>
	<path class="st2" d="M94.7,80.1L94.7,80.1L94.7,80.1L94.7,80.1L94.7,80.1z"/>
	<polygon class="st2" points="83.1,83.8 83.1,83.8 83.1,83.8 	"/>
</g>
</svg>
