<?xml version="1.0" encoding="utf-8"?>
<!-- Generator: Adobe Illustrator 25.2.0, SVG Export Plug-In . SVG Version: 6.00 Build 0)  -->
<svg version="1.1" id="Layer_1" xmlns="http://www.w3.org/2000/svg" xmlns:xlink="http://www.w3.org/1999/xlink" x="0px" y="0px"
	 viewBox="0 0 162.4 162.4" style="enable-background:new 0 0 162.4 162.4;" xml:space="preserve">
<style type="text/css">
	.st0{fill:#3D3D3D;}
	.st1{fill:#FFDA44;}
	.st2{fill:#D80027;}
</style>
<g>
	<path d="M55.7,114.5c0.2,0.2,0.2,0.4,0.2,0.7c0,0.2-0.1,0.5-0.3,0.6c-0.2,0.2-0.4,0.3-0.7,0.3c-0.3,0-0.6-0.1-0.8-0.3
		c-0.6-0.4-1.1-0.8-1.8-1.1c-0.7-0.3-1.4-0.4-2.1-0.4c-0.8,0-1.7,0.2-2.4,0.6c-0.7,0.4-1.2,0.9-1.6,1.5c-0.4,0.6-0.7,1.3-0.9,2.1
		c-0.2,0.7-0.3,1.4-0.3,2.2c0,1,0.1,1.9,0.4,2.9c0.3,1,0.8,1.9,1.5,2.6c0.8,0.8,1.8,1.2,2.9,1.2c0.9,0,1.7-0.2,2.5-0.5
		c0.8-0.4,1.4-1,1.8-1.7c0.5-0.9,0.7-1.9,0.7-2.8v-0.7h-2.9c-0.5,0-0.9-0.3-0.9-0.8c0,0,0-0.1,0-0.1c0-0.6,0.4-1,0.8-1h3.6
		c0.9,0,1.3,0.5,1.3,1.5v0.4c0,1.1-0.2,2.2-0.5,3.3c-0.3,1.2-1,2.2-2,3c-1.3,0.9-2.8,1.4-4.4,1.3c-1.1,0-2.3-0.2-3.3-0.8
		c-0.9-0.5-1.6-1.2-2.2-2c-0.6-0.8-1-1.7-1.3-2.6c-0.2-0.9-0.4-1.8-0.4-2.7c0-1.1,0.2-2.2,0.5-3.2c0.3-1,0.7-1.9,1.3-2.7
		c0.6-0.8,1.4-1.4,2.3-1.8c1-0.5,2-0.7,3.1-0.7c1.1,0,2.2,0.2,3.3,0.5C54.3,113.3,55.1,113.8,55.7,114.5z"/>
	<path d="M58.1,122.7c0-1,0.3-2,0.7-3c0.4-0.9,1-1.7,1.8-2.2c0.8-0.6,1.8-0.9,2.8-0.9c1,0,2,0.3,2.8,0.8c0.8,0.6,1.5,1.4,1.9,2.3
		c0.4,0.9,0.7,1.9,0.7,2.9c0,0.7-0.4,1-1.1,1h-7.6c0,0.7,0.2,1.4,0.5,2c0.3,0.6,0.7,1,1.3,1.3c0.6,0.3,1.2,0.4,1.8,0.4
		c1.2,0,2.4-0.5,3.3-1.3c0.2-0.2,0.5-0.3,0.8-0.4c0.2,0,0.4,0.1,0.5,0.3c0.1,0.2,0.2,0.4,0.2,0.6c0,0.3-0.1,0.5-0.3,0.7
		c-0.5,0.6-1.2,1-1.9,1.3c-0.8,0.3-1.7,0.5-2.6,0.5c-0.9,0-1.8-0.2-2.6-0.6c-0.7-0.3-1.3-0.8-1.8-1.5c-0.4-0.6-0.8-1.3-1-2
		c-0.2-0.7-0.3-1.4-0.3-2.2L58.1,122.7L58.1,122.7z M60.1,122.1h6.7c0-1-0.3-1.9-0.9-2.7c-0.6-0.7-1.5-1.1-2.4-1
		c-0.9,0-1.8,0.3-2.4,1C60.4,120.1,60.1,121.1,60.1,122.1z"/>
	<path d="M70.7,117.7c0-0.3,0.1-0.5,0.3-0.7c0.2-0.2,0.4-0.3,0.7-0.3c0.3,0,0.5,0.1,0.7,0.3c0.2,0.2,0.3,0.5,0.3,0.7v1l0,0
		c0.3-0.5,0.7-1,1.2-1.4c0.4-0.4,1-0.6,1.5-0.7c0.3,0,0.6,0.1,0.8,0.3c0.2,0.2,0.4,0.4,0.4,0.7c0,0.3-0.1,0.6-0.4,0.8
		c-0.3,0.2-0.7,0.3-1,0.4c-0.3,0.1-0.6,0.2-0.9,0.3c-0.5,0.3-0.9,0.7-1.2,1.2c-0.3,0.6-0.4,1.2-0.4,1.8v5.9c0,0.3-0.1,0.6-0.3,0.8
		c-0.2,0.2-0.4,0.3-0.7,0.3c-0.3,0-0.5-0.1-0.7-0.3c-0.2-0.2-0.3-0.5-0.3-0.8L70.7,117.7z"/>
	<path d="M77.9,117.6c0-0.3,0.1-0.5,0.3-0.7c0.2-0.2,0.5-0.3,0.7-0.2c0.3,0,0.5,0.1,0.7,0.2c0.2,0.2,0.3,0.5,0.3,0.8v0.4l0,0
		c0.7-1,1.9-1.5,3.1-1.5c1.4,0.1,2.6,0.8,3.3,2.1c0.4-0.7,1-1.2,1.7-1.6c1.3-0.6,2.9-0.6,4.1,0.1c0.6,0.4,1.1,0.9,1.5,1.5
		c0.4,0.7,0.6,1.5,0.5,2.3v7c0,0.3-0.1,0.5-0.3,0.7c-0.2,0.2-0.5,0.3-0.7,0.3c-0.2,0-0.5-0.1-0.7-0.3c-0.2-0.2-0.3-0.4-0.3-0.7v-6.9
		c0-0.5-0.1-1.1-0.3-1.5c-0.2-0.4-0.5-0.7-0.9-0.9c-0.4-0.2-0.8-0.3-1.3-0.3c-0.7,0-1.4,0.2-1.9,0.7c-0.5,0.6-0.8,1.4-0.8,2.1v6.9
		c0,0.3-0.1,0.5-0.3,0.7c-0.2,0.2-0.5,0.2-0.7,0.2c-0.2,0-0.5-0.1-0.7-0.2c-0.2-0.2-0.3-0.4-0.3-0.7v-6.8c0.1-0.8-0.2-1.6-0.7-2.2
		c-0.5-0.5-1.2-0.7-1.8-0.7c-0.4,0-0.9,0.1-1.3,0.3c-0.4,0.2-0.7,0.5-0.9,0.9c-0.3,0.5-0.4,1-0.4,1.5v7c0,0.3-0.1,0.5-0.3,0.7
		c-0.2,0.2-0.4,0.3-0.7,0.3c-0.3,0-0.5-0.1-0.7-0.3c-0.2-0.2-0.3-0.4-0.3-0.7L77.9,117.6z"/>
	<path d="M104.9,118.3v-0.7c0-0.3,0.1-0.5,0.3-0.7c0.2-0.2,0.4-0.3,0.7-0.3c0.2,0,0.5,0.1,0.6,0.3c0.2,0.2,0.3,0.5,0.3,0.7V128
		c0,0.3-0.1,0.6-0.3,0.8c-0.2,0.2-0.4,0.3-0.6,0.2c-0.2,0-0.5-0.1-0.7-0.2c-0.2-0.2-0.3-0.4-0.3-0.7v-0.9l0,0
		c-0.7,1.1-1.9,1.8-3.2,1.8c-2,0-3.9-1.1-4.8-2.9c-0.5-1-0.7-2.1-0.7-3.2c0-1.2,0.2-2.4,0.8-3.5c0.5-0.9,1.2-1.6,2-2.1
		c0.7-0.4,1.6-0.7,2.4-0.7c0.6,0,1.3,0.1,1.9,0.4C104,117.4,104.5,117.8,104.9,118.3L104.9,118.3z M98.3,122.8
		c0,0.7,0.1,1.5,0.4,2.2c0.2,0.6,0.6,1.2,1.1,1.6c0.5,0.4,1.1,0.7,1.8,0.6c1,0.1,2-0.4,2.6-1.3c0.5-1,0.8-2.1,0.8-3.2
		c0-0.8-0.1-1.6-0.4-2.4c-0.2-0.6-0.6-1.2-1.2-1.5c-0.5-0.4-1.1-0.6-1.7-0.5l0,0c-1,0-1.9,0.5-2.4,1.3
		C98.6,120.6,98.3,121.7,98.3,122.8L98.3,122.8z"/>
	<path d="M109.5,117.7c0-0.3,0.1-0.6,0.3-0.8c0.2-0.2,0.4-0.3,0.7-0.3c0.3,0,0.5,0.1,0.7,0.3c0.2,0.2,0.3,0.5,0.3,0.8v0.5l0,0
		c0.4-0.5,0.9-0.9,1.5-1.2c0.6-0.3,1.2-0.4,1.8-0.4c0.7,0,1.4,0.2,2.1,0.5c0.7,0.3,1.2,0.9,1.6,1.6c0.4,0.8,0.6,1.7,0.6,2.6v6.8
		c0,0.3-0.1,0.6-0.3,0.7c-0.2,0.2-0.4,0.3-0.7,0.2c-0.3,0-0.5-0.1-0.7-0.3c-0.2-0.2-0.3-0.4-0.3-0.7v-6.7c0-0.8-0.3-1.6-0.8-2.1
		c-0.5-0.5-1.2-0.8-2-0.8c-0.5,0-1,0.1-1.4,0.4c-0.4,0.2-0.8,0.6-1,1c-0.3,0.5-0.4,1-0.4,1.6v6.7c0,0.3-0.1,0.6-0.3,0.8
		c-0.2,0.2-0.4,0.3-0.7,0.3c-0.3,0-0.5-0.1-0.7-0.3c-0.2-0.2-0.3-0.5-0.3-0.8L109.5,117.7z"/>
</g>
<g>
	<path class="st0" d="M81.3,20.9c-15.6,0-29.5,9.9-34.7,24.6H116C110.8,30.8,96.9,20.9,81.3,20.9z"/>
	<path class="st1" d="M81.3,94.4c15.6,0,29.6-9.8,34.7-24.6H46.6C51.8,84.6,65.7,94.4,81.3,94.4z"/>
	<path class="st2" d="M116,45.5H46.6c-2.7,7.9-2.7,16.4,0,24.3H116C118.7,62,118.7,53.4,116,45.5z"/>
</g>
</svg>
