<?xml version="1.0" encoding="utf-8"?>
<!-- Generator: Adobe Illustrator 25.2.0, SVG Export Plug-In . SVG Version: 6.00 Build 0)  -->
<svg version="1.1" id="Layer_1" xmlns="http://www.w3.org/2000/svg" xmlns:xlink="http://www.w3.org/1999/xlink" x="0px" y="0px"
	 viewBox="0 0 162.4 162.4" style="enable-background:new 0 0 162.4 162.4;" xml:space="preserve">
<g>
	<path d="M66.5,114.4c0.2,0.2,0.2,0.4,0.2,0.7c0,0.2-0.1,0.5-0.3,0.6c-0.2,0.2-0.4,0.3-0.7,0.3c-0.3,0-0.6-0.1-0.8-0.3
		c-0.6-0.4-1.1-0.8-1.8-1.1c-0.7-0.3-1.4-0.4-2.1-0.4c-0.8,0-1.7,0.2-2.4,0.6c-0.7,0.4-1.2,0.9-1.6,1.5c-0.4,0.6-0.7,1.3-0.9,2.1
		c-0.2,0.7-0.3,1.4-0.3,2.2c0,1,0.1,1.9,0.4,2.9c0.3,1,0.8,1.9,1.5,2.6c0.8,0.8,1.8,1.2,2.9,1.2c0.9,0,1.7-0.2,2.5-0.5
		c0.8-0.4,1.4-1,1.8-1.7c0.5-0.9,0.8-1.8,0.7-2.8v-0.7h-2.9c-0.5,0-0.9-0.3-0.9-0.8c0,0,0-0.1,0-0.1c0-0.7,0.4-1,0.8-1h3.6
		c0.9,0,1.3,0.5,1.3,1.5v0.4c0,1.1-0.2,2.2-0.5,3.3c-0.3,1.2-1,2.2-2,3c-1.3,0.9-2.8,1.4-4.4,1.3c-1.1,0-2.3-0.2-3.3-0.8
		c-0.9-0.5-1.6-1.2-2.2-2c-0.6-0.8-1-1.7-1.3-2.6c-0.2-0.9-0.4-1.8-0.4-2.7c0-1.1,0.2-2.2,0.5-3.2c0.3-1,0.7-1.9,1.4-2.7
		c0.6-0.8,1.4-1.4,2.2-1.8c1-0.5,2-0.7,3.1-0.7c1.1,0,2.2,0.2,3.3,0.5C65.1,113.2,65.9,113.7,66.5,114.4z"/>
	<path d="M69.6,117.6c0-0.3,0.1-0.6,0.3-0.7c0.2-0.2,0.4-0.3,0.7-0.3c0.3,0,0.5,0.1,0.7,0.3c0.2,0.2,0.3,0.5,0.3,0.7v1l0,0
		c0.3-0.5,0.7-1,1.2-1.4c0.4-0.4,0.9-0.6,1.5-0.7c0.3,0,0.6,0.1,0.8,0.3c0.2,0.2,0.3,0.4,0.3,0.7c0,0.3-0.1,0.6-0.3,0.8
		c-0.3,0.2-0.7,0.3-1,0.4c-0.3,0.1-0.6,0.2-0.9,0.3c-0.5,0.3-0.9,0.7-1.2,1.2c-0.3,0.6-0.4,1.2-0.4,1.8v5.9c0,0.3-0.1,0.6-0.3,0.8
		c-0.2,0.2-0.4,0.3-0.7,0.3c-0.3,0-0.5-0.1-0.7-0.3c-0.2-0.2-0.3-0.5-0.3-0.8L69.6,117.6z"/>
	<path d="M76.1,122.6c0-1,0.3-2,0.7-3c0.4-0.9,1-1.7,1.8-2.2c0.8-0.6,1.8-0.9,2.8-0.9c1,0,2,0.3,2.8,0.8c0.8,0.6,1.5,1.4,1.9,2.3
		c0.4,0.9,0.7,1.9,0.7,2.9c0,0.6-0.4,1-1.1,1h-7.6c0,0.7,0.2,1.4,0.5,2c0.3,0.6,0.7,1,1.3,1.3c0.6,0.3,1.2,0.4,1.8,0.4
		c1.2,0,2.4-0.5,3.2-1.3c0.2-0.2,0.5-0.3,0.8-0.4c0.2,0,0.4,0.1,0.5,0.3c0.1,0.2,0.2,0.4,0.2,0.6c0,0.3-0.1,0.5-0.3,0.7
		c-0.5,0.6-1.2,1-1.9,1.3c-0.8,0.3-1.7,0.5-2.6,0.5c-0.9,0-1.8-0.2-2.6-0.6c-0.7-0.3-1.3-0.8-1.8-1.5c-0.4-0.6-0.8-1.3-1-2
		c-0.2-0.7-0.3-1.4-0.3-2.2L76.1,122.6L76.1,122.6z M78.1,122h6.7c0-1-0.3-1.9-0.9-2.7c-0.6-0.7-1.5-1.1-2.4-1c-0.9,0-1.8,0.3-2.4,1
		C78.4,120,78,121,78.1,122L78.1,122z"/>
	<path d="M87.9,122.6c0-1,0.3-2,0.7-3c0.4-0.9,1-1.7,1.8-2.2c0.8-0.6,1.8-0.9,2.8-0.9c1,0,2,0.3,2.8,0.8c0.8,0.6,1.5,1.4,1.9,2.3
		c0.4,0.9,0.7,1.9,0.7,2.9c0,0.6-0.4,1-1.1,1h-7.6c0,0.7,0.2,1.4,0.5,2c0.3,0.6,0.7,1,1.3,1.3c0.6,0.3,1.2,0.4,1.8,0.4
		c1.2,0,2.4-0.5,3.3-1.3c0.2-0.2,0.5-0.3,0.8-0.4c0.2,0,0.4,0.1,0.5,0.3c0.1,0.2,0.2,0.4,0.2,0.6c0,0.3-0.1,0.5-0.3,0.7
		c-0.5,0.6-1.2,1-1.9,1.3c-0.8,0.3-1.7,0.5-2.6,0.5c-0.9,0-1.8-0.2-2.6-0.6c-0.7-0.3-1.3-0.8-1.8-1.5c-0.4-0.6-0.8-1.3-1-2
		c-0.2-0.7-0.3-1.4-0.3-2.2L87.9,122.6L87.9,122.6z M89.9,122h6.7c0-1-0.3-1.9-0.9-2.7c-0.6-0.7-1.5-1.1-2.4-1c-0.9,0-1.8,0.3-2.4,1
		C90.2,120,89.8,121,89.9,122z"/>
	<path d="M100.5,112.2c0-0.3,0.1-0.5,0.3-0.7c0.2-0.2,0.4-0.3,0.7-0.3c0.3,0,0.5,0.1,0.7,0.3c0.2,0.2,0.3,0.5,0.3,0.7v8.6l4.7-3.9
		c0.2-0.2,0.5-0.3,0.8-0.3c0.2,0,0.4,0.1,0.6,0.2c0.2,0.2,0.2,0.4,0.2,0.7c0,0.3-0.1,0.5-0.4,0.7l-4.7,3.7l5.4,5.3
		c0.3,0.3,0.4,0.6,0.4,1c0,0.2-0.1,0.4-0.2,0.6c-0.2,0.2-0.4,0.2-0.6,0.2c-0.4,0-0.8-0.2-1-0.5l-5.2-5.4v4.8c0,0.3-0.1,0.6-0.3,0.8
		c-0.2,0.2-0.4,0.3-0.7,0.3c-0.3,0-0.5-0.1-0.7-0.3c-0.2-0.2-0.3-0.5-0.3-0.8L100.5,112.2z"/>
</g>
<g>
	<path d="M46.7,41.7v-5.5c0.3-0.3,0.7-0.6,1.1-0.8c7.6-2.7,15.1-5.3,22.7-7.9l10.9-3.8h1.4c0,0,0.1,0.1,0.1,0.1l21.9,7.6
		c3.9,1.3,7.7,2.7,11.6,4c0.7,0.1,1.2,0.8,1.1,1.5c0,0,0,0,0,0c0,1.4,0,2.8,0,4.2c0,0.9-0.4,1.3-1.3,1.4h-1c0,0.8,0,1.5,0,2.3
		c0,0.6-0.1,1.3-0.5,1.8c-0.8,0.9-0.7,1.8-0.7,2.8c0,0.5,0,1,0,1.5c0,1.2-0.7,2.3-1.7,2.9c-0.3,0.1-0.5,0.5-0.4,0.8
		c0.3,2.6,0.6,5.1,0.8,7.7c0.3,5,0.2,10-0.4,15c-0.1,1-0.2,2-0.4,3c2.3,0.5,3.3,1.7,3.3,4v2.1c1.6,0.6,2.6,2.2,2.4,4
		c0,0.9,0,1.7,0,2.6c0,1.2-0.4,1.6-1.6,1.6H48.3c-0.7,0.1-1.3-0.3-1.6-0.8V89c0.3-1.1,1.1-2.1,2.1-2.6c0.1-0.1,0.2-0.4,0.2-0.6
		c0-0.8,0-1.6,0-2.4c0.1-1.7,1.2-2.7,3.3-3.3c0-0.2,0-0.4,0-0.7c-0.6-4.4-0.9-8.8-0.9-13.2c0.1-3.9,0.4-7.9,0.9-11.8
		c0-0.3-0.1-0.5-0.3-0.7c-1.2-0.7-1.9-2-1.9-3.4c0-0.9,0-1.7,0-2.6c0-0.2-0.1-0.5-0.2-0.7c-0.7-0.7-1-1.7-1-2.7c0-0.7,0-1.3,0-2
		C48.1,42.4,47.2,42.6,46.7,41.7z M55.3,35.2L55.3,35.2l53.6,0.1c-0.1-0.1-0.2-0.2-0.3-0.2c-8.6-3-17.2-6-25.7-9
		c-0.5-0.2-1-0.2-1.4,0c-6.8,2.4-13.7,4.7-20.5,7.1L55.3,35.2z M115.1,92v-1.7c0-1.5-0.3-1.8-1.8-1.8H50.9c-0.3,0-0.5,0-0.8,0
		c-0.6,0-1.1,0.5-1.1,1.1c-0.1,0.8,0,1.6,0,2.4L115.1,92z M112.8,42.5H51.4v1.7c0,1.5,0.3,1.8,1.8,1.8h58.4c0.7,0,1.2-0.5,1.2-1.1
		c0,0,0-0.1,0-0.1C112.8,44,112.8,43.3,112.8,42.5L112.8,42.5z M112.8,86.1c0-0.8,0-1.6,0-2.3c0-0.6-0.5-1.2-1.1-1.2
		c0,0-0.1,0-0.1,0c-0.2,0-0.4,0-0.6,0H52.5c-0.6,0-1,0.4-1.1,1c-0.1,0.8,0,1.6,0,2.5H112.8z M59.8,80.2c1.3-8.6,1.3-17.4,0-26
		c-1.6,0-3.1,0-4.6,0c-0.4,0-0.5,0.2-0.5,0.5c-0.3,3.6-0.7,7.1-0.8,10.7c-0.2,4.8,0.1,9.5,0.9,14.2c0,0.2,0.3,0.5,0.5,0.5
		C56.7,80.2,58.2,80.2,59.8,80.2z M104.4,54.3c-1.3,6-1.3,22.3,0.1,25.9c1.5,0,3,0,4.5,0c0.2-0.1,0.4-0.2,0.4-0.4
		c0.3-2.2,0.5-4.3,0.7-6.5c0.4-5.1,0.3-10.1-0.3-15.2c-0.1-1.3-0.3-2.5-0.5-3.8L104.4,54.3z M71.3,80.2c1.6,0,3.1,0,4.6,0
		c0.2,0,0.4-0.3,0.4-0.5c0.3-2.1,0.5-4.2,0.7-6.2c0.4-5.2,0.3-10.4-0.3-15.6c-0.1-1.2-0.3-2.4-0.5-3.6h-5C70,62.9,70,71.6,71.3,80.2
		L71.3,80.2z M87.9,54.3c0,0.1-0.1,0.2-0.1,0.3c-0.6,4.1-0.9,8.2-0.9,12.3c0,4.3,0.3,8.6,0.9,12.8c0,0.2,0.2,0.5,0.4,0.5
		c1.6,0,3.1,0,4.7,0c1.3-5.4,1.3-21.2,0-25.9L87.9,54.3z M80.9,48.3c0,0.9,0,1.8,0,2.6c0,1.1-0.7,2.2-1.7,2.7
		c-0.4,0.2-0.6,0.6-0.4,1c0.2,2,0.5,4,0.7,6c0.4,5.6,0.3,11.3-0.4,16.8c-0.1,0.9-0.2,1.7-0.3,2.6h6.7c-0.2-1.4-0.3-2.8-0.5-4.2
		c-0.5-4.7-0.6-9.3-0.3-14c0.2-2.5,0.5-4.9,0.7-7.4c0-0.2-0.1-0.6-0.2-0.7c-1.3-0.7-2-2.1-1.9-3.6c0-0.6,0-1.3,0-1.9L80.9,48.3
		L80.9,48.3z M101.9,80.2c0-0.1,0-0.1,0-0.2c-1.2-8.5-1.2-17.1,0-25.6c0-0.2-0.1-0.5-0.3-0.6c-1.2-0.7-1.9-1.9-1.8-3.3v-2.1h-2.4
		c0,0.7,0,1.4,0,2c0.1,1.4-0.6,2.7-1.9,3.4c-0.2,0.2-0.3,0.4-0.3,0.6c0.2,1.6,0.4,3.2,0.5,4.9c0.5,5.2,0.5,10.5,0,15.7
		c-0.2,1.7-0.4,3.4-0.6,5.1L101.9,80.2z M64.4,48.4c0,0.7,0,1.4,0,2.1c0.1,1.4-0.6,2.7-1.9,3.4c-0.2,0.1-0.3,0.3-0.3,0.6
		c0.2,1.6,0.4,3.2,0.5,4.8c0.5,5.3,0.5,10.7,0,16.1c-0.2,1.6-0.4,3.2-0.5,4.9h6.7c-0.1-0.6-0.2-1.1-0.2-1.6c-1-8-1-16.1,0.2-24.1
		c0.1-0.3-0.1-0.6-0.3-0.7c-1.2-0.7-1.9-1.9-1.8-3.3v-2.2L64.4,48.4z M49.1,37.7V40h66v-2.3H49.1z M62,48.4h-9.4
		c0,0.1,0,0.2-0.1,0.3c0,0.6,0,1.3,0,1.9c-0.1,0.6,0.4,1.2,1,1.3c0.1,0,0.1,0,0.2,0c2.3,0,4.7,0,7,0c0.6,0,1.2-0.5,1.2-1.1
		c0,0,0-0.1,0-0.1C62,49.9,62,49.2,62,48.4L62,48.4z M69.1,48.4c0,0.8,0,1.6,0,2.4c0,0.6,0.5,1.1,1.2,1.1c0,0,0,0,0,0
		c2.3,0,4.7,0,7,0c0.6,0.1,1.1-0.4,1.2-1c0,0,0,0,0,0c0.1-0.8,0-1.7,0-2.6L69.1,48.4z M95.1,48.4h-9.4c0,0.1,0,0.2-0.1,0.3
		c0,0.7,0,1.3,0,2c0,0.6,0.4,1.2,1.1,1.2c0.1,0,0.1,0,0.2,0c2.3,0,4.7,0,7,0c0.6,0,1.2-0.5,1.2-1.1c0,0,0-0.1,0-0.1
		C95.1,49.9,95.1,49.2,95.1,48.4L95.1,48.4z M102.2,48.4c0,0.8,0,1.6,0,2.4c0,0.6,0.4,1.1,1,1.1c0,0,0,0,0,0c2.5,0,4.9,0,7.4,0
		c0.5,0,0.9-0.4,1-0.9c0.1-0.8,0-1.7,0-2.6L102.2,48.4z"/>
</g>
</svg>
