<?xml version="1.0" encoding="utf-8"?>
<!-- Generator: Adobe Illustrator 25.2.0, SVG Export Plug-In . SVG Version: 6.00 Build 0)  -->
<svg version="1.1" id="Layer_1" xmlns="http://www.w3.org/2000/svg" xmlns:xlink="http://www.w3.org/1999/xlink" x="0px" y="0px"
	 viewBox="0 0 162.4 162.4" style="enable-background:new 0 0 162.4 162.4;" xml:space="preserve">
<style type="text/css">
	.st0{fill:#FFFFFF;}
	.st1{fill:#E78032;}
	.st2{fill:#00B464;}
	.st3{fill:#424770;}
</style>
<g>
	<path d="M53.1,113.5c0-0.7,0.3-1.1,1-1.1c0.3,0,0.5,0.1,0.7,0.3c0.2,0.2,0.3,0.5,0.3,0.8v14.3c0,0.3-0.1,0.7-0.3,0.9
		c-0.2,0.2-0.4,0.2-0.6,0.2c-0.7,0-1-0.4-1-1.1V113.5z"/>
	<path d="M57.7,117.6c0-0.3,0.1-0.6,0.3-0.8c0.2-0.2,0.4-0.3,0.7-0.3c0.3,0,0.5,0.1,0.7,0.3c0.2,0.2,0.3,0.5,0.3,0.8v0.5l0,0
		c0.4-0.5,0.9-0.9,1.5-1.2c0.6-0.3,1.2-0.4,1.8-0.4c0.7,0,1.5,0.2,2.1,0.5c0.7,0.4,1.2,0.9,1.6,1.6c0.4,0.8,0.6,1.7,0.6,2.6v6.8
		c0,0.3-0.1,0.5-0.3,0.7c-0.2,0.2-0.4,0.3-0.7,0.2c-0.3,0-0.5-0.1-0.7-0.3c-0.2-0.2-0.3-0.4-0.3-0.7v-6.7c0-0.8-0.3-1.5-0.8-2.1
		c-0.5-0.5-1.2-0.8-2-0.8c-0.5,0-1,0.1-1.4,0.4c-0.4,0.2-0.8,0.6-1,1c-0.3,0.5-0.4,1-0.4,1.6v6.7c0,0.3-0.1,0.6-0.3,0.8
		c-0.2,0.2-0.4,0.3-0.7,0.3c-0.3,0-0.5-0.1-0.7-0.3c-0.2-0.2-0.3-0.5-0.3-0.8L57.7,117.6z"/>
	<path d="M77.8,118.2v-6c0-0.3,0.1-0.5,0.3-0.7c0.2-0.2,0.4-0.3,0.7-0.3c0.3,0,0.5,0.1,0.7,0.3c0.2,0.2,0.3,0.5,0.3,0.8v15.6
		c0,0.3-0.1,0.6-0.3,0.8c-0.2,0.2-0.5,0.3-0.7,0.3c-0.3,0-0.5-0.1-0.7-0.3c-0.2-0.2-0.3-0.4-0.3-0.7v-0.7l0,0
		c-0.2,0.5-0.6,0.9-1,1.1c-0.6,0.3-1.3,0.5-2,0.5c-2,0.1-3.9-1.1-4.7-3c-0.5-1-0.7-2.1-0.7-3.2c0-0.8,0.1-1.6,0.4-2.4
		c0.2-0.7,0.6-1.4,1.1-2c0.5-0.5,1-1,1.6-1.3c0.6-0.3,1.3-0.5,2.1-0.5C75.8,116.5,77.1,117.1,77.8,118.2L77.8,118.2z M71.3,122.7
		c0,1.1,0.2,2.2,0.8,3.1c0.5,0.9,1.4,1.4,2.4,1.4c0.7,0,1.4-0.2,2-0.7c0.5-0.4,0.9-1,1.1-1.7c0.2-0.7,0.4-1.4,0.4-2.1
		c0-0.8-0.1-1.6-0.4-2.3c-0.2-0.6-0.6-1.2-1.2-1.6c-0.5-0.4-1.1-0.6-1.7-0.6c-0.7,0-1.4,0.2-1.9,0.7c-0.5,0.5-0.9,1-1.1,1.7
		C71.5,121.3,71.4,122,71.3,122.7L71.3,122.7z"/>
	<path d="M83.6,115.1c-0.6,0-1.1-0.5-1.2-1.1c0-0.3,0.1-0.6,0.3-0.8c0.2-0.2,0.5-0.3,0.8-0.4c0.3,0,0.6,0.1,0.8,0.3
		c0.2,0.2,0.3,0.5,0.3,0.8C84.7,114.6,84.2,115.1,83.6,115.1C83.6,115.1,83.6,115.1,83.6,115.1z M82.6,117.5c0-0.3,0.1-0.6,0.3-0.7
		c0.4-0.4,1-0.4,1.4,0c0.2,0.2,0.3,0.5,0.3,0.8v10.3c0,0.3-0.1,0.6-0.3,0.8c-0.4,0.4-1,0.4-1.4,0c-0.2-0.2-0.3-0.5-0.3-0.8V117.5z"
		/>
	<path d="M95.4,118.2v-0.7c0-0.3,0.1-0.5,0.3-0.7c0.3-0.4,0.9-0.4,1.3,0c0,0,0,0,0,0c0.2,0.2,0.3,0.5,0.3,0.7v10.4
		c0,0.3-0.1,0.6-0.3,0.8c-0.2,0.2-0.4,0.3-0.7,0.2c-0.2,0-0.5-0.1-0.7-0.2c-0.2-0.2-0.3-0.4-0.3-0.7v-0.9l0,0
		c-0.7,1.1-1.9,1.8-3.2,1.8c-1,0-1.9-0.2-2.8-0.7c-0.8-0.5-1.5-1.3-2-2.2c-1-2.1-0.9-4.6,0.1-6.7c0.5-0.9,1.2-1.6,2-2.1
		c0.7-0.4,1.6-0.7,2.4-0.7c0.6,0,1.3,0.1,1.9,0.4C94.4,117.3,94.9,117.7,95.4,118.2L95.4,118.2z M88.7,122.7c0,0.7,0.1,1.5,0.4,2.2
		c0.2,0.6,0.6,1.2,1.1,1.6c0.5,0.4,1.1,0.7,1.8,0.6c1,0.1,2-0.4,2.6-1.3c0.5-1,0.8-2.1,0.8-3.2c0-0.8-0.1-1.6-0.4-2.4
		c-0.2-0.6-0.6-1.1-1.2-1.5c-0.5-0.4-1.1-0.6-1.7-0.5l0,0c-1,0-1.9,0.5-2.4,1.3C89,120.5,88.7,121.6,88.7,122.7L88.7,122.7z"/>
	<path d="M99.9,117.6c0-0.3,0.1-0.6,0.3-0.8c0.2-0.2,0.4-0.3,0.7-0.3c0.3,0,0.5,0.1,0.7,0.3c0.2,0.2,0.3,0.5,0.3,0.8v0.5l0,0
		c0.4-0.5,0.9-0.9,1.5-1.2c0.6-0.3,1.2-0.4,1.8-0.4c0.7,0,1.5,0.2,2.1,0.5c0.7,0.4,1.2,0.9,1.6,1.6c0.4,0.8,0.6,1.7,0.6,2.6v6.8
		c0,0.3-0.1,0.5-0.3,0.7c-0.2,0.2-0.4,0.3-0.7,0.2c-0.3,0-0.5-0.1-0.7-0.3c-0.2-0.2-0.3-0.4-0.3-0.7v-6.7c0.1-1.5-1.1-2.8-2.6-2.9
		c-0.1,0-0.1,0-0.2,0c-0.5,0-1,0.1-1.4,0.4c-0.4,0.2-0.8,0.6-1,1c-0.3,0.5-0.4,1-0.4,1.6v6.7c0,0.3-0.1,0.6-0.3,0.8
		c-0.2,0.2-0.4,0.3-0.7,0.3c-0.3,0-0.5-0.1-0.7-0.3c-0.2-0.2-0.3-0.5-0.3-0.8L99.9,117.6z"/>
</g>
<g>
	<circle class="st0" cx="80.5" cy="57.7" r="36.7"/>
	<path class="st1" d="M83.4,21.1l1.2,0.1c0.5,0.1,1.1,0.2,1.6,0.2c5.6,0.8,10.9,3,15.5,6.3c5.9,4.2,10.5,10,13.1,16.8
		c0,0.1,0.1,0.2,0.1,0.3H46.2c0-0.1,0-0.2,0.1-0.3c3.7-9.5,11.1-17.1,20.5-20.9c2.8-1.1,5.7-1.9,8.6-2.3C78,21,80.7,20.9,83.4,21.1z
		"/>
	<path class="st2" d="M55.8,70.4l0.1-0.1c0.3,0,0.6,0,0.9,0h57.1h0.9c-1.2,3.5-3,6.8-5.4,9.7c-5.3,6.9-12.9,11.7-21.4,13.5
		c-0.7,0.2-1.5,0.3-2.2,0.3c-0.6,0-1.2,0-1.8-0.1c-2.9-0.5-5.6-1.3-8.3-2.5c-5.5-2.3-10.3-5.9-14-10.5
		C59.1,77.8,57.1,74.2,55.8,70.4z"/>
	<path class="st2" d="M55.8,70.4c1.4,3.8,3.4,7.4,6,10.5c3.8,4.6,8.6,8.2,14,10.5c2.7,1.1,5.5,1.9,8.3,2.5c0.6,0.1,1.2,0.1,1.8,0.1
		c-1,0.3-2,0.4-3,0.4C71.5,94.8,61.7,91,53.7,82.7c-3.3-3.4-5.8-7.5-7.5-11.9c0-0.1-0.1-0.2-0.1-0.3h8.7c0.3,0,0.5,0,0.8,0
		L55.8,70.4z"/>
	<path class="st3" d="M92,57.7c0,6.3-5.1,11.5-11.4,11.5c-6.3,0-11.5-5.1-11.5-11.4c0-6.3,5.1-11.5,11.4-11.5c0,0,0,0,0,0
		C86.8,46.3,92,51.4,92,57.7z M87.5,52.5l-0.1-0.1c0.3-0.5,0.2-0.9-0.2-1.3s-0.8-0.5-1.3-0.2l-0.1-0.1c0.1-0.3,0.2-0.7-0.2-0.9
		c-0.4-0.2-0.6-0.4-0.9-0.5s-0.5,0.4-0.9,0.4c-0.1-0.4,0.1-0.8-0.4-1c-0.3-0.1-0.6-0.2-1-0.2s-0.4,0.5-0.8,0.6
		c-0.1-0.4-0.1-0.8-0.6-0.8s-1.4-0.2-1.5,0.9c-0.3-0.4-0.4-0.9-1-0.7s-1.3,0.2-1.1,1.3c-0.6-0.9-1.1-0.4-1.6-0.1
		c-0.6,0.3-0.5,0.6-0.3,1l-0.1,0.1c-0.6-0.4-1,0-1.4,0.4c-0.4,0.4-0.3,0.8,0,1.3c-0.4,0-0.9-0.4-1.2,0.2c-0.1,0.3-0.3,0.6-0.5,0.9
		c-0.1,0.3,0.4,0.5,0.4,0.8c-0.4,0.1-0.8-0.1-1,0.5s-0.5,1.2,0.5,1.7c-0.7,0.1-0.9,0.4-0.9,1s0.1,1.1,1,1.2
		c-0.6,0.3-0.9,0.5-0.7,1.2c0.2,0.6,0.4,1.1,1.2,1c-0.9,0.5-0.4,1.1-0.1,1.6c0.3,0.6,0.6,0.5,1,0.3l0.1,0.1c-0.4,0.6,0,1,0.4,1.4
		c0.4,0.4,0.8,0.3,1.3,0c-0.1,0.5-0.4,0.9,0.2,1.2c0.3,0.1,0.6,0.3,0.9,0.4s0.5-0.4,0.8-0.4c0.1,0.4-0.1,0.8,0.5,1
		c0.6,0.1,1.2,0.5,1.6-0.5c0.2,0.5,0.2,1,0.7,0.9c0.3,0,0.7,0,1,0s0.3-0.6,0.5-0.8c0.3,0.4,0.5,0.8,1.1,0.6c0.6-0.2,1.1-0.3,0.9-1.4
		c0.7,1,1.2,0.6,1.8,0.3s0.4-0.6,0.3-1l0.1-0.1c0.4,0.3,1,0.2,1.3-0.2c0,0,0,0,0,0c0.4-0.4,0.5-0.8,0.2-1.3l0.1-0.1
		c0.4,0.1,0.7,0.2,1-0.3c0.3-0.5,0.8-1.1-0.1-1.7c0.5-0.1,1.1,0.1,1.1-0.5c0-0.3,0.2-0.6,0.2-1c0-0.3-0.5-0.3-0.6-0.7
		c0.4-0.1,0.8-0.1,0.8-0.7c0-0.6,0.2-1.4-0.9-1.4c0.8-0.3,0.7-0.8,0.6-1.4c-0.1-0.6-0.5-0.8-1.1-0.7c0.6-0.8,0.6-0.8,0.1-1.6
		C88.2,52.3,87.9,52.3,87.5,52.5L87.5,52.5z"/>
	<path class="st3" d="M82.3,57.7c0,1-0.8,1.8-1.8,1.8c-1,0-1.8-0.8-1.8-1.8c0-1,0.8-1.8,1.8-1.8c0,0,0,0,0,0
		C81.5,55.9,82.3,56.7,82.3,57.7C82.3,57.7,82.3,57.7,82.3,57.7z"/>
	<path class="st3" d="M81.4,55.4c-0.2,0-0.2-0.2-0.1-0.3c0.6-1.4,1.2-2.9,1.7-4.3c0.1-0.1,0.1-0.3,0.3-0.2c0.2,0.1,0.1,0.2,0.1,0.3
		c-0.6,1.4-1.2,2.9-1.7,4.3C81.7,55.3,81.6,55.4,81.4,55.4z"/>
	<path class="st3" d="M87.6,60.3c0,0.2-0.2,0.2-0.3,0.2L83,58.8c-0.1,0-0.2-0.1-0.1-0.3c0-0.1,0.1-0.1,0.2-0.1c0,0,0,0,0,0
		c1.5,0.6,2.9,1.2,4.4,1.8C87.6,60.2,87.6,60.3,87.6,60.3z"/>
	<path class="st3" d="M77.8,50.6c0.1,0,0.2,0.1,0.3,0.2c0.6,1.4,1.1,2.8,1.7,4.2c0.1,0.1,0.1,0.3-0.1,0.4c-0.2,0.1-0.3-0.1-0.3-0.2
		c-0.6-1.4-1.1-2.8-1.7-4.2C77.7,50.8,77.7,50.7,77.8,50.6z"/>
	<path class="st3" d="M83.1,56.8c-0.2,0-0.3,0-0.3-0.1c0-0.1,0.1-0.2,0.2-0.3l4.2-1.7c0.1-0.1,0.3-0.1,0.4,0.1
		c0.1,0.2-0.1,0.3-0.3,0.3l-2.5,1L83.1,56.8z"/>
	<path class="st3" d="M75.5,57.4h2.2c0.1,0,0.4-0.1,0.3,0.2c0,0.3-0.2,0.2-0.3,0.2h-4.4c-0.2,0-0.4,0-0.4-0.2c0-0.2,0.3-0.2,0.4-0.2
		H75.5z"/>
	<path class="st3" d="M85.5,57.4h2.2c0.2,0,0.4,0,0.4,0.2s-0.2,0.2-0.3,0.2h-4.4c-0.2,0-0.3,0-0.3-0.2c0-0.2,0.2-0.2,0.3-0.2
		L85.5,57.4z"/>
	<path class="st3" d="M78,58.4c0.1,0,0.2,0,0.2,0.1c0,0,0,0,0,0c0,0.1-0.1,0.2-0.2,0.3l-1,0.4L74,60.5c-0.1,0.1-0.3,0.1-0.4,0
		s0.1-0.3,0.2-0.4l4-1.6L78,58.4z"/>
	<path class="st3" d="M81.7,59.9c0.1,0,0.1,0.1,0.2,0.2c0.5,1.4,1.1,2.7,1.6,4c0.1,0.1,0.2,0.3-0.1,0.4s-0.2-0.1-0.3-0.2
		c-0.5-1.3-1.1-2.7-1.6-4C81.4,60,81.4,59.9,81.7,59.9z"/>
	<path class="st3" d="M73.9,54.7l0.3,0.1c1.2,0.5,2.5,1,3.7,1.5c0.2,0.1,0.5,0,0.4,0.4c-0.1,0.4-0.3,0.1-0.5,0L74,55.2
		c-0.2-0.1-0.3-0.1-0.3-0.3S73.8,54.6,73.9,54.7z"/>
	<path class="st3" d="M79.7,60.2c0,0.1-0.1,0.2-0.1,0.3c-0.5,1.3-1,2.5-1.5,3.8c-0.1,0.2-0.1,0.4-0.4,0.3c-0.3-0.1-0.1-0.3,0-0.4
		l1.6-3.9c0.1-0.1,0.1-0.4,0.3-0.3C79.7,60,79.7,60.1,79.7,60.2z"/>
	<path class="st3" d="M78.9,55.7c0,0.1-0.1,0.1-0.1,0.2c-0.1,0.1-0.2,0-0.3,0l-3.2-3.2c-0.1-0.1-0.1-0.2-0.1-0.3c0,0,0,0,0,0
		c0.1-0.1,0.2-0.1,0.3,0l3.3,3.3C78.9,55.7,78.9,55.7,78.9,55.7z"/>
	<path class="st3" d="M85.9,52.6c-0.1,0.1-0.2,0.2-0.3,0.3c-1,1-1.9,1.9-2.9,2.9c-0.1,0.1-0.3,0.4-0.5,0.2s0.1-0.3,0.2-0.4
		c1-1,1.9-2,2.9-2.9c0.1-0.1,0.2-0.3,0.4-0.2C85.8,52.4,85.8,52.5,85.9,52.6z"/>
	<path class="st3" d="M78.9,59.6l-0.3,0.3c-1,1-2,2-2.9,2.9c-0.1,0.1-0.3,0.4-0.5,0.2c-0.2-0.2,0-0.3,0.2-0.5l3-3
		c0.1-0.1,0.2-0.3,0.4-0.1C78.9,59.5,78.8,59.5,78.9,59.6z"/>
	<path class="st3" d="M82.5,59.3l0.3,0.3c1,1,2,1.9,2.9,2.9c0.1,0.1,0.4,0.3,0.2,0.4c-0.2,0.2-0.4,0-0.5-0.2c-1-1-2-2-2.9-2.9
		c-0.1-0.1-0.3-0.2-0.2-0.4C82.3,59.3,82.4,59.3,82.5,59.3z"/>
	<path class="st3" d="M80.4,52.7c0-0.7,0-1.4,0-2.1c0-0.1,0-0.3,0.2-0.3c0.2,0,0.2,0.2,0.2,0.3c0,1.5,0,3,0,4.4c0,0.1,0,0.3-0.2,0.3
		c-0.2,0-0.2-0.2-0.2-0.3C80.4,54.2,80.4,53.4,80.4,52.7z"/>
	<path class="st3" d="M80.4,62.6c0-0.7,0-1.4,0-2.1c0-0.1-0.1-0.4,0.2-0.4c0.2,0,0.2,0.2,0.2,0.4c0,1.4,0,2.9,0,4.3
		c0,0.2,0,0.4-0.2,0.4s-0.2-0.3-0.2-0.4C80.4,64.1,80.4,63.3,80.4,62.6z"/>
	<path class="st3" d="M75.3,50.7v0.2l-0.1-0.1L75.3,50.7z"/>
	<path class="st3" d="M85.9,50.8L85.9,50.8C85.8,50.9,85.8,50.8,85.9,50.8L85.9,50.8z"/>
	<path class="st3" d="M87.5,52.5h-0.2l0.1-0.1L87.5,52.5z"/>
	<path class="st3" d="M73.6,62.9h0.2L73.7,63L73.6,62.9z"/>
	<path class="st3" d="M87.4,63L87.4,63l0.1-0.1L87.4,63z"/>
	<path class="st3" d="M85.8,64.6v-0.2V64.6L85.8,64.6z"/>
</g>
</svg>
