<?xml version="1.0" encoding="utf-8"?>
<!-- Generator: Adobe Illustrator 25.2.0, SVG Export Plug-In . SVG Version: 6.00 Build 0)  -->
<svg version="1.1" id="Layer_1" xmlns="http://www.w3.org/2000/svg" xmlns:xlink="http://www.w3.org/1999/xlink" x="0px" y="0px"
	 viewBox="0 0 162.4 162.4" style="enable-background:new 0 0 162.4 162.4;" xml:space="preserve">
<style type="text/css">
	.st0{fill:#6DA544;}
	.st1{fill:#FF9811;}
	.st2{fill:#F0F0F0;}
</style>
<g>
	<path d="M63.3,113.5c0-0.7,0.3-1.1,1-1.1c0.3,0,0.5,0.1,0.7,0.3c0.2,0.2,0.3,0.5,0.3,0.8v14.3c0.1,0.5-0.2,1-0.7,1.1
		c-0.1,0-0.1,0-0.2,0c-0.7,0-1-0.4-1-1.1V113.5z"/>
	<path d="M67.9,117.6c0-0.3,0.1-0.5,0.3-0.7c0.2-0.2,0.4-0.3,0.7-0.3c0.3,0,0.5,0.1,0.7,0.3c0.2,0.2,0.3,0.5,0.3,0.7v1l0,0
		c0.3-0.5,0.7-1,1.2-1.4c0.4-0.4,0.9-0.6,1.5-0.7c0.3,0,0.6,0.1,0.8,0.3c0.2,0.2,0.4,0.4,0.4,0.7c0,0.3-0.1,0.6-0.4,0.8
		c-0.3,0.2-0.7,0.3-1,0.4c-0.3,0.1-0.6,0.2-0.9,0.3c-0.5,0.3-0.9,0.7-1.2,1.2c-0.3,0.6-0.4,1.2-0.4,1.8v5.9c0,0.3-0.1,0.6-0.3,0.8
		c-0.2,0.2-0.4,0.3-0.7,0.3c-0.3,0-0.5-0.1-0.7-0.3c-0.2-0.2-0.3-0.5-0.3-0.8L67.9,117.6z"/>
	<path d="M76,115.2c-0.6,0-1.1-0.5-1.1-1.1c0-0.3,0.1-0.6,0.3-0.8c0.2-0.2,0.5-0.3,0.8-0.4c0.3,0,0.6,0.1,0.8,0.3
		c0.2,0.2,0.3,0.5,0.3,0.8c0,0.3-0.1,0.6-0.3,0.8C76.6,115.1,76.3,115.2,76,115.2z M75,117.6c0-0.3,0.1-0.5,0.3-0.7
		c0.2-0.2,0.4-0.3,0.7-0.3c0.3,0,0.5,0.1,0.7,0.3c0.2,0.2,0.3,0.5,0.3,0.8V128c0,0.3-0.1,0.6-0.3,0.8c-0.2,0.2-0.4,0.3-0.7,0.3
		c-0.3,0-0.5-0.1-0.7-0.3c-0.2-0.2-0.3-0.5-0.3-0.8V117.6z"/>
	<path d="M79.4,127.6c-0.3-0.2-0.5-0.6-0.5-1c0-0.2,0.1-0.5,0.2-0.6c0.2-0.2,0.4-0.2,0.6-0.2c0.2,0,0.4,0.1,0.6,0.1l0.7,0.5
		c0.2,0.1,0.4,0.3,0.6,0.4c0.5,0.3,1.1,0.4,1.7,0.5c0.6,0,1.2-0.1,1.7-0.4c0.5-0.2,0.8-0.8,0.8-1.3c0-0.6-0.4-1.1-0.9-1.4
		c-0.6-0.3-1.2-0.6-1.8-0.8c-0.8-0.3-1.4-0.6-1.9-0.8c-0.5-0.2-0.9-0.6-1.2-1c-0.4-0.5-0.6-1-0.5-1.6c0-0.6,0.2-1.2,0.5-1.7
		c0.4-0.5,0.8-0.9,1.4-1.2c0.7-0.3,1.4-0.5,2.1-0.5c0.7,0,1.5,0.1,2.2,0.4c0.6,0.2,1.1,0.5,1.5,0.8c0.3,0.2,0.5,0.6,0.5,0.9
		c0,0.2-0.1,0.4-0.2,0.6c-0.2,0.2-0.4,0.3-0.6,0.3c-0.4-0.1-0.8-0.3-1.1-0.5c-0.4-0.2-0.7-0.4-1.1-0.6c-0.3-0.1-0.6-0.2-0.9-0.2
		c-0.6,0-1.1,0.1-1.6,0.4c-0.4,0.3-0.6,0.7-0.6,1.1c0.1,0.4,0.3,0.7,0.5,0.9c0.3,0.3,0.6,0.5,1,0.6c0.4,0.2,0.9,0.4,1.3,0.5l1.1,0.4
		c0.7,0.3,1.4,0.7,1.9,1.3c0.4,0.5,0.6,1.2,0.6,1.8c0,0.6-0.2,1.2-0.5,1.7c-0.4,0.6-0.9,1-1.5,1.3c-0.8,0.4-1.6,0.5-2.5,0.5
		C81.9,129,80.5,128.5,79.4,127.6z"/>
	<path d="M89.8,112.3c0-0.3,0.1-0.6,0.3-0.8c0.4-0.4,1-0.4,1.4,0c0.2,0.2,0.3,0.5,0.3,0.8v5.8l0,0c0.4-0.5,0.8-0.9,1.4-1.2
		c0.6-0.3,1.2-0.4,1.8-0.4c0.8,0,1.5,0.2,2.2,0.6c0.7,0.4,1.2,1,1.5,1.7c0.4,0.7,0.6,1.5,0.6,2.2v6.9c0,0.3-0.1,0.6-0.3,0.8
		c-0.2,0.2-0.4,0.3-0.7,0.3c-0.3,0-0.5-0.1-0.7-0.3c-0.2-0.2-0.3-0.5-0.3-0.8v-6.6c0-0.8-0.2-1.5-0.8-2.1c-0.5-0.6-1.3-0.9-2-0.9
		c-0.5,0-1,0.1-1.4,0.3c-0.4,0.2-0.8,0.6-1.1,1c-0.3,0.5-0.4,1.1-0.4,1.6v6.7c0,0.3-0.1,0.6-0.3,0.8c-0.2,0.2-0.4,0.3-0.7,0.3
		c-0.3,0-0.5-0.1-0.7-0.3c-0.2-0.2-0.3-0.5-0.3-0.8L89.8,112.3z"/>
</g>
<g>
	<path class="st0" d="M44.4,57.7c0,15.6,9.9,29.5,24.6,34.7V23.1C54.3,28.2,44.5,42.1,44.4,57.7z"/>
	<path class="st1" d="M117.9,57.7c0-15.6-9.9-29.5-24.6-34.7v69.3C108.1,87.2,117.9,73.3,117.9,57.7z"/>
	<path class="st2" d="M69,23.1v69.3c7.9,2.7,16.4,2.7,24.3,0V23.1C85.5,20.3,76.9,20.3,69,23.1z"/>
</g>
</svg>
