<?xml version="1.0" encoding="utf-8"?>
<!-- Generator: Adobe Illustrator 25.2.0, SVG Export Plug-In . SVG Version: 6.00 Build 0)  -->
<svg version="1.1" id="Layer_1" xmlns="http://www.w3.org/2000/svg" xmlns:xlink="http://www.w3.org/1999/xlink" x="0px" y="0px"
	 viewBox="0 0 162.4 162.4" style="enable-background:new 0 0 162.4 162.4;" xml:space="preserve">
<style type="text/css">
	.st0{fill:none;}
</style>
<g>
	<path d="M54.7,113.5c0-0.3,0.1-0.6,0.3-0.8c0.2-0.2,0.4-0.3,0.7-0.3c0.3,0,0.5,0.1,0.7,0.3c0.2,0.2,0.3,0.5,0.3,0.8v11.1
		c0,0.6-0.1,1.2-0.2,1.8c-0.2,0.7-0.5,1.3-1,1.7c-0.7,0.6-1.6,0.9-2.5,0.9c-0.6,0-1.1-0.1-1.6-0.2c-0.5-0.1-1-0.4-1.4-0.7
		c-0.3-0.2-0.5-0.5-0.6-0.9c0-0.6,0.3-0.8,0.8-0.8c0.2,0,0.4,0,0.5,0.1c0.1,0.1,0.2,0.1,0.3,0.2l0.3,0.2c0.2,0.1,0.4,0.2,0.6,0.3
		c0.3,0.1,0.6,0.1,0.9,0.1c0.5,0,1-0.2,1.3-0.5c0.4-0.5,0.6-1.1,0.5-1.7L54.7,113.5z"/>
	<path d="M58.2,122.6c0-1,0.3-2,0.7-3c0.4-0.9,1-1.7,1.8-2.3c0.8-0.6,1.8-0.9,2.8-0.9c1,0,2,0.3,2.8,0.8c0.8,0.6,1.5,1.4,1.9,2.3
		c0.4,0.9,0.7,1.9,0.7,2.9c0,0.6-0.4,1-1.1,1h-7.6c0,0.7,0.2,1.4,0.5,2c0.3,0.6,0.7,1,1.3,1.3c0.6,0.3,1.2,0.4,1.8,0.4
		c1.2,0,2.4-0.5,3.2-1.3c0.2-0.2,0.5-0.3,0.8-0.4c0.2,0,0.4,0.1,0.5,0.3c0.1,0.2,0.2,0.4,0.2,0.6c0,0.3-0.1,0.5-0.3,0.7
		c-0.5,0.6-1.2,1-1.9,1.3c-0.8,0.3-1.7,0.5-2.6,0.5c-0.9,0-1.8-0.2-2.6-0.6c-0.7-0.3-1.3-0.8-1.8-1.5c-0.4-0.6-0.8-1.3-1-2
		c-0.2-0.7-0.3-1.4-0.3-2.2L58.2,122.6L58.2,122.6z M60.2,122h6.7c0-1-0.3-1.9-0.9-2.7c-0.6-0.7-1.5-1.1-2.4-1.1
		c-0.9,0-1.8,0.3-2.4,1C60.6,120,60.2,121,60.2,122z"/>
	<path d="M69.6,117.9l-0.1-0.4c0-0.2,0.1-0.5,0.3-0.6c0.2-0.2,0.4-0.3,0.7-0.3c0.5-0.1,0.9,0.2,1.1,0.7l2.7,8.5l0,0l2.7-8.5
		c0.1-0.3,0.2-0.5,0.4-0.7c0.2-0.2,0.4-0.2,0.6-0.2c0.5,0,0.8,0.3,1,0.9l2.7,8.4l0,0l2.6-8.4c0.1-0.5,0.5-0.9,1.1-0.9
		c0.2,0,0.5,0.1,0.7,0.3c0.2,0.2,0.3,0.4,0.3,0.7c0,0.2,0,0.3-0.1,0.5l-3.4,10c-0.2,0.7-0.6,1-1.1,1c-0.3,0-0.5-0.1-0.7-0.2
		c-0.2-0.2-0.4-0.5-0.5-0.9l-2.6-8.1l0,0l-2.5,7.9c-0.1,0.4-0.3,0.7-0.5,1c-0.2,0.2-0.5,0.3-0.8,0.3c-0.3,0-0.5-0.1-0.7-0.2
		c-0.2-0.3-0.4-0.6-0.5-1L69.6,117.9z"/>
	<path d="M88.7,115.1c-0.6,0-1.1-0.5-1.1-1.1c0,0,0,0,0,0c0-0.3,0.1-0.6,0.3-0.8c0.2-0.2,0.5-0.3,0.8-0.3c0.3,0,0.6,0.1,0.8,0.3
		c0.4,0.5,0.4,1.2,0,1.6C89.3,115,89,115.1,88.7,115.1z M87.7,117.6c0-0.3,0.1-0.6,0.3-0.8c0.4-0.4,1-0.4,1.4,0
		c0.2,0.2,0.3,0.5,0.3,0.8v10.3c0,0.3-0.1,0.6-0.3,0.8c-0.4,0.4-1,0.4-1.4,0c-0.2-0.2-0.3-0.5-0.3-0.8V117.6z"/>
	<path d="M92,127.6c-0.3-0.2-0.5-0.6-0.5-1c0-0.2,0.1-0.5,0.3-0.6c0.2-0.2,0.4-0.3,0.6-0.2c0.2,0,0.4,0.1,0.6,0.2
		c0.1,0.1,0.4,0.2,0.7,0.5c0.3,0.2,0.4,0.2,0.6,0.4c0.5,0.3,1.1,0.4,1.7,0.5c0.6,0,1.2-0.1,1.7-0.4c0.5-0.2,0.8-0.8,0.8-1.3
		c-0.1-0.6-0.4-1.1-0.9-1.3c-0.6-0.3-1.1-0.6-1.8-0.8c-0.8-0.3-1.4-0.6-2-0.8c-0.5-0.2-0.9-0.6-1.2-1c-0.4-0.5-0.6-1-0.5-1.6
		c0-0.6,0.2-1.2,0.5-1.7c0.4-0.5,0.8-0.9,1.4-1.2c0.7-0.3,1.4-0.5,2.1-0.5c0.7,0,1.5,0.1,2.2,0.4c0.6,0.2,1.1,0.5,1.5,0.8
		c0.3,0.2,0.5,0.6,0.5,0.9c0,0.2-0.1,0.4-0.2,0.6c-0.2,0.2-0.4,0.3-0.6,0.3c-0.4-0.1-0.8-0.3-1.1-0.5c-0.4-0.2-0.7-0.4-1.1-0.6
		c-0.3-0.1-0.6-0.2-0.9-0.2c-0.6,0-1.1,0.1-1.6,0.4c-0.4,0.3-0.6,0.7-0.6,1.1c0.1,0.4,0.3,0.7,0.5,0.9c0.3,0.3,0.6,0.5,1,0.6
		c0.4,0.2,0.9,0.4,1.3,0.5l1.1,0.4c0.7,0.3,1.4,0.7,1.9,1.3c0.4,0.5,0.6,1.2,0.6,1.8c0,0.6-0.2,1.2-0.5,1.7c-0.4,0.6-0.9,1-1.5,1.3
		c-0.8,0.4-1.6,0.5-2.5,0.5C94.5,129,93.1,128.5,92,127.6z"/>
	<path d="M102.4,112.3c0-0.3,0.1-0.6,0.3-0.8c0.2-0.2,0.4-0.3,0.7-0.3c0.5,0,1,0.4,1,0.9c0,0,0,0.1,0,0.1v5.8l0,0
		c0.4-0.5,0.9-0.9,1.4-1.2c0.6-0.3,1.2-0.4,1.9-0.4c0.8,0,1.5,0.2,2.2,0.6c0.7,0.4,1.2,1,1.5,1.7c0.4,0.7,0.6,1.5,0.6,2.2v6.9
		c0,0.3-0.1,0.6-0.3,0.8c-0.4,0.4-1,0.4-1.4,0c-0.2-0.2-0.3-0.5-0.3-0.8v-6.6c0-0.8-0.3-1.5-0.8-2.1c-0.5-0.6-1.2-0.9-2-0.9
		c-0.5,0-1,0.1-1.4,0.3c-0.4,0.2-0.8,0.6-1,1c-0.3,0.5-0.4,1.1-0.4,1.6v6.7c0,0.3-0.1,0.6-0.3,0.8c-0.4,0.4-1,0.4-1.4,0
		c-0.2-0.2-0.3-0.5-0.3-0.8L102.4,112.3z"/>
</g>
<g>
	<polygon class="st0" points="67,42.6 53.6,42.6 60.3,54.3 	"/>
	<polygon class="st0" points="79.6,27.5 72.9,39.1 86.3,39.1 	"/>
	<polygon class="st0" points="105.7,42.6 92.3,42.6 99,54.3 	"/>
	<polygon class="st0" points="53.6,72.7 67,72.7 60.3,61 	"/>
	<path class="st0" d="M96.7,56.8c-2.6-4.5-5.2-9-7.8-13.5c-0.3-0.5-0.8-0.9-1.4-0.8H71.9c-0.6,0-1.1,0.3-1.4,0.8
		c-2.6,4.5-5.2,9-7.8,13.5c-0.3,0.5-0.3,1.1,0,1.5c2.6,4.5,5.2,9,7.8,13.5c0.2,0.5,0.8,0.8,1.3,0.8h11.8l0,0.1h3.8
		c0.6,0,1.1-0.3,1.4-0.8c2.6-4.5,5.2-9,7.8-13.5C97,57.9,97,57.3,96.7,56.8z"/>
	<polygon class="st0" points="92.3,72.7 105.8,72.7 99.1,61 	"/>
	<polygon class="st0" points="79.7,87.7 86.4,76.1 73,76.1 	"/>
	<path d="M110.2,73.5c-2.9-5-5.8-10-8.7-15.1c-0.4-0.5-0.4-1.3,0-1.8c2.8-4.9,5.7-9.8,8.5-14.7l1.6-2.8H91.3c-0.7,0-1.3-0.3-1.6-0.9
		c-2.9-5-5.8-10.1-8.7-15.1l-1.3-2.3c-0.5,0.7-1.1,1.7-2.1,3.3c-2.7,4.7-5.4,9.3-8.1,14c-0.3,0.7-1,1-1.7,1c-3.7,0-7.4,0-11.1,0h-9
		l1.9,3.2c2.8,4.8,5.5,9.6,8.3,14.4c0.4,0.5,0.4,1.2,0,1.7c-2.8,4.9-5.6,9.7-8.4,14.6l-1.7,3H68c0.7-0.1,1.3,0.3,1.6,0.9
		c2.8,4.9,5.6,9.7,8.4,14.6l1.6,2.9l2-3.4c2.7-4.7,5.4-9.3,8.1-14c0.3-0.7,1-1.1,1.8-1h20.1L110.2,73.5z M105.7,42.6L99,54.3
		l-6.7-11.6H105.7z M79.6,27.5l6.7,11.6H72.9L79.6,27.5z M53.6,42.6H67l-6.7,11.6L53.6,42.6z M53.6,72.7L60.3,61L67,72.7H53.6z
		 M79.7,87.7L73,76.1h13.4L79.7,87.7z M88.8,71.9c-0.3,0.5-0.8,0.8-1.4,0.8h-3.8l0-0.1H71.8c-0.6,0-1.1-0.3-1.3-0.8
		c-2.6-4.5-5.2-9-7.8-13.5c-0.3-0.5-0.3-1.1,0-1.5c2.6-4.5,5.2-9,7.8-13.5c0.3-0.5,0.8-0.8,1.4-0.8h15.5c0.6,0,1.2,0.3,1.4,0.8
		c2.6,4.5,5.2,9,7.8,13.5c0.3,0.5,0.3,1.1,0,1.5C94,62.9,91.4,67.4,88.8,71.9z M92.3,72.7L99.1,61l6.7,11.7H92.3z"/>
</g>
</svg>
