<?xml version="1.0" encoding="utf-8"?>
<!-- Generator: Adobe Illustrator 25.2.0, SVG Export Plug-In . SVG Version: 6.00 Build 0)  -->
<svg version="1.1" id="Layer_1" xmlns="http://www.w3.org/2000/svg" xmlns:xlink="http://www.w3.org/1999/xlink" x="0px" y="0px"
	 viewBox="0 0 162.4 162.4" style="enable-background:new 0 0 162.4 162.4;" xml:space="preserve">
<style type="text/css">
	.st0{fill:#BBBDBF;}
	.st1{fill:#F0F0F0;}
	.st2{fill:#2F4592;}
	.st3{fill:#D92E2F;}
	.st4{fill:#2B2C2E;}
	.st5{fill:#2C2D2F;}
</style>
<g>
	<path d="M48.2,113.5c0-0.3,0.1-0.6,0.3-0.8c0.2-0.2,0.4-0.3,0.7-0.3c0.3,0,0.5,0.1,0.7,0.3c0.2,0.2,0.3,0.5,0.3,0.8v6l7.2-6.6
		c0.2-0.2,0.6-0.4,0.9-0.4c0.2,0,0.5,0.1,0.6,0.3c0.2,0.2,0.3,0.4,0.2,0.7c0,0.3-0.1,0.6-0.4,0.8l-6.7,6l7.4,7.1
		c0.2,0.2,0.4,0.5,0.4,0.8c0,0.2-0.1,0.4-0.3,0.6c-0.2,0.2-0.4,0.3-0.7,0.2c-0.4,0-0.8-0.2-1-0.5l-7.6-7.4v6.9
		c0,0.3-0.1,0.6-0.3,0.8c-0.2,0.2-0.4,0.3-0.7,0.3c-0.3,0-0.5-0.1-0.7-0.3c-0.2-0.2-0.3-0.5-0.3-0.8L48.2,113.5z"/>
	<path d="M60.4,122.7c0-1.1,0.2-2.2,0.7-3.2c0.4-0.9,1.1-1.7,1.9-2.2c0.8-0.5,1.8-0.8,2.8-0.8c1,0,2,0.3,2.8,0.9
		c0.8,0.6,1.5,1.4,1.9,2.3c0.4,1,0.6,2,0.6,3.1c0,1.1-0.2,2.1-0.6,3.1c-0.4,0.9-1.1,1.7-1.9,2.3c-1.7,1.1-3.9,1.1-5.7,0
		c-0.8-0.6-1.5-1.4-1.9-2.3C60.6,124.9,60.4,123.8,60.4,122.7z M62.4,122.7c0,1.1,0.3,2.1,0.8,3.1c0.5,0.9,1.5,1.5,2.5,1.4
		c0.7,0,1.3-0.2,1.9-0.6c0.5-0.4,0.9-1,1.1-1.6c0.3-0.7,0.4-1.5,0.4-2.2c0-0.8-0.1-1.5-0.4-2.3c-0.2-0.6-0.6-1.2-1.1-1.6
		c-0.5-0.4-1.2-0.6-1.8-0.6c-0.7,0-1.3,0.2-1.8,0.6c-0.5,0.4-0.9,1-1.1,1.6C62.5,121.2,62.4,122,62.4,122.7z"/>
	<path d="M73.1,117.6c0-0.3,0.1-0.5,0.3-0.7c0.2-0.2,0.4-0.3,0.7-0.3c0.3,0,0.5,0.1,0.7,0.3c0.2,0.2,0.3,0.5,0.3,0.7v1l0,0
		c0.3-0.5,0.7-1,1.2-1.4c0.4-0.4,1-0.6,1.5-0.7c0.3,0,0.6,0.1,0.8,0.3c0.2,0.2,0.4,0.4,0.4,0.7c0,0.3-0.1,0.6-0.4,0.8
		c-0.3,0.2-0.7,0.3-1,0.4c-0.3,0.1-0.6,0.2-0.9,0.3c-0.5,0.3-0.9,0.7-1.2,1.2c-0.3,0.6-0.4,1.2-0.4,1.8v5.9c0,0.3-0.1,0.6-0.3,0.8
		c-0.2,0.2-0.4,0.3-0.7,0.3c-0.3,0-0.5-0.1-0.7-0.3c-0.2-0.2-0.3-0.5-0.3-0.8L73.1,117.6z"/>
	<path d="M79.5,122.6c0-1,0.3-2,0.7-3c0.4-0.9,1-1.7,1.8-2.3c0.8-0.6,1.8-0.9,2.8-0.9c1,0,2,0.3,2.8,0.8c0.8,0.6,1.5,1.4,1.9,2.3
		c0.4,0.9,0.7,1.9,0.7,2.9c0,0.7-0.4,1-1.1,1h-7.6c0,0.7,0.2,1.4,0.5,2c0.3,0.6,0.7,1,1.3,1.3c0.6,0.3,1.2,0.4,1.8,0.4
		c1.2,0,2.4-0.5,3.3-1.3c0.2-0.2,0.5-0.3,0.8-0.4c0.2,0,0.4,0.1,0.5,0.3c0.1,0.2,0.2,0.4,0.2,0.6c0,0.3-0.1,0.5-0.3,0.7
		c-0.5,0.6-1.2,1-1.9,1.3c-0.8,0.3-1.7,0.5-2.6,0.5c-0.9,0-1.8-0.2-2.6-0.6c-0.7-0.3-1.3-0.8-1.8-1.5c-0.4-0.6-0.8-1.3-1-2
		c-0.2-0.7-0.3-1.4-0.3-2.2L79.5,122.6L79.5,122.6z M81.5,122h6.7c0-1-0.3-1.9-0.9-2.7c-0.6-0.7-1.4-1.1-2.3-1.1
		c-0.9,0-1.8,0.3-2.4,1C81.8,120,81.5,121,81.5,122z"/>
	<path d="M100.2,118.2v-0.7c0-0.3,0.1-0.5,0.3-0.7c0.2-0.2,0.4-0.3,0.7-0.3c0.2,0,0.5,0.1,0.7,0.3c0.2,0.2,0.3,0.5,0.3,0.8v10.4
		c0,0.3-0.1,0.6-0.3,0.8c-0.2,0.2-0.4,0.3-0.7,0.2c-0.2,0-0.5-0.1-0.7-0.2c-0.2-0.2-0.3-0.4-0.3-0.7v-0.9l0,0
		c-0.7,1.1-2,1.7-3.3,1.7c-1,0-1.9-0.2-2.8-0.8c-0.8-0.5-1.5-1.3-2-2.2c-1-2.1-0.9-4.6,0.1-6.7c0.5-0.9,1.2-1.6,2.1-2.1
		c0.7-0.4,1.6-0.7,2.4-0.7c0.6,0,1.3,0.1,1.9,0.4C99.3,117.2,99.8,117.6,100.2,118.2L100.2,118.2z M93.6,122.7
		c0,0.7,0.1,1.5,0.4,2.2c0.2,0.6,0.6,1.2,1.1,1.6c0.5,0.4,1.1,0.6,1.8,0.6c1,0.1,2-0.4,2.6-1.3c0.5-1,0.8-2.1,0.8-3.2
		c0-0.8-0.1-1.6-0.4-2.4c-0.2-0.6-0.6-1.2-1.2-1.5c-0.5-0.4-1.1-0.6-1.7-0.5l0,0c-1,0-1.9,0.5-2.4,1.3
		C93.9,120.5,93.5,121.6,93.6,122.7z"/>
	<path d="M104.8,117.6c0-0.3,0.1-0.6,0.3-0.8c0.2-0.2,0.4-0.3,0.7-0.3c0.3,0,0.5,0.1,0.7,0.3c0.2,0.2,0.3,0.5,0.3,0.8v0.5l0,0
		c0.4-0.5,0.9-0.9,1.5-1.2c0.6-0.3,1.2-0.4,1.8-0.4c0.7,0,1.4,0.2,2.1,0.5c0.7,0.4,1.2,0.9,1.6,1.6c0.4,0.8,0.6,1.7,0.6,2.6v6.8
		c0,0.3-0.1,0.5-0.3,0.7c-0.2,0.2-0.4,0.2-0.7,0.2c-0.3,0-0.5-0.1-0.7-0.3c-0.2-0.2-0.3-0.4-0.3-0.7v-6.7c0-0.8-0.3-1.6-0.8-2.1
		c-0.5-0.5-1.2-0.8-2-0.8c-0.5,0-1,0.1-1.4,0.3c-0.4,0.2-0.8,0.6-1,1c-0.3,0.5-0.4,1-0.4,1.6v6.7c0,0.3-0.1,0.6-0.3,0.8
		c-0.4,0.4-1,0.4-1.4,0c-0.2-0.2-0.3-0.5-0.3-0.8L104.8,117.6z"/>
</g>
<g>
	<path class="st0" d="M106.6,30.5c13.6,15.1,12.5,38.3-2.6,51.9C90,95,68.7,95,54.7,82.4c13.6,15.1,36.9,16.2,51.9,2.6
		s16.2-36.9,2.6-51.9C108.3,32.2,107.5,31.3,106.6,30.5L106.6,30.5z"/>
	<path class="st1" d="M73.4,59c0,0.5,0.1,0.9,0.2,1.4c1,4.5,5.4,7.4,9.9,6.4c1.1-0.2,2.1-0.7,3-1.3c2.1-1.4,3.5-3.7,3.6-6.2
		c0-0.7,0-1.5-0.1-2.2c-0.7-4.5-5-7.7-9.5-6.9C76.1,50.8,73.1,54.7,73.4,59L73.4,59z M68.7,54.7c0.2,0,0.2-0.1,0.3-0.2l3.8-3.9
		c0.3-0.3,0.7-0.5,0.7-0.9s-0.5-0.5-0.7-0.9s-0.3-0.2-0.5,0c-1.3,1.4-2.7,2.7-4,4.1c-0.6,0.7-0.6,0.7,0,1.3L68.7,54.7z M70.5,46.6
		l-0.2-0.2c-0.2-0.2-0.4-0.4-0.6-0.6c-0.2-0.2-0.3-0.2-0.5,0c-1.4,1.5-2.9,3-4.4,4.5c-0.2,0.2-0.3,0.3,0,0.6
		c0.2,0.2,0.4,0.4,0.6,0.6c0.2,0.2,0.3,0.2,0.5,0c1.5-1.5,2.9-3,4.4-4.5L70.5,46.6z M72.1,48.2L71.9,48c-0.2-0.2-0.4-0.4-0.6-0.6
		s-0.3-0.3-0.6,0c-1.2,1.3-2.5,2.6-3.8,3.9c-0.3,0.3-0.8,0.5-0.7,0.9s0.5,0.6,0.8,0.9c0.2,0.2,0.3,0.2,0.4,0c1.5-1.5,3-3.1,4.5-4.6
		C72,48.3,72,48.2,72.1,48.2L72.1,48.2z M73.7,67.4c-0.1-0.1-0.1-0.2-0.2-0.2c-1.5-1.5-3-3-4.5-4.5c-0.2-0.2-0.3-0.2-0.5,0
		c-0.2,0.2-0.4,0.4-0.6,0.6c-0.2,0.2-0.2,0.3,0,0.5c1.4,1.4,2.7,2.7,4.1,4.1c0.6,0.6,0.6,0.6,1.2,0L73.7,67.4z M97.2,51.9L97,51.6
		l-3.8-3.9c-0.3-0.3-0.5-0.7-0.8-0.7s-0.5,0.5-0.8,0.7c-0.3,0.2-0.2,0.3,0,0.6c1.3,1.3,2.6,2.6,3.9,3.9c0.2,0.2,0.5,0.7,0.7,0.7
		c0.3,0,0.5-0.4,0.8-0.7C97,52.1,97.2,51.9,97.2,51.9L97.2,51.9z M65.6,65.6l-0.2,0.2c-0.2,0.2-0.4,0.4-0.6,0.6s-0.2,0.3,0,0.5
		c1.3,1.3,2.5,2.6,3.8,3.8c0.3,0.3,0.6,0.8,0.9,0.8s0.6-0.5,0.9-0.8c0.2-0.1,0.2-0.2,0-0.4c-1.5-1.5-3-3-4.5-4.6L65.6,65.6z
		 M95.6,63.7c-0.1-0.1-0.1-0.1-0.2-0.2c-0.2-0.2-0.5-0.5-0.7-0.7c-0.2-0.2-0.3-0.2-0.4,0c-0.3,0.3-0.6,0.6-0.9,0.9
		c-0.3,0.3-0.8,0.5-0.7,0.9c0.1,0.4,0.5,0.6,0.8,0.9s0.3,0.2,0.4,0c0.5-0.5,1-1,1.5-1.5L95.6,63.7z M98.8,50.3l-0.2-0.2l-0.9-0.9
		c-0.3-0.3-0.6-0.8-0.9-0.8c-0.2,0-0.6,0.5-0.9,0.8c-0.2,0.1-0.2,0.2,0,0.4c0.3,0.3,0.6,0.6,0.9,0.9c0.9,0.9,0.9,0.9,1.8-0.1
		L98.8,50.3z M68.1,67c0.3-0.3,0.8-0.6,0.9-1c0.1-0.4-0.6-0.7-0.9-1L68,64.9c-0.3-0.3-0.6-0.8-0.9-0.8c-0.3,0-0.6,0.5-0.9,0.8l0,0
		c-0.1,0.1-0.1,0.2,0,0.3L68.1,67z M96.1,64.2l-0.2,0.2c-0.5,0.5-1.1,1.1-1.6,1.6c-0.1,0.1-0.1,0.2,0,0.3c0.3,0.2,0.5,0.5,0.7,0.7
		c0.2,0.2,0.3,0.1,0.4,0c0.3-0.3,0.6-0.6,0.9-1c0.3-0.3,0.7-0.5,0.7-0.8c0-0.3-0.4-0.5-0.7-0.8L96.1,64.2z M96.7,68.7
		c0.1,0,0.2,0,0.3-0.1l0.9-0.9c0.8-0.9,0.8-0.8,0-1.7c-0.2-0.2-0.3-0.2-0.5,0c-0.3,0.4-0.7,0.7-1,1c-0.6,0.7-0.6,0.7,0,1.3
		C96.5,68.4,96.6,68.6,96.7,68.7L96.7,68.7z M95.8,47.2L95.6,47c-0.3-0.3-0.6-0.6-0.9-0.9c-0.3-0.3-0.5-0.8-0.8-0.7
		s-0.6,0.5-0.9,0.8c-0.3,0.3-0.2,0.3,0,0.5c0.2,0.2,0.5,0.6,0.8,0.8c0.3,0.3,0.5,0.8,0.8,0.7s0.6-0.5,0.8-0.8L95.8,47.2z M72.1,69
		l-0.2-0.2c-0.3-0.3-0.6-0.6-0.9-0.9c-0.3-0.3-0.5-0.8-0.9-0.7c-0.3,0.1-0.6,0.5-0.9,0.8c-0.3,0.3-0.2,0.3,0,0.4
		c0.4,0.3,0.7,0.7,1.1,1c0.7,0.7,0.7,0.7,1.3,0L72.1,69z M92.2,70.3l0.3-0.2c0.3-0.3,0.6-0.6,0.8-0.9c0.3-0.3,0.8-0.5,0.7-0.9
		s-0.5-0.6-0.8-0.9c-0.3-0.3-0.3-0.2-0.4,0c-0.2,0.2-0.6,0.6-0.9,0.9s-0.7,0.5-0.7,0.8c0,0.3,0.5,0.5,0.7,0.8L92.2,70.3z M95.6,69.9
		l-0.1-0.1l-0.9-0.9c-0.1-0.1-0.2,0-0.3,0.1l-0.9,0.9c-0.9,0.9-0.9,0.9,0,1.8c0.2,0.1,0.2,0.2,0.4,0c0.5-0.5,1-1.1,1.5-1.6
		L95.6,69.9z M91.6,51.4l0.2-0.2c0.2-0.2,0.4-0.5,0.7-0.7c0.3-0.2,0.2-0.3,0-0.4c-0.3-0.3-0.6-0.6-0.9-0.9s-0.5-0.8-0.9-0.8
		c-0.4,0-0.6,0.5-0.9,0.8c-0.3,0.3-0.2,0.3,0,0.4c0.5,0.5,1,1,1.5,1.5L91.6,51.4z M95.7,53.4c-0.1-0.1-0.1-0.1-0.2-0.2
		c-0.3-0.3-0.6-0.6-0.9-0.9c-0.3-0.3-0.6-0.8-0.9-0.8s-0.6,0.5-0.9,0.8c-0.2,0.2-0.1,0.2,0,0.4l1.1,1.1c0.6,0.6,0.6,0.6,1.2,0
		L95.7,53.4z M91.5,65.5l-0.3,0.2l-0.9,0.9c-0.3,0.3-0.7,0.6-0.7,0.9c0,0.3,0.5,0.6,0.8,0.9c0.3,0.3,0.3,0.2,0.4,0
		c0.2-0.2,0.6-0.6,0.9-0.9c0.3-0.3,0.7-0.5,0.7-0.8c0-0.3-0.5-0.5-0.7-0.8C91.7,65.8,91.6,65.7,91.5,65.5L91.5,65.5z"/>
	<path class="st2" d="M90,59.2c-0.1,2.5-1.5,4.9-3.6,6.2c-3.8,2.6-9,1.7-11.6-2.1c-0.6-0.9-1.1-1.9-1.3-3c-0.1-0.4-0.2-0.9-0.2-1.4
		c0.1,0.4,0.3,0.8,0.6,1.1c0.9,1.1,2.2,1.7,3.7,1.6c1.4,0,2.6-0.8,3.1-2.1c0.3-0.7,0.5-1.5,0.8-2.3c0.4-1.2,1.4-2.1,2.6-2.3
		c2-0.3,3.9,0.2,5,2.3c0.3,0.7,0.6,1.4,0.7,2.1L90,59.2z"/>
	<path class="st3" d="M90,59.2l-0.1,0.2c-0.1-0.7-0.4-1.4-0.7-2.1c-1.1-2.2-3-2.6-5-2.3c-1.2,0.2-2.3,1.1-2.6,2.3
		c-0.3,0.8-0.5,1.5-0.8,2.3c-0.5,1.3-1.7,2.2-3.1,2.1c-1.4,0.2-2.8-0.4-3.7-1.6c-0.2-0.3-0.4-0.7-0.6-1.1c-0.4-4.6,3.1-8.6,7.7-8.9
		c4.3-0.3,8.2,2.7,8.9,7C90,57.8,90.1,58.5,90,59.2z"/>
	<path class="st4" d="M68.7,54.7l-0.4-0.4c-0.6-0.7-0.6-0.7,0-1.3c1.3-1.4,2.7-2.7,4-4.1c0.2-0.2,0.3-0.3,0.5,0
		c0.2,0.3,0.7,0.5,0.7,0.9c0,0.4-0.5,0.6-0.7,0.9L69,54.6C68.9,54.6,68.9,54.7,68.7,54.7z"/>
	<path class="st4" d="M70.5,46.5l-0.2,0.2c-1.5,1.5-2.9,3-4.4,4.5c-0.2,0.2-0.3,0.2-0.5,0c-0.2-0.2-0.4-0.4-0.6-0.6
		c-0.3-0.2-0.2-0.4,0-0.6c1.5-1.5,2.9-3,4.4-4.5c0.2-0.2,0.3-0.2,0.5,0c0.2,0.2,0.4,0.4,0.6,0.6L70.5,46.5z"/>
	<path class="st4" d="M72.1,48.2c-0.1,0.1-0.1,0.1-0.2,0.2c-1.5,1.5-3,3.1-4.5,4.6c-0.2,0.2-0.3,0.2-0.4,0c-0.3-0.3-0.7-0.6-0.8-0.9
		c0-0.3,0.5-0.6,0.7-0.9c1.3-1.3,2.5-2.6,3.8-3.9c0.2-0.3,0.4-0.3,0.6,0c0.2,0.3,0.4,0.4,0.6,0.6L72.1,48.2z"/>
	<path class="st4" d="M73.7,67.4l-0.5,0.5c-0.6,0.6-0.6,0.6-1.2,0c-1.4-1.4-2.7-2.8-4.1-4.1c-0.2-0.2-0.3-0.3,0-0.5
		c0.2-0.2,0.4-0.4,0.6-0.6c0.2-0.2,0.3-0.2,0.5,0c1.5,1.5,3,3,4.5,4.5C73.6,67.2,73.6,67.3,73.7,67.4z"/>
	<path class="st4" d="M97.3,51.8c-0.1,0.1-0.2,0.2-0.3,0.3c-0.3,0.2-0.5,0.7-0.8,0.7c-0.3,0-0.5-0.4-0.7-0.7
		c-1.3-1.3-2.6-2.6-3.9-3.9c-0.2-0.2-0.2-0.4,0-0.6c0.2-0.2,0.5-0.8,0.8-0.7c0.3,0,0.5,0.5,0.8,0.7l3.8,3.9L97.3,51.8z"/>
	<path class="st4" d="M65.7,65.6l0.2,0.2c1.5,1.5,3,3.1,4.5,4.6c0.2,0.2,0.2,0.3,0,0.4c-0.3,0.3-0.5,0.8-0.9,0.8
		c-0.4,0-0.6-0.5-0.9-0.8c-1.3-1.3-2.5-2.6-3.8-3.8c-0.2-0.2-0.2-0.3,0-0.5s0.4-0.4,0.6-0.6L65.7,65.6z"/>
	<path class="st5" d="M95.6,63.6l-0.2,0.2c-0.5,0.5-1,1-1.5,1.5c-0.2,0.2-0.3,0.2-0.4,0c-0.2-0.2-0.7-0.6-0.8-0.9
		c-0.1-0.3,0.5-0.6,0.7-0.9c0.3-0.3,0.6-0.6,0.9-0.9c0.2-0.2,0.3-0.2,0.4,0c0.2,0.2,0.5,0.5,0.7,0.7C95.5,63.4,95.5,63.5,95.6,63.6z
		"/>
	<path class="st5" d="M98.8,50.2l-0.1,0.2c-0.8,1-0.8,1-1.8,0.1c-0.3-0.3-0.6-0.6-0.9-0.9c-0.2-0.2-0.2-0.3,0-0.4
		c0.3-0.3,0.6-0.8,0.9-0.8s0.6,0.5,0.9,0.8l0.9,0.9L98.8,50.2z"/>
	<path class="st5" d="M68.1,67l-1.9-1.7c-0.1-0.1-0.1-0.2,0-0.3l0,0c0.3-0.3,0.6-0.8,0.9-0.8c0.3-0.1,0.6,0.5,0.9,0.8l0.1,0.1
		c0.3,0.3,0.9,0.7,0.9,1S68.4,66.7,68.1,67z"/>
	<path class="st5" d="M96.1,64.1l0.3,0.3c0.3,0.3,0.7,0.5,0.7,0.8s-0.4,0.5-0.7,0.8c-0.2,0.3-0.6,0.6-0.9,1c-0.2,0.2-0.3,0.2-0.4,0
		c-0.2-0.3-0.5-0.5-0.7-0.7c-0.1-0.1-0.2-0.2,0-0.3c0.5-0.5,1.1-1.1,1.6-1.6L96.1,64.1z"/>
	<path class="st5" d="M96.7,68.7c-0.1-0.1-0.2-0.3-0.4-0.4c-0.6-0.6-0.6-0.6,0-1.3c0.3-0.3,0.7-0.7,1-1c0.2-0.2,0.3-0.3,0.5,0
		c0.8,0.9,0.9,0.9,0,1.7L97,68.5C96.9,68.6,96.8,68.7,96.7,68.7z"/>
	<path class="st5" d="M95.8,47.2l-0.2,0.2c-0.3,0.3-0.5,0.7-0.8,0.8s-0.6-0.5-0.8-0.7c-0.3-0.3-0.5-0.6-0.8-0.8
		c-0.3-0.3-0.2-0.3,0-0.5s0.6-0.7,0.9-0.8c0.3,0,0.6,0.5,0.8,0.7s0.6,0.6,0.9,0.9L95.8,47.2z"/>
	<path class="st4" d="M72.1,69l-0.4,0.4c-0.7,0.7-0.7,0.7-1.3,0c-0.4-0.4-0.7-0.7-1.1-1c-0.2-0.2-0.2-0.3,0-0.4
		c0.2-0.2,0.5-0.7,0.9-0.8c0.4-0.1,0.6,0.5,0.9,0.7c0.3,0.3,0.6,0.6,0.9,0.9L72.1,69z"/>
	<path class="st4" d="M92.2,70.2L92,69.9c-0.2-0.3-0.7-0.5-0.7-0.8c0-0.3,0.4-0.5,0.7-0.8c0.3-0.3,0.6-0.6,0.9-0.9
		c0.3-0.3,0.3-0.2,0.4,0c0.2,0.2,0.7,0.6,0.8,0.9c0,0.3-0.5,0.6-0.7,0.9c-0.3,0.3-0.6,0.6-0.8,0.9L92.2,70.2z"/>
	<path class="st4" d="M95.7,69.9L95.5,70c-0.5,0.5-1,1-1.5,1.6c-0.2,0.2-0.2,0.1-0.4,0c-1-0.9-1-0.9,0-1.8l0.9-0.9
		c0.1-0.1,0.1-0.2,0.3-0.1l0.9,0.9L95.7,69.9z"/>
	<path class="st4" d="M91.6,51.4l-0.2-0.2c-0.5-0.5-1-1-1.5-1.5c-0.2-0.2-0.2-0.3,0-0.4c0.2-0.2,0.6-0.8,0.9-0.8s0.6,0.5,0.9,0.8
		c0.3,0.3,0.6,0.6,0.9,0.9c0.2,0.2,0.2,0.3,0,0.4s-0.5,0.5-0.7,0.7L91.6,51.4z"/>
	<path class="st4" d="M95.7,53.4l-0.5,0.5c-0.6,0.6-0.6,0.6-1.2,0l-1.1-1.1c-0.1-0.1-0.2-0.2,0-0.4c0.3-0.3,0.6-0.8,0.9-0.8
		s0.6,0.5,0.9,0.8c0.3,0.3,0.6,0.6,0.9,0.9C95.6,53.2,95.7,53.3,95.7,53.4z"/>
	<path class="st5" d="M91.6,65.5c0.1,0.1,0.1,0.2,0.2,0.3c0.3,0.3,0.7,0.5,0.7,0.8c0,0.3-0.4,0.5-0.7,0.8c-0.3,0.3-0.6,0.6-0.9,0.9
		c-0.3,0.3-0.3,0.2-0.4,0c-0.2-0.2-0.8-0.5-0.8-0.9c0-0.4,0.5-0.6,0.7-0.9l0.9-0.9L91.6,65.5z"/>
</g>
</svg>
