<?xml version="1.0" encoding="utf-8"?>
<!-- Generator: Adobe Illustrator 25.2.0, SVG Export Plug-In . SVG Version: 6.00 Build 0)  -->
<svg version="1.1" id="Layer_1" xmlns="http://www.w3.org/2000/svg" xmlns:xlink="http://www.w3.org/1999/xlink" x="0px" y="0px"
	 viewBox="0 0 162.4 162.4" style="enable-background:new 0 0 162.4 162.4;" xml:space="preserve">
<g>
	<g>
		<path d="M45.8,117.6c0-0.3,0.1-0.5,0.3-0.7c0.2-0.2,0.4-0.3,0.7-0.3c0.3,0,0.5,0.1,0.7,0.3c0.2,0.2,0.3,0.5,0.3,0.7v1l0,0
			c0.3-0.5,0.7-1,1.2-1.4c0.4-0.4,1-0.6,1.5-0.7c0.3,0,0.6,0.1,0.8,0.3c0.2,0.2,0.4,0.4,0.4,0.7c0,0.3-0.1,0.6-0.4,0.8
			c-0.3,0.2-0.7,0.3-1,0.4c-0.3,0.1-0.6,0.2-0.9,0.3c-0.5,0.3-0.9,0.7-1.2,1.2c-0.3,0.6-0.4,1.2-0.4,1.8v5.9c0,0.3-0.1,0.6-0.3,0.8
			c-0.2,0.2-0.4,0.3-0.7,0.3c-0.3,0-0.5-0.1-0.7-0.3c-0.2-0.2-0.3-0.5-0.3-0.8L45.8,117.6z"/>
		<path d="M61.1,118.2v-0.7c0-0.3,0.1-0.5,0.3-0.7c0.2-0.2,0.4-0.3,0.6-0.3c0.2,0,0.5,0.1,0.7,0.3c0.2,0.2,0.3,0.5,0.3,0.8V128
			c0,0.3-0.1,0.6-0.3,0.8c-0.2,0.2-0.4,0.3-0.7,0.2c-0.2,0-0.5-0.1-0.6-0.2c-0.2-0.2-0.3-0.4-0.3-0.7v-0.9l0,0
			c-0.7,1.1-1.9,1.8-3.2,1.8c-2,0-3.9-1.1-4.8-2.9c-0.5-1-0.7-2.1-0.7-3.2c0-1.2,0.2-2.4,0.8-3.5c0.5-0.9,1.2-1.6,2-2.1
			c0.7-0.4,1.6-0.7,2.4-0.7c0.6,0,1.3,0.1,1.9,0.4C60.1,117.3,60.6,117.7,61.1,118.2L61.1,118.2z M54.4,122.7c0,0.7,0.1,1.5,0.4,2.2
			c0.2,0.6,0.6,1.2,1.1,1.6c0.5,0.4,1.1,0.7,1.8,0.6c1,0.1,2-0.4,2.6-1.3c0.5-1,0.8-2.1,0.8-3.2c0-0.8-0.1-1.6-0.4-2.4
			c-0.2-0.6-0.6-1.2-1.2-1.5c-0.5-0.4-1.1-0.6-1.7-0.5l0,0c-1,0-1.9,0.5-2.4,1.3C54.7,120.5,54.4,121.6,54.4,122.7z"/>
		<path d="M65.6,117.6c0-0.3,0.1-0.6,0.3-0.8c0.4-0.4,1-0.4,1.4,0c0.2,0.2,0.3,0.5,0.3,0.8v0.5l0,0c0.4-0.5,0.9-0.9,1.5-1.2
			c0.6-0.3,1.2-0.4,1.8-0.4c0.7,0,1.4,0.2,2.1,0.5c0.7,0.4,1.2,0.9,1.6,1.6c0.4,0.8,0.6,1.7,0.6,2.6v6.8c0,0.3-0.1,0.5-0.3,0.7
			c-0.2,0.2-0.4,0.3-0.7,0.2c-0.3,0-0.5-0.1-0.7-0.3c-0.2-0.2-0.3-0.4-0.3-0.7v-6.7c0-0.8-0.3-1.6-0.8-2.1c-0.5-0.5-1.2-0.8-2-0.8
			c-0.5,0-1,0.1-1.4,0.3c-0.4,0.2-0.8,0.6-1,1c-0.3,0.5-0.4,1-0.4,1.6v6.7c0,0.3-0.1,0.6-0.3,0.8c-0.2,0.2-0.4,0.3-0.7,0.3
			c-0.3,0-0.5-0.1-0.7-0.3c-0.2-0.2-0.3-0.5-0.3-0.8L65.6,117.6z"/>
		<path d="M77,122.6c0-1,0.3-2,0.7-3c0.4-0.9,1-1.7,1.8-2.3c0.8-0.6,1.8-0.9,2.8-0.9c1,0,2,0.3,2.8,0.8c0.8,0.6,1.5,1.4,1.9,2.3
			c0.4,0.9,0.7,1.9,0.7,2.9c0,0.7-0.4,1-1.1,1H79c0,0.7,0.2,1.4,0.5,2c0.3,0.6,0.7,1,1.3,1.3c0.6,0.3,1.2,0.4,1.8,0.4
			c1.2,0,2.4-0.5,3.3-1.3c0.2-0.2,0.5-0.3,0.8-0.4c0.2,0,0.4,0.1,0.5,0.2c0.1,0.2,0.2,0.4,0.2,0.6c0,0.3-0.1,0.5-0.3,0.7
			c-0.5,0.6-1.2,1-1.9,1.3c-0.8,0.3-1.7,0.5-2.6,0.5c-0.9,0-1.8-0.2-2.6-0.6c-0.7-0.3-1.3-0.8-1.7-1.4c-0.4-0.6-0.8-1.3-1-2
			c-0.2-0.7-0.3-1.4-0.3-2.2L77,122.6L77,122.6z M79,122h6.7c0-1-0.3-1.9-0.9-2.7c-0.6-0.7-1.5-1.1-2.4-1.1c-0.9,0-1.8,0.3-2.4,1
			C79.4,120,79,121,79,122L79,122z"/>
		<path d="M97.8,118.2v-0.7c0-0.3,0.1-0.5,0.3-0.7c0.4-0.4,0.9-0.4,1.3,0c0,0,0,0,0,0c0.2,0.2,0.3,0.5,0.3,0.8V128
			c0,0.3-0.1,0.6-0.3,0.8c-0.2,0.2-0.4,0.3-0.7,0.2c-0.2,0-0.5-0.1-0.7-0.2c-0.2-0.2-0.3-0.4-0.3-0.7v-0.9l0,0
			c-0.7,1.1-1.9,1.8-3.2,1.8c-1,0-1.9-0.3-2.8-0.8c-0.8-0.5-1.5-1.3-2-2.2c-1-2.1-1-4.6,0-6.7c0.5-0.9,1.2-1.6,2-2.1
			c0.7-0.4,1.6-0.7,2.4-0.7c0.6,0,1.3,0.1,1.9,0.4C96.8,117.3,97.4,117.7,97.8,118.2L97.8,118.2z M91.2,122.7c0,0.7,0.1,1.5,0.4,2.2
			c0.2,0.6,0.6,1.2,1.1,1.6c0.5,0.4,1.1,0.7,1.8,0.6c1,0.1,2-0.4,2.6-1.3c0.5-1,0.8-2.1,0.8-3.2c0-0.8-0.1-1.6-0.4-2.4
			c-0.2-0.6-0.6-1.2-1.2-1.5c-0.5-0.4-1.1-0.6-1.7-0.5l0,0c-1,0-1.9,0.5-2.4,1.3C91.4,120.5,91.1,121.6,91.2,122.7L91.2,122.7z"/>
		<path d="M102.3,117.6c0-0.3,0.1-0.6,0.3-0.8c0.2-0.2,0.4-0.3,0.7-0.3c0.3,0,0.5,0.1,0.7,0.3c0.2,0.2,0.3,0.5,0.3,0.8v0.5l0,0
			c0.4-0.5,0.9-0.9,1.5-1.2c0.6-0.3,1.2-0.4,1.8-0.4c0.7,0,1.4,0.2,2.1,0.5c0.7,0.4,1.2,0.9,1.6,1.6c0.4,0.8,0.6,1.7,0.6,2.6v6.8
			c0,0.3-0.1,0.5-0.3,0.7c-0.2,0.2-0.4,0.3-0.7,0.2c-0.3,0-0.5-0.1-0.7-0.3c-0.2-0.2-0.3-0.4-0.3-0.7v-6.7c0-0.8-0.3-1.6-0.8-2.1
			c-0.5-0.5-1.2-0.8-2-0.8c-0.5,0-1,0.1-1.4,0.3c-0.4,0.2-0.8,0.6-1,1c-0.3,0.5-0.4,1-0.4,1.6v6.7c0,0.3-0.1,0.6-0.3,0.8
			c-0.2,0.2-0.4,0.3-0.7,0.3c-0.3,0-0.5-0.1-0.7-0.3c-0.2-0.2-0.3-0.5-0.3-0.8L102.3,117.6z"/>
	</g>
	<g>
		<g>
			<path d="M41.4,91.7c0-0.4,0.2-0.8,0.5-1.1c0.3-0.2,0.6-0.4,1-0.4c0.3,0,0.7,0.1,0.9,0.3c0.3,0.2,0.5,0.5,0.5,0.8l3.5,11.9l0,0
				l3.5-12c0.1-0.3,0.3-0.6,0.6-0.8c0.3-0.2,0.6-0.3,0.9-0.3c0.4,0,0.7,0.1,1,0.3c0.3,0.3,0.5,0.6,0.5,1l2.4,13.9
				c0,0.4-0.1,0.7-0.3,1c-0.2,0.2-0.4,0.3-0.7,0.3c-0.5,0-1-0.4-1-0.9l-1.9-13.1l-3.9,13.2c-0.1,0.5-0.5,0.8-1,0.8
				c-0.2,0-0.4-0.1-0.6-0.2c-0.2-0.1-0.3-0.3-0.4-0.6L43,92.9L41,106.1c0,0.3-0.2,0.5-0.4,0.7c-0.2,0.2-0.5,0.3-0.7,0.3
				c-0.2,0-0.5-0.1-0.6-0.3c-0.2-0.2-0.3-0.5-0.3-0.9c0-0.2,0-0.3,0-0.5L41.4,91.7z"/>
			<path d="M57.9,100.5c0-1,0.3-2,0.7-3c0.4-0.9,1-1.7,1.8-2.3c0.8-0.6,1.8-0.9,2.8-0.9c1,0,2,0.3,2.8,0.8c0.8,0.6,1.5,1.4,1.9,2.3
				c0.4,0.9,0.7,1.9,0.7,2.9c0,0.7-0.4,1-1.1,1h-7.6c0,0.7,0.2,1.4,0.5,2c0.3,0.6,0.7,1,1.3,1.3c0.6,0.3,1.2,0.4,1.8,0.4
				c1.2,0,2.4-0.5,3.3-1.3c0.2-0.2,0.5-0.3,0.8-0.4c0.2,0,0.4,0.1,0.5,0.2c0.1,0.2,0.2,0.4,0.2,0.6c0,0.3-0.1,0.5-0.3,0.7
				c-0.5,0.6-1.2,1-1.9,1.3c-0.8,0.3-1.7,0.5-2.6,0.5c-0.9,0-1.8-0.2-2.6-0.6c-0.7-0.3-1.3-0.8-1.8-1.5c-0.4-0.6-0.8-1.3-1-2
				c-0.2-0.7-0.3-1.4-0.3-2.2L57.9,100.5L57.9,100.5z M59.9,99.9h6.7c0-1-0.3-1.9-0.9-2.7c-1.3-1.3-3.4-1.4-4.7-0.1
				c0,0-0.1,0.1-0.1,0.1C60.3,98,59.9,98.9,59.9,99.9L59.9,99.9z"/>
			<path d="M78.4,96.1v-6c0-0.3,0.1-0.5,0.3-0.7c0.2-0.2,0.4-0.3,0.7-0.3c0.3,0,0.5,0.1,0.7,0.3c0.2,0.2,0.3,0.5,0.3,0.8v15.7
				c0,0.3-0.1,0.6-0.3,0.8c-0.4,0.4-1,0.4-1.4,0c-0.2-0.2-0.3-0.4-0.3-0.7v-0.7l0,0c-0.2,0.5-0.6,0.9-1,1.1c-0.6,0.3-1.3,0.5-2,0.5
				c-1,0-2-0.2-2.8-0.8c-0.8-0.5-1.5-1.3-1.9-2.2c-0.5-1-0.7-2.1-0.7-3.2c0-0.8,0.1-1.6,0.4-2.4c0.2-0.7,0.6-1.4,1.1-2
				c0.5-0.5,1-1,1.6-1.3c0.6-0.3,1.4-0.5,2.1-0.5C76.5,94.5,77.7,95.1,78.4,96.1L78.4,96.1z M71.9,100.6c0,1.1,0.2,2.2,0.8,3.1
				c0.5,0.8,1.4,1.3,2.4,1.3c0.7,0,1.5-0.2,2-0.7c0.5-0.4,0.9-1,1.1-1.7c0.2-0.7,0.4-1.4,0.4-2.1c0-0.8-0.1-1.6-0.4-2.4
				c-0.2-0.6-0.6-1.2-1.2-1.6c-0.5-0.4-1.1-0.6-1.7-0.6c-0.7,0-1.4,0.2-1.9,0.7c-0.5,0.4-0.9,1-1.1,1.7
				C72.1,99.2,72,99.9,71.9,100.6L71.9,100.6z"/>
			<path d="M84.2,93c-0.3,0-0.6-0.1-0.8-0.3c-0.2-0.2-0.3-0.5-0.3-0.8c0-0.3,0.1-0.6,0.3-0.8c0.2-0.2,0.5-0.3,0.8-0.3
				c0.3,0,0.6,0.1,0.8,0.3c0.4,0.5,0.4,1.2,0,1.6C84.8,92.9,84.5,93,84.2,93z M83.2,95.5c0-0.5,0.4-1,0.9-1c0,0,0.1,0,0.1,0
				c0.3,0,0.5,0.1,0.7,0.3c0.2,0.2,0.3,0.5,0.3,0.8v10.3c0,0.3-0.1,0.6-0.3,0.8c-0.2,0.2-0.4,0.3-0.7,0.3c-0.3,0-0.5-0.1-0.7-0.3
				c-0.2-0.2-0.3-0.5-0.3-0.8V95.5z"/>
			<path d="M88.5,96.3h-0.9c-0.2,0-0.5-0.1-0.7-0.2c-0.2-0.2-0.3-0.4-0.3-0.6c0-0.5,0.4-0.9,0.9-0.9c0,0,0.1,0,0.1,0h0.9v-2.7
				c0-0.3,0.1-0.5,0.3-0.7c0.2-0.2,0.4-0.2,0.7-0.2c0.3,0,0.5,0.1,0.7,0.2c0.2,0.2,0.3,0.5,0.3,0.7v2.6h0.9c0.3,0,0.5,0.1,0.7,0.3
				c0.2,0.2,0.3,0.4,0.2,0.6c0,0.2-0.1,0.4-0.2,0.6c-0.2,0.2-0.4,0.2-0.6,0.2h-1v9.6c0,0.3-0.1,0.5-0.3,0.7
				c-0.2,0.2-0.5,0.3-0.8,0.3c-0.2,0-0.5-0.1-0.7-0.3c-0.2-0.2-0.3-0.5-0.3-0.8V96.3z"/>
			<path d="M92.5,100.5c0-1,0.3-2,0.7-3c0.4-0.9,1-1.7,1.8-2.3c0.8-0.6,1.8-0.9,2.8-0.9c1,0,2,0.3,2.8,0.8c0.8,0.6,1.5,1.4,1.9,2.3
				c0.4,0.9,0.7,1.9,0.7,2.9c0,0.7-0.4,1-1.1,1h-7.6c0,0.7,0.2,1.4,0.5,2c0.3,0.6,0.7,1,1.3,1.3c0.6,0.3,1.2,0.4,1.8,0.4
				c1.2,0,2.4-0.5,3.2-1.3c0.2-0.2,0.5-0.3,0.8-0.4c0.2,0,0.4,0.1,0.5,0.2c0.1,0.2,0.2,0.4,0.2,0.6c0,0.3-0.1,0.5-0.3,0.7
				c-0.5,0.6-1.2,1-1.9,1.3c-0.8,0.3-1.7,0.5-2.6,0.5c-0.9,0-1.8-0.2-2.6-0.6c-0.7-0.3-1.3-0.8-1.8-1.5c-0.4-0.6-0.8-1.3-1-2
				c-0.2-0.7-0.3-1.4-0.3-2.2L92.5,100.5L92.5,100.5z M94.5,99.9h6.7c0-1-0.3-1.9-0.9-2.7c-1.3-1.3-3.4-1.4-4.7-0.1
				c0,0-0.1,0.1-0.1,0.1C94.9,98,94.5,98.9,94.5,99.9z"/>
			<path d="M105.2,95.5c0-0.3,0.1-0.5,0.3-0.7c0.2-0.2,0.4-0.3,0.7-0.3c0.3,0,0.5,0.1,0.7,0.3c0.2,0.2,0.3,0.5,0.3,0.7v1l0,0
				c0.3-0.5,0.7-1,1.2-1.4c0.4-0.4,1-0.6,1.5-0.7c0.3,0,0.6,0.1,0.8,0.3c0.2,0.2,0.4,0.4,0.4,0.7c0,0.3-0.1,0.6-0.4,0.8
				c-0.3,0.2-0.7,0.3-1,0.4c-0.3,0.1-0.6,0.2-0.9,0.3c-0.5,0.3-0.9,0.7-1.2,1.2c-0.3,0.6-0.4,1.2-0.4,1.8v5.9c0,0.3-0.1,0.6-0.3,0.8
				c-0.2,0.2-0.4,0.3-0.7,0.3c-0.3,0-0.5-0.1-0.7-0.3c-0.2-0.2-0.3-0.5-0.3-0.8L105.2,95.5z"/>
		</g>
		<path d="M117.8,101.6h-4.9c-0.5,0-0.9-0.4-0.9-0.9v0c0-0.5,0.4-0.9,0.9-0.9h4.9c0.5,0,0.9,0.4,0.9,0.9v0
			C118.7,101.3,118.3,101.6,117.8,101.6z"/>
	</g>
</g>
<g>
	<path d="M67.2,54.5l1-9.5c-0.3,0.1-0.6,0.2-0.8,0.3c-7,3.8-13.7,8.1-19.4,13.7c-0.6,0.6-1.2,1.3-2,0.4c-0.8-0.9,0-1.5,0.6-2
		c6-6,13-10.4,20.3-14.4c1.5-0.8,3-1.6,4.8-2.5c-1.4-0.4-2.7-0.7-3.8-1.1c-7.1-2.6-11.1-7.8-12.8-15c-0.4-1.6,0.1-2.2,1.9-2
		c7,0.7,13,3.2,17.1,9.3c0.1,0.2,0.2,0.3,0.4,0.4c0.6-2,1.4-3.9,2.2-5.8c2.2-4.4,5.8-7.5,10.1-9.8c1.9-1,2.5-0.7,2.8,1.4
		c0.9,5.8-0.1,11.1-3.7,15.9c-0.2,0.2-0.3,0.5-0.6,1c2.3-0.8,4.3-1.5,6.3-2.2c3.2-1,6.3-2,9.5-3c0.8-0.3,1.8-0.4,1.9,0.7
		c0.1,0.4-0.8,1.2-1.4,1.4c-2.2,0.8-4.5,1.4-7.1,2.2c3.1,1.3,5.6,3.8,6.9,6.9c0.3,0.9,0.5,1.9,0.6,2.9c-1,0.2-2,0.4-3.1,0.4
		c-3.3-0.2-6-1.8-8.4-4.4c0.1,1.7,0.3,3.4,0.5,5.1c0,0.2,0.4,0.5,0.6,0.6c4.9,1.7,6.6,5.7,7.3,10.3c0.5,3.6-0.2,7.2-2.2,10.2
		c-3.5,5.5-9.8,5.6-13.2,0.1c-3.4-5.5-3.3-11-0.1-16.6c1.2-2.1,3.2-3.5,5.5-4.1c-0.3-3.1-0.6-6-0.8-9.1c-0.6,0.2-1.1,0.3-1.6,0.6
		c-4.9,2.1-9.8,4.1-14.6,6.3c-0.6,0.3-1,0.8-1.2,1.4c-0.4,3.3-0.8,6.6-1,9.9c0,0.5,0.2,1,0.6,1.4c2.6,1.5,4.3,4,4.7,7
		c1,5.4-0.1,10.3-4,14.3c-4.2,4.4-10,3.3-12.6-2.3c-2.6-5.6-1.1-13.3,3.5-17.2C63,56.4,64.9,55.7,67.2,54.5z M58.7,68.7
		c0.2,1.6,0.5,3.2,1,4.7c1.8,4.9,6.4,5.8,9.8,1.9c3.3-3.6,4.3-8.8,2.7-13.4c-1.6-5.1-6.5-6-10.1-1.9C60.1,62.4,58.9,65.5,58.7,68.7
		L58.7,68.7z M96.6,56.3c-0.1-2.3-0.9-4.4-2.2-6.3c-2.6-3.5-6.5-3.5-9.1,0c-3,4.1-3,11,0,15.2c2.6,3.6,6.6,3.6,9.2,0
		C96.1,63,96.6,60.4,96.6,56.3L96.6,56.3z M57.4,24.8c1.1,7.6,10.3,14.9,17,13.6C73,31.4,66.5,25.1,57.4,24.8L57.4,24.8z M76.9,38
		c7.2-3.2,12.1-10.9,10.3-19.1C81,21.3,74.9,29.5,76.9,38L76.9,38z M99.3,42c-1.1-3.7-5.1-6.8-8.1-6.1C92.3,39.4,95.5,41.8,99.3,42
		L99.3,42z"/>
	<path d="M60.2,68.3L60.2,68.3c0.1-1.1,0.4-2.2,0.8-3.2c0.3-0.8,0.5-1.5,0.9-2.3c0.1-0.2,0.1-0.3,0.2-0.5c0.2-0.3,0.5-0.4,0.9-0.4
		H63l0.2,0.1c0.4,0.2,0.7,0.2,0.7,0.7c-0.1,0.5-0.3,1-0.5,1.4c-0.2,0.5-0.4,1-0.6,1.5c-0.2,0.6-0.3,1.1-0.3,1.7
		c-0.1,0.6-0.1,1.2-0.1,1.8c0,0.5,0.1,0.9,0.2,1.4c0.1,0.4,0.1,0.8,0,1.2c0,0.1-0.1,0.2-0.2,0.3c-0.1,0.1-0.3,0.1-0.4,0.1
		c-0.4,0.1-0.9-0.1-1.1-0.5c0-0.1-0.1-0.1-0.1-0.2C60.4,70.5,60.2,69.4,60.2,68.3z"/>
	<path d="M86.9,51.6c0.1,0,0.2,0.1,0.3,0.1c0.3,0.2,0.4,0.6,0.3,1c-0.1,0.3-0.2,0.6-0.3,0.9c-0.1,0.4-0.3,0.7-0.4,1.1
		c-0.2,0.7-0.3,1.5-0.4,2.3c-0.1,1.5,0.2,3.1,0.7,4.5c0,0.5-0.2,0.9-0.6,1.2c-0.5,0.1-1-0.1-1.3-0.5c-1.5-2.1-1.3-8.4,0.4-10.3
		c0.1-0.1,0.2-0.2,0.3-0.2c0.1-0.1,0.2-0.1,0.4-0.2C86.6,51.5,86.7,51.5,86.9,51.6z"/>
</g>
</svg>
