<?xml version="1.0" encoding="utf-8"?>
<!-- Generator: Adobe Illustrator 25.2.0, SVG Export Plug-In . SVG Version: 6.00 Build 0)  -->
<svg version="1.1" id="Layer_1" xmlns="http://www.w3.org/2000/svg" xmlns:xlink="http://www.w3.org/1999/xlink" x="0px" y="0px"
	 viewBox="0 0 162.4 162.4" style="enable-background:new 0 0 162.4 162.4;" xml:space="preserve">
<g>
	<path d="M43.9,113.8c0-0.4,0.2-0.8,0.5-1.1c0.3-0.2,0.6-0.4,1-0.4c0.3,0,0.7,0.1,0.9,0.3c0.3,0.2,0.5,0.5,0.5,0.8l3.5,11.9l0,0
		l3.5-12c0.1-0.3,0.3-0.6,0.6-0.8c0.3-0.2,0.6-0.3,0.9-0.3c0.4,0,0.7,0.1,1,0.3c0.3,0.3,0.5,0.6,0.5,1l2.4,13.9c0,0.4-0.1,0.7-0.3,1
		c-0.2,0.2-0.4,0.3-0.7,0.3c-0.2,0-0.5-0.1-0.7-0.2c-0.2-0.2-0.3-0.4-0.4-0.7L55.3,115l-3.9,13.2c-0.1,0.5-0.5,0.8-1,0.8
		c-0.2,0-0.5-0.1-0.6-0.2c-0.2-0.1-0.3-0.3-0.4-0.6L45.5,115l-1.9,13.2c0,0.3-0.2,0.5-0.4,0.7c-0.2,0.2-0.5,0.3-0.7,0.3
		c-0.2,0-0.5-0.1-0.6-0.3c-0.2-0.2-0.3-0.5-0.3-0.9c0-0.2,0-0.3,0-0.5L43.9,113.8z"/>
	<path d="M60.4,122.6c0-1,0.3-2,0.7-3c0.4-0.9,1-1.7,1.8-2.3c0.8-0.6,1.8-0.9,2.8-0.9c1,0,2,0.3,2.8,0.8c0.8,0.6,1.5,1.4,1.9,2.3
		c0.4,0.9,0.7,1.9,0.7,2.9c0,0.7-0.4,1-1.1,1h-7.6c0,0.7,0.2,1.4,0.5,2c0.3,0.6,0.7,1,1.3,1.3c0.6,0.3,1.2,0.4,1.8,0.4
		c1.2,0,2.4-0.5,3.3-1.3c0.2-0.2,0.5-0.3,0.8-0.4c0.2,0,0.4,0.1,0.5,0.2c0.1,0.2,0.2,0.4,0.2,0.6c0,0.3-0.1,0.5-0.3,0.7
		c-0.5,0.6-1.2,1-1.9,1.3c-0.8,0.3-1.7,0.5-2.6,0.5c-0.9,0-1.8-0.2-2.6-0.6c-0.7-0.3-1.3-0.8-1.8-1.5c-0.4-0.6-0.8-1.3-1-2
		c-0.2-0.7-0.3-1.4-0.3-2.2L60.4,122.6L60.4,122.6z M62.4,122h6.7c0-1-0.3-1.9-0.9-2.7c-1.3-1.3-3.4-1.4-4.7-0.1
		c0,0-0.1,0.1-0.1,0.1C62.8,120.1,62.4,121,62.4,122z"/>
	<path d="M75.8,122.4l-3.2-4.2c-0.2-0.2-0.3-0.5-0.4-0.8c0-0.2,0.1-0.4,0.3-0.6c0.2-0.2,0.4-0.3,0.6-0.2c0.3,0,0.7,0.2,0.9,0.4
		l3,3.9l2.9-3.9c0.2-0.3,0.5-0.5,0.8-0.5c0.2,0,0.5,0.1,0.6,0.2c0.2,0.2,0.3,0.4,0.3,0.7c0,0.3-0.1,0.5-0.3,0.7l-3.2,4.2l3.6,4.8
		c0.3,0.3,0.4,0.7,0.4,1.1c0,0.2-0.1,0.4-0.2,0.6c-0.2,0.2-0.4,0.2-0.6,0.2c-0.4,0-0.8-0.3-1.1-0.7l-3.3-4.6l-3.3,4.6
		c-0.2,0.3-0.6,0.5-1,0.5c-0.2,0-0.4-0.1-0.6-0.2c-0.2-0.2-0.3-0.4-0.3-0.7c0.1-0.3,0.2-0.7,0.4-0.9L75.8,122.4z"/>
	<path d="M84.6,115.1c-0.3,0-0.6-0.1-0.8-0.3c-0.2-0.2-0.3-0.5-0.3-0.8c0-0.3,0.1-0.6,0.3-0.8c0.2-0.2,0.5-0.3,0.8-0.3
		c0.3,0,0.6,0.1,0.8,0.3c0.5,0.4,0.5,1.1,0,1.6C85.2,115,84.9,115.1,84.6,115.1z M83.6,117.6c0-0.3,0.1-0.6,0.3-0.8
		c0.2-0.2,0.4-0.3,0.7-0.3c0.3,0,0.5,0.1,0.7,0.3c0.2,0.2,0.3,0.5,0.3,0.8v10.3c0,0.3-0.1,0.6-0.3,0.8c-0.2,0.2-0.4,0.3-0.7,0.3
		c-0.3,0-0.5-0.1-0.7-0.3c-0.2-0.2-0.3-0.5-0.3-0.8V117.6z"/>
	<path d="M96.3,117.6c0.1,0.1,0.1,0.3,0.1,0.4c0,0.2-0.1,0.4-0.2,0.6c-0.2,0.2-0.4,0.3-0.7,0.3h-0.1l-0.2-0.1
		c-0.1,0-0.2-0.1-0.4-0.1c-0.3-0.1-0.6-0.2-0.9-0.3c-0.2-0.1-0.5-0.1-0.8-0.1c-0.7,0-1.3,0.2-1.8,0.6c-0.5,0.4-0.9,1-1.2,1.6
		c-0.3,0.7-0.4,1.4-0.5,2.1c0,1.1,0.2,2.1,0.7,3c0.1,0.3,0.3,0.6,0.6,0.8c0.2,0.2,0.5,0.4,0.8,0.5c0.3,0.1,0.7,0.2,1,0.3
		c0.1,0,0.2,0,0.3,0l0.5-0.1c0.2,0,0.3-0.1,0.5-0.1l0.2-0.1l0.3-0.1l0.4-0.2c0.2-0.1,0.3-0.1,0.5-0.1c0.2,0,0.4,0.1,0.5,0.2
		c0.1,0.2,0.2,0.4,0.2,0.6c0,0.6-0.4,1.2-1,1.3c-0.7,0.2-1.4,0.3-2.1,0.3c-1,0-2-0.3-2.9-0.8c-0.8-0.5-1.5-1.3-1.9-2.2
		c-0.4-0.9-0.7-1.9-0.7-3c0-0.8,0.1-1.6,0.3-2.4c0.2-0.7,0.5-1.4,1-2.1c0.4-0.6,1-1.1,1.7-1.4c0.8-0.4,1.6-0.6,2.4-0.6
		c0.7,0,1.4,0.1,2.1,0.3C95.6,117,96,117.3,96.3,117.6z"/>
	<path d="M106.4,118.2v-0.7c0-0.3,0.1-0.5,0.3-0.7c0.2-0.2,0.4-0.3,0.7-0.3c0.2,0,0.5,0.1,0.7,0.3c0.2,0.2,0.3,0.5,0.3,0.8V128
		c0,0.3-0.1,0.6-0.3,0.8c-0.2,0.2-0.4,0.3-0.7,0.2c-0.2,0-0.5-0.1-0.7-0.2c-0.2-0.2-0.3-0.4-0.3-0.7v-0.9l0,0
		c-0.7,1.1-1.9,1.8-3.2,1.8c-2,0-3.9-1.1-4.8-2.9c-0.5-1-0.7-2.1-0.7-3.2c0-1.2,0.2-2.4,0.8-3.5c0.5-0.9,1.2-1.6,2-2.1
		c0.7-0.4,1.6-0.7,2.4-0.7c0.6,0,1.3,0.1,1.9,0.4C105.5,117.3,106,117.7,106.4,118.2L106.4,118.2z M99.7,122.7
		c0,0.7,0.1,1.5,0.4,2.2c0.2,0.6,0.6,1.2,1.1,1.6c0.5,0.4,1.1,0.6,1.8,0.6c1,0.1,2-0.4,2.6-1.3c0.6-1,0.8-2.1,0.8-3.2
		c0-0.8-0.1-1.6-0.4-2.4c-0.2-0.6-0.6-1.2-1.2-1.5c-0.5-0.4-1.1-0.6-1.7-0.5l0,0c-1,0-1.9,0.5-2.4,1.3
		C100,120.5,99.7,121.6,99.7,122.7z"/>
	<path d="M111,117.6c0-0.3,0.1-0.6,0.3-0.8c0.2-0.2,0.4-0.3,0.7-0.3c0.3,0,0.5,0.1,0.7,0.3c0.2,0.2,0.3,0.5,0.3,0.8v0.5l0,0
		c0.4-0.5,0.9-0.9,1.5-1.2c0.6-0.3,1.2-0.4,1.8-0.4c0.7,0,1.4,0.2,2.1,0.5c0.7,0.4,1.2,0.9,1.6,1.6c0.4,0.8,0.6,1.7,0.6,2.6v6.8
		c0,0.3-0.1,0.5-0.3,0.7c-0.2,0.2-0.4,0.3-0.7,0.2c-0.3,0-0.5-0.1-0.7-0.3c-0.2-0.2-0.3-0.4-0.3-0.7v-6.7c0-0.8-0.3-1.6-0.8-2.1
		c-0.5-0.5-1.2-0.8-2-0.8c-0.5,0-1,0.1-1.4,0.3c-0.4,0.2-0.8,0.6-1,1c-0.3,0.5-0.4,1-0.4,1.6v6.7c0,0.3-0.1,0.6-0.3,0.8
		c-0.2,0.2-0.4,0.3-0.7,0.3c-0.3,0-0.5-0.1-0.7-0.3c-0.2-0.2-0.3-0.5-0.3-0.8L111,117.6z"/>
</g>
<g>
	<path d="M71.7,71.1c-0.4,0.1-0.9-0.1-1.2-0.4c-0.2-0.2-0.2-0.5-0.1-0.8c0.1-0.4,0.5-0.8,0.9-0.7h2.2l-5.3-11l-5.3,11h2.9
		c0.5,0,1,0.4,1,0.9c0,0.5-0.4,1-0.9,1c-0.2,0-0.3,0-0.5,0h-11c-4.8,0.2-9.2-2.7-10.8-7.2l-2.6-6.3v-1.1c0.5-1.3,1.5-1.9,3.2-1.9
		h8.3h11.2c0,0,0.1-1,0.2-1.5c0.1-0.9,0.3-1.9,0.4-2.8c1.1-6.3,3.3-11.3,6.5-15.3c2.1-2.8,5.2-4.8,8.6-5.6c0.7-0.2,1.5-0.2,2.3-0.2
		c2.1,0,4.2,0.6,6.1,1.7c0.5,0.2,0.7,0.8,0.5,1.3c-0.2,0.3-0.5,0.5-0.9,0.5c-0.2,0-0.4-0.1-0.6-0.1c-1.5-0.8-3.1-1.3-4.8-1.4h-0.3
		c-2.1,0-4.2,0.7-6,1.9c-2.6,1.9-4.7,4.5-6.2,7.4l-0.2,0.3h24.6l-0.8-1.2c-0.6-0.9-1.2-1.8-1.7-2.7c-0.1-0.2-0.3-0.4-0.4-0.5
		l-0.2-0.3c-0.4-0.4-0.4-1.1,0.1-1.5c0,0,0,0,0,0c0.1-0.1,0.3-0.2,0.5-0.2c0.4,0,0.7,0.2,0.9,0.5c1.6,2,2.9,4.1,3.9,6.4
		c1.8,4.2,2.9,8.6,3.2,13.1v0.2h19.9c1.3-0.1,2.5,0.7,2.7,2c0.1,0.5,0,1-0.1,1.4l-0.2,0.5c-0.8,2-1.5,4-2.5,5.9
		c-1.6,4.1-5.7,6.8-10.2,6.7H93.1H71.7z M58.2,69.2c0.5,0,1.1,0,1.6,0.1h0.3l-5.3-11.1l-4.8,10l0.2,0.1c1.7,0.7,3.5,1,5.3,0.9l0,0
		h1.4L58.2,69.2z M103.5,69.2h1.8h2.5c2.5,0,4.2-0.2,5.6-1l0.1-0.1l-4.8-9.9L103.5,69.2z M76.5,69.2H87l-5.2-11L76.5,69.2z M90,69.2
		h10.5l-5.3-11L90,69.2z M88.5,68l5.4-11.2H83.2L88.5,68z M75,68l5.4-11.2H69.7L75,68z M102,68l5.4-11.2H96.7L102,68z M61.5,68
		l5.4-11.2H56.2L61.5,68z M115.1,67.3l0.2-0.2c2-1.9,2.9-4.4,3.8-6.8c0.4-1.1,0.8-2.2,1.4-3.3l0.1-0.3h-10.6L115.1,67.3z M42.9,57.1
		c0.5,1.1,1,2.2,1.4,3.3c0.9,2.4,1.8,4.8,3.8,6.7l0.2,0.2l5-10.5H42.8L42.9,57.1z M65.7,54.7h32L96.8,49H66.6L65.7,54.7z M81.6,46
		H68.1c-0.2,0-0.4,0.1-0.6,0.3l-0.2,0.1l-0.2,0.1l0.3,0.5h28.8l0.2-0.5l-0.2-0.1c-0.1,0-0.1-0.1-0.2-0.1c-0.2-0.1-0.4-0.2-0.6-0.3
		H81.6z M69.5,42.8c-0.8,0-1.2,0.3-1.3,1.1v0.2h27V44c0-0.8-0.4-1.1-1.3-1.1H81.7H69.5L69.5,42.8z"/>
	<path d="M70.2,94.8c-2.1,0-4.2-0.3-6.1-1c-4.3-1.6-6.2-5-5.3-9.5c0.2-1,0.5-2,0.9-3c0.3-0.8,0.7-1.2,1.5-1.2h0.1
		c0.7,0.1,1.2,0.5,1.4,1.4l0.1,0.3c0.2,0.7,0.4,1.4,0.7,2.1c0.3,0.9,1.2,1.5,2.2,1.6c0.7,0,1.5-0.3,2.1-0.6c0.8-0.4,1.4-1,1.9-1.8
		c1.8-3.4,6.1-4.6,9.5-2.8c0.9,0.5,1.7,1.2,2.3,2.1l0.1,0.1l0.1,0.1l0.2-0.1l0.1-0.1l0.3-0.3c2.4-3,6.8-3.5,9.8-1.1
		c0.6,0.5,1.2,1.2,1.6,1.9c0.8,1.5,2.4,2.5,4.1,2.6H98c0.7,0,1.4-0.4,1.7-1c0.5-0.9,0.9-1.8,1.1-2.8c0.3-1.1,0.7-1.5,1.4-1.6h0.2
		c0.8,0,1.2,0.4,1.5,1.4l0.2,0.7c0.4,1.2,0.6,2.4,0.8,3.6c0.3,3.5-1.8,6.8-5.1,7.9c-2.1,0.8-4.3,1.2-6.5,1.1c-1.2,0-2.3-0.1-3.5-0.2
		c-0.3,0-0.6-0.2-0.8-0.4c-0.1-0.2-0.2-0.4-0.2-0.7c0.1-0.5,0.6-0.9,1.2-0.8h0.1c1,0.1,2.1,0.2,3.2,0.2c2,0.1,4-0.3,5.8-1.1
		c1.8-0.6,3.2-2.1,3.6-4c0.1-0.8,0.1-1.6,0.1-2.4c0-0.4,0-0.7,0-1.1v-0.1l-0.5-0.1l-0.1,0.1c-0.1,0.2-0.2,0.3-0.3,0.5
		c-0.2,0.3-0.4,0.7-0.6,1c-0.8,1.1-2.1,1.8-3.5,1.8c-0.8,0-1.6-0.2-2.4-0.5c-1.5-0.6-2.8-1.6-3.5-3.1c-0.9-1.5-2.5-2.4-4.3-2.5
		c-0.2,0-0.5,0-0.7,0.1c-2.1,0.4-3.8,2-4.2,4.1c-0.4,2,0.4,4.1,2.2,5.2c0.3,0.2,0.5,0.6,0.6,1c0,0.2,0,0.5-0.2,0.7
		c-0.2,0.2-0.4,0.3-0.7,0.3c-0.3,0-0.6-0.1-0.9-0.4c-0.5-0.4-0.9-0.8-1.4-1.3l-0.8-0.8l-0.1,0.2c-2.4,3.2-6,3.8-9.2,4
		C71.5,94.7,70.9,94.8,70.2,94.8z M60.7,84.1c0,0.4,0,0.9,0,1.3c-0.1,0.8-0.1,1.7,0.1,2.5c0.4,2,1.9,3.5,4.3,4.2
		c1.6,0.5,3.3,0.8,5.1,0.8c0.6,0,1.1,0,1.7-0.1h0.3c1.7-0.1,3.3-0.4,4.9-1c2.8-1.1,4.1-3.3,3.7-6.2c-0.4-2.1-2.1-3.7-4.2-4.1
		c-0.2,0-0.4-0.1-0.7-0.1c-1.7,0-3.3,0.9-4.3,2.4c-0.7,1.4-1.9,2.4-3.3,3c-0.8,0.4-1.7,0.6-2.6,0.6c-1,0-2-0.4-2.8-1.2
		c-0.4-0.5-0.8-1-1.2-1.5c-0.2-0.3-0.4-0.6-0.6-0.9l-0.4-0.5L60.7,84.1z"/>
	<path d="M68.3,67.1c-0.3,0-0.5-0.1-0.7-0.3c-0.2-0.2-0.3-0.4-0.3-0.6c0.1-0.5,0.4-0.8,0.9-0.9c0.2,0,0.5,0.1,0.7,0.2
		c0.2,0.2,0.2,0.5,0.2,0.7c0,0.4-0.3,0.9-0.7,0.9C68.3,67.1,68.3,67.1,68.3,67.1z"/>
	<path d="M81.7,67.1c-0.5,0-0.9-0.4-0.9-0.9c0-0.2,0.1-0.5,0.2-0.7c0.2-0.2,0.4-0.3,0.7-0.3c0.5,0,0.9,0.4,1,0.9
		c0,0.2-0.1,0.5-0.3,0.6C82.2,67,82,67.1,81.7,67.1L81.7,67.1z"/>
	<path d="M95.1,67.1c-0.5,0-0.9-0.3-0.9-0.8c0,0,0-0.1,0-0.1c0-0.3,0.1-0.5,0.2-0.7c0.2-0.2,0.4-0.3,0.7-0.2
		c0.5,0.1,0.8,0.4,0.9,0.9c0,0.2-0.1,0.5-0.3,0.6C95.5,67,95.3,67.1,95.1,67.1L95.1,67.1z"/>
	<path d="M108.9,67.1c-0.3,0-0.5-0.1-0.7-0.3c-0.2-0.2-0.3-0.4-0.3-0.6c0.1-0.5,0.4-0.8,0.9-0.9c0.2,0,0.5,0.1,0.7,0.2
		c0.2,0.2,0.3,0.5,0.2,0.7C109.8,66.7,109.4,67.1,108.9,67.1C109,67.1,108.9,67.1,108.9,67.1z"/>
	<path d="M54.8,67.1c-0.5,0-0.9-0.4-0.9-0.9s0.4-0.9,0.9-0.9c0.5,0,0.9,0.3,0.9,0.8c0,0,0,0.1,0,0.1c0,0.3-0.1,0.5-0.2,0.7
		C55.3,67,55.1,67.1,54.8,67.1L54.8,67.1z"/>
</g>
</svg>
