<?xml version="1.0" encoding="utf-8"?>
<!-- Generator: Adobe Illustrator 25.2.0, SVG Export Plug-In . SVG Version: 6.00 Build 0)  -->
<svg version="1.1" id="Layer_1" xmlns="http://www.w3.org/2000/svg" xmlns:xlink="http://www.w3.org/1999/xlink" x="0px" y="0px"
	 viewBox="0 0 162.4 162.4" style="enable-background:new 0 0 162.4 162.4;" xml:space="preserve">
<g>
	<path d="M54.1,91.7c0-0.4,0.2-0.8,0.5-1.1c0.3-0.2,0.6-0.4,1-0.4c0.3,0,0.7,0.1,0.9,0.3c0.3,0.2,0.5,0.5,0.5,0.8l3.5,11.9l0,0
		l3.5-12c0.1-0.3,0.3-0.6,0.6-0.8c0.3-0.2,0.6-0.3,0.9-0.3c0.4,0,0.7,0.1,1,0.3c0.3,0.3,0.5,0.6,0.5,1l2.4,13.9c0,0.4-0.1,0.7-0.3,1
		c-0.2,0.2-0.4,0.3-0.7,0.3c-0.2,0-0.5-0.1-0.7-0.2c-0.2-0.2-0.3-0.4-0.4-0.7l-1.9-13.1l-4,13.2c-0.1,0.5-0.5,0.8-1,0.8
		c-0.2,0-0.5-0.1-0.6-0.2c-0.2-0.1-0.3-0.3-0.4-0.6l-3.9-13.2l-1.9,13.2c0,0.3-0.2,0.5-0.4,0.7c-0.2,0.2-0.5,0.3-0.7,0.3
		c-0.2,0-0.5-0.1-0.6-0.3c-0.2-0.2-0.3-0.5-0.3-0.9c0-0.2,0-0.3,0-0.5L54.1,91.7z"/>
	<path d="M72.4,93c-0.3,0-0.6-0.1-0.8-0.4c-0.2-0.2-0.3-0.5-0.3-0.8c0-0.3,0.1-0.6,0.3-0.8c0.2-0.2,0.5-0.3,0.8-0.3
		c0.3,0,0.6,0.1,0.8,0.3c0.4,0.5,0.4,1.2,0,1.7C73,92.9,72.7,93,72.4,93z M71.4,95.5c0-0.3,0.1-0.5,0.3-0.7c0.2-0.2,0.4-0.3,0.7-0.3
		c0.3,0,0.5,0.1,0.7,0.3c0.2,0.2,0.3,0.5,0.3,0.8v10.3c0,0.3-0.1,0.6-0.3,0.8c-0.2,0.2-0.4,0.3-0.7,0.3c-0.3,0-0.5-0.1-0.7-0.3
		c-0.2-0.2-0.3-0.5-0.3-0.8V95.5z"/>
	<path d="M84,96.1v-6c0-0.3,0.1-0.6,0.3-0.7c0.2-0.2,0.4-0.3,0.7-0.3c0.3,0,0.5,0.1,0.7,0.3c0.2,0.2,0.3,0.5,0.3,0.8v15.7
		c0,0.3-0.1,0.6-0.3,0.8c-0.2,0.2-0.5,0.3-0.7,0.3c-0.3,0-0.5-0.1-0.7-0.3c-0.2-0.2-0.3-0.4-0.3-0.7v-0.7l0,0
		c-0.2,0.5-0.6,0.9-1.1,1.1c-0.6,0.3-1.3,0.5-2,0.5c-1,0-2-0.2-2.8-0.8c-0.8-0.5-1.5-1.3-1.9-2.2c-0.8-1.8-0.9-3.8-0.3-5.6
		c0.2-0.7,0.6-1.4,1.1-2c0.5-0.5,1-1,1.6-1.3c0.6-0.3,1.4-0.5,2.1-0.5C82,94.5,83.2,95.1,84,96.1L84,96.1z M77.5,100.6
		c0,1.1,0.2,2.2,0.8,3.1c0.5,0.8,1.4,1.4,2.4,1.4c0.7,0,1.5-0.2,2-0.7c0.5-0.4,0.9-1,1.1-1.7c0.2-0.7,0.4-1.4,0.4-2.1
		c0-0.8-0.1-1.6-0.4-2.3c-0.2-0.6-0.6-1.2-1.2-1.6c-0.5-0.4-1.1-0.6-1.7-0.6c-0.7,0-1.4,0.2-1.9,0.7c-0.5,0.5-0.9,1-1.1,1.7
		C77.6,99.2,77.5,99.9,77.5,100.6L77.5,100.6z"/>
	<path d="M96.7,96.1v-6c0-0.3,0.1-0.6,0.3-0.7c0.2-0.2,0.4-0.3,0.7-0.3c0.3,0,0.5,0.1,0.7,0.3c0.2,0.2,0.3,0.5,0.3,0.8v15.7
		c0,0.3-0.1,0.6-0.3,0.8c-0.2,0.2-0.5,0.3-0.7,0.3c-0.3,0-0.5-0.1-0.7-0.3c-0.2-0.2-0.3-0.4-0.3-0.7v-0.7l0,0
		c-0.2,0.5-0.6,0.9-1.1,1.1c-0.6,0.3-1.3,0.5-2,0.5c-1,0-2-0.2-2.8-0.8c-0.8-0.5-1.5-1.3-1.9-2.2c-0.4-1-0.7-2.1-0.7-3.2
		c0-0.8,0.1-1.6,0.4-2.4c0.2-0.7,0.6-1.4,1.1-2c0.5-0.5,1-1,1.6-1.3c0.6-0.3,1.4-0.5,2.1-0.5C94.7,94.5,96,95.1,96.7,96.1L96.7,96.1
		z M90.2,100.6c0,1.1,0.2,2.2,0.8,3.1c0.5,0.8,1.4,1.4,2.4,1.4c0.7,0,1.5-0.2,2-0.7c0.5-0.4,0.9-1,1.1-1.7c0.2-0.7,0.4-1.4,0.4-2.1
		c0-0.8-0.1-1.6-0.4-2.3c-0.2-0.6-0.6-1.2-1.2-1.6c-0.5-0.4-1.1-0.6-1.7-0.6c-0.7,0-1.4,0.2-1.9,0.7c-0.5,0.5-0.9,1-1.1,1.7
		C90.4,99.2,90.2,99.9,90.2,100.6z"/>
	<path d="M101.4,90.2c0-0.3,0.1-0.6,0.3-0.8c0.2-0.2,0.4-0.3,0.7-0.3c0.3,0,0.5,0.1,0.7,0.3c0.2,0.2,0.3,0.5,0.3,0.7v15.6
		c0,0.3-0.1,0.6-0.3,0.8c-0.4,0.4-1,0.4-1.4,0c-0.2-0.2-0.3-0.5-0.3-0.8V90.2z"/>
	<path d="M105.3,100.6c0-1,0.3-2,0.7-3c0.4-0.9,1-1.7,1.8-2.3c0.8-0.6,1.8-0.9,2.8-0.9c1,0,2,0.3,2.8,0.8c0.8,0.6,1.5,1.3,1.9,2.2
		c0.4,0.9,0.7,1.9,0.7,2.9c0,0.7-0.4,1-1.1,1h-7.6c0,0.7,0.2,1.4,0.5,2c0.3,0.6,0.7,1,1.3,1.3c0.6,0.3,1.2,0.4,1.8,0.4
		c1.2,0,2.4-0.5,3.3-1.3c0.2-0.2,0.5-0.3,0.8-0.4c0.2,0,0.4,0.1,0.5,0.3c0.1,0.2,0.2,0.4,0.2,0.6c0,0.3-0.1,0.5-0.3,0.7
		c-0.5,0.6-1.2,1-1.9,1.3c-0.8,0.3-1.7,0.5-2.6,0.5c-0.9,0-1.8-0.2-2.6-0.6c-0.7-0.3-1.3-0.8-1.8-1.5c-0.4-0.6-0.8-1.3-1-2
		c-0.2-0.7-0.3-1.4-0.3-2.2L105.3,100.6L105.3,100.6z M107.3,99.9h6.7c0-1-0.3-1.9-0.9-2.7c-0.6-0.7-1.5-1.1-2.4-1.1
		c-0.9,0-1.8,0.3-2.4,1C107.6,97.9,107.3,98.9,107.3,99.9L107.3,99.9z"/>
</g>
<g>
	<path d="M50.4,113.7c0-0.3,0.1-0.6,0.2-0.8c0.1-0.2,0.4-0.3,0.6-0.3h6.1c0.2,0,0.5,0.1,0.6,0.3c0.2,0.2,0.2,0.4,0.2,0.7
		c0,0.2-0.1,0.5-0.2,0.7c-0.2,0.2-0.4,0.3-0.7,0.3h-5v5.4h4.5c0.2,0,0.5,0.1,0.7,0.3c0.2,0.2,0.2,0.4,0.2,0.7c0,0.2-0.1,0.5-0.2,0.7
		c-0.2,0.2-0.4,0.3-0.7,0.3h-4.5v5.3h5c0.2,0,0.5,0.1,0.6,0.3c0.2,0.2,0.2,0.4,0.2,0.7c0,0.5-0.3,0.9-0.8,0.9c-0.1,0-0.1,0-0.2,0
		h-5.8c-0.4,0-0.7-0.1-0.8-0.4c-0.1-0.2-0.2-0.5-0.2-0.7L50.4,113.7z"/>
	<path d="M68.6,118.2v-0.7c0-0.3,0.1-0.5,0.3-0.7c0.2-0.2,0.4-0.3,0.7-0.3c0.2,0,0.5,0.1,0.7,0.3c0.2,0.2,0.3,0.5,0.3,0.7v10.4
		c0,0.3-0.1,0.6-0.3,0.8c-0.2,0.2-0.4,0.2-0.7,0.2c-0.2,0-0.5-0.1-0.7-0.2c-0.2-0.2-0.3-0.4-0.3-0.7v-0.9l0,0
		c-0.7,1.1-1.9,1.8-3.2,1.8c-1,0-1.9-0.2-2.8-0.7c-0.8-0.5-1.5-1.3-2-2.2c-1-2.1-0.9-4.6,0.1-6.7c0.5-0.9,1.1-1.6,2-2.1
		c0.7-0.4,1.6-0.7,2.4-0.7c0.6,0,1.3,0.1,1.9,0.4C67.7,117.3,68.2,117.7,68.6,118.2L68.6,118.2z M62,122.7c0,0.7,0.1,1.5,0.4,2.2
		c0.2,0.6,0.6,1.2,1.1,1.6c0.5,0.4,1.1,0.7,1.8,0.7c1,0.1,2-0.4,2.6-1.3c0.6-1,0.8-2.1,0.8-3.2c0-0.8-0.1-1.6-0.4-2.4
		c-0.2-0.6-0.6-1.2-1.2-1.5c-0.5-0.4-1.1-0.6-1.7-0.5l0,0c-1,0-1.9,0.5-2.4,1.3C62.3,120.5,62,121.6,62,122.7L62,122.7z"/>
	<path d="M72.9,127.6c-0.3-0.2-0.5-0.6-0.5-1c0-0.2,0.1-0.5,0.3-0.6c0.2-0.2,0.4-0.3,0.6-0.2c0.2,0,0.4,0.1,0.6,0.2l0.7,0.5l0.6,0.4
		c0.5,0.3,1.1,0.4,1.7,0.5c0.6,0,1.2-0.1,1.7-0.4c0.5-0.2,0.8-0.7,0.8-1.3c0-0.6-0.4-1.1-0.9-1.4c-0.6-0.3-1.2-0.6-1.8-0.8
		c-0.8-0.3-1.4-0.6-2-0.8c-0.5-0.3-0.9-0.6-1.2-1c-0.4-0.5-0.6-1-0.5-1.6c0-0.6,0.2-1.2,0.5-1.7c0.4-0.5,0.8-0.9,1.4-1.2
		c0.7-0.3,1.4-0.5,2.1-0.5c0.7,0,1.5,0.1,2.2,0.4c0.6,0.2,1.1,0.5,1.5,0.8c0.3,0.2,0.5,0.6,0.5,0.9c0,0.2-0.1,0.4-0.2,0.6
		c-0.2,0.2-0.4,0.3-0.6,0.3c-0.4-0.1-0.8-0.3-1.1-0.5c-0.4-0.2-0.7-0.4-1.1-0.6c-0.3-0.1-0.6-0.2-0.9-0.2c-0.6,0-1.1,0.1-1.6,0.4
		c-0.4,0.3-0.6,0.7-0.6,1.1c0.1,0.4,0.3,0.7,0.5,1c0.3,0.3,0.6,0.5,1,0.6c0.4,0.2,0.8,0.3,1.3,0.5c0.5,0.2,0.9,0.3,1.1,0.4
		c0.7,0.3,1.4,0.7,1.9,1.3c0.4,0.5,0.6,1.2,0.6,1.8c0,0.6-0.2,1.2-0.5,1.7c-0.4,0.6-0.9,1-1.5,1.3c-0.8,0.4-1.6,0.5-2.5,0.5
		C75.4,129,74,128.6,72.9,127.6z"/>
	<path d="M83.9,118.4H83c-0.2,0-0.5-0.1-0.7-0.2c-0.2-0.2-0.3-0.4-0.3-0.6c0-0.5,0.4-0.9,0.9-0.9c0,0,0.1,0,0.1,0h0.9V114
		c0-0.3,0.1-0.5,0.3-0.7c0.2-0.2,0.4-0.3,0.7-0.2c0.3,0,0.5,0.1,0.7,0.2c0.2,0.2,0.3,0.5,0.3,0.7v2.6h0.9c0.3,0,0.5,0.1,0.7,0.3
		c0.2,0.2,0.3,0.4,0.2,0.6c0,0.2-0.1,0.4-0.2,0.6c-0.2,0.2-0.4,0.2-0.6,0.2h-1v9.6c0,0.3-0.1,0.5-0.3,0.7c-0.2,0.2-0.5,0.3-0.8,0.3
		c-0.2,0-0.5-0.1-0.7-0.3c-0.2-0.2-0.3-0.5-0.3-0.8V118.4z"/>
	<path d="M88,122.6c0-1,0.3-2,0.7-3c0.4-0.9,1-1.7,1.8-2.3c0.8-0.6,1.8-0.9,2.8-0.9c1,0,2,0.3,2.8,0.8c0.8,0.6,1.5,1.3,1.9,2.2
		c0.4,0.9,0.7,1.9,0.7,2.9c0,0.7-0.4,1-1.1,1H90c0,0.7,0.2,1.4,0.5,2c0.3,0.6,0.7,1,1.3,1.3c0.6,0.3,1.2,0.4,1.8,0.4
		c1.2,0,2.4-0.5,3.3-1.3c0.2-0.2,0.5-0.3,0.8-0.4c0.2,0,0.4,0.1,0.5,0.3c0.1,0.2,0.2,0.4,0.2,0.6c0,0.3-0.1,0.5-0.3,0.7
		c-0.5,0.6-1.2,1-1.9,1.3c-0.8,0.3-1.7,0.5-2.6,0.5c-0.9,0-1.8-0.2-2.6-0.6c-0.7-0.3-1.3-0.8-1.8-1.5c-0.4-0.6-0.8-1.3-1-2
		c-0.2-0.7-0.3-1.4-0.3-2.2L88,122.6L88,122.6z M90,122h6.7c0-1-0.3-1.9-0.9-2.7c-0.6-0.7-1.5-1.1-2.4-1.1c-0.9,0-1.8,0.3-2.4,1
		C90.3,120,90,121,90,122z"/>
	<path d="M100.6,117.6c0-0.3,0.1-0.5,0.3-0.7c0.2-0.2,0.4-0.3,0.7-0.3c0.3,0,0.5,0.1,0.7,0.3c0.2,0.2,0.3,0.5,0.3,0.7v1l0,0
		c0.3-0.5,0.7-1,1.2-1.4c0.4-0.4,0.9-0.6,1.5-0.7c0.3,0,0.6,0.1,0.8,0.3c0.2,0.2,0.3,0.4,0.3,0.7c0,0.3-0.1,0.6-0.3,0.8
		c-0.3,0.2-0.7,0.3-1.1,0.4c-0.3,0.1-0.6,0.2-0.9,0.3c-0.5,0.3-0.9,0.7-1.2,1.2c-0.3,0.6-0.4,1.2-0.4,1.8v5.9c0,0.3-0.1,0.6-0.3,0.8
		c-0.2,0.2-0.4,0.3-0.7,0.3c-0.3,0-0.5-0.1-0.7-0.3c-0.2-0.2-0.3-0.5-0.3-0.8L100.6,117.6z"/>
	<path d="M107.8,117.6c0-0.3,0.1-0.6,0.3-0.8c0.2-0.2,0.4-0.3,0.7-0.3c0.3,0,0.5,0.1,0.7,0.3c0.2,0.2,0.3,0.5,0.3,0.8v0.5l0,0
		c0.4-0.5,0.9-0.9,1.5-1.2c0.6-0.3,1.2-0.4,1.8-0.4c0.7,0,1.4,0.2,2.1,0.5c0.7,0.4,1.2,0.9,1.6,1.6c0.4,0.8,0.6,1.7,0.6,2.6v6.8
		c0,0.3-0.1,0.5-0.3,0.7c-0.2,0.2-0.4,0.3-0.7,0.2c-0.3,0-0.5-0.1-0.7-0.3c-0.2-0.2-0.3-0.4-0.3-0.7v-6.8c0-0.8-0.3-1.6-0.8-2.1
		c-0.5-0.5-1.2-0.8-2-0.8c-0.5,0-1,0.1-1.4,0.3c-0.4,0.2-0.8,0.6-1,1c-0.3,0.5-0.4,1-0.4,1.6v6.7c0,0.3-0.1,0.6-0.3,0.8
		c-0.2,0.2-0.4,0.3-0.7,0.3c-0.3,0-0.5-0.1-0.7-0.3c-0.2-0.2-0.3-0.5-0.3-0.8L107.8,117.6z"/>
</g>
<path d="M81.4,81.2c-0.4,0-0.8-0.1-1.2-0.3c-1.6-0.8-1.9-3.1-2.1-5.4c0-1-0.2-2-0.6-3c-0.3-0.5-0.6-0.9-0.9-1.4
	c-0.8-0.9-1.4-2-1.8-3.2c-0.4-0.5-0.8-1-1.3-1.4c-1.1-1-2.5-2.3-2.2-4.5c-0.1-1.1-0.7-2.2-1.6-2.8c-0.1,0-0.1-0.1-0.2-0.1
	c-1.1-0.7-1.8-2.3-2.6-3.9c-0.7-1.4-1.6-3.5-2.4-3.5h-0.1c-0.1,0.2-0.3,0.3-0.5,0.5c0,0-0.1,0.1-0.1,0.1c0.9,1.7,2.1,3.7,3.4,5.8
	c0.2,0.3,0.2,0.8,0,1.1c-0.2,0.4-0.3,0.5,0.9,1.4c0.4,0.3,0.8,0.6,1.1,0.9c0.3,0.3,0.4,0.8,0.2,1.2c-0.2,0.4-0.6,0.6-1,0.6h-21
	c-0.6,0-1.1-0.5-1.1-1.1c0,0,0,0,0,0c0.1-3.5,0-7-0.1-10.5c-0.1-2-0.1-4.1-0.1-6.2c-0.3-1,0.1-2.1,0.9-2.8c1.8-1.4,5.4,0.2,6.5,0.7
	c0.5,0.2,1.1,0,2.1-0.5c1.1-0.5,2.8-1.3,4.2,0c0.2,0,0.4,0,0.6,0.1c0.6,0.4,1.3,0.5,1.9,0.3c0.8-0.3,1.3-1.8,1.7-3.2
	c0.3-1.2,0.8-2.3,1.4-3.4c0.2-0.8,0.3-1.7,0.3-2.6c-0.2-0.3-0.3-0.6-0.4-1c-0.2-0.1-0.4-0.1-0.6-0.1c-0.8,0.9-1.9,1.4-3,1.4
	c-1.1,0.1-2.2-0.3-3-1.1c-0.1-0.1-0.3-0.1-0.8-0.1h-0.1c-1.2,1.7-2.9,0.8-3.7,0.4c-0.4-0.3-0.9-0.4-1.4-0.4c-0.2,0-0.3,0-0.5,0
	c-1.3-0.2-1.8-1.3-2.2-2.1c-0.4-0.8-0.5-1.1-0.9-1.2c-0.3-0.1-0.5-0.3-0.6-0.6c-0.1-0.3-0.1-0.6,0-0.8l0.6-1.2l-0.6-0.6
	c-0.3-0.3-0.4-0.8-0.2-1.2c0.8-1.6,2.4-2.7,4.2-2.7c0.9-0.1,0.9-0.1,1-0.6c0-0.1,0.1-0.2,0.2-0.4c0.9-1.1,2.2-0.9,3.1-0.7
	s1.2,0.2,1.4-0.1c0-0.1,0.1-0.1,0.2-0.2c3.4-3,6.6-1.7,9.4-0.6c1.3,0.6,2.7,1,4.1,1.2c0,0,0.1,0,0.1,0c1,0,2-0.2,2.9-0.6
	c1.7-0.5,3.5-1.1,4.9-0.2c0.9,0.7,1.5,1.7,1.5,2.9c0,0,0,0.1,0,0.1c0.9,0.5,1.6,1.2,2.1,2c0.3,0.4,0.8,1.1,1,1.1
	c0.1,0,0.3-0.1,0.7-0.3c0.9-1.1,2.7-1.9,3.8-1.2c0.6,0.5,0.9,1.3,0.5,2c0.5,0.4,0.8,0.9,1.1,1.4c0.3,0.6,0.4,0.7,0.7,0.9
	c0.1,0,0.1,0,0.2,0.1c0.4,0.2,0.8,0.4,1.2,0.6c1.2,0.7,2,1.1,3.1,0.9c0.1,0,0.1,0,0.2,0c1.1-0.2,2.2-0.6,3.1-1.3
	c1.1-0.9,2.4-1.4,3.8-1.6h0.1c2.4,0.2,4.6,1.1,6.5,2.6l0.1,0.1l0.3,0.3c0.6,0.6,0.7,0.6,1,0.5c0.3-0.1,0.6-0.1,0.8,0.1
	c0.3,0.1,0.4,0.4,0.5,0.7c0.4,1.7,0.2,3.4-0.5,4.9c-0.1,0.3-0.2,0.6-0.3,0.9l0.1,0.1c0.5,0.3,0.6,1,0.3,1.5
	c-0.1,0.1-0.1,0.2-0.2,0.2c-0.3,0.2-0.3,0.3,0,1.2l0.1,0.3c0,0.1,0,0.1,0,0.2v0.3c0,0.2,0,0.3,0.1,0.5h0.1c0.2,0,0.3,0.1,0.5,0.2
	c0.5,0.3,0.9,0.8,1,1.4c0.1,1-0.6,2-1.2,2.8l0.1,0.1c0.5,0.9,0.9,1.5,1.5,1.6h0.1c0.8,0.3,1.3,1.1,1.3,1.9c0,0.1,0,0.2-0.1,0.3l0,0
	c0.1,0.1,0.2,0.1,0.2,0.2c0.5,0.3,0.8,0.8,0.9,1.3c0,0.5-0.3,1-0.7,1.3c-0.1,0.1-0.2,0.1-0.4,0.2c-1.2,0.1-2.1,1.1-2.1,2.3
	c0,0.3-0.2,0.6-0.5,0.7c-0.3,0.2-0.6,0.2-0.8,0.1c-0.9-0.2-1.8-0.4-2.7-0.5c-1.7-0.2-3.5-0.4-5-1.5c-0.1-0.1-0.3-0.2-0.3-0.4
	c-0.1-0.3-0.2-0.6-0.3-0.8c-0.1-0.2-0.1-0.5-0.2-0.7c-1.3,0.6-4.3,2-6.9-0.5c-2.6-1.1-3.8-3.2-4.9-5.4c-0.4,0-0.9-0.1-1.2-0.3
	c-0.2,0.2-0.4,0.3-0.6,0.4c0.3,1.5,1.1,3.4,2.6,4.4l0.1,0.1c0.5,0.4,0.9,0.9,1,1.6c0.1-0.1,0.2-0.1,0.3-0.1c0.4-0.2,0.8-0.1,1.1,0.1
	c1.3,1,1,2.4,0.8,3.2l-0.1,0.3c0,0.1,0,0.1,0,0.2c0.4,0,0.8,0,1.3,0c0.4,0,0.9,0,1.3,0c0.9-0.1,1.8-0.5,2.4-1.2
	c0.4-0.3,0.8-0.7,1.3-1.1c0.5-0.4,1.1-0.3,1.5,0.2c0.2,0.2,0.3,0.6,0.2,0.9c-0.2,0.7-0.2,1.5,0.1,2.1c0.3,0.4,1.1,0.5,1.9,0.6
	c1.6,0.2,3.7,0.5,4.6,2.9c0.1,0.4,0,0.8-0.2,1.1c-0.3,0.4-0.6,0.8-0.8,1.2c-0.5,1-1.2,2.1-2.4,2.4c0,0.2,0,0.5,0,0.7
	c0,0.1,0,0.3,0,0.4c0.1,0.5-0.1,0.9-0.4,1.3c-0.3,0.3-0.8,0.5-1.2,0.5h-0.2c-0.1,0-0.3,0.3-0.3,0.5c-0.3,0.9-1.2,1.5-2.2,1.5h-0.1
	c0,0,0,0.1,0,0.1c0,0.1,0,0.2-0.1,0.3c-0.5,1.2-1.9,1.4-3.1,1.6c-0.5,0-1.1,0.2-1.6,0.4c-0.1,0.1-0.2,0.1-0.3,0.1
	c-0.2,0-0.3,0.1-0.4,0.6c0,0.2-0.1,0.3-0.2,0.4c-0.9,1-2.1,1.6-3.4,1.9c-0.9,0.2-1.8,0.6-2.5,1.2c-0.1,0.2-0.4,0.3-0.6,0.4
	c-0.6,0.2-1.1,0.4-1.7,0.6c-1.2,0.6-2.4,0.9-3.7,0.9c-0.1,0.1-0.2,0.1-0.3,0.2c-0.2,0.1-0.4,0.3-0.6,0.4
	C83.1,80.8,82.3,81.1,81.4,81.2z M70.8,57.5c1.7,1,2.8,2.8,2.8,4.8c0,0.1,0,0.1,0,0.2c-0.2,1.1,0.4,1.6,1.5,2.6
	c0.7,0.6,1.3,1.3,1.8,2c0,0.1,0.1,0.2,0.1,0.3c0.3,0.9,0.8,1.8,1.4,2.5c0.4,0.5,0.8,1,1.1,1.6c0.5,1.2,0.8,2.5,0.8,3.8
	c0.1,1.4,0.3,3.4,0.9,3.7c0.2,0.1,0.7,0,1.5-0.4c0.1-0.1,0.2-0.2,0.3-0.2c0.5-0.4,1.1-0.7,1.7-0.7c1-0.1,2-0.3,2.9-0.8
	c0.5-0.2,1.1-0.4,1.6-0.6c0.9-0.8,2.1-1.4,3.3-1.6c0.8-0.1,1.5-0.5,2.2-1c0.2-0.9,0.9-1.6,1.7-1.8c0.7-0.3,1.5-0.5,2.3-0.6
	c0.5,0,1-0.2,1.4-0.3c0.2-1.1,1.2-1.8,2.3-1.6c0.1-0.1,0.2-0.3,0.2-0.4c0.3-0.8,1-1.4,1.8-1.5l0,0c0-0.8,0-2.3,1.4-2.7h0.2
	c0.3,0,0.8-0.8,1.2-1.5c0.2-0.3,0.4-0.7,0.6-1c-0.5-0.7-1.4-0.8-2.7-1c-1.3-0.2-2.5-0.3-3.4-1.5c-0.3-0.4-0.4-0.8-0.5-1.2
	c-0.9,0.8-2,1.2-3.2,1.3c-0.1,0-0.2,0-0.3,0c-0.3,0-0.7,0-1,0c-1,0.1-2.3,0.1-3-0.7c-0.2-0.3-0.4-0.6-0.5-1c-0.1,0-0.1,0-0.2,0
	c-0.5,0-0.9-0.3-1-0.7c-0.1-0.2-0.2-0.4-0.3-0.5c-0.6-0.7-0.8-1.7-0.6-2.5c0,0,0,0,0-0.1L91.2,54c-2.8-1.7-3.6-5.2-3.8-7.2
	c0-0.4,0.1-0.8,0.5-1c0.3-0.2,0.8-0.2,1.1,0c0.1-0.1,0.1-0.1,0.1-0.2l0.3-0.3c0.4-0.4,1-0.4,1.4-0.1c0.2,0.2,0.4,0.3,0.6,0.4
	c0.3-0.2,0.6-0.3,0.9-0.2c0.3,0.1,0.6,0.3,0.7,0.6l0.1,0.3c1.2,2.4,2,4.1,4.2,5c0.1,0.1,0.3,0.1,0.4,0.2c1.2,1.2,2.5,1.2,4.8,0.1
	l0.1-0.1c0.5-0.2,1.1-0.2,1.6,0.1c0.7,0.5,1.2,1.2,1.3,2l0.1,0.3c1.2,0.5,2.4,0.8,3.7,0.8c0.6,0.1,1.3,0.2,1.9,0.3
	c0.3-1.2,1.2-2.1,2.3-2.5c-0.4-0.4-0.5-1-0.4-1.6c-1.1-0.5-2-1.4-2.5-2.5c-0.1-0.2-0.3-0.5-0.5-0.7c-0.3-0.4-0.2-0.9,0.1-1.3
	l0.2-0.2c0.4-0.4,0.7-0.8,1-1.3c-1-0.3-1.6-1.3-1.6-2.3v-0.1l-0.1-0.2c-0.4-0.8-0.4-1.6-0.1-2.5c-0.2-0.3-0.3-0.6-0.3-1
	c0.1-0.6,0.3-1.2,0.5-1.8c0.4-0.9,0.6-1.9,0.6-2.9c-0.7-0.2-1.4-0.6-1.9-1.2l-0.2-0.2c-1.5-1.2-3.3-1.9-5.2-2.1
	c-1,0.2-2,0.7-2.8,1.3c-1.2,0.9-2.6,1.5-4,1.7c-1.9,0.4-3.3-0.4-4.5-1.2c-0.3-0.2-0.6-0.4-1-0.5c-0.9-0.3-1.6-0.9-1.9-1.8
	c-0.3-0.6-0.5-0.8-1-1c-0.3-0.1-0.6-0.3-0.7-0.7c-0.1-0.1-0.1-0.3-0.1-0.5c-0.1,0-0.1,0.1-0.1,0.2c-0.1,0.1-0.1,0.2-0.2,0.2
	c-0.6,0.6-1.5,0.9-2.4,0.9c-1.2-0.2-1.9-1.2-2.5-2c-0.4-0.5-0.8-1.1-1.1-1.3c-0.9-0.2-1.4-1-1.3-1.9c0-0.5-0.2-0.9-0.5-1.2
	c-0.6-0.3-1.9,0.1-3.1,0.5c-1.2,0.5-2.5,0.7-3.9,0.7c-1.6-0.2-3.2-0.6-4.7-1.3c-2.7-1.1-4.8-1.9-7.1,0.2c-1,1.2-2.4,1-3.4,0.8
	c-0.3-0.1-0.6-0.1-0.9-0.1c-0.4,1.2-1.5,1.9-2.7,1.8c-0.8,0-1.6,0.3-2.1,1l0.5,0.5c0.3,0.3,0.4,0.8,0.2,1.2l-0.5,1
	c0.5,0.5,0.9,1.1,1.1,1.7c0.1,0.3,0.3,0.6,0.5,0.9c0.9-0.1,1.8,0.2,2.5,0.7c0.3,0.2,0.6,0.3,0.8,0.4c0.1-0.1,0.2-0.3,0.3-0.4
	c0.2-0.4,0.6-0.6,1-0.6c0.2,0,0.3,0,0.5,0c0.8-0.1,1.7,0.1,2.3,0.6l0.1,0.1c0.4,0.4,0.9,0.6,1.4,0.5c0.6,0,1.2-0.3,1.6-0.8
	c0,0,0.1-0.1,0.1-0.1c0.8-0.6,1.9-0.7,2.8-0.3c0.2,0.1,0.4,0.1,0.7,0.1c0.6,0,1,0.6,1,1.2c0,0.2-0.1,0.4-0.2,0.5v0.1
	c0.1,0.1,0.2,0.3,0.2,0.5c0.1,1.3,0,2.6-0.3,3.9c0,0.1-0.1,0.3-0.2,0.4c-0.6,0.9-1,1.9-1.2,2.9c-0.6,1.9-1.2,3.8-2.9,4.5
	c-0.9,0.4-2,0.4-2.9,0C60.3,46,60.1,46,59.8,46c-0.4,0-0.7-0.2-0.8-0.6c-0.4-0.8-0.6-0.8-2.2-0.1c-1.1,0.5-2.4,1.1-3.9,0.5
	c-2-1-3.9-1.3-4.3-0.9c-0.1,0.1-0.1,0.4-0.1,0.8c0,0.1,0,0.1,0,0.2c0,2,0.1,4,0.1,6.2c0.1,3.1,0.1,6.4,0.1,9.5h17.1
	c-0.7-0.7-0.9-1.7-0.6-2.5c-2.5-3.9-5.8-9.9-5.6-11.9c0-0.5,0.4-0.8,0.8-0.9c0.5-0.1,0.9,0.1,1.1,0.6c0.2,0.4,0.4,0.8,0.6,1.2
	c0.3,0.7,0.6,1.3,1,2c0-0.1,0.1-0.3,0.1-0.4c0.2-0.8,0.5-1.5,1-2c0.3-0.3,0.8-0.4,1.2-0.2c0.4,0.2,0.6,0.7,0.6,1.1l-0.3,1.7
	c1.4,0.7,2.2,2.5,3.1,4.4C69.4,55.6,70,56.6,70.8,57.5z M72.5,62.3L72.5,62.3z"/>
</svg>
