<?xml version="1.0" encoding="utf-8"?>
<!-- Generator: Adobe Illustrator 25.2.0, SVG Export Plug-In . SVG Version: 6.00 Build 0)  -->
<svg version="1.1" id="Layer_1" xmlns="http://www.w3.org/2000/svg" xmlns:xlink="http://www.w3.org/1999/xlink" x="0px" y="0px"
	 viewBox="0 0 162.4 162.4" style="enable-background:new 0 0 162.4 162.4;" xml:space="preserve">
<g>
	<path d="M51.6,113.5c0-0.3,0.1-0.6,0.2-0.8c0.1-0.2,0.4-0.3,0.6-0.3c0.5,0,0.9,0.3,1.1,0.7l8.5,12.2l0,0v-11.8
		c0-0.3,0.1-0.6,0.3-0.8c0.2-0.2,0.4-0.3,0.7-0.3c0.3,0,0.5,0.1,0.7,0.3c0.2,0.2,0.3,0.5,0.3,0.8V128c0,0.3-0.1,0.5-0.2,0.8
		c-0.2,0.2-0.4,0.3-0.7,0.3c-0.4,0-0.9-0.3-1.1-0.6l-8.5-12.2l0,0V128c0,0.3-0.1,0.6-0.3,0.7c-0.2,0.2-0.4,0.2-0.7,0.2
		c-0.3,0-0.5-0.1-0.7-0.3c-0.2-0.2-0.3-0.5-0.3-0.8L51.6,113.5z"/>
	<path d="M66.2,122.7c0-1.1,0.2-2.2,0.7-3.2c0.4-0.9,1.1-1.7,1.9-2.2c0.8-0.5,1.8-0.8,2.8-0.8c1,0,2,0.3,2.8,0.9
		c0.8,0.6,1.5,1.4,1.9,2.3c0.4,1,0.7,2,0.6,3.1c0,1.1-0.2,2.1-0.6,3.1c-0.4,0.9-1.1,1.7-1.9,2.2c-1.7,1.1-3.9,1.1-5.6,0
		c-0.8-0.6-1.5-1.4-1.9-2.3C66.4,124.8,66.2,123.8,66.2,122.7z M68.2,122.7c0,1.1,0.3,2.1,0.8,3.1c0.5,0.9,1.5,1.5,2.5,1.4
		c0.7,0,1.3-0.2,1.9-0.6c0.5-0.4,0.9-1,1.1-1.6c0.3-0.7,0.4-1.5,0.4-2.3c0-0.8-0.1-1.5-0.4-2.2c-0.2-0.6-0.6-1.2-1.1-1.6
		c-0.5-0.4-1.2-0.6-1.8-0.6c-0.7,0-1.3,0.2-1.8,0.6c-0.5,0.4-0.9,1-1.1,1.6C68.3,121.2,68.2,121.9,68.2,122.7L68.2,122.7z"/>
	<path d="M78.9,117.6c0-0.3,0.1-0.5,0.3-0.7c0.4-0.4,1-0.4,1.4,0c0.2,0.2,0.3,0.5,0.3,0.7v1l0,0c0.3-0.5,0.7-1,1.2-1.4
		c0.4-0.4,0.9-0.6,1.5-0.7c0.3,0,0.6,0.1,0.8,0.3c0.2,0.2,0.3,0.4,0.3,0.7c0,0.3-0.1,0.6-0.3,0.8c-0.3,0.2-0.7,0.3-1.1,0.4
		c-0.3,0.1-0.6,0.2-0.9,0.3c-0.5,0.3-0.9,0.7-1.2,1.2c-0.3,0.6-0.4,1.2-0.4,1.8v5.9c0,0.3-0.1,0.6-0.3,0.8c-0.2,0.2-0.4,0.3-0.7,0.3
		c-0.3,0-0.5-0.1-0.7-0.3c-0.2-0.2-0.3-0.5-0.3-0.8L78.9,117.6z"/>
	<path d="M94,118.2v-6c0-0.3,0.1-0.6,0.3-0.7c0.2-0.2,0.4-0.3,0.7-0.3c0.3,0,0.5,0.1,0.7,0.3c0.2,0.2,0.3,0.5,0.3,0.8v15.7
		c0,0.3-0.1,0.6-0.3,0.8c-0.2,0.2-0.5,0.3-0.7,0.3c-0.3,0-0.5-0.1-0.7-0.3c-0.2-0.2-0.3-0.4-0.3-0.7v-0.7l0,0
		c-0.2,0.5-0.6,0.9-1.1,1.1c-0.6,0.3-1.3,0.5-2,0.5c-1,0-2-0.2-2.8-0.8c-0.8-0.5-1.5-1.3-1.9-2.2c-0.4-1-0.7-2.1-0.7-3.2
		c0-0.8,0.1-1.6,0.4-2.4c0.2-0.7,0.6-1.4,1.1-2c0.5-0.5,1-1,1.6-1.3c0.6-0.3,1.4-0.5,2.1-0.5C92,116.5,93.2,117.2,94,118.2L94,118.2
		z M87.5,122.7c0,1.1,0.2,2.2,0.8,3.1c0.5,0.9,1.4,1.4,2.4,1.4c0.7,0,1.4-0.2,2-0.7c0.5-0.4,0.9-1,1.1-1.7c0.2-0.7,0.4-1.4,0.4-2.1
		c0-0.8-0.1-1.6-0.4-2.3c-0.2-0.6-0.6-1.2-1.2-1.6c-1.1-0.8-2.5-0.8-3.6,0.1c-0.5,0.5-0.9,1-1.1,1.7C87.6,121.3,87.5,122,87.5,122.7
		L87.5,122.7z"/>
	<path d="M99.7,115.1c-0.3,0-0.6-0.1-0.8-0.4c-0.2-0.2-0.3-0.5-0.3-0.8c0-0.3,0.1-0.6,0.3-0.8c0.2-0.2,0.5-0.3,0.8-0.3
		c0.3,0,0.6,0.1,0.8,0.3c0.4,0.5,0.4,1.2,0,1.7C100.3,115,100,115.1,99.7,115.1z M98.7,117.5c0-0.3,0.1-0.6,0.3-0.7
		c0.4-0.4,1-0.4,1.4,0c0.2,0.2,0.3,0.5,0.3,0.8v10.3c0,0.3-0.1,0.6-0.3,0.8c-0.4,0.3-1,0.3-1.4,0c-0.2-0.2-0.3-0.5-0.3-0.8V117.5z"
		/>
	<path d="M111.5,117.6c0.1,0.1,0.1,0.3,0.1,0.4c0,0.2-0.1,0.4-0.2,0.6c-0.2,0.2-0.4,0.3-0.6,0.3c0,0,0,0-0.1,0l-0.2-0.1l-0.4-0.1
		l-0.9-0.3c-0.3-0.1-0.5-0.1-0.8-0.1c-0.7,0-1.3,0.2-1.8,0.6c-0.5,0.4-0.9,1-1.2,1.6c-0.3,0.7-0.4,1.4-0.5,2.1c0,1.1,0.2,2.1,0.7,3
		c0.2,0.3,0.4,0.6,0.6,0.8c0.2,0.2,0.5,0.4,0.8,0.5c0.3,0.1,0.7,0.2,1,0.3c0.1,0,0.2,0,0.3,0c0.2,0,0.4,0,0.5-0.1
		c0.2,0,0.3-0.1,0.5-0.1l0.2-0.1l0.3-0.1l0.4-0.2c0.2-0.1,0.3-0.1,0.5-0.1c0.2,0,0.4,0.1,0.5,0.2c0.1,0.2,0.2,0.4,0.2,0.6
		c0,0.6-0.4,1.2-1,1.3c-0.7,0.2-1.4,0.3-2.2,0.3c-1,0-2-0.3-2.9-0.8c-0.8-0.5-1.5-1.3-1.9-2.2c-0.4-0.9-0.7-1.9-0.7-3
		c0-0.8,0.1-1.6,0.3-2.4c0.2-0.7,0.5-1.4,1-2.1c0.4-0.6,1-1.1,1.7-1.4c0.8-0.4,1.6-0.6,2.4-0.6c0.7,0,1.4,0.1,2.1,0.3
		C110.8,117,111.2,117.3,111.5,117.6z"/>
</g>
<path d="M81.3,94.4H51.1c-2.2,0.1-4.1-1.5-4.3-3.7c-0.2-2,1-3.9,3-4.4c0.6-0.1,1.1-0.2,1.7-0.2l0.9-0.1h0.2v-0.2
	c-0.3-6.6-0.1-13.6,3.8-19.9l0.1-0.2L56,65.5L55.3,65l-0.8-0.5c-0.7-0.4-1.3-0.8-1.9-1.3c-4.1-2.9-5.1-8.5-2.2-12.5
	c0.2-0.3,0.4-0.6,0.7-0.9c1.5-1.9,3.2-3.8,4.8-5.7L56,44c1.7-1.7,2.4-4.2,1.7-6.6c-0.4-1.5-0.7-3-0.9-4.5c-0.1-0.5,0.1-1,0.4-1.3
	c0.3-0.2,0.6-0.3,0.9-0.3c0.1,0,0.3,0,0.4,0.1l1,0.5c1.9,0.9,3.7,1.9,5.5,3c1.9,1.2,3.1,3.1,3.5,5.2c0.3,2.3-0.5,4.6-2,6.4
	c-1.1,1.3-2,2.6-2.8,4.1c-1.1,2.2-0.5,3.8,1.8,5c0.1,0.1,0.2,0.1,0.4,0.1c0.2,0,0.5-0.1,0.7-0.2c3.2-1.9,6.8-3.2,10.5-3.7
	c1.4-0.2,2.8-0.3,4.3-0.3c5,0,9.9,1.3,14.2,3.9c0.3,0.2,0.6,0.3,0.9,0.3c0.4,0,0.7-0.2,1-0.4c1.9-1.4,2.2-2.7,1.3-4.6
	c-0.7-1.4-1.5-2.6-2.5-3.8c-1.3-1.4-2.1-3.1-2.3-4.9c-0.2-2.4,0.8-4.8,2.7-6.4c2.2-1.8,4.8-3.2,7.4-4.2c0.2-0.1,0.3-0.1,0.5-0.1
	c0.3,0,0.7,0.2,0.9,0.4c0.3,0.3,0.4,0.8,0.3,1.2l-0.2,0.9c-0.3,1.3-0.5,2.6-0.8,3.9c-0.6,2.3,0,4.7,1.6,6.4l2.5,2.9
	c0.6,0.7,1.2,1.4,1.8,2.1c1.4,1.5,2.4,3.3,2.8,5.3c0.7,3.1-0.5,6.4-3,8.4c-0.9,0.8-1.9,1.5-2.9,2.1l-1.5,1l-0.1,0.1l0.1,0.1
	c3.9,6.3,4.1,13.6,3.7,19.9v0.2h1.5c2.3-0.1,4.2,1.7,4.3,4c0,0,0,0.1,0,0.1c0,1.1-0.4,2.2-1.3,3c-0.8,0.8-2,1.2-3.1,1.2L81.3,94.4z
	 M111.3,91.9h0.5c0.9-0.1,1.5-0.8,1.5-1.7c0-0.9-0.7-1.6-1.6-1.6h-0.5H51.3c-0.2,0-0.5,0-0.7,0c-0.8,0.1-1.4,0.7-1.4,1.5
	c-0.1,0.7,0.4,1.4,1.1,1.6c0.4,0.1,0.8,0.1,1.2,0.1L111.3,91.9L111.3,91.9z M88.4,86h19v-0.2c1.6-15-5.5-26.8-18.8-30.9l-0.2-0.1
	L88.4,86z M73.6,55.1L73,55.3c-5.4,1.8-10.2,5.4-13.4,10.2c-4.6,6.5-4.8,13.9-4.5,20.3c0,0.1,0.1,0.2,0.1,0.2l0.1,0.1h0.1h18.8V54.8
	L73.6,55.1z M81.2,53.9c-1.4,0-2.9,0.1-4.3,0.4h-0.2V86h8.9V54.3h-0.1C84.2,54,82.7,53.9,81.2,53.9L81.2,53.9z M102.4,34.6l-1.2,0.7
	c-0.8,0.5-1.6,0.9-2.3,1.4c-1.3,0.8-2.2,2.1-2.5,3.7c-0.1,1.6,0.4,3.1,1.5,4.2l0.3,0.3c0.1,0.2,0.3,0.3,0.4,0.5
	c1.3,1.5,2.2,3.1,2.9,5c0.8,2.1,0.1,4.5-1.6,5.9L99.4,57L99,57.3l6,6.3l0.1-0.1l1.3-0.9c1-0.7,2-1.4,2.9-2.2
	c2.1-1.9,2.6-4.9,1.2-7.3c-0.5-0.9-1-1.7-1.7-2.5c-0.9-1.1-1.8-2.2-2.8-3.2c-0.5-0.6-1.1-1.3-1.6-1.9c-2.1-2.2-2.9-5.4-2.2-8.3
	c0.1-0.4,0.2-0.9,0.3-1.4l0.2-1.2L102.4,34.6z M59.9,35.1c0,0.1,0,0.1,0,0.2l0.1,0.3c0.1,0.3,0.1,0.6,0.2,0.9c1,3.2,0.1,6.7-2.3,9.1
	c-1.6,1.7-3,3.4-4.3,5c-0.6,0.8-1.2,1.6-1.6,2.5c-1.2,2.3-0.8,5.1,1.1,6.9c1.3,1.3,2.9,2.4,4.6,3.2l0.1,0.1l5.8-6.1L63,56.7
	c-0.3-0.3-0.6-0.6-0.9-0.9c-1.2-1.2-1.7-3-1.2-4.6c0.2-0.9,0.5-1.9,1-2.7c0.9-1.4,1.9-2.8,2.9-4.1c0.9-1.1,1.4-2.6,1.3-4
	c-0.2-1.4-1-2.6-2.1-3.4c-0.8-0.6-1.6-1.1-2.5-1.6l-1.2-0.8L60,34.5L59.9,35.1z"/>
</svg>
