<?xml version="1.0" encoding="utf-8"?>
<!-- Generator: Adobe Illustrator 25.2.0, SVG Export Plug-In . SVG Version: 6.00 Build 0)  -->
<svg version="1.1" id="Layer_1" xmlns="http://www.w3.org/2000/svg" xmlns:xlink="http://www.w3.org/1999/xlink" x="0px" y="0px"
	 viewBox="0 0 162.4 162.4" style="enable-background:new 0 0 162.4 162.4;" xml:space="preserve">
<g>
	<path d="M48.2,113.3c0.4,0.2,0.7,0.6,0.7,1.1c0,0.2-0.1,0.4-0.3,0.6c-0.2,0.2-0.4,0.3-0.7,0.3c-0.4-0.1-0.8-0.3-1.1-0.4
		c-0.4-0.2-0.8-0.4-1.1-0.5c-0.3-0.1-0.6-0.2-0.9-0.2c-0.6,0-1.3,0.2-1.8,0.6c-0.5,0.5-0.8,1.1-0.8,1.7c0,0.9,0.6,1.7,1.9,2.2
		c0.2,0.1,0.7,0.3,1.3,0.5c0.4,0.2,1,0.4,1.6,0.6c0.5,0.2,0.9,0.4,1.3,0.7c0.4,0.3,0.7,0.6,1,1c0.4,0.7,0.6,1.5,0.6,2.3
		c0,0.8-0.2,1.7-0.6,2.4c-0.4,0.8-1.1,1.5-1.9,1.9c-0.9,0.5-1.9,0.7-3,0.7c-0.8,0-1.6-0.1-2.4-0.3c-0.6-0.2-1.2-0.4-1.7-0.8
		c-0.3-0.2-0.5-0.5-0.5-0.9c0-0.3,0.1-0.5,0.2-0.7c0.2-0.2,0.4-0.3,0.6-0.3c0.2,0,0.4,0.1,0.6,0.2c0.5,0.3,1,0.6,1.6,0.8
		c0.6,0.2,1.2,0.3,1.8,0.3c0.5,0,1.1-0.2,1.5-0.5c0.5-0.3,0.8-0.7,1.1-1.2c0.3-0.5,0.4-1,0.4-1.5c0-0.5-0.2-1-0.5-1.4
		c-0.3-0.4-0.7-0.7-1.2-0.9c-0.6-0.3-1.2-0.6-1.9-0.8c-0.4-0.1-0.8-0.3-1.4-0.5c-0.5-0.2-1-0.5-1.5-0.9c-0.4-0.3-0.7-0.7-0.9-1.1
		c-0.2-0.5-0.4-1.1-0.4-1.7c0-0.8,0.2-1.6,0.7-2.2c0.5-0.7,1.1-1.2,1.8-1.5c0.7-0.4,1.5-0.6,2.3-0.6
		C46.1,112.4,47.2,112.7,48.2,113.3z"/>
	<path d="M50.8,122.7c0-1.1,0.2-2.2,0.7-3.2c0.4-0.9,1.1-1.7,1.9-2.2c0.8-0.5,1.8-0.8,2.8-0.8c1,0,2,0.3,2.8,0.9
		c0.8,0.6,1.5,1.4,1.9,2.3c0.4,1,0.7,2,0.6,3.1c0,1.1-0.2,2.1-0.6,3.1c-0.4,0.9-1.1,1.7-1.9,2.2c-1.7,1.1-3.9,1.1-5.6,0
		c-0.8-0.6-1.5-1.4-1.9-2.3C51,124.9,50.8,123.8,50.8,122.7z M52.8,122.7c0,1.1,0.3,2.1,0.8,3.1c0.5,0.9,1.5,1.5,2.5,1.4
		c0.7,0,1.3-0.2,1.9-0.6c0.5-0.4,0.9-1,1.1-1.6c0.3-0.7,0.4-1.5,0.4-2.3c0-0.8-0.1-1.5-0.4-2.2c-0.2-0.6-0.6-1.2-1.1-1.6
		c-0.5-0.4-1.2-0.6-1.8-0.6c-0.7,0-1.3,0.2-1.8,0.6c-0.5,0.4-0.9,1-1.1,1.6C53,121.2,52.8,122,52.8,122.7L52.8,122.7z"/>
	<path d="M63.6,117.5c0-0.5,0.4-1,0.9-1c0,0,0,0,0.1,0c0.3,0,0.5,0.1,0.7,0.3c0.2,0.2,0.3,0.5,0.3,0.7v6.6c-0.1,0.8,0.2,1.6,0.7,2.2
		c0.5,0.6,1.3,0.9,2.1,0.8c1.9,0,2.8-1,2.8-3v-6.6c0-0.3,0.1-0.6,0.3-0.7c0.2-0.2,0.4-0.3,0.7-0.3c0.3,0,0.5,0.1,0.7,0.3
		c0.2,0.2,0.3,0.5,0.3,0.7v6.7c0,0.8-0.2,1.6-0.5,2.3c-0.3,0.7-0.9,1.3-1.6,1.7c-0.9,0.5-1.8,0.7-2.8,0.6c-0.9,0-1.8-0.2-2.6-0.6
		c-0.7-0.4-1.2-1-1.6-1.7c-0.3-0.7-0.5-1.5-0.5-2.4L63.6,117.5z"/>
	<path d="M76.4,118.4h-0.9c-0.2,0-0.5-0.1-0.7-0.2c-0.2-0.2-0.3-0.4-0.3-0.6c0-0.5,0.4-0.9,0.9-0.9c0,0,0.1,0,0.1,0h0.9V114
		c0-0.3,0.1-0.5,0.3-0.7c0.2-0.2,0.4-0.3,0.7-0.2c0.3,0,0.5,0.1,0.7,0.2c0.2,0.2,0.3,0.5,0.3,0.7v2.6h0.9c0.3,0,0.5,0.1,0.7,0.3
		c0.2,0.2,0.3,0.4,0.2,0.6c0,0.2-0.1,0.4-0.2,0.6c-0.2,0.2-0.4,0.2-0.6,0.2h-1v9.6c0,0.3-0.1,0.5-0.3,0.7c-0.2,0.2-0.5,0.3-0.8,0.3
		c-0.2,0-0.5-0.1-0.7-0.3c-0.2-0.2-0.3-0.5-0.3-0.8V118.4z"/>
	<path d="M81.2,112.2c0-0.3,0.1-0.6,0.3-0.8c0.2-0.2,0.4-0.3,0.7-0.3c0.3,0,0.5,0.1,0.7,0.3c0.2,0.2,0.3,0.5,0.3,0.8v5.8l0,0
		c0.4-0.5,0.9-0.9,1.4-1.2c0.6-0.3,1.2-0.4,1.9-0.4c1.6,0,3,0.9,3.7,2.2c0.4,0.7,0.6,1.5,0.6,2.2v6.9c0,0.5-0.4,1-0.9,1
		c0,0-0.1,0-0.1,0c-0.3,0-0.5-0.1-0.7-0.3c-0.2-0.2-0.3-0.5-0.3-0.8v-6.6c0-0.8-0.2-1.5-0.8-2.1c-0.5-0.6-1.3-0.9-2-0.9
		c-0.5,0-1,0.1-1.4,0.3c-0.4,0.2-0.8,0.6-1,1c-0.3,0.5-0.4,1.1-0.4,1.6v6.7c0,0.5-0.4,1-0.9,1c0,0-0.1,0-0.1,0
		c-0.3,0-0.5-0.1-0.7-0.3c-0.2-0.2-0.3-0.5-0.3-0.8L81.2,112.2z"/>
	<path d="M92.6,122.6c0-1,0.3-2,0.7-3c0.4-0.9,1-1.7,1.8-2.3c0.8-0.6,1.8-0.9,2.8-0.9c1,0,2,0.3,2.8,0.8c0.8,0.6,1.5,1.3,1.9,2.2
		c0.4,0.9,0.7,1.9,0.7,2.9c0,0.7-0.4,1-1.1,1h-7.6c0,0.7,0.2,1.4,0.5,2c0.3,0.6,0.7,1,1.3,1.3c0.6,0.3,1.2,0.4,1.9,0.4
		c1.2,0,2.4-0.5,3.2-1.3c0.2-0.2,0.5-0.3,0.8-0.4c0.2,0,0.4,0.1,0.5,0.3c0.1,0.2,0.2,0.4,0.2,0.6c0,0.3-0.1,0.5-0.3,0.7
		c-0.5,0.6-1.2,1-1.9,1.3c-0.8,0.3-1.7,0.5-2.6,0.5c-0.9,0-1.8-0.2-2.6-0.6c-0.7-0.3-1.3-0.8-1.8-1.5c-0.4-0.6-0.8-1.3-1-2
		c-0.2-0.7-0.3-1.4-0.3-2.2L92.6,122.6L92.6,122.6z M94.6,122h6.7c0-1-0.3-1.9-0.9-2.7c-0.6-0.7-1.5-1.1-2.4-1.1
		c-0.9,0-1.8,0.3-2.4,1C95,120,94.6,121,94.6,122z"/>
	<path d="M105.2,117.6c0-0.3,0.1-0.6,0.3-0.7c0.2-0.2,0.4-0.3,0.7-0.3c0.3,0,0.5,0.1,0.7,0.3c0.2,0.2,0.3,0.5,0.3,0.7v1l0,0
		c0.3-0.5,0.7-1,1.2-1.4c0.4-0.4,0.9-0.6,1.5-0.7c0.3,0,0.6,0.1,0.8,0.3c0.2,0.2,0.3,0.4,0.3,0.7c0,0.3-0.1,0.6-0.3,0.8
		c-0.3,0.2-0.7,0.3-1,0.4c-0.3,0.1-0.6,0.2-0.9,0.3c-0.5,0.3-0.9,0.7-1.2,1.2c-0.3,0.6-0.4,1.2-0.4,1.8v5.9c0,0.3-0.1,0.6-0.3,0.8
		c-0.2,0.2-0.4,0.3-0.7,0.3c-0.3,0-0.5-0.1-0.7-0.3c-0.2-0.2-0.3-0.5-0.3-0.8L105.2,117.6z"/>
	<path d="M112.4,117.6c0-0.3,0.1-0.6,0.3-0.8c0.2-0.2,0.4-0.3,0.7-0.3c0.3,0,0.5,0.1,0.7,0.3c0.2,0.2,0.3,0.5,0.3,0.8v0.5l0,0
		c0.4-0.5,0.9-0.9,1.5-1.2c0.6-0.3,1.2-0.4,1.8-0.4c0.7,0,1.4,0.2,2.1,0.5c0.7,0.4,1.2,0.9,1.6,1.6c0.4,0.8,0.6,1.7,0.6,2.6v6.8
		c0,0.3-0.1,0.5-0.3,0.7c-0.4,0.3-1,0.3-1.4,0c-0.2-0.2-0.3-0.4-0.3-0.7v-6.8c0-0.8-0.3-1.6-0.8-2.1c-0.5-0.5-1.2-0.8-2-0.8
		c-0.5,0-1,0.1-1.4,0.3c-0.4,0.2-0.8,0.6-1,1c-0.3,0.5-0.4,1-0.4,1.6v6.7c0,0.3-0.1,0.6-0.3,0.8c-0.2,0.2-0.4,0.3-0.7,0.3
		c-0.3,0-0.5-0.1-0.7-0.3c-0.2-0.2-0.3-0.5-0.3-0.8L112.4,117.6z"/>
</g>
<g>
	<path d="M100.8,49c-1.8,0.2-3.5-1-3.9-2.8c-0.4-1.8,0.5-3.8,2.2-4.6c0.5-0.2,0.9-0.7,1-1.3c0.6-2.1,2.5-3.5,4.7-3.5
		c0.8,0,1.6,0.2,2.3,0.6c0.4,0.3,0.9,0.3,1.3,0c0.7-0.4,1.5-0.6,2.3-0.6c2.6,0,4.7,2,4.9,4.5c0,0.4,0.2,0.8,0.5,1.2
		c1,1.2,1.3,2.8,0.7,4.2c-0.5,1.3-1.7,2.2-3.1,2.2c-0.9,0-1.9,0.1-2.8,0.1h-2.1h-2.4V49H100.8L100.8,49z M104.9,38.6
		c-0.4,0-0.8,0.1-1.2,0.3c-1.2,0.5-2,1.6-2,2.9c-0.1,1-0.1,1.1-1.2,1.3c-1.2,0.2-2,1.4-1.9,2.6c0.1,1.1,0.9,1.7,2.2,1.7h11.7
		c0.4,0,0.7,0,1.1-0.1c0.8,0,1.5-0.5,1.7-1.3c0.3-0.8,0.1-1.8-0.6-2.4c-0.6-0.4-0.8-1.1-0.7-1.8c0.1-1.3-0.7-2.5-1.9-2.9
		c-0.4-0.2-0.8-0.3-1.2-0.3c-0.8,0-1.6,0.4-2.1,1c-0.2,0.2-0.5,0.4-0.8,0.4c-0.3,0-0.6-0.2-0.7-0.4C106.5,39,105.8,38.6,104.9,38.6
		L104.9,38.6z"/>
	<path d="M58.5,58.9h-5.7c-2.1,0-3.5-1-3.9-2.8c-0.4-1.8,0.5-3.8,2.2-4.6c0.5-0.2,0.9-0.7,1.1-1.3c0.6-2.1,2.5-3.5,4.7-3.5
		c0.8,0,1.6,0.2,2.3,0.6c0.2,0.1,0.4,0.2,0.6,0.2c0.2,0,0.4-0.1,0.6-0.2c2.4-1.3,5.4-0.5,6.7,1.9c0.4,0.7,0.6,1.4,0.6,2.1
		c0,0.4,0.1,0.7,0.4,1c1.1,1.2,1.4,3,0.7,4.4c-0.6,1.4-1.8,2.1-3.7,2.1h-2.5L58.5,58.9z M56.9,48.4c-0.4,0-0.7,0.1-1.1,0.2
		c-1.2,0.4-2,1.6-2.1,2.8c-0.1,1.2-0.1,1.2-1.2,1.4c-1.2,0.2-2,1.4-1.9,2.6c0.1,0.8,0.5,1.7,2.2,1.7H59l0,0h3.4c0.9,0,1.8,0,2.8,0
		c0.9,0.1,1.7-0.4,2-1.2c0.4-0.9,0.1-1.9-0.6-2.4c-0.6-0.4-0.8-1.1-0.7-1.8c0.1-1.3-0.7-2.5-1.9-2.9c-1.2-0.5-2.5-0.3-3.4,0.7
		c-0.2,0.2-0.5,0.4-0.8,0.4c-0.3,0-0.5-0.2-0.7-0.4C58.5,48.9,57.7,48.5,56.9,48.4z"/>
	<path d="M105.7,95.2c-0.9,0-1.7-0.2-2.5-0.6c-0.6-0.3-1.3-0.5-2-0.5c-0.7,0-1.4,0.2-2,0.5c-0.8,0.4-1.6,0.6-2.5,0.6
		c-0.9,0-1.8-0.2-2.6-0.7c-0.6-0.3-1.3-0.5-1.9-0.5c-0.7,0-1.4,0.2-2,0.5c-0.7,0.4-1.5,0.6-2.2,0.6h-0.5c0.8-0.5,1.5-1.1,2.1-1.7
		c0.3-0.3,0.6-0.5,0.9-0.8c0.5-0.3,1-0.4,1.5-0.3h0.8h0.4c0.6,0.1,1.2,0.3,1.7,0.6c0.6,0.3,1.2,0.5,1.9,0.5c0.6,0,1.2-0.2,1.8-0.5
		c0.8-0.4,1.7-0.7,2.6-0.7c0.9,0,1.9,0.2,2.7,0.7c0.6,0.3,1.2,0.5,1.8,0.5c0.7,0,1.3-0.2,1.9-0.5c0.8-0.4,1.7-0.7,2.6-0.7
		c0.9,0,1.9,0.2,2.7,0.7c0.6,0.3,1.2,0.5,1.8,0.4c0.7,0,1.3-0.2,1.9-0.4c0.8-0.3,1.7-0.6,2.5-0.7h0.1c0.5,0,0.8,0.4,0.8,0.8
		c0,0.5-0.3,0.8-0.9,1c-0.7,0.1-1.4,0.3-2,0.6c-0.8,0.3-1.6,0.5-2.5,0.5c-0.8,0-1.6-0.2-2.4-0.6c-0.6-0.3-1.4-0.5-2.1-0.5
		c-0.7,0-1.4,0.2-2,0.5C107.4,95,106.6,95.2,105.7,95.2z"/>
	<path d="M60.8,95.2c-0.9,0-1.8-0.2-2.6-0.7c-1.2-0.7-2.6-0.7-3.8,0c-0.8,0.4-1.7,0.7-2.6,0.7c-0.9,0-1.8-0.2-2.6-0.6
		c-0.6-0.3-1.2-0.4-1.8-0.5c-0.3-0.1-1.1-0.3-1-1c0-0.5,0.4-0.8,0.8-0.8c0,0,0,0,0.1,0h0.2c0.8,0.1,1.6,0.3,2.4,0.6
		c0.6,0.3,1.3,0.5,2,0.5c0.7,0,1.3-0.2,1.9-0.5c0.8-0.4,1.7-0.7,2.6-0.7c0.9,0,1.8,0.2,2.6,0.7c0.6,0.3,1.2,0.5,1.9,0.5
		c0.7,0,1.3-0.2,1.9-0.5c0.8-0.4,1.7-0.7,2.6-0.7c0.9,0,1.7,0.2,2.5,0.6c0.6,0.3,1.3,0.5,2,0.5c0.7,0,1.4-0.2,2-0.5
		c0.8-0.3,1.7-0.5,2.6-0.6h0.3c0.7,0,1.4,0.4,1.9,1c0.6,0.6,1.3,1.2,2,1.7l0.4,0.3h-0.3c-0.8,0-1.7-0.2-2.4-0.6
		c-0.6-0.3-1.3-0.5-2-0.5c-0.7,0-1.4,0.2-2,0.5c-1.6,0.8-3.4,0.8-5,0c-1.2-0.7-2.7-0.7-4,0C62.6,95,61.7,95.2,60.8,95.2z"/>
	<path d="M105.7,90c-0.9,0-1.7-0.2-2.5-0.6c-0.6-0.3-1.3-0.5-2-0.5c-0.7,0-1.4,0.2-2,0.5c-0.8,0.4-1.6,0.6-2.5,0.6
		c-0.8,0-1.5-0.2-2.2-0.5L93,88.9l-0.5-0.2l0.6-1.7l0.4,0.1c0.4,0.1,0.9,0.3,1.3,0.5c0.6,0.3,1.3,0.5,1.9,0.5c0.7,0,1.4-0.2,2-0.5
		c1.6-0.9,3.5-0.9,5.1,0c1.2,0.7,2.7,0.7,3.9,0c1.6-0.9,3.5-0.9,5.1,0c0.6,0.3,1.3,0.5,1.9,0.5c0.7,0,1.4-0.2,2-0.5
		c0.7-0.3,1.5-0.5,2.3-0.6h0.2c0.5,0,0.9,0.4,0.9,0.8c0,0.7-0.6,0.9-1,0.9c-0.6,0.1-1.2,0.3-1.8,0.5c-0.8,0.4-1.7,0.6-2.6,0.6
		c-0.9,0-1.7-0.2-2.5-0.6c-1.2-0.7-2.7-0.7-4,0C107.4,89.8,106.6,90,105.7,90z"/>
	<path d="M60.8,90c-0.9,0-1.7-0.2-2.5-0.7c-0.6-0.3-1.3-0.5-2-0.5c-0.7,0-1.4,0.2-2,0.5c-0.8,0.4-1.6,0.6-2.5,0.6
		c-0.9,0-1.8-0.2-2.6-0.6c-0.6-0.3-1.3-0.5-1.9-0.6c-0.3-0.1-0.9-0.3-0.9-0.9c0-0.2,0.1-0.5,0.3-0.6c0.1-0.1,0.3-0.2,0.5-0.2h0.1
		c0.9,0.1,1.7,0.3,2.5,0.6c0.6,0.3,1.3,0.5,2,0.5c0.7,0,1.3-0.2,1.9-0.5c0.8-0.4,1.6-0.6,2.5-0.7c0.9,0,1.8,0.2,2.5,0.7
		c0.6,0.3,1.3,0.5,1.9,0.5c0.7,0,1.3-0.2,1.9-0.5c0.8-0.4,1.6-0.7,2.5-0.7c0.9,0,1.8,0.2,2.5,0.7c0.6,0.3,1.3,0.5,2,0.5
		c0.6,0,1.2-0.1,1.7-0.4c0.5-0.3,1-0.5,1.6-0.6c0.3,0,0.5,0.4,0.9,1.6l-0.8,0.3c-0.8,0.3-1.6,0.6-2.4,0.8c-0.4,0.1-0.7,0.1-1.1,0.1
		c-0.8,0-1.7-0.2-2.4-0.6c-0.6-0.3-1.3-0.5-1.9-0.5c-0.7,0-1.4,0.2-2,0.5C62.6,89.8,61.7,90,60.8,90z"/>
	<path d="M105.7,84.8c-0.9,0-1.7-0.2-2.5-0.6c-0.6-0.3-1.3-0.5-2-0.5c-0.7,0-1.4,0.2-2,0.5c-0.8,0.4-1.6,0.6-2.5,0.6
		c-0.9,0-1.8-0.2-2.6-0.6c-0.3-0.1-0.3-0.2-0.3-0.5c0.1-0.4,0.2-0.8,0.2-1.2l0.1-0.3c0.7,0.5,1.5,0.8,2.4,0.8
		c1.1-0.1,2.1-0.3,3.1-0.8c0.5-0.2,1-0.3,1.6-0.3c0.9,0,1.7,0.2,2.4,0.7c0.6,0.3,1.3,0.5,2,0.5c0.7,0,1.4-0.2,2-0.5
		c1.5-0.8,3.4-0.8,4.9,0c0.6,0.3,1.3,0.5,2,0.5c0.7,0,1.4-0.2,2-0.5c0.8-0.3,1.6-0.5,2.4-0.6h0.1c0.5,0,0.8,0.4,0.9,0.8c0,0,0,0,0,0
		c0,0.5-0.3,0.8-0.9,1c-0.7,0.1-1.3,0.3-2,0.6c-0.8,0.4-1.6,0.6-2.5,0.6c-0.8,0-1.6-0.2-2.4-0.6c-0.6-0.3-1.3-0.5-2.1-0.5
		c-0.7,0-1.4,0.2-2,0.5C107.4,84.6,106.6,84.8,105.7,84.8z"/>
	<path d="M60.9,84.8c-0.9,0-1.7-0.2-2.5-0.6c-0.6-0.3-1.3-0.5-2-0.5c-0.7,0-1.4,0.2-2,0.5c-0.7,0.4-1.6,0.6-2.4,0.6
		c-0.9,0-1.7-0.2-2.5-0.6c-0.6-0.3-1.3-0.5-1.9-0.6c-0.6-0.1-1-0.5-1-0.9c0-0.5,0.4-0.9,0.9-0.9h0.1c0.8,0.1,1.6,0.3,2.4,0.6
		c0.6,0.3,1.3,0.5,2,0.5c0.7,0,1.4-0.2,2-0.5c0.8-0.4,1.6-0.6,2.5-0.6c0.9,0,1.8,0.2,2.5,0.7c1.2,0.7,2.7,0.7,3.9,0
		c0.8-0.4,1.6-0.7,2.5-0.7c0.8,0,1.5,0.2,2.2,0.5c0.7,0.4,1.5,0.6,2.4,0.6c0.8,0,1.6-0.2,2.3-0.7c0.1,0,0.1-0.1,0.2-0.1l0.3,1.8
		c-0.9,0.5-1.8,0.8-2.8,0.8c-0.8,0-1.6-0.2-2.3-0.6c-0.7-0.3-1.4-0.5-2.2-0.5c-0.8,0-1.5,0.2-2.2,0.6C62.5,84.6,61.7,84.8,60.9,84.8
		z"/>
	<path d="M105.7,79.6c-0.9,0-1.7-0.2-2.5-0.6c-0.6-0.3-1.3-0.5-2-0.5c-0.7,0-1.4,0.2-2,0.5c-0.7,0.4-1.6,0.6-2.4,0.6
		c-0.6,0-1.3-0.1-1.9-0.3c-0.3-0.1-0.4-0.2-0.3-0.4c0.1-0.4,0.1-0.9,0.2-1.3v-0.2c0.6,0.3,1.2,0.5,1.9,0.5c0.8,0,1.6-0.2,2.3-0.6
		c0.7-0.4,1.4-0.5,2.2-0.5c0.9,0,1.7,0.2,2.4,0.6c0.6,0.3,1.3,0.5,2,0.5c0.7,0,1.4-0.2,2.1-0.5c1.5-0.8,3.3-0.8,4.9,0
		c0.6,0.3,1.3,0.5,2,0.5c0.7,0,1.4-0.2,2.1-0.5c0.8-0.3,1.6-0.5,2.4-0.6h0.1c0.5,0,0.8,0.4,0.8,0.9c0,0.4-0.3,0.8-0.9,0.9
		c-0.7,0.1-1.3,0.3-2,0.6c-0.8,0.4-1.7,0.6-2.5,0.6c-0.8,0-1.6-0.2-2.4-0.6c-0.6-0.3-1.4-0.5-2.1-0.5c-0.7,0-1.4,0.2-2,0.5
		C107.4,79.4,106.6,79.6,105.7,79.6z"/>
	<path d="M60.8,79.6c-0.9,0-1.7-0.2-2.5-0.7c-0.6-0.3-1.3-0.5-2-0.5c-0.7,0-1.4,0.2-2,0.5c-0.8,0.4-1.6,0.6-2.4,0.6
		c-0.9,0-1.7-0.2-2.5-0.6c-0.6-0.3-1.3-0.5-2-0.6c-0.3-0.1-0.9-0.3-0.9-0.9c0-0.2,0.1-0.5,0.3-0.6c0.1-0.2,0.3-0.2,0.6-0.2h0.1
		c0.8,0.1,1.7,0.3,2.4,0.6c0.6,0.3,1.3,0.5,2,0.5c0.7,0,1.3-0.2,1.9-0.5c0.8-0.4,1.6-0.6,2.5-0.7c0.9,0,1.8,0.2,2.5,0.7
		c0.6,0.3,1.3,0.5,1.9,0.5c0.7,0,1.4-0.2,1.9-0.5c0.8-0.4,1.6-0.7,2.5-0.7c0.7,0,1.3,0.1,1.9,0.4c0.8,0.4,1.8,0.7,2.7,0.8l0,0
		c0.6,0,1.3-0.2,1.8-0.5l0,0c0,0.3,0,0.5,0.1,0.8c0.1,1.2,0.1,1.2-1.1,1.4c-0.3,0.1-0.7,0.1-1,0.1c-0.8,0-1.6-0.2-2.4-0.6
		c-0.6-0.4-1.3-0.5-2-0.5c-0.7,0-1.4,0.2-2,0.5C62.6,79.3,61.7,79.6,60.8,79.6z"/>
	<path d="M60.8,74.3c-0.9,0-1.7-0.2-2.5-0.6c-0.6-0.3-1.3-0.5-2-0.5c-0.7,0-1.4,0.2-2,0.5c-0.8,0.4-1.6,0.6-2.4,0.6
		c-0.9,0-1.7-0.2-2.5-0.6c-0.6-0.3-1.3-0.5-2-0.6c-0.6-0.1-0.9-0.5-0.9-0.9c0-0.2,0.1-0.5,0.3-0.7c0.1-0.1,0.3-0.2,0.5-0.2h0.1
		c0.9,0.1,1.7,0.3,2.5,0.6c0.6,0.3,1.3,0.5,1.9,0.5c0.7,0,1.3-0.2,1.9-0.5c0.8-0.4,1.6-0.7,2.5-0.7c0.9,0,1.8,0.2,2.5,0.7
		c1.2,0.7,2.7,0.7,3.9,0c0.8-0.4,1.6-0.7,2.5-0.7c0.7,0,1.4,0.2,2,0.4c0.8,0.4,1.7,0.7,2.6,0.7c0.5,0,1-0.1,1.5-0.3v0.1
		c0,0.4,0,0.7,0.1,1.1c0.1,0.2,0.1,0.4,0,0.6c-0.2,0.2-0.4,0.3-0.7,0.3c-0.3,0-0.6,0.1-1,0.1c-0.9,0-1.7-0.2-2.5-0.6
		c-0.6-0.3-1.3-0.5-2-0.5c-0.7,0-1.4,0.2-2,0.5C62.6,74.1,61.7,74.3,60.8,74.3z"/>
	<path d="M105.7,74.3c-0.9,0-1.7-0.2-2.5-0.6c-0.6-0.3-1.3-0.5-2-0.5c-0.7,0-1.4,0.2-2,0.5c-0.8,0.4-1.6,0.6-2.5,0.6
		c-0.5,0-1-0.1-1.4-0.2C95,74,95,74,95,73.7c0.1-0.4,0.1-0.9,0.1-1.3v-0.3c0.5,0.2,1,0.3,1.6,0.3c0.8,0,1.5-0.2,2.2-0.6
		c0.7-0.4,1.5-0.6,2.3-0.6c0.9,0,1.7,0.2,2.5,0.6c0.6,0.3,1.3,0.5,2,0.5c0.7,0,1.4-0.2,2-0.5c1.5-0.8,3.4-0.8,4.9,0
		c0.6,0.3,1.3,0.5,2,0.5c0.7,0,1.4-0.2,2-0.5c0.7-0.3,1.5-0.5,2.3-0.6h0.2c0.5,0,0.9,0.4,0.9,0.8c0,0.5-0.4,0.8-1,1
		c-0.6,0.1-1.2,0.2-1.8,0.5c-0.8,0.4-1.7,0.6-2.6,0.6c-0.9,0-1.7-0.2-2.5-0.6c-0.6-0.3-1.3-0.5-2-0.5c-0.7,0-1.4,0.2-2,0.5
		C107.4,74.1,106.6,74.3,105.7,74.3z"/>
	<path d="M59.7,39.8c-0.3,0-0.6-0.2-0.8-0.5c-0.4-0.5-0.7-0.7-1.1-0.7c-0.4,0.1-0.8,0.3-1.1,0.6c-0.2,0.2-0.4,0.3-0.7,0.3
		c-0.2,0-0.5-0.1-0.6-0.3c-0.3-0.4-0.3-0.9,0.1-1.3c0,0,0,0,0.1,0c0.6-0.6,1.4-1,2.3-1c0.6,0.3,1.3,0.4,1.9,0.4
		c0.5,0,1.1-0.1,1.6-0.1L62,37c0.6,0.1,1.1,0.3,1.6,0.6c0.2,0.1,0.3,0.3,0.4,0.5c0,0.2,0,0.5-0.2,0.7c-0.2,0.2-0.4,0.4-0.7,0.4
		c-0.2,0-0.4-0.1-0.5-0.2c-0.3-0.2-0.6-0.3-0.9-0.3c-0.5,0-0.9,0.2-1.2,0.6C60.3,39.6,60,39.7,59.7,39.8z"/>
	<path d="M106,57.8c-0.3,0-0.6-0.2-0.7-0.4c-0.3-0.4-0.7-0.7-1.2-0.7c-0.4,0-0.8,0.2-1.1,0.4c-0.2,0.1-0.4,0.2-0.6,0.2
		c-0.3,0-0.5-0.1-0.6-0.4c-0.1-0.2-0.2-0.4-0.2-0.6c0.1-0.3,0.2-0.5,0.5-0.7c0.6-0.4,1.3-0.7,2-0.7c0.5,0,1.1,0.2,1.5,0.5
		c0.2,0.2,0.5,0.2,0.8,0.2c0.2,0,0.4,0,0.6-0.1c0.3-0.1,0.6-0.1,1-0.2c0.7,0,1.3,0.3,1.9,0.7c0.2,0.1,0.3,0.3,0.4,0.5l0.1,0.1
		c0,0.3-0.1,0.6-0.3,0.8c-0.1,0.2-0.4,0.2-0.6,0.3c-0.2,0-0.3,0-0.4-0.1c-0.7-0.5-1.7-0.5-2.4,0.1C106.4,57.7,106.2,57.8,106,57.8z"
		/>
	<path d="M83,93.2c-2.3,0-3.8-0.9-5.2-3.1c-1.4-2.4-2.2-5.1-2.5-7.9c-0.9-6.5-1.2-13-0.8-19.6c0.2-4.3,0.5-8.9,1-14.5
		c0.3-4.1,1.2-8,2.8-11.8c0.7-1.5,1.5-2.8,2.6-4.1c0.6-0.8,1.5-1.3,2.4-1.4c1,0.1,1.9,0.6,2.5,1.3c1.3,1.4,2.3,3,2.9,4.8
		c1.3,3.5,2.1,7.1,2.4,10.8c0.2,2.2,0.4,4.5,0.6,7.4c0.5,7.2,0.5,10.7,0.5,10.7c0.2,5.4-0.2,10.7-0.9,16.1c-0.3,2.6-1.1,5-2.2,7.4
		c-0.8,1.5-2,3.3-4.2,3.7C84.3,93.2,83.6,93.2,83,93.2L83,93.2z M84.2,80.8h0.2c0.2,0,0.4,0,0.7,0c0.8,0,1.3,0.1,1.3,0.8
		c0.1,0.3,0,0.5-0.2,0.7c-0.2,0.2-0.6,0.2-1.1,0.3c-0.3,0-0.5,0-0.8,0.1h-0.2v8.4l0.5,0.5l0.2-0.1c0.2-0.1,0.4-0.3,0.5-0.4
		c0.4-0.3,0.8-0.6,1.2-1c1-1.3,1.7-2.8,2.1-4.4c1.1-4.5,1.7-9.2,1.7-13.9c0.2-5.9,0-11.8-0.5-17.7c-0.2-4.1-0.8-8.3-1.7-12.3
		c-0.5-2.5-1.4-4.8-2.7-7c-0.1-0.2-0.3-0.4-0.5-0.7l-0.3-0.4l-0.5-0.6L84.2,80.8z M81.6,33.8c-0.2,0.3-0.4,0.6-0.5,0.9
		c-0.4,0.7-0.8,1.4-1.1,2.1c-1.3,3.2-2.2,6.5-2.5,9.9c-0.8,6.3-1.3,12.6-1.3,18.9c-0.1,5.8,0.1,12.1,1.3,18.2c0.3,1.9,1,3.8,2,5.5
		c0.6,1,1.5,1.7,2.6,2l0.3,0.1v-8.6h-0.2c-0.3,0-0.5-0.1-0.8-0.1c-0.8,0-1.2-0.1-1.2-0.8c0-0.8,0.4-0.9,1.3-1c0.3,0,0.5,0,0.8-0.1
		l0.2,0V33.9l-0.6-0.3L81.6,33.8z"/>
</g>
</svg>
