<?xml version="1.0" encoding="utf-8"?>
<!-- Generator: Adobe Illustrator 25.2.0, SVG Export Plug-In . SVG Version: 6.00 Build 0)  -->
<svg version="1.1" id="Layer_1" xmlns="http://www.w3.org/2000/svg" xmlns:xlink="http://www.w3.org/1999/xlink" x="0px" y="0px"
	 viewBox="0 0 162.4 162.4" style="enable-background:new 0 0 162.4 162.4;" xml:space="preserve">
<style type="text/css">
	.st0{fill:#D80027;}
	.st1{fill:#FFDA44;}
</style>
<g>
	<path d="M52.6,113.3c0.4,0.2,0.6,0.6,0.7,1.1c0,0.2-0.1,0.4-0.3,0.6c-0.2,0.2-0.4,0.3-0.7,0.3c-0.4-0.1-0.8-0.3-1.1-0.4
		c-0.4-0.2-0.8-0.4-1.1-0.5c-0.3-0.1-0.6-0.2-0.9-0.2c-0.7,0-1.3,0.2-1.8,0.6c-0.5,0.5-0.8,1.1-0.8,1.7c0.1,0.9,0.7,1.7,1.9,2.2
		c0.2,0.1,0.7,0.3,1.3,0.5c0.4,0.1,1,0.4,1.6,0.6c0.5,0.2,0.9,0.4,1.3,0.7c0.4,0.3,0.7,0.6,1,1c0.4,0.7,0.6,1.5,0.6,2.3
		c0,0.8-0.2,1.7-0.6,2.4c-0.4,0.8-1.1,1.5-1.9,1.9c-0.9,0.5-1.9,0.7-3,0.7c-0.8,0-1.6-0.1-2.4-0.3c-0.6-0.1-1.2-0.4-1.7-0.8
		c-0.5-0.3-0.6-1-0.3-1.5c0,0,0-0.1,0.1-0.1c0.2-0.2,0.4-0.3,0.7-0.3c0.2,0,0.4,0.1,0.6,0.2c0.5,0.3,1,0.6,1.6,0.8
		c0.6,0.2,1.1,0.3,1.7,0.3c0.5,0,1.1-0.2,1.5-0.5c0.4-0.3,0.8-0.7,1.1-1.2c0.3-0.5,0.4-1,0.4-1.5c0-0.5-0.2-1-0.5-1.4
		c-0.3-0.4-0.7-0.7-1.2-1c-0.6-0.3-1.2-0.5-1.9-0.8c-0.4-0.1-0.8-0.3-1.4-0.5c-0.5-0.2-1-0.5-1.5-0.9c-0.4-0.3-0.7-0.7-0.9-1.1
		c-0.2-0.5-0.4-1.1-0.4-1.7c0-0.8,0.2-1.6,0.7-2.2c0.5-0.7,1.1-1.2,1.8-1.5c0.7-0.4,1.5-0.6,2.3-0.6
		C50.4,112.4,51.6,112.7,52.6,113.3z"/>
	<path d="M57.8,127.3v5.4c0,0.3-0.1,0.6-0.3,0.9c-0.2,0.2-0.4,0.3-0.7,0.3c-0.3,0-0.5-0.1-0.7-0.4c-0.2-0.2-0.3-0.5-0.3-0.8v-15.1
		c0-0.3,0.1-0.6,0.3-0.8c0.2-0.2,0.4-0.3,0.7-0.3c0.3,0,0.5,0.1,0.7,0.3c0.2,0.2,0.3,0.5,0.3,0.7v0.6l0,0c0.6-1.1,1.8-1.8,3-1.6
		c0.8,0,1.5,0.1,2.2,0.4c0.7,0.3,1.2,0.7,1.7,1.3c0.5,0.6,0.9,1.2,1.1,1.9c0.3,0.8,0.4,1.6,0.4,2.5c0,1.1-0.2,2.2-0.6,3.2
		c-0.4,0.9-1,1.7-1.8,2.3c-0.8,0.6-1.7,0.8-2.7,0.8C59.8,129,58.6,128.4,57.8,127.3L57.8,127.3z M64.3,122.8c0-0.7-0.1-1.5-0.3-2.1
		c-0.2-0.6-0.6-1.2-1.1-1.7c-0.5-0.4-1.1-0.7-1.8-0.7c-0.7,0-1.4,0.2-2,0.6c-0.5,0.4-0.9,1-1.1,1.7c-0.2,0.7-0.4,1.4-0.4,2.1
		c-0.1,1.2,0.3,2.3,0.9,3.3c0.5,0.8,1.4,1.3,2.4,1.3h0.2c0.6,0,1.2-0.3,1.7-0.7c0.5-0.4,0.9-1,1.1-1.6
		C64.2,124.3,64.3,123.5,64.3,122.8L64.3,122.8z"/>
	<path d="M76.6,118.2v-0.7c0-0.3,0.1-0.5,0.3-0.7c0.4-0.4,0.9-0.4,1.3,0c0.2,0.2,0.3,0.5,0.3,0.7V128c0,0.3-0.1,0.6-0.3,0.8
		c-0.2,0.2-0.4,0.3-0.7,0.2c-0.2,0-0.5-0.1-0.7-0.2c-0.2-0.2-0.3-0.4-0.3-0.7v-0.9l0,0c-0.7,1.1-1.9,1.8-3.2,1.8
		c-1,0-1.9-0.2-2.8-0.7c-0.8-0.5-1.5-1.3-2-2.2c-1-2.1-0.9-4.6,0.1-6.7c0.5-0.9,1.2-1.6,2-2.1c0.7-0.4,1.6-0.7,2.4-0.7
		c0.6,0,1.3,0.1,1.9,0.4C75.6,117.3,76.1,117.7,76.6,118.2L76.6,118.2z M69.9,122.8c0,0.7,0.1,1.5,0.4,2.2c0.2,0.6,0.6,1.2,1.1,1.6
		c0.5,0.4,1.1,0.7,1.8,0.7c1,0.1,2-0.4,2.6-1.3c0.5-1,0.8-2.1,0.8-3.2c0-0.8-0.1-1.6-0.4-2.4c-0.2-0.6-0.6-1.2-1.2-1.5
		c-0.5-0.4-1.1-0.6-1.7-0.5l0,0c-1,0-1.9,0.5-2.4,1.3C70.2,120.5,69.9,121.6,69.9,122.8z"/>
	<path d="M81.1,117.6c0-0.3,0.1-0.6,0.3-0.8c0.2-0.2,0.4-0.3,0.7-0.3c0.3,0,0.5,0.1,0.7,0.3c0.2,0.2,0.3,0.5,0.3,0.8v0.5l0,0
		c0.4-0.5,0.9-0.9,1.5-1.2c0.6-0.3,1.2-0.4,1.8-0.4c0.7,0,1.4,0.2,2.1,0.5c0.7,0.4,1.2,0.9,1.6,1.6c0.4,0.8,0.6,1.7,0.6,2.6v6.8
		c0,0.3-0.1,0.5-0.3,0.7c-0.2,0.2-0.4,0.3-0.7,0.2c-0.3,0-0.5-0.1-0.7-0.3c-0.2-0.2-0.3-0.4-0.3-0.7v-6.7c0.1-1.5-1.1-2.8-2.6-2.9
		c-0.1,0-0.1,0-0.2,0c-0.5,0-1,0.1-1.4,0.4c-0.4,0.2-0.8,0.6-1,1c-0.3,0.5-0.4,1-0.4,1.6v6.7c0,0.3-0.1,0.6-0.3,0.8
		c-0.2,0.2-0.4,0.3-0.7,0.3c-0.3,0-0.5-0.1-0.7-0.3c-0.2-0.2-0.3-0.5-0.3-0.8L81.1,117.6z"/>
	<path d="M94.3,115.1c-0.3,0-0.6-0.1-0.8-0.4c-0.2-0.2-0.3-0.5-0.3-0.8c0-0.3,0.1-0.6,0.3-0.8c0.2-0.2,0.5-0.3,0.8-0.4
		c0.6,0,1.1,0.5,1.1,1.1c0,0,0,0.1,0,0.1c0,0.3-0.1,0.6-0.3,0.8C94.9,115,94.6,115.2,94.3,115.1z M93.3,117.6c0-0.5,0.4-1,0.9-1
		c0,0,0,0,0.1,0c0.3,0,0.5,0.1,0.7,0.3c0.2,0.2,0.3,0.5,0.3,0.8V128c0,0.3-0.1,0.6-0.3,0.8c-0.2,0.2-0.4,0.3-0.7,0.3
		c-0.3,0-0.5-0.1-0.7-0.3c-0.2-0.2-0.3-0.5-0.3-0.8V117.6z"/>
	<path d="M97.7,127.6c-0.3-0.2-0.5-0.6-0.5-1c0-0.2,0.1-0.5,0.2-0.6c0.2-0.2,0.4-0.3,0.6-0.2c0.2,0,0.4,0.1,0.6,0.2
		c0.1,0.1,0.4,0.2,0.7,0.5l0.6,0.4c0.5,0.3,1.1,0.4,1.7,0.5c0.6,0,1.2-0.1,1.7-0.4c0.5-0.2,0.8-0.8,0.8-1.3
		c-0.1-0.6-0.4-1.1-0.9-1.3c-0.6-0.3-1.1-0.6-1.8-0.8c-0.8-0.3-1.4-0.6-2-0.8c-0.5-0.3-0.9-0.6-1.2-1c-0.4-0.5-0.6-1-0.5-1.6
		c0-0.6,0.2-1.2,0.5-1.7c0.4-0.5,0.8-0.9,1.4-1.2c0.7-0.3,1.4-0.5,2.1-0.5c0.7,0,1.5,0.1,2.2,0.4c0.6,0.2,1.1,0.5,1.5,0.8
		c0.3,0.2,0.5,0.6,0.5,0.9c0,0.2-0.1,0.4-0.2,0.6c-0.2,0.2-0.4,0.3-0.6,0.3c-0.4-0.1-0.8-0.3-1.1-0.5c-0.4-0.2-0.7-0.4-1.1-0.6
		c-0.3-0.1-0.6-0.2-0.9-0.2c-0.6,0-1.1,0.1-1.6,0.4c-0.4,0.3-0.6,0.7-0.6,1.1c0.1,0.4,0.3,0.7,0.5,1c0.3,0.3,0.6,0.5,1,0.6
		c0.4,0.2,0.8,0.3,1.3,0.5l1.1,0.4c0.7,0.3,1.4,0.7,1.9,1.3c0.4,0.5,0.6,1.1,0.6,1.8c0,0.6-0.2,1.2-0.5,1.7c-0.4,0.6-0.9,1-1.5,1.3
		c-0.8,0.4-1.6,0.5-2.5,0.5C100.2,129,98.8,128.5,97.7,127.6z"/>
	<path d="M108,112.3c0-0.3,0.1-0.6,0.3-0.8c0.2-0.2,0.4-0.3,0.7-0.3c0.3,0,0.5,0.1,0.7,0.3c0.2,0.2,0.3,0.5,0.3,0.8v5.8l0,0
		c0.4-0.5,0.8-0.9,1.4-1.2c0.6-0.3,1.2-0.4,1.9-0.4c0.8,0,1.5,0.2,2.2,0.6c0.7,0.4,1.2,1,1.5,1.6c0.4,0.7,0.6,1.5,0.6,2.2v6.9
		c0,0.3-0.1,0.6-0.3,0.8c-0.2,0.2-0.4,0.3-0.7,0.3c-0.3,0-0.5-0.1-0.7-0.3c-0.2-0.2-0.3-0.5-0.3-0.8v-6.6c0-0.8-0.2-1.6-0.8-2.1
		c-0.5-0.6-1.3-0.9-2-0.9c-0.5,0-1,0.1-1.4,0.3c-0.4,0.2-0.8,0.6-1.1,1c-0.3,0.5-0.4,1.1-0.4,1.6v6.7c0,0.3-0.1,0.6-0.3,0.8
		c-0.2,0.2-0.4,0.3-0.7,0.3c-0.3,0-0.5-0.1-0.7-0.3c-0.2-0.2-0.3-0.5-0.3-0.8L108,112.3z"/>
</g>
<g>
	<path class="st0" d="M81.2,21c-15.6,0-29.5,9.9-34.7,24.6h69.4C110.7,30.8,96.8,21,81.2,21z"/>
	<path class="st0" d="M81.2,94.4c15.6,0,29.5-9.9,34.7-24.6H46.5C51.7,84.6,65.6,94.4,81.2,94.4z"/>
	<path class="st1" d="M115.9,45.5H46.5c-2.7,7.9-2.7,16.4,0,24.3h69.4C118.6,62,118.6,53.4,115.9,45.5z"/>
</g>
</svg>
