<?xml version="1.0" encoding="utf-8"?>
<!-- Generator: Adobe Illustrator 25.2.0, SVG Export Plug-In . SVG Version: 6.00 Build 0)  -->
<svg version="1.1" id="Layer_1" xmlns="http://www.w3.org/2000/svg" xmlns:xlink="http://www.w3.org/1999/xlink" x="0px" y="0px"
	 viewBox="0 0 162.4 162.4" style="enable-background:new 0 0 162.4 162.4;" xml:space="preserve">
<style type="text/css">
	.st0{fill:#FFFFFF;}
	.st1{fill:#D80027;}
	.st2{fill:#0052B4;}
</style>
<g>
	<path d="M65.9,114.5h-3.1c-0.2,0-0.5-0.1-0.7-0.3c-0.2-0.2-0.3-0.4-0.3-0.7c0-0.3,0.1-0.5,0.3-0.7c0.2-0.2,0.4-0.3,0.7-0.3h8.1
		c0.3,0,0.5,0.1,0.7,0.3c0.2,0.2,0.2,0.4,0.2,0.7c0,0.2-0.1,0.5-0.2,0.7c-0.2,0.2-0.4,0.3-0.7,0.3h-3.1V128c0,0.3-0.1,0.6-0.3,0.8
		c-0.4,0.3-1,0.3-1.4,0c-0.2-0.2-0.3-0.5-0.3-0.8L65.9,114.5z"/>
	<path d="M72.8,112.3c0-0.3,0.1-0.6,0.3-0.8c0.2-0.2,0.4-0.3,0.7-0.3c0.3,0,0.5,0.1,0.7,0.3c0.2,0.2,0.3,0.5,0.3,0.8v5.8l0,0
		c0.4-0.5,0.8-0.9,1.4-1.2c0.6-0.3,1.2-0.4,1.9-0.4c0.8,0,1.5,0.2,2.2,0.6c0.7,0.4,1.2,1,1.5,1.6c0.4,0.7,0.6,1.5,0.6,2.2v6.9
		c0,0.3-0.1,0.6-0.3,0.8c-0.2,0.2-0.4,0.3-0.7,0.3c-0.3,0-0.5-0.1-0.7-0.3c-0.2-0.2-0.3-0.5-0.3-0.8v-6.6c0-0.8-0.2-1.6-0.8-2.1
		c-0.5-0.6-1.3-0.9-2-0.9c-0.5,0-1,0.1-1.4,0.3c-0.4,0.2-0.8,0.6-1.1,1c-0.3,0.5-0.4,1.1-0.4,1.6v6.7c0,0.3-0.1,0.6-0.3,0.8
		c-0.2,0.2-0.4,0.3-0.7,0.3c-0.3,0-0.5-0.1-0.7-0.3c-0.2-0.2-0.3-0.5-0.3-0.8L72.8,112.3z"/>
	<path d="M93.2,118.2v-0.7c0-0.3,0.1-0.5,0.3-0.7c0.2-0.2,0.4-0.3,0.7-0.3c0.2,0,0.5,0.1,0.7,0.3c0.2,0.2,0.3,0.5,0.3,0.7V128
		c0,0.3-0.1,0.6-0.3,0.8c-0.2,0.2-0.4,0.3-0.7,0.2c-0.2,0-0.5-0.1-0.7-0.2c-0.2-0.2-0.3-0.4-0.3-0.7v-0.9l0,0
		c-0.7,1.1-1.9,1.8-3.2,1.8c-2,0-3.9-1.1-4.8-2.9c-0.5-1-0.7-2.1-0.7-3.2c0-1.2,0.2-2.4,0.8-3.5c0.5-0.9,1.2-1.6,2-2.1
		c0.7-0.4,1.6-0.7,2.4-0.7c0.6,0,1.3,0.1,1.9,0.4C92.2,117.3,92.7,117.7,93.2,118.2L93.2,118.2z M86.5,122.8c0,0.7,0.1,1.5,0.4,2.2
		c0.2,0.6,0.6,1.2,1.1,1.6c0.5,0.4,1.1,0.7,1.8,0.6c1,0.1,2-0.4,2.6-1.3c0.6-1,0.8-2.1,0.8-3.2c0-0.8-0.1-1.6-0.4-2.4
		c-0.2-0.6-0.6-1.2-1.2-1.5c-0.5-0.4-1.1-0.6-1.7-0.5l0,0c-1,0-1.9,0.5-2.4,1.3C86.8,120.5,86.5,121.6,86.5,122.8z"/>
	<path d="M98.7,115.1c-0.3,0-0.6-0.1-0.8-0.4c-0.2-0.2-0.3-0.5-0.3-0.8c0-0.3,0.1-0.6,0.3-0.8c0.2-0.2,0.5-0.3,0.8-0.4
		c0.6,0,1.1,0.5,1.1,1.1c0,0,0,0.1,0,0.1c0,0.3-0.1,0.6-0.3,0.8C99.3,115,99,115.2,98.7,115.1z M97.7,117.6c0-0.3,0.1-0.5,0.3-0.7
		c0.4-0.4,1-0.4,1.4,0c0.2,0.2,0.3,0.5,0.3,0.8V128c0,0.3-0.1,0.6-0.3,0.8c-0.2,0.2-0.4,0.3-0.7,0.3c-0.3,0-0.5-0.1-0.7-0.3
		c-0.2-0.2-0.3-0.5-0.3-0.8V117.6z"/>
</g>
<g>
	<path class="st0" d="M53.4,81.6h55.8c2.8-3.3,5.1-7.1,6.6-11.1H46.8C48.3,74.5,50.5,78.3,53.4,81.6z"/>
	<path class="st0" d="M53.5,33.6c-2.9,3.3-5.1,7.1-6.7,11.2h68.9c-1.5-4.1-3.8-7.9-6.7-11.2H53.5z"/>
	<path class="st1" d="M81.3,21c-10.6,0-20.8,4.6-27.7,12.7H109C102,25.6,91.9,20.9,81.3,21z"/>
	<path class="st1" d="M81.3,94.4c10.7,0,20.9-4.7,27.9-12.8H53.4C60.3,89.8,70.5,94.5,81.3,94.4z"/>
	<path class="st2" d="M44.5,57.7c0,4.4,0.8,8.7,2.3,12.8h68.9c3.1-8.3,3.1-17.4,0-25.6H46.9C45.3,48.9,44.5,53.3,44.5,57.7z"/>
</g>
</svg>
