<?xml version="1.0" encoding="utf-8"?>
<!-- Generator: Adobe Illustrator 25.2.0, SVG Export Plug-In . SVG Version: 6.00 Build 0)  -->
<svg version="1.1" id="Layer_1" xmlns="http://www.w3.org/2000/svg" xmlns:xlink="http://www.w3.org/1999/xlink" x="0px" y="0px"
	 viewBox="0 0 162.4 162.4" style="enable-background:new 0 0 162.4 162.4;" xml:space="preserve">
<style type="text/css">
	.st0{fill:#EC1C24;}
	.st1{fill:#FEEF00;}
</style>
<g>
	<path d="M25.4,114c-0.1-0.2-0.1-0.5-0.2-0.7c0-0.3,0.1-0.5,0.3-0.7c0.1-0.2,0.4-0.3,0.6-0.3c0.3,0,0.5,0.1,0.7,0.3
		c0.2,0.2,0.4,0.5,0.5,0.7l4.3,12.3l0,0l4.3-12.4c0.1-0.5,0.6-0.8,1.1-0.8c0.2,0,0.5,0.1,0.6,0.3c0.2,0.2,0.3,0.5,0.2,0.7
		c0,0.2,0,0.4-0.1,0.5l-5,14.1c-0.1,0.3-0.3,0.5-0.5,0.8c-0.2,0.1-0.4,0.2-0.7,0.2c-0.2,0-0.5,0-0.7-0.2c-0.2-0.2-0.3-0.4-0.4-0.7
		L25.4,114z"/>
	<path d="M40.2,115.1c-0.3,0-0.6-0.1-0.8-0.4c-0.2-0.2-0.3-0.5-0.3-0.8c0-0.3,0.1-0.6,0.3-0.8c0.4-0.4,1.2-0.5,1.6,0c0,0,0,0,0,0
		c0.2,0.2,0.3,0.5,0.3,0.8c0,0.3-0.1,0.6-0.3,0.8C40.8,115,40.5,115.1,40.2,115.1z M39.2,117.5c0-0.3,0.1-0.5,0.3-0.7
		c0.4-0.4,1-0.4,1.4,0c0.2,0.2,0.3,0.5,0.3,0.8v10.3c0,0.3-0.1,0.6-0.3,0.8c-0.4,0.3-1,0.3-1.4,0c-0.2-0.2-0.3-0.5-0.3-0.8V117.5z"
		/>
	<path d="M43.1,122.6c0-1,0.3-2,0.7-3c0.4-0.9,1-1.7,1.8-2.3c0.8-0.6,1.8-0.9,2.8-0.9c1,0,2,0.3,2.8,0.8c0.8,0.6,1.5,1.4,1.9,2.3
		c0.4,0.9,0.7,1.9,0.7,2.9c0,0.7-0.4,1-1.1,1h-7.6c0,0.7,0.2,1.4,0.5,2c0.3,0.6,0.7,1,1.3,1.3c0.6,0.3,1.2,0.4,1.8,0.4
		c1.2,0,2.4-0.5,3.2-1.3c0.2-0.2,0.5-0.3,0.8-0.4c0.2,0,0.4,0.1,0.5,0.3c0.1,0.2,0.2,0.4,0.2,0.6c0,0.3-0.1,0.5-0.3,0.7
		c-0.5,0.6-1.2,1-1.9,1.3c-0.8,0.3-1.7,0.5-2.6,0.5c-0.9,0-1.8-0.2-2.6-0.6c-0.7-0.3-1.3-0.8-1.8-1.5c-0.4-0.6-0.8-1.3-1-2
		c-0.2-0.7-0.3-1.4-0.3-2.2L43.1,122.6L43.1,122.6z M45.1,122h6.7c0-1-0.3-1.9-0.9-2.7c-0.6-0.7-1.5-1.1-2.4-1c-0.9,0-1.8,0.3-2.4,1
		C45.4,120,45.1,121,45.1,122z"/>
	<path d="M56.3,118.4h-0.9c-0.3,0-0.5-0.1-0.7-0.2c-0.2-0.2-0.3-0.4-0.3-0.6c0-0.5,0.4-0.9,0.9-0.9c0,0,0.1,0,0.1,0h0.9V114
		c0-0.3,0.1-0.5,0.3-0.7c0.2-0.2,0.4-0.3,0.7-0.2c0.3,0,0.5,0.1,0.7,0.2c0.2,0.2,0.3,0.5,0.3,0.7v2.6h0.9c0.3,0,0.5,0.1,0.7,0.2
		c0.3,0.4,0.3,0.9,0,1.3c-0.2,0.2-0.4,0.2-0.6,0.2h-1v9.6c0,0.3-0.1,0.5-0.3,0.7c-0.2,0.2-0.5,0.3-0.8,0.3c-0.2,0-0.5-0.1-0.7-0.3
		c-0.2-0.2-0.3-0.5-0.3-0.8L56.3,118.4z"/>
	<path d="M61.2,117.6c0-0.3,0.1-0.6,0.3-0.8c0.2-0.2,0.4-0.3,0.7-0.3c0.3,0,0.5,0.1,0.7,0.3c0.2,0.2,0.3,0.5,0.3,0.8v0.5l0,0
		c0.4-0.5,0.9-0.9,1.5-1.2c0.6-0.3,1.2-0.4,1.8-0.4c0.7,0,1.4,0.2,2.1,0.5c0.7,0.4,1.2,0.9,1.6,1.6c0.4,0.8,0.6,1.7,0.6,2.6v6.8
		c0,0.3-0.1,0.5-0.3,0.7c-0.2,0.2-0.4,0.3-0.7,0.2c-0.3,0-0.5-0.1-0.7-0.3c-0.2-0.2-0.3-0.4-0.3-0.7v-6.7c0-0.8-0.3-1.6-0.8-2.1
		c-0.5-0.5-1.2-0.8-2-0.8c-0.5,0-1,0.1-1.4,0.4c-0.4,0.2-0.8,0.6-1,1c-0.3,0.5-0.4,1-0.4,1.6v6.7c0,0.3-0.1,0.6-0.3,0.8
		c-0.2,0.2-0.4,0.3-0.7,0.3c-0.3,0-0.5-0.1-0.7-0.3c-0.2-0.2-0.3-0.5-0.3-0.8L61.2,117.6z"/>
	<path d="M81.5,118.2v-0.7c0-0.3,0.1-0.5,0.3-0.7c0.2-0.2,0.4-0.3,0.6-0.3c0.2,0,0.5,0.1,0.7,0.3c0.2,0.2,0.3,0.5,0.3,0.7v10.4
		c0,0.3-0.1,0.6-0.3,0.8c-0.2,0.2-0.4,0.3-0.7,0.2c-0.2,0-0.5-0.1-0.6-0.2c-0.2-0.2-0.3-0.4-0.3-0.7v-0.9l0,0
		c-0.7,1.1-1.9,1.8-3.2,1.8c-1,0-1.9-0.2-2.8-0.7c-0.8-0.5-1.5-1.3-2-2.2c-1-2.1-0.9-4.6,0.1-6.7c0.5-0.9,1.2-1.6,2-2.1
		c0.7-0.4,1.6-0.7,2.4-0.7c0.6,0,1.3,0.1,1.9,0.4C80.5,117.2,81.1,117.7,81.5,118.2L81.5,118.2z M74.8,122.7c0,0.7,0.1,1.5,0.4,2.2
		c0.2,0.6,0.6,1.2,1.1,1.6c0.5,0.4,1.1,0.7,1.8,0.7c1,0.1,2-0.4,2.6-1.3c0.5-1,0.8-2.1,0.8-3.2c0-0.8-0.1-1.6-0.4-2.4
		c-0.2-0.6-0.6-1.2-1.2-1.5c-0.5-0.4-1.1-0.6-1.7-0.5l0,0c-1,0-1.9,0.5-2.4,1.3C75.1,120.5,74.8,121.6,74.8,122.7z"/>
	<path d="M86,117.5c0-0.3,0.1-0.5,0.3-0.7c0.2-0.2,0.5-0.3,0.7-0.3c0.3,0,0.5,0.1,0.7,0.3c0.2,0.2,0.3,0.5,0.3,0.8v0.4l0,0
		c0.7-1,1.9-1.5,3.1-1.5c1.4,0,2.6,0.8,3.3,2c0.4-0.7,1-1.2,1.7-1.6c0.6-0.3,1.4-0.5,2.1-0.5c0.7,0,1.4,0.2,2.1,0.5
		c0.6,0.4,1.1,0.9,1.5,1.5c0.4,0.7,0.6,1.5,0.5,2.3v7c0,0.3-0.1,0.5-0.3,0.7c-0.2,0.2-0.5,0.3-0.7,0.3c-0.2,0-0.5-0.1-0.7-0.3
		c-0.2-0.2-0.3-0.4-0.3-0.7v-6.9c0-0.5-0.1-1.1-0.4-1.5c-0.2-0.4-0.5-0.7-0.9-1c-0.4-0.2-0.8-0.3-1.3-0.3c-0.7,0-1.4,0.2-1.9,0.6
		c-0.6,0.6-0.8,1.4-0.8,2.2v6.9c0,0.3-0.1,0.5-0.3,0.7c-0.2,0.2-0.5,0.2-0.7,0.2c-0.3,0-0.5-0.1-0.7-0.2c-0.2-0.2-0.3-0.4-0.3-0.7
		v-6.8c0.1-0.8-0.2-1.6-0.7-2.2c-0.5-0.5-1.2-0.7-1.8-0.7c-0.4,0-0.9,0.1-1.3,0.3c-0.4,0.2-0.7,0.5-0.9,0.9c-0.3,0.5-0.4,1-0.4,1.5
		v7c0,0.3-0.1,0.5-0.3,0.7c-0.4,0.3-1,0.3-1.4,0c-0.2-0.2-0.3-0.4-0.3-0.7L86,117.5z"/>
	<path d="M104.2,122.6c0-1,0.3-2,0.7-3c0.4-0.9,1-1.7,1.8-2.3c0.8-0.6,1.8-0.9,2.8-0.9c1,0,2,0.3,2.8,0.8c0.8,0.6,1.5,1.4,1.9,2.3
		c0.4,0.9,0.7,1.9,0.7,2.9c0,0.7-0.4,1-1.1,1h-7.6c0,0.7,0.2,1.4,0.5,2c0.3,0.6,0.7,1,1.3,1.3c0.6,0.3,1.2,0.4,1.8,0.4
		c1.2,0,2.4-0.5,3.3-1.3c0.2-0.2,0.5-0.3,0.8-0.4c0.2,0,0.4,0.1,0.5,0.3c0.1,0.2,0.2,0.4,0.2,0.6c0,0.3-0.1,0.5-0.3,0.7
		c-0.5,0.6-1.2,1-1.9,1.3c-0.8,0.3-1.7,0.5-2.6,0.5c-0.9,0-1.8-0.2-2.6-0.6c-0.7-0.3-1.3-0.8-1.8-1.5c-0.4-0.6-0.8-1.3-1-2
		c-0.2-0.7-0.3-1.4-0.3-2.2L104.2,122.6L104.2,122.6z M106.2,122h6.7c0-1-0.3-1.9-0.9-2.7c-0.6-0.7-1.5-1.1-2.4-1
		c-0.9,0-1.8,0.3-2.4,1C106.6,120,106.2,121,106.2,122z"/>
	<path d="M116.5,127.6c-0.3-0.2-0.5-0.6-0.5-1c0-0.2,0.1-0.5,0.3-0.6c0.2-0.2,0.4-0.3,0.6-0.2c0.2,0,0.4,0.1,0.6,0.2
		c0.1,0.1,0.4,0.2,0.7,0.5l0.6,0.4c0.5,0.3,1.1,0.4,1.7,0.5c0.6,0,1.2-0.1,1.7-0.4c0.5-0.2,0.8-0.7,0.8-1.3
		c-0.1-0.6-0.4-1.1-0.9-1.3c-0.6-0.3-1.2-0.6-1.8-0.8c-0.8-0.3-1.4-0.6-2-0.8c-0.5-0.3-0.9-0.6-1.2-1c-0.4-0.5-0.6-1-0.5-1.6
		c0-0.6,0.2-1.2,0.5-1.7c0.4-0.5,0.8-0.9,1.4-1.2c0.7-0.3,1.4-0.5,2.1-0.5c0.7,0,1.5,0.1,2.2,0.4c0.6,0.2,1.1,0.4,1.5,0.8
		c0.3,0.2,0.5,0.6,0.5,0.9c0,0.2-0.1,0.4-0.2,0.6c-0.2,0.2-0.4,0.3-0.6,0.3c-0.4-0.1-0.8-0.3-1.1-0.5c-0.4-0.2-0.7-0.4-1.1-0.6
		c-0.3-0.1-0.6-0.2-0.9-0.2c-0.6,0-1.1,0.1-1.6,0.4c-0.4,0.3-0.6,0.7-0.6,1.1c0.1,0.4,0.3,0.7,0.5,1c0.3,0.3,0.6,0.5,1,0.6
		c0.4,0.2,0.8,0.3,1.3,0.5l1.1,0.4c0.7,0.3,1.4,0.7,1.9,1.3c0.4,0.5,0.6,1.1,0.6,1.8c0,0.6-0.2,1.2-0.5,1.7c-0.4,0.6-0.9,1-1.5,1.3
		c-0.8,0.4-1.6,0.5-2.5,0.5C119,129,117.6,128.5,116.5,127.6z"/>
	<path d="M126.2,122.6c0-1,0.3-2,0.7-3c0.4-0.9,1-1.7,1.8-2.3c0.8-0.6,1.8-0.9,2.8-0.9c1,0,2,0.3,2.8,0.8c0.8,0.6,1.5,1.4,1.9,2.3
		c0.4,0.9,0.7,1.9,0.7,2.9c0,0.7-0.4,1-1.1,1h-7.5c0,0.7,0.2,1.4,0.5,2c0.3,0.6,0.7,1,1.3,1.3c0.6,0.3,1.2,0.4,1.8,0.4
		c1.2,0,2.4-0.5,3.3-1.3c0.2-0.2,0.5-0.3,0.8-0.4c0.2,0,0.4,0.1,0.5,0.3c0.1,0.2,0.2,0.4,0.2,0.6c0,0.3-0.1,0.5-0.3,0.7
		c-0.5,0.6-1.2,1-1.9,1.3c-0.8,0.3-1.7,0.5-2.6,0.5c-0.9,0-1.8-0.2-2.6-0.6c-0.7-0.3-1.3-0.8-1.8-1.5c-0.4-0.6-0.8-1.3-1-2
		c-0.2-0.7-0.3-1.4-0.3-2.2L126.2,122.6L126.2,122.6z M128.2,122h6.7c0-1-0.3-1.9-0.9-2.7c-0.6-0.7-1.5-1.1-2.4-1
		c-0.9,0-1.8,0.3-2.4,1C128.5,120,128.2,121,128.2,122L128.2,122z"/>
</g>
<g>
	<circle class="st0" cx="81.2" cy="57.7" r="36.7"/>
	<path class="st1" d="M68.8,74c0.3-0.9,0.6-1.8,0.9-2.7c1.2-3.6,2.4-7.3,3.6-10.9c0.2-0.5,0-1.1-0.5-1.4c-3.7-2.6-7.3-5.3-11-8
		L61,50.3c0.5,0,0.8-0.1,1.1-0.1c4.5,0,9,0,13.5,0c0.6,0.1,1.1-0.3,1.2-0.9c0,0,0,0,0,0c1.3-4.2,2.7-8.5,4.1-12.7
		c0.1-0.3,0.2-0.6,0.4-1.2c0.2,0.5,0.3,0.7,0.4,1c1.4,4.3,2.8,8.5,4.1,12.8c0.1,0.6,0.7,1,1.3,0.9c4.5,0,8.9,0,13.4,0
		c0.3,0,0.6,0,0.8,0.2c-0.2,0.2-0.4,0.4-0.6,0.5c-3.7,2.7-7.3,5.3-11,8c-0.4,0.2-0.6,0.8-0.4,1.2c0,0,0,0,0,0
		c1.4,4.2,2.8,8.5,4.1,12.8c0.1,0.3,0.2,0.6,0.3,1.2c-0.5-0.3-0.7-0.5-1-0.7c-3.6-2.6-7.3-5.3-10.9-8c-0.3-0.3-0.9-0.3-1.2,0
		c-3.7,2.7-7.4,5.4-11,8L69,74L68.8,74z"/>
</g>
</svg>
