<svg id="Layer_1" data-name="Layer 1" xmlns="http://www.w3.org/2000/svg" viewBox="0 0 69.04 63.8"><defs><style>.cls-1{fill:#ff4087;}</style></defs><path class="cls-1" d="M107.9,67.9h-.3a2.88,2.88,0,0,1-2.6-2.6,4.48,4.48,0,0,1-.1-1.1V38.6a1.07,1.07,0,0,0-.2-.6c-5-6-9.9-12-14.8-18L81.4,9.5a3.1,3.1,0,0,1-.6-3.6,3.15,3.15,0,0,1,3.1-1.8H146a3.37,3.37,0,0,1,3.4,2.2l.1.2V8s-.6.8-.8,1.1c-.5.6-.9,1.3-1.4,1.9-3.1,3.7-6.2,7.5-9.3,11.2-4.3,5.3-8.7,10.5-13,15.8a1,1,0,0,0-.1.4c0,6.8-.1,12.9,0,19.1a3.63,3.63,0,0,1-2.2,3.6l-6.6,3.3-6,3A7.44,7.44,0,0,1,107.9,67.9ZM93.1,14.2c5.6,6.8,11.2,13.6,16.8,20.3a5.33,5.33,0,0,1,1.3,3.6V60l1.3-.6c2-1,4.1-2,6.1-3h0V37.9a4.89,4.89,0,0,1,1.1-3.1c6.1-7.3,12.1-14.6,18.1-22l1.9-2.4H90Z" transform="translate(-80.46 -4.1)"/></svg>