<svg id="Layer_1" data-name="Layer 1" xmlns="http://www.w3.org/2000/svg" viewBox="0 0 69.03 61.62"><defs><style>.cls-1{fill:#ff4087;}</style></defs><path class="cls-1" d="M-62,39.08c-2.49-7.1-7.56-11.59-14.65-13a20.38,20.38,0,0,0-3.9-.38c-5.53,0-10.36,2.43-14.37,7.22l-.25.29c-.28-.35-.56-.67-.85-1A18.09,18.09,0,0,0-107.27,26a21.36,21.36,0,0,0-2.77-.18c-8.76,0-15.89,5.35-18.59,14a23.6,23.6,0,0,0,.91,16.28c1.81,4.36,4.82,8.36,9.47,12.6s9.55,8.52,14.25,12.6l4.81,4.2a6.09,6.09,0,0,0,4,1.86,6.2,6.2,0,0,0,4-1.85l3.54-3c2.43-2.08,4.94-4.22,7.39-6.36l.5-.43c4.74-4.13,9.63-8.41,13.54-13.55C-60.66,54.79-59.24,47-62,39.08Zm-55.86,21.46c-3.52-4-5.35-7.75-5.82-11.71-.8-6.91,2.56-14.89,10.53-16.8a13.15,13.15,0,0,1,3.06-.38c4.3,0,8.25,2.27,11.15,6.39C-97.73,39.8-96.61,41-95.21,41s2.49-1.15,3.71-2.89c3.06-4.33,6.74-6.43,11.27-6.43h.17c6.62.07,12.2,5.24,13.25,12.3.87,5.84-.94,11.1-5.68,16.54A130.53,130.53,0,0,1-86.42,73.62l-3.25,2.79L-93.84,80l-1.38,1.18-2-1.7c-1.82-1.56-3.62-3.1-5.41-4.65l-1.87-1.6A130.21,130.21,0,0,1-117.88,60.54Z" transform="translate(129.67 -25.74)"/></svg>