<svg id="Layer_1" data-name="Layer 1" xmlns="http://www.w3.org/2000/svg" viewBox="0 0 182.63 164.16"><defs><style>.cls-1,.cls-3{fill:#606060;}.cls-2{fill:#fff;}.cls-3{opacity:0.5;}</style></defs><path class="cls-1" d="M-962.3,230.07c-6.52-18.61-19.78-30.35-38.35-33.94a54.32,54.32,0,0,0-10.24-1c-14.47,0-27.12,6.36-37.61,18.9l-.66.77c-.74-.91-1.47-1.77-2.22-2.61-8.59-9.52-18.48-15-29.4-16.39a59.57,59.57,0,0,0-7.26-.45c-23,0-41.6,14-48.68,36.65-4.45,14.22-3.3,28.93,2.39,42.63,4.73,11.41,12.61,21.89,24.79,33s25,22.29,37.3,33l12.61,11c3.77,3.32,7.09,4.86,10.42,4.86s6.65-1.53,10.47-4.82l9.28-7.95c6.35-5.44,12.93-11.06,19.35-16.65l1.31-1.14c12.4-10.79,25.22-22,35.44-35.47C-958.74,271.18-955,250.85-962.3,230.07Zm-146.29,56.18c-9.19-10.56-14-20.3-15.23-30.65-2.09-18.11,6.71-39,27.59-44a34.87,34.87,0,0,1,8-1c11.25,0,21.62,5.95,29.19,16.74,3.24,4.62,6.15,7.7,9.83,7.7s6.53-3,9.73-7.57c8-11.34,17.63-16.85,29.51-16.85h.43c17.35.2,31.94,13.74,34.7,32.21,2.28,15.3-2.45,29.07-14.88,43.33-11,12.61-24,23.66-36.47,34.35-2.8,2.39-5.69,4.85-8.53,7.31-3.58,3.1-7.13,6.14-10.9,9.35l-3.62,3.11-5.17-4.44-14.17-12.18-4.89-4.19C-1085.5,309.11-1098,298.42-1108.59,286.25Z" transform="translate(1141.31 -192.37)"/><path class="cls-2" d="M-964.17,227.32c-6.52-18.61-19.78-30.35-38.35-33.94a54.29,54.29,0,0,0-10.23-1c-14.48,0-27.13,6.36-37.62,18.9l-.65.77c-.75-.91-1.47-1.77-2.23-2.61-8.59-9.51-18.48-15-29.4-16.39a59.45,59.45,0,0,0-7.26-.45c-22.95,0-41.6,14-48.68,36.65-4.45,14.22-3.3,28.93,2.39,42.63,4.73,11.41,12.61,21.89,24.8,33s25,22.3,37.3,33l12.6,11c3.77,3.31,7.09,4.85,10.42,4.85s6.65-1.53,10.48-4.82l9.27-7.95c6.36-5.44,12.93-11.06,19.35-16.65l1.31-1.14c12.4-10.79,25.22-22,35.45-35.47C-960.61,268.44-956.89,248.1-964.17,227.32Zm-146.28,56.18c-9.2-10.56-14-20.29-15.24-30.65-2.09-18.1,6.71-39,27.59-44a34.93,34.93,0,0,1,8-1c11.26,0,21.62,5.95,29.19,16.74,3.24,4.62,6.16,7.7,9.83,7.7s6.53-3,9.73-7.57c8-11.34,17.63-16.85,29.51-16.85h.43c17.35.2,31.94,13.74,34.7,32.21,2.28,15.31-2.45,29.07-14.88,43.33-11,12.61-23.94,23.66-36.47,34.35-2.8,2.39-5.69,4.86-8.52,7.31-3.59,3.1-7.14,6.14-10.9,9.36l-3.63,3.1-5.17-4.44c-4.78-4.1-9.48-8.13-14.17-12.18l-4.89-4.19C-1087.36,306.36-1099.85,295.67-1110.45,283.5Z" transform="translate(1141.31 -192.37)"/><path class="cls-3" d="M-1110.45,283.5c-9.2-10.56-14-20.29-15.24-30.65-2.09-18.1,6.71-39,27.59-44a34.93,34.93,0,0,1,8-1c11.26,0,21.62,5.95,29.19,16.74,3.24,4.62,6.16,7.7,9.83,7.7s6.53-3,9.73-7.57c8-11.34,17.63-16.85,29.51-16.85h.43c17.35.2,31.94,13.74,34.7,32.21,2.28,15.31-2.45,29.07-14.88,43.33-11,12.61-23.94,23.66-36.47,34.35-2.8,2.39-5.69,4.86-8.52,7.31-3.59,3.1-7.14,6.14-10.9,9.36l-3.63,3.1-5.17-4.44c-4.78-4.1-9.48-8.13-14.17-12.18l-4.89-4.19C-1087.36,306.36-1099.85,295.67-1110.45,283.5Z" transform="translate(1141.31 -192.37)"/></svg>