<svg id="Layer_1" data-name="Layer 1" xmlns="http://www.w3.org/2000/svg" viewBox="0 0 182.64 164.11"><defs><style>.cls-1{fill:#606060;}.cls-2{fill:#fff;}.cls-3{fill:#ff6ce4;opacity:0.5;isolation:isolate;}</style></defs><path class="cls-1" d="M392.46,37.7c-6.52-18.61-19.78-30.35-38.35-33.94a54.26,54.26,0,0,0-10.24-1c-14.47,0-27.12,6.36-37.61,18.9l-.66.77c-.74-.91-1.47-1.77-2.22-2.61-8.59-9.52-18.48-15-29.4-16.39A58.84,58.84,0,0,0,266.72,3c-23,0-41.6,14-48.68,36.65-4.45,14.22-3.3,28.93,2.39,42.63,4.73,11.41,12.61,21.89,24.79,33s25,22.29,37.3,33l12.61,11c3.77,3.32,7.09,4.86,10.42,4.86s6.65-1.53,10.47-4.82l9.28-8c6.35-5.44,12.93-11.06,19.35-16.65l1.31-1.14c12.4-10.79,25.22-22,35.44-35.47C396,78.81,399.76,58.48,392.46,37.7ZM246.17,93.88c-9.19-10.56-14-20.3-15.23-30.65-2.09-18.11,6.71-39,27.59-44a34.78,34.78,0,0,1,8-1c11.25,0,21.62,5.95,29.19,16.74,3.24,4.62,6.15,7.7,9.83,7.7s6.53-3,9.73-7.57c8-11.34,17.63-16.85,29.51-16.85h.43c17.35.2,31.94,13.74,34.7,32.21,2.28,15.3-2.45,29.07-14.88,43.33-11,12.61-24,23.66-36.47,34.35-2.8,2.39-5.69,4.85-8.53,7.31-3.58,3.1-7.13,6.14-10.9,9.35l-3.62,3.11-5.17-4.44-14.17-12.18-4.89-4.19C269.26,116.74,256.76,106.05,246.17,93.88Z" transform="translate(-213.44 -0.01)"/><path class="cls-2" d="M390.59,35C384.07,16.34,370.81,4.6,352.24,1A54.07,54.07,0,0,0,342,0c-14.48,0-27.13,6.36-37.62,18.9l-.65.77c-.75-.91-1.47-1.77-2.23-2.61C292.92,7.56,283,2.07,272.11.68a58.84,58.84,0,0,0-7.26-.45c-23,0-41.6,14-48.68,36.65-4.45,14.22-3.3,28.93,2.39,42.63,4.73,11.41,12.61,21.89,24.8,33s25,22.3,37.3,33l12.6,11c3.77,3.31,7.09,4.85,10.42,4.85s6.65-1.53,10.48-4.82l9.27-7.95c6.36-5.44,12.93-11.06,19.35-16.65l1.31-1.14c12.4-10.79,25.22-22,35.45-35.47C394.15,76.07,397.87,55.73,390.59,35ZM244.31,91.13c-9.2-10.56-14-20.29-15.24-30.65-2.09-18.1,6.71-39,27.59-44a34.78,34.78,0,0,1,8-1c11.26,0,21.62,5.95,29.19,16.74,3.24,4.62,6.16,7.7,9.83,7.7s6.53-3,9.73-7.57C321.41,21,331,15.5,342.92,15.5h.43c17.35.2,31.94,13.74,34.7,32.21C380.33,63,375.6,76.78,363.17,91c-11,12.61-23.94,23.66-36.47,34.35-2.8,2.39-5.69,4.86-8.52,7.31-3.59,3.1-7.14,6.14-10.9,9.36l-3.63,3.1-5.17-4.44c-4.78-4.1-9.48-8.13-14.17-12.18l-4.89-4.19C267.4,114,254.91,103.3,244.31,91.13Z" transform="translate(-213.44 -0.01)"/><path class="cls-3" d="M244.31,91.13c-9.2-10.56-14-20.29-15.24-30.65-2.09-18.1,6.71-39,27.59-44a34.78,34.78,0,0,1,8-1c11.26,0,21.62,5.95,29.19,16.74,3.24,4.62,6.16,7.7,9.83,7.7s6.53-3,9.73-7.57C321.41,21,331,15.5,342.92,15.5h.43c17.35.2,31.94,13.74,34.7,32.21C380.33,63,375.6,76.78,363.17,91c-11,12.61-23.94,23.66-36.47,34.35-2.8,2.39-5.69,4.86-8.52,7.31-3.59,3.1-7.14,6.14-10.9,9.36l-3.63,3.1-5.17-4.44c-4.78-4.1-9.48-8.13-14.17-12.18l-4.89-4.19C267.4,114,254.91,103.3,244.31,91.13Z" transform="translate(-213.44 -0.01)"/></svg>