<svg id="Layer_1" data-name="Layer 1" xmlns="http://www.w3.org/2000/svg" viewBox="0 0 531.22 114.34"><defs><style>.cls-1{fill:#373233;}.cls-2{fill:#ee405f;}</style></defs><path class="cls-1" d="M72.74,272.94,98.38,306.8H87l-30.8-41.1c5.65,0,14,.37,19.51-1.35,8.83-2.7,15-9.81,15-19.26,0-6.87-3.81-14.11-9.94-17.42-5.64-3.07-11.29-3.44-17.67-3.44H47.22V306.8H38.14V216H61.2c6.87,0,16,.37,22.33,3.44a28.13,28.13,0,0,1,16.2,25.88C99.73,260.79,88,272,72.74,272.94Z" transform="translate(-38.14 -216.01)"/><path class="cls-1" d="M178.61,276.37H117.52c.61,13.25,12.88,24.29,26,24.29,10.31,0,20.37-5.89,24-15.82h9.08a34.94,34.94,0,0,1-68-11.53c0-19.14,15.58-35.34,34.84-35.34,19.63,0,35.21,16.57,35.21,36C178.73,274.78,178.61,275.51,178.61,276.37Zm-35-30.67c-13.38,0-24.05,9.82-26.13,22.94H169.9C167.69,255.52,157.14,245.7,143.65,245.7Z" transform="translate(-38.14 -216.01)"/><path class="cls-1" d="M224.86,308.39c-19.75,0-36.06-15.09-36.06-35.08,0-19.76,16.43-35.34,36.06-35.34,14.6,0,27.85,8.22,33.37,22h-9.44a26.53,26.53,0,0,0-23.68-14.23c-15.34,0-27.73,11.9-27.73,27.36a27.29,27.29,0,0,0,27.73,27.6c9.94,0,19-4.66,23.68-13.61h9.44C251.36,300.54,240.44,308.39,224.86,308.39Z" transform="translate(-38.14 -216.01)"/><path class="cls-1" d="M271.12,231.47v-7.73h8.58v7.73Zm0,75.33V239.69h8.58V306.8Z" transform="translate(-38.14 -216.01)"/><path class="cls-1" d="M330.49,308.39A31.39,31.39,0,0,1,304.36,295h-.24v35.33h-8.59V239.69h8.59v11.78h.24A31.37,31.37,0,0,1,330.49,238c19.76,0,36.07,15,36.07,35.09S350.61,308.39,330.49,308.39Zm0-62.69c-15.21,0-26.86,12.64-26.86,27.61s11.65,27.35,26.86,27.35c15.71,0,27.48-11.53,27.48-27.23S346.44,245.7,330.49,245.7Z" transform="translate(-38.14 -216.01)"/><path class="cls-2" d="M445.2,278.33H388.89c2.58,10.56,11.17,18.53,22.33,18.53a21.84,21.84,0,0,0,19.38-11.41h12.76c-5.15,13.86-17.79,23.06-32.63,23.06-19.38,0-34.6-16.8-34.6-35.82,0-19.63,15-35.7,34.84-35.7a34.79,34.79,0,0,1,34.6,35A54.42,54.42,0,0,1,445.2,278.33Zm-34.35-29.68c-11,0-21.22,8.71-22,19.87h43.92C432.08,257.36,421.89,248.65,410.85,248.65Z" transform="translate(-38.14 -216.01)"/><path class="cls-2" d="M514.15,306.8V296.25h-.24c-4.79,8.22-13.74,12.26-23.07,12.26-20.36,0-36.07-15-36.07-35.45S470.23,237,490.84,237c9.08,0,18,3.68,23.07,11.41h.24v-9.57h12.76v68Zm-23.31-58.15c-13.49,0-23.31,11-23.31,24.29,0,12.76,10.19,23.92,23.19,23.92a23.75,23.75,0,0,0,23.68-23.92C514.4,259.32,504.71,248.65,490.84,248.65Z" transform="translate(-38.14 -216.01)"/><path class="cls-2" d="M558.2,250.49V306.8H545.44V250.49h-9.2V238.83h9.2V223.74H558.2v15.09h11.16v11.66Z" transform="translate(-38.14 -216.01)"/></svg>