<?xml version="1.0" encoding="utf-8"?>
<!-- Generator: Adobe Illustrator 25.2.0, SVG Export Plug-In . SVG Version: 6.00 Build 0)  -->
<svg version="1.1" id="Layer_1" xmlns="http://www.w3.org/2000/svg" xmlns:xlink="http://www.w3.org/1999/xlink" x="0px" y="0px"
	 viewBox="0 0 531.2 114.3" style="enable-background:new 0 0 531.2 114.3;" xml:space="preserve">
<style type="text/css">
	.st0{fill:#FFFFFF;}
	.st1{fill:#EE405F;}
</style>
<path class="st0" d="M34.6,56.9l25.6,33.9H48.9L18.1,49.7c5.7,0,14,0.4,19.5-1.4c8.8-2.7,15-9.8,15-19.3c0-6.9-3.8-14.1-9.9-17.4
	C37,8.6,31.3,8.2,25,8.2H9.1v82.6H0V0h23.1c6.9,0,16,0.4,22.3,3.4c10,4.7,16.4,14.8,16.2,25.9C61.6,44.8,49.9,56,34.6,56.9z"/>
<path class="st0" d="M140.5,60.4H79.4c0.6,13.2,12.9,24.3,26,24.3c10.3,0,20.4-5.9,24-15.8h9.1c-6.2,18.3-26.1,28-44.4,21.8
	c-14.2-4.9-23.7-18.3-23.6-33.3C70.5,38.2,86,22,105.3,22c19.6,0,35.2,16.6,35.2,36C140.6,58.8,140.5,59.5,140.5,60.4z M105.5,29.7
	c-13.4,0-24.1,9.8-26.1,22.9h52.4C129.6,39.5,119,29.7,105.5,29.7L105.5,29.7z"/>
<path class="st0" d="M186.7,92.4c-19.8,0-36.1-15.1-36.1-35.1c0-19.8,16.4-35.3,36.1-35.3c14.6,0,27.9,8.2,33.4,22h-9.4
	c-4.6-8.8-13.7-14.3-23.7-14.2c-15.3,0-27.7,11.9-27.7,27.4c-0.2,15.1,11.9,27.4,27,27.6c0.3,0,0.5,0,0.8,0c9.9,0,19-4.7,23.7-13.6
	h9.4C213.2,84.5,202.3,92.4,186.7,92.4z"/>
<path class="st0" d="M233,15.5V7.7h8.6v7.7H233z M233,90.8V23.7h8.6v67.1H233z"/>
<path class="st0" d="M292.3,92.4c-10.4,0.1-20.2-4.9-26.1-13.4H266v35.3h-8.6V23.7h8.6v11.8h0.2c5.9-8.5,15.7-13.6,26.1-13.5
	c19.8,0,36.1,15,36.1,35.1S312.5,92.4,292.3,92.4z M292.3,29.7c-15.2,0-26.9,12.6-26.9,27.6s11.7,27.4,26.9,27.4
	c15.7,0,27.5-11.5,27.5-27.2S308.3,29.7,292.3,29.7L292.3,29.7z"/>
<path class="st1" d="M407.1,62.3h-56.3c2.6,10.6,11.2,18.5,22.3,18.5c8.1,0.1,15.5-4.3,19.4-11.4h12.8
	c-5.2,13.9-17.8,23.1-32.6,23.1c-19.4,0-34.6-16.8-34.6-35.8C338,37,353,21,372.8,21c19.2,0.1,34.7,15.8,34.6,35c0,0,0,0,0,0
	C407.4,58.1,407.3,60.2,407.1,62.3z M372.7,32.6c-11,0-21.2,8.7-22,19.9h43.9C393.9,41.3,383.8,32.6,372.7,32.6z"/>
<path class="st1" d="M476,90.8V80.2h-0.2c-4.8,8.2-13.7,12.3-23.1,12.3c-20.4,0-36.1-15-36.1-35.5S432.1,21,452.7,21
	c9.1,0,18,3.7,23.1,11.4h0.2v-9.6h12.8v68L476,90.8z M452.7,32.6c-13.5,0-23.3,11-23.3,24.3c0,12.8,10.2,23.9,23.2,23.9
	c13.1,0,23.7-10.7,23.7-23.8c0,0,0-0.1,0-0.1C476.3,43.3,466.6,32.6,452.7,32.6L452.7,32.6z"/>
<path class="st1" d="M520.1,34.5v56.3h-12.8V34.5h-9.2V22.8h9.2V7.7h12.8v15.1h11.2v11.7H520.1z"/>
</svg>
