<svg id="Layer_1" data-name="Layer 1" xmlns="http://www.w3.org/2000/svg" viewBox="0 0 153.26 164.15"><defs><style>.cls-1,.cls-2{fill:#606060;}.cls-2{opacity:0.5;isolation:isolate;}.cls-3{fill:#fff;}</style></defs><path class="cls-1" d="M162.69,31.25c-.77-3.75-3.82-6.09-8-6.09H117.77V25c0-1.55,0-3,0-4.53a18.72,18.72,0,0,0-13.27-17l-1.84-.52-1.08-.29H73.61L73.07,3C63.3,5.24,57.69,12.29,57.66,22.39c0,.91,0,1.82,0,2.76h-37c-4.53,0-8,3.24-8,7.52s3.35,7.52,7.9,7.64c.8,0,1.6,0,2.39,0,.56,0,1.12,0,1.67,0,.35,4.52.77,9.1,1.17,13.54,0,0,1.45,15.86,2.13,23.23l2.79,30.43q1.27,14.11,2.54,28.25.93,10.38,1.87,20.78c.43,4.83,3.45,7.6,8.27,7.6h88.83c4.81,0,7.83-2.77,8.27-7.6q.79-8.51,1.55-17l1.67-18.65q1.38-15.27,2.75-30.53L147.87,74q1.53-16.86,3-33.73l1.92,0a25.74,25.74,0,0,0,3.91-.25,7.13,7.13,0,0,0,4.76-3A7.6,7.6,0,0,0,162.69,31.25ZM82.26,17.78H98.17c3.21,0,4.52,1.32,4.54,4.5v2.8h-30v-.27a29.37,29.37,0,0,1,.38-4.71c.4-2.11,3-2.3,3.71-2.31ZM126.55,141.5c-.22,2.44-.45,4.95-.66,7.51H97q-23.55,0-47.14,0h-.27c0-.08,0-.18,0-.29-.9-10.51-1.88-21.19-2.83-31.51q-.66-7.16-1.31-14.31-1.09-12-2.16-24L41.59,60.5c-.47-5.12-.94-10.23-1.41-15.4l-.44-4.7h96l-.12,1.41q-.33,3.78-.67,7.51c-.51,5.63-2.63,28.8-2.63,28.8q-1.5,16.32-3,32.64C128.48,120.2,126.55,141.5,126.55,141.5Z" transform="translate(-9.58 -0.01)"/><path class="cls-1" d="M109.66,47.68h-.52a7.6,7.6,0,0,0-7.49,7.21c-.37,4.82-.7,9.64-1,14.47L100.07,77s-1.68,23.28-2,28.24q-.68,9.51-1.35,19.08l-.62,8.76c-.14,4,1.68,7,5,8.14a7.83,7.83,0,0,0,2.59.44,6.8,6.8,0,0,0,6-3.21,12.86,12.86,0,0,0,1.59-5.45c.5-6.18.93-12.47,1.35-18.55l.66-9.55q.84-11.69,1.69-23.37.91-12.72,1.83-25.43a7.9,7.9,0,0,0-1.8-5.74A7.58,7.58,0,0,0,109.66,47.68Z" transform="translate(-9.58 -0.01)"/><path class="cls-1" d="M79.39,132.54c0-.35,0-.68-.06-1l-1-13.36q-1-13.65-2-27.3L74.84,69.21l-1-14.09a7.71,7.71,0,0,0-7.53-7.45h-.39a7.6,7.6,0,0,0-5.31,2.53A7.89,7.89,0,0,0,58.69,56Q59.33,65.47,60,75l1.23,17.16q1,13.65,2,27.29l.2,2.74c.29,4.19.6,8.52,1,12.78a7.18,7.18,0,0,0,5.18,6.34,7.07,7.07,0,0,0,2.3.38,7.6,7.6,0,0,0,5.66-2.53A7.75,7.75,0,0,0,79.41,133Z" transform="translate(-9.58 -0.01)"/><path class="cls-2" d="M123.54,138.86c-.23,2.44-.46,4.95-.66,7.51H94q-23.56,0-47.15,0h-.26c0-.08,0-.17,0-.29-.91-10.51-1.89-21.18-2.84-31.51q-.66-7.15-1.31-14.31-1.1-12-2.16-24l-1.65-18.4c-.46-5.12-.93-10.23-1.41-15.4l-.43-4.7h96l-.13,1.41q-.33,3.78-.66,7.51c-.52,5.64-2.64,28.8-2.64,28.8l-3,32.64C125.47,117.57,123.54,138.86,123.54,138.86Z" transform="translate(-9.58 -0.01)"/><path class="cls-3" d="M159.67,28.61c-.76-3.75-3.82-6.09-8-6.09H114.75a.86.86,0,0,0,0-.16c0-1.55,0-3,0-4.53a18.68,18.68,0,0,0-13.27-17c-.61-.19-1.22-.36-1.84-.52L98.53,0H70.6l-.55.36C60.29,2.61,54.68,9.65,54.64,19.75v2.76h-37c-4.53,0-8,3.24-8,7.52s3.35,7.52,7.9,7.64c.79,0,1.59,0,2.39,0,.56,0,1.11,0,1.67,0,.34,4.52.76,9.1,1.17,13.54,0,0,1.45,15.86,2.13,23.23q1.39,15.23,2.78,30.43,1.29,14.11,2.54,28.25.93,10.4,1.87,20.78c.44,4.83,3.45,7.6,8.28,7.6h88.82c4.82,0,7.83-2.77,8.28-7.6q.78-8.5,1.54-17l1.68-18.65Q142,103,143.37,87.73l1.49-16.33q1.53-16.86,3-33.73l1.91,0a25.88,25.88,0,0,0,3.92-.25,7,7,0,0,0,4.75-3A7.64,7.64,0,0,0,159.67,28.61ZM79.25,15.14h15.9c3.21,0,4.53,1.32,4.54,4.5,0,.93,0,1.85,0,2.81h-30c0-.1,0-.19,0-.28a29.4,29.4,0,0,1,.37-4.71c.41-2.11,3-2.3,3.72-2.31C75.62,15.15,77.43,15.14,79.25,15.14Zm44.29,123.72c-.23,2.44-.46,4.95-.66,7.51H94q-23.56,0-47.15,0h-.26c0-.08,0-.17,0-.29-.91-10.51-1.89-21.18-2.84-31.51q-.66-7.15-1.31-14.31-1.1-12-2.16-24l-1.65-18.4c-.46-5.12-.93-10.23-1.41-15.4l-.43-4.7h96l-.13,1.41q-.33,3.78-.66,7.51c-.52,5.64-2.64,28.8-2.64,28.8l-3,32.64C125.47,117.57,123.54,138.86,123.54,138.86Z" transform="translate(-9.58 -0.01)"/><path class="cls-3" d="M106.65,45.05a4.61,4.61,0,0,0-.52,0,7.59,7.59,0,0,0-7.49,7.21c-.37,4.82-.71,9.65-1,14.47-.17,2.55-.35,5.09-.54,7.64,0,0-1.68,23.28-2,28.24-.45,6.34-.9,12.69-1.36,19.09l-.61,8.75c-.15,4,1.67,7,5,8.14a7.83,7.83,0,0,0,2.59.44,6.8,6.8,0,0,0,6-3.21,13,13,0,0,0,1.59-5.45c.49-6.18.92-12.47,1.34-18.55q.33-4.77.67-9.55.84-11.69,1.69-23.37l1.83-25.43a8,8,0,0,0-1.8-5.74A7.55,7.55,0,0,0,106.65,45.05Z" transform="translate(-9.58 -0.01)"/><path class="cls-3" d="M76.37,129.9c0-.35,0-.68-.06-1l-1-13.36q-1-13.65-2-27.3-.78-10.83-1.54-21.67l-1-14.09A7.71,7.71,0,0,0,63.3,45h-.4a7.56,7.56,0,0,0-5.3,2.53,7.85,7.85,0,0,0-1.92,5.8c.43,6.32.89,12.63,1.34,18.94l1.23,17.17q1,13.63,2,27.28l.2,2.74c.3,4.19.61,8.52,1,12.78a7.18,7.18,0,0,0,5.18,6.34,7.05,7.05,0,0,0,2.29.38,7.62,7.62,0,0,0,5.67-2.53,7.79,7.79,0,0,0,1.86-6.09Z" transform="translate(-9.58 -0.01)"/></svg>